<svg width="122" height="32" viewBox="0 0 122 32" fill="none" xmlns="http://www.w3.org/2000/svg">
<rect width="122" height="32" rx="16" fill="#599DB0"/>
<path d="M10.4727 18.1289C10.4727 18.0508 10.4531 17.8945 10.4141 17.6602C10.3828 17.418 10.3242 17.0977 10.2383 16.6992C9.74609 16.8477 9.35156 16.9102 9.05469 16.8867C8.76562 16.8555 8.5625 16.7812 8.44531 16.6641C8.32812 16.5469 8.29688 16.4102 8.35156 16.2539C8.40625 16.0977 8.52734 15.9688 8.71484 15.8672C8.91016 15.7578 9.16797 15.6992 9.48828 15.6914C9.81641 15.6758 10.1992 15.7461 10.6367 15.9023C10.668 15.8633 10.6914 15.7812 10.707 15.6562C10.7305 15.5312 10.7539 15.3867 10.7773 15.2227C10.8008 15.0586 10.8242 14.8867 10.8477 14.707C10.8789 14.5273 10.9023 14.3633 10.918 14.2148C10.9414 14.0664 10.9609 13.9414 10.9766 13.8398C10.9922 13.7305 11.0117 13.6758 11.0352 13.6758C11.082 13.6445 11.1562 13.6211 11.2578 13.6055C11.3594 13.5898 11.457 13.5781 11.5508 13.5703C11.6758 13.5547 11.8047 13.5469 11.9375 13.5469L12.0898 15.4688H12.9688C12.9688 15.4531 12.9727 15.3867 12.9805 15.2695C12.9883 15.1523 13 15.0117 13.0156 14.8477C13.0391 14.6758 13.0664 14.4922 13.0977 14.2969C13.1367 14.1016 13.1836 13.9258 13.2383 13.7695C13.293 13.6055 13.3555 13.4688 13.4258 13.3594C13.5039 13.25 13.5977 13.1953 13.707 13.1953C13.7383 13.1953 13.7852 13.1992 13.8477 13.207C13.9102 13.207 13.9688 13.2148 14.0234 13.2305C14.0781 13.2461 14.125 13.2734 14.1641 13.3125C14.2109 13.3438 14.2344 13.3945 14.2344 13.4648V15.2227C14.3203 15.2539 14.4336 15.2852 14.5742 15.3164C14.7227 15.3477 14.8828 15.3789 15.0547 15.4102C15.2344 15.4336 15.4141 15.4609 15.5938 15.4922C15.7734 15.5234 15.9375 15.5586 16.0859 15.5977C16.2344 15.6367 16.3555 15.6836 16.4492 15.7383C16.543 15.7852 16.5898 15.8398 16.5898 15.9023C16.5352 16.0664 16.4219 16.1875 16.25 16.2656C16.0859 16.3359 15.8984 16.3945 15.6875 16.4414C15.4844 16.4805 15.2773 16.5195 15.0664 16.5586C14.8633 16.5898 14.6953 16.6406 14.5625 16.7109C14.4375 16.7812 14.3633 16.8828 14.3398 17.0156C14.3242 17.1484 14.4062 17.3359 14.5859 17.5781C14.6719 17.5781 14.7812 17.5703 14.9141 17.5547C15.0469 17.5391 15.1836 17.5234 15.3242 17.5078C15.4648 17.4922 15.6055 17.4844 15.7461 17.4844C15.8867 17.4844 16.0117 17.5 16.1211 17.5312C16.2305 17.5625 16.3203 17.6172 16.3906 17.6953C16.4609 17.7734 16.4961 17.8828 16.4961 18.0234C16.4961 18.1484 16.418 18.25 16.2617 18.3281C16.1133 18.4062 15.9375 18.4727 15.7344 18.5273C15.5312 18.582 15.332 18.625 15.1367 18.6562C14.9492 18.6875 14.8125 18.7148 14.7266 18.7383C14.75 18.8789 14.7773 19.0508 14.8086 19.2539C14.8398 19.4492 14.8477 19.6406 14.832 19.8281C14.8242 20.0156 14.7773 20.1797 14.6914 20.3203C14.6055 20.4609 14.4531 20.5312 14.2344 20.5312C14.0703 20.4766 13.9492 20.3945 13.8711 20.2852C13.8008 20.168 13.7422 20.043 13.6953 19.9102C13.6562 19.7695 13.6211 19.6367 13.5898 19.5117C13.5586 19.3789 13.5039 19.2695 13.4258 19.1836C13.3477 19.0977 13.2305 19.0508 13.0742 19.043C12.918 19.0273 12.6992 19.0664 12.418 19.1602C12.418 19.3008 12.418 19.4648 12.418 19.6523C12.418 19.832 12.3984 20.0078 12.3594 20.1797C12.3281 20.3438 12.2617 20.4844 12.1602 20.6016C12.0586 20.7109 11.9102 20.7656 11.7148 20.7656C11.6445 20.7656 11.5625 20.707 11.4688 20.5898C11.3828 20.4727 11.2891 20.332 11.1875 20.168C11.0938 19.9961 10.9961 19.8281 10.8945 19.6641C10.793 19.5 10.6953 19.3672 10.6016 19.2656C10.1328 19.2188 9.76953 19.168 9.51172 19.1133C9.26172 19.0508 9.08984 18.9883 8.99609 18.9258C8.90234 18.8633 8.875 18.8008 8.91406 18.7383C8.95312 18.668 9.02344 18.6016 9.125 18.5391C9.38281 18.4062 9.83203 18.2695 10.4727 18.1289ZM11.9609 17.4727C11.9609 17.543 11.9805 17.5977 12.0195 17.6367C12.0586 17.6758 12.1055 17.707 12.1602 17.7305C12.2148 17.7461 12.2695 17.7578 12.3242 17.7656C12.3867 17.7656 12.4375 17.7656 12.4766 17.7656C12.5391 17.7656 12.6133 17.7617 12.6992 17.7539C12.7852 17.7383 12.8672 17.7188 12.9453 17.6953C13.0312 17.6719 13.1016 17.6367 13.1562 17.5898C13.2188 17.5352 13.25 17.4648 13.25 17.3789C13.25 17.207 13.207 17.0508 13.1211 16.9102C13.043 16.7695 12.918 16.6992 12.7461 16.6992C12.6523 16.6992 12.5586 16.7227 12.4648 16.7695C12.3711 16.8086 12.2852 16.8672 12.207 16.9453C12.1367 17.0156 12.0781 17.0977 12.0312 17.1914C11.9844 17.2852 11.9609 17.3789 11.9609 17.4727ZM19.0039 10.7109C19.0508 10.5703 19.1172 10.4883 19.2031 10.4648C19.2969 10.4414 19.4023 10.4297 19.5195 10.4297C19.6992 10.4297 19.8984 10.5508 20.1172 10.793C20.3438 11.0273 20.5742 11.3438 20.8086 11.7422C21.043 12.1406 21.2773 12.5977 21.5117 13.1133C21.7539 13.6289 21.9844 14.1641 22.2031 14.7188C22.4297 15.2656 22.6406 15.8125 22.8359 16.3594C23.0312 16.9062 23.1992 17.4102 23.3398 17.8711C23.4883 18.3242 23.6016 18.7188 23.6797 19.0547C23.7578 19.3906 23.7969 19.6211 23.7969 19.7461C23.7969 19.8711 23.7656 19.9922 23.7031 20.1094C23.6484 20.2188 23.5469 20.2734 23.3984 20.2734C23.3047 20.2734 23.2227 20.2461 23.1523 20.1914C23.0898 20.1289 23.0352 20.0547 22.9883 19.9688C22.9414 19.8828 22.8984 19.7969 22.8594 19.7109C22.8203 19.625 22.7852 19.5508 22.7539 19.4883C22.7227 19.4023 22.6562 19.2383 22.5547 18.9961C22.4609 18.7539 22.3594 18.5 22.25 18.2344C22.1484 17.9688 22.0508 17.7188 21.957 17.4844C21.8633 17.25 21.7969 17.082 21.7578 16.9805C21.2109 16.8867 20.6602 16.8008 20.1055 16.7227C19.5586 16.6367 18.9805 16.5547 18.3711 16.4766H18.2422C17.9609 17.6875 17.7109 18.6445 17.4922 19.3477C17.2812 20.0508 17.1016 20.5508 16.9531 20.8477C16.8125 21.1445 16.6992 21.2656 16.6133 21.2109C16.5352 21.1641 16.4805 20.9883 16.4492 20.6836C16.4258 20.3711 16.4297 19.957 16.4609 19.4414C16.5 18.9258 16.5664 18.3594 16.6602 17.7422C16.7617 17.1172 16.8828 16.4648 17.0234 15.7852C17.1641 15.1055 17.332 14.4492 17.5273 13.8164C17.7305 13.1836 17.9531 12.5977 18.1953 12.0586C18.4453 11.5117 18.7148 11.0625 19.0039 10.7109ZM18.7227 14.8359C18.7227 15.125 18.8164 15.3398 19.0039 15.4805C19.1914 15.6133 19.418 15.6992 19.6836 15.7383C19.9492 15.7773 20.2266 15.793 20.5156 15.7852C20.8125 15.7773 21.0664 15.7734 21.2773 15.7734C21.2773 15.4609 21.2266 15.125 21.125 14.7656C21.0234 14.3984 20.8945 14.0352 20.7383 13.6758C20.582 13.3164 20.4141 12.9688 20.2344 12.6328C20.0625 12.2891 19.9023 11.9805 19.7539 11.707C19.668 11.793 19.5742 11.9531 19.4727 12.1875C19.3789 12.4141 19.2812 12.6719 19.1797 12.9609C19.0859 13.2422 19 13.5195 18.9219 13.793C18.8438 14.0664 18.7852 14.2891 18.7461 14.4609C18.7461 14.4844 18.7422 14.5469 18.7344 14.6484C18.7266 14.7422 18.7227 14.8047 18.7227 14.8359ZM24.2773 17.4727C24.2773 17.1445 24.3477 16.8008 24.4883 16.4414C24.6367 16.082 24.832 15.7578 25.0742 15.4688C25.3164 15.1719 25.5938 14.9258 25.9062 14.7305C26.2266 14.5352 26.5625 14.4375 26.9141 14.4375C27.0938 14.4375 27.2734 14.4688 27.4531 14.5312C27.6328 14.5938 27.793 14.6836 27.9336 14.8008C28.082 14.918 28.1992 15.0586 28.2852 15.2227C28.3789 15.3867 28.4258 15.5703 28.4258 15.7734C28.2852 15.7734 28.1562 15.7578 28.0391 15.7266C27.9297 15.6953 27.8203 15.6602 27.7109 15.6211C27.6016 15.5742 27.4922 15.5352 27.3828 15.5039C27.2812 15.4727 27.168 15.457 27.043 15.457C26.7227 15.457 26.4609 15.5391 26.2578 15.7031C26.0625 15.8594 25.9062 16.0586 25.7891 16.3008C25.6719 16.543 25.5898 16.8047 25.543 17.0859C25.5039 17.3594 25.4844 17.6172 25.4844 17.8594C25.4844 17.8984 25.4844 17.9727 25.4844 18.082C25.4922 18.1914 25.4961 18.3086 25.4961 18.4336C25.5039 18.5508 25.5078 18.6641 25.5078 18.7734C25.5156 18.8828 25.5234 18.957 25.5312 18.9961C25.6172 19.1836 25.6992 19.3281 25.7773 19.4297C25.8633 19.5312 25.9531 19.6094 26.0469 19.6641C26.1406 19.7109 26.2422 19.7422 26.3516 19.7578C26.4609 19.7656 26.5898 19.7695 26.7383 19.7695C26.9414 19.7695 27.1172 19.7383 27.2656 19.6758C27.4219 19.6133 27.5664 19.5391 27.6992 19.4531C27.832 19.3672 27.957 19.2734 28.0742 19.1719C28.1914 19.0625 28.3125 18.9648 28.4375 18.8789C28.5703 18.7852 28.7109 18.7109 28.8594 18.6562C29.0156 18.5938 29.1914 18.5625 29.3867 18.5625C29.3867 18.9453 29.3164 19.2852 29.1758 19.582C29.043 19.8789 28.8516 20.1328 28.6016 20.3438C28.3594 20.5547 28.0703 20.7188 27.7344 20.8359C27.4062 20.9453 27.0469 21 26.6562 21C26.2891 21 25.957 20.875 25.6602 20.625C25.3711 20.375 25.1211 20.0703 24.9102 19.7109C24.707 19.3438 24.5508 18.957 24.4414 18.5508C24.332 18.1445 24.2773 17.7852 24.2773 17.4727ZM29.8086 17.4727C29.8086 17.1445 29.8789 16.8008 30.0195 16.4414C30.168 16.082 30.3633 15.7578 30.6055 15.4688C30.8477 15.1719 31.125 14.9258 31.4375 14.7305C31.7578 14.5352 32.0938 14.4375 32.4453 14.4375C32.625 14.4375 32.8047 14.4688 32.9844 14.5312C33.1641 14.5938 33.3242 14.6836 33.4648 14.8008C33.6133 14.918 33.7305 15.0586 33.8164 15.2227C33.9102 15.3867 33.957 15.5703 33.957 15.7734C33.8164 15.7734 33.6875 15.7578 33.5703 15.7266C33.4609 15.6953 33.3516 15.6602 33.2422 15.6211C33.1328 15.5742 33.0234 15.5352 32.9141 15.5039C32.8125 15.4727 32.6992 15.457 32.5742 15.457C32.2539 15.457 31.9922 15.5391 31.7891 15.7031C31.5938 15.8594 31.4375 16.0586 31.3203 16.3008C31.2031 16.543 31.1211 16.8047 31.0742 17.0859C31.0352 17.3594 31.0156 17.6172 31.0156 17.8594C31.0156 17.8984 31.0156 17.9727 31.0156 18.082C31.0234 18.1914 31.0273 18.3086 31.0273 18.4336C31.0352 18.5508 31.0391 18.6641 31.0391 18.7734C31.0469 18.8828 31.0547 18.957 31.0625 18.9961C31.1484 19.1836 31.2305 19.3281 31.3086 19.4297C31.3945 19.5312 31.4844 19.6094 31.5781 19.6641C31.6719 19.7109 31.7734 19.7422 31.8828 19.7578C31.9922 19.7656 32.1211 19.7695 32.2695 19.7695C32.4727 19.7695 32.6484 19.7383 32.7969 19.6758C32.9531 19.6133 33.0977 19.5391 33.2305 19.4531C33.3633 19.3672 33.4883 19.2734 33.6055 19.1719C33.7227 19.0625 33.8438 18.9648 33.9688 18.8789C34.1016 18.7852 34.2422 18.7109 34.3906 18.6562C34.5469 18.5938 34.7227 18.5625 34.918 18.5625C34.918 18.9453 34.8477 19.2852 34.707 19.582C34.5742 19.8789 34.3828 20.1328 34.1328 20.3438C33.8906 20.5547 33.6016 20.7188 33.2656 20.8359C32.9375 20.9453 32.5781 21 32.1875 21C31.8203 21 31.4883 20.875 31.1914 20.625C30.9023 20.375 30.6523 20.0703 30.4414 19.7109C30.2383 19.3438 30.082 18.957 29.9727 18.5508C29.8633 18.1445 29.8086 17.7852 29.8086 17.4727ZM35.5742 17.7422C35.5742 17.3203 35.625 16.8984 35.7266 16.4766C35.8281 16.0547 35.9883 15.6758 36.207 15.3398C36.4336 15.0039 36.7227 14.7305 37.0742 14.5195C37.4336 14.3086 37.8672 14.2031 38.375 14.2031C38.6641 14.2031 38.918 14.2578 39.1367 14.3672C39.3555 14.4688 39.5391 14.6055 39.6875 14.7773C39.8359 14.9492 39.9453 15.1523 40.0156 15.3867C40.0938 15.6133 40.1328 15.8516 40.1328 16.1016C40.1328 16.5 40.0391 16.8867 39.8516 17.2617C39.6719 17.6367 39.4258 17.9688 39.1133 18.2578C38.8086 18.5391 38.457 18.7539 38.0586 18.9023C37.6602 19.043 37.2539 19.0742 36.8398 18.9961C36.8477 19.2227 36.9219 19.4062 37.0625 19.5469C37.2109 19.6797 37.3867 19.7812 37.5898 19.8516C37.793 19.9219 38.0039 19.9688 38.2227 19.9922C38.4414 20.0078 38.6367 20.0156 38.8086 20.0156C38.9883 20.0156 39.1562 20 39.3125 19.9688C39.4688 19.9375 39.625 19.9023 39.7812 19.8633C39.9375 19.8242 40.0938 19.7891 40.25 19.7578C40.4141 19.7266 40.5859 19.7109 40.7656 19.7109C40.8359 19.7109 40.9062 19.7148 40.9766 19.7227C41.0469 19.7305 41.1133 19.75 41.1758 19.7812C41.2383 19.8047 41.2891 19.8477 41.3281 19.9102C41.3672 19.9648 41.3867 20.0352 41.3867 20.1211C41.3867 20.2695 41.332 20.3945 41.2227 20.4961C41.1133 20.5898 40.9727 20.6719 40.8008 20.7422C40.6367 20.8125 40.4531 20.8672 40.25 20.9062C40.0469 20.9375 39.8477 20.9648 39.6523 20.9883C39.4648 21.0039 39.2891 21.0117 39.125 21.0117C38.9688 21.0195 38.8516 21.0234 38.7734 21.0234C38.2734 21.0234 37.8242 20.9453 37.4258 20.7891C37.0273 20.625 36.6914 20.4023 36.418 20.1211C36.1445 19.832 35.9336 19.4883 35.7852 19.0898C35.6445 18.6836 35.5742 18.2344 35.5742 17.7422ZM36.8164 16.9805C36.8164 17.2539 36.8516 17.4531 36.9219 17.5781C37 17.7031 37.1836 17.7656 37.4727 17.7656C37.6758 17.7656 37.875 17.7305 38.0703 17.6602C38.2656 17.582 38.4414 17.4766 38.5977 17.3438C38.7617 17.2109 38.8906 17.0547 38.9844 16.875C39.0781 16.6953 39.125 16.5 39.125 16.2891C39.125 16.1719 39.1133 16.0508 39.0898 15.9258C39.0742 15.8008 39.0352 15.6875 38.9727 15.5859C38.9102 15.4766 38.8281 15.3906 38.7266 15.3281C38.6328 15.2578 38.5078 15.2227 38.3516 15.2227C38.1172 15.2227 37.9023 15.2773 37.707 15.3867C37.5195 15.4883 37.3594 15.625 37.2266 15.7969C37.0938 15.9609 36.9922 16.1484 36.9219 16.3594C36.8516 16.5625 36.8164 16.7695 36.8164 16.9805ZM44.3633 20.4727C44.4883 20.3867 44.6367 20.2773 44.8086 20.1445C44.9883 20.0039 45.168 19.8555 45.3477 19.6992C45.5273 19.543 45.6953 19.3789 45.8516 19.207C46.0078 19.0352 46.1289 18.8711 46.2148 18.7148C46.3086 18.5508 46.3555 18.3984 46.3555 18.2578C46.3555 18.1172 46.2852 18 46.1445 17.9062C45.8945 17.9062 45.6211 17.918 45.3242 17.9414C45.0273 17.957 44.7305 17.9648 44.4336 17.9648C44.1367 17.957 43.8477 17.9297 43.5664 17.8828C43.293 17.8359 43.0469 17.75 42.8281 17.625C42.6094 17.5 42.4336 17.3242 42.3008 17.0977C42.1758 16.8633 42.1133 16.5664 42.1133 16.207C42.1133 15.7852 42.1914 15.4062 42.3477 15.0703C42.5117 14.7266 42.7266 14.4258 42.9922 14.168C43.2578 13.9023 43.5547 13.6719 43.8828 13.4766C44.2188 13.2734 44.5547 13.1016 44.8906 12.9609C45.0938 13.0156 45.2812 13.1133 45.4531 13.2539C45.625 13.3945 45.7734 13.5508 45.8984 13.7227C45.8438 13.8945 45.7344 14.0273 45.5703 14.1211C45.4141 14.2148 45.2305 14.2969 45.0195 14.3672C44.8164 14.4375 44.6016 14.5117 44.375 14.5898C44.1484 14.668 43.9414 14.7734 43.7539 14.9062C43.5742 15.0312 43.4219 15.1992 43.2969 15.4102C43.1719 15.6133 43.1094 15.8828 43.1094 16.2188C43.1094 16.4688 43.1719 16.6523 43.2969 16.7695C43.4219 16.8867 43.5859 16.9688 43.7891 17.0156C43.9922 17.0547 44.2227 17.0703 44.4805 17.0625C44.7383 17.0469 45 17.0273 45.2656 17.0039C45.5391 16.9805 45.8047 16.9688 46.0625 16.9688C46.3203 16.9609 46.5508 16.9922 46.7539 17.0625C46.957 17.125 47.1172 17.2305 47.2344 17.3789C47.3594 17.5273 47.4219 17.7461 47.4219 18.0352C47.4219 18.1602 47.3789 18.3203 47.293 18.5156C47.2148 18.7109 47.1055 18.9219 46.9648 19.1484C46.832 19.3672 46.6719 19.5859 46.4844 19.8047C46.3047 20.0234 46.1133 20.2227 45.9102 20.4023C45.7148 20.5742 45.5156 20.7188 45.3125 20.8359C45.1172 20.9453 44.9336 21 44.7617 21C44.5977 21 44.4883 20.9414 44.4336 20.8242C44.3867 20.707 44.3633 20.5898 44.3633 20.4727ZM50.1406 20.4727C50.2656 20.3867 50.4141 20.2773 50.5859 20.1445C50.7656 20.0039 50.9453 19.8555 51.125 19.6992C51.3047 19.543 51.4727 19.3789 51.6289 19.207C51.7852 19.0352 51.9062 18.8711 51.9922 18.7148C52.0859 18.5508 52.1328 18.3984 52.1328 18.2578C52.1328 18.1172 52.0625 18 51.9219 17.9062C51.6719 17.9062 51.3984 17.918 51.1016 17.9414C50.8047 17.957 50.5078 17.9648 50.2109 17.9648C49.9141 17.957 49.625 17.9297 49.3438 17.8828C49.0703 17.8359 48.8242 17.75 48.6055 17.625C48.3867 17.5 48.2109 17.3242 48.0781 17.0977C47.9531 16.8633 47.8906 16.5664 47.8906 16.207C47.8906 15.7852 47.9688 15.4062 48.125 15.0703C48.2891 14.7266 48.5039 14.4258 48.7695 14.168C49.0352 13.9023 49.332 13.6719 49.6602 13.4766C49.9961 13.2734 50.332 13.1016 50.668 12.9609C50.8711 13.0156 51.0586 13.1133 51.2305 13.2539C51.4023 13.3945 51.5508 13.5508 51.6758 13.7227C51.6211 13.8945 51.5117 14.0273 51.3477 14.1211C51.1914 14.2148 51.0078 14.2969 50.7969 14.3672C50.5938 14.4375 50.3789 14.5117 50.1523 14.5898C49.9258 14.668 49.7188 14.7734 49.5312 14.9062C49.3516 15.0312 49.1992 15.1992 49.0742 15.4102C48.9492 15.6133 48.8867 15.8828 48.8867 16.2188C48.8867 16.4688 48.9492 16.6523 49.0742 16.7695C49.1992 16.8867 49.3633 16.9688 49.5664 17.0156C49.7695 17.0547 50 17.0703 50.2578 17.0625C50.5156 17.0469 50.7773 17.0273 51.043 17.0039C51.3164 16.9805 51.582 16.9688 51.8398 16.9688C52.0977 16.9609 52.3281 16.9922 52.5312 17.0625C52.7344 17.125 52.8945 17.2305 53.0117 17.3789C53.1367 17.5273 53.1992 17.7461 53.1992 18.0352C53.1992 18.1602 53.1562 18.3203 53.0703 18.5156C52.9922 18.7109 52.8828 18.9219 52.7422 19.1484C52.6094 19.3672 52.4492 19.5859 52.2617 19.8047C52.082 20.0234 51.8906 20.2227 51.6875 20.4023C51.4922 20.5742 51.293 20.7188 51.0898 20.8359C50.8945 20.9453 50.7109 21 50.5391 21C50.375 21 50.2656 20.9414 50.2109 20.8242C50.1641 20.707 50.1406 20.5898 50.1406 20.4727ZM61.6016 10.7109C61.6484 10.5703 61.7148 10.4883 61.8008 10.4648C61.8945 10.4414 62 10.4297 62.1172 10.4297C62.2969 10.4297 62.4961 10.5508 62.7148 10.793C62.9414 11.0273 63.1719 11.3438 63.4062 11.7422C63.6406 12.1406 63.875 12.5977 64.1094 13.1133C64.3516 13.6289 64.582 14.1641 64.8008 14.7188C65.0273 15.2656 65.2383 15.8125 65.4336 16.3594C65.6289 16.9062 65.7969 17.4102 65.9375 17.8711C66.0859 18.3242 66.1992 18.7188 66.2773 19.0547C66.3555 19.3906 66.3945 19.6211 66.3945 19.7461C66.3945 19.8711 66.3633 19.9922 66.3008 20.1094C66.2461 20.2188 66.1445 20.2734 65.9961 20.2734C65.9023 20.2734 65.8203 20.2461 65.75 20.1914C65.6875 20.1289 65.6328 20.0547 65.5859 19.9688C65.5391 19.8828 65.4961 19.7969 65.457 19.7109C65.418 19.625 65.3828 19.5508 65.3516 19.4883C65.3203 19.4023 65.2539 19.2383 65.1523 18.9961C65.0586 18.7539 64.957 18.5 64.8477 18.2344C64.7461 17.9688 64.6484 17.7188 64.5547 17.4844C64.4609 17.25 64.3945 17.082 64.3555 16.9805C63.8086 16.8867 63.2578 16.8008 62.7031 16.7227C62.1562 16.6367 61.5781 16.5547 60.9688 16.4766H60.8398C60.5586 17.6875 60.3086 18.6445 60.0898 19.3477C59.8789 20.0508 59.6992 20.5508 59.5508 20.8477C59.4102 21.1445 59.2969 21.2656 59.2109 21.2109C59.1328 21.1641 59.0781 20.9883 59.0469 20.6836C59.0234 20.3711 59.0273 19.957 59.0586 19.4414C59.0977 18.9258 59.1641 18.3594 59.2578 17.7422C59.3594 17.1172 59.4805 16.4648 59.6211 15.7852C59.7617 15.1055 59.9297 14.4492 60.125 13.8164C60.3281 13.1836 60.5508 12.5977 60.793 12.0586C61.043 11.5117 61.3125 11.0625 61.6016 10.7109ZM61.3203 14.8359C61.3203 15.125 61.4141 15.3398 61.6016 15.4805C61.7891 15.6133 62.0156 15.6992 62.2812 15.7383C62.5469 15.7773 62.8242 15.793 63.1133 15.7852C63.4102 15.7773 63.6641 15.7734 63.875 15.7734C63.875 15.4609 63.8242 15.125 63.7227 14.7656C63.6211 14.3984 63.4922 14.0352 63.3359 13.6758C63.1797 13.3164 63.0117 12.9688 62.832 12.6328C62.6602 12.2891 62.5 11.9805 62.3516 11.707C62.2656 11.793 62.1719 11.9531 62.0703 12.1875C61.9766 12.4141 61.8789 12.6719 61.7773 12.9609C61.6836 13.2422 61.5977 13.5195 61.5195 13.793C61.4414 14.0664 61.3828 14.2891 61.3438 14.4609C61.3438 14.4844 61.3398 14.5469 61.332 14.6484C61.3242 14.7422 61.3203 14.8047 61.3203 14.8359ZM67.1094 17.0508C67.1094 16.8477 67.1602 16.7031 67.2617 16.6172C67.3633 16.5234 67.5273 16.4766 67.7539 16.4766H67.8711C67.8945 16.6016 67.9219 16.7461 67.9531 16.9102C67.9844 17.0742 68.0312 17.2422 68.0938 17.4141C68.1562 17.5859 68.2305 17.7461 68.3164 17.8945C68.4023 18.0352 68.5078 18.1484 68.6328 18.2344C68.6406 17.9609 68.707 17.6992 68.832 17.4492C68.9648 17.1914 69.125 16.9648 69.3125 16.7695C69.5078 16.5664 69.7188 16.3984 69.9453 16.2656C70.1797 16.125 70.4102 16.0312 70.6367 15.9844H70.8945C71.2695 15.9844 71.5898 16.0703 71.8555 16.2422C72.1211 16.4062 72.3398 16.625 72.5117 16.8984C72.6914 17.1641 72.8281 17.4688 72.9219 17.8125C73.0156 18.1562 73.0859 18.5078 73.1328 18.8672C73.1875 19.2188 73.2188 19.5625 73.2266 19.8984C73.2422 20.2266 73.25 20.5078 73.25 20.7422H72.3945C72.3477 20.2734 72.2891 19.8242 72.2188 19.3945C72.1953 19.2227 72.1641 19.043 72.125 18.8555C72.0859 18.6602 72.043 18.4805 71.9961 18.3164C71.9492 18.1445 71.8984 17.9883 71.8438 17.8477C71.7891 17.6992 71.7266 17.5742 71.6562 17.4727C71.625 17.4414 71.582 17.3984 71.5273 17.3438C71.4805 17.2891 71.4297 17.2344 71.375 17.1797C71.3203 17.125 71.2695 17.0781 71.2227 17.0391C71.1758 17 71.1484 16.9805 71.1406 16.9805C70.9062 16.918 70.7031 16.9648 70.5312 17.1211C70.3594 17.2695 70.207 17.4727 70.0742 17.7305C69.9414 17.9883 69.832 18.2812 69.7461 18.6094C69.668 18.9375 69.6016 19.2539 69.5469 19.5586C69.4922 19.8555 69.4531 20.1172 69.4297 20.3438C69.4062 20.5625 69.3906 20.6953 69.3828 20.7422C69.1875 20.8828 69.0039 20.9258 68.832 20.8711C68.6602 20.8086 68.4961 20.6836 68.3398 20.4961C68.1914 20.3086 68.0547 20.0742 67.9297 19.793C67.8125 19.5117 67.7031 19.2148 67.6016 18.9023C67.5 18.582 67.4062 18.2617 67.3203 17.9414C67.2422 17.6211 67.1719 17.3242 67.1094 17.0508ZM73.6953 14.9414C73.6953 14.8711 73.6953 14.8008 73.6953 14.7305C73.7031 14.6523 73.7188 14.582 73.7422 14.5195C73.7734 14.4492 73.8125 14.3984 73.8594 14.3672C73.9141 14.3281 73.9922 14.3086 74.0938 14.3086C74.1016 14.3086 74.1094 14.3086 74.1172 14.3086C74.1328 14.3086 74.1484 14.3086 74.1641 14.3086C74.1875 14.3164 74.207 14.3203 74.2227 14.3203C74.3711 14.5234 74.5 14.7852 74.6094 15.1055C74.7188 15.418 74.8242 15.7539 74.9258 16.1133C75.0273 16.4648 75.1367 16.8242 75.2539 17.1914C75.3711 17.5508 75.5234 17.875 75.7109 18.1641C75.8984 18.4531 76.1289 18.6836 76.4023 18.8555C76.6758 19.0273 77.0156 19.1016 77.4219 19.0781C77.6016 19.0781 77.7188 18.9805 77.7734 18.7852C77.8281 18.5898 77.8555 18.3398 77.8555 18.0352C77.8633 17.7305 77.8555 17.3945 77.832 17.0273C77.8164 16.6602 77.8164 16.3125 77.832 15.9844C77.8555 15.6484 77.9141 15.3555 78.0078 15.1055C78.1094 14.8555 78.2812 14.6875 78.5234 14.6016C78.625 14.8047 78.707 15.125 78.7695 15.5625C78.8398 15.9922 78.8906 16.4922 78.9219 17.0625C78.9531 17.625 78.9688 18.2383 78.9688 18.9023C78.9688 19.5586 78.9531 20.2148 78.9219 20.8711C78.8906 21.5195 78.8438 22.1445 78.7812 22.7461C78.7188 23.3477 78.6484 23.875 78.5703 24.3281C78.4922 24.7812 78.3984 25.1367 78.2891 25.3945C78.1875 25.6602 78.0781 25.7734 77.9609 25.7344C77.7969 25.5781 77.668 25.375 77.5742 25.125C77.4883 24.875 77.4258 24.5977 77.3867 24.293C77.3555 23.9883 77.3438 23.6641 77.3516 23.3203C77.3594 22.9844 77.3711 22.6445 77.3867 22.3008C77.4102 21.957 77.4336 21.6211 77.457 21.293C77.4883 20.9648 77.5039 20.6641 77.5039 20.3906C77.2227 20.4141 76.9336 20.3711 76.6367 20.2617C76.3477 20.1523 76.0625 19.9844 75.7812 19.7578C75.5 19.5234 75.2305 19.2422 74.9727 18.9141C74.7227 18.5859 74.5 18.2148 74.3047 17.8008C74.1172 17.3867 73.9688 16.9414 73.8594 16.4648C73.75 15.9805 73.6953 15.4727 73.6953 14.9414ZM79.4141 15.9844C79.4141 15.8516 79.4414 15.7305 79.4961 15.6211C79.5586 15.5117 79.6641 15.457 79.8125 15.457C79.8203 15.457 79.832 15.4609 79.8477 15.4688C79.8633 15.4688 79.8789 15.4688 79.8945 15.4688C79.9102 15.4688 79.9258 15.4688 79.9414 15.4688C79.9648 15.4844 80.0078 15.5234 80.0703 15.5859C80.1406 15.6484 80.1836 15.6953 80.1992 15.7266C80.2227 15.7734 80.2695 15.875 80.3398 16.0312C80.418 16.1875 80.5078 16.3711 80.6094 16.582C80.7188 16.7852 80.8281 17.0039 80.9375 17.2383C81.0547 17.4648 81.1641 17.6836 81.2656 17.8945C81.375 18.1055 81.4648 18.2891 81.5352 18.4453C81.6133 18.5938 81.668 18.6914 81.6992 18.7383C81.707 18.7617 81.7422 18.8086 81.8047 18.8789C81.875 18.9414 81.9258 18.9805 81.957 18.9961C82.0195 18.8867 82.082 18.7227 82.1445 18.5039C82.207 18.2852 82.2695 18.0469 82.332 17.7891C82.4023 17.5234 82.4727 17.2539 82.543 16.9805C82.6133 16.6992 82.6914 16.4492 82.7773 16.2305C82.8711 16.0039 82.9727 15.8203 83.082 15.6797C83.1914 15.5312 83.3164 15.457 83.457 15.457C83.6602 15.457 83.8516 15.5352 84.0312 15.6914C84.2188 15.8477 84.3945 16.0508 84.5586 16.3008C84.7305 16.5508 84.8906 16.832 85.0391 17.1445C85.1953 17.4492 85.3398 17.7539 85.4727 18.0586C85.6133 18.3555 85.7422 18.6328 85.8594 18.8906C85.9844 19.1406 86.1055 19.3398 86.2227 19.4883C86.3164 19.457 86.3945 19.3789 86.457 19.2539C86.5195 19.1289 86.5664 19 86.5977 18.8672C86.6367 18.7266 86.6641 18.5977 86.6797 18.4805C86.6953 18.3555 86.707 18.2734 86.7148 18.2344C86.7227 18.1484 86.7344 18.0156 86.75 17.8359C86.7656 17.6484 86.7812 17.4375 86.7969 17.2031C86.8203 16.9688 86.8398 16.7266 86.8555 16.4766C86.8711 16.2266 86.8867 15.9844 86.9023 15.75C86.9258 15.5156 86.9414 15.3086 86.9492 15.1289C86.9648 14.9414 86.9727 14.8086 86.9727 14.7305C86.9883 14.7305 87.0273 14.7266 87.0898 14.7188C87.1523 14.7031 87.1953 14.6953 87.2188 14.6953C87.3281 14.6953 87.4258 14.707 87.5117 14.7305C87.5977 14.7539 87.6641 14.8359 87.7109 14.9766C87.7109 15.0312 87.7109 15.1289 87.7109 15.2695C87.7188 15.4102 87.7227 15.5625 87.7227 15.7266C87.7305 15.8828 87.7344 16.0352 87.7344 16.1836C87.7422 16.3242 87.7461 16.4219 87.7461 16.4766C87.7461 16.6016 87.7461 16.7969 87.7461 17.0625C87.7539 17.3203 87.75 17.6094 87.7344 17.9297C87.7266 18.25 87.7031 18.5781 87.6641 18.9141C87.625 19.2422 87.5625 19.5469 87.4766 19.8281C87.3984 20.1016 87.2891 20.3281 87.1484 20.5078C87.0078 20.6797 86.832 20.7656 86.6211 20.7656C86.3789 20.7656 86.1523 20.707 85.9414 20.5898C85.7305 20.4727 85.5312 20.3164 85.3438 20.1211C85.1641 19.9258 84.9922 19.7109 84.8281 19.4766C84.6641 19.2344 84.5117 18.9922 84.3711 18.75C84.2383 18.5 84.1133 18.2656 83.9961 18.0469C83.8867 17.8203 83.7891 17.6289 83.7031 17.4727C83.6406 17.6133 83.582 17.7891 83.5273 18C83.4805 18.2109 83.4258 18.4414 83.3633 18.6914C83.3008 18.9336 83.2305 19.1797 83.1523 19.4297C83.0742 19.6719 82.9844 19.8945 82.8828 20.0977C82.7891 20.293 82.6758 20.4531 82.543 20.5781C82.418 20.7031 82.2734 20.7656 82.1094 20.7656C82.0312 20.7656 81.9609 20.7695 81.8984 20.7773C81.8359 20.7773 81.7773 20.7734 81.7227 20.7656C81.668 20.75 81.6172 20.7227 81.5703 20.6836C81.5234 20.6445 81.4805 20.582 81.4414 20.4961L79.4375 16.2188C79.4375 16.2109 79.4336 16.1797 79.4258 16.125C79.418 16.0625 79.4141 16.0156 79.4141 15.9844ZM88.8125 13.3828C88.8125 13.2969 88.8203 13.1914 88.8359 13.0664C88.8594 12.9336 88.8945 12.8086 88.9414 12.6914C88.9961 12.5742 89.0625 12.4766 89.1406 12.3984C89.2188 12.3125 89.3203 12.2695 89.4453 12.2695C89.4531 12.2695 89.4727 12.2734 89.5039 12.2812C89.5352 12.2891 89.5547 12.293 89.5625 12.293C89.6953 12.7773 89.7734 13.2578 89.7969 13.7344C89.8203 14.2109 89.8125 14.6758 89.7734 15.1289C89.7344 15.5742 89.6758 16.0078 89.5977 16.4297C89.5195 16.8438 89.4531 17.2266 89.3984 17.5781C89.3516 17.9297 89.3203 18.2461 89.3047 18.5273C89.2969 18.8086 89.3398 19.0469 89.4336 19.2422C89.418 19.1172 89.4062 18.9688 89.3984 18.7969C89.3984 18.6172 89.4141 18.4336 89.4453 18.2461C89.4844 18.0586 89.543 17.8711 89.6211 17.6836C89.707 17.4961 89.8281 17.3281 89.9844 17.1797C90.1406 17.0312 90.3398 16.9141 90.582 16.8281C90.832 16.7422 91.1406 16.6992 91.5078 16.6992C91.8906 16.6992 92.2188 16.7656 92.4922 16.8984C92.7734 17.0312 93.0039 17.2148 93.1836 17.4492C93.3633 17.6758 93.4961 17.9453 93.582 18.2578C93.6758 18.5625 93.7227 18.8906 93.7227 19.2422C93.7227 19.4062 93.7188 19.5938 93.7109 19.8047C93.7109 20.0078 93.6836 20.1992 93.6289 20.3789C93.582 20.5508 93.4922 20.6992 93.3594 20.8242C93.2344 20.9414 93.0469 21 92.7969 21C92.7969 20.875 92.8047 20.707 92.8203 20.4961C92.8359 20.2773 92.8438 20.0469 92.8438 19.8047C92.8516 19.5625 92.8438 19.3164 92.8203 19.0664C92.8047 18.8164 92.7539 18.5938 92.668 18.3984C92.582 18.1953 92.4609 18.0312 92.3047 17.9062C92.1562 17.7734 91.9492 17.707 91.6836 17.707C91.5898 17.707 91.4727 17.7148 91.332 17.7305C91.1992 17.7383 91.0625 17.7734 90.9219 17.8359C90.7812 17.8984 90.6445 17.9961 90.5117 18.1289C90.3789 18.2539 90.2734 18.4297 90.1953 18.6562C90.1172 18.875 90.0703 19.1562 90.0547 19.5C90.0469 19.8359 90.0898 20.25 90.1836 20.7422C90.1289 20.8828 90.0586 20.9648 89.9727 20.9883C89.8945 21.0117 89.793 21.0234 89.668 21.0234C89.418 21.0234 89.2109 20.9375 89.0469 20.7656C88.8906 20.5859 88.7695 20.3477 88.6836 20.0508C88.5977 19.7539 88.5391 19.4102 88.5078 19.0195C88.4844 18.6289 88.4766 18.2227 88.4844 17.8008C88.4922 17.3711 88.5117 16.9375 88.543 16.5C88.582 16.0547 88.6172 15.6367 88.6484 15.2461C88.6875 14.8477 88.7227 14.4883 88.7539 14.168C88.793 13.8398 88.8125 13.5781 88.8125 13.3828ZM94.1914 17.7422C94.1914 17.3203 94.2422 16.8984 94.3438 16.4766C94.4453 16.0547 94.6055 15.6758 94.8242 15.3398C95.0508 15.0039 95.3398 14.7305 95.6914 14.5195C96.0508 14.3086 96.4844 14.2031 96.9922 14.2031C97.2812 14.2031 97.5352 14.2578 97.7539 14.3672C97.9727 14.4688 98.1562 14.6055 98.3047 14.7773C98.4531 14.9492 98.5625 15.1523 98.6328 15.3867C98.7109 15.6133 98.75 15.8516 98.75 16.1016C98.75 16.5 98.6562 16.8867 98.4688 17.2617C98.2891 17.6367 98.043 17.9688 97.7305 18.2578C97.4258 18.5391 97.0742 18.7539 96.6758 18.9023C96.2773 19.043 95.8711 19.0742 95.457 18.9961C95.4648 19.2227 95.5391 19.4062 95.6797 19.5469C95.8281 19.6797 96.0039 19.7812 96.207 19.8516C96.4102 19.9219 96.6211 19.9688 96.8398 19.9922C97.0586 20.0078 97.2539 20.0156 97.4258 20.0156C97.6055 20.0156 97.7734 20 97.9297 19.9688C98.0859 19.9375 98.2422 19.9023 98.3984 19.8633C98.5547 19.8242 98.7109 19.7891 98.8672 19.7578C99.0312 19.7266 99.2031 19.7109 99.3828 19.7109C99.4531 19.7109 99.5234 19.7148 99.5938 19.7227C99.6641 19.7305 99.7305 19.75 99.793 19.7812C99.8555 19.8047 99.9062 19.8477 99.9453 19.9102C99.9844 19.9648 100.004 20.0352 100.004 20.1211C100.004 20.2695 99.9492 20.3945 99.8398 20.4961C99.7305 20.5898 99.5898 20.6719 99.418 20.7422C99.2539 20.8125 99.0703 20.8672 98.8672 20.9062C98.6641 20.9375 98.4648 20.9648 98.2695 20.9883C98.082 21.0039 97.9062 21.0117 97.7422 21.0117C97.5859 21.0195 97.4688 21.0234 97.3906 21.0234C96.8906 21.0234 96.4414 20.9453 96.043 20.7891C95.6445 20.625 95.3086 20.4023 95.0352 20.1211C94.7617 19.832 94.5508 19.4883 94.4023 19.0898C94.2617 18.6836 94.1914 18.2344 94.1914 17.7422ZM95.4336 16.9805C95.4336 17.2539 95.4688 17.4531 95.5391 17.5781C95.6172 17.7031 95.8008 17.7656 96.0898 17.7656C96.293 17.7656 96.4922 17.7305 96.6875 17.6602C96.8828 17.582 97.0586 17.4766 97.2148 17.3438C97.3789 17.2109 97.5078 17.0547 97.6016 16.875C97.6953 16.6953 97.7422 16.5 97.7422 16.2891C97.7422 16.1719 97.7305 16.0508 97.707 15.9258C97.6914 15.8008 97.6523 15.6875 97.5898 15.5859C97.5273 15.4766 97.4453 15.3906 97.3438 15.3281C97.25 15.2578 97.125 15.2227 96.9688 15.2227C96.7344 15.2227 96.5195 15.2773 96.3242 15.3867C96.1367 15.4883 95.9766 15.625 95.8438 15.7969C95.7109 15.9609 95.6094 16.1484 95.5391 16.3594C95.4688 16.5625 95.4336 16.7695 95.4336 16.9805ZM100.73 16.0781C100.73 16.0078 100.734 15.9375 100.742 15.8672C100.75 15.7891 100.766 15.7227 100.789 15.668C100.812 15.6055 100.848 15.5547 100.895 15.5156C100.949 15.4766 101.023 15.457 101.117 15.457C101.195 15.457 101.281 15.5195 101.375 15.6445C101.477 15.7617 101.578 15.9141 101.68 16.1016C101.781 16.2812 101.879 16.4805 101.973 16.6992C102.074 16.918 102.16 17.1211 102.23 17.3086C102.309 17.4883 102.371 17.6445 102.418 17.7773C102.465 17.9102 102.492 17.9805 102.5 17.9883C102.602 17.7148 102.715 17.418 102.84 17.0977C102.965 16.7773 103.117 16.4805 103.297 16.207C103.484 15.9258 103.703 15.6914 103.953 15.5039C104.211 15.3164 104.523 15.2227 104.891 15.2227C105.078 15.2227 105.254 15.2539 105.418 15.3164C105.59 15.3711 105.738 15.457 105.863 15.5742C105.996 15.6836 106.102 15.8164 106.18 15.9727C106.258 16.1289 106.297 16.3086 106.297 16.5117C106.297 16.6836 106.227 16.8047 106.086 16.875C105.953 16.9453 105.801 16.9805 105.629 16.9805H105.512L105.008 16.4766C104.992 16.4766 104.98 16.4727 104.973 16.4648C104.957 16.4648 104.941 16.4648 104.926 16.4648C104.918 16.457 104.906 16.4531 104.891 16.4531C104.617 16.4531 104.402 16.5312 104.246 16.6875C104.098 16.8359 103.984 17.0234 103.906 17.25C103.828 17.4688 103.777 17.7031 103.754 17.9531C103.738 18.1953 103.73 18.418 103.73 18.6211C103.73 18.7773 103.746 18.9375 103.777 19.1016C103.809 19.2578 103.844 19.4141 103.883 19.5703C103.922 19.7188 103.957 19.875 103.988 20.0391C104.02 20.1953 104.035 20.3594 104.035 20.5312C104.035 20.8594 103.859 21.0234 103.508 21.0234C103.312 21.0234 103.109 20.9219 102.898 20.7188C102.688 20.5078 102.477 20.2422 102.266 19.9219C102.062 19.6016 101.867 19.25 101.68 18.8672C101.492 18.4766 101.328 18.0977 101.188 17.7305C101.047 17.3633 100.934 17.0312 100.848 16.7344C100.77 16.4375 100.73 16.2188 100.73 16.0781ZM106.719 17.7422C106.719 17.3203 106.77 16.8984 106.871 16.4766C106.973 16.0547 107.133 15.6758 107.352 15.3398C107.578 15.0039 107.867 14.7305 108.219 14.5195C108.578 14.3086 109.012 14.2031 109.52 14.2031C109.809 14.2031 110.062 14.2578 110.281 14.3672C110.5 14.4688 110.684 14.6055 110.832 14.7773C110.98 14.9492 111.09 15.1523 111.16 15.3867C111.238 15.6133 111.277 15.8516 111.277 16.1016C111.277 16.5 111.184 16.8867 110.996 17.2617C110.816 17.6367 110.57 17.9688 110.258 18.2578C109.953 18.5391 109.602 18.7539 109.203 18.9023C108.805 19.043 108.398 19.0742 107.984 18.9961C107.992 19.2227 108.066 19.4062 108.207 19.5469C108.355 19.6797 108.531 19.7812 108.734 19.8516C108.938 19.9219 109.148 19.9688 109.367 19.9922C109.586 20.0078 109.781 20.0156 109.953 20.0156C110.133 20.0156 110.301 20 110.457 19.9688C110.613 19.9375 110.77 19.9023 110.926 19.8633C111.082 19.8242 111.238 19.7891 111.395 19.7578C111.559 19.7266 111.73 19.7109 111.91 19.7109C111.98 19.7109 112.051 19.7148 112.121 19.7227C112.191 19.7305 112.258 19.75 112.32 19.7812C112.383 19.8047 112.434 19.8477 112.473 19.9102C112.512 19.9648 112.531 20.0352 112.531 20.1211C112.531 20.2695 112.477 20.3945 112.367 20.4961C112.258 20.5898 112.117 20.6719 111.945 20.7422C111.781 20.8125 111.598 20.8672 111.395 20.9062C111.191 20.9375 110.992 20.9648 110.797 20.9883C110.609 21.0039 110.434 21.0117 110.27 21.0117C110.113 21.0195 109.996 21.0234 109.918 21.0234C109.418 21.0234 108.969 20.9453 108.57 20.7891C108.172 20.625 107.836 20.4023 107.562 20.1211C107.289 19.832 107.078 19.4883 106.93 19.0898C106.789 18.6836 106.719 18.2344 106.719 17.7422ZM107.961 16.9805C107.961 17.2539 107.996 17.4531 108.066 17.5781C108.145 17.7031 108.328 17.7656 108.617 17.7656C108.82 17.7656 109.02 17.7305 109.215 17.6602C109.41 17.582 109.586 17.4766 109.742 17.3438C109.906 17.2109 110.035 17.0547 110.129 16.875C110.223 16.6953 110.27 16.5 110.27 16.2891C110.27 16.1719 110.258 16.0508 110.234 15.9258C110.219 15.8008 110.18 15.6875 110.117 15.5859C110.055 15.4766 109.973 15.3906 109.871 15.3281C109.777 15.2578 109.652 15.2227 109.496 15.2227C109.262 15.2227 109.047 15.2773 108.852 15.3867C108.664 15.4883 108.504 15.625 108.371 15.7969C108.238 15.9609 108.137 16.1484 108.066 16.3594C107.996 16.5625 107.961 16.7695 107.961 16.9805Z" fill="#FCFCFC"/>
</svg>
