<svg width="20" height="18" viewBox="0 0 20 18" fill="none" xmlns="http://www.w3.org/2000/svg">
<path d="M10 17C8.68551 16.0049 7.16378 15.3707 5.56811 15.1573C4.43639 14.91 3.28339 14.7932 2.12865 14.8088C1.98089 14.8102 1.83435 14.7801 1.69747 14.7202C1.56059 14.6604 1.43609 14.5719 1.33116 14.4601C1.22622 14.3482 1.14293 14.2151 1.08609 14.0684C1.02926 13.9217 0.999994 13.7643 1 13.6054L1.02043 2.20681C1.01981 1.90097 1.12749 1.60634 1.32159 1.38282C1.51569 1.1593 1.78165 1.02364 2.06541 1.00343C3.2409 0.9783 4.41542 1.09129 5.56811 1.34038C7.16206 1.56154 8.6826 2.19413 10 3.18416M10 17V3.18416M10 17C11.3145 16.0049 12.8362 15.3707 14.4319 15.1573C15.5636 14.91 16.7166 14.7932 17.8714 14.8088C18.0191 14.8102 18.1657 14.7801 18.3025 14.7202C18.4394 14.6604 18.5639 14.5719 18.6688 14.4601C18.7738 14.3482 18.8571 14.2151 18.9139 14.0684C18.9707 13.9217 19 13.7643 19 13.6054L18.9786 2.20681C18.9792 1.90114 18.8717 1.60666 18.6778 1.38316C18.4839 1.15966 18.2182 1.0239 17.9346 1.00343C16.7591 0.9783 15.5846 1.09129 14.4319 1.34038C12.8379 1.56154 11.3174 2.19413 10 3.18416" stroke="#B0B7B1" stroke-width="1.5" stroke-linecap="round" stroke-linejoin="round"/>
</svg>
