<?xml version="1.0" encoding="UTF-8"?>
<svg version="1.1" xmlns="http://www.w3.org/2000/svg" width="512" height="512">
<path d="M0 0 C0.81791016 0.19867676 1.63582031 0.39735352 2.47851562 0.60205078 C30.20190241 7.47115274 58.66780079 20.8141248 77.50390625 42.94140625 C82.7429469 48.92999668 86.33656645 51.79751268 94.1875 52.4375 C95.56483188 52.5289378 96.94244042 52.61631808 98.3203125 52.69921875 C107.58317727 53.45637436 113.73176115 59.65646699 120 66 C120.78375 65.649375 121.5675 65.29875 122.375 64.9375 C128.3626073 63.38898087 134.31812124 63.83138382 139.875 66.6875 C144.57686944 70.16688338 146.63540975 73.11628373 147.75 78.875 C147.8325 79.90625 147.915 80.9375 148 82 C148.66 81.67 149.32 81.34 150 81 C156.49513811 80.17800119 161.64082739 81.19709367 167 85 C170.94432298 88.65400479 173.71680188 92.70405592 174.18359375 98.13671875 C174.31862834 102.94236154 173.87361997 105.31595006 172 110 C154.18 110 136.36 110 118 110 C118.99 112.97 119.98 115.94 121 119 C121.61342048 121.94913692 122.16584335 124.84244209 122.625 127.8125 C122.74979736 128.59657227 122.87459473 129.38064453 123.00317383 130.18847656 C129.74248823 173.74582382 118.9404983 216.55276291 93 252 C91.02416058 254.68584332 89.03490673 257.35861126 87 260 C87.51949219 260.36351562 88.03898437 260.72703125 88.57421875 261.1015625 C95.48920482 266.08648776 100.12860868 270.83920362 103 279 C103 280.32 103 281.64 103 283 C103.639375 282.835 104.27875 282.67 104.9375 282.5 C113.13706609 281.16129533 119.60889947 282.00621235 127 286 C129.875 288.4375 129.875 288.4375 132 291 C132.721875 291.804375 133.44375 292.60875 134.1875 293.4375 C137.51574724 298.14295299 138.29201712 302.75008679 138.3125 308.4375 C138.32925781 309.50871094 138.34601563 310.57992188 138.36328125 311.68359375 C137.92695627 315.66681856 136.63572263 318.35415781 135 322 C117.53646886 322.16369506 100.07317795 322.28704527 82.60905457 322.3626852 C74.49968788 322.39874352 66.39079853 322.44788239 58.28173828 322.52807617 C51.2118745 322.59795945 44.14235649 322.64303404 37.07215691 322.65861946 C33.33009904 322.66772688 29.58903015 322.6890503 25.84729004 322.7401104 C21.66467883 322.79672098 17.48377454 322.79792214 13.30078125 322.79467773 C12.06719376 322.81984467 10.83360626 322.8450116 9.56263733 322.87094116 C2.37916948 322.8106713 -1.56084673 321.82914259 -6.71760559 316.69862461 C-8 315 -8 315 -8 313 C-8.78761719 313.14074951 -9.57523437 313.28149902 -10.38671875 313.42651367 C-18.31210364 314.75659491 -25.96902747 315.35320347 -34 315.3125 C-35.16772949 315.30758545 -36.33545898 315.3026709 -37.53857422 315.29760742 C-78.56113448 314.75187136 -116.59034841 298.42659917 -146 270 C-146.86367187 269.18789063 -147.72734375 268.37578125 -148.6171875 267.5390625 C-166.26160648 250.55424797 -178.54928209 228.70245964 -186.375 205.625 C-186.61371826 204.92463623 -186.85243652 204.22427246 -187.09838867 203.50268555 C-188.40915627 199.44712793 -189.33460649 195.42255162 -190.07666016 191.22412109 C-190.25121735 190.24301361 -190.42577454 189.26190613 -190.60562134 188.25106812 C-190.7357663 187.50821564 -190.86591125 186.76536316 -191 186 C-191.78403198 186.01554428 -192.56806396 186.03108856 -193.37585449 186.04710388 C-200.79018891 186.18777494 -208.20387009 186.29414267 -215.61919403 186.3626852 C-219.4309565 186.39911014 -223.24161006 186.44845573 -227.05273438 186.52807617 C-230.73571039 186.60453167 -234.41762487 186.64607096 -238.10133362 186.6641407 C-239.50159914 186.67700517 -240.90181109 186.70212794 -242.30162048 186.7401104 C-254.62481225 187.06097437 -254.62481225 187.06097437 -259.77880859 182.59448242 C-260.88198756 181.42337926 -261.96067567 180.22812515 -263 179 C-263.76570313 178.27554688 -264.53140625 177.55109375 -265.3203125 176.8046875 C-275.94993102 165.43881835 -280.77681032 149.88791874 -280.34765625 134.45703125 C-279.23544491 123.39740166 -276.14476874 113.32874093 -270 104 C-269.49855469 103.22269531 -268.99710937 102.44539063 -268.48046875 101.64453125 C-260.55755353 90.44449782 -247.57314354 82.17329338 -234.1328125 79.34375 C-214.2278451 76.13562339 -198.44890527 80.76423203 -182 92 C-179.34506204 88.74889334 -177.65652351 85.35361645 -175.875 81.5625 C-167.3581893 64.02667012 -154.09557374 47.33509815 -139 35 C-138.51289551 34.59523437 -138.02579102 34.19046875 -137.52392578 33.7734375 C-100.16800726 2.84884051 -47.77347925 -12.07354278 0 0 Z " fill="#F3B725" transform="translate(286,104)"/>
<path d="M0 0 C0.93328125 0.48210937 1.8665625 0.96421875 2.828125 1.4609375 C10.65531974 5.94299036 17.91201586 12.82403171 22 21 C24.11698119 20.50217109 26.16555289 19.94394437 28.2265625 19.24609375 C39.02108091 15.60689943 48.54649914 16.24141249 59 21 C66.96009333 26.37607404 72.9505277 33.8515831 76 43 C76.03954234 45.33299825 76.04401732 47.66708189 76 50 C76.928125 49.67 77.85625 49.34 78.8125 49 C88.23714635 46.35881887 97.75923211 47.80275931 106.37890625 52.21875 C115.23537758 57.61355487 121.49301855 65.89790316 124 76 C125.13420326 84.61760619 123.35854665 92.05548604 120 100 C118.10243383 101.89756617 114.64463586 101.16044836 112.06211853 101.1673584 C111.32778565 101.17315178 110.59345278 101.17894517 109.83686739 101.18491411 C107.35731587 101.20306188 104.87778729 101.21387109 102.39819336 101.22460938 C100.62779529 101.23577853 98.85739937 101.24729166 97.08700562 101.25912476 C91.2546485 101.29576421 85.42226938 101.32091632 79.58984375 101.34375 C78.10238486 101.3496688 78.10238486 101.3496688 76.5848763 101.35570717 C67.23458835 101.39213697 57.88429296 101.42358861 48.53395748 101.44481659 C36.56744308 101.47238276 24.60152207 101.52311654 12.6352548 101.60529089 C4.22584325 101.66108543 -4.18340737 101.69005339 -12.59299749 101.6992898 C-17.61705153 101.70554831 -22.64041077 101.7236781 -27.66426277 101.77067566 C-32.39473414 101.81437766 -37.12413171 101.82481972 -41.85477066 101.81004715 C-43.58818128 101.81037556 -45.32163834 101.82263329 -47.05486488 101.84789658 C-61.77559056 102.05108099 -61.77559056 102.05108099 -66.94920349 97.58654785 C-68.00164853 96.42217297 -69.02504713 95.22999038 -70 94 C-70.76570313 93.27554688 -71.53140625 92.55109375 -72.3203125 91.8046875 C-82.94993102 80.43881835 -87.77681032 64.88791874 -87.34765625 49.45703125 C-86.23544491 38.39740166 -83.14476874 28.32874093 -77 19 C-76.49855469 18.22269531 -75.99710938 17.44539063 -75.48046875 16.64453125 C-67.08671879 4.7789139 -53.2952598 -3.53336694 -39 -6 C-38.30132812 -6.1340625 -37.60265625 -6.268125 -36.8828125 -6.40625 C-24.32238912 -8.26705346 -11.15926834 -5.89486774 0 0 Z " fill="#EBEAEA" transform="translate(93,189)"/>
<path d="M0 0 C6.03015502 3.79476123 10.20170771 7.99624766 14 14 C15.85625 13.505 15.85625 13.505 17.75 13 C26.43864126 11.1010674 35.97543969 10.66365106 44 15 C49.582657 19.08730244 53.03093028 24.38343654 55 31 C55 32.32 55 33.64 55 35 C55.9590625 34.7525 55.9590625 34.7525 56.9375 34.5 C65.13706609 33.16129533 71.60889947 34.00621235 79 38 C81.875 40.4375 81.875 40.4375 84 43 C84.721875 43.804375 85.44375 44.60875 86.1875 45.4375 C89.51574724 50.14295299 90.29201712 54.75008679 90.3125 60.4375 C90.32925781 61.50871094 90.34601563 62.57992187 90.36328125 63.68359375 C89.92695627 67.66681856 88.63572263 70.35415781 87 74 C69.53646886 74.16369506 52.07317795 74.28704527 34.60905457 74.3626852 C26.49968788 74.39874352 18.39079853 74.44788239 10.28173828 74.52807617 C3.2118745 74.59795945 -3.85764351 74.64303404 -10.92784309 74.65861946 C-14.66990096 74.66772688 -18.41096985 74.6890503 -22.15270996 74.7401104 C-26.33532117 74.79672098 -30.51622546 74.79792214 -34.69921875 74.79467773 C-35.93280624 74.81984467 -37.16639374 74.8450116 -38.43736267 74.87094116 C-45.47566697 74.81188923 -49.44323951 73.94652068 -54.47727966 68.88440037 C-56.95427973 65.81905756 -58.74160319 62.63598628 -60.375 59.0625 C-60.70371094 58.39798828 -61.03242188 57.73347656 -61.37109375 57.04882812 C-66.35119098 46.65514342 -67.78108475 35.95323553 -64.375 24.8125 C-59.64746827 12.10622174 -51.07810261 3.02971738 -39 -3 C-27.05448569 -8.02606654 -11.06072878 -6.1933841 0 0 Z " fill="#EBEAEA" transform="translate(334,352)"/>
<path d="M0 0 C2.91064814 2.1203397 5.47741572 4.43576928 8 7 C8.5671875 7.56589844 9.134375 8.13179687 9.71875 8.71484375 C10.1415625 9.13894531 10.564375 9.56304687 11 10 C11.78375 9.649375 12.5675 9.29875 13.375 8.9375 C19.3626073 7.38898087 25.31812124 7.83138382 30.875 10.6875 C35.57686944 14.16688338 37.63540975 17.11628373 38.75 22.875 C38.8325 23.90625 38.915 24.9375 39 26 C39.99 25.505 39.99 25.505 41 25 C47.49513811 24.17800119 52.64082739 25.19709367 58 29 C61.94432298 32.65400479 64.71680188 36.70405592 65.18359375 42.13671875 C65.31151162 46.68909003 64.76394024 49.77144813 63 54 C50.23041963 54.18556033 37.46116123 54.32760914 24.69050598 54.41449738 C18.76014502 54.45620517 12.83070808 54.5127545 6.90087891 54.60351562 C1.17550613 54.69059651 -4.54897935 54.73830729 -10.27496338 54.75901794 C-12.45670538 54.77377203 -14.63840013 54.80258474 -16.81976318 54.84584045 C-33.90381085 55.17106272 -33.90381085 55.17106272 -39.09765625 52.26945496 C-41.14830514 50.26899947 -42.58855093 48.47995471 -44 46 C-44.61875 45.02675781 -45.2375 44.05351562 -45.875 43.05078125 C-49.49910508 34.22960881 -51.07877231 25.2828396 -47.375 16.1875 C-46.62632774 14.76814217 -45.83403211 13.37094028 -45 12 C-44.5875 11.30132812 -44.175 10.60265625 -43.75 9.8828125 C-39.32378403 3.2183396 -33.19652961 0.0070359 -26.125 -3.375 C-16.92782747 -5.21443451 -8.33915388 -4.39979898 0 0 Z " fill="#CACDEB" transform="translate(395,160)"/>
<path d="M0 0 C1.30854629 -0.00668677 1.30854629 -0.00668677 2.64352787 -0.01350862 C3.60771078 -0.01332426 4.57189369 -0.01313989 5.56529427 -0.01294994 C7.09495628 -0.01846498 7.09495628 -0.01846498 8.65552056 -0.02409142 C12.09486134 -0.03516183 15.53417195 -0.03897775 18.97352791 -0.04278088 C21.43035669 -0.04904289 23.88718453 -0.05568945 26.34401131 -0.0626936 C33.73220937 -0.08194455 41.12039941 -0.09252447 48.5086152 -0.10142139 C51.98582339 -0.1058026 55.46303006 -0.11116979 58.94023705 -0.11641026 C70.49535684 -0.13342219 82.05047568 -0.14791759 93.60560608 -0.155159 C96.60487431 -0.15706896 99.60414252 -0.15898928 102.60341072 -0.16094494 C103.34888417 -0.16142868 104.09435762 -0.16191242 104.86242117 -0.16241082 C116.94557705 -0.17071572 129.02863408 -0.1960605 141.11174677 -0.22852562 C153.51032747 -0.26156748 165.90885787 -0.27960509 178.30748284 -0.28280324 C185.27170575 -0.28497086 192.23578445 -0.29375634 199.19996452 -0.31926441 C205.74820719 -0.34319335 212.29623643 -0.34681521 218.84453011 -0.33650303 C221.25202103 -0.33600536 223.65952436 -0.34239322 226.06697655 -0.35605907 C229.34570359 -0.373634 232.62348229 -0.36674259 235.90220833 -0.35352612 C236.8619298 -0.36449536 237.82165127 -0.37546461 238.8104552 -0.38676625 C245.23821002 -0.32391627 245.23821002 -0.32391627 248.44993973 2.03970528 C249.97299044 4.30087951 250.40294569 5.43273282 250.36073494 8.13422108 C250.37620369 9.12422108 250.37620369 9.12422108 250.39198494 10.13422108 C249.56953115 13.23051771 248.45896904 14.22020399 245.86073494 16.13422108 C242.5523861 16.74507639 239.27174763 16.6734028 235.91566658 16.64215565 C234.89418305 16.64839561 233.87269953 16.65463557 232.82026196 16.66106462 C229.3869057 16.67705858 225.9542531 16.66436492 222.52089119 16.6517992 C220.06376416 16.65721745 217.60664038 16.66433843 215.14952278 16.67303944 C209.16217657 16.68941206 203.17510798 16.68697899 197.18777251 16.67538887 C192.32232437 16.66635992 187.45693246 16.6651282 182.59147835 16.66948414 C181.89933489 16.67009707 181.20719143 16.67071 180.49407393 16.67134151 C179.08805297 16.67262039 177.68203203 16.67391725 176.27601111 16.67523187 C163.08782997 16.6866415 149.89975999 16.67351801 136.71159708 16.65203041 C125.39243892 16.63415904 114.07344483 16.63726304 102.75428963 16.65570545 C89.61371438 16.67710545 76.4732366 16.68554283 63.33264637 16.6732564 C61.93176144 16.67198218 60.53087649 16.6707247 59.12999153 16.66948414 C58.44070676 16.66886704 57.751422 16.66824993 57.04124981 16.66761413 C52.18093438 16.66415861 47.3206807 16.66999391 42.46037483 16.67940235 C35.92027559 16.69178404 29.38043879 16.68298471 22.84035301 16.65982533 C20.43609954 16.65452367 18.03182004 16.65607673 15.62757683 16.66487598 C12.35329597 16.67575713 9.08001962 16.66215694 5.8058033 16.64215565 C4.84744607 16.65107853 3.88908884 16.66000142 2.90169048 16.6691947 C-3.51516844 16.592816 -3.51516844 16.592816 -6.70223808 14.25091267 C-8.43388499 11.700256 -9.0655317 10.23102209 -9.13926506 7.13422108 C-6.96177657 1.74234483 -5.75786296 0.01361291 0 0 Z " fill="#CACEEB" transform="translate(61.139265060424805,489.86577892303467)"/>
<path d="M0 0 C0.85981057 -0.00367669 1.71962114 -0.00735338 2.60548657 -0.01114148 C5.50353243 -0.02220634 8.40154247 -0.02602688 11.29960632 -0.02983093 C13.37058121 -0.03609341 15.44155496 -0.04274002 17.51252747 -0.04974365 C23.15099077 -0.06717218 28.78944558 -0.07771023 34.42792916 -0.08594918 C37.9480296 -0.09109486 41.46812737 -0.09717075 44.98822594 -0.10346031 C55.99424947 -0.1225166 67.00026627 -0.13674743 78.00630313 -0.14507228 C90.72515563 -0.15485067 103.44383437 -0.18118416 116.16262561 -0.22157317 C125.98432037 -0.25169579 135.80596521 -0.26653745 145.62770528 -0.26985329 C151.49818221 -0.27220798 157.36847361 -0.28122283 163.23890114 -0.30631447 C168.76039303 -0.32953306 174.28157641 -0.33385343 179.8031044 -0.32355309 C181.83122596 -0.32305612 183.85936238 -0.32942371 185.88743782 -0.34310913 C188.65352167 -0.36073232 191.4184868 -0.35376926 194.18457031 -0.34057617 C195.39216278 -0.35703004 195.39216278 -0.35703004 196.62415105 -0.37381631 C200.32983466 -0.33106078 202.56704532 0.01551512 205.75764751 1.96281147 C208.55977052 4.98528173 208.78276062 7.06938516 208.78276062 11.14717102 C207.43713663 14.09472834 206.69721518 15.68994374 203.78276062 17.14717102 C201.008 17.24956848 198.25808114 17.29054467 195.48286438 17.28761292 C194.17983952 17.2920696 194.17983952 17.2920696 192.85049093 17.29661632 C189.92246836 17.30532888 186.99448655 17.30681371 184.06645203 17.30830383 C181.97415072 17.31293017 179.88185025 17.31795457 177.78955078 17.323349 C172.09330163 17.33649205 166.39706428 17.34292156 160.70080233 17.34735966 C157.14519751 17.35028707 153.58959595 17.35439122 150.03399277 17.35886383 C138.91851237 17.37254323 127.80303937 17.38220795 116.68755114 17.38606572 C103.8391096 17.39054895 90.99077432 17.40810731 78.1423651 17.43706632 C68.22217229 17.45865243 58.30200944 17.46876834 48.38179338 17.47010684 C42.4515814 17.47115699 36.52146923 17.47710946 30.59128189 17.49492645 C25.01483864 17.51135429 19.43857081 17.51358843 13.86211205 17.50478745 C11.81261286 17.50401425 9.76310444 17.50839673 7.71362877 17.5182457 C4.92108244 17.53088112 2.12916534 17.52513437 -0.66337585 17.5146637 C-1.47913224 17.5227201 -2.29488862 17.53077651 -3.13536489 17.53907704 C-6.4435662 17.50995897 -8.79340456 17.38675612 -11.70498085 15.74090195 C-13.98664052 13.33631867 -14.12680579 11.36340305 -14.39302063 8.15107727 C-14.10977602 4.92208873 -12.50840173 3.30740981 -10.21723938 1.14717102 C-7.01065281 -0.45612226 -3.52260065 -0.00080004 0 0 Z " fill="#CACEEC" transform="translate(194.2172393798828,452.8528289794922)"/>
<path d="M0 0 C1.684636 -0.0129007 1.684636 -0.0129007 3.40330505 -0.02606201 C4.64642456 -0.03032196 5.88954407 -0.03458191 7.17033386 -0.03897095 C8.47103317 -0.04714844 9.77173248 -0.05532593 11.11184692 -0.06375122 C15.43755511 -0.09000827 19.76327316 -0.10528313 24.08903503 -0.11953735 C25.57636204 -0.12489564 27.06368898 -0.13027315 28.55101585 -0.13566971 C34.73689465 -0.15730442 40.92277079 -0.1760419 47.10867786 -0.1872921 C55.98269486 -0.20353542 64.85627422 -0.23671509 73.7301262 -0.29369295 C79.96455231 -0.33236224 86.19886124 -0.35192122 92.43340415 -0.35721266 C96.15943311 -0.36087054 99.88499573 -0.37293655 103.61089516 -0.4053154 C107.76769251 -0.44091987 111.92354701 -0.43703294 116.08049011 -0.42959595 C117.31753693 -0.44600128 118.55458374 -0.46240662 119.82911682 -0.47930908 C128.14613104 -0.41816736 128.14613104 -0.41816736 131.58444214 2.50286865 C133.1015198 5.75924105 133.41158937 7.60138662 132.81950378 11.15390015 C131.57572937 13.802948 131.57572937 13.802948 128.81950378 16.15390015 C124.63164379 16.92727143 120.46744278 16.81519916 116.21989441 16.76913452 C114.28281868 16.77745804 114.28281868 16.77745804 112.30661011 16.78594971 C108.76715134 16.8001973 105.22846949 16.78313756 101.68908501 16.75966454 C97.98471746 16.73955651 94.28038221 16.74543506 90.57597351 16.74777222 C84.35509936 16.74771864 78.13452893 16.72796152 71.91374207 16.69589233 C64.72228164 16.6589993 57.53121909 16.65021672 50.33967638 16.65718985 C43.4208848 16.66349579 36.50222963 16.65273892 29.58346558 16.63322449 C26.63936418 16.62505111 23.6953325 16.62234082 20.7512207 16.62391663 C16.64031391 16.62495902 12.52993157 16.60078283 8.41911316 16.57382202 C7.19613022 16.57675262 5.97314728 16.57968323 4.71310425 16.58270264 C3.59430374 16.57135284 2.47550323 16.56000305 1.32279968 16.54830933 C0.35089439 16.54458061 -0.62101089 16.5408519 -1.62236786 16.53701019 C-4.64957458 16.0836501 -6.00871801 15.28976889 -8.18049622 13.15390015 C-9.2932236 9.14808156 -9.61701525 7.06662175 -7.80549622 3.27890015 C-5.16059022 -0.17982307 -4.39057354 0.0249129 0 0 Z " fill="#CACEEC" transform="translate(335.1804962158203,489.8460998535156)"/>
<path d="M0 0 C1.08477631 -0.00960754 2.16955261 -0.01921509 3.28720093 -0.02911377 C5.04503403 -0.03548859 5.04503403 -0.03548859 6.83837891 -0.04199219 C8.04305817 -0.04769226 9.24773743 -0.05339233 10.48892212 -0.05926514 C13.03931804 -0.06871724 15.58972619 -0.07524995 18.14013672 -0.07910156 C22.04237138 -0.08881103 25.94408031 -0.11983498 29.84619141 -0.15136719 C32.32275077 -0.15789684 34.79931391 -0.16314746 37.27587891 -0.16699219 C38.44371918 -0.17933899 39.61155945 -0.19168579 40.81478882 -0.20440674 C41.90586945 -0.20140564 42.99695007 -0.19840454 44.12109375 -0.1953125 C45.55646988 -0.20078094 45.55646988 -0.20078094 47.02084351 -0.20635986 C50.23240334 0.23582126 52.09432726 1.24213304 54.68994141 3.16113281 C56.34810938 6.47746877 56.9275536 8.23228516 56.00244141 11.84863281 C54.6894054 14.1620772 53.77657659 15.52953351 51.68994141 17.16113281 C49.16091919 17.55554199 49.16091919 17.55554199 46.10449219 17.58105469 C44.38723434 17.60492249 44.38723434 17.60492249 42.63528442 17.62927246 C41.39777435 17.62947388 40.16026428 17.62967529 38.88525391 17.62988281 C37.61398651 17.63749634 36.34271912 17.64510986 35.03292847 17.6529541 C32.34097136 17.66377089 29.64989109 17.66796776 26.95800781 17.66210938 C23.5154245 17.65621976 20.07425472 17.68676929 16.63194466 17.72722626 C13.34140774 17.75936332 10.05092355 17.75498693 6.76025391 17.75488281 C5.5267923 17.77127808 4.29333069 17.78767334 3.02249146 17.80456543 C-6.49512986 17.72762844 -6.49512986 17.72762844 -9.59570312 14.84667969 C-11.84001177 11.33095837 -11.90628621 9.26019766 -11.31005859 5.16113281 C-8.58534144 0.23069225 -5.29459518 0.03784206 0 0 Z " fill="#CACEEC" transform="translate(109.31005859375,452.8388671875)"/>
<path d="M0 0 C1.35688431 -0.00956978 1.35688431 -0.00956978 2.74118042 -0.01933289 C4.2037175 -0.02100212 4.2037175 -0.02100212 5.69580078 -0.02270508 C6.70071564 -0.02603348 7.70563049 -0.02936188 8.74099731 -0.03279114 C10.86769147 -0.03785543 12.99439357 -0.04019962 15.12109375 -0.04003906 C18.37139015 -0.04222308 21.62134581 -0.06037737 24.87158203 -0.0793457 C26.93798712 -0.08228023 29.00439382 -0.08426463 31.07080078 -0.08520508 C32.04177704 -0.09239059 33.0127533 -0.09957611 34.01315308 -0.10697937 C39.5713373 -0.08820608 44.00847498 -0.02802286 48.39111328 3.77026367 C49.84034916 6.82976164 49.59267627 8.93667919 49.23095703 12.24291992 C48.23515139 14.89296008 46.90841774 15.66734715 44.51611328 17.14526367 C42.08789062 17.53967285 42.08789062 17.53967285 39.35205078 17.56518555 C38.32418457 17.58109741 37.29631836 17.59700928 36.23730469 17.61340332 C34.58093994 17.61370544 34.58093994 17.61370544 32.89111328 17.61401367 C31.1825415 17.62543396 31.1825415 17.62543396 29.43945312 17.63708496 C27.0320861 17.64788661 24.62467221 17.65073882 22.21728516 17.64624023 C18.52964438 17.64526724 14.84407897 17.68690584 11.15673828 17.73120117 C8.81820096 17.73640753 6.4796564 17.73909638 4.14111328 17.73901367 C3.03687012 17.75540894 1.93262695 17.7718042 0.79492188 17.78869629 C-6.82491765 17.71971279 -6.82491765 17.71971279 -10.17919922 14.7956543 C-11.78350845 11.53660097 -12.0820795 9.73442033 -11.48388672 6.14526367 C-8.29456996 1.19632387 -5.74104804 0.02751138 0 0 Z " fill="#F6C95B" transform="translate(456.48388671875,250.854736328125)"/>
<path d="M0 0 C0.7528125 -0.01289062 1.505625 -0.02578125 2.28125 -0.0390625 C5.7664367 1.00403915 6.62581399 2.50095459 8.5 5.625 C9.1108198 9.37227272 9.08427305 13.08469905 9.06640625 16.875 C9.07260483 17.96586914 9.07880341 19.05673828 9.08518982 20.18066406 C9.09228389 22.48371489 9.08912126 24.78681704 9.07641602 27.08984375 C9.06254748 30.61293868 9.09663399 34.13337918 9.13476562 37.65625 C9.13571681 39.89583398 9.13385805 42.13542129 9.12890625 44.375 C9.14216446 45.42719727 9.15542267 46.47939453 9.16908264 47.56347656 C9.07608624 54.86868241 9.07608624 54.86868241 6.09179688 58.78662109 C2.06615434 61.64203635 0.34516331 61.39407354 -4.5 60.625 C-7.12431186 58.44772449 -8.3357216 56.66991477 -8.86962891 53.27392578 C-9.03096458 50.30013118 -9.05416737 47.35311838 -9.03125 44.375 C-9.0350769 43.28413086 -9.03890381 42.19326172 -9.04284668 41.06933594 C-9.04556489 38.76626664 -9.03821015 36.46316642 -9.02148438 34.16015625 C-9.00007487 30.63731988 -9.02129061 27.11652302 -9.046875 23.59375 C-9.04423171 21.35416217 -9.03910671 19.11457561 -9.03125 16.875 C-9.03934692 15.82280273 -9.04744385 14.77060547 -9.05578613 13.68652344 C-8.96242633 6.39670373 -8.96242633 6.39670373 -6.60546875 2.46337891 C-4.20412205 0.36665574 -3.15482171 -0.05402092 0 0 Z " fill="#F6C95B" transform="translate(251.5,5.375)"/>
<path d="M0 0 C2.4375 1 2.4375 1 4 3 C5.04653548 6.24976808 5.50502165 7.75316719 5 11 C3.94702148 12.66357422 3.94702148 12.66357422 2.37109375 14.3671875 C1.4131189 15.40540649 1.4131189 15.40540649 0.43579102 16.46459961 C-0.76992554 17.7196228 -0.76992554 17.7196228 -2 19 C-2.73925217 19.77139816 -2.73925217 19.77139816 -3.49343872 20.55838013 C-7.03445674 24.24278339 -10.61432153 27.88671369 -14.21630859 31.51147461 C-15.49681736 32.80361245 -16.77281809 34.10023224 -18.04443359 35.40112305 C-19.89756574 37.2967713 -21.763458 39.17895734 -23.6328125 41.05859375 C-24.19751251 41.64080185 -24.76221252 42.22300995 -25.34402466 42.82286072 C-28.40461574 45.86679665 -30.58594561 47.84069078 -35 48 C-38.35616191 47.0410966 -41.10222761 45.99648272 -43 43 C-43.60270299 38.95705072 -43.91254849 36.4412783 -41.69165039 32.93359375 C-39.75968034 30.7004582 -37.73600804 28.62734194 -35.625 26.5625 C-34.86711182 25.79695801 -34.10922363 25.03141602 -33.32836914 24.24267578 C-31.72401645 22.63289019 -30.1095602 21.03311932 -28.48583984 19.44287109 C-26.00785199 17.00771627 -23.57542868 14.53284511 -21.14453125 12.05078125 C-19.5780794 10.48961605 -18.0091476 8.93093444 -16.4375 7.375 C-15.35106201 6.26427124 -15.35106201 6.26427124 -14.24267578 5.13110352 C-9.40584764 0.46849024 -6.73881796 -0.97306208 0 0 Z " fill="#F6C95B" transform="translate(429,78)"/>
<path d="M0 0 C4.7184405 1.02385509 7.49906592 4.48375793 10.70898438 7.89398193 C11.81832336 9.0188652 11.81832336 9.0188652 12.95007324 10.16647339 C15.29790939 12.55790652 17.61228106 14.97903728 19.92773438 17.40179443 C21.51423701 19.02488376 23.10275913 20.64600174 24.69335938 22.26507568 C27.58639175 25.22469714 30.47373583 28.18917537 33.3359375 31.1786499 C34.19789734 32.07799759 34.19789734 32.07799759 35.07727051 32.99551392 C37.00613507 35.1826385 37.41394293 36.40267144 37.74023438 39.33929443 C37.34977387 43.32199162 36.31407531 44.79647193 33.42773438 47.52679443 C30.66642335 48.58883714 29.1092136 48.69464646 26.24707031 47.98968506 C22.02548691 45.79919945 19.06888452 42.5551052 15.75585938 39.18304443 C15.0328363 38.45814819 14.30981323 37.73325195 13.56488037 36.98638916 C12.04184614 35.45664516 10.52240771 33.92331379 9.00634766 32.38665771 C6.679311 30.02839221 4.34170375 27.68103362 2.00195312 25.33538818 C0.52346178 23.84772957 -0.95442404 22.35946887 -2.43164062 20.87054443 C-3.13262878 20.1653064 -3.83361694 19.46006836 -4.55584717 18.73345947 C-5.20031799 18.0793811 -5.84478882 17.42530273 -6.50878906 16.75140381 C-7.07772888 16.17563599 -7.6466687 15.59986816 -8.23284912 15.00665283 C-10.17827607 12.85724195 -10.56059606 11.63182047 -10.88476562 8.71429443 C-10.18868698 1.61429221 -6.53872016 -0.17887526 0 0 Z " fill="#F6C95B" transform="translate(79.572265625,77.47320556640625)"/>
</svg>
