<svg width="41" height="40" viewBox="0 0 41 40" fill="none" xmlns="http://www.w3.org/2000/svg">
<path fill-rule="evenodd" clip-rule="evenodd" d="M20.5 4.15237e-06C19.86 -0.000996417 19.2325 0.178847 18.6886 0.519185L1.80286 11.6816C0.602857 12.4805 0.237143 13.8564 0.7 15.0303C1.14571 16.1609 2.27143 16.9253 3.61429 16.9253H37.3857C38.7286 16.9253 39.8543 16.1609 40.3 15.0303C40.7629 13.8564 40.3971 12.4805 39.2 11.6845L39.1971 11.6816L22.3114 0.519185C21.7675 0.178847 21.14 -0.000996417 20.5 4.15237e-06ZM0.5 34.0669C0.5 32.3363 2.13429 31.5027 3.35714 31.5027H3.51429L3.50571 31.347V22.0854C3.50571 21.7029 3.65622 21.3361 3.92413 21.0656C4.19204 20.7952 4.55541 20.6432 4.93429 20.6432H9.68857C10.0675 20.6432 10.4308 20.7952 10.6987 21.0656C10.9666 21.3361 11.1171 21.7029 11.1171 22.0854V31.347L11.1086 31.5027H16.7029L16.6943 31.347V22.0854C16.6943 21.7029 16.8448 21.3361 17.1127 21.0656C17.3806 20.7952 17.744 20.6432 18.1229 20.6432H22.8771C23.0647 20.6432 23.2505 20.6805 23.4238 20.753C23.5972 20.8255 23.7546 20.9317 23.8873 21.0656C24.02 21.1995 24.1252 21.3585 24.197 21.5335C24.2688 21.7085 24.3057 21.896 24.3057 22.0854V31.347L24.2971 31.5027H29.8914L29.8829 31.347V22.0854C29.8829 21.7029 30.0334 21.3361 30.3013 21.0656C30.5692 20.7952 30.9326 20.6432 31.3114 20.6432H36.0657C36.4446 20.6432 36.808 20.7952 37.0759 21.0656C37.3438 21.3361 37.4943 21.7029 37.4943 22.0854V31.347L37.4857 31.5027H37.6429C38.8657 31.5027 40.5 32.3363 40.5 34.0698V37.4358C40.5 39.1664 38.8657 40 37.6429 40H3.35714C2.13429 40 0.5 39.1664 0.5 37.4329V34.0669Z" fill="#B0B7B1"/>
</svg>
