<svg width="26" height="26" viewBox="0 0 26 26" fill="none" xmlns="http://www.w3.org/2000/svg">
<path d="M9.46937 16.3872C9.50986 15.7246 9.37188 15.0634 9.06982 14.4723C7.47291 11.2524 11.2907 7.7432 14.5351 9.11186C19.0885 10.9787 18.3373 19.5111 16.3396 23.1487M17.2036 2.04413C8.57297 -2.10856 -1.74791 6.87401 1.67163 15.8086" stroke="#FCFCFC" stroke-width="1.5" stroke-linecap="round" stroke-linejoin="round"/>
<path d="M6.59326 7.37218C7.70317 6.29351 9.07554 5.52344 10.5745 5.13821C12.0711 4.75303 13.6426 4.7678 15.1317 5.18102C16.6232 5.59461 17.9809 6.39062 19.0702 7.49023C20.1643 8.5934 20.9525 9.96241 21.3572 11.4626M12.7448 12.6211C13.5426 14.7733 13.7852 17.0942 13.4479 19.3658C12.9366 21.4341 11.9645 23.3601 10.6043 25M5.10791 10.801C4.6965 12.3334 4.78004 13.9567 5.34661 15.4388C5.68848 16.5298 5.64265 17.7054 5.21688 18.7664C4.79198 19.8243 4.01357 20.7023 3.01416 21.2508M20.719 4.07312C22.9541 5.23162 24.4252 8.4191 24.9999 10.5117M21.8995 14.9225C22.1819 17.1578 22.0633 19.4256 21.5492 21.6192M9.19813 19.8653C8.6636 21.1303 7.76904 22.2103 6.62569 22.971" stroke="#FCFCFC" stroke-width="1.5" stroke-linecap="round" stroke-linejoin="round"/>
</svg>
