<svg width="20" height="18" viewBox="0 0 20 18" fill="none" xmlns="http://www.w3.org/2000/svg">
<path fill-rule="evenodd" clip-rule="evenodd" d="M8.06989 1.75C7.86415 1.74997 7.66158 1.80072 7.48016 1.89776C7.29888 1.99471 7.14432 2.13488 7.03016 2.30585C7.03007 2.30598 7.03025 2.30571 7.03016 2.30585L6.21835 3.52555C5.96714 3.90207 5.62642 4.21146 5.22729 4.42494C4.8282 4.63839 4.38259 4.75005 3.93 4.75C3.92996 4.75 3.93004 4.75 3.93 4.75H3C2.66848 4.75 2.35054 4.8817 2.11612 5.11612C1.8817 5.35054 1.75 5.66848 1.75 6V15C1.75 15.3315 1.8817 15.6495 2.11612 15.8839C2.35054 16.1183 2.66848 16.25 3 16.25H17C17.3315 16.25 17.6495 16.1183 17.8839 15.8839C18.1183 15.6495 18.25 15.3315 18.25 15V6C18.25 5.66848 18.1183 5.35054 17.8839 5.11612C17.6495 4.8817 17.3315 4.75 17 4.75H16.0701C16.0701 4.75 16.0701 4.75 16.0701 4.75C15.6175 4.75005 15.1718 4.63839 14.7727 4.42494C14.3736 4.21146 14.0333 3.90277 13.7821 3.52625L12.9701 2.30625C12.9701 2.30619 12.9701 2.3063 12.9701 2.30625C12.8559 2.13518 12.7012 1.99476 12.5198 1.89776C12.3384 1.80072 12.1359 1.74997 11.9301 1.75H8.06989ZM8.07 0.25C7.61741 0.249951 7.1718 0.361607 6.77271 0.575064C6.37358 0.788539 6.03332 1.09723 5.78211 1.47375L4.97011 2.69375C4.97005 2.69385 4.97018 2.69365 4.97011 2.69375C4.85594 2.86476 4.70116 3.00526 4.51984 3.10224C4.33842 3.19928 4.13585 3.25003 3.93011 3.25H3C2.27065 3.25 1.57118 3.53973 1.05546 4.05546C0.539731 4.57118 0.25 5.27065 0.25 6V15C0.25 15.7293 0.539731 16.4288 1.05546 16.9445C1.57118 17.4603 2.27065 17.75 3 17.75H17C17.7293 17.75 18.4288 17.4603 18.9445 16.9445C19.4603 16.4288 19.75 15.7293 19.75 15V6C19.75 5.27065 19.4603 4.57118 18.9445 4.05546C18.4288 3.53973 17.7293 3.25 17 3.25H16.07C15.8643 3.25003 15.6616 3.19928 15.4802 3.10224C15.2988 3.00524 15.1442 2.86499 15.03 2.69392C15.03 2.69386 15.03 2.69397 15.03 2.69392L14.2184 1.47445C13.9671 1.09793 13.6264 0.788539 13.2273 0.575064C12.8282 0.361607 12.3826 0.249951 11.93 0.25C11.93 0.25 11.93 0.25 11.93 0.25H8.07Z" fill="#FCFCFC"/>
<path fill-rule="evenodd" clip-rule="evenodd" d="M10 7.75C8.75736 7.75 7.75 8.75736 7.75 10C7.75 11.2426 8.75736 12.25 10 12.25C11.2426 12.25 12.25 11.2426 12.25 10C12.25 8.75736 11.2426 7.75 10 7.75ZM6.25 10C6.25 7.92893 7.92893 6.25 10 6.25C12.0711 6.25 13.75 7.92893 13.75 10C13.75 12.0711 12.0711 13.75 10 13.75C7.92893 13.75 6.25 12.0711 6.25 10Z" fill="#FCFCFC"/>
</svg>
