<svg width="11" height="10" viewBox="0 0 11 10" fill="none" xmlns="http://www.w3.org/2000/svg">
<path fill-rule="evenodd" clip-rule="evenodd" d="M4.2779 10H6.7221C8.43865 10 9.2972 10 9.91375 9.59167C10.1799 9.41564 10.409 9.18834 10.588 8.92278C11 8.31167 11 7.46001 11 5.75779C11 4.05557 11 3.20391 10.588 2.5928C10.409 2.32724 10.1799 2.09994 9.91375 1.92391C9.51775 1.66113 9.02165 1.56724 8.2621 1.53391C7.89965 1.53391 7.5878 1.26169 7.51685 0.908912C7.46263 0.650507 7.32175 0.418934 7.11802 0.253331C6.91429 0.0877288 6.6602 -0.00174711 6.3987 2.58504e-05H4.6013C4.0579 2.58504e-05 3.58985 0.38058 3.48315 0.908912C3.4122 1.26169 3.10035 1.53391 2.7379 1.53391C1.9789 1.56724 1.4828 1.66169 1.08625 1.92391C0.820345 2.1 0.591401 2.32729 0.4125 2.5928C0 3.20391 0 4.05502 0 5.75779C0 7.46056 2.98023e-08 8.31112 0.41195 8.92278C0.59015 9.18722 0.81895 9.41445 1.08625 9.59167C1.7028 10 2.56135 10 4.2779 10ZM5.5 3.48502C4.23445 3.48502 3.20815 4.50224 3.20815 5.75723C3.20815 7.01223 4.235 8.03112 5.5 8.03112C6.765 8.03112 7.79185 7.01334 7.79185 5.75834C7.79185 4.50335 6.765 3.48502 5.5 3.48502ZM5.5 4.3939C4.741 4.3939 4.125 5.00446 4.125 5.75779C4.125 6.51056 4.741 7.12112 5.5 7.12112C6.259 7.12112 6.875 6.51056 6.875 5.75779C6.875 5.00501 6.259 4.3939 5.5 4.3939ZM8.0971 3.93946C8.0971 3.68835 8.30225 3.48502 8.5558 3.48502H9.1663C9.4193 3.48502 9.625 3.68835 9.625 3.93946C9.62384 4.06107 9.57493 4.17724 9.48903 4.26245C9.40312 4.34766 9.28724 4.39494 9.16685 4.3939H8.5558C8.49614 4.39449 8.43695 4.3832 8.38161 4.36068C8.32627 4.33816 8.27586 4.30485 8.23327 4.26265C8.19067 4.22045 8.15672 4.17019 8.13336 4.11473C8.11 4.05928 8.09768 3.99972 8.0971 3.93946Z" fill="#28443F"/>
</svg>
