<svg width="18" height="18" viewBox="0 0 18 18" fill="none" xmlns="http://www.w3.org/2000/svg">
<rect width="18" height="18" rx="2" fill="#B0B7B1"/>
<circle cx="9" cy="8" r="7" fill="#28443F"/>
<mask id="mask0_441_1305" style="mask-type:luminance" maskUnits="userSpaceOnUse" x="1" y="1" width="16" height="16">
<path d="M9 16C9.91942 16.0011 10.83 15.8206 11.6794 15.4687C12.5289 15.1169 13.3004 14.6006 13.9497 13.9497C14.6006 13.3004 15.1169 12.5289 15.4687 11.6794C15.8206 10.83 16.0011 9.91942 16 9C16.0011 8.08058 15.8206 7.17 15.4687 6.32057C15.1169 5.47115 14.6006 4.69961 13.9497 4.0503C13.3004 3.39936 12.5289 2.88313 11.6794 2.53128C10.83 2.17942 9.91942 1.99887 9 2.00001C8.08058 1.99887 7.17 2.17942 6.32057 2.53128C5.47115 2.88313 4.69961 3.39936 4.0503 4.0503C3.39936 4.69961 2.88313 5.47115 2.53128 6.32057C2.17942 7.17 1.99887 8.08058 2.00001 9C1.99887 9.91942 2.17942 10.83 2.53128 11.6794C2.88313 12.5289 3.39936 13.3004 4.0503 13.9497C4.69961 14.6006 5.47115 15.1169 6.32057 15.4687C7.17 15.8206 8.08058 16.0011 9 16Z" fill="white" stroke="white" stroke-width="2" stroke-linejoin="round"/>
<path d="M6.19922 8.99999L8.29922 11.1L12.4992 6.89999" stroke="black" stroke-width="2" stroke-linecap="round" stroke-linejoin="round"/>
</mask>
<g mask="url(#mask0_441_1305)">
<path d="M0.599609 0.600006H17.3996V17.4H0.599609V0.600006Z" fill="#B0B7B1"/>
</g>
</svg>
