<svg width="37" height="36" viewBox="0 0 37 36" fill="none" xmlns="http://www.w3.org/2000/svg">
<mask id="mask0_449_1656" style="mask-type:luminance" maskUnits="userSpaceOnUse" x="0" y="0" width="37" height="36">
<path d="M18.5 34C20.6015 34.0026 22.6829 33.5899 24.6244 32.7857C26.566 31.9814 28.3295 30.8015 29.8136 29.3136C31.3015 27.8295 32.4814 26.066 33.2857 24.1244C34.0899 22.1829 34.5026 20.1015 34.5 18C34.5026 15.8985 34.0899 13.8171 33.2857 11.8756C32.4814 9.93405 31.3015 8.17055 29.8136 6.68641C28.3295 5.19854 26.566 4.01859 24.6244 3.21434C22.6829 2.4101 20.6015 1.99742 18.5 2.00001C16.3985 1.99742 14.3171 2.4101 12.3756 3.21434C10.434 4.01859 8.67055 5.19854 7.18641 6.68641C5.69854 8.17055 4.51859 9.93405 3.71434 11.8756C2.9101 13.8171 2.49742 15.8985 2.50001 18C2.49742 20.1015 2.9101 22.1829 3.71434 24.1244C4.51859 26.066 5.69854 27.8295 7.18641 29.3136C8.67055 30.8015 10.434 31.9814 12.3756 32.7857C14.3171 33.5899 16.3985 34.0026 18.5 34Z" fill="white" stroke="white" stroke-width="4" stroke-linejoin="round"/>
<path d="M12.0996 18L16.8996 22.8L26.4996 13.2" stroke="black" stroke-width="4" stroke-linecap="round" stroke-linejoin="round"/>
</mask>
<g mask="url(#mask0_449_1656)">
<path d="M-0.701172 -1.19998H37.6988V37.2H-0.701172V-1.19998Z" fill="#A8E6A0"/>
</g>
</svg>
