<svg width="22" height="18" viewBox="0 0 22 18" fill="none" xmlns="http://www.w3.org/2000/svg">
<path fill-rule="evenodd" clip-rule="evenodd" d="M8 4.75C7.30964 4.75 6.75 5.30964 6.75 6C6.75 6.69036 7.30964 7.25 8 7.25C8.69036 7.25 9.25 6.69036 9.25 6C9.25 5.30964 8.69036 4.75 8 4.75ZM5.25 6C5.25 4.48122 6.48122 3.25 8 3.25C9.51878 3.25 10.75 4.48122 10.75 6C10.75 7.51878 9.51878 8.75 8 8.75C6.48122 8.75 5.25 7.51878 5.25 6Z" fill="#FCFCFC"/>
<path fill-rule="evenodd" clip-rule="evenodd" d="M5.50693 11.2564C4.86317 11.5783 4.75027 11.8844 4.75027 12C4.75027 12.6047 4.78878 12.6974 4.93999 12.8068C5.06203 12.8951 5.31331 13.0135 5.82053 13.1047C6.32204 13.1949 7.02304 13.25 8.00027 13.25C8.97749 13.25 9.6785 13.1949 10.18 13.1047C10.6872 13.0135 10.9385 12.8951 11.0605 12.8068C11.2118 12.6974 11.2503 12.6047 11.2503 12C11.2503 11.8844 11.1374 11.5783 10.4936 11.2564C9.89451 10.9569 9.01417 10.75 8.00027 10.75C6.98636 10.75 6.10602 10.9569 5.50693 11.2564ZM4.83611 9.9148C5.68451 9.4906 6.80417 9.25 8.00027 9.25C9.19636 9.25 10.316 9.4906 11.1644 9.9148C11.9682 10.3167 12.7503 11.0106 12.7503 12C12.7503 12.0202 12.7503 12.041 12.7504 12.0625C12.7519 12.573 12.7545 13.4324 11.94 14.0219C11.562 14.2955 11.0633 14.4699 10.4455 14.581C9.82203 14.6932 9.02304 14.75 8.00027 14.75C6.97749 14.75 6.1785 14.6932 5.555 14.581C4.93723 14.4699 4.43851 14.2955 4.06054 14.0219C3.24602 13.4324 3.2486 12.573 3.25014 12.0625C3.2502 12.041 3.25027 12.0202 3.25027 12C3.25027 11.0106 4.03236 10.3167 4.83611 9.9148Z" fill="#FCFCFC"/>
<path fill-rule="evenodd" clip-rule="evenodd" d="M17.289 1.88981C16.2614 1.75159 14.9067 1.75 13 1.75H9C7.09341 1.75 5.73893 1.75184 4.71144 1.89017C3.70552 2.02559 3.12567 2.27935 2.7021 2.70256C2.27887 3.12544 2.02512 3.7049 1.88981 4.71097C1.75159 5.73861 1.75 7.09329 1.75 9C1.75 10.9066 1.75184 12.2611 1.89017 13.2886C2.02559 14.2945 2.27935 14.8743 2.70256 15.2979C3.12544 15.7211 3.7049 15.9749 4.71097 16.1102C5.73861 16.2484 7.09329 16.25 9 16.25H13C14.9066 16.25 16.2611 16.2482 17.2886 16.1098C18.2945 15.9744 18.8743 15.7206 19.2979 15.2974C19.7211 14.8746 19.9749 14.2951 20.1102 13.289C20.2484 12.2614 20.25 10.9067 20.25 9C20.25 7.09341 20.2482 5.73893 20.1098 4.71144C19.9744 3.70552 19.7206 3.12567 19.2974 2.7021C18.8746 2.27887 18.2951 2.02512 17.289 1.88981ZM17.489 0.403193C18.6614 0.56088 19.6104 0.893136 20.3586 1.6419C21.1064 2.39033 21.4386 3.33898 21.5964 4.51131C21.75 5.65225 21.75 7.11046 21.75 8.95235V9.05645C21.75 10.8941 21.75 12.3498 21.5968 13.489C21.4391 14.6614 21.1069 15.6104 20.3581 16.3586C19.6097 17.1064 18.661 17.4386 17.4887 17.5964C16.3478 17.75 14.8895 17.75 13.0477 17.75H8.94355C7.10593 17.75 5.65025 17.75 4.51103 17.5968C3.3386 17.4391 2.38957 17.1069 1.64144 16.3581C0.893648 15.6097 0.561408 14.661 0.403581 13.4887C0.24998 12.3478 0.249989 10.8895 0.25 9.04765L0.25 8.94357C0.249984 7.10594 0.249972 5.65026 0.403193 4.51103C0.56088 3.3386 0.893136 2.38957 1.6419 1.64144C2.39033 0.893648 3.33898 0.561408 4.51131 0.403581C5.65225 0.24998 7.11047 0.249989 8.95235 0.25L13.0564 0.25C14.8941 0.249984 16.3497 0.249972 17.489 0.403193Z" fill="#FCFCFC"/>
<path fill-rule="evenodd" clip-rule="evenodd" d="M12.25 6C12.25 5.58579 12.5858 5.25 13 5.25H18C18.4142 5.25 18.75 5.58579 18.75 6C18.75 6.41421 18.4142 6.75 18 6.75H13C12.5858 6.75 12.25 6.41421 12.25 6ZM13.25 9C13.25 8.58579 13.5858 8.25 14 8.25H18C18.4142 8.25 18.75 8.58579 18.75 9C18.75 9.41421 18.4142 9.75 18 9.75H14C13.5858 9.75 13.25 9.41421 13.25 9ZM14.25 12C14.25 11.5858 14.5858 11.25 15 11.25H18C18.4142 11.25 18.75 11.5858 18.75 12C18.75 12.4142 18.4142 12.75 18 12.75H15C14.5858 12.75 14.25 12.4142 14.25 12Z" fill="#FCFCFC"/>
</svg>
