<svg width="14" height="14" viewBox="0 0 14 14" fill="none" xmlns="http://www.w3.org/2000/svg">
<path d="M11.3557 3.30769H4.95185C4.04376 3.30769 3.30762 4.04384 3.30762 4.95192V11.3558C3.30762 12.2638 4.04376 13 4.95185 13H11.3557C12.2638 13 12.9999 12.2638 12.9999 11.3558V4.95192C12.9999 4.04384 12.2638 3.30769 11.3557 3.30769Z" stroke="#FCFCFC" stroke-width="1.5" stroke-linejoin="round"/>
<path d="M10.6779 3.30769L10.6923 2.61538C10.6911 2.18733 10.5205 1.77716 10.2178 1.47448C9.91515 1.1718 9.50498 1.00122 9.07692 1H2.84615C2.35697 1.00145 1.88823 1.19642 1.54232 1.54232C1.19642 1.88823 1.00145 2.35697 1 2.84615V9.07692C1.00122 9.50497 1.1718 9.91514 1.47448 10.2178C1.77716 10.5205 2.18733 10.6911 2.61538 10.6923H3.30769" stroke="#FCFCFC" stroke-width="1.5" stroke-linecap="round" stroke-linejoin="round"/>
</svg>
