<?xml version="1.0" encoding="UTF-8"?>
<svg version="1.1" xmlns="http://www.w3.org/2000/svg" width="512" height="512">
<path d="M0 0 C4.14296861 3.83224596 7.18337527 7.00610732 7.73828125 12.80078125 C7.76277344 13.73277344 7.78726563 14.66476563 7.8125 15.625 C7.86857422 17.01138672 7.86857422 17.01138672 7.92578125 18.42578125 C7.03882264 24.43919788 2.58798003 28.4214372 -1.5 32.625 C-27.9791311 60.82975764 -40.425857 98.2070611 -39.75 136.5234375 C-38.68862797 168.56625917 -25.88247962 198.86734829 -5.5 223.3125 C-5.07493164 223.82409668 -4.64986328 224.33569336 -4.21191406 224.86279297 C19.01573149 252.41612872 54.34071597 268.77660994 89.9050293 272.11401367 C126.24643034 274.89372569 164.26358256 264.90396566 192.5 241.3125 C195.0867234 239.03542816 197.63901694 236.72704723 200.17578125 234.39453125 C206.17592043 229.01961665 210.90176012 224.90739241 219.30859375 225.03125 C224.42046771 225.68731938 228.32907746 228.11076371 231.875 231.75 C235.97119042 238.2093772 235.88880974 242.9542449 234.5 250.3125 C232.81772507 257.07455614 230.67828454 263.69696917 228.5 270.3125 C228.27715332 271.00504883 228.05430664 271.69759766 227.82470703 272.41113281 C219.30042224 298.52948884 203.94196468 321.91917771 185.5234375 342.06640625 C183.92588072 343.83975596 182.41616508 345.62933982 180.9375 347.5 C177.75611445 351.17082949 174.20471604 354.18234412 170.5 357.3125 C169.52675781 358.16199219 168.55351562 359.01148438 167.55078125 359.88671875 C144.19520469 380.18126671 111.87843309 400.5171529 80.5 404.3125 C80.665 405.26125 80.83 406.21 81 407.1875 C83.33446624 424.3870233 78.32898983 440.65781517 68.140625 454.5234375 C58.86676007 465.30356712 46.46412841 472.56734383 32.5 475.3125 C29.7152974 475.49052166 27.03423224 475.58772376 24.25372314 475.57319641 C23.46314538 475.57702196 22.67256761 475.58084751 21.85803294 475.58478898 C19.22983037 475.59504246 16.6018494 475.59114146 13.97363281 475.5871582 C12.08061523 475.59150899 10.18759941 475.59669337 8.29458618 475.60264587 C3.16629864 475.61600957 -1.96191508 475.61661732 -7.09021664 475.61408257 C-11.3791695 475.61301079 -15.66810756 475.61790169 -19.95705724 475.622688 C-30.08140886 475.63377472 -40.20572338 475.63422569 -50.33007812 475.62817383 C-60.75467828 475.62213799 -71.17914332 475.63443709 -81.60372043 475.6557439 C-90.57045815 475.67339329 -99.537153 475.67935588 -108.50390744 475.67610615 C-113.85189313 475.67429802 -119.1997825 475.67688222 -124.54775238 475.69082069 C-129.58096405 475.7034483 -134.61396617 475.70140843 -139.64717484 475.68840981 C-141.48690743 475.68605496 -143.32665499 475.68873924 -145.16637039 475.69703293 C-158.20648183 475.751547 -169.84742309 474.77789723 -181.625 468.625 C-182.30312744 468.27614746 -182.98125488 467.92729492 -183.67993164 467.56787109 C-200.51907137 458.63805465 -212.70087771 444.10889752 -218.375 425.9375 C-224.58882787 405.58745992 -221.90506159 385.28887712 -212.04296875 366.54296875 C-202.38608459 350.11921685 -186.75472038 338.62820864 -168.5 333.3125 C-160.39967879 331.37227349 -152.61504126 331.06104067 -144.3125 331.1875 C-143.16974609 331.19652344 -142.02699219 331.20554687 -140.84960938 331.21484375 C-138.0661769 331.23813607 -135.28320771 331.27084001 -132.5 331.3125 C-133.26183594 330.2709375 -134.02367187 329.229375 -134.80859375 328.15625 C-141.76070765 318.54973373 -148.06214429 308.85308491 -153.5 298.3125 C-153.87753418 297.58337402 -154.25506836 296.85424805 -154.64404297 296.10302734 C-169.56458082 266.90631869 -176.97698094 234.92957228 -176.8125 202.1875 C-176.81067719 201.42725525 -176.80885437 200.6670105 -176.80697632 199.88372803 C-176.75590977 187.16499759 -175.98761459 174.8142324 -173.5 162.3125 C-173.33371094 161.45624023 -173.16742188 160.59998047 -172.99609375 159.71777344 C-169.01423647 139.8453561 -162.07190356 121.14646769 -152.5 103.3125 C-151.78263672 101.89517578 -151.78263672 101.89517578 -151.05078125 100.44921875 C-144.01614891 86.84355448 -134.65762914 74.70736877 -124.5 63.3125 C-124.04625 62.79703613 -123.5925 62.28157227 -123.125 61.75048828 C-101.75337753 37.51767914 -35.74753101 -17.23541674 0 0 Z " fill="#FEE176" transform="translate(226.5,36.6875)"/>
<path d="M0 0 C1.8928099 1.38587237 3.68076643 2.83741331 5.46484375 4.359375 C6.02945313 4.7821875 6.5940625 5.205 7.17578125 5.640625 C22.28695679 17.4013589 30.54147747 36.93447438 33.46484375 55.359375 C33.51851569 57.3586547 33.53955792 59.36077104 33.46484375 61.359375 C34.48449219 61.32714844 35.50414062 61.29492188 36.5546875 61.26171875 C49.55101344 61.58630232 65.18353602 68.26268604 74.59765625 77.29296875 C86.33229286 90.27962725 94.49977062 105.77494811 93.73828125 123.7578125 C91.95671577 140.70813546 85.37621262 155.93777946 72.46484375 167.359375 C61.63340252 175.52885186 49.89415318 180.69152237 36.21856689 180.62007141 C35.03270024 180.62580973 35.03270024 180.62580973 33.82287669 180.63166398 C31.19467412 180.64191746 28.56669315 180.63801646 25.93847656 180.6340332 C24.04545898 180.63838399 22.15244316 180.64356837 20.25942993 180.64952087 C15.13114239 180.66288457 10.00292867 180.66349232 4.87462711 180.66095757 C0.58567425 180.65988579 -3.70326381 180.66477669 -7.99221349 180.669563 C-18.11656511 180.68064972 -28.24087963 180.68110069 -38.36523438 180.67504883 C-48.78983453 180.66901299 -59.21429957 180.68131209 -69.63887668 180.7026189 C-78.6056144 180.72026829 -87.57230925 180.72623088 -96.53906369 180.72298115 C-101.88704938 180.72117302 -107.23493875 180.72375722 -112.58290863 180.73769569 C-117.6161203 180.7503233 -122.64912242 180.74828343 -127.68233109 180.73528481 C-129.52206368 180.73292996 -131.36181124 180.73561424 -133.20152664 180.74390793 C-146.24163808 180.798422 -157.88257934 179.82477223 -169.66015625 173.671875 C-170.33828369 173.32302246 -171.01641113 172.97416992 -171.71508789 172.61474609 C-188.55422762 163.68492965 -200.73603396 149.15577252 -206.41015625 130.984375 C-212.62398412 110.63433492 -209.94021784 90.33575212 -200.078125 71.58984375 C-190.42124084 55.16609185 -174.78987663 43.67508364 -156.53515625 38.359375 C-148.01512992 36.33670557 -139.57604405 35.95156661 -130.84765625 35.734375 C-129.56181641 35.69570313 -128.27597656 35.65703125 -126.95117188 35.6171875 C-123.81263457 35.5238481 -120.67408919 35.43806424 -117.53515625 35.359375 C-117.13425781 34.47636719 -116.73335938 33.59335937 -116.3203125 32.68359375 C-107.13678453 13.05486784 -91.82157874 -1.94724516 -71.28515625 -9.515625 C-46.52650449 -17.98569007 -21.80399297 -14.11044229 0 0 Z " fill="#F7F0EE" transform="translate(214.53515625,331.640625)"/>
<path d="M0 0 C5.54885438 5.1326903 6.74369018 7.97404826 7.5 15.3125 C6.32566406 15.89515625 5.15132812 16.4778125 3.94140625 17.078125 C-12.84015926 25.56020734 -27.40342916 35.92639173 -41.5 48.3125 C-42.26957031 48.95960937 -43.03914062 49.60671875 -43.83203125 50.2734375 C-48.5496484 54.26041031 -52.52630904 58.59473145 -56.5 63.3125 C-57.31210938 64.22515625 -58.12421875 65.1378125 -58.9609375 66.078125 C-66.74139498 74.88964201 -73.22618767 84.3862518 -79.5 94.3125 C-80.20898438 95.41722656 -80.91796875 96.52195312 -81.6484375 97.66015625 C-91.54865235 113.96520397 -99.20475448 132.71755511 -103.5 151.3125 C-103.72413574 152.21339355 -103.94827148 153.11428711 -104.17919922 154.04248047 C-111.35321011 183.654046 -111.81579518 217.68262784 -104.5 247.3125 C-104.31808105 248.09512207 -104.13616211 248.87774414 -103.94873047 249.68408203 C-101.53380745 259.93725383 -98.0136017 269.6765444 -94.00292969 279.41088867 C-93.66422852 280.25240479 -93.32552734 281.0939209 -92.9765625 281.9609375 C-92.66799316 282.70520996 -92.35942383 283.44948242 -92.04150391 284.21630859 C-91.4042501 286.68315313 -91.55419871 287.95969065 -92.5 290.3125 C-94.87109375 292.13671875 -94.87109375 292.13671875 -97.9375 294 C-112.83686558 303.57942603 -121.59826157 315.7806454 -129.5 331.3125 C-130.49 331.3125 -131.48 331.3125 -132.5 331.3125 C-133.79931641 330.00585938 -133.79931641 330.00585938 -135.1015625 328.15625 C-135.8299231 327.12975342 -135.8299231 327.12975342 -136.57299805 326.08251953 C-137.08515869 325.33341309 -137.59731934 324.58430664 -138.125 323.8125 C-138.65843018 323.04147949 -139.19186035 322.27045898 -139.74145508 321.47607422 C-144.83043149 314.01224214 -149.35980359 306.33773901 -153.5 298.3125 C-153.87753418 297.58337402 -154.25506836 296.85424805 -154.64404297 296.10302734 C-169.56458082 266.90631869 -176.97698094 234.92957228 -176.8125 202.1875 C-176.81067719 201.42725525 -176.80885437 200.6670105 -176.80697632 199.88372803 C-176.75590977 187.16499759 -175.98761459 174.8142324 -173.5 162.3125 C-173.33371094 161.45624023 -173.16742188 160.59998047 -172.99609375 159.71777344 C-169.01423647 139.8453561 -162.07190356 121.14646769 -152.5 103.3125 C-152.02175781 102.36761719 -151.54351562 101.42273438 -151.05078125 100.44921875 C-144.01614891 86.84355448 -134.65762914 74.70736877 -124.5 63.3125 C-124.04625 62.79703613 -123.5925 62.28157227 -123.125 61.75048828 C-101.75337753 37.51767914 -35.74753101 -17.23541674 0 0 Z " fill="#FED15B" transform="translate(226.5,36.6875)"/>
<path d="M0 0 C9.00386694 6.15570495 15.01844052 13.88086453 19.25 23.875 C21.18939453 23.91367188 21.18939453 23.91367188 23.16796875 23.953125 C40.89803234 24.46057695 54.42418828 27.35712218 67.125 40.6875 C75.70949141 51.16593197 78.21309927 63.68206867 77.25 76.875 C75.37849139 89.56665922 69.35374862 99.92161187 59.25 107.875 C47.52060629 115.14001454 36.44316842 117.18338359 22.72680664 117.1496582 C21.63256882 117.15476913 20.53833099 117.15988007 19.41093445 117.16514587 C15.82728463 117.17894014 12.24382931 117.17809295 8.66015625 117.17578125 C6.14871653 117.17967338 3.63727746 117.18400911 1.12583923 117.18876648 C-4.12502675 117.19620656 -9.37584318 117.19609322 -14.62670898 117.19067383 C-20.66673054 117.18463515 -26.70651908 117.19695407 -32.74650091 117.2182439 C-38.59470388 117.23808733 -44.44281661 117.24102163 -50.29104805 117.23750877 C-52.7624116 117.23801973 -55.23377906 117.24321469 -57.70512199 117.25332069 C-61.16939795 117.26575148 -64.6331437 117.25885369 -68.09741211 117.24731445 C-69.1029715 117.25495819 -70.10853088 117.26260193 -71.14456177 117.27047729 C-83.51500974 117.18007405 -95.08928329 114.20140189 -104.4375 105.8125 C-112.64764681 97.12390641 -115.08034492 87.00328442 -114.9609375 75.48046875 C-114.33536507 64.78781414 -109.69919448 56.28719824 -101.875 49.0625 C-94.34487974 42.9247416 -87.33854305 41.08954879 -77.75 39.875 C-77.61464844 38.94300781 -77.47929687 38.01101562 -77.33984375 37.05078125 C-74.80753997 22.05408402 -68.83510269 10.38410818 -56.41015625 1.1328125 C-39.05026006 -10.1778492 -17.7726876 -10.41253027 0 0 Z " fill="#F7F1EE" transform="translate(429.75,104.125)"/>
<path d="M0 0 C0.75023437 -0.02835938 1.50046875 -0.05671875 2.2734375 -0.0859375 C5.70737546 0.58715997 7.15549911 1.88614565 9.625 4.375 C11.77785819 7.85988812 13.47422474 11.56811249 15.23046875 15.26367188 C17.39902478 19.62741533 18.87158225 22.54830089 23.625 24.375 C26.62679912 25.06462213 29.63702047 25.52141361 32.6875 25.9375 C34.28342742 26.16182715 35.87853232 26.39210278 37.47265625 26.62890625 C38.5246521 26.77307983 38.5246521 26.77307983 39.59790039 26.92016602 C41.89920931 27.43652619 43.61930532 28.1305678 45.625 29.375 C47.84294386 33.14550457 48.7894578 35.33179756 48.1015625 39.6953125 C46.25463183 44.29798099 43.73178447 46.76475671 40.125 50.0625 C38.94348453 51.1658458 37.7662365 52.27378292 36.59375 53.38671875 C36.07232422 53.86584717 35.55089844 54.34497559 35.01367188 54.83862305 C33.41916315 56.60273054 32.4937988 58.16134098 31.625 60.375 C31.8034395 63.00842169 32.08266875 65.46908439 32.5 68.0625 C32.70141866 69.49951349 32.89936196 70.93701859 33.09375 72.375 C33.18785156 73.06464844 33.28195312 73.75429687 33.37890625 74.46484375 C34.58634283 83.83685148 34.58634283 83.83685148 31.75 88.375 C28.51404036 91.42060908 26.25036193 91.71632903 21.8046875 91.66015625 C17.41285717 91.0855978 13.96093198 88.51907551 10.26953125 86.21875 C5.69393806 83.5328672 1.93213553 82.32900137 -3.375 83.375 C-6.02900837 84.44893165 -8.38462351 85.86739276 -10.8125 87.375 C-16.58094427 90.68322499 -20.58809411 92.79806091 -27.375 91.375 C-30.71668995 89.00796962 -32.09165543 87.54399873 -33.05859375 83.5546875 C-33.38392957 80.28526337 -33.10020024 77.83021682 -32.4375 74.625 C-30.94382441 66.53396895 -30.94382441 66.53396895 -31.375 58.375 C-33.28701326 55.62557567 -33.28701326 55.62557567 -36.375 53.375 C-37.95446091 51.87178893 -39.51571101 50.34930971 -41.0625 48.8125 C-42.21298828 47.69681641 -42.21298828 47.69681641 -43.38671875 46.55859375 C-46.08044632 43.6002564 -47.23347927 41.45999227 -47.75 37.5 C-47.2542969 33.36914082 -46.17529449 31.45532394 -43.375 28.375 C-39.40433841 26.92418134 -35.61700913 26.41197362 -31.4375 25.7734375 C-30.73012695 25.65637451 -30.02275391 25.53931152 -29.29394531 25.41870117 C-27.86943621 25.18475714 -26.44148921 24.9707075 -25.01074219 24.77856445 C-21.64309933 24.23122105 -19.65219765 23.63520655 -17.14453125 21.28125 C-14.53477838 16.99503337 -12.41034743 12.53584792 -10.28710938 7.99414062 C-9.78727539 6.95483398 -9.78727539 6.95483398 -9.27734375 5.89453125 C-8.98335693 5.26651611 -8.68937012 4.63850098 -8.38647461 3.99145508 C-6.26828287 0.60633621 -3.70934923 0.06329947 0 0 Z " fill="#FFE076" transform="translate(315.375,-0.375)"/>
<path d="M0 0 C4.02809472 4.3072696 6.37919762 9.38972693 8.91210938 14.6484375 C11.03110061 18.82790739 12.60469948 21.25880805 17 23 C20.98481 23.79686923 25.0115838 24.22000413 29.05078125 24.640625 C33.35290739 25.19617515 35.54068951 25.63729288 39.02734375 28.390625 C41.58060008 31.76800169 42.07297301 33.76756515 42 38 C39.72283261 43.54440755 36.45445506 46.57733545 31.90234375 50.375 C27.83701306 53.84764388 25.67431537 56.69742916 25 62 C25.30836744 64.76750318 25.30836744 64.76750318 25.9375 67.625 C28.54148799 82.39307177 28.54148799 82.39307177 25.9375 86.796875 C23.21575654 89.42986595 20.95406712 90.00444975 17.25 90.36328125 C11.83619553 90.23690104 8.11922751 87.6321923 3.64453125 84.84375 C-0.93262668 82.1569487 -4.69143662 80.95603473 -10 82 C-12.67343659 83.07265828 -15.05901991 84.47888398 -17.5 86 C-22.95021268 89.39634306 -26.5091114 90.62880483 -33 90 C-37.37657658 87.73355856 -37.37657658 87.73355856 -39 85 C-40.36961409 77.83398342 -38.51836364 70.30763106 -37.14453125 63.26171875 C-36.93434789 58.51839151 -38.62363899 55.62097494 -41.6484375 52.05859375 C-42.21820313 51.52363281 -42.78796875 50.98867188 -43.375 50.4375 C-43.98472656 49.85355469 -44.59445312 49.26960938 -45.22265625 48.66796875 C-45.80917969 48.11753906 -46.39570313 47.56710937 -47 47 C-53.82282794 40.32879046 -53.82282794 40.32879046 -54.375 36.1875 C-53.88455414 32.01871016 -52.82531944 30.10785139 -50 27 C-46.02933841 25.54918134 -42.24200913 25.03697362 -38.0625 24.3984375 C-37.35512695 24.28137451 -36.64775391 24.16431152 -35.91894531 24.04370117 C-34.49443621 23.80975714 -33.06648921 23.5957075 -31.63574219 23.40356445 C-28.24371638 22.85225809 -26.27665912 22.26406168 -23.76953125 19.87109375 C-21.26075974 15.80057044 -19.07227057 11.61428059 -16.91210938 7.3515625 C-13.09792959 -0.02596126 -13.09792959 -0.02596126 -9.25 -1.8125 C-5.75501844 -2.10374846 -3.24765731 -1.27586537 0 0 Z " fill="#FFE176" transform="translate(458,402)"/>
<path d="M0 0 C3.21810188 1.81018231 4.59949976 2.90805315 5.87109375 6.375 C6 9 6 9 4.41015625 11.11328125 C3.63542969 11.83902344 2.86070312 12.56476562 2.0625 13.3125 C-9.46460782 25.36192989 -13.34323352 39.8785672 -13.38037109 56.16845703 C-13.22204081 63.24596887 -11.52600944 69.399187 -9 76 C-8.32636878 77.99766499 -7.65777128 79.99705682 -7 82 C-9.46640969 83.52523986 -11.94470082 85.0189971 -14.4375 86.5 C-15.46907227 87.14388672 -15.46907227 87.14388672 -16.52148438 87.80078125 C-21.60381707 90.7792646 -26.09631191 92.10119845 -32 91 C-35.34168995 88.63296962 -36.71665543 87.16899873 -37.68359375 83.1796875 C-38.00892957 79.91026337 -37.72520024 77.45521682 -37.0625 74.25 C-35.56882441 66.15896895 -35.56882441 66.15896895 -36 58 C-37.91201326 55.25057567 -37.91201326 55.25057567 -41 53 C-42.57946091 51.49678893 -44.14071101 49.97430971 -45.6875 48.4375 C-46.83798828 47.32181641 -46.83798828 47.32181641 -48.01171875 46.18359375 C-50.70544632 43.2252564 -51.85847927 41.08499227 -52.375 37.125 C-51.8792969 32.99414082 -50.80029449 31.08032394 -48 28 C-44.02933841 26.54918134 -40.24200913 26.03697362 -36.0625 25.3984375 C-35.35512695 25.28137451 -34.64775391 25.16431152 -33.91894531 25.04370117 C-32.49443621 24.80975714 -31.06648921 24.5957075 -29.63574219 24.40356445 C-26.26809933 23.85622105 -24.27719765 23.26020655 -21.76953125 20.90625 C-19.15977838 16.62003337 -17.03534743 12.16084792 -14.91210938 7.61914062 C-14.41227539 6.57983398 -14.41227539 6.57983398 -13.90234375 5.51953125 C-13.60835693 4.89151611 -13.31437012 4.26350098 -13.01147461 3.61645508 C-10.02428129 -1.15743026 -4.94929171 -0.7033204 0 0 Z " fill="#FFD15B" transform="translate(320,0)"/>
<path d="M0 0 C2.4375 2.375 2.4375 2.375 4 5 C4 6.32 4 7.64 4 9 C2.35819381 10.36382843 0.68655505 11.69191452 -1 13 C-2.63952854 15.17037083 -4.12284799 17.27024158 -5.5625 19.5625 C-5.95308594 20.17875244 -6.34367187 20.79500488 -6.74609375 21.42993164 C-14.62754177 34.22901974 -17.68469956 50.14876126 -14.17578125 64.94140625 C-13.20776721 68.33485323 -12.15618083 71.66648592 -11 75 C-10.33333333 77 -9.66666667 79 -9 81 C-11.48864621 82.52218166 -13.98816971 84.01695126 -16.5 85.5 C-17.19609375 85.92925781 -17.8921875 86.35851562 -18.609375 86.80078125 C-23.69529284 89.76756666 -27.11206544 90.6299591 -33 90 C-37.37657658 87.73355856 -37.37657658 87.73355856 -39 85 C-40.36961409 77.83398342 -38.51836364 70.30763106 -37.14453125 63.26171875 C-36.93434789 58.51839151 -38.62363899 55.62097494 -41.6484375 52.05859375 C-42.21820313 51.52363281 -42.78796875 50.98867188 -43.375 50.4375 C-43.98472656 49.85355469 -44.59445312 49.26960938 -45.22265625 48.66796875 C-45.80917969 48.11753906 -46.39570313 47.56710937 -47 47 C-53.82282794 40.32879046 -53.82282794 40.32879046 -54.375 36.1875 C-53.88455414 32.01871016 -52.82531944 30.10785139 -50 27 C-46.02933841 25.54918134 -42.24200913 25.03697362 -38.0625 24.3984375 C-37.35512695 24.28137451 -36.64775391 24.16431152 -35.91894531 24.04370117 C-34.49443621 23.80975714 -33.06648921 23.5957075 -31.63574219 23.40356445 C-28.24371638 22.85225809 -26.27665912 22.26406168 -23.76953125 19.87109375 C-21.26075974 15.80057044 -19.07227057 11.61428059 -16.91210938 7.3515625 C-13.09792959 -0.02596126 -13.09792959 -0.02596126 -9.25 -1.8125 C-5.75501844 -2.10374846 -3.24765731 -1.27586537 0 0 Z " fill="#FFD15B" transform="translate(458,402)"/>
</svg>
