<svg width="13" height="14" viewBox="0 0 13 14" fill="none" xmlns="http://www.w3.org/2000/svg">
<path d="M8.00047 0.777011C8.00069 0.578747 8.07389 0.38805 8.20512 0.243882C8.33636 0.0997143 8.51573 0.0129576 8.70657 0.00133801C8.89742 -0.0102816 9.08534 0.0541134 9.23194 0.181366C9.37854 0.308619 9.47276 0.489123 9.49534 0.686L9.50059 0.777011V11.3452L11.2205 9.56154C11.3554 9.42203 11.5366 9.34103 11.727 9.335C11.9175 9.32897 12.1031 9.39835 12.246 9.52906C12.3889 9.65977 12.4785 9.842 12.4966 10.0387C12.5147 10.2355 12.4599 10.432 12.3433 10.5883L12.2811 10.6615L9.40833 13.6407C8.91029 14.158 8.07098 13.8266 8.00497 13.125L8.00047 13.0355V0.777011ZM0.719663 4.43846C0.590521 4.30452 0.512941 4.12631 0.501479 3.93726C0.490017 3.74822 0.545461 3.56133 0.657408 3.41167L0.719663 3.33855L3.59238 0.359293C4.09042 -0.157993 4.92974 0.173381 4.99574 0.875023L5.00024 0.964478L5.00024 13.223C5.00003 13.4213 4.92683 13.612 4.79559 13.7561C4.66435 13.9003 4.48499 13.987 4.29414 13.9987C4.1033 14.0103 3.91537 13.9459 3.76877 13.8186C3.62217 13.6914 3.52796 13.5109 3.50538 13.314L3.50013 13.223L3.50013 2.6548L1.78024 4.43846C1.63959 4.58429 1.44884 4.66621 1.24995 4.66621C1.05107 4.66621 0.86032 4.58429 0.719663 4.43846Z" fill="#FCFCFC"/>
</svg>
