<svg width="119" height="32" viewBox="0 0 119 32" fill="none" xmlns="http://www.w3.org/2000/svg">
<rect width="119" height="32" rx="16" fill="#A9B0A6"/>
<path d="M10.4727 18.1289C10.4727 18.0508 10.4531 17.8945 10.4141 17.6602C10.3828 17.418 10.3242 17.0977 10.2383 16.6992C9.74609 16.8477 9.35156 16.9102 9.05469 16.8867C8.76562 16.8555 8.5625 16.7812 8.44531 16.6641C8.32812 16.5469 8.29688 16.4102 8.35156 16.2539C8.40625 16.0977 8.52734 15.9688 8.71484 15.8672C8.91016 15.7578 9.16797 15.6992 9.48828 15.6914C9.81641 15.6758 10.1992 15.7461 10.6367 15.9023C10.668 15.8633 10.6914 15.7812 10.707 15.6562C10.7305 15.5312 10.7539 15.3867 10.7773 15.2227C10.8008 15.0586 10.8242 14.8867 10.8477 14.707C10.8789 14.5273 10.9023 14.3633 10.918 14.2148C10.9414 14.0664 10.9609 13.9414 10.9766 13.8398C10.9922 13.7305 11.0117 13.6758 11.0352 13.6758C11.082 13.6445 11.1562 13.6211 11.2578 13.6055C11.3594 13.5898 11.457 13.5781 11.5508 13.5703C11.6758 13.5547 11.8047 13.5469 11.9375 13.5469L12.0898 15.4688H12.9688C12.9688 15.4531 12.9727 15.3867 12.9805 15.2695C12.9883 15.1523 13 15.0117 13.0156 14.8477C13.0391 14.6758 13.0664 14.4922 13.0977 14.2969C13.1367 14.1016 13.1836 13.9258 13.2383 13.7695C13.293 13.6055 13.3555 13.4688 13.4258 13.3594C13.5039 13.25 13.5977 13.1953 13.707 13.1953C13.7383 13.1953 13.7852 13.1992 13.8477 13.207C13.9102 13.207 13.9688 13.2148 14.0234 13.2305C14.0781 13.2461 14.125 13.2734 14.1641 13.3125C14.2109 13.3438 14.2344 13.3945 14.2344 13.4648V15.2227C14.3203 15.2539 14.4336 15.2852 14.5742 15.3164C14.7227 15.3477 14.8828 15.3789 15.0547 15.4102C15.2344 15.4336 15.4141 15.4609 15.5938 15.4922C15.7734 15.5234 15.9375 15.5586 16.0859 15.5977C16.2344 15.6367 16.3555 15.6836 16.4492 15.7383C16.543 15.7852 16.5898 15.8398 16.5898 15.9023C16.5352 16.0664 16.4219 16.1875 16.25 16.2656C16.0859 16.3359 15.8984 16.3945 15.6875 16.4414C15.4844 16.4805 15.2773 16.5195 15.0664 16.5586C14.8633 16.5898 14.6953 16.6406 14.5625 16.7109C14.4375 16.7812 14.3633 16.8828 14.3398 17.0156C14.3242 17.1484 14.4062 17.3359 14.5859 17.5781C14.6719 17.5781 14.7812 17.5703 14.9141 17.5547C15.0469 17.5391 15.1836 17.5234 15.3242 17.5078C15.4648 17.4922 15.6055 17.4844 15.7461 17.4844C15.8867 17.4844 16.0117 17.5 16.1211 17.5312C16.2305 17.5625 16.3203 17.6172 16.3906 17.6953C16.4609 17.7734 16.4961 17.8828 16.4961 18.0234C16.4961 18.1484 16.418 18.25 16.2617 18.3281C16.1133 18.4062 15.9375 18.4727 15.7344 18.5273C15.5312 18.582 15.332 18.625 15.1367 18.6562C14.9492 18.6875 14.8125 18.7148 14.7266 18.7383C14.75 18.8789 14.7773 19.0508 14.8086 19.2539C14.8398 19.4492 14.8477 19.6406 14.832 19.8281C14.8242 20.0156 14.7773 20.1797 14.6914 20.3203C14.6055 20.4609 14.4531 20.5312 14.2344 20.5312C14.0703 20.4766 13.9492 20.3945 13.8711 20.2852C13.8008 20.168 13.7422 20.043 13.6953 19.9102C13.6562 19.7695 13.6211 19.6367 13.5898 19.5117C13.5586 19.3789 13.5039 19.2695 13.4258 19.1836C13.3477 19.0977 13.2305 19.0508 13.0742 19.043C12.918 19.0273 12.6992 19.0664 12.418 19.1602C12.418 19.3008 12.418 19.4648 12.418 19.6523C12.418 19.832 12.3984 20.0078 12.3594 20.1797C12.3281 20.3438 12.2617 20.4844 12.1602 20.6016C12.0586 20.7109 11.9102 20.7656 11.7148 20.7656C11.6445 20.7656 11.5625 20.707 11.4688 20.5898C11.3828 20.4727 11.2891 20.332 11.1875 20.168C11.0938 19.9961 10.9961 19.8281 10.8945 19.6641C10.793 19.5 10.6953 19.3672 10.6016 19.2656C10.1328 19.2188 9.76953 19.168 9.51172 19.1133C9.26172 19.0508 9.08984 18.9883 8.99609 18.9258C8.90234 18.8633 8.875 18.8008 8.91406 18.7383C8.95312 18.668 9.02344 18.6016 9.125 18.5391C9.38281 18.4062 9.83203 18.2695 10.4727 18.1289ZM11.9609 17.4727C11.9609 17.543 11.9805 17.5977 12.0195 17.6367C12.0586 17.6758 12.1055 17.707 12.1602 17.7305C12.2148 17.7461 12.2695 17.7578 12.3242 17.7656C12.3867 17.7656 12.4375 17.7656 12.4766 17.7656C12.5391 17.7656 12.6133 17.7617 12.6992 17.7539C12.7852 17.7383 12.8672 17.7188 12.9453 17.6953C13.0312 17.6719 13.1016 17.6367 13.1562 17.5898C13.2188 17.5352 13.25 17.4648 13.25 17.3789C13.25 17.207 13.207 17.0508 13.1211 16.9102C13.043 16.7695 12.918 16.6992 12.7461 16.6992C12.6523 16.6992 12.5586 16.7227 12.4648 16.7695C12.3711 16.8086 12.2852 16.8672 12.207 16.9453C12.1367 17.0156 12.0781 17.0977 12.0312 17.1914C11.9844 17.2852 11.9609 17.3789 11.9609 17.4727ZM16.2383 12.7266C16.543 12.5703 16.8281 12.457 17.0938 12.3867C17.3672 12.3086 17.6367 12.2578 17.9023 12.2344C18.1758 12.2031 18.4492 12.1875 18.7227 12.1875C19.0039 12.1875 19.3086 12.1875 19.6367 12.1875C19.6992 12.1875 19.8047 12.1914 19.9531 12.1992C20.1094 12.1992 20.2734 12.1992 20.4453 12.1992C20.625 12.1992 20.7891 12.1992 20.9375 12.1992C21.0859 12.1992 21.1914 12.1992 21.2539 12.1992C21.3398 12.2305 21.4062 12.2852 21.4531 12.3633C21.5 12.4414 21.5352 12.5234 21.5586 12.6094C21.582 12.6953 21.5977 12.7852 21.6055 12.8789C21.6133 12.9648 21.6172 13.0312 21.6172 13.0781H17.75V15.5977H21.9453C21.9453 15.8633 21.8633 16.0742 21.6992 16.2305C21.5352 16.3789 21.3281 16.4961 21.0781 16.582C20.8359 16.668 20.5625 16.7266 20.2578 16.7578C19.9531 16.7812 19.6641 16.793 19.3906 16.793C19.1172 16.7852 18.875 16.7734 18.6641 16.7578C18.4531 16.7422 18.3125 16.7344 18.2422 16.7344V16.9805C18.2422 17.3086 18.3203 17.6211 18.4766 17.918C18.6328 18.207 18.8047 18.4883 18.9922 18.7617C19.1875 19.0352 19.3633 19.3047 19.5195 19.5703C19.6836 19.8359 19.7656 20.1055 19.7656 20.3789C19.7656 20.5508 19.7305 20.7031 19.6602 20.8359C19.5898 20.9609 19.4609 21.0234 19.2734 21.0234C19.0781 21.0234 18.8828 20.9219 18.6875 20.7188C18.5 20.5156 18.3164 20.2461 18.1367 19.9102C17.957 19.5664 17.7852 19.1758 17.6211 18.7383C17.4648 18.293 17.3125 17.832 17.1641 17.3555C17.0234 16.8711 16.8945 16.3945 16.7773 15.9258C16.668 15.4492 16.5742 15.0078 16.4961 14.6016C16.418 14.1875 16.3555 13.8242 16.3086 13.5117C16.2617 13.1992 16.2383 12.9727 16.2383 12.832V12.7266ZM27.5352 19.4883C27.2383 19.6914 26.9805 19.875 26.7617 20.0391C26.5508 20.1953 26.3438 20.3281 26.1406 20.4375C25.9375 20.5469 25.7188 20.6289 25.4844 20.6836C25.2578 20.7383 24.9766 20.7656 24.6406 20.7656C23.9141 20.7656 23.375 20.5742 23.0234 20.1914C22.6719 19.8008 22.4961 19.2227 22.4961 18.457C22.4961 18.1602 22.5352 17.8516 22.6133 17.5312C22.6914 17.2109 22.8047 16.8945 22.9531 16.582C23.1094 16.2617 23.293 15.9609 23.5039 15.6797C23.7148 15.3906 23.9531 15.1367 24.2188 14.918C24.4844 14.6992 24.7656 14.5273 25.0625 14.4023C25.3672 14.2695 25.6875 14.2031 26.0234 14.2031C26.5859 14.2578 27.0273 14.3984 27.3477 14.625C27.668 14.8438 27.9102 15.1289 28.0742 15.4805C28.2383 15.8242 28.3516 16.2109 28.4141 16.6406C28.4766 17.0625 28.5234 17.5 28.5547 17.9531C28.5938 18.4062 28.6406 18.8594 28.6953 19.3125C28.75 19.7656 28.8633 20.1836 29.0352 20.5664C28.9336 20.8242 28.8359 21.0039 28.7422 21.1055C28.6562 21.2148 28.5586 21.2344 28.4492 21.1641C28.3398 21.0938 28.2109 20.9219 28.0625 20.6484C27.9219 20.375 27.7461 19.9883 27.5352 19.4883ZM23.4922 18.4805C23.4922 18.9258 23.5742 19.2539 23.7383 19.4648C23.9102 19.668 24.2109 19.7695 24.6406 19.7695C24.9609 19.7695 25.2656 19.7148 25.5547 19.6055C25.8516 19.4883 26.1094 19.332 26.3281 19.1367C26.5469 18.9336 26.7227 18.6914 26.8555 18.4102C26.9883 18.1289 27.0547 17.8164 27.0547 17.4727C27.0547 17.332 27.0586 17.1367 27.0664 16.8867C27.0742 16.6289 27.0586 16.375 27.0195 16.125C26.9805 15.875 26.9062 15.6602 26.7969 15.4805C26.6875 15.293 26.5234 15.1992 26.3047 15.1992C25.8984 15.1992 25.5234 15.3047 25.1797 15.5156C24.8359 15.7188 24.5391 15.9805 24.2891 16.3008C24.0391 16.6211 23.8438 16.9766 23.7031 17.3672C23.5625 17.75 23.4922 18.1211 23.4922 18.4805ZM32.0234 20.4727C32.1484 20.3867 32.2969 20.2773 32.4688 20.1445C32.6484 20.0039 32.8281 19.8555 33.0078 19.6992C33.1875 19.543 33.3555 19.3789 33.5117 19.207C33.668 19.0352 33.7891 18.8711 33.875 18.7148C33.9688 18.5508 34.0156 18.3984 34.0156 18.2578C34.0156 18.1172 33.9453 18 33.8047 17.9062C33.5547 17.9062 33.2812 17.918 32.9844 17.9414C32.6875 17.957 32.3906 17.9648 32.0938 17.9648C31.7969 17.957 31.5078 17.9297 31.2266 17.8828C30.9531 17.8359 30.707 17.75 30.4883 17.625C30.2695 17.5 30.0938 17.3242 29.9609 17.0977C29.8359 16.8633 29.7734 16.5664 29.7734 16.207C29.7734 15.7852 29.8516 15.4062 30.0078 15.0703C30.1719 14.7266 30.3867 14.4258 30.6523 14.168C30.918 13.9023 31.2148 13.6719 31.543 13.4766C31.8789 13.2734 32.2148 13.1016 32.5508 12.9609C32.7539 13.0156 32.9414 13.1133 33.1133 13.2539C33.2852 13.3945 33.4336 13.5508 33.5586 13.7227C33.5039 13.8945 33.3945 14.0273 33.2305 14.1211C33.0742 14.2148 32.8906 14.2969 32.6797 14.3672C32.4766 14.4375 32.2617 14.5117 32.0352 14.5898C31.8086 14.668 31.6016 14.7734 31.4141 14.9062C31.2344 15.0312 31.082 15.1992 30.957 15.4102C30.832 15.6133 30.7695 15.8828 30.7695 16.2188C30.7695 16.4688 30.832 16.6523 30.957 16.7695C31.082 16.8867 31.2461 16.9688 31.4492 17.0156C31.6523 17.0547 31.8828 17.0703 32.1406 17.0625C32.3984 17.0469 32.6602 17.0273 32.9258 17.0039C33.1992 16.9805 33.4648 16.9688 33.7227 16.9688C33.9805 16.9609 34.2109 16.9922 34.4141 17.0625C34.6172 17.125 34.7773 17.2305 34.8945 17.3789C35.0195 17.5273 35.082 17.7461 35.082 18.0352C35.082 18.1602 35.0391 18.3203 34.9531 18.5156C34.875 18.7109 34.7656 18.9219 34.625 19.1484C34.4922 19.3672 34.332 19.5859 34.1445 19.8047C33.9648 20.0234 33.7734 20.2227 33.5703 20.4023C33.375 20.5742 33.1758 20.7188 32.9727 20.8359C32.7773 20.9453 32.5938 21 32.4219 21C32.2578 21 32.1484 20.9414 32.0938 20.8242C32.0469 20.707 32.0234 20.5898 32.0234 20.4727ZM35.293 15.0938C35.293 15.0703 35.2969 15.0508 35.3047 15.0352C35.3047 15.0195 35.3086 15 35.3164 14.9766C35.3477 14.9375 35.3945 14.8867 35.457 14.8242C35.5195 14.7617 35.5586 14.7305 35.5742 14.7305H37.9297C37.9297 14.6445 37.918 14.5078 37.8945 14.3203C37.8711 14.1328 37.8477 13.9258 37.8242 13.6992C37.8086 13.4727 37.8047 13.2383 37.8125 12.9961C37.8203 12.7461 37.8516 12.5234 37.9062 12.3281C37.9688 12.125 38.0625 11.9609 38.1875 11.8359C38.3203 11.7031 38.5039 11.6367 38.7383 11.6367C38.7383 12.4258 38.793 13.0586 38.9023 13.5352C39.0117 14.0117 39.1562 14.3789 39.3359 14.6367C39.5234 14.8945 39.7344 15.0625 39.9688 15.1406C40.2031 15.2188 40.4414 15.2539 40.6836 15.2461C40.9336 15.2305 41.1758 15.1914 41.4102 15.1289C41.6445 15.0664 41.8516 15.0234 42.0312 15C42.2188 14.9766 42.3672 14.9961 42.4766 15.0586C42.5859 15.1133 42.6406 15.25 42.6406 15.4688C42.6406 15.6328 42.6016 15.75 42.5234 15.8203C42.4531 15.8906 42.3125 15.9453 42.1016 15.9844C42.0391 15.9922 41.9336 16.0078 41.7852 16.0312C41.6445 16.0469 41.4844 16.0625 41.3047 16.0781C41.125 16.0938 40.9336 16.1133 40.7305 16.1367C40.5273 16.1523 40.3359 16.168 40.1562 16.1836C39.9766 16.1992 39.8125 16.2109 39.6641 16.2188C39.5156 16.2188 39.4062 16.2188 39.3359 16.2188C39.3359 16.2578 39.332 16.3242 39.3242 16.418C39.3164 16.5117 39.3125 16.5742 39.3125 16.6055C39.3125 16.9492 39.3672 17.2852 39.4766 17.6133C39.5859 17.9336 39.7031 18.2539 39.8281 18.5742C39.9609 18.8945 40.082 19.2148 40.1914 19.5352C40.3008 19.8555 40.3555 20.1875 40.3555 20.5312C40.3555 20.5938 40.3477 20.6602 40.332 20.7305C40.3242 20.793 40.3008 20.8516 40.2617 20.9062C40.2305 20.9531 40.1797 20.9883 40.1094 21.0117C40.0469 21.043 39.957 21.0391 39.8398 21C39.543 20.9219 39.3203 20.7539 39.1719 20.4961C39.0312 20.2383 38.9258 19.9336 38.8555 19.582C38.7852 19.2227 38.7383 18.8438 38.7148 18.4453C38.6914 18.0469 38.6523 17.6758 38.5977 17.332C38.5508 16.9805 38.4727 16.6836 38.3633 16.4414C38.2539 16.1914 38.0781 16.0391 37.8359 15.9844L35.5742 15.4688C35.543 15.4688 35.4961 15.4375 35.4336 15.375C35.3711 15.3047 35.332 15.2539 35.3164 15.2227C35.3086 15.207 35.3047 15.1875 35.3047 15.1641C35.2969 15.1484 35.293 15.125 35.293 15.0938ZM53.0352 13.9688C53.0039 13.8594 52.9414 13.7852 52.8477 13.7461C52.7617 13.707 52.6641 13.6875 52.5547 13.6875C52.4531 13.6797 52.3516 13.6836 52.25 13.6992C52.1484 13.7148 52.0703 13.7227 52.0156 13.7227C51.8828 13.7148 51.6523 13.6992 51.3242 13.6758C50.9961 13.6523 50.6406 13.6289 50.2578 13.6055C49.8828 13.5742 49.5312 13.5469 49.2031 13.5234C48.875 13.4922 48.6445 13.4727 48.5117 13.4648C48.5117 13.4492 48.5078 13.4102 48.5 13.3477C48.4922 13.2852 48.4883 13.2422 48.4883 13.2188C48.4883 13.1094 48.4961 13.0117 48.5117 12.9258C48.5352 12.8398 48.6133 12.7734 48.7461 12.7266C49.4805 12.7422 50.2031 12.7383 50.9141 12.7148C51.6328 12.6914 52.3477 12.6602 53.0586 12.6211C53.7773 12.5742 54.4922 12.5312 55.2031 12.4922C55.9219 12.4531 56.6445 12.4336 57.3711 12.4336C57.3711 12.7305 57.3008 12.9492 57.1602 13.0898C57.0195 13.2227 56.8438 13.3125 56.6328 13.3594C56.4297 13.4062 56.2031 13.4258 55.9531 13.418C55.7031 13.4102 55.4609 13.4141 55.2266 13.4297C55 13.4453 54.7969 13.4922 54.6172 13.5703C54.4453 13.6406 54.332 13.7734 54.2773 13.9688C54.2695 14.0156 54.2617 14.1055 54.2539 14.2383C54.2461 14.3711 54.2383 14.5117 54.2305 14.6602C54.2305 14.8086 54.2266 14.9492 54.2188 15.082C54.2188 15.207 54.2188 15.2969 54.2188 15.3516C54.2188 15.7969 54.2734 16.2383 54.3828 16.6758C54.5 17.1055 54.625 17.5352 54.7578 17.9648C54.8984 18.3867 55.0234 18.8125 55.1328 19.2422C55.25 19.6641 55.3086 20.0938 55.3086 20.5312C55.3086 20.8594 55.1211 21.0234 54.7461 21.0234C54.5195 21.0234 54.3164 20.8672 54.1367 20.5547C53.9648 20.2422 53.8125 19.8438 53.6797 19.3594C53.5547 18.875 53.4492 18.3477 53.3633 17.7773C53.2852 17.207 53.2188 16.6602 53.1641 16.1367C53.1172 15.6133 53.082 15.1523 53.0586 14.7539C53.043 14.3555 53.0352 14.0938 53.0352 13.9688ZM58.0273 16.0781C58.0273 16.0078 58.0312 15.9375 58.0391 15.8672C58.0469 15.7891 58.0625 15.7227 58.0859 15.668C58.1094 15.6055 58.1445 15.5547 58.1914 15.5156C58.2461 15.4766 58.3203 15.457 58.4141 15.457C58.4922 15.457 58.5781 15.5195 58.6719 15.6445C58.7734 15.7617 58.875 15.9141 58.9766 16.1016C59.0781 16.2812 59.1758 16.4805 59.2695 16.6992C59.3711 16.918 59.457 17.1211 59.5273 17.3086C59.6055 17.4883 59.668 17.6445 59.7148 17.7773C59.7617 17.9102 59.7891 17.9805 59.7969 17.9883C59.8984 17.7148 60.0117 17.418 60.1367 17.0977C60.2617 16.7773 60.4141 16.4805 60.5938 16.207C60.7812 15.9258 61 15.6914 61.25 15.5039C61.5078 15.3164 61.8203 15.2227 62.1875 15.2227C62.375 15.2227 62.5508 15.2539 62.7148 15.3164C62.8867 15.3711 63.0352 15.457 63.1602 15.5742C63.293 15.6836 63.3984 15.8164 63.4766 15.9727C63.5547 16.1289 63.5938 16.3086 63.5938 16.5117C63.5938 16.6836 63.5234 16.8047 63.3828 16.875C63.25 16.9453 63.0977 16.9805 62.9258 16.9805H62.8086L62.3047 16.4766C62.2891 16.4766 62.2773 16.4727 62.2695 16.4648C62.2539 16.4648 62.2383 16.4648 62.2227 16.4648C62.2148 16.457 62.2031 16.4531 62.1875 16.4531C61.9141 16.4531 61.6992 16.5312 61.543 16.6875C61.3945 16.8359 61.2812 17.0234 61.2031 17.25C61.125 17.4688 61.0742 17.7031 61.0508 17.9531C61.0352 18.1953 61.0273 18.418 61.0273 18.6211C61.0273 18.7773 61.043 18.9375 61.0742 19.1016C61.1055 19.2578 61.1406 19.4141 61.1797 19.5703C61.2188 19.7188 61.2539 19.875 61.2852 20.0391C61.3164 20.1953 61.332 20.3594 61.332 20.5312C61.332 20.8594 61.1562 21.0234 60.8047 21.0234C60.6094 21.0234 60.4062 20.9219 60.1953 20.7188C59.9844 20.5078 59.7734 20.2422 59.5625 19.9219C59.3594 19.6016 59.1641 19.25 58.9766 18.8672C58.7891 18.4766 58.625 18.0977 58.4844 17.7305C58.3438 17.3633 58.2305 17.0312 58.1445 16.7344C58.0664 16.4375 58.0273 16.2188 58.0273 16.0781ZM69.0547 19.4883C68.7578 19.6914 68.5 19.875 68.2812 20.0391C68.0703 20.1953 67.8633 20.3281 67.6602 20.4375C67.457 20.5469 67.2383 20.6289 67.0039 20.6836C66.7773 20.7383 66.4961 20.7656 66.1602 20.7656C65.4336 20.7656 64.8945 20.5742 64.543 20.1914C64.1914 19.8008 64.0156 19.2227 64.0156 18.457C64.0156 18.1602 64.0547 17.8516 64.1328 17.5312C64.2109 17.2109 64.3242 16.8945 64.4727 16.582C64.6289 16.2617 64.8125 15.9609 65.0234 15.6797C65.2344 15.3906 65.4727 15.1367 65.7383 14.918C66.0039 14.6992 66.2852 14.5273 66.582 14.4023C66.8867 14.2695 67.207 14.2031 67.543 14.2031C68.1055 14.2578 68.5469 14.3984 68.8672 14.625C69.1875 14.8438 69.4297 15.1289 69.5938 15.4805C69.7578 15.8242 69.8711 16.2109 69.9336 16.6406C69.9961 17.0625 70.043 17.5 70.0742 17.9531C70.1133 18.4062 70.1602 18.8594 70.2148 19.3125C70.2695 19.7656 70.3828 20.1836 70.5547 20.5664C70.4531 20.8242 70.3555 21.0039 70.2617 21.1055C70.1758 21.2148 70.0781 21.2344 69.9688 21.1641C69.8594 21.0938 69.7305 20.9219 69.582 20.6484C69.4414 20.375 69.2656 19.9883 69.0547 19.4883ZM65.0117 18.4805C65.0117 18.9258 65.0938 19.2539 65.2578 19.4648C65.4297 19.668 65.7305 19.7695 66.1602 19.7695C66.4805 19.7695 66.7852 19.7148 67.0742 19.6055C67.3711 19.4883 67.6289 19.332 67.8477 19.1367C68.0664 18.9336 68.2422 18.6914 68.375 18.4102C68.5078 18.1289 68.5742 17.8164 68.5742 17.4727C68.5742 17.332 68.5781 17.1367 68.5859 16.8867C68.5938 16.6289 68.5781 16.375 68.5391 16.125C68.5 15.875 68.4258 15.6602 68.3164 15.4805C68.207 15.293 68.043 15.1992 67.8242 15.1992C67.418 15.1992 67.043 15.3047 66.6992 15.5156C66.3555 15.7188 66.0586 15.9805 65.8086 16.3008C65.5586 16.6211 65.3633 16.9766 65.2227 17.3672C65.082 17.75 65.0117 18.1211 65.0117 18.4805ZM71.293 17.0508C71.293 16.8477 71.3438 16.7031 71.4453 16.6172C71.5469 16.5234 71.7109 16.4766 71.9375 16.4766H72.0547C72.0781 16.6016 72.1055 16.7461 72.1367 16.9102C72.168 17.0742 72.2148 17.2422 72.2773 17.4141C72.3398 17.5859 72.4141 17.7461 72.5 17.8945C72.5859 18.0352 72.6914 18.1484 72.8164 18.2344C72.8242 17.9609 72.8906 17.6992 73.0156 17.4492C73.1484 17.1914 73.3086 16.9648 73.4961 16.7695C73.6914 16.5664 73.9023 16.3984 74.1289 16.2656C74.3633 16.125 74.5938 16.0312 74.8203 15.9844H75.0781C75.4531 15.9844 75.7734 16.0703 76.0391 16.2422C76.3047 16.4062 76.5234 16.625 76.6953 16.8984C76.875 17.1641 77.0117 17.4688 77.1055 17.8125C77.1992 18.1562 77.2695 18.5078 77.3164 18.8672C77.3711 19.2188 77.4023 19.5625 77.4102 19.8984C77.4258 20.2266 77.4336 20.5078 77.4336 20.7422H76.5781C76.5312 20.2734 76.4727 19.8242 76.4023 19.3945C76.3789 19.2227 76.3477 19.043 76.3086 18.8555C76.2695 18.6602 76.2266 18.4805 76.1797 18.3164C76.1328 18.1445 76.082 17.9883 76.0273 17.8477C75.9727 17.6992 75.9102 17.5742 75.8398 17.4727C75.8086 17.4414 75.7656 17.3984 75.7109 17.3438C75.6641 17.2891 75.6133 17.2344 75.5586 17.1797C75.5039 17.125 75.4531 17.0781 75.4062 17.0391C75.3594 17 75.332 16.9805 75.3242 16.9805C75.0898 16.918 74.8867 16.9648 74.7148 17.1211C74.543 17.2695 74.3906 17.4727 74.2578 17.7305C74.125 17.9883 74.0156 18.2812 73.9297 18.6094C73.8516 18.9375 73.7852 19.2539 73.7305 19.5586C73.6758 19.8555 73.6367 20.1172 73.6133 20.3438C73.5898 20.5625 73.5742 20.6953 73.5664 20.7422C73.3711 20.8828 73.1875 20.9258 73.0156 20.8711C72.8438 20.8086 72.6797 20.6836 72.5234 20.4961C72.375 20.3086 72.2383 20.0742 72.1133 19.793C71.9961 19.5117 71.8867 19.2148 71.7852 18.9023C71.6836 18.582 71.5898 18.2617 71.5039 17.9414C71.4258 17.6211 71.3555 17.3242 71.293 17.0508ZM80.3281 20.4727C80.4531 20.3867 80.6016 20.2773 80.7734 20.1445C80.9531 20.0039 81.1328 19.8555 81.3125 19.6992C81.4922 19.543 81.6602 19.3789 81.8164 19.207C81.9727 19.0352 82.0938 18.8711 82.1797 18.7148C82.2734 18.5508 82.3203 18.3984 82.3203 18.2578C82.3203 18.1172 82.25 18 82.1094 17.9062C81.8594 17.9062 81.5859 17.918 81.2891 17.9414C80.9922 17.957 80.6953 17.9648 80.3984 17.9648C80.1016 17.957 79.8125 17.9297 79.5312 17.8828C79.2578 17.8359 79.0117 17.75 78.793 17.625C78.5742 17.5 78.3984 17.3242 78.2656 17.0977C78.1406 16.8633 78.0781 16.5664 78.0781 16.207C78.0781 15.7852 78.1562 15.4062 78.3125 15.0703C78.4766 14.7266 78.6914 14.4258 78.957 14.168C79.2227 13.9023 79.5195 13.6719 79.8477 13.4766C80.1836 13.2734 80.5195 13.1016 80.8555 12.9609C81.0586 13.0156 81.2461 13.1133 81.418 13.2539C81.5898 13.3945 81.7383 13.5508 81.8633 13.7227C81.8086 13.8945 81.6992 14.0273 81.5352 14.1211C81.3789 14.2148 81.1953 14.2969 80.9844 14.3672C80.7812 14.4375 80.5664 14.5117 80.3398 14.5898C80.1133 14.668 79.9062 14.7734 79.7188 14.9062C79.5391 15.0312 79.3867 15.1992 79.2617 15.4102C79.1367 15.6133 79.0742 15.8828 79.0742 16.2188C79.0742 16.4688 79.1367 16.6523 79.2617 16.7695C79.3867 16.8867 79.5508 16.9688 79.7539 17.0156C79.957 17.0547 80.1875 17.0703 80.4453 17.0625C80.7031 17.0469 80.9648 17.0273 81.2305 17.0039C81.5039 16.9805 81.7695 16.9688 82.0273 16.9688C82.2852 16.9609 82.5156 16.9922 82.7188 17.0625C82.9219 17.125 83.082 17.2305 83.1992 17.3789C83.3242 17.5273 83.3867 17.7461 83.3867 18.0352C83.3867 18.1602 83.3438 18.3203 83.2578 18.5156C83.1797 18.7109 83.0703 18.9219 82.9297 19.1484C82.7969 19.3672 82.6367 19.5859 82.4492 19.8047C82.2695 20.0234 82.0781 20.2227 81.875 20.4023C81.6797 20.5742 81.4805 20.7188 81.2773 20.8359C81.082 20.9453 80.8984 21 80.7266 21C80.5625 21 80.4531 20.9414 80.3984 20.8242C80.3516 20.707 80.3281 20.5898 80.3281 20.4727ZM88.625 22.0898C88.4609 21.7852 88.2773 21.4062 88.0742 20.9531C87.8789 20.4922 87.6758 20.0156 87.4648 19.5234C87.2539 19.0234 87.0312 18.5352 86.7969 18.0586C86.5703 17.582 86.3398 17.168 86.1055 16.8164C86.0117 16.7461 85.8828 16.7031 85.7188 16.6875C85.5547 16.6719 85.3828 16.668 85.2031 16.6758C85.0234 16.6758 84.8438 16.6719 84.6641 16.6641C84.4922 16.6484 84.3398 16.6055 84.207 16.5352C84.082 16.4648 83.9883 16.3555 83.9258 16.207C83.8633 16.0586 83.8516 15.8438 83.8906 15.5625H85.8594C85.8984 15.125 85.9648 14.6914 86.0586 14.2617C86.1523 13.832 86.2773 13.4219 86.4336 13.0312C86.5977 12.6406 86.793 12.2773 87.0195 11.9414C87.2461 11.6055 87.5195 11.3164 87.8398 11.0742C88.1602 10.832 88.5273 10.6406 88.9414 10.5C89.3633 10.3594 89.8398 10.2891 90.3711 10.2891C90.5586 10.2891 90.7461 10.3359 90.9336 10.4297C91.1211 10.5156 91.2891 10.6328 91.4375 10.7812C91.5859 10.9297 91.7031 11.0977 91.7891 11.2852C91.8828 11.4727 91.9297 11.6602 91.9297 11.8477C91.7812 11.8477 91.6484 11.8203 91.5312 11.7656C91.4141 11.7031 91.3008 11.6367 91.1914 11.5664C91.082 11.4883 90.9648 11.418 90.8398 11.3555C90.7148 11.2852 90.5742 11.25 90.418 11.25C89.9492 11.25 89.5117 11.3438 89.1055 11.5312C88.707 11.7188 88.3555 11.9688 88.0508 12.2812C87.7539 12.5938 87.5195 12.957 87.3477 13.3711C87.1758 13.7852 87.0898 14.2227 87.0898 14.6836C87.0898 14.7148 87.0898 14.7734 87.0898 14.8594C87.0977 14.9375 87.1016 15.0234 87.1016 15.1172C87.1016 15.2109 87.1016 15.3008 87.1016 15.3867C87.1094 15.4727 87.1133 15.5312 87.1133 15.5625C87.4023 15.6562 87.7266 15.7266 88.0859 15.7734C88.4453 15.8203 88.8047 15.8516 89.1641 15.8672C89.5312 15.875 89.8828 15.8711 90.2188 15.8555C90.5625 15.8398 90.8672 15.8203 91.1328 15.7969C91.1562 15.8203 91.1992 15.8633 91.2617 15.9258C91.3242 15.9883 91.3594 16.0352 91.3672 16.0664C91.3672 16.0898 91.3711 16.1055 91.3789 16.1133C91.3945 16.1602 91.4023 16.1836 91.4023 16.1836C91.4023 16.3477 91.3164 16.4766 91.1445 16.5703C90.9727 16.6641 90.7539 16.7344 90.4883 16.7812C90.2227 16.8203 89.9258 16.8477 89.5977 16.8633C89.2773 16.8789 88.9648 16.8945 88.6602 16.9102C88.3633 16.918 88.0938 16.9336 87.8516 16.957C87.6172 16.9727 87.4531 17.0078 87.3594 17.0625C87.4609 17.5312 87.6406 17.9844 87.8984 18.4219C88.1641 18.8594 88.4336 19.2969 88.707 19.7344C88.9805 20.1719 89.2227 20.6133 89.4336 21.0586C89.6445 21.5039 89.75 21.9609 89.75 22.4297C89.7188 22.4297 89.6445 22.4297 89.5273 22.4297C89.418 22.4375 89.3008 22.4336 89.1758 22.418C89.0508 22.4023 88.9297 22.3672 88.8125 22.3125C88.7031 22.2656 88.6406 22.1914 88.625 22.0898ZM92.1289 17.7422C92.1289 17.3203 92.1797 16.8984 92.2812 16.4766C92.3828 16.0547 92.543 15.6758 92.7617 15.3398C92.9883 15.0039 93.2773 14.7305 93.6289 14.5195C93.9883 14.3086 94.4219 14.2031 94.9297 14.2031C95.2188 14.2031 95.4727 14.2578 95.6914 14.3672C95.9102 14.4688 96.0938 14.6055 96.2422 14.7773C96.3906 14.9492 96.5 15.1523 96.5703 15.3867C96.6484 15.6133 96.6875 15.8516 96.6875 16.1016C96.6875 16.5 96.5938 16.8867 96.4062 17.2617C96.2266 17.6367 95.9805 17.9688 95.668 18.2578C95.3633 18.5391 95.0117 18.7539 94.6133 18.9023C94.2148 19.043 93.8086 19.0742 93.3945 18.9961C93.4023 19.2227 93.4766 19.4062 93.6172 19.5469C93.7656 19.6797 93.9414 19.7812 94.1445 19.8516C94.3477 19.9219 94.5586 19.9688 94.7773 19.9922C94.9961 20.0078 95.1914 20.0156 95.3633 20.0156C95.543 20.0156 95.7109 20 95.8672 19.9688C96.0234 19.9375 96.1797 19.9023 96.3359 19.8633C96.4922 19.8242 96.6484 19.7891 96.8047 19.7578C96.9688 19.7266 97.1406 19.7109 97.3203 19.7109C97.3906 19.7109 97.4609 19.7148 97.5312 19.7227C97.6016 19.7305 97.668 19.75 97.7305 19.7812C97.793 19.8047 97.8438 19.8477 97.8828 19.9102C97.9219 19.9648 97.9414 20.0352 97.9414 20.1211C97.9414 20.2695 97.8867 20.3945 97.7773 20.4961C97.668 20.5898 97.5273 20.6719 97.3555 20.7422C97.1914 20.8125 97.0078 20.8672 96.8047 20.9062C96.6016 20.9375 96.4023 20.9648 96.207 20.9883C96.0195 21.0039 95.8438 21.0117 95.6797 21.0117C95.5234 21.0195 95.4062 21.0234 95.3281 21.0234C94.8281 21.0234 94.3789 20.9453 93.9805 20.7891C93.582 20.625 93.2461 20.4023 92.9727 20.1211C92.6992 19.832 92.4883 19.4883 92.3398 19.0898C92.1992 18.6836 92.1289 18.2344 92.1289 17.7422ZM93.3711 16.9805C93.3711 17.2539 93.4062 17.4531 93.4766 17.5781C93.5547 17.7031 93.7383 17.7656 94.0273 17.7656C94.2305 17.7656 94.4297 17.7305 94.625 17.6602C94.8203 17.582 94.9961 17.4766 95.1523 17.3438C95.3164 17.2109 95.4453 17.0547 95.5391 16.875C95.6328 16.6953 95.6797 16.5 95.6797 16.2891C95.6797 16.1719 95.668 16.0508 95.6445 15.9258C95.6289 15.8008 95.5898 15.6875 95.5273 15.5859C95.4648 15.4766 95.3828 15.3906 95.2812 15.3281C95.1875 15.2578 95.0625 15.2227 94.9062 15.2227C94.6719 15.2227 94.457 15.2773 94.2617 15.3867C94.0742 15.4883 93.9141 15.625 93.7812 15.7969C93.6484 15.9609 93.5469 16.1484 93.4766 16.3594C93.4062 16.5625 93.3711 16.7695 93.3711 16.9805ZM98.668 16.0781C98.668 16.0078 98.6719 15.9375 98.6797 15.8672C98.6875 15.7891 98.7031 15.7227 98.7266 15.668C98.75 15.6055 98.7852 15.5547 98.832 15.5156C98.8867 15.4766 98.9609 15.457 99.0547 15.457C99.1328 15.457 99.2188 15.5195 99.3125 15.6445C99.4141 15.7617 99.5156 15.9141 99.6172 16.1016C99.7188 16.2812 99.8164 16.4805 99.9102 16.6992C100.012 16.918 100.098 17.1211 100.168 17.3086C100.246 17.4883 100.309 17.6445 100.355 17.7773C100.402 17.9102 100.43 17.9805 100.438 17.9883C100.539 17.7148 100.652 17.418 100.777 17.0977C100.902 16.7773 101.055 16.4805 101.234 16.207C101.422 15.9258 101.641 15.6914 101.891 15.5039C102.148 15.3164 102.461 15.2227 102.828 15.2227C103.016 15.2227 103.191 15.2539 103.355 15.3164C103.527 15.3711 103.676 15.457 103.801 15.5742C103.934 15.6836 104.039 15.8164 104.117 15.9727C104.195 16.1289 104.234 16.3086 104.234 16.5117C104.234 16.6836 104.164 16.8047 104.023 16.875C103.891 16.9453 103.738 16.9805 103.566 16.9805H103.449L102.945 16.4766C102.93 16.4766 102.918 16.4727 102.91 16.4648C102.895 16.4648 102.879 16.4648 102.863 16.4648C102.855 16.457 102.844 16.4531 102.828 16.4531C102.555 16.4531 102.34 16.5312 102.184 16.6875C102.035 16.8359 101.922 17.0234 101.844 17.25C101.766 17.4688 101.715 17.7031 101.691 17.9531C101.676 18.1953 101.668 18.418 101.668 18.6211C101.668 18.7773 101.684 18.9375 101.715 19.1016C101.746 19.2578 101.781 19.4141 101.82 19.5703C101.859 19.7188 101.895 19.875 101.926 20.0391C101.957 20.1953 101.973 20.3594 101.973 20.5312C101.973 20.8594 101.797 21.0234 101.445 21.0234C101.25 21.0234 101.047 20.9219 100.836 20.7188C100.625 20.5078 100.414 20.2422 100.203 19.9219C100 19.6016 99.8047 19.25 99.6172 18.8672C99.4297 18.4766 99.2656 18.0977 99.125 17.7305C98.9844 17.3633 98.8711 17.0312 98.7852 16.7344C98.707 16.4375 98.668 16.2188 98.668 16.0781ZM106.906 20.4727C107.031 20.3867 107.18 20.2773 107.352 20.1445C107.531 20.0039 107.711 19.8555 107.891 19.6992C108.07 19.543 108.238 19.3789 108.395 19.207C108.551 19.0352 108.672 18.8711 108.758 18.7148C108.852 18.5508 108.898 18.3984 108.898 18.2578C108.898 18.1172 108.828 18 108.688 17.9062C108.438 17.9062 108.164 17.918 107.867 17.9414C107.57 17.957 107.273 17.9648 106.977 17.9648C106.68 17.957 106.391 17.9297 106.109 17.8828C105.836 17.8359 105.59 17.75 105.371 17.625C105.152 17.5 104.977 17.3242 104.844 17.0977C104.719 16.8633 104.656 16.5664 104.656 16.207C104.656 15.7852 104.734 15.4062 104.891 15.0703C105.055 14.7266 105.27 14.4258 105.535 14.168C105.801 13.9023 106.098 13.6719 106.426 13.4766C106.762 13.2734 107.098 13.1016 107.434 12.9609C107.637 13.0156 107.824 13.1133 107.996 13.2539C108.168 13.3945 108.316 13.5508 108.441 13.7227C108.387 13.8945 108.277 14.0273 108.113 14.1211C107.957 14.2148 107.773 14.2969 107.562 14.3672C107.359 14.4375 107.145 14.5117 106.918 14.5898C106.691 14.668 106.484 14.7734 106.297 14.9062C106.117 15.0312 105.965 15.1992 105.84 15.4102C105.715 15.6133 105.652 15.8828 105.652 16.2188C105.652 16.4688 105.715 16.6523 105.84 16.7695C105.965 16.8867 106.129 16.9688 106.332 17.0156C106.535 17.0547 106.766 17.0703 107.023 17.0625C107.281 17.0469 107.543 17.0273 107.809 17.0039C108.082 16.9805 108.348 16.9688 108.605 16.9688C108.863 16.9609 109.094 16.9922 109.297 17.0625C109.5 17.125 109.66 17.2305 109.777 17.3789C109.902 17.5273 109.965 17.7461 109.965 18.0352C109.965 18.1602 109.922 18.3203 109.836 18.5156C109.758 18.7109 109.648 18.9219 109.508 19.1484C109.375 19.3672 109.215 19.5859 109.027 19.8047C108.848 20.0234 108.656 20.2227 108.453 20.4023C108.258 20.5742 108.059 20.7188 107.855 20.8359C107.66 20.9453 107.477 21 107.305 21C107.141 21 107.031 20.9414 106.977 20.8242C106.93 20.707 106.906 20.5898 106.906 20.4727Z" fill="#FCFCFC"/>
</svg>
