<svg width="18" height="12" viewBox="0 0 18 12" fill="none" xmlns="http://www.w3.org/2000/svg">
<path fill-rule="evenodd" clip-rule="evenodd" d="M0 1.09091C0 0.801582 0.105357 0.524105 0.292893 0.31952C0.48043 0.114935 0.734784 0 1 0H17C17.2652 0 17.5196 0.114935 17.7071 0.31952C17.8946 0.524105 18 0.801582 18 1.09091C18 1.38024 17.8946 1.65771 17.7071 1.8623C17.5196 2.06688 17.2652 2.18182 17 2.18182H1C0.734784 2.18182 0.48043 2.06688 0.292893 1.8623C0.105357 1.65771 0 1.38024 0 1.09091ZM2 6C2 5.71067 2.10536 5.4332 2.29289 5.22861C2.48043 5.02403 2.73478 4.90909 3 4.90909H15C15.2652 4.90909 15.5196 5.02403 15.7071 5.22861C15.8946 5.4332 16 5.71067 16 6C16 6.28933 15.8946 6.5668 15.7071 6.77139C15.5196 6.97597 15.2652 7.09091 15 7.09091H3C2.73478 7.09091 2.48043 6.97597 2.29289 6.77139C2.10536 6.5668 2 6.28933 2 6ZM5 10.9091C5 10.6198 5.10536 10.3423 5.29289 10.1377C5.48043 9.93312 5.73478 9.81818 6 9.81818H12C12.2652 9.81818 12.5196 9.93312 12.7071 10.1377C12.8946 10.3423 13 10.6198 13 10.9091C13 11.1984 12.8946 11.4759 12.7071 11.6805C12.5196 11.8851 12.2652 12 12 12H6C5.73478 12 5.48043 11.8851 5.29289 11.6805C5.10536 11.4759 5 11.1984 5 10.9091Z" fill="#FCFCFC"/>
</svg>
