<svg width="16" height="16" viewBox="0 0 16 16" fill="none" xmlns="http://www.w3.org/2000/svg">
<path d="M12.3077 2.0769H3.69229C2.80014 2.0769 2.0769 2.80014 2.0769 3.69229V12.3077C2.0769 13.1998 2.80014 13.9231 3.69229 13.9231H12.3077C13.1998 13.9231 13.9231 13.1998 13.9231 12.3077V3.69229C13.9231 2.80014 13.1998 2.0769 12.3077 2.0769Z" stroke="#FCFCFC" stroke-linejoin="round"/>
<path d="M11.2308 4.23096H4.7693C4.47191 4.23096 4.23083 4.47203 4.23083 4.76942V11.231C4.23083 11.5283 4.47191 11.7694 4.7693 11.7694H11.2308C11.5282 11.7694 11.7693 11.5283 11.7693 11.231V4.76942C11.7693 4.47203 11.5282 4.23096 11.2308 4.23096Z" stroke="#FCFCFC" stroke-linejoin="round"/>
<path d="M8 2.07692V1M10.6923 2.07692V1M5.30769 2.07692V1M8 15V13.9231M10.6923 15V13.9231M5.30769 15V13.9231M13.9231 8H15M13.9231 10.6923H15M13.9231 5.30769H15M1 8H2.07692M1 10.6923H2.07692M1 5.30769H2.07692" stroke="#FCFCFC" stroke-linecap="round" stroke-linejoin="round"/>
</svg>
