<svg width="16" height="16" viewBox="0 0 16 16" fill="none" xmlns="http://www.w3.org/2000/svg">
<path fill-rule="evenodd" clip-rule="evenodd" d="M12 4.14262e-09C12.6122 -3.7886e-05 13.2012 0.259845 13.6466 0.726474C14.092 1.1931 14.3601 1.83121 14.396 2.51022L14.4 2.66667V6.53333L14.8752 6.29867C15.3664 6.056 15.9328 6.432 15.9952 7.008L16 7.11111V14.2222C16.0001 14.6707 15.8477 15.1027 15.5732 15.4316C15.2987 15.7605 14.9225 15.9619 14.52 15.9956L14.4 16H1.6C1.19634 16.0001 0.807547 15.8308 0.511562 15.5258C0.215576 15.2208 0.0342747 14.8028 0.00400009 14.3556L0 14.2222V7.11111C0 6.51378 0.54 6.09156 1.0376 6.26222L1.1256 6.29867L1.6 6.53333V2.66667C1.59997 1.98648 1.83386 1.33199 2.25383 0.837101C2.67379 0.342216 3.24809 0.0443489 3.8592 0.00444455L4 4.14262e-09H12ZM14.4 8.47911L8.6496 11.3182C8.44509 11.4192 8.22379 11.4713 8 11.4713C7.77621 11.4713 7.55491 11.4192 7.3504 11.3182L1.6 8.48V14.2222H14.4V8.47911ZM12 1.77778H4C3.78783 1.77778 3.58434 1.87143 3.43431 2.03813C3.28429 2.20483 3.2 2.43092 3.2 2.66667V7.32356L8 9.69422L12.8 7.32356V2.66667C12.8 2.43092 12.7157 2.20483 12.5657 2.03813C12.4157 1.87143 12.2122 1.77778 12 1.77778ZM8 4.44444C8.2039 4.4447 8.40003 4.53145 8.5483 4.68698C8.69656 4.8425 8.78579 5.05507 8.79774 5.28124C8.80969 5.50741 8.74346 5.73011 8.61259 5.90385C8.48172 6.07759 8.29608 6.18924 8.0936 6.216L8 6.22222H6.4C6.1961 6.22197 5.99997 6.13522 5.85171 5.97969C5.70344 5.82416 5.61421 5.6116 5.60226 5.38543C5.59031 5.15926 5.65654 4.93655 5.78741 4.76282C5.91828 4.58908 6.10392 4.47743 6.3064 4.45067L6.4 4.44444H8Z" fill="#FCFCFC"/>
</svg>
