<svg width="272" height="279" viewBox="0 0 272 279" fill="none" xmlns="http://www.w3.org/2000/svg">
<path d="M5.813 1.99345C6.2696 2.15003 6.74945 2.22804 7.23213 2.22416L256.738 0.217794C261.258 0.181454 264.91 3.893 264.8 8.41096L258.785 257.121C258.68 261.491 255.085 264.968 250.714 264.927L14.5831 262.741C10.2751 262.701 6.77239 259.257 6.65989 254.95L0.160701 6.14303C0.0829778 3.16759 2.9975 1.02792 5.813 1.99345Z" fill="#A9B0A6"/>
<mask id="mask0_1559_2674" style="mask-type:alpha" maskUnits="userSpaceOnUse" x="54" y="45" width="157" height="171">
<path d="M211 130.5C211 177.72 175.854 216 132.5 216C89.1456 216 54 177.72 54 130.5C54 83.2797 89.1456 45 132.5 45C175.854 45 211 83.2797 211 130.5Z" fill="#778CBF"/>
</mask>
<g mask="url(#mask0_1559_2674)">
<path d="M200.321 135.957L204.98 162.002L176.552 202.252L159.474 197.579L144.334 210.896L92.395 196.823L73.1339 190.434L61.3103 153.38L41.7402 127.83L50.398 86.6333L67.6362 80.0162L109.416 50.7358L121.553 49.9317L156.633 44.1812L194.656 73.542L217.89 86.0873L218.428 136.9L200.321 135.957Z" fill="#599DB0"/>
<path d="M76.8965 205.519C76.8965 176.801 100.178 153.519 128.896 153.519H136.105C164.824 153.519 188.105 176.8 188.105 205.519V216H76.8965V205.519Z" fill="#A9B0A6"/>
</g>
<path d="M152.125 120.635C152.125 131.532 143.339 140.365 132.5 140.365C121.661 140.365 112.875 131.532 112.875 120.635C112.875 109.738 121.661 100.904 132.5 100.904C143.339 100.904 152.125 109.738 152.125 120.635Z" fill="#A9B0A6"/>
<path fill-rule="evenodd" clip-rule="evenodd" d="M254.364 254.031C254.446 253.925 254.561 253.849 254.69 253.814C254.82 253.779 254.957 253.788 255.081 253.838C255.206 253.889 255.31 253.978 255.379 254.093L259.409 260.937C259.409 260.937 259.409 260.937 259.409 260.937C259.452 261.009 259.514 261.07 259.586 261.112C259.659 261.154 259.742 261.177 259.826 261.179C259.826 261.179 259.826 261.179 259.826 261.179L267.755 261.254C267.889 261.256 268.019 261.302 268.125 261.385C268.231 261.468 268.307 261.582 268.341 261.712C268.376 261.842 268.368 261.979 268.317 262.104C268.267 262.228 268.178 262.333 268.063 262.402L261.233 266.44C261.233 266.44 261.233 266.44 261.233 266.44C261.161 266.484 261.101 266.545 261.059 266.619C261.017 266.692 260.994 266.774 260.992 266.859C260.992 266.859 260.992 266.859 260.992 266.859L260.917 274.805C260.915 274.939 260.869 275.069 260.786 275.175C260.704 275.281 260.589 275.357 260.46 275.392C260.33 275.427 260.193 275.418 260.069 275.368C259.945 275.317 259.84 275.228 259.771 275.113L255.741 268.269C255.741 268.269 255.741 268.269 255.741 268.269C255.698 268.197 255.637 268.136 255.564 268.094C255.491 268.052 255.408 268.029 255.324 268.027C255.324 268.027 255.324 268.027 255.324 268.027L247.395 267.952C247.261 267.95 247.131 267.904 247.025 267.821C246.919 267.738 246.843 267.624 246.809 267.494C246.774 267.364 246.782 267.227 246.833 267.102C246.883 266.978 246.972 266.873 247.087 266.804L253.917 262.766C253.917 262.766 253.917 262.766 253.917 262.766C253.989 262.722 254.049 262.661 254.091 262.588C254.133 262.514 254.156 262.432 254.158 262.347C254.158 262.347 254.158 262.347 254.158 262.347L254.233 254.401C254.235 254.267 254.281 254.137 254.364 254.031ZM254.722 253.935C254.619 253.963 254.528 254.023 254.462 254.108C254.396 254.192 254.36 254.296 254.358 254.403C254.358 254.403 254.358 254.403 254.358 254.403L254.283 262.349C254.281 262.454 254.252 262.558 254.199 262.65C254.147 262.741 254.072 262.818 253.981 262.873L247.152 266.911C247.151 266.911 247.152 266.911 247.152 266.911C247.06 266.966 246.989 267.05 246.949 267.149C246.908 267.248 246.902 267.358 246.929 267.461C246.957 267.565 247.018 267.657 247.102 267.723C247.186 267.788 247.289 267.825 247.396 267.827C247.396 267.827 247.396 267.827 247.396 267.827L255.325 267.902C255.431 267.904 255.535 267.933 255.626 267.986C255.717 268.039 255.794 268.114 255.848 268.204L259.878 275.048C259.878 275.048 259.878 275.048 259.878 275.048C259.933 275.14 260.017 275.212 260.116 275.252C260.215 275.292 260.324 275.299 260.428 275.271C260.531 275.243 260.622 275.183 260.688 275.098C260.754 275.014 260.79 274.91 260.792 274.803C260.792 274.803 260.792 274.803 260.792 274.803L260.867 266.857C260.869 266.752 260.898 266.648 260.951 266.556C261.003 266.465 261.078 266.388 261.169 266.333L267.998 262.295C267.998 262.295 267.999 262.295 267.998 262.295C268.09 262.24 268.161 262.156 268.201 262.057C268.242 261.958 268.248 261.848 268.221 261.745C268.193 261.641 268.132 261.549 268.048 261.483C267.964 261.418 267.861 261.381 267.754 261.379C267.754 261.379 267.754 261.379 267.754 261.379L259.825 261.304C259.719 261.302 259.615 261.273 259.524 261.22C259.433 261.167 259.356 261.092 259.302 261.002L255.272 254.158C255.272 254.158 255.272 254.158 255.272 254.158C255.217 254.066 255.133 253.994 255.034 253.954C254.935 253.914 254.826 253.907 254.722 253.935Z" fill="#FCD34D"/>
<path d="M247.395 267.889L255.325 267.965C255.419 267.967 255.512 267.992 255.594 268.04C255.677 268.088 255.746 268.155 255.795 268.237L259.824 275.081C259.886 275.184 259.98 275.265 260.092 275.31C260.204 275.355 260.327 275.363 260.443 275.332C260.56 275.3 260.663 275.232 260.737 275.137C260.811 275.042 260.852 274.925 260.854 274.804L260.929 266.858C260.931 266.763 260.957 266.67 261.004 266.587C261.052 266.505 261.119 266.436 261.201 266.387L268.03 262.349C268.134 262.287 268.214 262.192 268.259 262.08C268.304 261.969 268.312 261.845 268.281 261.728C268.249 261.612 268.181 261.509 268.086 261.434C267.991 261.36 267.875 261.319 267.754 261.317L259.825 261.241C259.73 261.24 259.637 261.214 259.555 261.166C259.473 261.119 259.404 261.051 259.355 260.969L255.325 254.126C255.263 254.022 255.169 253.941 255.057 253.896C254.946 253.851 254.822 253.843 254.706 253.875C254.59 253.906 254.487 253.974 254.412 254.069C254.338 254.165 254.297 254.281 254.295 254.402L254.22 262.348C254.218 262.443 254.192 262.536 254.145 262.619C254.097 262.701 254.03 262.77 253.949 262.819L247.119 266.858C247.016 266.92 246.935 267.014 246.89 267.126C246.845 267.238 246.837 267.361 246.869 267.478C246.9 267.594 246.968 267.698 247.063 267.772C247.158 267.846 247.275 267.887 247.395 267.889Z" fill="url(#paint0_linear_1559_2674)"/>
<defs>
<linearGradient id="paint0_linear_1559_2674" x1="250.731" y1="257.748" x2="264.447" y2="271.43" gradientUnits="userSpaceOnUse">
<stop stop-color="#FCD966"/>
<stop offset="0.5" stop-color="#FCD966"/>
<stop offset="1" stop-color="#FCCD34"/>
</linearGradient>
</defs>
</svg>
