<svg width="16" height="20" viewBox="0 0 16 20" fill="none" xmlns="http://www.w3.org/2000/svg">
<path d="M7.99416 11.5L7.99415 11.5001L8.00585 11.5C8.20813 11.4976 8.40629 11.5573 8.57364 11.6709C8.74099 11.7846 8.8695 11.9468 8.94188 12.1357C9.01426 12.3246 9.02703 12.5312 8.97847 12.7275C8.92991 12.9239 8.82235 13.1007 8.67027 13.2341L8.5 13.3835V13.61V15C8.5 15.1326 8.44732 15.2598 8.35355 15.3536C8.25979 15.4473 8.13261 15.5 8 15.5C7.86739 15.5 7.74021 15.4473 7.64645 15.3536C7.55268 15.2598 7.5 15.1326 7.5 15V13.61V13.3835L7.32973 13.2341C7.17765 13.1007 7.07009 12.9239 7.02153 12.7275C6.97297 12.5312 6.98574 12.3246 7.05812 12.1357C7.1305 11.9468 7.25901 11.7846 7.42636 11.6709C7.59371 11.5573 7.79187 11.4976 7.99416 11.5ZM12.5 7V7.5H13C13.663 7.5 14.2989 7.76339 14.7678 8.23223C15.2366 8.70107 15.5 9.33696 15.5 10V17C15.5 17.663 15.2366 18.2989 14.7678 18.7678C14.2989 19.2366 13.663 19.5 13 19.5H3C2.33696 19.5 1.70107 19.2366 1.23223 18.7678C0.763392 18.2989 0.5 17.663 0.5 17V10C0.5 9.33696 0.763392 8.70107 1.23223 8.23223C1.70107 7.76339 2.33696 7.5 3 7.5H3.5V7V5C3.5 3.80653 3.97411 2.66193 4.81802 1.81802C5.66193 0.974106 6.80653 0.5 8 0.5C9.19347 0.5 10.3381 0.974106 11.182 1.81802C12.0259 2.66193 12.5 3.80653 12.5 5V7ZM11 7.5H11.5V7V5C11.5 4.07174 11.1313 3.1815 10.4749 2.52513C9.8185 1.86875 8.92826 1.5 8 1.5C7.07174 1.5 6.1815 1.86875 5.52513 2.52513C4.86875 3.1815 4.5 4.07174 4.5 5V7V7.5H5H11ZM14.0607 18.0607C14.342 17.7794 14.5 17.3978 14.5 17V10C14.5 9.60218 14.342 9.22064 14.0607 8.93934C13.7794 8.65804 13.3978 8.5 13 8.5H3C2.60217 8.5 2.22064 8.65804 1.93934 8.93934C1.65804 9.22064 1.5 9.60217 1.5 10V17C1.5 17.3978 1.65804 17.7794 1.93934 18.0607C2.22065 18.342 2.60218 18.5 3 18.5H13C13.3978 18.5 13.7794 18.342 14.0607 18.0607Z" fill="black" stroke="#FCFCFC"/>
</svg>
