<svg width="272" height="263" viewBox="0 0 272 263" fill="none" xmlns="http://www.w3.org/2000/svg">
<path d="M158.629 145.961L167.815 142.924L178.769 131.591L190.511 109.778L195.762 95.2278L198.306 77.5648L192.044 50.9074L182.676 33.5699L173.722 22.4758L160.083 7.33536L143.717 0L132.814 1.65637L122.441 3.5592L102.536 6.28598L88.9095 14.2034L78.0008 22.0571L64.7495 34.126L60.8982 43.2085L59.1865 58.5424L56.5229 73.7397L60.2679 96.0645L63.1348 109.105L74.2093 126.75L86.488 142.12L90.72 130.679L88.0692 122.99L77.1093 105.368L68.965 88.0891L69.3153 67.2984L77.688 48.1283L85.5367 32.3574L103.697 17.9414L116.903 13.3729L122.114 15.1855L144.641 16.5664L159.991 27.3639L170.765 36.608L179.016 57.3738L182.037 63.5904L178.666 89.8131L179.675 103.999L166.545 123.582L150.151 134.143L160.53 151.639L158.629 145.961Z" fill="#599DB0"/>
<path d="M109.601 77.9713L124.047 72.0598L126.23 77.1168L134.187 77.6343L201.704 122.705L205.63 132.362L215 138.326L214.68 147.235L214.558 155.815L191.269 225.546L183.517 235.192L171.052 244L82.9769 242.305L72.7557 241.486L67.146 238.903L63.7749 228.214L38.5911 152.595L36 146.13L38.2432 134.958L39.8163 128.283L47.4749 123.569L110.457 79.0479L109.601 77.9713Z" fill="#A9B0A6"/>
<path d="M141.627 147.994L143.161 157.075L137.59 163.604L130.976 165.33L124.564 165.64L119.171 165.762L116.777 162.359L110.369 154.851L111.3 148.23L107.984 141.176L110.94 141.238L118.625 137.97L126.448 132.389L132.68 134.69L137.846 142.089L138.27 142.969L141.409 150.794L141.627 147.994Z" fill="#28443F"/>
<path d="M116.319 168.838L124.141 161.391L129.134 167.098L140.418 192.194L137.367 195.691L113.397 197.516L116.69 166.04L116.319 168.838Z" fill="#28443F"/>
<path d="M163.043 147.287C172.333 152.671 191.68 137.058 172.778 121.404M163.043 147.287V147.287ZM181.133 129.278C191.075 127.383 162.894 101.551 157.422 113.452M163.043 111.272C158.94 111.896 141.066 110.257 140.522 126.168M144.961 129.278C147.508 139.421 140.935 130.396 143.042 134.836M141.092 140.365C141.461 150.26 131.288 153.25 122.379 153.204M125.188 159.009C114.163 166.207 133.194 159.713 121.895 161.859M125.466 165.358C125.87 164.898 126.15 166.626 127.554 167.407M127.713 167.387C124.032 170.815 121.817 162.814 131.12 176.812M133.564 167.684C133.495 166.216 134.365 165.357 136.362 164.612M136.128 164.457C141.121 178.35 137.344 163.91 146.163 162.491M143.699 164.036C147.338 155.679 153 163.914 140.003 163.411M143.375 158.101C143.646 157.891 143.994 157.65 144.282 157.238M144.12 157.335C154.109 167.673 142.526 153.753 143.539 166.687M152.953 157.335C160.371 157.114 160.069 159.915 142.144 148.773M152.953 151.473C157.188 143.978 147.235 140.177 142.095 137.62M151.971 147.849C153.403 147.216 154.18 146.204 154.767 145.384M155.057 145.192C155.244 144.227 151.767 147.73 163.86 152.421M163.048 147.286C163.046 147.285 163.045 147.287 163.042 147.286" stroke="#FCFCFC" stroke-width="1.5" stroke-linecap="round" stroke-linejoin="round"/>
<path d="M169.353 129.281C161.988 125.142 165.01 137.371 161.415 135.533M169.353 129.281V129.281ZM167.5 133.726C170.812 127.902 164.44 125.824 163.217 133.034M163.045 135.561C161.237 137.903 171.203 125.925 164.972 141.905M158.59 133.726C160.634 138.585 159.82 120.121 155.929 135.977M156.736 129.281C146.938 123.077 156.774 131.357 168.657 126.546M157.22 126.872C150.118 136.921 149.796 128.184 156.009 127.206M158.589 124.833C160.169 126.905 168.351 115.58 169.273 114.657M160.634 123.472C156.896 131.752 154.418 132.019 159.342 131.016M163.045 122.997C162.732 131.982 155.082 132.828 164.318 115.685M165.455 123.472C164.417 133.001 157.737 125.459 175.003 131.831M167.501 124.833C163.792 130.339 167.615 125.362 170.265 126.592M168.87 126.872C178.439 135.868 160.005 126.701 164.384 137.48" stroke="#FCFCFC" stroke-width="1.5" stroke-linecap="round"/>
<rect x="170" y="116" width="102" height="28" rx="14" fill="#B36F5A"/>
<path d="M180.061 131.607C180.061 131.542 180.044 131.412 180.012 131.217C179.986 131.015 179.937 130.748 179.865 130.416C179.455 130.54 179.126 130.592 178.879 130.572C178.638 130.546 178.469 130.484 178.371 130.387C178.273 130.289 178.247 130.175 178.293 130.045C178.339 129.915 178.439 129.807 178.596 129.723C178.758 129.632 178.973 129.583 179.24 129.576C179.514 129.563 179.833 129.622 180.197 129.752C180.223 129.719 180.243 129.651 180.256 129.547C180.275 129.443 180.295 129.322 180.314 129.186C180.334 129.049 180.354 128.906 180.373 128.756C180.399 128.606 180.419 128.469 180.432 128.346C180.451 128.222 180.467 128.118 180.48 128.033C180.493 127.942 180.51 127.896 180.529 127.896C180.568 127.87 180.63 127.851 180.715 127.838C180.799 127.825 180.881 127.815 180.959 127.809C181.063 127.796 181.171 127.789 181.281 127.789L181.408 129.391H182.141C182.141 129.378 182.144 129.322 182.15 129.225C182.157 129.127 182.167 129.01 182.18 128.873C182.199 128.73 182.222 128.577 182.248 128.414C182.281 128.251 182.32 128.105 182.365 127.975C182.411 127.838 182.463 127.724 182.521 127.633C182.587 127.542 182.665 127.496 182.756 127.496C182.782 127.496 182.821 127.499 182.873 127.506C182.925 127.506 182.974 127.512 183.02 127.525C183.065 127.538 183.104 127.561 183.137 127.594C183.176 127.62 183.195 127.662 183.195 127.721V129.186C183.267 129.212 183.361 129.238 183.479 129.264C183.602 129.29 183.736 129.316 183.879 129.342C184.029 129.361 184.178 129.384 184.328 129.41C184.478 129.436 184.615 129.465 184.738 129.498C184.862 129.531 184.963 129.57 185.041 129.615C185.119 129.654 185.158 129.7 185.158 129.752C185.113 129.889 185.018 129.99 184.875 130.055C184.738 130.113 184.582 130.162 184.406 130.201C184.237 130.234 184.064 130.266 183.889 130.299C183.719 130.325 183.579 130.367 183.469 130.426C183.365 130.484 183.303 130.569 183.283 130.68C183.27 130.79 183.339 130.947 183.488 131.148C183.56 131.148 183.651 131.142 183.762 131.129C183.872 131.116 183.986 131.103 184.104 131.09C184.221 131.077 184.338 131.07 184.455 131.07C184.572 131.07 184.676 131.083 184.768 131.109C184.859 131.135 184.934 131.181 184.992 131.246C185.051 131.311 185.08 131.402 185.08 131.52C185.08 131.624 185.015 131.708 184.885 131.773C184.761 131.839 184.615 131.894 184.445 131.939C184.276 131.985 184.11 132.021 183.947 132.047C183.791 132.073 183.677 132.096 183.605 132.115C183.625 132.232 183.648 132.376 183.674 132.545C183.7 132.708 183.706 132.867 183.693 133.023C183.687 133.18 183.648 133.316 183.576 133.434C183.505 133.551 183.378 133.609 183.195 133.609C183.059 133.564 182.958 133.495 182.893 133.404C182.834 133.307 182.785 133.202 182.746 133.092C182.714 132.975 182.684 132.864 182.658 132.76C182.632 132.649 182.587 132.558 182.521 132.486C182.456 132.415 182.359 132.376 182.229 132.369C182.098 132.356 181.916 132.389 181.682 132.467C181.682 132.584 181.682 132.721 181.682 132.877C181.682 133.027 181.665 133.173 181.633 133.316C181.607 133.453 181.551 133.57 181.467 133.668C181.382 133.759 181.258 133.805 181.096 133.805C181.037 133.805 180.969 133.756 180.891 133.658C180.819 133.561 180.741 133.443 180.656 133.307C180.578 133.163 180.497 133.023 180.412 132.887C180.327 132.75 180.246 132.639 180.168 132.555C179.777 132.516 179.475 132.473 179.26 132.428C179.051 132.376 178.908 132.324 178.83 132.271C178.752 132.219 178.729 132.167 178.762 132.115C178.794 132.057 178.853 132.001 178.938 131.949C179.152 131.839 179.527 131.725 180.061 131.607ZM181.301 131.061C181.301 131.119 181.317 131.165 181.35 131.197C181.382 131.23 181.421 131.256 181.467 131.275C181.512 131.288 181.558 131.298 181.604 131.305C181.656 131.305 181.698 131.305 181.73 131.305C181.783 131.305 181.844 131.301 181.916 131.295C181.988 131.282 182.056 131.266 182.121 131.246C182.193 131.227 182.251 131.197 182.297 131.158C182.349 131.113 182.375 131.054 182.375 130.982C182.375 130.839 182.339 130.709 182.268 130.592C182.202 130.475 182.098 130.416 181.955 130.416C181.877 130.416 181.799 130.436 181.721 130.475C181.643 130.507 181.571 130.556 181.506 130.621C181.447 130.68 181.398 130.748 181.359 130.826C181.32 130.904 181.301 130.982 181.301 131.061ZM188.215 128.551C187.961 128.499 187.707 128.382 187.453 128.199C187.199 128.017 186.955 127.796 186.721 127.535C186.493 127.275 186.275 126.985 186.066 126.666C185.865 126.347 185.689 126.025 185.539 125.699C185.389 125.374 185.272 125.058 185.188 124.752C185.103 124.446 185.061 124.173 185.061 123.932C185.061 123.899 185.061 123.86 185.061 123.814C185.067 123.769 185.074 123.727 185.08 123.688C185.093 123.642 185.116 123.606 185.148 123.58C185.181 123.548 185.223 123.531 185.275 123.531C185.438 123.531 185.578 123.59 185.695 123.707C185.812 123.818 185.92 123.967 186.018 124.156C186.115 124.345 186.206 124.56 186.291 124.801C186.376 125.042 186.46 125.286 186.545 125.533C186.636 125.781 186.73 126.025 186.828 126.266C186.926 126.507 187.033 126.721 187.15 126.91C187.274 127.099 187.414 127.252 187.57 127.369C187.727 127.48 187.906 127.535 188.107 127.535C188.12 127.535 188.137 127.532 188.156 127.525C188.182 127.519 188.202 127.516 188.215 127.516C188.397 127.353 188.56 127.138 188.703 126.871C188.853 126.598 188.99 126.305 189.113 125.992C189.237 125.68 189.357 125.357 189.475 125.025C189.592 124.693 189.712 124.384 189.836 124.098C189.966 123.811 190.1 123.561 190.236 123.346C190.38 123.131 190.542 122.981 190.725 122.896L191.145 123.326C191.197 123.378 191.203 123.486 191.164 123.648C191.132 123.805 191.07 124.003 190.979 124.244C190.894 124.479 190.786 124.742 190.656 125.035C190.526 125.322 190.389 125.621 190.246 125.934C190.103 126.246 189.96 126.559 189.816 126.871C189.673 127.177 189.543 127.467 189.426 127.74C189.315 128.014 189.224 128.258 189.152 128.473C189.081 128.688 189.045 128.857 189.045 128.98C189.045 129.371 189.1 129.749 189.211 130.113C189.328 130.478 189.452 130.842 189.582 131.207C189.712 131.565 189.833 131.926 189.943 132.291C190.054 132.649 190.109 133.017 190.109 133.395C190.109 133.447 190.109 133.515 190.109 133.6C190.109 133.678 190.096 133.753 190.07 133.824C190.051 133.896 190.008 133.951 189.943 133.99C189.885 134.029 189.797 134.033 189.68 134C189.439 133.648 189.227 133.251 189.045 132.809C188.863 132.359 188.706 131.894 188.576 131.412C188.446 130.93 188.348 130.445 188.283 129.957C188.225 129.462 188.202 128.993 188.215 128.551ZM191.34 132.018C191.34 131.614 191.434 131.24 191.623 130.895C191.812 130.543 192.059 130.243 192.365 129.996C192.678 129.742 193.026 129.544 193.41 129.4C193.801 129.257 194.195 129.186 194.592 129.186C194.813 129.186 195.008 129.257 195.178 129.4C195.354 129.544 195.5 129.719 195.617 129.928C195.734 130.13 195.822 130.344 195.881 130.572C195.946 130.8 195.979 130.999 195.979 131.168C195.979 131.533 195.891 131.887 195.715 132.232C195.539 132.571 195.311 132.874 195.031 133.141C194.751 133.401 194.436 133.613 194.084 133.775C193.732 133.938 193.381 134.02 193.029 134.02C192.717 134.02 192.453 133.967 192.238 133.863C192.023 133.753 191.851 133.609 191.721 133.434C191.59 133.251 191.493 133.04 191.428 132.799C191.369 132.551 191.34 132.291 191.34 132.018ZM192.17 132.115C192.17 132.285 192.183 132.434 192.209 132.564C192.242 132.688 192.294 132.796 192.365 132.887C192.443 132.978 192.544 133.049 192.668 133.102C192.792 133.147 192.945 133.17 193.127 133.17C193.368 133.17 193.609 133.105 193.85 132.975C194.09 132.838 194.305 132.669 194.494 132.467C194.689 132.258 194.846 132.031 194.963 131.783C195.08 131.536 195.139 131.295 195.139 131.061C195.139 130.956 195.129 130.842 195.109 130.719C195.09 130.595 195.057 130.481 195.012 130.377C194.966 130.273 194.901 130.185 194.816 130.113C194.732 130.042 194.624 130.006 194.494 130.006C194.377 130.006 194.237 130.045 194.074 130.123C193.918 130.201 193.752 130.302 193.576 130.426C193.407 130.549 193.238 130.689 193.068 130.846C192.906 131.002 192.756 131.158 192.619 131.314C192.482 131.471 192.372 131.62 192.287 131.764C192.209 131.907 192.17 132.024 192.17 132.115ZM196.359 130.016C196.359 129.977 196.359 129.908 196.359 129.811C196.366 129.706 196.369 129.599 196.369 129.488C196.369 129.378 196.369 129.277 196.369 129.186C196.376 129.088 196.379 129.02 196.379 128.98C196.424 128.902 196.477 128.827 196.535 128.756C196.6 128.678 196.665 128.626 196.73 128.6C196.802 128.567 196.877 128.561 196.955 128.58C197.04 128.6 197.124 128.665 197.209 128.775V128.854V128.98C197.202 129.013 197.189 129.091 197.17 129.215C197.15 129.332 197.128 129.462 197.102 129.605C197.076 129.749 197.049 129.882 197.023 130.006C197.004 130.123 196.994 130.198 196.994 130.23C196.994 130.354 197.007 130.51 197.033 130.699C197.059 130.882 197.095 131.074 197.141 131.275C197.193 131.477 197.255 131.679 197.326 131.881C197.404 132.083 197.495 132.265 197.6 132.428C197.704 132.584 197.818 132.714 197.941 132.818C198.072 132.923 198.221 132.975 198.391 132.975C198.599 132.975 198.781 132.919 198.938 132.809C199.1 132.698 199.24 132.555 199.357 132.379C199.475 132.203 199.569 132.005 199.641 131.783C199.719 131.562 199.781 131.34 199.826 131.119C199.872 130.891 199.904 130.673 199.924 130.465C199.943 130.257 199.953 130.074 199.953 129.918C199.953 129.762 199.94 129.615 199.914 129.479C199.895 129.335 199.868 129.195 199.836 129.059C199.803 128.922 199.774 128.788 199.748 128.658C199.729 128.521 199.719 128.385 199.719 128.248C199.719 128.124 199.761 128.036 199.846 127.984C199.937 127.932 200.038 127.906 200.148 127.906C200.285 127.906 200.396 127.949 200.48 128.033C200.565 128.111 200.63 128.212 200.676 128.336C200.728 128.46 200.76 128.603 200.773 128.766C200.793 128.922 200.803 129.078 200.803 129.234C200.803 129.391 200.799 129.54 200.793 129.684C200.786 129.82 200.783 129.931 200.783 130.016C200.783 130.237 200.767 130.488 200.734 130.768C200.702 131.048 200.643 131.337 200.559 131.637C200.48 131.93 200.38 132.219 200.256 132.506C200.139 132.792 199.992 133.049 199.816 133.277C199.647 133.499 199.449 133.678 199.221 133.814C198.999 133.951 198.749 134.02 198.469 134.02C198.176 134.02 197.919 133.951 197.697 133.814C197.476 133.671 197.287 133.486 197.131 133.258C196.981 133.023 196.854 132.76 196.75 132.467C196.646 132.174 196.564 131.881 196.506 131.588C196.454 131.295 196.415 131.012 196.389 130.738C196.369 130.458 196.359 130.217 196.359 130.016ZM201.379 129.898C201.379 129.84 201.382 129.781 201.389 129.723C201.395 129.658 201.408 129.602 201.428 129.557C201.447 129.505 201.477 129.462 201.516 129.43C201.561 129.397 201.623 129.381 201.701 129.381C201.766 129.381 201.838 129.433 201.916 129.537C202.001 129.635 202.085 129.762 202.17 129.918C202.255 130.068 202.336 130.234 202.414 130.416C202.499 130.598 202.57 130.768 202.629 130.924C202.694 131.074 202.746 131.204 202.785 131.314C202.824 131.425 202.847 131.484 202.854 131.49C202.938 131.262 203.033 131.015 203.137 130.748C203.241 130.481 203.368 130.234 203.518 130.006C203.674 129.771 203.856 129.576 204.064 129.42C204.279 129.264 204.54 129.186 204.846 129.186C205.002 129.186 205.148 129.212 205.285 129.264C205.428 129.309 205.552 129.381 205.656 129.479C205.767 129.57 205.855 129.68 205.92 129.811C205.985 129.941 206.018 130.09 206.018 130.26C206.018 130.403 205.959 130.504 205.842 130.562C205.731 130.621 205.604 130.65 205.461 130.65H205.363L204.943 130.23C204.93 130.23 204.921 130.227 204.914 130.221C204.901 130.221 204.888 130.221 204.875 130.221C204.868 130.214 204.859 130.211 204.846 130.211C204.618 130.211 204.439 130.276 204.309 130.406C204.185 130.53 204.09 130.686 204.025 130.875C203.96 131.057 203.918 131.253 203.898 131.461C203.885 131.663 203.879 131.848 203.879 132.018C203.879 132.148 203.892 132.281 203.918 132.418C203.944 132.548 203.973 132.678 204.006 132.809C204.038 132.932 204.068 133.062 204.094 133.199C204.12 133.329 204.133 133.466 204.133 133.609C204.133 133.883 203.986 134.02 203.693 134.02C203.531 134.02 203.361 133.935 203.186 133.766C203.01 133.59 202.834 133.368 202.658 133.102C202.489 132.835 202.326 132.542 202.17 132.223C202.014 131.897 201.877 131.581 201.76 131.275C201.643 130.969 201.548 130.693 201.477 130.445C201.411 130.198 201.379 130.016 201.379 129.898ZM210.871 127.242C210.871 127.118 210.868 126.985 210.861 126.842C210.855 126.699 210.865 126.565 210.891 126.441C210.923 126.318 210.975 126.217 211.047 126.139C211.125 126.054 211.249 126.012 211.418 126.012C211.542 126.181 211.62 126.393 211.652 126.646C211.691 126.894 211.717 127.158 211.73 127.438C211.743 127.711 211.757 127.984 211.77 128.258C211.789 128.531 211.844 128.772 211.936 128.98C211.942 129.007 211.971 129.046 212.023 129.098C212.082 129.143 212.121 129.173 212.141 129.186C212.336 129.016 212.512 128.84 212.668 128.658C212.831 128.476 212.99 128.3 213.146 128.131C213.303 127.955 213.459 127.789 213.615 127.633C213.771 127.477 213.941 127.34 214.123 127.223C214.312 127.105 214.52 127.014 214.748 126.949C214.982 126.878 215.246 126.842 215.539 126.842C215.539 126.998 215.484 127.154 215.373 127.311C215.262 127.467 215.122 127.626 214.953 127.789C214.784 127.945 214.598 128.108 214.396 128.277C214.195 128.44 213.999 128.609 213.811 128.785C213.622 128.954 213.452 129.127 213.303 129.303C213.153 129.472 213.046 129.645 212.98 129.82C213.091 129.846 213.273 129.911 213.527 130.016C213.788 130.113 214.081 130.237 214.406 130.387C214.738 130.53 215.08 130.686 215.432 130.855C215.783 131.025 216.105 131.194 216.398 131.363C216.691 131.526 216.929 131.682 217.111 131.832C217.3 131.975 217.395 132.092 217.395 132.184C217.395 132.203 217.395 132.245 217.395 132.311C217.395 132.369 217.388 132.431 217.375 132.496C217.368 132.561 217.349 132.62 217.316 132.672C217.284 132.717 217.232 132.74 217.16 132.74C216.887 132.734 216.63 132.685 216.389 132.594C216.148 132.496 215.913 132.379 215.686 132.242C215.458 132.099 215.23 131.952 215.002 131.803C214.781 131.646 214.553 131.5 214.318 131.363C214.084 131.22 213.84 131.106 213.586 131.021C213.339 130.93 213.068 130.878 212.775 130.865C212.678 131.021 212.635 131.174 212.648 131.324C212.661 131.467 212.704 131.614 212.775 131.764C212.854 131.907 212.945 132.057 213.049 132.213C213.153 132.363 213.244 132.522 213.322 132.691C213.4 132.854 213.452 133.027 213.479 133.209C213.505 133.391 213.475 133.583 213.391 133.785C213.378 133.805 213.352 133.827 213.312 133.854C213.28 133.873 213.241 133.896 213.195 133.922C213.156 133.948 213.114 133.967 213.068 133.98C213.023 133.993 212.993 134 212.98 134C212.896 134 212.801 133.919 212.697 133.756C212.6 133.593 212.492 133.372 212.375 133.092C212.264 132.812 212.147 132.493 212.023 132.135C211.906 131.77 211.789 131.396 211.672 131.012C211.561 130.621 211.457 130.23 211.359 129.84C211.268 129.443 211.184 129.075 211.105 128.736C211.034 128.391 210.975 128.089 210.93 127.828C210.891 127.568 210.871 127.372 210.871 127.242ZM217.766 131.285C217.766 130.934 217.808 130.582 217.893 130.23C217.977 129.879 218.111 129.563 218.293 129.283C218.482 129.003 218.723 128.775 219.016 128.6C219.315 128.424 219.676 128.336 220.1 128.336C220.34 128.336 220.552 128.382 220.734 128.473C220.917 128.557 221.07 128.671 221.193 128.814C221.317 128.958 221.408 129.127 221.467 129.322C221.532 129.511 221.564 129.71 221.564 129.918C221.564 130.25 221.486 130.572 221.33 130.885C221.18 131.197 220.975 131.474 220.715 131.715C220.461 131.949 220.168 132.128 219.836 132.252C219.504 132.369 219.165 132.395 218.82 132.33C218.827 132.519 218.889 132.672 219.006 132.789C219.13 132.9 219.276 132.984 219.445 133.043C219.615 133.102 219.79 133.141 219.973 133.16C220.155 133.173 220.318 133.18 220.461 133.18C220.611 133.18 220.751 133.167 220.881 133.141C221.011 133.115 221.141 133.085 221.271 133.053C221.402 133.02 221.532 132.991 221.662 132.965C221.799 132.939 221.942 132.926 222.092 132.926C222.15 132.926 222.209 132.929 222.268 132.936C222.326 132.942 222.382 132.958 222.434 132.984C222.486 133.004 222.528 133.04 222.561 133.092C222.593 133.137 222.609 133.196 222.609 133.268C222.609 133.391 222.564 133.495 222.473 133.58C222.382 133.658 222.264 133.727 222.121 133.785C221.984 133.844 221.831 133.889 221.662 133.922C221.493 133.948 221.327 133.971 221.164 133.99C221.008 134.003 220.861 134.01 220.725 134.01C220.594 134.016 220.497 134.02 220.432 134.02C220.015 134.02 219.641 133.954 219.309 133.824C218.977 133.688 218.697 133.502 218.469 133.268C218.241 133.027 218.065 132.74 217.941 132.408C217.824 132.07 217.766 131.695 217.766 131.285ZM218.801 130.65C218.801 130.878 218.83 131.044 218.889 131.148C218.954 131.253 219.107 131.305 219.348 131.305C219.517 131.305 219.683 131.275 219.846 131.217C220.008 131.152 220.155 131.064 220.285 130.953C220.422 130.842 220.529 130.712 220.607 130.562C220.686 130.413 220.725 130.25 220.725 130.074C220.725 129.977 220.715 129.876 220.695 129.771C220.682 129.667 220.65 129.573 220.598 129.488C220.546 129.397 220.477 129.326 220.393 129.273C220.314 129.215 220.21 129.186 220.08 129.186C219.885 129.186 219.706 129.231 219.543 129.322C219.387 129.407 219.253 129.521 219.143 129.664C219.032 129.801 218.947 129.957 218.889 130.133C218.83 130.302 218.801 130.475 218.801 130.65ZM223.049 128.951C223.049 128.893 223.049 128.834 223.049 128.775C223.055 128.71 223.068 128.652 223.088 128.6C223.114 128.541 223.146 128.499 223.186 128.473C223.231 128.44 223.296 128.424 223.381 128.424C223.387 128.424 223.394 128.424 223.4 128.424C223.413 128.424 223.426 128.424 223.439 128.424C223.459 128.43 223.475 128.434 223.488 128.434C223.612 128.603 223.719 128.821 223.811 129.088C223.902 129.348 223.99 129.628 224.074 129.928C224.159 130.221 224.25 130.52 224.348 130.826C224.445 131.126 224.572 131.396 224.729 131.637C224.885 131.878 225.077 132.07 225.305 132.213C225.533 132.356 225.816 132.418 226.154 132.398C226.304 132.398 226.402 132.317 226.447 132.154C226.493 131.992 226.516 131.783 226.516 131.529C226.522 131.275 226.516 130.995 226.496 130.689C226.483 130.383 226.483 130.094 226.496 129.82C226.516 129.54 226.564 129.296 226.643 129.088C226.727 128.88 226.87 128.74 227.072 128.668C227.157 128.837 227.225 129.104 227.277 129.469C227.336 129.827 227.378 130.243 227.404 130.719C227.43 131.188 227.443 131.699 227.443 132.252C227.443 132.799 227.43 133.346 227.404 133.893C227.378 134.433 227.339 134.954 227.287 135.455C227.235 135.956 227.176 136.396 227.111 136.773C227.046 137.151 226.968 137.447 226.877 137.662C226.792 137.883 226.701 137.978 226.604 137.945C226.467 137.815 226.359 137.646 226.281 137.438C226.21 137.229 226.158 136.998 226.125 136.744C226.099 136.49 226.089 136.22 226.096 135.934C226.102 135.654 226.112 135.37 226.125 135.084C226.145 134.798 226.164 134.518 226.184 134.244C226.21 133.971 226.223 133.72 226.223 133.492C225.988 133.512 225.747 133.476 225.5 133.385C225.259 133.294 225.021 133.154 224.787 132.965C224.553 132.77 224.328 132.535 224.113 132.262C223.905 131.988 223.719 131.679 223.557 131.334C223.4 130.989 223.277 130.618 223.186 130.221C223.094 129.817 223.049 129.394 223.049 128.951ZM228.576 130.826C228.576 130.807 228.579 130.771 228.586 130.719C228.592 130.66 228.596 130.628 228.596 130.621C228.7 130.621 228.84 130.615 229.016 130.602C229.198 130.582 229.396 130.566 229.611 130.553C229.826 130.533 230.048 130.514 230.275 130.494C230.51 130.475 230.731 130.462 230.939 130.455C231.148 130.449 231.34 130.445 231.516 130.445C231.691 130.445 231.828 130.455 231.926 130.475C232.043 130.475 232.124 130.488 232.17 130.514C232.222 130.54 232.248 130.628 232.248 130.777C232.053 130.908 231.809 131.005 231.516 131.07C231.223 131.129 230.923 131.171 230.617 131.197C230.311 131.223 230.012 131.236 229.719 131.236C229.432 131.236 229.198 131.24 229.016 131.246C228.84 131.259 228.723 131.223 228.664 131.139C228.605 131.054 228.576 130.95 228.576 130.826ZM232.951 126.285C232.951 126.083 232.987 125.917 233.059 125.787C233.137 125.657 233.241 125.553 233.371 125.475C233.501 125.39 233.645 125.328 233.801 125.289C233.964 125.25 234.13 125.224 234.299 125.211C234.475 125.191 234.644 125.185 234.807 125.191C234.969 125.191 235.119 125.191 235.256 125.191C235.523 125.191 235.79 125.217 236.057 125.27C236.324 125.322 236.558 125.413 236.76 125.543C236.968 125.673 237.137 125.849 237.268 126.07C237.398 126.285 237.463 126.555 237.463 126.881C237.463 127.167 237.404 127.454 237.287 127.74C237.176 128.02 237.03 128.29 236.848 128.551C236.672 128.805 236.47 129.039 236.242 129.254C236.014 129.462 235.786 129.641 235.559 129.791C235.337 129.941 235.122 130.058 234.914 130.143C234.712 130.227 234.543 130.26 234.406 130.24C234.328 130.494 234.279 130.768 234.26 131.061C234.247 131.347 234.243 131.63 234.25 131.91C234.257 132.184 234.266 132.447 234.279 132.701C234.292 132.949 234.279 133.163 234.24 133.346C234.208 133.521 234.143 133.655 234.045 133.746C233.947 133.831 233.798 133.857 233.596 133.824C233.537 133.362 233.492 132.893 233.459 132.418C233.433 131.943 233.41 131.471 233.391 131.002C233.371 130.533 233.352 130.077 233.332 129.635C233.319 129.186 233.296 128.759 233.264 128.355C233.238 127.952 233.199 127.574 233.146 127.223C233.094 126.871 233.029 126.559 232.951 126.285ZM235.363 126.031C235.266 126.031 235.145 126.035 235.002 126.041C234.859 126.048 234.719 126.07 234.582 126.109C234.452 126.142 234.341 126.204 234.25 126.295C234.159 126.38 234.113 126.503 234.113 126.666V129.225C234.38 129.225 234.663 129.153 234.963 129.01C235.262 128.867 235.536 128.684 235.783 128.463C236.031 128.242 236.236 127.991 236.398 127.711C236.561 127.431 236.643 127.154 236.643 126.881C236.643 126.679 236.604 126.523 236.525 126.412C236.454 126.301 236.356 126.217 236.232 126.158C236.115 126.1 235.982 126.064 235.832 126.051C235.682 126.038 235.526 126.031 235.363 126.031ZM238.146 127.652C238.146 127.581 238.153 127.493 238.166 127.389C238.186 127.278 238.215 127.174 238.254 127.076C238.299 126.979 238.355 126.897 238.42 126.832C238.485 126.76 238.57 126.725 238.674 126.725C238.68 126.725 238.697 126.728 238.723 126.734C238.749 126.741 238.765 126.744 238.771 126.744C238.882 127.148 238.947 127.548 238.967 127.945C238.986 128.342 238.98 128.73 238.947 129.107C238.915 129.479 238.866 129.84 238.801 130.191C238.736 130.536 238.68 130.855 238.635 131.148C238.596 131.441 238.57 131.705 238.557 131.939C238.55 132.174 238.586 132.372 238.664 132.535C238.651 132.431 238.641 132.307 238.635 132.164C238.635 132.014 238.648 131.861 238.674 131.705C238.706 131.549 238.755 131.393 238.82 131.236C238.892 131.08 238.993 130.94 239.123 130.816C239.253 130.693 239.419 130.595 239.621 130.523C239.829 130.452 240.087 130.416 240.393 130.416C240.712 130.416 240.985 130.471 241.213 130.582C241.447 130.693 241.639 130.846 241.789 131.041C241.939 131.23 242.049 131.454 242.121 131.715C242.199 131.969 242.238 132.242 242.238 132.535C242.238 132.672 242.235 132.828 242.229 133.004C242.229 133.173 242.206 133.333 242.16 133.482C242.121 133.626 242.046 133.749 241.936 133.854C241.831 133.951 241.675 134 241.467 134C241.467 133.896 241.473 133.756 241.486 133.58C241.499 133.398 241.506 133.206 241.506 133.004C241.512 132.802 241.506 132.597 241.486 132.389C241.473 132.18 241.431 131.995 241.359 131.832C241.288 131.663 241.187 131.526 241.057 131.422C240.933 131.311 240.76 131.256 240.539 131.256C240.461 131.256 240.363 131.262 240.246 131.275C240.135 131.282 240.021 131.311 239.904 131.363C239.787 131.415 239.673 131.497 239.562 131.607C239.452 131.712 239.364 131.858 239.299 132.047C239.234 132.229 239.195 132.464 239.182 132.75C239.175 133.03 239.211 133.375 239.289 133.785C239.243 133.902 239.185 133.971 239.113 133.99C239.048 134.01 238.964 134.02 238.859 134.02C238.651 134.02 238.479 133.948 238.342 133.805C238.212 133.655 238.111 133.456 238.039 133.209C237.967 132.962 237.919 132.675 237.893 132.35C237.873 132.024 237.867 131.686 237.873 131.334C237.88 130.976 237.896 130.615 237.922 130.25C237.954 129.879 237.984 129.531 238.01 129.205C238.042 128.873 238.072 128.574 238.098 128.307C238.13 128.033 238.146 127.815 238.146 127.652ZM242.629 129.898C242.629 129.84 242.632 129.781 242.639 129.723C242.645 129.658 242.658 129.602 242.678 129.557C242.697 129.505 242.727 129.462 242.766 129.43C242.811 129.397 242.873 129.381 242.951 129.381C243.016 129.381 243.088 129.433 243.166 129.537C243.251 129.635 243.335 129.762 243.42 129.918C243.505 130.068 243.586 130.234 243.664 130.416C243.749 130.598 243.82 130.768 243.879 130.924C243.944 131.074 243.996 131.204 244.035 131.314C244.074 131.425 244.097 131.484 244.104 131.49C244.188 131.262 244.283 131.015 244.387 130.748C244.491 130.481 244.618 130.234 244.768 130.006C244.924 129.771 245.106 129.576 245.314 129.42C245.529 129.264 245.79 129.186 246.096 129.186C246.252 129.186 246.398 129.212 246.535 129.264C246.678 129.309 246.802 129.381 246.906 129.479C247.017 129.57 247.105 129.68 247.17 129.811C247.235 129.941 247.268 130.09 247.268 130.26C247.268 130.403 247.209 130.504 247.092 130.562C246.981 130.621 246.854 130.65 246.711 130.65H246.613L246.193 130.23C246.18 130.23 246.171 130.227 246.164 130.221C246.151 130.221 246.138 130.221 246.125 130.221C246.118 130.214 246.109 130.211 246.096 130.211C245.868 130.211 245.689 130.276 245.559 130.406C245.435 130.53 245.34 130.686 245.275 130.875C245.21 131.057 245.168 131.253 245.148 131.461C245.135 131.663 245.129 131.848 245.129 132.018C245.129 132.148 245.142 132.281 245.168 132.418C245.194 132.548 245.223 132.678 245.256 132.809C245.288 132.932 245.318 133.062 245.344 133.199C245.37 133.329 245.383 133.466 245.383 133.609C245.383 133.883 245.236 134.02 244.943 134.02C244.781 134.02 244.611 133.935 244.436 133.766C244.26 133.59 244.084 133.368 243.908 133.102C243.739 132.835 243.576 132.542 243.42 132.223C243.264 131.897 243.127 131.581 243.01 131.275C242.893 130.969 242.798 130.693 242.727 130.445C242.661 130.198 242.629 130.016 242.629 129.898ZM251.818 132.74C251.571 132.91 251.356 133.062 251.174 133.199C250.998 133.329 250.826 133.44 250.656 133.531C250.487 133.622 250.305 133.691 250.109 133.736C249.921 133.782 249.686 133.805 249.406 133.805C248.801 133.805 248.352 133.645 248.059 133.326C247.766 133.001 247.619 132.519 247.619 131.881C247.619 131.633 247.652 131.376 247.717 131.109C247.782 130.842 247.876 130.579 248 130.318C248.13 130.051 248.283 129.801 248.459 129.566C248.635 129.326 248.833 129.114 249.055 128.932C249.276 128.749 249.51 128.606 249.758 128.502C250.012 128.391 250.279 128.336 250.559 128.336C251.027 128.382 251.395 128.499 251.662 128.688C251.929 128.87 252.131 129.107 252.268 129.4C252.404 129.687 252.499 130.009 252.551 130.367C252.603 130.719 252.642 131.083 252.668 131.461C252.701 131.839 252.74 132.216 252.785 132.594C252.831 132.971 252.925 133.32 253.068 133.639C252.984 133.854 252.902 134.003 252.824 134.088C252.753 134.179 252.671 134.195 252.58 134.137C252.489 134.078 252.382 133.935 252.258 133.707C252.141 133.479 251.994 133.157 251.818 132.74ZM248.449 131.9C248.449 132.271 248.518 132.545 248.654 132.721C248.798 132.89 249.048 132.975 249.406 132.975C249.673 132.975 249.927 132.929 250.168 132.838C250.415 132.74 250.63 132.61 250.812 132.447C250.995 132.278 251.141 132.076 251.252 131.842C251.363 131.607 251.418 131.347 251.418 131.061C251.418 130.943 251.421 130.781 251.428 130.572C251.434 130.357 251.421 130.146 251.389 129.938C251.356 129.729 251.294 129.55 251.203 129.4C251.112 129.244 250.975 129.166 250.793 129.166C250.454 129.166 250.142 129.254 249.855 129.43C249.569 129.599 249.322 129.817 249.113 130.084C248.905 130.351 248.742 130.647 248.625 130.973C248.508 131.292 248.449 131.601 248.449 131.9ZM255.559 133.561C255.663 133.489 255.786 133.398 255.93 133.287C256.079 133.17 256.229 133.046 256.379 132.916C256.529 132.786 256.669 132.649 256.799 132.506C256.929 132.363 257.03 132.226 257.102 132.096C257.18 131.959 257.219 131.832 257.219 131.715C257.219 131.598 257.16 131.5 257.043 131.422C256.835 131.422 256.607 131.432 256.359 131.451C256.112 131.464 255.865 131.471 255.617 131.471C255.37 131.464 255.129 131.441 254.895 131.402C254.667 131.363 254.462 131.292 254.279 131.188C254.097 131.083 253.951 130.937 253.84 130.748C253.736 130.553 253.684 130.305 253.684 130.006C253.684 129.654 253.749 129.339 253.879 129.059C254.016 128.772 254.195 128.521 254.416 128.307C254.637 128.085 254.885 127.893 255.158 127.73C255.438 127.561 255.718 127.418 255.998 127.301C256.167 127.346 256.324 127.428 256.467 127.545C256.61 127.662 256.734 127.792 256.838 127.936C256.792 128.079 256.701 128.189 256.564 128.268C256.434 128.346 256.281 128.414 256.105 128.473C255.936 128.531 255.757 128.593 255.568 128.658C255.38 128.723 255.207 128.811 255.051 128.922C254.901 129.026 254.774 129.166 254.67 129.342C254.566 129.511 254.514 129.736 254.514 130.016C254.514 130.224 254.566 130.377 254.67 130.475C254.774 130.572 254.911 130.641 255.08 130.68C255.249 130.712 255.441 130.725 255.656 130.719C255.871 130.706 256.089 130.689 256.311 130.67C256.538 130.65 256.76 130.641 256.975 130.641C257.189 130.634 257.382 130.66 257.551 130.719C257.72 130.771 257.854 130.859 257.951 130.982C258.055 131.106 258.107 131.288 258.107 131.529C258.107 131.633 258.072 131.767 258 131.93C257.935 132.092 257.844 132.268 257.727 132.457C257.616 132.639 257.482 132.822 257.326 133.004C257.176 133.186 257.017 133.352 256.848 133.502C256.685 133.645 256.519 133.766 256.35 133.863C256.187 133.954 256.034 134 255.891 134C255.754 134 255.663 133.951 255.617 133.854C255.578 133.756 255.559 133.658 255.559 133.561ZM258.498 131.285C258.498 130.934 258.54 130.582 258.625 130.23C258.71 129.879 258.843 129.563 259.025 129.283C259.214 129.003 259.455 128.775 259.748 128.6C260.048 128.424 260.409 128.336 260.832 128.336C261.073 128.336 261.285 128.382 261.467 128.473C261.649 128.557 261.802 128.671 261.926 128.814C262.049 128.958 262.141 129.127 262.199 129.322C262.264 129.511 262.297 129.71 262.297 129.918C262.297 130.25 262.219 130.572 262.062 130.885C261.913 131.197 261.708 131.474 261.447 131.715C261.193 131.949 260.9 132.128 260.568 132.252C260.236 132.369 259.898 132.395 259.553 132.33C259.559 132.519 259.621 132.672 259.738 132.789C259.862 132.9 260.008 132.984 260.178 133.043C260.347 133.102 260.523 133.141 260.705 133.16C260.887 133.173 261.05 133.18 261.193 133.18C261.343 133.18 261.483 133.167 261.613 133.141C261.743 133.115 261.874 133.085 262.004 133.053C262.134 133.02 262.264 132.991 262.395 132.965C262.531 132.939 262.674 132.926 262.824 132.926C262.883 132.926 262.941 132.929 263 132.936C263.059 132.942 263.114 132.958 263.166 132.984C263.218 133.004 263.26 133.04 263.293 133.092C263.326 133.137 263.342 133.196 263.342 133.268C263.342 133.391 263.296 133.495 263.205 133.58C263.114 133.658 262.997 133.727 262.854 133.785C262.717 133.844 262.564 133.889 262.395 133.922C262.225 133.948 262.059 133.971 261.896 133.99C261.74 134.003 261.594 134.01 261.457 134.01C261.327 134.016 261.229 134.02 261.164 134.02C260.747 134.02 260.373 133.954 260.041 133.824C259.709 133.688 259.429 133.502 259.201 133.268C258.973 133.027 258.798 132.74 258.674 132.408C258.557 132.07 258.498 131.695 258.498 131.285ZM259.533 130.65C259.533 130.878 259.562 131.044 259.621 131.148C259.686 131.253 259.839 131.305 260.08 131.305C260.249 131.305 260.415 131.275 260.578 131.217C260.741 131.152 260.887 131.064 261.018 130.953C261.154 130.842 261.262 130.712 261.34 130.562C261.418 130.413 261.457 130.25 261.457 130.074C261.457 129.977 261.447 129.876 261.428 129.771C261.415 129.667 261.382 129.573 261.33 129.488C261.278 129.397 261.21 129.326 261.125 129.273C261.047 129.215 260.943 129.186 260.812 129.186C260.617 129.186 260.438 129.231 260.275 129.322C260.119 129.407 259.986 129.521 259.875 129.664C259.764 129.801 259.68 129.957 259.621 130.133C259.562 130.302 259.533 130.475 259.533 130.65Z" fill="white"/>
<rect x="85.5" y="235" width="80" height="28" rx="14" fill="#599DB0"/>
<path d="M95.5605 250.607C95.5605 250.542 95.5443 250.412 95.5117 250.217C95.4857 250.015 95.4368 249.748 95.3652 249.416C94.9551 249.54 94.6263 249.592 94.3789 249.572C94.138 249.546 93.9688 249.484 93.8711 249.387C93.7734 249.289 93.7474 249.175 93.793 249.045C93.8385 248.915 93.9395 248.807 94.0957 248.723C94.2585 248.632 94.4733 248.583 94.7402 248.576C95.0137 248.563 95.3327 248.622 95.6973 248.752C95.7233 248.719 95.7428 248.651 95.7559 248.547C95.7754 248.443 95.7949 248.322 95.8145 248.186C95.834 248.049 95.8535 247.906 95.873 247.756C95.8991 247.606 95.9186 247.469 95.9316 247.346C95.9512 247.222 95.9674 247.118 95.9805 247.033C95.9935 246.942 96.0098 246.896 96.0293 246.896C96.0684 246.87 96.1302 246.851 96.2148 246.838C96.2995 246.825 96.3809 246.815 96.459 246.809C96.5632 246.796 96.6706 246.789 96.7812 246.789L96.9082 248.391H97.6406C97.6406 248.378 97.6439 248.322 97.6504 248.225C97.6569 248.127 97.6667 248.01 97.6797 247.873C97.6992 247.73 97.722 247.577 97.748 247.414C97.7806 247.251 97.8197 247.105 97.8652 246.975C97.9108 246.838 97.9629 246.724 98.0215 246.633C98.0866 246.542 98.1647 246.496 98.2559 246.496C98.2819 246.496 98.321 246.499 98.373 246.506C98.4251 246.506 98.474 246.512 98.5195 246.525C98.5651 246.538 98.6042 246.561 98.6367 246.594C98.6758 246.62 98.6953 246.662 98.6953 246.721V248.186C98.7669 248.212 98.8613 248.238 98.9785 248.264C99.1022 248.29 99.2357 248.316 99.3789 248.342C99.5286 248.361 99.6784 248.384 99.8281 248.41C99.9779 248.436 100.115 248.465 100.238 248.498C100.362 248.531 100.463 248.57 100.541 248.615C100.619 248.654 100.658 248.7 100.658 248.752C100.613 248.889 100.518 248.99 100.375 249.055C100.238 249.113 100.082 249.162 99.9062 249.201C99.737 249.234 99.5645 249.266 99.3887 249.299C99.2194 249.325 99.0794 249.367 98.9688 249.426C98.8646 249.484 98.8027 249.569 98.7832 249.68C98.7702 249.79 98.8385 249.947 98.9883 250.148C99.0599 250.148 99.151 250.142 99.2617 250.129C99.3724 250.116 99.4863 250.103 99.6035 250.09C99.7207 250.077 99.8379 250.07 99.9551 250.07C100.072 250.07 100.176 250.083 100.268 250.109C100.359 250.135 100.434 250.181 100.492 250.246C100.551 250.311 100.58 250.402 100.58 250.52C100.58 250.624 100.515 250.708 100.385 250.773C100.261 250.839 100.115 250.894 99.9453 250.939C99.776 250.985 99.61 251.021 99.4473 251.047C99.291 251.073 99.1771 251.096 99.1055 251.115C99.125 251.232 99.1478 251.376 99.1738 251.545C99.1999 251.708 99.2064 251.867 99.1934 252.023C99.1868 252.18 99.1478 252.316 99.0762 252.434C99.0046 252.551 98.8776 252.609 98.6953 252.609C98.5586 252.564 98.4577 252.495 98.3926 252.404C98.334 252.307 98.2852 252.202 98.2461 252.092C98.2135 251.975 98.1842 251.864 98.1582 251.76C98.1322 251.649 98.0866 251.558 98.0215 251.486C97.9564 251.415 97.8587 251.376 97.7285 251.369C97.5983 251.356 97.416 251.389 97.1816 251.467C97.1816 251.584 97.1816 251.721 97.1816 251.877C97.1816 252.027 97.1654 252.173 97.1328 252.316C97.1068 252.453 97.0514 252.57 96.9668 252.668C96.8822 252.759 96.7585 252.805 96.5957 252.805C96.5371 252.805 96.4688 252.756 96.3906 252.658C96.319 252.561 96.2409 252.443 96.1562 252.307C96.0781 252.163 95.9967 252.023 95.9121 251.887C95.8275 251.75 95.7461 251.639 95.668 251.555C95.2773 251.516 94.9746 251.473 94.7598 251.428C94.5514 251.376 94.4082 251.324 94.3301 251.271C94.252 251.219 94.2292 251.167 94.2617 251.115C94.2943 251.057 94.3529 251.001 94.4375 250.949C94.6523 250.839 95.0267 250.725 95.5605 250.607ZM96.8008 250.061C96.8008 250.119 96.8171 250.165 96.8496 250.197C96.8822 250.23 96.9212 250.256 96.9668 250.275C97.0124 250.288 97.0579 250.298 97.1035 250.305C97.1556 250.305 97.1979 250.305 97.2305 250.305C97.2826 250.305 97.3444 250.301 97.416 250.295C97.4876 250.282 97.556 250.266 97.6211 250.246C97.6927 250.227 97.7513 250.197 97.7969 250.158C97.849 250.113 97.875 250.054 97.875 249.982C97.875 249.839 97.8392 249.709 97.7676 249.592C97.7025 249.475 97.5983 249.416 97.4551 249.416C97.377 249.416 97.2988 249.436 97.2207 249.475C97.1426 249.507 97.071 249.556 97.0059 249.621C96.9473 249.68 96.8984 249.748 96.8594 249.826C96.8203 249.904 96.8008 249.982 96.8008 250.061ZM103.715 247.551C103.461 247.499 103.207 247.382 102.953 247.199C102.699 247.017 102.455 246.796 102.221 246.535C101.993 246.275 101.775 245.985 101.566 245.666C101.365 245.347 101.189 245.025 101.039 244.699C100.889 244.374 100.772 244.058 100.688 243.752C100.603 243.446 100.561 243.173 100.561 242.932C100.561 242.899 100.561 242.86 100.561 242.814C100.567 242.769 100.574 242.727 100.58 242.688C100.593 242.642 100.616 242.606 100.648 242.58C100.681 242.548 100.723 242.531 100.775 242.531C100.938 242.531 101.078 242.59 101.195 242.707C101.312 242.818 101.42 242.967 101.518 243.156C101.615 243.345 101.706 243.56 101.791 243.801C101.876 244.042 101.96 244.286 102.045 244.533C102.136 244.781 102.23 245.025 102.328 245.266C102.426 245.507 102.533 245.721 102.65 245.91C102.774 246.099 102.914 246.252 103.07 246.369C103.227 246.48 103.406 246.535 103.607 246.535C103.62 246.535 103.637 246.532 103.656 246.525C103.682 246.519 103.702 246.516 103.715 246.516C103.897 246.353 104.06 246.138 104.203 245.871C104.353 245.598 104.49 245.305 104.613 244.992C104.737 244.68 104.857 244.357 104.975 244.025C105.092 243.693 105.212 243.384 105.336 243.098C105.466 242.811 105.6 242.561 105.736 242.346C105.88 242.131 106.042 241.981 106.225 241.896L106.645 242.326C106.697 242.378 106.703 242.486 106.664 242.648C106.632 242.805 106.57 243.003 106.479 243.244C106.394 243.479 106.286 243.742 106.156 244.035C106.026 244.322 105.889 244.621 105.746 244.934C105.603 245.246 105.46 245.559 105.316 245.871C105.173 246.177 105.043 246.467 104.926 246.74C104.815 247.014 104.724 247.258 104.652 247.473C104.581 247.688 104.545 247.857 104.545 247.98C104.545 248.371 104.6 248.749 104.711 249.113C104.828 249.478 104.952 249.842 105.082 250.207C105.212 250.565 105.333 250.926 105.443 251.291C105.554 251.649 105.609 252.017 105.609 252.395C105.609 252.447 105.609 252.515 105.609 252.6C105.609 252.678 105.596 252.753 105.57 252.824C105.551 252.896 105.508 252.951 105.443 252.99C105.385 253.029 105.297 253.033 105.18 253C104.939 252.648 104.727 252.251 104.545 251.809C104.363 251.359 104.206 250.894 104.076 250.412C103.946 249.93 103.848 249.445 103.783 248.957C103.725 248.462 103.702 247.993 103.715 247.551ZM106.84 251.018C106.84 250.614 106.934 250.24 107.123 249.895C107.312 249.543 107.559 249.243 107.865 248.996C108.178 248.742 108.526 248.544 108.91 248.4C109.301 248.257 109.695 248.186 110.092 248.186C110.313 248.186 110.508 248.257 110.678 248.4C110.854 248.544 111 248.719 111.117 248.928C111.234 249.13 111.322 249.344 111.381 249.572C111.446 249.8 111.479 249.999 111.479 250.168C111.479 250.533 111.391 250.887 111.215 251.232C111.039 251.571 110.811 251.874 110.531 252.141C110.251 252.401 109.936 252.613 109.584 252.775C109.232 252.938 108.881 253.02 108.529 253.02C108.217 253.02 107.953 252.967 107.738 252.863C107.523 252.753 107.351 252.609 107.221 252.434C107.09 252.251 106.993 252.04 106.928 251.799C106.869 251.551 106.84 251.291 106.84 251.018ZM107.67 251.115C107.67 251.285 107.683 251.434 107.709 251.564C107.742 251.688 107.794 251.796 107.865 251.887C107.943 251.978 108.044 252.049 108.168 252.102C108.292 252.147 108.445 252.17 108.627 252.17C108.868 252.17 109.109 252.105 109.35 251.975C109.59 251.838 109.805 251.669 109.994 251.467C110.189 251.258 110.346 251.031 110.463 250.783C110.58 250.536 110.639 250.295 110.639 250.061C110.639 249.956 110.629 249.842 110.609 249.719C110.59 249.595 110.557 249.481 110.512 249.377C110.466 249.273 110.401 249.185 110.316 249.113C110.232 249.042 110.124 249.006 109.994 249.006C109.877 249.006 109.737 249.045 109.574 249.123C109.418 249.201 109.252 249.302 109.076 249.426C108.907 249.549 108.738 249.689 108.568 249.846C108.406 250.002 108.256 250.158 108.119 250.314C107.982 250.471 107.872 250.62 107.787 250.764C107.709 250.907 107.67 251.024 107.67 251.115ZM111.859 249.016C111.859 248.977 111.859 248.908 111.859 248.811C111.866 248.706 111.869 248.599 111.869 248.488C111.869 248.378 111.869 248.277 111.869 248.186C111.876 248.088 111.879 248.02 111.879 247.98C111.924 247.902 111.977 247.827 112.035 247.756C112.1 247.678 112.165 247.626 112.23 247.6C112.302 247.567 112.377 247.561 112.455 247.58C112.54 247.6 112.624 247.665 112.709 247.775V247.854V247.98C112.702 248.013 112.689 248.091 112.67 248.215C112.65 248.332 112.628 248.462 112.602 248.605C112.576 248.749 112.549 248.882 112.523 249.006C112.504 249.123 112.494 249.198 112.494 249.23C112.494 249.354 112.507 249.51 112.533 249.699C112.559 249.882 112.595 250.074 112.641 250.275C112.693 250.477 112.755 250.679 112.826 250.881C112.904 251.083 112.995 251.265 113.1 251.428C113.204 251.584 113.318 251.714 113.441 251.818C113.572 251.923 113.721 251.975 113.891 251.975C114.099 251.975 114.281 251.919 114.438 251.809C114.6 251.698 114.74 251.555 114.857 251.379C114.975 251.203 115.069 251.005 115.141 250.783C115.219 250.562 115.281 250.34 115.326 250.119C115.372 249.891 115.404 249.673 115.424 249.465C115.443 249.257 115.453 249.074 115.453 248.918C115.453 248.762 115.44 248.615 115.414 248.479C115.395 248.335 115.368 248.195 115.336 248.059C115.303 247.922 115.274 247.788 115.248 247.658C115.229 247.521 115.219 247.385 115.219 247.248C115.219 247.124 115.261 247.036 115.346 246.984C115.437 246.932 115.538 246.906 115.648 246.906C115.785 246.906 115.896 246.949 115.98 247.033C116.065 247.111 116.13 247.212 116.176 247.336C116.228 247.46 116.26 247.603 116.273 247.766C116.293 247.922 116.303 248.078 116.303 248.234C116.303 248.391 116.299 248.54 116.293 248.684C116.286 248.82 116.283 248.931 116.283 249.016C116.283 249.237 116.267 249.488 116.234 249.768C116.202 250.048 116.143 250.337 116.059 250.637C115.98 250.93 115.88 251.219 115.756 251.506C115.639 251.792 115.492 252.049 115.316 252.277C115.147 252.499 114.949 252.678 114.721 252.814C114.499 252.951 114.249 253.02 113.969 253.02C113.676 253.02 113.419 252.951 113.197 252.814C112.976 252.671 112.787 252.486 112.631 252.258C112.481 252.023 112.354 251.76 112.25 251.467C112.146 251.174 112.064 250.881 112.006 250.588C111.954 250.295 111.915 250.012 111.889 249.738C111.869 249.458 111.859 249.217 111.859 249.016ZM116.879 248.898C116.879 248.84 116.882 248.781 116.889 248.723C116.895 248.658 116.908 248.602 116.928 248.557C116.947 248.505 116.977 248.462 117.016 248.43C117.061 248.397 117.123 248.381 117.201 248.381C117.266 248.381 117.338 248.433 117.416 248.537C117.501 248.635 117.585 248.762 117.67 248.918C117.755 249.068 117.836 249.234 117.914 249.416C117.999 249.598 118.07 249.768 118.129 249.924C118.194 250.074 118.246 250.204 118.285 250.314C118.324 250.425 118.347 250.484 118.354 250.49C118.438 250.262 118.533 250.015 118.637 249.748C118.741 249.481 118.868 249.234 119.018 249.006C119.174 248.771 119.356 248.576 119.564 248.42C119.779 248.264 120.04 248.186 120.346 248.186C120.502 248.186 120.648 248.212 120.785 248.264C120.928 248.309 121.052 248.381 121.156 248.479C121.267 248.57 121.355 248.68 121.42 248.811C121.485 248.941 121.518 249.09 121.518 249.26C121.518 249.403 121.459 249.504 121.342 249.562C121.231 249.621 121.104 249.65 120.961 249.65H120.863L120.443 249.23C120.43 249.23 120.421 249.227 120.414 249.221C120.401 249.221 120.388 249.221 120.375 249.221C120.368 249.214 120.359 249.211 120.346 249.211C120.118 249.211 119.939 249.276 119.809 249.406C119.685 249.53 119.59 249.686 119.525 249.875C119.46 250.057 119.418 250.253 119.398 250.461C119.385 250.663 119.379 250.848 119.379 251.018C119.379 251.148 119.392 251.281 119.418 251.418C119.444 251.548 119.473 251.678 119.506 251.809C119.538 251.932 119.568 252.062 119.594 252.199C119.62 252.329 119.633 252.466 119.633 252.609C119.633 252.883 119.486 253.02 119.193 253.02C119.031 253.02 118.861 252.935 118.686 252.766C118.51 252.59 118.334 252.368 118.158 252.102C117.989 251.835 117.826 251.542 117.67 251.223C117.514 250.897 117.377 250.581 117.26 250.275C117.143 249.969 117.048 249.693 116.977 249.445C116.911 249.198 116.879 249.016 116.879 248.898ZM126.176 247.121C126.176 247.017 126.195 246.923 126.234 246.838C126.28 246.747 126.365 246.701 126.488 246.701C126.592 246.701 126.693 246.809 126.791 247.023C126.895 247.238 126.999 247.515 127.104 247.854C127.214 248.186 127.328 248.553 127.445 248.957C127.562 249.354 127.686 249.742 127.816 250.119C127.947 250.49 128.083 250.826 128.227 251.125C128.37 251.418 128.523 251.623 128.686 251.74C128.842 251.675 128.965 251.561 129.057 251.398C129.154 251.229 129.232 251.031 129.291 250.803C129.35 250.568 129.392 250.318 129.418 250.051C129.451 249.777 129.48 249.507 129.506 249.24C129.538 248.967 129.571 248.703 129.604 248.449C129.636 248.189 129.682 247.961 129.74 247.766C129.805 247.57 129.887 247.414 129.984 247.297C130.082 247.18 130.206 247.121 130.355 247.121C130.447 247.121 130.528 247.131 130.6 247.15C130.671 247.163 130.733 247.229 130.785 247.346C130.811 247.43 130.854 247.554 130.912 247.717C130.971 247.88 131.036 248.068 131.107 248.283C131.186 248.498 131.27 248.729 131.361 248.977C131.459 249.217 131.557 249.455 131.654 249.689C131.758 249.924 131.859 250.148 131.957 250.363C132.055 250.572 132.149 250.751 132.24 250.9C132.253 250.926 132.286 250.969 132.338 251.027C132.396 251.079 132.436 251.109 132.455 251.115L132.875 250.695C132.986 250.585 133.07 250.422 133.129 250.207C133.188 249.986 133.23 249.732 133.256 249.445C133.288 249.159 133.308 248.853 133.314 248.527C133.327 248.195 133.337 247.867 133.344 247.541C133.35 247.215 133.363 246.9 133.383 246.594C133.402 246.288 133.435 246.021 133.48 245.793C133.526 245.559 133.591 245.373 133.676 245.236C133.76 245.1 133.878 245.031 134.027 245.031C134.034 245.031 134.04 245.035 134.047 245.041C134.06 245.041 134.073 245.041 134.086 245.041C134.105 245.048 134.118 245.051 134.125 245.051C134.132 245.051 134.148 245.064 134.174 245.09C134.2 245.109 134.223 245.129 134.242 245.148C134.268 245.168 134.288 245.188 134.301 245.207C134.32 245.227 134.333 245.243 134.34 245.256C134.34 245.301 134.34 245.383 134.34 245.5C134.346 245.617 134.35 245.744 134.35 245.881C134.35 246.018 134.35 246.148 134.35 246.271C134.356 246.389 134.359 246.47 134.359 246.516C134.359 246.646 134.356 246.825 134.35 247.053C134.35 247.281 134.34 247.541 134.32 247.834C134.307 248.12 134.285 248.43 134.252 248.762C134.226 249.087 134.184 249.413 134.125 249.738C134.066 250.057 133.992 250.367 133.9 250.666C133.816 250.959 133.708 251.219 133.578 251.447C133.454 251.669 133.308 251.848 133.139 251.984C132.976 252.115 132.781 252.18 132.553 252.18C132.331 252.18 132.143 252.108 131.986 251.965C131.837 251.815 131.706 251.633 131.596 251.418C131.485 251.197 131.391 250.959 131.312 250.705C131.234 250.445 131.153 250.204 131.068 249.982C130.99 249.761 130.902 249.579 130.805 249.436C130.714 249.286 130.6 249.211 130.463 249.211C130.45 249.211 130.43 249.214 130.404 249.221C130.385 249.227 130.368 249.23 130.355 249.23C130.349 249.257 130.329 249.37 130.297 249.572C130.264 249.774 130.219 250.015 130.16 250.295C130.102 250.568 130.03 250.865 129.945 251.184C129.861 251.503 129.763 251.796 129.652 252.062C129.548 252.329 129.431 252.554 129.301 252.736C129.177 252.912 129.04 253 128.891 253C128.585 253 128.305 252.886 128.051 252.658C127.797 252.424 127.569 252.124 127.367 251.76C127.172 251.389 126.999 250.979 126.85 250.529C126.7 250.08 126.573 249.641 126.469 249.211C126.371 248.775 126.296 248.371 126.244 248C126.199 247.622 126.176 247.329 126.176 247.121ZM139.145 251.74C138.897 251.91 138.682 252.062 138.5 252.199C138.324 252.329 138.152 252.44 137.982 252.531C137.813 252.622 137.631 252.691 137.436 252.736C137.247 252.782 137.012 252.805 136.732 252.805C136.127 252.805 135.678 252.645 135.385 252.326C135.092 252.001 134.945 251.519 134.945 250.881C134.945 250.633 134.978 250.376 135.043 250.109C135.108 249.842 135.202 249.579 135.326 249.318C135.456 249.051 135.609 248.801 135.785 248.566C135.961 248.326 136.16 248.114 136.381 247.932C136.602 247.749 136.837 247.606 137.084 247.502C137.338 247.391 137.605 247.336 137.885 247.336C138.354 247.382 138.721 247.499 138.988 247.688C139.255 247.87 139.457 248.107 139.594 248.4C139.73 248.687 139.825 249.009 139.877 249.367C139.929 249.719 139.968 250.083 139.994 250.461C140.027 250.839 140.066 251.216 140.111 251.594C140.157 251.971 140.251 252.32 140.395 252.639C140.31 252.854 140.229 253.003 140.15 253.088C140.079 253.179 139.997 253.195 139.906 253.137C139.815 253.078 139.708 252.935 139.584 252.707C139.467 252.479 139.32 252.157 139.145 251.74ZM135.775 250.9C135.775 251.271 135.844 251.545 135.98 251.721C136.124 251.89 136.374 251.975 136.732 251.975C136.999 251.975 137.253 251.929 137.494 251.838C137.742 251.74 137.956 251.61 138.139 251.447C138.321 251.278 138.467 251.076 138.578 250.842C138.689 250.607 138.744 250.347 138.744 250.061C138.744 249.943 138.747 249.781 138.754 249.572C138.76 249.357 138.747 249.146 138.715 248.938C138.682 248.729 138.62 248.55 138.529 248.4C138.438 248.244 138.301 248.166 138.119 248.166C137.781 248.166 137.468 248.254 137.182 248.43C136.895 248.599 136.648 248.817 136.439 249.084C136.231 249.351 136.068 249.647 135.951 249.973C135.834 250.292 135.775 250.601 135.775 250.9ZM141.244 247.473C141.244 247.284 141.231 247.102 141.205 246.926C141.179 246.743 141.173 246.584 141.186 246.447C141.199 246.304 141.247 246.19 141.332 246.105C141.423 246.021 141.586 245.979 141.82 245.979C141.892 246.128 141.96 246.356 142.025 246.662C142.097 246.968 142.165 247.32 142.23 247.717C142.296 248.114 142.357 248.547 142.416 249.016C142.475 249.478 142.527 249.943 142.572 250.412C142.624 250.881 142.667 251.343 142.699 251.799C142.738 252.248 142.768 252.658 142.787 253.029C142.572 253.173 142.4 253.182 142.27 253.059C142.139 252.935 142.032 252.727 141.947 252.434C141.863 252.134 141.798 251.773 141.752 251.35C141.706 250.92 141.661 250.477 141.615 250.021C141.576 249.559 141.527 249.107 141.469 248.664C141.41 248.215 141.335 247.818 141.244 247.473ZM143.529 247.473C143.529 247.284 143.516 247.102 143.49 246.926C143.464 246.743 143.458 246.584 143.471 246.447C143.484 246.304 143.533 246.19 143.617 246.105C143.708 246.021 143.871 245.979 144.105 245.979C144.177 246.128 144.245 246.356 144.311 246.662C144.382 246.968 144.451 247.32 144.516 247.717C144.581 248.114 144.643 248.547 144.701 249.016C144.76 249.478 144.812 249.943 144.857 250.412C144.91 250.881 144.952 251.343 144.984 251.799C145.023 252.248 145.053 252.658 145.072 253.029C144.857 253.173 144.685 253.182 144.555 253.059C144.424 252.935 144.317 252.727 144.232 252.434C144.148 252.134 144.083 251.773 144.037 251.35C143.992 250.92 143.946 250.477 143.9 250.021C143.861 249.559 143.812 249.107 143.754 248.664C143.695 248.215 143.62 247.818 143.529 247.473ZM145.58 250.285C145.58 249.934 145.622 249.582 145.707 249.23C145.792 248.879 145.925 248.563 146.107 248.283C146.296 248.003 146.537 247.775 146.83 247.6C147.13 247.424 147.491 247.336 147.914 247.336C148.155 247.336 148.367 247.382 148.549 247.473C148.731 247.557 148.884 247.671 149.008 247.814C149.132 247.958 149.223 248.127 149.281 248.322C149.346 248.511 149.379 248.71 149.379 248.918C149.379 249.25 149.301 249.572 149.145 249.885C148.995 250.197 148.79 250.474 148.529 250.715C148.275 250.949 147.982 251.128 147.65 251.252C147.318 251.369 146.98 251.395 146.635 251.33C146.641 251.519 146.703 251.672 146.82 251.789C146.944 251.9 147.09 251.984 147.26 252.043C147.429 252.102 147.605 252.141 147.787 252.16C147.969 252.173 148.132 252.18 148.275 252.18C148.425 252.18 148.565 252.167 148.695 252.141C148.826 252.115 148.956 252.085 149.086 252.053C149.216 252.02 149.346 251.991 149.477 251.965C149.613 251.939 149.757 251.926 149.906 251.926C149.965 251.926 150.023 251.929 150.082 251.936C150.141 251.942 150.196 251.958 150.248 251.984C150.3 252.004 150.342 252.04 150.375 252.092C150.408 252.137 150.424 252.196 150.424 252.268C150.424 252.391 150.378 252.495 150.287 252.58C150.196 252.658 150.079 252.727 149.936 252.785C149.799 252.844 149.646 252.889 149.477 252.922C149.307 252.948 149.141 252.971 148.979 252.99C148.822 253.003 148.676 253.01 148.539 253.01C148.409 253.016 148.311 253.02 148.246 253.02C147.829 253.02 147.455 252.954 147.123 252.824C146.791 252.688 146.511 252.502 146.283 252.268C146.055 252.027 145.88 251.74 145.756 251.408C145.639 251.07 145.58 250.695 145.58 250.285ZM146.615 249.65C146.615 249.878 146.645 250.044 146.703 250.148C146.768 250.253 146.921 250.305 147.162 250.305C147.331 250.305 147.497 250.275 147.66 250.217C147.823 250.152 147.969 250.064 148.1 249.953C148.236 249.842 148.344 249.712 148.422 249.562C148.5 249.413 148.539 249.25 148.539 249.074C148.539 248.977 148.529 248.876 148.51 248.771C148.497 248.667 148.464 248.573 148.412 248.488C148.36 248.397 148.292 248.326 148.207 248.273C148.129 248.215 148.025 248.186 147.895 248.186C147.699 248.186 147.52 248.231 147.357 248.322C147.201 248.407 147.068 248.521 146.957 248.664C146.846 248.801 146.762 248.957 146.703 249.133C146.645 249.302 146.615 249.475 146.615 249.65ZM150.814 248.078C150.814 248.059 150.818 248.042 150.824 248.029C150.824 248.016 150.827 248 150.834 247.98C150.86 247.948 150.899 247.906 150.951 247.854C151.003 247.801 151.036 247.775 151.049 247.775H153.012C153.012 247.704 153.002 247.59 152.982 247.434C152.963 247.277 152.943 247.105 152.924 246.916C152.911 246.727 152.908 246.532 152.914 246.33C152.921 246.122 152.947 245.936 152.992 245.773C153.044 245.604 153.122 245.467 153.227 245.363C153.337 245.253 153.49 245.197 153.686 245.197C153.686 245.855 153.731 246.382 153.822 246.779C153.913 247.176 154.034 247.482 154.184 247.697C154.34 247.912 154.516 248.052 154.711 248.117C154.906 248.182 155.105 248.212 155.307 248.205C155.515 248.192 155.717 248.16 155.912 248.107C156.107 248.055 156.28 248.02 156.43 248C156.586 247.98 156.71 247.997 156.801 248.049C156.892 248.094 156.938 248.208 156.938 248.391C156.938 248.527 156.905 248.625 156.84 248.684C156.781 248.742 156.664 248.788 156.488 248.82C156.436 248.827 156.348 248.84 156.225 248.859C156.107 248.872 155.974 248.885 155.824 248.898C155.674 248.911 155.515 248.928 155.346 248.947C155.176 248.96 155.017 248.973 154.867 248.986C154.717 248.999 154.581 249.009 154.457 249.016C154.333 249.016 154.242 249.016 154.184 249.016C154.184 249.048 154.18 249.104 154.174 249.182C154.167 249.26 154.164 249.312 154.164 249.338C154.164 249.624 154.21 249.904 154.301 250.178C154.392 250.445 154.49 250.712 154.594 250.979C154.704 251.245 154.805 251.512 154.896 251.779C154.988 252.046 155.033 252.323 155.033 252.609C155.033 252.661 155.027 252.717 155.014 252.775C155.007 252.827 154.988 252.876 154.955 252.922C154.929 252.961 154.887 252.99 154.828 253.01C154.776 253.036 154.701 253.033 154.604 253C154.356 252.935 154.171 252.795 154.047 252.58C153.93 252.365 153.842 252.111 153.783 251.818C153.725 251.519 153.686 251.203 153.666 250.871C153.646 250.539 153.614 250.23 153.568 249.943C153.529 249.65 153.464 249.403 153.373 249.201C153.282 248.993 153.135 248.866 152.934 248.82L151.049 248.391C151.023 248.391 150.984 248.365 150.932 248.312C150.88 248.254 150.847 248.212 150.834 248.186C150.827 248.173 150.824 248.156 150.824 248.137C150.818 248.124 150.814 248.104 150.814 248.078Z" fill="white"/>
<rect y="54" width="114" height="28" rx="14" fill="#D4A441"/>
<path d="M10.0605 69.6074C10.0605 69.5423 10.0443 69.4121 10.0117 69.2168C9.98568 69.015 9.93685 68.748 9.86523 68.416C9.45508 68.5397 9.1263 68.5918 8.87891 68.5723C8.63802 68.5462 8.46875 68.4844 8.37109 68.3867C8.27344 68.2891 8.2474 68.1751 8.29297 68.0449C8.33854 67.9147 8.43945 67.8073 8.5957 67.7227C8.75846 67.6315 8.97331 67.5827 9.24023 67.5762C9.51367 67.5632 9.83268 67.6217 10.1973 67.752C10.2233 67.7194 10.2428 67.651 10.2559 67.5469C10.2754 67.4427 10.2949 67.3223 10.3145 67.1855C10.334 67.0488 10.3535 66.9056 10.373 66.7559C10.3991 66.6061 10.4186 66.4694 10.4316 66.3457C10.4512 66.222 10.4674 66.1178 10.4805 66.0332C10.4935 65.9421 10.5098 65.8965 10.5293 65.8965C10.5684 65.8704 10.6302 65.8509 10.7148 65.8379C10.7995 65.8249 10.8809 65.8151 10.959 65.8086C11.0632 65.7956 11.1706 65.7891 11.2812 65.7891L11.4082 67.3906H12.1406C12.1406 67.3776 12.1439 67.3223 12.1504 67.2246C12.1569 67.127 12.1667 67.0098 12.1797 66.873C12.1992 66.7298 12.222 66.5768 12.248 66.4141C12.2806 66.2513 12.3197 66.1048 12.3652 65.9746C12.4108 65.8379 12.4629 65.724 12.5215 65.6328C12.5866 65.5417 12.6647 65.4961 12.7559 65.4961C12.7819 65.4961 12.821 65.4993 12.873 65.5059C12.9251 65.5059 12.974 65.5124 13.0195 65.5254C13.0651 65.5384 13.1042 65.5612 13.1367 65.5938C13.1758 65.6198 13.1953 65.6621 13.1953 65.7207V67.1855C13.2669 67.2116 13.3613 67.2376 13.4785 67.2637C13.6022 67.2897 13.7357 67.3158 13.8789 67.3418C14.0286 67.3613 14.1784 67.3841 14.3281 67.4102C14.4779 67.4362 14.6146 67.4655 14.7383 67.498C14.862 67.5306 14.9629 67.5697 15.041 67.6152C15.1191 67.6543 15.1582 67.6999 15.1582 67.752C15.1126 67.8887 15.0182 67.9896 14.875 68.0547C14.7383 68.1133 14.582 68.1621 14.4062 68.2012C14.237 68.2337 14.0645 68.2663 13.8887 68.2988C13.7194 68.3249 13.5794 68.3672 13.4688 68.4258C13.3646 68.4844 13.3027 68.569 13.2832 68.6797C13.2702 68.7904 13.3385 68.9466 13.4883 69.1484C13.5599 69.1484 13.651 69.1419 13.7617 69.1289C13.8724 69.1159 13.9863 69.1029 14.1035 69.0898C14.2207 69.0768 14.3379 69.0703 14.4551 69.0703C14.5723 69.0703 14.6764 69.0833 14.7676 69.1094C14.8587 69.1354 14.9336 69.181 14.9922 69.2461C15.0508 69.3112 15.0801 69.4023 15.0801 69.5195C15.0801 69.6237 15.015 69.7083 14.8848 69.7734C14.7611 69.8385 14.6146 69.8939 14.4453 69.9395C14.276 69.985 14.11 70.0208 13.9473 70.0469C13.791 70.0729 13.6771 70.0957 13.6055 70.1152C13.625 70.2324 13.6478 70.3757 13.6738 70.5449C13.6999 70.7077 13.7064 70.8672 13.6934 71.0234C13.6868 71.1797 13.6478 71.3164 13.5762 71.4336C13.5046 71.5508 13.3776 71.6094 13.1953 71.6094C13.0586 71.5638 12.9577 71.4954 12.8926 71.4043C12.834 71.3066 12.7852 71.2025 12.7461 71.0918C12.7135 70.9746 12.6842 70.8639 12.6582 70.7598C12.6322 70.6491 12.5866 70.5579 12.5215 70.4863C12.4564 70.4147 12.3587 70.3757 12.2285 70.3691C12.0983 70.3561 11.916 70.3887 11.6816 70.4668C11.6816 70.584 11.6816 70.7207 11.6816 70.877C11.6816 71.0267 11.6654 71.1732 11.6328 71.3164C11.6068 71.4531 11.5514 71.5703 11.4668 71.668C11.3822 71.7591 11.2585 71.8047 11.0957 71.8047C11.0371 71.8047 10.9688 71.7559 10.8906 71.6582C10.819 71.5605 10.7409 71.4434 10.6562 71.3066C10.5781 71.1634 10.4967 71.0234 10.4121 70.8867C10.3275 70.75 10.2461 70.6393 10.168 70.5547C9.77734 70.5156 9.47461 70.4733 9.25977 70.4277C9.05143 70.3757 8.9082 70.3236 8.83008 70.2715C8.75195 70.2194 8.72917 70.1673 8.76172 70.1152C8.79427 70.0566 8.85286 70.0013 8.9375 69.9492C9.15234 69.8385 9.52669 69.7246 10.0605 69.6074ZM11.3008 69.0605C11.3008 69.1191 11.3171 69.1647 11.3496 69.1973C11.3822 69.2298 11.4212 69.2559 11.4668 69.2754C11.5124 69.2884 11.5579 69.2982 11.6035 69.3047C11.6556 69.3047 11.6979 69.3047 11.7305 69.3047C11.7826 69.3047 11.8444 69.3014 11.916 69.2949C11.9876 69.2819 12.056 69.2656 12.1211 69.2461C12.1927 69.2266 12.2513 69.1973 12.2969 69.1582C12.349 69.1126 12.375 69.054 12.375 68.9824C12.375 68.8392 12.3392 68.709 12.2676 68.5918C12.2025 68.4746 12.0983 68.416 11.9551 68.416C11.877 68.416 11.7988 68.4355 11.7207 68.4746C11.6426 68.5072 11.571 68.556 11.5059 68.6211C11.4473 68.6797 11.3984 68.748 11.3594 68.8262C11.3203 68.9043 11.3008 68.9824 11.3008 69.0605ZM16.5352 71.5801C16.5677 71.4238 16.6491 71.2969 16.7793 71.1992C16.916 71.0951 17.069 71.0007 17.2383 70.916C17.4141 70.8314 17.5964 70.7533 17.7852 70.6816C17.974 70.6035 18.1465 70.5221 18.3027 70.4375C18.4655 70.3529 18.599 70.2552 18.7031 70.1445C18.8073 70.0273 18.8594 69.8874 18.8594 69.7246C18.8594 69.5163 18.804 69.3438 18.6934 69.207C18.5892 69.0703 18.446 68.9531 18.2637 68.8555C18.0879 68.7578 17.8861 68.6764 17.6582 68.6113C17.4303 68.5462 17.196 68.4811 16.9551 68.416C16.7207 68.3444 16.4896 68.2695 16.2617 68.1914C16.0339 68.1068 15.8288 68.0026 15.6465 67.8789C15.4707 67.7552 15.3275 67.6055 15.2168 67.4297C15.1126 67.2539 15.0605 67.0358 15.0605 66.7754C15.0605 66.5605 15.1029 66.3587 15.1875 66.1699C15.2786 65.9746 15.3958 65.7923 15.5391 65.623C15.6888 65.4473 15.8581 65.2878 16.0469 65.1445C16.2422 65.0013 16.444 64.8809 16.6523 64.7832C16.8672 64.6855 17.082 64.6107 17.2969 64.5586C17.5117 64.5 17.7103 64.4707 17.8926 64.4707H18C18.0586 64.4902 18.1367 64.5228 18.2344 64.5684C18.332 64.6139 18.4264 64.6595 18.5176 64.7051C18.6087 64.7441 18.6868 64.7832 18.752 64.8223C18.8171 64.8548 18.8496 64.8743 18.8496 64.8809V65.1055C18.7259 65.1185 18.5664 65.1445 18.3711 65.1836C18.1758 65.2161 17.9707 65.2617 17.7559 65.3203C17.541 65.3789 17.3229 65.4538 17.1016 65.5449C16.8802 65.6296 16.6816 65.7305 16.5059 65.8477C16.3301 65.9648 16.1868 66.1016 16.0762 66.2578C15.9655 66.4076 15.9102 66.5801 15.9102 66.7754C15.9102 67.0553 16.0078 67.2767 16.2031 67.4395C16.3984 67.5957 16.6426 67.7259 16.9355 67.8301C17.2285 67.9342 17.5475 68.0286 17.8926 68.1133C18.2441 68.1914 18.5664 68.2891 18.8594 68.4062C19.1523 68.5169 19.3965 68.6667 19.5918 68.8555C19.7871 69.0378 19.8848 69.2852 19.8848 69.5977C19.8848 69.7669 19.8327 69.946 19.7285 70.1348C19.6309 70.3171 19.4974 70.4993 19.3281 70.6816C19.1654 70.8574 18.9798 71.0267 18.7715 71.1895C18.5632 71.3522 18.3483 71.4954 18.127 71.6191C17.9121 71.7363 17.7005 71.834 17.4922 71.9121C17.2839 71.9837 17.0983 72.0195 16.9355 72.0195C16.8835 72.0195 16.8281 72.013 16.7695 72C16.7109 71.987 16.6589 71.9674 16.6133 71.9414C16.5742 71.9089 16.5417 71.8633 16.5156 71.8047C16.4961 71.7461 16.5026 71.6712 16.5352 71.5801ZM20.2852 69.2852C20.2852 68.9336 20.3275 68.582 20.4121 68.2305C20.4967 67.8789 20.6302 67.5632 20.8125 67.2832C21.0013 67.0033 21.2422 66.7754 21.5352 66.5996C21.8346 66.4238 22.196 66.3359 22.6191 66.3359C22.86 66.3359 23.0716 66.3815 23.2539 66.4727C23.4362 66.5573 23.5892 66.6712 23.7129 66.8145C23.8366 66.9577 23.9277 67.127 23.9863 67.3223C24.0514 67.5111 24.084 67.7096 24.084 67.918C24.084 68.25 24.0059 68.5723 23.8496 68.8848C23.6999 69.1973 23.4948 69.474 23.2344 69.7148C22.9805 69.9492 22.6875 70.1283 22.3555 70.252C22.0234 70.3691 21.6849 70.3952 21.3398 70.3301C21.3464 70.5189 21.4082 70.6719 21.5254 70.7891C21.6491 70.8997 21.7956 70.9844 21.9648 71.043C22.1341 71.1016 22.3099 71.1406 22.4922 71.1602C22.6745 71.1732 22.8372 71.1797 22.9805 71.1797C23.1302 71.1797 23.2702 71.1667 23.4004 71.1406C23.5306 71.1146 23.6608 71.0853 23.791 71.0527C23.9212 71.0202 24.0514 70.9909 24.1816 70.9648C24.3184 70.9388 24.4616 70.9258 24.6113 70.9258C24.6699 70.9258 24.7285 70.929 24.7871 70.9355C24.8457 70.9421 24.901 70.9583 24.9531 70.9844C25.0052 71.0039 25.0475 71.0397 25.0801 71.0918C25.1126 71.1374 25.1289 71.196 25.1289 71.2676C25.1289 71.3913 25.0833 71.4954 24.9922 71.5801C24.901 71.6582 24.7839 71.7266 24.6406 71.7852C24.5039 71.8438 24.3509 71.8893 24.1816 71.9219C24.0124 71.9479 23.8464 71.9707 23.6836 71.9902C23.5273 72.0033 23.3809 72.0098 23.2441 72.0098C23.1139 72.0163 23.0163 72.0195 22.9512 72.0195C22.5345 72.0195 22.1602 71.9544 21.8281 71.8242C21.4961 71.6875 21.2161 71.502 20.9883 71.2676C20.7604 71.0267 20.5846 70.7402 20.4609 70.4082C20.3438 70.0697 20.2852 69.6953 20.2852 69.2852ZM21.3203 68.6504C21.3203 68.8783 21.3496 69.0443 21.4082 69.1484C21.4733 69.2526 21.6263 69.3047 21.8672 69.3047C22.0365 69.3047 22.2025 69.2754 22.3652 69.2168C22.528 69.1517 22.6745 69.0638 22.8047 68.9531C22.9414 68.8424 23.0488 68.7122 23.127 68.5625C23.2051 68.4128 23.2441 68.25 23.2441 68.0742C23.2441 67.9766 23.2344 67.8757 23.2148 67.7715C23.2018 67.6673 23.1693 67.5729 23.1172 67.4883C23.0651 67.3971 22.9967 67.3255 22.9121 67.2734C22.834 67.2148 22.7298 67.1855 22.5996 67.1855C22.4043 67.1855 22.2253 67.2311 22.0625 67.3223C21.9062 67.4069 21.7728 67.5208 21.6621 67.6641C21.5514 67.8008 21.4668 67.957 21.4082 68.1328C21.3496 68.3021 21.3203 68.4746 21.3203 68.6504ZM25.5391 69.0605C25.5391 68.7871 25.5977 68.5007 25.7148 68.2012C25.8385 67.9017 26.0013 67.6315 26.2031 67.3906C26.4049 67.1432 26.6361 66.9382 26.8965 66.7754C27.1634 66.6126 27.4434 66.5312 27.7363 66.5312C27.8861 66.5312 28.0358 66.5573 28.1855 66.6094C28.3353 66.6615 28.4688 66.7363 28.5859 66.834C28.7096 66.9316 28.8073 67.0488 28.8789 67.1855C28.957 67.3223 28.9961 67.4753 28.9961 67.6445C28.8789 67.6445 28.7715 67.6315 28.6738 67.6055C28.5827 67.5794 28.4915 67.5501 28.4004 67.5176C28.3092 67.4785 28.2181 67.446 28.127 67.4199C28.0423 67.3939 27.9479 67.3809 27.8438 67.3809C27.5768 67.3809 27.3587 67.4492 27.1895 67.5859C27.0267 67.7161 26.8965 67.8822 26.7988 68.084C26.7012 68.2858 26.6328 68.5039 26.5938 68.7383C26.5612 68.9661 26.5449 69.181 26.5449 69.3828C26.5449 69.4154 26.5449 69.4772 26.5449 69.5684C26.5514 69.6595 26.5547 69.7572 26.5547 69.8613C26.5612 69.959 26.5645 70.0534 26.5645 70.1445C26.571 70.2357 26.5775 70.2975 26.584 70.3301C26.6556 70.4863 26.724 70.6068 26.7891 70.6914C26.8607 70.776 26.9355 70.8411 27.0137 70.8867C27.0918 70.9258 27.1764 70.9518 27.2676 70.9648C27.3587 70.9714 27.4661 70.9746 27.5898 70.9746C27.7591 70.9746 27.9056 70.9486 28.0293 70.8965C28.1595 70.8444 28.2799 70.7826 28.3906 70.7109C28.5013 70.6393 28.6055 70.5612 28.7031 70.4766C28.8008 70.3854 28.9017 70.304 29.0059 70.2324C29.1165 70.1543 29.2337 70.0924 29.3574 70.0469C29.4876 69.9948 29.6341 69.9688 29.7969 69.9688C29.7969 70.2878 29.7383 70.571 29.6211 70.8184C29.5104 71.0658 29.3509 71.2773 29.1426 71.4531C28.9408 71.6289 28.6999 71.7656 28.4199 71.8633C28.1465 71.9544 27.847 72 27.5215 72C27.2155 72 26.9388 71.8958 26.6914 71.6875C26.4505 71.4792 26.2422 71.2253 26.0664 70.9258C25.8971 70.6198 25.7669 70.2975 25.6758 69.959C25.5846 69.6204 25.5391 69.321 25.5391 69.0605ZM30.3438 68.0156C30.3438 67.9766 30.3438 67.9082 30.3438 67.8105C30.3503 67.7064 30.3535 67.599 30.3535 67.4883C30.3535 67.3776 30.3535 67.2767 30.3535 67.1855C30.36 67.0879 30.3633 67.0195 30.3633 66.9805C30.4089 66.9023 30.4609 66.8275 30.5195 66.7559C30.5846 66.6777 30.6497 66.6257 30.7148 66.5996C30.7865 66.5671 30.8613 66.5605 30.9395 66.5801C31.0241 66.5996 31.1087 66.6647 31.1934 66.7754V66.8535V66.9805C31.1868 67.013 31.1738 67.0911 31.1543 67.2148C31.1348 67.332 31.112 67.4622 31.0859 67.6055C31.0599 67.7487 31.0339 67.8822 31.0078 68.0059C30.9883 68.123 30.9785 68.1979 30.9785 68.2305C30.9785 68.3542 30.9915 68.5104 31.0176 68.6992C31.0436 68.8815 31.0794 69.0736 31.125 69.2754C31.1771 69.4772 31.2389 69.679 31.3105 69.8809C31.3887 70.0827 31.4798 70.265 31.584 70.4277C31.6882 70.584 31.8021 70.7142 31.9258 70.8184C32.056 70.9225 32.2057 70.9746 32.375 70.9746C32.5833 70.9746 32.7656 70.9193 32.9219 70.8086C33.0846 70.6979 33.2246 70.5547 33.3418 70.3789C33.459 70.2031 33.5534 70.0046 33.625 69.7832C33.7031 69.5618 33.765 69.3405 33.8105 69.1191C33.8561 68.8913 33.8887 68.6732 33.9082 68.4648C33.9277 68.2565 33.9375 68.0742 33.9375 67.918C33.9375 67.7617 33.9245 67.6152 33.8984 67.4785C33.8789 67.3353 33.8529 67.1953 33.8203 67.0586C33.7878 66.9219 33.7585 66.7884 33.7324 66.6582C33.7129 66.5215 33.7031 66.3848 33.7031 66.248C33.7031 66.1243 33.7454 66.0365 33.8301 65.9844C33.9212 65.9323 34.0221 65.9062 34.1328 65.9062C34.2695 65.9062 34.3802 65.9486 34.4648 66.0332C34.5495 66.1113 34.6146 66.2122 34.6602 66.3359C34.7122 66.4596 34.7448 66.6029 34.7578 66.7656C34.7773 66.9219 34.7871 67.0781 34.7871 67.2344C34.7871 67.3906 34.7839 67.5404 34.7773 67.6836C34.7708 67.8203 34.7676 67.931 34.7676 68.0156C34.7676 68.237 34.7513 68.4876 34.7188 68.7676C34.6862 69.0475 34.6276 69.3372 34.543 69.6367C34.4648 69.9297 34.3639 70.2194 34.2402 70.5059C34.123 70.7923 33.9766 71.0495 33.8008 71.2773C33.6315 71.4987 33.4329 71.6777 33.2051 71.8145C32.9837 71.9512 32.7331 72.0195 32.4531 72.0195C32.1602 72.0195 31.903 71.9512 31.6816 71.8145C31.4603 71.6712 31.2715 71.4857 31.1152 71.2578C30.9655 71.0234 30.8385 70.7598 30.7344 70.4668C30.6302 70.1738 30.5488 69.8809 30.4902 69.5879C30.4382 69.2949 30.3991 69.0117 30.373 68.7383C30.3535 68.4583 30.3438 68.2174 30.3438 68.0156ZM35.3633 67.8984C35.3633 67.8398 35.3665 67.7812 35.373 67.7227C35.3796 67.6576 35.3926 67.6022 35.4121 67.5566C35.4316 67.5046 35.4609 67.4622 35.5 67.4297C35.5456 67.3971 35.6074 67.3809 35.6855 67.3809C35.7507 67.3809 35.8223 67.4329 35.9004 67.5371C35.985 67.6348 36.0697 67.7617 36.1543 67.918C36.2389 68.0677 36.3203 68.2337 36.3984 68.416C36.4831 68.5983 36.5547 68.7676 36.6133 68.9238C36.6784 69.0736 36.7305 69.2038 36.7695 69.3145C36.8086 69.4251 36.8314 69.4837 36.8379 69.4902C36.9225 69.2624 37.0169 69.015 37.1211 68.748C37.2253 68.4811 37.3522 68.2337 37.502 68.0059C37.6582 67.7715 37.8405 67.5762 38.0488 67.4199C38.2637 67.2637 38.5241 67.1855 38.8301 67.1855C38.9863 67.1855 39.1328 67.2116 39.2695 67.2637C39.4128 67.3092 39.5365 67.3809 39.6406 67.4785C39.7513 67.5697 39.8392 67.6803 39.9043 67.8105C39.9694 67.9408 40.002 68.0905 40.002 68.2598C40.002 68.403 39.9434 68.5039 39.8262 68.5625C39.7155 68.6211 39.5885 68.6504 39.4453 68.6504H39.3477L38.9277 68.2305C38.9147 68.2305 38.9049 68.2272 38.8984 68.2207C38.8854 68.2207 38.8724 68.2207 38.8594 68.2207C38.8529 68.2142 38.8431 68.2109 38.8301 68.2109C38.6022 68.2109 38.4232 68.276 38.293 68.4062C38.1693 68.5299 38.0749 68.6862 38.0098 68.875C37.9447 69.0573 37.9023 69.2526 37.8828 69.4609C37.8698 69.6628 37.8633 69.8483 37.8633 70.0176C37.8633 70.1478 37.8763 70.2812 37.9023 70.418C37.9284 70.5482 37.9577 70.6784 37.9902 70.8086C38.0228 70.9323 38.0521 71.0625 38.0781 71.1992C38.1042 71.3294 38.1172 71.4661 38.1172 71.6094C38.1172 71.8828 37.9707 72.0195 37.6777 72.0195C37.515 72.0195 37.3457 71.9349 37.1699 71.7656C36.9941 71.5898 36.8184 71.3685 36.6426 71.1016C36.4733 70.8346 36.3105 70.5417 36.1543 70.2227C35.998 69.8971 35.8613 69.5814 35.7441 69.2754C35.627 68.9694 35.5326 68.6927 35.4609 68.4453C35.3958 68.1979 35.3633 68.0156 35.3633 67.8984ZM40.7637 68.3379C40.7637 68.2988 40.7637 68.237 40.7637 68.1523C40.7702 68.0612 40.7734 67.9668 40.7734 67.8691C40.7799 67.7715 40.7832 67.6771 40.7832 67.5859C40.7897 67.4948 40.793 67.4297 40.793 67.3906C40.8646 67.2865 40.9557 67.2018 41.0664 67.1367C41.1836 67.0716 41.3008 67.0195 41.418 66.9805C41.4375 67.332 41.4928 67.7064 41.584 68.1035C41.6751 68.5007 41.7728 68.901 41.877 69.3047C41.9811 69.7018 42.0723 70.0957 42.1504 70.4863C42.235 70.877 42.2773 71.2415 42.2773 71.5801C42.2773 71.873 42.1276 72.0195 41.8281 72.0195C41.6458 72.0195 41.4928 71.9447 41.3691 71.7949C41.2454 71.6452 41.1445 71.4564 41.0664 71.2285C40.9948 70.9941 40.9362 70.737 40.8906 70.457C40.8451 70.1706 40.8125 69.8906 40.793 69.6172C40.7799 69.3438 40.7702 69.0931 40.7637 68.8652C40.7637 68.6374 40.7637 68.4616 40.7637 68.3379ZM40.9004 64.6758C41.0241 64.7279 41.1283 64.8125 41.2129 64.9297C41.2975 65.0469 41.3333 65.1543 41.3203 65.252C41.3138 65.3431 41.2422 65.4082 41.1055 65.4473C40.9688 65.4798 40.7409 65.4408 40.4219 65.3301C40.4219 65.1543 40.4544 65.0013 40.5195 64.8711C40.5911 64.7409 40.7181 64.6758 40.9004 64.6758ZM42.4434 67.0781C42.4434 67.0586 42.4466 67.0423 42.4531 67.0293C42.4531 67.0163 42.4564 67 42.4629 66.9805C42.4889 66.9479 42.528 66.9056 42.5801 66.8535C42.6322 66.8014 42.6647 66.7754 42.6777 66.7754H44.6406C44.6406 66.7038 44.6309 66.5898 44.6113 66.4336C44.5918 66.2773 44.5723 66.1048 44.5527 65.916C44.5397 65.7272 44.5365 65.5319 44.543 65.3301C44.5495 65.1217 44.5755 64.9362 44.6211 64.7734C44.6732 64.6042 44.7513 64.4674 44.8555 64.3633C44.9661 64.2526 45.1191 64.1973 45.3145 64.1973C45.3145 64.8548 45.36 65.3822 45.4512 65.7793C45.5423 66.1764 45.6628 66.4824 45.8125 66.6973C45.9688 66.9121 46.1445 67.0521 46.3398 67.1172C46.5352 67.1823 46.7337 67.2116 46.9355 67.2051C47.1439 67.1921 47.3457 67.1595 47.541 67.1074C47.7363 67.0553 47.9089 67.0195 48.0586 67C48.2148 66.9805 48.3385 66.9967 48.4297 67.0488C48.5208 67.0944 48.5664 67.2083 48.5664 67.3906C48.5664 67.5273 48.5339 67.625 48.4688 67.6836C48.4102 67.7422 48.293 67.7878 48.1172 67.8203C48.0651 67.8268 47.9772 67.8398 47.8535 67.8594C47.7363 67.8724 47.6029 67.8854 47.4531 67.8984C47.3034 67.9115 47.1439 67.9277 46.9746 67.9473C46.8053 67.9603 46.6458 67.9733 46.4961 67.9863C46.3464 67.9993 46.2096 68.0091 46.0859 68.0156C45.9622 68.0156 45.8711 68.0156 45.8125 68.0156C45.8125 68.0482 45.8092 68.1035 45.8027 68.1816C45.7962 68.2598 45.793 68.3118 45.793 68.3379C45.793 68.6243 45.8385 68.9043 45.9297 69.1777C46.0208 69.4447 46.1185 69.7116 46.2227 69.9785C46.3333 70.2454 46.4342 70.5124 46.5254 70.7793C46.6165 71.0462 46.6621 71.3229 46.6621 71.6094C46.6621 71.6615 46.6556 71.7168 46.6426 71.7754C46.6361 71.8275 46.6165 71.8763 46.584 71.9219C46.5579 71.9609 46.5156 71.9902 46.457 72.0098C46.4049 72.0358 46.3301 72.0326 46.2324 72C45.985 71.9349 45.7995 71.7949 45.6758 71.5801C45.5586 71.3652 45.4707 71.1113 45.4121 70.8184C45.3535 70.5189 45.3145 70.2031 45.2949 69.8711C45.2754 69.5391 45.2428 69.2298 45.1973 68.9434C45.1582 68.6504 45.0931 68.403 45.002 68.2012C44.9108 67.9928 44.7643 67.8659 44.5625 67.8203L42.6777 67.3906C42.6517 67.3906 42.6126 67.3646 42.5605 67.3125C42.5085 67.2539 42.4759 67.2116 42.4629 67.1855C42.4564 67.1725 42.4531 67.1562 42.4531 67.1367C42.4466 67.1237 42.4434 67.1042 42.4434 67.0781ZM48.7715 66.9512C48.7715 66.8926 48.7715 66.834 48.7715 66.7754C48.778 66.7103 48.791 66.6517 48.8105 66.5996C48.8366 66.541 48.8691 66.4987 48.9082 66.4727C48.9538 66.4401 49.0189 66.4238 49.1035 66.4238C49.11 66.4238 49.1165 66.4238 49.123 66.4238C49.1361 66.4238 49.1491 66.4238 49.1621 66.4238C49.1816 66.4303 49.1979 66.4336 49.2109 66.4336C49.3346 66.6029 49.4421 66.821 49.5332 67.0879C49.6243 67.3483 49.7122 67.6283 49.7969 67.9277C49.8815 68.2207 49.9727 68.5202 50.0703 68.8262C50.168 69.1257 50.2949 69.3958 50.4512 69.6367C50.6074 69.8776 50.7995 70.0697 51.0273 70.2129C51.2552 70.3561 51.5384 70.418 51.877 70.3984C52.0267 70.3984 52.1243 70.3171 52.1699 70.1543C52.2155 69.9915 52.2383 69.7832 52.2383 69.5293C52.2448 69.2754 52.2383 68.9954 52.2188 68.6895C52.2057 68.3835 52.2057 68.0938 52.2188 67.8203C52.2383 67.5404 52.2871 67.2962 52.3652 67.0879C52.4499 66.8796 52.5931 66.7396 52.7949 66.668C52.8796 66.8372 52.9479 67.1042 53 67.4688C53.0586 67.8268 53.1009 68.2435 53.127 68.7188C53.153 69.1875 53.166 69.6986 53.166 70.252C53.166 70.7988 53.153 71.3457 53.127 71.8926C53.1009 72.4329 53.0618 72.9538 53.0098 73.4551C52.9577 73.9564 52.8991 74.3958 52.834 74.7734C52.7689 75.151 52.6908 75.4473 52.5996 75.6621C52.515 75.8835 52.4238 75.9779 52.3262 75.9453C52.1895 75.8151 52.082 75.6458 52.0039 75.4375C51.9323 75.2292 51.8802 74.998 51.8477 74.7441C51.8216 74.4902 51.8118 74.2201 51.8184 73.9336C51.8249 73.6536 51.8346 73.3704 51.8477 73.084C51.8672 72.7975 51.8867 72.5176 51.9062 72.2441C51.9323 71.9707 51.9453 71.7201 51.9453 71.4922C51.7109 71.5117 51.4701 71.4759 51.2227 71.3848C50.9818 71.2936 50.7441 71.1536 50.5098 70.9648C50.2754 70.7695 50.0508 70.5352 49.8359 70.2617C49.6276 69.9883 49.4421 69.679 49.2793 69.334C49.123 68.9889 48.9993 68.6178 48.9082 68.2207C48.8171 67.8171 48.7715 67.3939 48.7715 66.9512ZM59.3184 70.4375C59.3184 70.2812 59.3281 70.1315 59.3477 69.9883C59.3737 69.8385 59.3997 69.6921 59.4258 69.5488C59.4583 69.3991 59.4844 69.2526 59.5039 69.1094C59.5299 68.9596 59.543 68.8066 59.543 68.6504C59.543 68.6309 59.5397 68.6048 59.5332 68.5723C59.5332 68.5332 59.5332 68.4909 59.5332 68.4453C59.5332 68.3932 59.5299 68.3509 59.5234 68.3184C59.5234 68.2793 59.5234 68.25 59.5234 68.2305C59.3867 68.1263 59.2305 68.0059 59.0547 67.8691C58.8854 67.7259 58.7259 67.5697 58.5762 67.4004C58.4329 67.2311 58.3092 67.0521 58.2051 66.8633C58.1074 66.668 58.0586 66.4629 58.0586 66.248C58.0586 65.9355 58.1562 65.6458 58.3516 65.3789C58.5534 65.1055 58.7975 64.8678 59.084 64.666C59.377 64.4642 59.6862 64.3047 60.0117 64.1875C60.3372 64.0703 60.6302 64.0117 60.8906 64.0117C61.2747 64.0117 61.5319 64.0996 61.6621 64.2754C61.7988 64.4512 61.8672 64.7279 61.8672 65.1055C61.8672 65.3659 61.8184 65.6165 61.7207 65.8574C61.6296 66.0983 61.5286 66.3359 61.418 66.5703C61.3073 66.8047 61.2031 67.0423 61.1055 67.2832C61.0143 67.5176 60.9688 67.7617 60.9688 68.0156C60.9688 68.1784 61.0306 68.3249 61.1543 68.4551C61.2845 68.5788 61.4342 68.6862 61.6035 68.7773C61.7793 68.8685 61.9551 68.9401 62.1309 68.9922C62.3132 69.0378 62.4564 69.0605 62.5605 69.0605H62.668C62.668 69.041 62.694 68.9531 62.7461 68.7969C62.7982 68.6341 62.8698 68.4648 62.9609 68.2891C63.0586 68.1068 63.1693 67.9473 63.293 67.8105C63.4167 67.6673 63.5566 67.599 63.7129 67.6055C63.7585 67.6706 63.7943 67.7259 63.8203 67.7715C63.8529 67.8171 63.8757 67.8626 63.8887 67.9082C63.9082 67.9538 63.9212 68.0026 63.9277 68.0547C63.9342 68.1003 63.9375 68.1589 63.9375 68.2305C63.9375 68.3281 63.9245 68.4258 63.8984 68.5234C63.8724 68.6146 63.8431 68.709 63.8105 68.8066C63.7845 68.8978 63.7585 68.9922 63.7324 69.0898C63.7064 69.181 63.6934 69.2786 63.6934 69.3828C63.6934 69.3958 63.6934 69.4186 63.6934 69.4512C63.6999 69.4772 63.7031 69.5065 63.7031 69.5391C63.7031 69.5716 63.7031 69.6042 63.7031 69.6367C63.7096 69.6693 63.7129 69.6888 63.7129 69.6953C63.8952 69.7539 64.0677 69.8092 64.2305 69.8613C64.3932 69.9069 64.5332 69.9655 64.6504 70.0371C64.7676 70.1087 64.8587 70.2064 64.9238 70.3301C64.9954 70.4473 65.0312 70.6068 65.0312 70.8086C64.9076 70.9323 64.7708 70.9909 64.6211 70.9844C64.4779 70.9779 64.3184 70.9388 64.1426 70.8672C63.9733 70.7956 63.7878 70.7077 63.5859 70.6035C63.3841 70.4993 63.1725 70.4082 62.9512 70.3301C62.8275 70.3301 62.7005 70.3724 62.5703 70.457C62.4466 70.5352 62.3132 70.6361 62.1699 70.7598C62.0332 70.8835 61.89 71.0202 61.7402 71.1699C61.5905 71.3132 61.4342 71.4466 61.2715 71.5703C61.1152 71.694 60.9525 71.7982 60.7832 71.8828C60.6139 71.9609 60.4382 72 60.2559 72C60.0475 72 59.8815 71.9479 59.7578 71.8438C59.6406 71.7396 59.5462 71.6094 59.4746 71.4531C59.4095 71.2904 59.3672 71.1178 59.3477 70.9355C59.3281 70.7533 59.3184 70.5872 59.3184 70.4375ZM60.1289 70.457C60.1289 70.5091 60.1322 70.5677 60.1387 70.6328C60.1452 70.6914 60.1582 70.7435 60.1777 70.7891C60.1973 70.8346 60.2298 70.8737 60.2754 70.9062C60.321 70.9388 60.3828 70.9551 60.4609 70.9551C60.5977 70.9551 60.7409 70.9193 60.8906 70.8477C61.0469 70.776 61.1966 70.6882 61.3398 70.584C61.4896 70.4798 61.623 70.3659 61.7402 70.2422C61.8639 70.1185 61.9648 70.0046 62.043 69.9004C62.0365 69.8939 62.0234 69.8809 62.0039 69.8613C61.9844 69.8418 61.9616 69.8223 61.9355 69.8027C61.916 69.7767 61.8932 69.7539 61.8672 69.7344C61.8477 69.7148 61.8346 69.7018 61.8281 69.6953C61.7826 69.6693 61.7077 69.6237 61.6035 69.5586C61.4993 69.4935 61.3919 69.4284 61.2812 69.3633C61.1706 69.2917 61.0664 69.2298 60.9688 69.1777C60.8711 69.1191 60.806 69.0801 60.7734 69.0605C60.7539 69.0605 60.7409 69.0605 60.7344 69.0605C60.7214 69.0605 60.7083 69.0605 60.6953 69.0605C60.6888 69.054 60.6823 69.0508 60.6758 69.0508C60.5391 69.0508 60.4349 69.1061 60.3633 69.2168C60.2917 69.321 60.2363 69.4512 60.1973 69.6074C60.1647 69.7572 60.1452 69.9102 60.1387 70.0664C60.1322 70.2227 60.1289 70.3529 60.1289 70.457ZM58.8789 66.3652C58.8789 66.3848 58.8789 66.4043 58.8789 66.4238C58.8789 66.4434 58.8822 66.4629 58.8887 66.4824C58.8887 66.502 58.8887 66.5247 58.8887 66.5508L59.9434 67.6055C60.1582 67.4688 60.3405 67.293 60.4902 67.0781C60.64 66.8568 60.7604 66.6191 60.8516 66.3652C60.9492 66.1113 61.0208 65.8509 61.0664 65.584C61.112 65.3105 61.1348 65.0566 61.1348 64.8223C60.9134 64.8223 60.6725 64.8548 60.4121 64.9199C60.1517 64.985 59.9043 65.0794 59.6699 65.2031C59.4421 65.3268 59.2533 65.4863 59.1035 65.6816C58.9538 65.877 58.8789 66.1048 58.8789 66.3652ZM70.0898 68.6504C70.0898 68.429 70.1191 68.1882 70.1777 67.9277C70.2428 67.6673 70.3307 67.4069 70.4414 67.1465C70.5521 66.8796 70.6855 66.6224 70.8418 66.375C70.998 66.1211 71.1738 65.8997 71.3691 65.7109C71.5645 65.5156 71.776 65.3626 72.0039 65.252C72.2318 65.1348 72.4727 65.0762 72.7266 65.0762C72.9349 65.0762 73.1302 65.1055 73.3125 65.1641C73.4948 65.2161 73.651 65.2975 73.7812 65.4082C73.9115 65.5189 74.0124 65.6589 74.084 65.8281C74.1621 65.9909 74.2012 66.1862 74.2012 66.4141C74.0579 66.4141 73.9408 66.3783 73.8496 66.3066C73.765 66.2285 73.6836 66.1439 73.6055 66.0527C73.5339 65.9616 73.4525 65.8802 73.3613 65.8086C73.2767 65.737 73.166 65.7012 73.0293 65.7012C72.8275 65.7012 72.6322 65.7533 72.4434 65.8574C72.2611 65.9616 72.0885 66.1016 71.9258 66.2773C71.7695 66.4531 71.6296 66.6517 71.5059 66.873C71.3887 67.0944 71.2845 67.319 71.1934 67.5469C71.1087 67.7682 71.0404 67.9863 70.9883 68.2012C70.9427 68.416 70.9199 68.6016 70.9199 68.7578C70.9199 69.0964 70.9688 69.4154 71.0664 69.7148C71.1706 70.0078 71.3171 70.265 71.5059 70.4863C71.6947 70.7012 71.929 70.8704 72.209 70.9941C72.4889 71.1178 72.8079 71.1797 73.166 71.1797C73.3939 71.1797 73.6087 71.1471 73.8105 71.082C74.0189 71.0104 74.2174 70.9355 74.4062 70.8574C74.6016 70.7728 74.7936 70.6947 74.9824 70.623C75.1712 70.5514 75.36 70.5156 75.5488 70.5156C75.5749 70.5156 75.6107 70.5189 75.6562 70.5254C75.7083 70.5254 75.7539 70.5319 75.793 70.5449C75.8385 70.5579 75.8776 70.5807 75.9102 70.6133C75.9427 70.6393 75.959 70.6816 75.959 70.7402C75.959 70.9746 75.8678 71.1732 75.6855 71.3359C75.5098 71.4987 75.2982 71.6322 75.0508 71.7363C74.8034 71.834 74.5462 71.9056 74.2793 71.9512C74.0124 71.9967 73.7943 72.0195 73.625 72.0195C73.1302 72.0195 72.668 71.9414 72.2383 71.7852C71.8086 71.6224 71.4342 71.3945 71.1152 71.1016C70.7962 70.8086 70.5456 70.457 70.3633 70.0469C70.181 69.6302 70.0898 69.1647 70.0898 68.6504ZM76.3691 70.0176C76.3691 69.6139 76.4635 69.2396 76.6523 68.8945C76.8411 68.543 77.0885 68.2435 77.3945 67.9961C77.707 67.7422 78.0553 67.5436 78.4395 67.4004C78.8301 67.2572 79.224 67.1855 79.6211 67.1855C79.8424 67.1855 80.0378 67.2572 80.207 67.4004C80.3828 67.5436 80.5293 67.7194 80.6465 67.9277C80.7637 68.1296 80.8516 68.3444 80.9102 68.5723C80.9753 68.8001 81.0078 68.9987 81.0078 69.168C81.0078 69.5326 80.9199 69.8874 80.7441 70.2324C80.5684 70.571 80.3405 70.8737 80.0605 71.1406C79.7806 71.401 79.4648 71.6126 79.1133 71.7754C78.7617 71.9382 78.4102 72.0195 78.0586 72.0195C77.7461 72.0195 77.4824 71.9674 77.2676 71.8633C77.0527 71.7526 76.8802 71.6094 76.75 71.4336C76.6198 71.2513 76.5221 71.0397 76.457 70.7988C76.3984 70.5514 76.3691 70.291 76.3691 70.0176ZM77.1992 70.1152C77.1992 70.2845 77.2122 70.4342 77.2383 70.5645C77.2708 70.6882 77.3229 70.7956 77.3945 70.8867C77.4727 70.9779 77.5736 71.0495 77.6973 71.1016C77.821 71.1471 77.974 71.1699 78.1562 71.1699C78.3971 71.1699 78.638 71.1048 78.8789 70.9746C79.1198 70.8379 79.3346 70.6686 79.5234 70.4668C79.7188 70.2585 79.875 70.0306 79.9922 69.7832C80.1094 69.5358 80.168 69.2949 80.168 69.0605C80.168 68.9564 80.1582 68.8424 80.1387 68.7188C80.1191 68.5951 80.0866 68.4811 80.041 68.377C79.9954 68.2728 79.9303 68.1849 79.8457 68.1133C79.7611 68.0417 79.6536 68.0059 79.5234 68.0059C79.4062 68.0059 79.2663 68.0449 79.1035 68.123C78.9473 68.2012 78.7812 68.3021 78.6055 68.4258C78.4362 68.5495 78.2669 68.6895 78.0977 68.8457C77.9349 69.002 77.7852 69.1582 77.6484 69.3145C77.5117 69.4707 77.401 69.6204 77.3164 69.7637C77.2383 69.9069 77.1992 70.0241 77.1992 70.1152ZM81.3887 68.709C81.3887 68.5397 81.431 68.4193 81.5156 68.3477C81.6003 68.2695 81.737 68.2305 81.9258 68.2305H82.0234C82.043 68.3346 82.0658 68.4551 82.0918 68.5918C82.1178 68.7285 82.1569 68.8685 82.209 69.0117C82.2611 69.1549 82.3229 69.2884 82.3945 69.4121C82.4661 69.5293 82.554 69.6237 82.6582 69.6953C82.6647 69.4674 82.7201 69.2493 82.8242 69.041C82.9349 68.8262 83.0684 68.6374 83.2246 68.4746C83.3874 68.3053 83.5632 68.1654 83.752 68.0547C83.9473 67.9375 84.1393 67.8594 84.3281 67.8203H84.543C84.8555 67.8203 85.1224 67.8919 85.3438 68.0352C85.5651 68.1719 85.7474 68.3542 85.8906 68.582C86.0404 68.8034 86.1543 69.0573 86.2324 69.3438C86.3105 69.6302 86.3691 69.9232 86.4082 70.2227C86.4538 70.5156 86.4798 70.8021 86.4863 71.082C86.4993 71.3555 86.5059 71.5898 86.5059 71.7852H85.793C85.7539 71.3945 85.7051 71.0202 85.6465 70.6621C85.627 70.5189 85.6009 70.3691 85.5684 70.2129C85.5358 70.0501 85.5 69.9004 85.4609 69.7637C85.4219 69.6204 85.3796 69.4902 85.334 69.373C85.2884 69.2493 85.2363 69.1452 85.1777 69.0605C85.1517 69.0345 85.1159 68.9987 85.0703 68.9531C85.0312 68.9076 84.9889 68.862 84.9434 68.8164C84.8978 68.7708 84.8555 68.7318 84.8164 68.6992C84.7773 68.6667 84.7546 68.6504 84.748 68.6504C84.5527 68.5983 84.3835 68.6374 84.2402 68.7676C84.097 68.8913 83.9701 69.0605 83.8594 69.2754C83.7487 69.4902 83.6576 69.7344 83.5859 70.0078C83.5208 70.2812 83.4655 70.5449 83.4199 70.7988C83.3743 71.0462 83.3418 71.2643 83.3223 71.4531C83.3027 71.6354 83.2897 71.7461 83.2832 71.7852C83.1204 71.9023 82.9674 71.9382 82.8242 71.8926C82.681 71.8405 82.5443 71.7363 82.4141 71.5801C82.2904 71.4238 82.1764 71.2285 82.0723 70.9941C81.9746 70.7598 81.8835 70.5124 81.7988 70.252C81.7142 69.985 81.6361 69.7181 81.5645 69.4512C81.4993 69.1842 81.4408 68.9368 81.3887 68.709ZM86.8281 67.0781C86.8281 67.0586 86.8314 67.0423 86.8379 67.0293C86.8379 67.0163 86.8411 67 86.8477 66.9805C86.8737 66.9479 86.9128 66.9056 86.9648 66.8535C87.0169 66.8014 87.0495 66.7754 87.0625 66.7754H89.0254C89.0254 66.7038 89.0156 66.5898 88.9961 66.4336C88.9766 66.2773 88.957 66.1048 88.9375 65.916C88.9245 65.7272 88.9212 65.5319 88.9277 65.3301C88.9342 65.1217 88.9603 64.9362 89.0059 64.7734C89.0579 64.6042 89.1361 64.4674 89.2402 64.3633C89.3509 64.2526 89.5039 64.1973 89.6992 64.1973C89.6992 64.8548 89.7448 65.3822 89.8359 65.7793C89.9271 66.1764 90.0475 66.4824 90.1973 66.6973C90.3535 66.9121 90.5293 67.0521 90.7246 67.1172C90.9199 67.1823 91.1185 67.2116 91.3203 67.2051C91.5286 67.1921 91.7305 67.1595 91.9258 67.1074C92.1211 67.0553 92.2936 67.0195 92.4434 67C92.5996 66.9805 92.7233 66.9967 92.8145 67.0488C92.9056 67.0944 92.9512 67.2083 92.9512 67.3906C92.9512 67.5273 92.9186 67.625 92.8535 67.6836C92.7949 67.7422 92.6777 67.7878 92.502 67.8203C92.4499 67.8268 92.362 67.8398 92.2383 67.8594C92.1211 67.8724 91.9876 67.8854 91.8379 67.8984C91.6882 67.9115 91.5286 67.9277 91.3594 67.9473C91.1901 67.9603 91.0306 67.9733 90.8809 67.9863C90.7311 67.9993 90.5944 68.0091 90.4707 68.0156C90.347 68.0156 90.2559 68.0156 90.1973 68.0156C90.1973 68.0482 90.194 68.1035 90.1875 68.1816C90.181 68.2598 90.1777 68.3118 90.1777 68.3379C90.1777 68.6243 90.2233 68.9043 90.3145 69.1777C90.4056 69.4447 90.5033 69.7116 90.6074 69.9785C90.7181 70.2454 90.819 70.5124 90.9102 70.7793C91.0013 71.0462 91.0469 71.3229 91.0469 71.6094C91.0469 71.6615 91.0404 71.7168 91.0273 71.7754C91.0208 71.8275 91.0013 71.8763 90.9688 71.9219C90.9427 71.9609 90.9004 71.9902 90.8418 72.0098C90.7897 72.0358 90.7148 72.0326 90.6172 72C90.3698 71.9349 90.1842 71.7949 90.0605 71.5801C89.9434 71.3652 89.8555 71.1113 89.7969 70.8184C89.7383 70.5189 89.6992 70.2031 89.6797 69.8711C89.6602 69.5391 89.6276 69.2298 89.582 68.9434C89.543 68.6504 89.4779 68.403 89.3867 68.2012C89.2956 67.9928 89.1491 67.8659 88.9473 67.8203L87.0625 67.3906C87.0365 67.3906 86.9974 67.3646 86.9453 67.3125C86.8932 67.2539 86.8607 67.2116 86.8477 67.1855C86.8411 67.1725 86.8379 67.1562 86.8379 67.1367C86.8314 67.1237 86.8281 67.1042 86.8281 67.0781ZM93.3223 67.8984C93.3223 67.8398 93.3255 67.7812 93.332 67.7227C93.3385 67.6576 93.3516 67.6022 93.3711 67.5566C93.3906 67.5046 93.4199 67.4622 93.459 67.4297C93.5046 67.3971 93.5664 67.3809 93.6445 67.3809C93.7096 67.3809 93.7812 67.4329 93.8594 67.5371C93.944 67.6348 94.0286 67.7617 94.1133 67.918C94.1979 68.0677 94.2793 68.2337 94.3574 68.416C94.4421 68.5983 94.5137 68.7676 94.5723 68.9238C94.6374 69.0736 94.6895 69.2038 94.7285 69.3145C94.7676 69.4251 94.7904 69.4837 94.7969 69.4902C94.8815 69.2624 94.9759 69.015 95.0801 68.748C95.1842 68.4811 95.3112 68.2337 95.4609 68.0059C95.6172 67.7715 95.7995 67.5762 96.0078 67.4199C96.2227 67.2637 96.4831 67.1855 96.7891 67.1855C96.9453 67.1855 97.0918 67.2116 97.2285 67.2637C97.3717 67.3092 97.4954 67.3809 97.5996 67.4785C97.7103 67.5697 97.7982 67.6803 97.8633 67.8105C97.9284 67.9408 97.9609 68.0905 97.9609 68.2598C97.9609 68.403 97.9023 68.5039 97.7852 68.5625C97.6745 68.6211 97.5475 68.6504 97.4043 68.6504H97.3066L96.8867 68.2305C96.8737 68.2305 96.8639 68.2272 96.8574 68.2207C96.8444 68.2207 96.8314 68.2207 96.8184 68.2207C96.8118 68.2142 96.8021 68.2109 96.7891 68.2109C96.5612 68.2109 96.3822 68.276 96.252 68.4062C96.1283 68.5299 96.0339 68.6862 95.9688 68.875C95.9036 69.0573 95.8613 69.2526 95.8418 69.4609C95.8288 69.6628 95.8223 69.8483 95.8223 70.0176C95.8223 70.1478 95.8353 70.2812 95.8613 70.418C95.8874 70.5482 95.9167 70.6784 95.9492 70.8086C95.9818 70.9323 96.0111 71.0625 96.0371 71.1992C96.0632 71.3294 96.0762 71.4661 96.0762 71.6094C96.0762 71.8828 95.9297 72.0195 95.6367 72.0195C95.474 72.0195 95.3047 71.9349 95.1289 71.7656C94.9531 71.5898 94.7773 71.3685 94.6016 71.1016C94.4323 70.8346 94.2695 70.5417 94.1133 70.2227C93.957 69.8971 93.8203 69.5814 93.7031 69.2754C93.5859 68.9694 93.4915 68.6927 93.4199 68.4453C93.3548 68.1979 93.3223 68.0156 93.3223 67.8984ZM98.3125 70.0176C98.3125 69.6139 98.4069 69.2396 98.5957 68.8945C98.7845 68.543 99.0319 68.2435 99.3379 67.9961C99.6504 67.7422 99.9987 67.5436 100.383 67.4004C100.773 67.2572 101.167 67.1855 101.564 67.1855C101.786 67.1855 101.981 67.2572 102.15 67.4004C102.326 67.5436 102.473 67.7194 102.59 67.9277C102.707 68.1296 102.795 68.3444 102.854 68.5723C102.919 68.8001 102.951 68.9987 102.951 69.168C102.951 69.5326 102.863 69.8874 102.688 70.2324C102.512 70.571 102.284 70.8737 102.004 71.1406C101.724 71.401 101.408 71.6126 101.057 71.7754C100.705 71.9382 100.354 72.0195 100.002 72.0195C99.6895 72.0195 99.4258 71.9674 99.2109 71.8633C98.9961 71.7526 98.8236 71.6094 98.6934 71.4336C98.5632 71.2513 98.4655 71.0397 98.4004 70.7988C98.3418 70.5514 98.3125 70.291 98.3125 70.0176ZM99.1426 70.1152C99.1426 70.2845 99.1556 70.4342 99.1816 70.5645C99.2142 70.6882 99.2663 70.7956 99.3379 70.8867C99.416 70.9779 99.5169 71.0495 99.6406 71.1016C99.7643 71.1471 99.9173 71.1699 100.1 71.1699C100.34 71.1699 100.581 71.1048 100.822 70.9746C101.063 70.8379 101.278 70.6686 101.467 70.4668C101.662 70.2585 101.818 70.0306 101.936 69.7832C102.053 69.5358 102.111 69.2949 102.111 69.0605C102.111 68.9564 102.102 68.8424 102.082 68.7188C102.062 68.5951 102.03 68.4811 101.984 68.377C101.939 68.2728 101.874 68.1849 101.789 68.1133C101.704 68.0417 101.597 68.0059 101.467 68.0059C101.35 68.0059 101.21 68.0449 101.047 68.123C100.891 68.2012 100.725 68.3021 100.549 68.4258C100.38 68.5495 100.21 68.6895 100.041 68.8457C99.8783 69.002 99.7285 69.1582 99.5918 69.3145C99.4551 69.4707 99.3444 69.6204 99.2598 69.7637C99.1816 69.9069 99.1426 70.0241 99.1426 70.1152ZM103.566 66.4727C103.566 66.2839 103.553 66.1016 103.527 65.9258C103.501 65.7435 103.495 65.584 103.508 65.4473C103.521 65.304 103.57 65.1901 103.654 65.1055C103.745 65.0208 103.908 64.9785 104.143 64.9785C104.214 65.1283 104.283 65.3561 104.348 65.6621C104.419 65.9681 104.488 66.3197 104.553 66.7168C104.618 67.1139 104.68 67.5469 104.738 68.0156C104.797 68.4779 104.849 68.9434 104.895 69.4121C104.947 69.8809 104.989 70.3431 105.021 70.7988C105.061 71.248 105.09 71.6582 105.109 72.0293C104.895 72.1725 104.722 72.1823 104.592 72.0586C104.462 71.9349 104.354 71.7266 104.27 71.4336C104.185 71.1341 104.12 70.7728 104.074 70.3496C104.029 69.9199 103.983 69.4772 103.938 69.0215C103.898 68.5592 103.85 68.1068 103.791 67.6641C103.732 67.2148 103.658 66.8177 103.566 66.4727Z" fill="white"/>
</svg>
