<svg width="77" height="32" viewBox="0 0 77 32" fill="none" xmlns="http://www.w3.org/2000/svg">
<rect width="77" height="32" rx="16" fill="#73B0D0"/>
<path d="M10.4727 18.1289C10.4727 18.0508 10.4531 17.8945 10.4141 17.6602C10.3828 17.418 10.3242 17.0977 10.2383 16.6992C9.74609 16.8477 9.35156 16.9102 9.05469 16.8867C8.76562 16.8555 8.5625 16.7812 8.44531 16.6641C8.32812 16.5469 8.29688 16.4102 8.35156 16.2539C8.40625 16.0977 8.52734 15.9688 8.71484 15.8672C8.91016 15.7578 9.16797 15.6992 9.48828 15.6914C9.81641 15.6758 10.1992 15.7461 10.6367 15.9023C10.668 15.8633 10.6914 15.7812 10.707 15.6562C10.7305 15.5312 10.7539 15.3867 10.7773 15.2227C10.8008 15.0586 10.8242 14.8867 10.8477 14.707C10.8789 14.5273 10.9023 14.3633 10.918 14.2148C10.9414 14.0664 10.9609 13.9414 10.9766 13.8398C10.9922 13.7305 11.0117 13.6758 11.0352 13.6758C11.082 13.6445 11.1562 13.6211 11.2578 13.6055C11.3594 13.5898 11.457 13.5781 11.5508 13.5703C11.6758 13.5547 11.8047 13.5469 11.9375 13.5469L12.0898 15.4688H12.9688C12.9688 15.4531 12.9727 15.3867 12.9805 15.2695C12.9883 15.1523 13 15.0117 13.0156 14.8477C13.0391 14.6758 13.0664 14.4922 13.0977 14.2969C13.1367 14.1016 13.1836 13.9258 13.2383 13.7695C13.293 13.6055 13.3555 13.4688 13.4258 13.3594C13.5039 13.25 13.5977 13.1953 13.707 13.1953C13.7383 13.1953 13.7852 13.1992 13.8477 13.207C13.9102 13.207 13.9688 13.2148 14.0234 13.2305C14.0781 13.2461 14.125 13.2734 14.1641 13.3125C14.2109 13.3438 14.2344 13.3945 14.2344 13.4648V15.2227C14.3203 15.2539 14.4336 15.2852 14.5742 15.3164C14.7227 15.3477 14.8828 15.3789 15.0547 15.4102C15.2344 15.4336 15.4141 15.4609 15.5938 15.4922C15.7734 15.5234 15.9375 15.5586 16.0859 15.5977C16.2344 15.6367 16.3555 15.6836 16.4492 15.7383C16.543 15.7852 16.5898 15.8398 16.5898 15.9023C16.5352 16.0664 16.4219 16.1875 16.25 16.2656C16.0859 16.3359 15.8984 16.3945 15.6875 16.4414C15.4844 16.4805 15.2773 16.5195 15.0664 16.5586C14.8633 16.5898 14.6953 16.6406 14.5625 16.7109C14.4375 16.7812 14.3633 16.8828 14.3398 17.0156C14.3242 17.1484 14.4062 17.3359 14.5859 17.5781C14.6719 17.5781 14.7812 17.5703 14.9141 17.5547C15.0469 17.5391 15.1836 17.5234 15.3242 17.5078C15.4648 17.4922 15.6055 17.4844 15.7461 17.4844C15.8867 17.4844 16.0117 17.5 16.1211 17.5312C16.2305 17.5625 16.3203 17.6172 16.3906 17.6953C16.4609 17.7734 16.4961 17.8828 16.4961 18.0234C16.4961 18.1484 16.418 18.25 16.2617 18.3281C16.1133 18.4062 15.9375 18.4727 15.7344 18.5273C15.5312 18.582 15.332 18.625 15.1367 18.6562C14.9492 18.6875 14.8125 18.7148 14.7266 18.7383C14.75 18.8789 14.7773 19.0508 14.8086 19.2539C14.8398 19.4492 14.8477 19.6406 14.832 19.8281C14.8242 20.0156 14.7773 20.1797 14.6914 20.3203C14.6055 20.4609 14.4531 20.5312 14.2344 20.5312C14.0703 20.4766 13.9492 20.3945 13.8711 20.2852C13.8008 20.168 13.7422 20.043 13.6953 19.9102C13.6562 19.7695 13.6211 19.6367 13.5898 19.5117C13.5586 19.3789 13.5039 19.2695 13.4258 19.1836C13.3477 19.0977 13.2305 19.0508 13.0742 19.043C12.918 19.0273 12.6992 19.0664 12.418 19.1602C12.418 19.3008 12.418 19.4648 12.418 19.6523C12.418 19.832 12.3984 20.0078 12.3594 20.1797C12.3281 20.3438 12.2617 20.4844 12.1602 20.6016C12.0586 20.7109 11.9102 20.7656 11.7148 20.7656C11.6445 20.7656 11.5625 20.707 11.4688 20.5898C11.3828 20.4727 11.2891 20.332 11.1875 20.168C11.0938 19.9961 10.9961 19.8281 10.8945 19.6641C10.793 19.5 10.6953 19.3672 10.6016 19.2656C10.1328 19.2188 9.76953 19.168 9.51172 19.1133C9.26172 19.0508 9.08984 18.9883 8.99609 18.9258C8.90234 18.8633 8.875 18.8008 8.91406 18.7383C8.95312 18.668 9.02344 18.6016 9.125 18.5391C9.38281 18.4062 9.83203 18.2695 10.4727 18.1289ZM11.9609 17.4727C11.9609 17.543 11.9805 17.5977 12.0195 17.6367C12.0586 17.6758 12.1055 17.707 12.1602 17.7305C12.2148 17.7461 12.2695 17.7578 12.3242 17.7656C12.3867 17.7656 12.4375 17.7656 12.4766 17.7656C12.5391 17.7656 12.6133 17.7617 12.6992 17.7539C12.7852 17.7383 12.8672 17.7188 12.9453 17.6953C13.0312 17.6719 13.1016 17.6367 13.1562 17.5898C13.2188 17.5352 13.25 17.4648 13.25 17.3789C13.25 17.207 13.207 17.0508 13.1211 16.9102C13.043 16.7695 12.918 16.6992 12.7461 16.6992C12.6523 16.6992 12.5586 16.7227 12.4648 16.7695C12.3711 16.8086 12.2852 16.8672 12.207 16.9453C12.1367 17.0156 12.0781 17.0977 12.0312 17.1914C11.9844 17.2852 11.9609 17.3789 11.9609 17.4727ZM16.2383 13.3125C16.2383 13.1562 16.2891 13.0547 16.3906 13.0078C16.5 12.9609 16.6172 12.9375 16.7422 12.9375C16.7656 12.9375 16.8086 12.9414 16.8711 12.9492C16.9414 12.957 16.9844 12.9609 17 12.9609C17.0234 13.2031 17.0469 13.4961 17.0703 13.8398C17.0938 14.1758 17.1211 14.543 17.1523 14.9414C17.1836 15.332 17.2227 15.7383 17.2695 16.1602C17.3164 16.582 17.3828 16.9961 17.4688 17.4023C17.5547 17.8008 17.6602 18.1836 17.7852 18.5508C17.9102 18.9102 18.0625 19.2227 18.2422 19.4883C18.2812 19.5586 18.3164 19.6133 18.3477 19.6523C18.3867 19.6836 18.4219 19.7109 18.4531 19.7344C18.4922 19.75 18.5352 19.7617 18.582 19.7695C18.6289 19.7695 18.6875 19.7695 18.7578 19.7695C19.0781 19.7695 19.3828 19.7148 19.6719 19.6055C19.9688 19.4961 20.2617 19.375 20.5508 19.2422C20.8398 19.1094 21.1328 18.9883 21.4297 18.8789C21.7266 18.7695 22.0391 18.7148 22.3672 18.7148C22.4375 18.7148 22.5273 18.7148 22.6367 18.7148C22.7461 18.707 22.8477 18.7109 22.9414 18.7266C23.0352 18.7422 23.1172 18.7812 23.1875 18.8438C23.2578 18.9062 23.293 19 23.293 19.125C23.293 19.2422 23.1875 19.3711 22.9766 19.5117C22.7656 19.6445 22.4961 19.7812 22.168 19.9219C21.8398 20.0547 21.4805 20.1875 21.0898 20.3203C20.707 20.4531 20.3359 20.5703 19.9766 20.6719C19.625 20.7734 19.3125 20.8555 19.0391 20.918C18.7656 20.9727 18.5859 21 18.5 21C18.2188 21 17.9688 20.9062 17.75 20.7188C17.5391 20.5234 17.3516 20.2656 17.1875 19.9453C17.0312 19.6172 16.8984 19.2461 16.7891 18.832C16.6797 18.4102 16.5898 17.9727 16.5195 17.5195C16.4492 17.0664 16.3945 16.6172 16.3555 16.1719C16.3164 15.7266 16.2891 15.3125 16.2734 14.9297C16.2578 14.5469 16.2461 14.2109 16.2383 13.9219C16.2383 13.6328 16.2383 13.4297 16.2383 13.3125ZM23.75 18.6211C23.75 18.1367 23.8633 17.6875 24.0898 17.2734C24.3164 16.8516 24.6133 16.4922 24.9805 16.1953C25.3555 15.8906 25.7734 15.6523 26.2344 15.4805C26.7031 15.3086 27.1758 15.2227 27.6523 15.2227C27.918 15.2227 28.1523 15.3086 28.3555 15.4805C28.5664 15.6523 28.7422 15.8633 28.8828 16.1133C29.0234 16.3555 29.1289 16.6133 29.1992 16.8867C29.2773 17.1602 29.3164 17.3984 29.3164 17.6016C29.3164 18.0391 29.2109 18.4648 29 18.8789C28.7891 19.2852 28.5156 19.6484 28.1797 19.9688C27.8438 20.2812 27.4648 20.5352 27.043 20.7305C26.6211 20.9258 26.1992 21.0234 25.7773 21.0234C25.4023 21.0234 25.0859 20.9609 24.8281 20.8359C24.5703 20.7031 24.3633 20.5312 24.207 20.3203C24.0508 20.1016 23.9336 19.8477 23.8555 19.5586C23.7852 19.2617 23.75 18.9492 23.75 18.6211ZM24.7461 18.7383C24.7461 18.9414 24.7617 19.1211 24.793 19.2773C24.832 19.4258 24.8945 19.5547 24.9805 19.6641C25.0742 19.7734 25.1953 19.8594 25.3438 19.9219C25.4922 19.9766 25.6758 20.0039 25.8945 20.0039C26.1836 20.0039 26.4727 19.9258 26.7617 19.7695C27.0508 19.6055 27.3086 19.4023 27.5352 19.1602C27.7695 18.9102 27.957 18.6367 28.0977 18.3398C28.2383 18.043 28.3086 17.7539 28.3086 17.4727C28.3086 17.3477 28.2969 17.2109 28.2734 17.0625C28.25 16.9141 28.2109 16.7773 28.1562 16.6523C28.1016 16.5273 28.0234 16.4219 27.9219 16.3359C27.8203 16.25 27.6914 16.207 27.5352 16.207C27.3945 16.207 27.2266 16.2539 27.0312 16.3477C26.8438 16.4414 26.6445 16.5625 26.4336 16.7109C26.2305 16.8594 26.0273 17.0273 25.8242 17.2148C25.6289 17.4023 25.4492 17.5898 25.2852 17.7773C25.1211 17.9648 24.9883 18.1445 24.8867 18.3164C24.793 18.4883 24.7461 18.6289 24.7461 18.7383ZM29.5156 15.9844C29.5156 15.8516 29.543 15.7305 29.5977 15.6211C29.6602 15.5117 29.7656 15.457 29.9141 15.457C29.9219 15.457 29.9336 15.4609 29.9492 15.4688C29.9648 15.4688 29.9805 15.4688 29.9961 15.4688C30.0117 15.4688 30.0273 15.4688 30.043 15.4688C30.0664 15.4844 30.1094 15.5234 30.1719 15.5859C30.2422 15.6484 30.2852 15.6953 30.3008 15.7266C30.3242 15.7734 30.3711 15.875 30.4414 16.0312C30.5195 16.1875 30.6094 16.3711 30.7109 16.582C30.8203 16.7852 30.9297 17.0039 31.0391 17.2383C31.1562 17.4648 31.2656 17.6836 31.3672 17.8945C31.4766 18.1055 31.5664 18.2891 31.6367 18.4453C31.7148 18.5938 31.7695 18.6914 31.8008 18.7383C31.8086 18.7617 31.8438 18.8086 31.9062 18.8789C31.9766 18.9414 32.0273 18.9805 32.0586 18.9961C32.1211 18.8867 32.1836 18.7227 32.2461 18.5039C32.3086 18.2852 32.3711 18.0469 32.4336 17.7891C32.5039 17.5234 32.5742 17.2539 32.6445 16.9805C32.7148 16.6992 32.793 16.4492 32.8789 16.2305C32.9727 16.0039 33.0742 15.8203 33.1836 15.6797C33.293 15.5312 33.418 15.457 33.5586 15.457C33.7617 15.457 33.9531 15.5352 34.1328 15.6914C34.3203 15.8477 34.4961 16.0508 34.6602 16.3008C34.832 16.5508 34.9922 16.832 35.1406 17.1445C35.2969 17.4492 35.4414 17.7539 35.5742 18.0586C35.7148 18.3555 35.8438 18.6328 35.9609 18.8906C36.0859 19.1406 36.207 19.3398 36.3242 19.4883C36.418 19.457 36.4961 19.3789 36.5586 19.2539C36.6211 19.1289 36.668 19 36.6992 18.8672C36.7383 18.7266 36.7656 18.5977 36.7812 18.4805C36.7969 18.3555 36.8086 18.2734 36.8164 18.2344C36.8242 18.1484 36.8359 18.0156 36.8516 17.8359C36.8672 17.6484 36.8828 17.4375 36.8984 17.2031C36.9219 16.9688 36.9414 16.7266 36.957 16.4766C36.9727 16.2266 36.9883 15.9844 37.0039 15.75C37.0273 15.5156 37.043 15.3086 37.0508 15.1289C37.0664 14.9414 37.0742 14.8086 37.0742 14.7305C37.0898 14.7305 37.1289 14.7266 37.1914 14.7188C37.2539 14.7031 37.2969 14.6953 37.3203 14.6953C37.4297 14.6953 37.5273 14.707 37.6133 14.7305C37.6992 14.7539 37.7656 14.8359 37.8125 14.9766C37.8125 15.0312 37.8125 15.1289 37.8125 15.2695C37.8203 15.4102 37.8242 15.5625 37.8242 15.7266C37.832 15.8828 37.8359 16.0352 37.8359 16.1836C37.8438 16.3242 37.8477 16.4219 37.8477 16.4766C37.8477 16.6016 37.8477 16.7969 37.8477 17.0625C37.8555 17.3203 37.8516 17.6094 37.8359 17.9297C37.8281 18.25 37.8047 18.5781 37.7656 18.9141C37.7266 19.2422 37.6641 19.5469 37.5781 19.8281C37.5 20.1016 37.3906 20.3281 37.25 20.5078C37.1094 20.6797 36.9336 20.7656 36.7227 20.7656C36.4805 20.7656 36.2539 20.707 36.043 20.5898C35.832 20.4727 35.6328 20.3164 35.4453 20.1211C35.2656 19.9258 35.0938 19.7109 34.9297 19.4766C34.7656 19.2344 34.6133 18.9922 34.4727 18.75C34.3398 18.5 34.2148 18.2656 34.0977 18.0469C33.9883 17.8203 33.8906 17.6289 33.8047 17.4727C33.7422 17.6133 33.6836 17.7891 33.6289 18C33.582 18.2109 33.5273 18.4414 33.4648 18.6914C33.4023 18.9336 33.332 19.1797 33.2539 19.4297C33.1758 19.6719 33.0859 19.8945 32.9844 20.0977C32.8906 20.293 32.7773 20.4531 32.6445 20.5781C32.5195 20.7031 32.375 20.7656 32.2109 20.7656C32.1328 20.7656 32.0625 20.7695 32 20.7773C31.9375 20.7773 31.8789 20.7734 31.8242 20.7656C31.7695 20.75 31.7188 20.7227 31.6719 20.6836C31.625 20.6445 31.582 20.582 31.543 20.4961L29.5391 16.2188C29.5391 16.2109 29.5352 16.1797 29.5273 16.125C29.5195 16.0625 29.5156 16.0156 29.5156 15.9844ZM43.7422 12.7266C44.0469 12.5703 44.332 12.457 44.5977 12.3867C44.8711 12.3086 45.1406 12.2578 45.4062 12.2344C45.6797 12.2031 45.9531 12.1875 46.2266 12.1875C46.5078 12.1875 46.8125 12.1875 47.1406 12.1875C47.2031 12.1875 47.3086 12.1914 47.457 12.1992C47.6133 12.1992 47.7773 12.1992 47.9492 12.1992C48.1289 12.1992 48.293 12.1992 48.4414 12.1992C48.5898 12.1992 48.6953 12.1992 48.7578 12.1992C48.8438 12.2305 48.9102 12.2852 48.957 12.3633C49.0039 12.4414 49.0391 12.5234 49.0625 12.6094C49.0859 12.6953 49.1016 12.7852 49.1094 12.8789C49.1172 12.9648 49.1211 13.0312 49.1211 13.0781H45.2539V15.5977H49.4492C49.4492 15.8633 49.3672 16.0742 49.2031 16.2305C49.0391 16.3789 48.832 16.4961 48.582 16.582C48.3398 16.668 48.0664 16.7266 47.7617 16.7578C47.457 16.7812 47.168 16.793 46.8945 16.793C46.6211 16.7852 46.3789 16.7734 46.168 16.7578C45.957 16.7422 45.8164 16.7344 45.7461 16.7344V16.9805C45.7461 17.3086 45.8242 17.6211 45.9805 17.918C46.1367 18.207 46.3086 18.4883 46.4961 18.7617C46.6914 19.0352 46.8672 19.3047 47.0234 19.5703C47.1875 19.8359 47.2695 20.1055 47.2695 20.3789C47.2695 20.5508 47.2344 20.7031 47.1641 20.8359C47.0938 20.9609 46.9648 21.0234 46.7773 21.0234C46.582 21.0234 46.3867 20.9219 46.1914 20.7188C46.0039 20.5156 45.8203 20.2461 45.6406 19.9102C45.4609 19.5664 45.2891 19.1758 45.125 18.7383C44.9688 18.293 44.8164 17.832 44.668 17.3555C44.5273 16.8711 44.3984 16.3945 44.2812 15.9258C44.1719 15.4492 44.0781 15.0078 44 14.6016C43.9219 14.1875 43.8594 13.8242 43.8125 13.5117C43.7656 13.1992 43.7422 12.9727 43.7422 12.832V12.7266ZM50 17.7422C50 17.3203 50.0508 16.8984 50.1523 16.4766C50.2539 16.0547 50.4141 15.6758 50.6328 15.3398C50.8594 15.0039 51.1484 14.7305 51.5 14.5195C51.8594 14.3086 52.293 14.2031 52.8008 14.2031C53.0898 14.2031 53.3438 14.2578 53.5625 14.3672C53.7812 14.4688 53.9648 14.6055 54.1133 14.7773C54.2617 14.9492 54.3711 15.1523 54.4414 15.3867C54.5195 15.6133 54.5586 15.8516 54.5586 16.1016C54.5586 16.5 54.4648 16.8867 54.2773 17.2617C54.0977 17.6367 53.8516 17.9688 53.5391 18.2578C53.2344 18.5391 52.8828 18.7539 52.4844 18.9023C52.0859 19.043 51.6797 19.0742 51.2656 18.9961C51.2734 19.2227 51.3477 19.4062 51.4883 19.5469C51.6367 19.6797 51.8125 19.7812 52.0156 19.8516C52.2188 19.9219 52.4297 19.9688 52.6484 19.9922C52.8672 20.0078 53.0625 20.0156 53.2344 20.0156C53.4141 20.0156 53.582 20 53.7383 19.9688C53.8945 19.9375 54.0508 19.9023 54.207 19.8633C54.3633 19.8242 54.5195 19.7891 54.6758 19.7578C54.8398 19.7266 55.0117 19.7109 55.1914 19.7109C55.2617 19.7109 55.332 19.7148 55.4023 19.7227C55.4727 19.7305 55.5391 19.75 55.6016 19.7812C55.6641 19.8047 55.7148 19.8477 55.7539 19.9102C55.793 19.9648 55.8125 20.0352 55.8125 20.1211C55.8125 20.2695 55.7578 20.3945 55.6484 20.4961C55.5391 20.5898 55.3984 20.6719 55.2266 20.7422C55.0625 20.8125 54.8789 20.8672 54.6758 20.9062C54.4727 20.9375 54.2734 20.9648 54.0781 20.9883C53.8906 21.0039 53.7148 21.0117 53.5508 21.0117C53.3945 21.0195 53.2773 21.0234 53.1992 21.0234C52.6992 21.0234 52.25 20.9453 51.8516 20.7891C51.4531 20.625 51.1172 20.4023 50.8438 20.1211C50.5703 19.832 50.3594 19.4883 50.2109 19.0898C50.0703 18.6836 50 18.2344 50 17.7422ZM51.2422 16.9805C51.2422 17.2539 51.2773 17.4531 51.3477 17.5781C51.4258 17.7031 51.6094 17.7656 51.8984 17.7656C52.1016 17.7656 52.3008 17.7305 52.4961 17.6602C52.6914 17.582 52.8672 17.4766 53.0234 17.3438C53.1875 17.2109 53.3164 17.0547 53.4102 16.875C53.5039 16.6953 53.5508 16.5 53.5508 16.2891C53.5508 16.1719 53.5391 16.0508 53.5156 15.9258C53.5 15.8008 53.4609 15.6875 53.3984 15.5859C53.3359 15.4766 53.2539 15.3906 53.1523 15.3281C53.0586 15.2578 52.9336 15.2227 52.7773 15.2227C52.543 15.2227 52.3281 15.2773 52.1328 15.3867C51.9453 15.4883 51.7852 15.625 51.6523 15.7969C51.5195 15.9609 51.418 16.1484 51.3477 16.3594C51.2773 16.5625 51.2422 16.7695 51.2422 16.9805ZM56.5391 17.7422C56.5391 17.3203 56.5898 16.8984 56.6914 16.4766C56.793 16.0547 56.9531 15.6758 57.1719 15.3398C57.3984 15.0039 57.6875 14.7305 58.0391 14.5195C58.3984 14.3086 58.832 14.2031 59.3398 14.2031C59.6289 14.2031 59.8828 14.2578 60.1016 14.3672C60.3203 14.4688 60.5039 14.6055 60.6523 14.7773C60.8008 14.9492 60.9102 15.1523 60.9805 15.3867C61.0586 15.6133 61.0977 15.8516 61.0977 16.1016C61.0977 16.5 61.0039 16.8867 60.8164 17.2617C60.6367 17.6367 60.3906 17.9688 60.0781 18.2578C59.7734 18.5391 59.4219 18.7539 59.0234 18.9023C58.625 19.043 58.2188 19.0742 57.8047 18.9961C57.8125 19.2227 57.8867 19.4062 58.0273 19.5469C58.1758 19.6797 58.3516 19.7812 58.5547 19.8516C58.7578 19.9219 58.9688 19.9688 59.1875 19.9922C59.4062 20.0078 59.6016 20.0156 59.7734 20.0156C59.9531 20.0156 60.1211 20 60.2773 19.9688C60.4336 19.9375 60.5898 19.9023 60.7461 19.8633C60.9023 19.8242 61.0586 19.7891 61.2148 19.7578C61.3789 19.7266 61.5508 19.7109 61.7305 19.7109C61.8008 19.7109 61.8711 19.7148 61.9414 19.7227C62.0117 19.7305 62.0781 19.75 62.1406 19.7812C62.2031 19.8047 62.2539 19.8477 62.293 19.9102C62.332 19.9648 62.3516 20.0352 62.3516 20.1211C62.3516 20.2695 62.2969 20.3945 62.1875 20.4961C62.0781 20.5898 61.9375 20.6719 61.7656 20.7422C61.6016 20.8125 61.418 20.8672 61.2148 20.9062C61.0117 20.9375 60.8125 20.9648 60.6172 20.9883C60.4297 21.0039 60.2539 21.0117 60.0898 21.0117C59.9336 21.0195 59.8164 21.0234 59.7383 21.0234C59.2383 21.0234 58.7891 20.9453 58.3906 20.7891C57.9922 20.625 57.6562 20.4023 57.3828 20.1211C57.1094 19.832 56.8984 19.4883 56.75 19.0898C56.6094 18.6836 56.5391 18.2344 56.5391 17.7422ZM57.7812 16.9805C57.7812 17.2539 57.8164 17.4531 57.8867 17.5781C57.9648 17.7031 58.1484 17.7656 58.4375 17.7656C58.6406 17.7656 58.8398 17.7305 59.0352 17.6602C59.2305 17.582 59.4062 17.4766 59.5625 17.3438C59.7266 17.2109 59.8555 17.0547 59.9492 16.875C60.043 16.6953 60.0898 16.5 60.0898 16.2891C60.0898 16.1719 60.0781 16.0508 60.0547 15.9258C60.0391 15.8008 60 15.6875 59.9375 15.5859C59.875 15.4766 59.793 15.3906 59.6914 15.3281C59.5977 15.2578 59.4727 15.2227 59.3164 15.2227C59.082 15.2227 58.8672 15.2773 58.6719 15.3867C58.4844 15.4883 58.3242 15.625 58.1914 15.7969C58.0586 15.9609 57.957 16.1484 57.8867 16.3594C57.8164 16.5625 57.7812 16.7695 57.7812 16.9805ZM65.3281 20.4727C65.4531 20.3867 65.6016 20.2773 65.7734 20.1445C65.9531 20.0039 66.1328 19.8555 66.3125 19.6992C66.4922 19.543 66.6602 19.3789 66.8164 19.207C66.9727 19.0352 67.0938 18.8711 67.1797 18.7148C67.2734 18.5508 67.3203 18.3984 67.3203 18.2578C67.3203 18.1172 67.25 18 67.1094 17.9062C66.8594 17.9062 66.5859 17.918 66.2891 17.9414C65.9922 17.957 65.6953 17.9648 65.3984 17.9648C65.1016 17.957 64.8125 17.9297 64.5312 17.8828C64.2578 17.8359 64.0117 17.75 63.793 17.625C63.5742 17.5 63.3984 17.3242 63.2656 17.0977C63.1406 16.8633 63.0781 16.5664 63.0781 16.207C63.0781 15.7852 63.1562 15.4062 63.3125 15.0703C63.4766 14.7266 63.6914 14.4258 63.957 14.168C64.2227 13.9023 64.5195 13.6719 64.8477 13.4766C65.1836 13.2734 65.5195 13.1016 65.8555 12.9609C66.0586 13.0156 66.2461 13.1133 66.418 13.2539C66.5898 13.3945 66.7383 13.5508 66.8633 13.7227C66.8086 13.8945 66.6992 14.0273 66.5352 14.1211C66.3789 14.2148 66.1953 14.2969 65.9844 14.3672C65.7812 14.4375 65.5664 14.5117 65.3398 14.5898C65.1133 14.668 64.9062 14.7734 64.7188 14.9062C64.5391 15.0312 64.3867 15.1992 64.2617 15.4102C64.1367 15.6133 64.0742 15.8828 64.0742 16.2188C64.0742 16.4688 64.1367 16.6523 64.2617 16.7695C64.3867 16.8867 64.5508 16.9688 64.7539 17.0156C64.957 17.0547 65.1875 17.0703 65.4453 17.0625C65.7031 17.0469 65.9648 17.0273 66.2305 17.0039C66.5039 16.9805 66.7695 16.9688 67.0273 16.9688C67.2852 16.9609 67.5156 16.9922 67.7188 17.0625C67.9219 17.125 68.082 17.2305 68.1992 17.3789C68.3242 17.5273 68.3867 17.7461 68.3867 18.0352C68.3867 18.1602 68.3438 18.3203 68.2578 18.5156C68.1797 18.7109 68.0703 18.9219 67.9297 19.1484C67.7969 19.3672 67.6367 19.5859 67.4492 19.8047C67.2695 20.0234 67.0781 20.2227 66.875 20.4023C66.6797 20.5742 66.4805 20.7188 66.2773 20.8359C66.082 20.9453 65.8984 21 65.7266 21C65.5625 21 65.4531 20.9414 65.3984 20.8242C65.3516 20.707 65.3281 20.5898 65.3281 20.4727Z" fill="white"/>
</svg>
