<?xml version="1.0" encoding="UTF-8"?>
<svg version="1.1" xmlns="http://www.w3.org/2000/svg" width="512" height="512">
<path d="M0 0 C33.4248375 -0.83380831 64.04405957 11.22542422 88.21289062 34.18774414 C95.0790523 40.89877463 100.85403637 47.891823 105.7890625 56.16015625 C106.16901367 56.79260254 106.54896484 57.42504883 106.94042969 58.07666016 C118.14446425 77.0810304 123.19825957 96.86742779 123.1015625 118.91015625 C123.09882828 119.89944626 123.09882828 119.89944626 123.09603882 120.90872192 C123.04896974 131.03378619 122.52516709 140.3947098 119.7890625 150.16015625 C119.47195313 151.35382813 119.15484375 152.5475 118.828125 153.77734375 C114.01674896 169.91763358 105.58746829 184.32999466 94.7890625 197.16015625 C94.23476563 197.85367188 93.68046875 198.5471875 93.109375 199.26171875 C89.45452771 203.74631515 85.22224936 207.45833271 80.7890625 211.16015625 C81.49482422 212.57554687 81.49482422 212.57554687 82.21484375 214.01953125 C90.93499743 231.831058 93.5550624 248.47915661 88.0546875 267.73046875 C87.06276711 270.41845054 86.00025228 272.83164725 84.70996094 275.37451172 C84.17021637 276.44184036 84.17021637 276.44184036 83.61956787 277.5307312 C83.3455011 278.06844147 83.07143433 278.60615173 82.7890625 279.16015625 C41.98962234 279.41209988 1.19028382 279.60584633 -39.60977925 279.72187487 C-44.42987689 279.73563215 -49.249973 279.74986974 -54.07006836 279.7644043 C-55.02963628 279.76728971 -55.9892042 279.77017513 -56.97784994 279.77314798 C-72.50190274 279.82097335 -88.02550609 279.90768144 -103.54929253 280.00883701 C-119.48589214 280.1118141 -135.42225685 280.17282592 -151.3591755 280.19512969 C-161.18825604 280.21020078 -171.01606609 280.25774493 -180.84475539 280.34723739 C-187.59067456 280.40552033 -194.33593988 280.42292708 -201.08209237 280.4086714 C-204.97106006 280.40164574 -208.85781303 280.41217671 -212.74638367 280.47141647 C-239.70668103 280.86200078 -239.70668103 280.86200078 -247.35762024 273.87898254 C-250.00047779 270.98637104 -250.00047779 270.98637104 -252.2109375 268.16015625 C-253.76419022 266.56775031 -255.3251709 264.9827919 -256.8984375 263.41015625 C-276.00180357 241.15210588 -284.4982508 214.32982677 -283.2109375 185.16015625 C-281.51387426 163.14682159 -273.27593147 143.10593211 -259.2109375 126.16015625 C-258.51355469 125.2990625 -257.81617188 124.43796875 -257.09765625 123.55078125 C-243.94499437 108.06574606 -225.69227122 97.43936996 -206.2109375 92.16015625 C-205.09074219 91.84175781 -203.97054687 91.52335937 -202.81640625 91.1953125 C-177.32135751 84.98608065 -148.58651449 89.0429612 -126.07421875 102.578125 C-117.31230662 108.05878713 -117.31230662 108.05878713 -115.2109375 110.16015625 C-115.09089355 109.48662109 -114.97084961 108.81308594 -114.84716797 108.11914062 C-108.52997474 73.24680775 -94.64269647 42.62830444 -64.7722168 21.74853516 C-45.2082776 8.61369739 -23.60805634 1.17753079 0 0 Z " fill="#EBEAEA" transform="translate(293.2109375,158.83984375)"/>
<path d="M0 0 C10.17290244 8.83992386 19.1813772 18.12683729 26.12109375 29.75390625 C26.50104492 30.38635254 26.88099609 31.01879883 27.27246094 31.67041016 C38.4764955 50.6747804 43.53029082 70.46117779 43.43359375 92.50390625 C43.43177094 93.16343292 43.42994812 93.82295959 43.42807007 94.50247192 C43.38100099 104.62753619 42.85719834 113.9884598 40.12109375 123.75390625 C39.80398438 124.94757813 39.486875 126.14125 39.16015625 127.37109375 C34.34878021 143.51138358 25.91949954 157.92374466 15.12109375 170.75390625 C14.28964844 171.79417969 14.28964844 171.79417969 13.44140625 172.85546875 C9.84861001 177.26392684 5.78722845 181.48064758 1.12109375 184.75390625 C-1.87890625 184.75390625 -1.87890625 184.75390625 -3.421875 183.25 C-3.96457031 182.57066406 -4.50726563 181.89132812 -5.06640625 181.19140625 C-12.32204312 172.63850374 -19.47941156 168.05484964 -29.87890625 163.75390625 C-30.71035156 163.38910156 -31.54179687 163.02429688 -32.3984375 162.6484375 C-44.34616658 158.3397289 -62.20939995 159.06376974 -73.87890625 163.75390625 C-74.00265625 162.71234375 -74.12640625 161.67078125 -74.25390625 160.59765625 C-76.42303991 144.72489938 -82.14567458 131.93045174 -93.87890625 120.75390625 C-94.4409375 120.18414062 -95.00296875 119.614375 -95.58203125 119.02734375 C-103.04178188 111.96592932 -113.06670222 108.22473299 -122.87890625 105.75390625 C-123.76449219 105.47933594 -123.76449219 105.47933594 -124.66796875 105.19921875 C-138.98020997 102.31654119 -153.41182548 105.88789496 -165.98828125 112.80078125 C-167.87890625 113.75390625 -167.87890625 113.75390625 -169.87890625 113.75390625 C-171.33267767 111.80247449 -172.67648488 109.85128095 -174.00390625 107.81640625 C-178.81159174 100.67102989 -183.6674341 93.84850279 -190.94140625 89.06640625 C-193.3504508 87.03773715 -193.83032832 86.1072003 -194.265625 82.94140625 C-192.98182299 51.24983672 -175.87177776 23.82519142 -153.56640625 2.56640625 C-110.94073935 -35.11540678 -43.96122095 -35.78499387 0 0 Z " fill="#F3B725" transform="translate(372.87890625,185.24609375)"/>
<path d="M0 0 C2.81942603 2.00897544 4.68726424 3.60644718 5.46685791 7.08032227 C5.66256456 9.63943038 5.69295386 12.1522774 5.6640625 14.71875 C5.66884613 15.65424683 5.67362976 16.58974365 5.67855835 17.55358887 C5.6819536 19.52711676 5.67277739 21.50070118 5.65185547 23.47412109 C5.62508399 26.49053656 5.65161536 29.50323117 5.68359375 32.51953125 C5.68028958 34.44011236 5.67388321 36.36069116 5.6640625 38.28125 C5.67418365 39.18033081 5.68430481 40.07941162 5.69473267 41.0057373 C5.61158732 45.4602029 5.44030717 47.41835395 2.67724609 51.06835938 C0 53 0 53 -3.5 53.625 C-8.02505348 52.81695474 -9.23089674 51.64859098 -12 48 C-12.70583136 44.82660651 -12.65430252 41.73978275 -12.59375 38.5 C-12.59381042 37.13004883 -12.59381042 37.13004883 -12.59387207 35.73242188 C-12.5885225 33.80591939 -12.57096383 31.87941705 -12.54199219 29.953125 C-12.50013844 27.00973588 -12.50092565 24.06863656 -12.5078125 21.125 C-12.4973192 19.24998415 -12.48438035 17.37498006 -12.46875 15.5 C-12.46854858 14.62279297 -12.46834717 13.74558594 -12.46813965 12.84179688 C-12.37662698 8.10074556 -12.10719736 4.83360458 -9 1 C-5.86128812 -0.56935594 -3.46144178 -0.35201103 0 0 Z " fill="#F6C95B" transform="translate(301,66)"/>
<path d="M0 0 C6.60316158 4.73673503 12.22182708 11.06678649 17.94799805 16.81762695 C19.45572096 18.33078666 20.96881759 19.83842885 22.48242188 21.34570312 C23.44563392 22.30957474 24.4085364 23.27375584 25.37109375 24.23828125 C26.23661865 25.10493408 27.10214355 25.97158691 27.99389648 26.86450195 C30.60209179 29.64092697 30.95592653 30.52400652 31.3125 34.375 C31 38 31 38 29.375 40.375 C26.43721938 42.38506043 24.5603504 42.92733979 21 43 C16.46420802 40.7861705 13.17324686 37.49518563 9.640625 33.9765625 C9.0507782 33.3933725 8.4609314 32.8101825 7.85321045 32.20932007 C6.61355063 30.97974731 5.37655522 29.74748309 4.14208984 28.51269531 C2.25254307 26.62753717 0.3475654 24.75896548 -1.55859375 22.890625 C-2.76399865 21.69108596 -3.96845885 20.4905967 -5.171875 19.2890625 C-5.74162048 18.73368805 -6.31136597 18.1783136 -6.89837646 17.60610962 C-9.91492978 14.55415674 -11.82113759 12.37836356 -12 8 C-11.22362448 5.03565711 -10.37783439 3.39132848 -8.25 1.1875 C-5.06156933 -0.49528285 -3.58079506 -0.68861443 0 0 Z " fill="#F6C95B" transform="translate(419,388)"/>
<path d="M0 0 C0.96147949 -0.00145523 1.92295898 -0.00291046 2.91357422 -0.00440979 C4.94436679 -0.00275139 6.97517201 0.00880331 9.00585938 0.02954102 C12.11382448 0.05848966 15.22008314 0.05014977 18.328125 0.03710938 C20.30209162 0.04334711 22.27605286 0.05173832 24.25 0.0625 C25.64387939 0.05809654 25.64387939 0.05809654 27.06591797 0.05360413 C33.48973855 0.14750851 33.48973855 0.14750851 36.6953125 1.90649414 C38.87575013 4.33081611 39.04020547 6.3246521 39.296875 9.4921875 C39.01681877 12.75738859 37.4744877 14.34239669 35.125 16.49609375 C31.24815578 17.78837516 27.55387156 17.67823773 23.51171875 17.69921875 C22.66454788 17.70491882 21.81737701 17.7106189 20.9445343 17.7164917 C19.15159349 17.72593577 17.35863537 17.73247333 15.56567383 17.73632812 C12.83318492 17.74602038 10.10145262 17.77704337 7.36914062 17.80859375 C5.62500445 17.81512553 3.88086292 17.82037532 2.13671875 17.82421875 C1.32402023 17.83656555 0.51132172 17.84891235 -0.32600403 17.8616333 C-5.24041293 17.84249597 -8.61856214 17.22866283 -12.875 14.49609375 C-14.43971233 11.3666691 -14.57201958 7.88527152 -13.875 4.49609375 C-10.3397791 -0.76723963 -5.75823476 -0.06961278 0 0 Z " fill="#F6C95B" transform="translate(470.875,269.50390625)"/>
<path d="M0 0 C4.25855084 0.80913127 6.63689855 3.49742309 9.5480957 6.5461731 C10.1766748 7.17325668 10.80525391 7.80034027 11.45288086 8.44642639 C12.7710535 9.77159289 14.07822488 11.10778413 15.37475586 12.45413208 C17.35677489 14.50705934 19.37590398 16.51693618 21.40356445 18.52468872 C22.68330323 19.82115709 23.96072972 21.11991283 25.2355957 22.4211731 C25.83654053 23.0193837 26.43748535 23.6175943 27.05664062 24.2339325 C30.75777895 28.12698796 32.29991701 30.85554271 32.3605957 36.44851685 C31.01497171 39.39607416 30.27505026 40.99128957 27.3605957 42.44851685 C24.02896986 42.98157698 21.51625459 43.2400394 18.63427734 41.2661438 C13.07944479 36.20226296 7.71533888 30.9564764 2.41259766 25.63088989 C0.90487475 24.11773019 -0.60822188 22.61008799 -2.12182617 21.10281372 C-3.08503822 20.13894211 -4.04794069 19.17476101 -5.01049805 18.2102356 C-5.87602295 17.34358276 -6.74154785 16.47692993 -7.63330078 15.58401489 C-10.00833348 13.05579157 -10.5690812 12.08142469 -10.9519043 8.63601685 C-10.24565008 1.43222383 -6.57082033 -0.1769537 0 0 Z " fill="#F6C95B" transform="translate(155.639404296875,125.55148315429688)"/>
<path d="M0 0 C2.5 1.5 2.5 1.5 4 4 C4.86218915 10.5547151 4.86218915 10.5547151 2.88452148 13.86987305 C1.25150269 15.80623082 -0.46696426 17.57601707 -2.28125 19.34375 C-2.92815796 19.99831177 -3.57506592 20.65287354 -4.24157715 21.32727051 C-5.61054228 22.7016638 -6.98959992 24.06606897 -8.37792969 25.42089844 C-10.49395566 27.49407805 -12.56389447 29.6064872 -14.6328125 31.7265625 C-15.97140091 33.05986416 -17.31246901 34.39068188 -18.65625 35.71875 C-19.2711731 36.34986694 -19.88609619 36.98098389 -20.51965332 37.63122559 C-23.68332432 40.66193532 -25.82255058 42.38630018 -30.30664062 42.49804688 C-34 42 -34 42 -36.4375 40.3125 C-38.19954487 37.70467359 -38.84670385 36.14257113 -39 33 C-37.64278313 28.00845797 -34.55710081 25.15178938 -30.96875 21.640625 C-30.08117004 20.7558548 -30.08117004 20.7558548 -29.17565918 19.85321045 C-27.92838697 18.61264047 -26.67753204 17.37566342 -25.42333984 16.14208984 C-23.49962183 14.24962797 -21.5868744 12.34660854 -19.67578125 10.44140625 C-18.46156005 9.23635155 -17.24673689 8.03190303 -16.03125 6.828125 C-15.45725464 6.25837952 -14.88325928 5.68863403 -14.29187012 5.10162354 C-9.6323856 0.5259781 -6.61501428 -0.9020474 0 0 Z " fill="#F6C95B" transform="translate(446,126)"/>
</svg>
