<svg width="72" height="32" viewBox="0 0 72 32" fill="none" xmlns="http://www.w3.org/2000/svg">
<rect width="72" height="32" rx="16" fill="#B36F5A"/>
<path d="M12.7617 20.4961C12.7305 20.3711 12.6875 20.1914 12.6328 19.957C12.5859 19.7227 12.5312 19.4648 12.4688 19.1836C12.4141 18.9023 12.3594 18.6094 12.3047 18.3047C12.25 17.9922 12.1992 17.6914 12.1523 17.4023C12.1055 17.1055 12.0664 16.8359 12.0352 16.5938C12.0117 16.3438 12 16.1406 12 15.9844C12 15.9141 12.0078 15.793 12.0234 15.6211C12.0391 15.4492 12.0625 15.2695 12.0938 15.082C12.125 14.8945 12.1523 14.7188 12.1758 14.5547C12.207 14.3906 12.2344 14.2773 12.2578 14.2148C12.2812 14.207 12.3203 14.2031 12.375 14.2031C12.4375 14.2031 12.5 14.1992 12.5625 14.1914C12.6328 14.1836 12.6953 14.1797 12.75 14.1797C12.8125 14.1719 12.8555 14.168 12.8789 14.168C13.2539 14.168 13.6094 14.2422 13.9453 14.3906C14.2812 14.5391 14.6016 14.7266 14.9062 14.9531C15.2109 15.1797 15.5078 15.4336 15.7969 15.7148C16.0859 15.9961 16.375 16.2695 16.6641 16.5352C16.9609 16.8008 17.2617 17.043 17.5664 17.2617C17.8711 17.4727 18.1953 17.6328 18.5391 17.7422C18.5391 17.7031 18.5391 17.6445 18.5391 17.5664C18.5469 17.4805 18.5508 17.3906 18.5508 17.2969C18.5508 17.2031 18.5508 17.1172 18.5508 17.0391C18.5586 16.9531 18.5625 16.8906 18.5625 16.8516C18.5625 16.3594 18.5312 15.8789 18.4688 15.4102C18.4062 14.9414 18.3359 14.4727 18.2578 14.0039C18.1797 13.5352 18.1094 13.0664 18.0469 12.5977C17.9844 12.1211 17.9531 11.6328 17.9531 11.1328C18.0078 11.1328 18.0742 11.1367 18.1523 11.1445C18.2383 11.1445 18.3242 11.1562 18.4102 11.1797C18.4961 11.1953 18.5742 11.2266 18.6445 11.2734C18.7148 11.3125 18.7617 11.375 18.7852 11.4609C18.8164 12.0234 18.8867 12.5898 18.9961 13.1602C19.1055 13.7227 19.2188 14.2891 19.3359 14.8594C19.4531 15.4219 19.5547 15.9883 19.6406 16.5586C19.7344 17.1211 19.7812 17.6797 19.7812 18.2344C19.7812 18.3359 19.7773 18.4453 19.7695 18.5625C19.7695 18.6797 19.7539 18.793 19.7227 18.9023C19.6992 19.0039 19.6562 19.0898 19.5938 19.1602C19.5312 19.2305 19.4375 19.2656 19.3125 19.2656C18.9062 19.2656 18.5312 19.1758 18.1875 18.9961C17.8438 18.8086 17.5078 18.5781 17.1797 18.3047C16.8594 18.0312 16.543 17.7305 16.2305 17.4023C15.9258 17.0742 15.6094 16.7734 15.2812 16.5C14.9609 16.2266 14.625 15.9961 14.2734 15.8086C13.9297 15.6211 13.5586 15.5273 13.1602 15.5273C13.1602 15.9648 13.1914 16.3867 13.2539 16.793C13.3164 17.1914 13.3828 17.5898 13.4531 17.9883C13.5312 18.3867 13.6016 18.7852 13.6641 19.1836C13.7266 19.5742 13.7578 19.9727 13.7578 20.3789C13.7578 20.5273 13.7031 20.6289 13.5938 20.6836C13.4922 20.7383 13.3789 20.7656 13.2539 20.7656C13.1523 20.7656 13.0547 20.7578 12.9609 20.7422C12.875 20.7188 12.8086 20.6367 12.7617 20.4961ZM20.0391 12.7266C20.3438 12.5703 20.6289 12.457 20.8945 12.3867C21.168 12.3086 21.4375 12.2578 21.7031 12.2344C21.9766 12.2031 22.25 12.1875 22.5234 12.1875C22.8047 12.1875 23.1094 12.1875 23.4375 12.1875C23.5 12.1875 23.6055 12.1914 23.7539 12.1992C23.9102 12.1992 24.0742 12.1992 24.2461 12.1992C24.4258 12.1992 24.5898 12.1992 24.7383 12.1992C24.8867 12.1992 24.9922 12.1992 25.0547 12.1992C25.1406 12.2305 25.207 12.2852 25.2539 12.3633C25.3008 12.4414 25.3359 12.5234 25.3594 12.6094C25.3828 12.6953 25.3984 12.7852 25.4062 12.8789C25.4141 12.9648 25.418 13.0312 25.418 13.0781H21.5508V15.5977H25.7461C25.7461 15.8633 25.6641 16.0742 25.5 16.2305C25.3359 16.3789 25.1289 16.4961 24.8789 16.582C24.6367 16.668 24.3633 16.7266 24.0586 16.7578C23.7539 16.7812 23.4648 16.793 23.1914 16.793C22.918 16.7852 22.6758 16.7734 22.4648 16.7578C22.2539 16.7422 22.1133 16.7344 22.043 16.7344V16.9805C22.043 17.3086 22.1211 17.6211 22.2773 17.918C22.4336 18.207 22.6055 18.4883 22.793 18.7617C22.9883 19.0352 23.1641 19.3047 23.3203 19.5703C23.4844 19.8359 23.5664 20.1055 23.5664 20.3789C23.5664 20.5508 23.5312 20.7031 23.4609 20.8359C23.3906 20.9609 23.2617 21.0234 23.0742 21.0234C22.8789 21.0234 22.6836 20.9219 22.4883 20.7188C22.3008 20.5156 22.1172 20.2461 21.9375 19.9102C21.7578 19.5664 21.5859 19.1758 21.4219 18.7383C21.2656 18.293 21.1133 17.832 20.9648 17.3555C20.8242 16.8711 20.6953 16.3945 20.5781 15.9258C20.4688 15.4492 20.375 15.0078 20.2969 14.6016C20.2188 14.1875 20.1562 13.8242 20.1094 13.5117C20.0625 13.1992 20.0391 12.9727 20.0391 12.832V12.7266ZM26.2969 16.9805C26.2969 16.7148 26.332 16.4258 26.4023 16.1133C26.4805 15.8008 26.5859 15.4883 26.7188 15.1758C26.8516 14.8555 27.0117 14.5469 27.1992 14.25C27.3867 13.9453 27.5977 13.6797 27.832 13.4531C28.0664 13.2188 28.3203 13.0352 28.5938 12.9023C28.8672 12.7617 29.1562 12.6914 29.4609 12.6914C29.7109 12.6914 29.9453 12.7266 30.1641 12.7969C30.3828 12.8594 30.5703 12.957 30.7266 13.0898C30.8828 13.2227 31.0039 13.3906 31.0898 13.5938C31.1836 13.7891 31.2305 14.0234 31.2305 14.2969C31.0586 14.2969 30.918 14.2539 30.8086 14.168C30.707 14.0742 30.6094 13.9727 30.5156 13.8633C30.4297 13.7539 30.332 13.6562 30.2227 13.5703C30.1211 13.4844 29.9883 13.4414 29.8242 13.4414C29.582 13.4414 29.3477 13.5039 29.1211 13.6289C28.9023 13.7539 28.6953 13.9219 28.5 14.1328C28.3125 14.3438 28.1445 14.582 27.9961 14.8477C27.8555 15.1133 27.7305 15.3828 27.6211 15.6562C27.5195 15.9219 27.4375 16.1836 27.375 16.4414C27.3203 16.6992 27.293 16.9219 27.293 17.1094C27.293 17.5156 27.3516 17.8984 27.4688 18.2578C27.5938 18.6094 27.7695 18.918 27.9961 19.1836C28.2227 19.4414 28.5039 19.6445 28.8398 19.793C29.1758 19.9414 29.5586 20.0156 29.9883 20.0156C30.2617 20.0156 30.5195 19.9766 30.7617 19.8984C31.0117 19.8125 31.25 19.7227 31.4766 19.6289C31.7109 19.5273 31.9414 19.4336 32.168 19.3477C32.3945 19.2617 32.6211 19.2188 32.8477 19.2188C32.8789 19.2188 32.9219 19.2227 32.9766 19.2305C33.0391 19.2305 33.0938 19.2383 33.1406 19.2539C33.1953 19.2695 33.2422 19.2969 33.2812 19.3359C33.3203 19.3672 33.3398 19.418 33.3398 19.4883C33.3398 19.7695 33.2305 20.0078 33.0117 20.2031C32.8008 20.3984 32.5469 20.5586 32.25 20.6836C31.9531 20.8008 31.6445 20.8867 31.3242 20.9414C31.0039 20.9961 30.7422 21.0234 30.5391 21.0234C29.9453 21.0234 29.3906 20.9297 28.875 20.7422C28.3594 20.5469 27.9102 20.2734 27.5273 19.9219C27.1445 19.5703 26.8438 19.1484 26.625 18.6562C26.4062 18.1562 26.2969 17.5977 26.2969 16.9805Z" fill="white"/>
<path fill-rule="evenodd" clip-rule="evenodd" d="M44 10.6667C44 9.95942 44.281 9.28115 44.781 8.78105C45.2811 8.28095 45.9594 8 46.6667 8H57.3333C58.0406 8 58.7189 8.28095 59.219 8.78105C59.719 9.28115 60 9.95942 60 10.6667V21.3333C60 22.0406 59.719 22.7189 59.219 23.219C58.7189 23.719 58.0406 24 57.3333 24H46.6667C45.9594 24 45.2811 23.719 44.781 23.219C44.281 22.7189 44 22.0406 44 21.3333V10.6667ZM52 22.2222H57.3333C57.5691 22.2222 57.7952 22.1286 57.9619 21.9619C58.1286 21.7952 58.2222 21.5691 58.2222 21.3333V10.6667C58.2222 10.4309 58.1286 10.2048 57.9619 10.0381C57.7952 9.87143 57.5691 9.77778 57.3333 9.77778H55.08C55.3822 10.3004 55.5556 10.9076 55.5556 11.5556V20.4444C55.5555 20.6202 55.5034 20.792 55.4057 20.9382C55.308 21.0843 55.1692 21.1982 55.0068 21.2655C54.8444 21.3328 54.6657 21.3504 54.4933 21.3161C54.3209 21.2818 54.1625 21.1972 54.0382 21.0729L50.9271 17.9618C50.7652 17.7941 50.6756 17.5696 50.6776 17.3365C50.6796 17.1035 50.7731 16.8805 50.9379 16.7157C51.1027 16.5509 51.3257 16.4574 51.5588 16.4554C51.7918 16.4534 52.0164 16.543 52.184 16.7049L53.7778 18.2987V11.5556C53.7778 11.0841 53.5905 10.6319 53.2571 10.2985C52.9237 9.96508 52.4715 9.77778 52 9.77778H46.6667C46.4309 9.77778 46.2048 9.87143 46.0381 10.0381C45.8714 10.2048 45.7778 10.4309 45.7778 10.6667V21.3333C45.7778 21.5691 45.8714 21.7952 46.0381 21.9619C46.2048 22.1286 46.4309 22.2222 46.6667 22.2222H48.92C48.6082 21.6816 48.4442 21.0685 48.4444 20.4444V11.5556C48.4445 11.3798 48.4966 11.208 48.5943 11.0618C48.692 10.9157 48.8308 10.8018 48.9932 10.7345C49.1556 10.6672 49.3343 10.6496 49.5067 10.6839C49.6791 10.7182 49.8375 10.8028 49.9618 10.9271L53.0729 14.0382C53.2348 14.2059 53.3244 14.4304 53.3224 14.6635C53.3204 14.8965 53.2269 15.1195 53.0621 15.2843C52.8973 15.4491 52.6743 15.5426 52.4412 15.5446C52.2082 15.5466 51.9836 15.457 51.816 15.2951L50.2222 13.7013V20.4444C50.2222 20.9159 50.4095 21.3681 50.7429 21.7015C51.0763 22.0349 51.5285 22.2222 52 22.2222Z" fill="#FCFCFC"/>
</svg>
