<?xml version="1.0" encoding="UTF-8"?>
<svg version="1.1" xmlns="http://www.w3.org/2000/svg" width="512" height="512">
<path d="M0 0 C3.20384041 1.29516953 4.5905657 2.51997358 6.8125 5.125 C9.38656527 11.35694749 8.23522594 17.34697719 5.7644043 23.42773438 C5.45027588 24.17345703 5.13614746 24.91917969 4.8125 25.6875 C-11.18771772 66.46997929 -9.21820646 112.93625957 8 153 C14.80718038 168.2524891 23.56077104 181.99794887 34 195 C34.98033203 196.30130859 34.98033203 196.30130859 35.98046875 197.62890625 C36.56441406 198.37011719 37.14835938 199.11132812 37.75 199.875 C38.23984375 200.51179687 38.7296875 201.14859375 39.234375 201.8046875 C41.00934768 203.27933683 41.00934768 203.27933683 43.61938477 202.75195312 C47.51025653 201.8865032 51.14614884 200.59345138 54.85546875 199.1640625 C55.59775223 198.88404388 56.34003571 198.60402527 57.10481262 198.31552124 C59.4677193 197.42388583 61.82787623 196.52528425 64.1875 195.625 C95.99279823 183.49678153 95.99279823 183.49678153 108.80078125 187.98046875 C111.3364914 189.16944361 113.64932217 190.47995038 116 192 C116.64710938 192.40992188 117.29421875 192.81984375 117.9609375 193.2421875 C124.22516814 197.86513501 128.79080048 206.32298908 130 214 C130.04468505 216.66734388 130.01448678 219.33207387 130 222 C131.15822266 221.97905273 132.31644531 221.95810547 133.50976562 221.93652344 C137.8857747 221.86307432 142.26173173 221.81782665 146.63818359 221.78027344 C148.51750914 221.76039318 150.39677483 221.73327913 152.27587891 221.69824219 C167.51829629 221.42155122 181.74967666 222.41211988 195.4375 229.8125 C196.0987085 230.15724365 196.75991699 230.5019873 197.44116211 230.85717773 C205.79243061 235.32861812 212.51457948 241.13921752 219 248 C235.97835943 243.27944231 251.73781918 235.09203945 265.76342773 224.44091797 C269.79649822 221.46050252 272.83406384 220.19042095 278 220 C282.54218062 221.46273613 286.26628008 223.0045632 289 227 C290.45172034 233.13295289 289.93213081 238.14679582 287.8125 244 C287.54912842 244.75273193 287.28575684 245.50546387 287.0144043 246.28100586 C280.57691404 263.89707515 271.92974486 280.76102216 261 296 C260.58008789 296.58668457 260.16017578 297.17336914 259.72753906 297.77783203 C253.19382254 306.7929327 245.87042042 315.12957958 238 323 C237.69580163 325.53709705 237.69580163 325.53709705 237.74462891 328.52856445 C237.73766998 329.68769852 237.73071106 330.84683258 237.72354126 332.04109192 C237.72503677 333.93307564 237.72503677 333.93307564 237.7265625 335.86328125 C237.71146043 337.84760227 237.69633444 339.8319234 237.67987633 341.81623363 C237.64218747 346.70889576 237.62501536 351.60158922 237.61914062 356.49438477 C237.61505974 359.23318482 237.60029682 361.97156689 237.57479858 364.71025085 C237.55160866 367.28357051 237.54387284 369.85709341 237.55435181 372.43049622 C237.4136347 385.09626431 234.55812551 396.37647519 226 406 C218.5876887 413.00387782 209.32973926 417.14964153 199.140625 417.09765625 C198.02558594 417.09443359 196.91054688 417.09121094 195.76171875 417.08789062 C194.60285156 417.07951172 193.44398438 417.07113281 192.25 417.0625 C190.48849609 417.05573242 190.48849609 417.05573242 188.69140625 417.04882812 C185.79421928 417.03705094 182.89713546 417.02060326 180 417 C180.01571045 417.60884033 180.0314209 418.21768066 180.04760742 418.8449707 C180.55598536 441.52034261 180.55598536 441.52034261 177 450 C176.67128906 450.83144531 176.34257812 451.66289062 176.00390625 452.51953125 C169.94665411 466.16406808 158.32462136 475.67577039 144.69921875 481.0546875 C140.61401895 482.48539423 137.13121988 483.13315839 132.79174805 483.20874023 C131.75354416 483.22803085 130.71534027 483.24732147 129.64567566 483.26719666 C124.91006173 483.32512903 120.17459456 483.37418989 115.4387207 483.4050293 C112.94313742 483.42663116 110.44763034 483.46075921 107.95239258 483.50756836 C104.34682519 483.57455444 100.74282054 483.60202531 97.13671875 483.62109375 C96.02608566 483.64892441 94.91545258 483.67675507 93.77116394 483.70542908 C87.58856935 483.68905579 83.84595323 483.11654896 79.29988098 478.77894592 C75.66826964 473.80892153 75.7213083 469.08549257 75.77294922 463.1706543 C75.77265717 462.29210281 75.77236511 461.41355133 75.77206421 460.50837708 C75.77345405 457.61355607 75.78899904 454.71899462 75.8046875 451.82421875 C75.80841886 449.81354411 75.81126525 447.80286766 75.81326294 445.79219055 C75.82088972 440.50677447 75.84053008 435.22146875 75.8626709 429.93609619 C75.88314985 424.54009494 75.89226904 419.14407581 75.90234375 413.74804688 C75.92377682 403.16531616 75.9579013 392.58266727 76 382 C74.76869354 381.86772507 73.53738708 381.73545013 72.26876831 381.59916687 C70.63473395 381.42127713 69.00071155 381.24327755 67.36669922 381.06518555 C66.55734421 380.97853386 65.7479892 380.89188217 64.91410828 380.80260468 C58.89582336 380.14346828 53.01924381 379.21305514 47.125 377.8125 C46.20775146 377.59674316 45.29050293 377.38098633 44.34545898 377.15869141 C10.62367848 368.92453897 -20.02309781 352.29257689 -45.24609375 328.54296875 C-47.18265778 326.75473728 -49.10950844 325.06365644 -51.14453125 323.3984375 C-54.88922007 320.2531038 -57.85729415 316.73001073 -61 313 C-61.74121094 312.15824219 -62.48242188 311.31648438 -63.24609375 310.44921875 C-89.54053146 280.03181321 -106.69103851 241.01178528 -111 201 C-111.10957031 200.04738281 -111.21914062 199.09476563 -111.33203125 198.11328125 C-115.32146353 156.56999308 -106.73374737 115.65259142 -87 79 C-86.38640625 77.83339844 -85.7728125 76.66679688 -85.140625 75.46484375 C-78.30682009 62.9409079 -69.71987113 51.5838483 -60 41.15234375 C-58.15918281 39.17130806 -56.42275357 37.13562746 -54.6875 35.0625 C-45.45100565 24.53964457 -34.37966606 16.05501293 -23 8 C-22.09918701 7.35393799 -22.09918701 7.35393799 -21.18017578 6.69482422 C-14.35417507 1.86620985 -8.54304764 -1.88426097 0 0 Z " fill="#EDC06B" transform="translate(167,29)"/>
<path d="M0 0 C0.97066406 0.61488281 0.97066406 0.61488281 1.9609375 1.2421875 C8.22516814 5.86513501 12.79080048 14.32298908 14 22 C14.04468505 24.66734388 14.01448678 27.33207387 14 30 C15.15822266 29.97905273 16.31644531 29.95810547 17.50976562 29.93652344 C21.8857747 29.86307432 26.26173173 29.81782665 30.63818359 29.78027344 C32.51750914 29.76039318 34.39677483 29.73327913 36.27587891 29.69824219 C51.51829629 29.42155122 65.74967666 30.41211988 79.4375 37.8125 C80.0987085 38.15724365 80.75991699 38.5019873 81.44116211 38.85717773 C89.79243061 43.32861812 96.51457948 49.13921752 103 56 C119.97835943 51.27944231 135.73781918 43.09203945 149.76342773 32.44091797 C153.79649822 29.46050252 156.83406384 28.19042095 162 28 C166.54218062 29.46273613 170.26628008 31.0045632 173 35 C174.45172034 41.13295289 173.93213081 46.14679582 171.8125 52 C171.41744263 53.1290979 171.41744263 53.1290979 171.0144043 54.28100586 C164.57691404 71.89707515 155.92974486 88.76102216 145 104 C144.58008789 104.58668457 144.16017578 105.17336914 143.72753906 105.77783203 C137.19382254 114.7929327 129.87042042 123.12957958 122 131 C121.69580163 133.53709705 121.69580163 133.53709705 121.74462891 136.52856445 C121.73766998 137.68769852 121.73071106 138.84683258 121.72354126 140.04109192 C121.72503677 141.93307564 121.72503677 141.93307564 121.7265625 143.86328125 C121.71146043 145.84760227 121.69633444 147.8319234 121.67987633 149.81623363 C121.64218747 154.70889576 121.62501536 159.60158922 121.61914062 164.49438477 C121.61505974 167.23318482 121.60029682 169.97156689 121.57479858 172.71025085 C121.55160866 175.28357051 121.54387284 177.85709341 121.55435181 180.43049622 C121.4136347 193.09626431 118.55812551 204.37647519 110 214 C102.5876887 221.00387782 93.32973926 225.14964153 83.140625 225.09765625 C82.02558594 225.09443359 80.91054688 225.09121094 79.76171875 225.08789062 C78.60285156 225.07951172 77.44398438 225.07113281 76.25 225.0625 C75.07566406 225.05798828 73.90132812 225.05347656 72.69140625 225.04882812 C69.79421928 225.03705094 66.89713546 225.02060326 64 225 C64.01571045 225.60884033 64.0314209 226.21768066 64.04760742 226.8449707 C64.55598536 249.52034261 64.55598536 249.52034261 61 258 C60.67128906 258.83144531 60.34257812 259.66289062 60.00390625 260.51953125 C53.94665411 274.16406808 42.32462136 283.67577039 28.69921875 289.0546875 C24.61401895 290.48539423 21.13121988 291.13315839 16.79174805 291.20874023 C15.75354416 291.22803085 14.71534027 291.24732147 13.64567566 291.26719666 C8.91006173 291.32512903 4.17459456 291.37418989 -0.5612793 291.4050293 C-3.05686258 291.42663116 -5.55236966 291.46075921 -8.04760742 291.50756836 C-11.65317481 291.57455444 -15.25717946 291.60202531 -18.86328125 291.62109375 C-20.52923088 291.66283974 -20.52923088 291.66283974 -22.22883606 291.70542908 C-28.41143065 291.68905579 -32.15404677 291.11654896 -36.70011902 286.77894592 C-40.33586024 281.80326961 -40.27405938 277.00893643 -40.21359253 271.09619141 C-40.21192241 269.74984415 -40.21192241 269.74984415 -40.21021855 268.37629795 C-40.20414548 265.36794296 -40.18377799 262.35985328 -40.16357422 259.3515625 C-40.15646156 257.19460834 -40.1502897 255.0376509 -40.14498901 252.88069153 C-40.13188332 248.233888 -40.11276126 243.58716128 -40.08919907 238.94039917 C-40.05260645 231.58536453 -40.03341214 224.23034857 -40.0173645 216.87524414 C-39.96907168 195.95922656 -39.89747689 175.04332246 -39.80810547 154.12744141 C-39.7589056 142.57700308 -39.72424228 131.02660975 -39.70498669 119.47608185 C-39.69194074 112.17287119 -39.66090486 104.87003186 -39.61635184 97.56694889 C-39.59278661 93.00917226 -39.58615089 88.45148426 -39.58415604 83.89365196 C-39.57988343 81.789857 -39.56877766 79.68606231 -39.5500946 77.58234596 C-39.40485285 60.55987111 -40.77170604 45.41183594 -53.39453125 32.5625 C-55.87781607 30.30427478 -58.41436532 28.1398356 -61 26 C-62.44138541 24.75448229 -63.87919996 23.50481362 -65.3125 22.25 C-65.94800781 21.69441406 -66.58351562 21.13882813 -67.23828125 20.56640625 C-69.60927657 18.45827072 -71.85793454 16.34288409 -74 14 C-74 13.34 -74 12.68 -74 12 C-68.50725048 9.91218003 -63.01198826 7.83116024 -57.5144043 5.75610352 C-55.64880876 5.05088617 -53.78388395 4.34389157 -51.91967773 3.63500977 C-15.68113897 -10.14010047 -15.68113897 -10.14010047 0 0 Z " fill="#DCEAFC" transform="translate(283,221)"/>
<path d="M0 0 C2.90774579 4.27075163 3.45375249 8.83083804 2.70556641 13.95336914 C2.17540224 15.99691576 1.5313647 17.95240813 0.8125 19.9375 C0.41744263 21.0665979 0.41744263 21.0665979 0.0144043 22.21850586 C-6.42308596 39.83457515 -15.07025514 56.69852216 -26 71.9375 C-26.41991211 72.52418457 -26.83982422 73.11086914 -27.27246094 73.71533203 C-33.80617746 82.7304327 -41.12957958 91.06707958 -49 98.9375 C-49.30419837 101.47459705 -49.30419837 101.47459705 -49.25537109 104.46606445 C-49.26233002 105.62519852 -49.26928894 106.78433258 -49.27645874 107.97859192 C-49.27496323 109.87057564 -49.27496323 109.87057564 -49.2734375 111.80078125 C-49.28853957 113.78510227 -49.30366556 115.7694234 -49.32012367 117.75373363 C-49.35781253 122.64639576 -49.37498464 127.53908922 -49.38085938 132.43188477 C-49.38494026 135.17068482 -49.39970318 137.90906689 -49.42520142 140.64775085 C-49.44839134 143.22107051 -49.45612716 145.79459341 -49.44564819 148.36799622 C-49.5863653 161.03376431 -52.44187449 172.31397519 -61 181.9375 C-68.4123113 188.94137782 -77.67026074 193.08714153 -87.859375 193.03515625 C-88.97441406 193.03193359 -90.08945312 193.02871094 -91.23828125 193.02539062 C-92.39714844 193.01701172 -93.55601562 193.00863281 -94.75 193 C-95.92433594 192.99548828 -97.09867187 192.99097656 -98.30859375 192.98632812 C-101.20578072 192.97455094 -104.10286454 192.95810326 -107 192.9375 C-106.98428955 193.54634033 -106.9685791 194.15518066 -106.95239258 194.7824707 C-106.44401464 217.45784261 -106.44401464 217.45784261 -110 225.9375 C-110.32871094 226.76894531 -110.65742188 227.60039062 -110.99609375 228.45703125 C-117.05334589 242.10156808 -128.67537864 251.61327039 -142.30078125 256.9921875 C-146.8832942 258.59706179 -150.62581505 259.05738266 -155.515625 259.03515625 C-156.76601563 259.03193359 -158.01640625 259.02871094 -159.3046875 259.02539062 C-160.60664063 259.01701172 -161.90859375 259.00863281 -163.25 259 C-165.22613281 258.99323242 -165.22613281 258.99323242 -167.2421875 258.98632812 C-170.49483741 258.97454316 -173.74739584 258.95809011 -177 258.9375 C-174.02746307 256.95580871 -171.83565525 256.22912948 -168.4375 255.25 C-159.9414401 252.49340914 -152.90879281 247.64477833 -147 240.9375 C-146.44699219 240.3496875 -145.89398438 239.761875 -145.32421875 239.15625 C-137.15864215 229.78419634 -134.69618242 217.68487026 -133.16308594 205.66015625 C-132.49676124 200.99811191 -131.36023874 198.25520407 -128 194.9375 C-124.12841728 192.26994677 -119.7876461 192.49310283 -115.25 192.3125 C-114.45722656 192.27382813 -113.66445313 192.23515625 -112.84765625 192.1953125 C-110.89880584 192.101392 -108.94943549 192.01837178 -107 191.9375 C-107.00888245 191.01930481 -107.01776489 190.10110962 -107.0269165 189.15509033 C-107.10705421 180.50329495 -107.16796026 171.85162416 -107.20724869 163.199543 C-107.22812638 158.75135723 -107.25644702 154.30347806 -107.30175781 149.85546875 C-107.34520957 145.56310766 -107.36913574 141.27104152 -107.37950897 136.97847748 C-107.3869016 135.34057725 -107.40133775 133.70269323 -107.42292023 132.06491852 C-107.45194647 129.77111391 -107.45595651 127.47852894 -107.45410156 125.18457031 C-107.46298401 123.87885071 -107.47186646 122.5731311 -107.48101807 121.22784424 C-107 117.9375 -107 117.9375 -105.1942749 115.48455811 C-103 113.9375 -103 113.9375 -99.4375 113.9375 C-95.57915622 115.05992728 -94.91035691 115.53251289 -93 118.9375 C-92.60127258 121.88616943 -92.60127258 121.88616943 -92.56762695 125.35839844 C-92.54783279 126.65944519 -92.52803864 127.96049194 -92.50764465 129.30096436 C-92.50087534 130.71626643 -92.49442842 132.13157008 -92.48828125 133.546875 C-92.47143164 134.99848958 -92.45328102 136.45008959 -92.43388367 137.90167236 C-92.38640758 141.7156316 -92.35658305 145.52953177 -92.33044434 149.34368896 C-92.30062654 153.2383592 -92.25410045 157.132826 -92.20898438 161.02734375 C-92.1229786 168.6639615 -92.05562152 176.30059409 -92 183.9375 C-88.78710405 181.42183458 -86.16555909 179.20453013 -83.875 175.8125 C-83.39804687 175.12929688 -82.92109375 174.44609375 -82.4296875 173.7421875 C-78.69843259 166.42240328 -77.55428805 159.16042529 -77.61181641 151.02832031 C-77.60655945 150.09349823 -77.60130249 149.15867615 -77.59588623 148.19552612 C-77.58278978 145.13538403 -77.59139041 142.0757715 -77.6015625 139.015625 C-77.59953811 136.86627097 -77.59662365 134.71691761 -77.59286499 132.56756592 C-77.58845504 128.07232089 -77.59482734 123.57725532 -77.60888672 119.08203125 C-77.62593622 113.35522709 -77.61615559 107.62884614 -77.59816933 101.90205765 C-77.58726017 97.46475107 -77.59081105 93.02754259 -77.5985527 88.59023285 C-77.60053721 86.48057758 -77.59815783 84.37091306 -77.59111404 82.26126862 C-77.5533494 67.76786963 -77.68493895 53.71670153 -84.75 40.625 C-85.27605835 39.61747681 -85.27605835 39.61747681 -85.81274414 38.58959961 C-88.68129413 33.23510244 -91.90706653 28.44235611 -96 23.9375 C-96.65355469 23.19242187 -97.30710937 22.44734375 -97.98046875 21.6796875 C-108.60150108 10.26546332 -122.29232401 4.06607338 -137.22241211 0.3684082 C-138.30405136 0.09994583 -139.38569061 -0.16851654 -140.50010681 -0.44511414 C-141.32507156 -0.64885147 -142.15003632 -0.85258881 -143 -1.0625 C-142.98334541 0.19870918 -142.98334541 0.19870918 -142.96635437 1.48539734 C-142.86609895 9.41575194 -142.79000816 17.34589321 -142.74093914 25.27673626 C-142.71486371 29.35395567 -142.67950463 33.43065073 -142.62280273 37.50756836 C-142.56840747 41.44334363 -142.538564 45.37861512 -142.52561378 49.31473732 C-142.51638719 50.8150812 -142.4983691 52.31539802 -142.47134972 53.81552696 C-142.43495548 55.92018196 -142.43005839 58.02276565 -142.43237305 60.12768555 C-142.41571846 61.92305 -142.41571846 61.92305 -142.39872742 63.75468445 C-143.18047975 67.89286332 -144.70550807 69.39320395 -148 71.9375 C-151.625 72 -151.625 72 -155 70.9375 C-157.42200425 68.58358475 -157.96731631 67.21839474 -158.36076355 63.8369751 C-158.35410172 62.62007996 -158.34743988 61.40318481 -158.34057617 60.14941406 C-158.34123329 59.13904335 -158.34123329 59.13904335 -158.34190369 58.10826111 C-158.33981946 55.88958396 -158.31650699 53.67166957 -158.29296875 51.453125 C-158.28737146 49.91184909 -158.28310199 48.37056783 -158.28010559 46.82928467 C-158.26866718 42.77839344 -158.23920889 38.72782639 -158.20599365 34.67706299 C-158.17527098 30.54126368 -158.16159557 26.40541185 -158.14648438 22.26953125 C-158.114338 14.15870562 -158.06315407 6.04814317 -158 -2.0625 C-152.31157339 -2.16275698 -146.62368156 -2.23461097 -140.93457031 -2.28222656 C-139.0067446 -2.30211428 -137.07897733 -2.32923439 -135.15136719 -2.36425781 C-119.75550501 -2.63660917 -105.42245289 -1.7434427 -91.5625 5.75 C-90.57068726 6.26711548 -90.57068726 6.26711548 -89.55883789 6.79467773 C-81.20756939 11.26611812 -74.48542052 17.07671752 -68 23.9375 C-50.89200814 19.18090011 -35.28406903 10.82501976 -20.97290039 0.37841797 C-13.75914077 -4.86672145 -7.50858621 -5.16215302 0 0 Z " fill="#BED9FC" transform="translate(454,253.0625)"/>
<path d="M0 0 C0.33 0 0.66 0 1 0 C1.06993164 0.54712646 1.13986328 1.09425293 1.21191406 1.65795898 C8.2098576 55.5319986 33.10825014 106.11111579 76.39672852 140.21704102 C79.88054457 142.88400019 83.41748035 145.46745372 87 148 C87.58571777 148.41443359 88.17143555 148.82886719 88.77490234 149.25585938 C118.52557828 169.97461532 151.5191323 179.81433472 187 185 C187 197.21 187 209.42 187 222 C165.8652682 219.65169647 165.8652682 219.65169647 158.125 217.8125 C157.20775146 217.59674316 156.29050293 217.38098633 155.34545898 217.15869141 C121.62367848 208.92453897 90.97690219 192.29257689 65.75390625 168.54296875 C63.81734222 166.75473728 61.89049156 165.06365644 59.85546875 163.3984375 C56.11077993 160.2531038 53.14270585 156.73001073 50 153 C49.25878906 152.15824219 48.51757812 151.31648437 47.75390625 150.44921875 C21.45946854 120.03181321 4.30896149 81.01178528 0 41 C-0.10957031 40.04738281 -0.21914063 39.09476563 -0.33203125 38.11328125 C-1.02123685 30.93635361 -1.10018071 23.76659332 -1.125 16.5625 C-1.12967285 15.6144751 -1.1343457 14.6664502 -1.13916016 13.68969727 C-1.12835892 9.01317894 -0.96741656 4.59906764 0 0 Z " fill="#E9A52E" transform="translate(56,189)"/>
<path d="M0 0 C2.90774579 4.27075163 3.45375249 8.83083804 2.70556641 13.95336914 C2.17540224 15.99691576 1.5313647 17.95240813 0.8125 19.9375 C0.54912842 20.69023193 0.28575684 21.44296387 0.0144043 22.21850586 C-6.42308596 39.83457515 -15.07025514 56.69852216 -26 71.9375 C-26.41991211 72.52418457 -26.83982422 73.11086914 -27.27246094 73.71533203 C-41.39427682 93.20035121 -41.39427682 93.20035121 -50 98.9375 C-50.01458252 98.04667725 -50.02916504 97.15585449 -50.04418945 96.23803711 C-50.10613989 92.85484282 -50.1804384 89.4723456 -50.26245117 86.08959961 C-50.29520788 84.64015513 -50.32338341 83.19059809 -50.34643555 81.7409668 C-50.69608875 60.30796966 -55.99045333 42.95182001 -68 24.9375 C-67.35417969 24.68097656 -66.70835937 24.42445313 -66.04296875 24.16015625 C-49.26424118 17.34308089 -33.50583404 9.67912499 -18.875 -1.0625 C-12.57560523 -5.44468767 -6.16246356 -4.2366937 0 0 Z " fill="#E9A52E" transform="translate(454,253.0625)"/>
<path d="M0 0 C1.2098481 -0.01210762 1.2098481 -0.01210762 2.44413757 -0.02445984 C4.15308482 -0.03830018 5.86205971 -0.04902257 7.57104492 -0.05688477 C10.17875905 -0.07408381 12.78520062 -0.11796669 15.39257812 -0.16210938 C17.0533761 -0.17223772 18.71418485 -0.18075338 20.375 -0.1875 C21.54087395 -0.21376213 21.54087395 -0.21376213 22.7303009 -0.24055481 C26.49840342 -0.22553462 28.65166982 0.08775949 31.85620117 2.13989258 C35.01398346 5.40322536 35.41373535 8.01654621 35.35546875 12.57226562 C34.39121424 18.05646317 30.94180443 22.44077487 27.88671875 26.98828125 C26.51020732 29.10793698 25.13390364 31.22772764 23.7578125 33.34765625 C23.09120605 34.35892578 22.42459961 35.37019531 21.73779297 36.41210938 C19.40224943 39.97795638 17.16104922 43.5948932 14.94921875 47.23828125 C14.34207031 48.22828125 13.73492187 49.21828125 13.109375 50.23828125 C12.70589844 50.89828125 12.30242187 51.55828125 11.88671875 52.23828125 C13.11648438 52.27566406 14.34625 52.31304687 15.61328125 52.3515625 C17.24612276 52.41725153 18.87893393 52.48369784 20.51171875 52.55078125 C21.31996094 52.57333984 22.12820313 52.59589844 22.9609375 52.61914062 C27.94462429 52.84198841 31.57203094 53.48205323 35.88671875 56.23828125 C37.41518536 59.29521447 37.1191432 61.86812672 36.88671875 65.23828125 C35.12656744 68.42331695 34.38780959 69.07125097 30.88671875 70.23828125 C28.43195814 70.35848766 26.00636031 70.42629632 23.55078125 70.44140625 C22.83441498 70.44710632 22.11804871 70.4528064 21.37997437 70.4586792 C19.86531038 70.46811661 18.35062598 70.47465818 16.8359375 70.47851562 C14.52697672 70.48821714 12.21890806 70.519249 9.91015625 70.55078125 C8.43620318 70.5573123 6.96224377 70.56256237 5.48828125 70.56640625 C4.80166412 70.57875305 4.115047 70.59109985 3.40762329 70.6038208 C-1.94478402 70.57913204 -5.00210901 69.13105636 -8.92578125 65.61328125 C-10.80050765 61.86382845 -10.7254097 58.34996709 -10.11328125 54.23828125 C-8.72144972 50.98722539 -6.81672891 48.19663294 -4.80078125 45.30078125 C-3.70418246 43.65076648 -2.6091718 41.99969531 -1.515625 40.34765625 C-0.95343262 39.51041016 -0.39124023 38.67316406 0.18798828 37.81054688 C2.9511136 33.62654452 5.54191329 29.34045218 8.13671875 25.05078125 C9.05843711 23.53636299 9.98029692 22.0220308 10.90234375 20.5078125 C11.88460938 18.88939453 11.88460938 18.88939453 12.88671875 17.23828125 C12.01720581 17.2242627 12.01720581 17.2242627 11.13012695 17.20996094 C8.48564929 17.15604055 5.84289982 17.07243996 3.19921875 16.98828125 C2.28720703 16.97410156 1.37519531 16.95992187 0.43554688 16.9453125 C-3.86942183 16.78876818 -6.46622879 16.63684588 -10.1953125 14.33984375 C-12.48912463 11.82646101 -13.11328125 10.6436677 -13.11328125 7.23828125 C-10.14547097 -0.1105823 -7.37155144 0.06951567 0 0 Z " fill="#8C818F" transform="translate(401.11328125,50.76171875)"/>
<path d="M0 0 C0.8273465 -0.00761353 1.65469299 -0.01522705 2.5071106 -0.02307129 C4.25715112 -0.03387414 6.00725613 -0.03672463 7.75732422 -0.03222656 C10.42916121 -0.03125587 13.0981103 -0.07283629 15.76953125 -0.1171875 C17.47134819 -0.12239594 19.17317509 -0.12508267 20.875 -0.125 C21.67098602 -0.14139526 22.46697205 -0.15779053 23.28707886 -0.17468262 C27.56050994 -0.12171259 29.10439687 0.09174374 32.55126953 2.88085938 C35.08084136 6.12311589 35.77614868 7.51372594 35.46875 11.53515625 C34.76685166 17.08059597 32.30711822 20.86426607 29.1953125 25.40625 C28.1079138 27.05632966 27.02201559 28.70739898 25.9375 30.359375 C25.3815918 31.19662109 24.82568359 32.03386719 24.25292969 32.89648438 C21.51008823 37.08954555 18.91618483 41.37121199 16.3203125 45.65625 C15.39848063 47.17059917 14.47660982 48.68492464 13.5546875 50.19921875 C12.89984375 51.27816406 12.245 52.35710938 11.5703125 53.46875 C12.14998779 53.45303955 12.72966309 53.4373291 13.3269043 53.42114258 C15.97043989 53.35852209 18.61381905 53.31967482 21.2578125 53.28125 C22.16982422 53.25611328 23.08183594 53.23097656 24.02148438 53.20507812 C32.57926773 53.11172049 32.57926773 53.11172049 36.5703125 56.46875 C37.99693469 59.32199437 37.88065118 61.30329549 37.5703125 64.46875 C36.08374023 67.12646484 36.08374023 67.12646484 33.5703125 69.46875 C30.53753434 69.97667278 28.07404656 70.17140734 25.04296875 70.1328125 C24.2170372 70.13759613 23.39110565 70.14237976 22.54014587 70.14730835 C20.79603162 70.15070567 19.05185355 70.14151472 17.30786133 70.12060547 C14.64454315 70.09386777 11.98545176 70.12033726 9.32226562 70.15234375 C7.62499073 70.14903895 5.92771846 70.14263126 4.23046875 70.1328125 C3.0411953 70.14799423 3.0411953 70.14799423 1.82789612 70.16348267 C-2.356301 70.0752602 -3.98602163 69.81490649 -7.39672852 67.15380859 C-9.49271866 64.38550072 -10.52326268 62.24220433 -10.75805664 58.74633789 C-9.51838601 50.14790869 -1.93226624 41.33646088 2.6953125 34.15625 C3.30246094 33.20685547 3.90960938 32.25746094 4.53515625 31.27929688 C7.50336051 26.64592356 10.49688155 22.03302432 13.5703125 17.46875 C12.98540039 17.44893066 12.40048828 17.42911133 11.79785156 17.40869141 C9.13823225 17.31321519 6.47937412 17.20362858 3.8203125 17.09375 C2.89992188 17.0628125 1.97953125 17.031875 1.03125 17 C0.14179688 16.96132813 -0.74765625 16.92265625 -1.6640625 16.8828125 C-2.48100586 16.8513916 -3.29794922 16.8199707 -4.13964844 16.78759766 C-7.42303653 16.33044362 -9.69057612 15.41903606 -11.7421875 12.78125 C-12.74827699 9.39713082 -12.23411149 6.87208226 -11.4296875 3.46875 C-8.87314913 -0.73972423 -4.39810588 0.00110726 0 0 Z " fill="#8C818F" transform="translate(267.4296875,-0.46875)"/>
<path d="M0 0 C1.24526459 -0.01210762 1.24526459 -0.01210762 2.51568604 -0.02445984 C4.27768861 -0.03831882 6.03971823 -0.04903282 7.80175781 -0.05688477 C10.49075736 -0.07405992 13.17851553 -0.11792352 15.8671875 -0.16210938 C17.57811595 -0.17223932 19.28905486 -0.18075448 21 -0.1875 C21.80226013 -0.20500809 22.60452026 -0.22251617 23.43109131 -0.24055481 C27.40822823 -0.22518814 29.3099683 -0.05196327 32.75097656 2.13989258 C35.76939465 5.28377327 36.1899491 7.57941017 36.12304688 11.95068359 C35.4313673 16.37762184 32.91239732 19.84453848 30.515625 23.55078125 C29.98291992 24.40510742 29.45021484 25.25943359 28.90136719 26.13964844 C27.20601619 28.85002505 25.48642058 31.54400428 23.765625 34.23828125 C22.60773635 36.0796998 21.45146786 37.92213816 20.296875 39.765625 C17.47177669 44.26848747 14.626643 48.75816624 11.765625 53.23828125 C12.37559326 53.21209717 12.98556152 53.18591309 13.61401367 53.15893555 C16.39345258 53.05462406 19.17247939 52.98985143 21.953125 52.92578125 C22.91283203 52.88388672 23.87253906 52.84199219 24.86132812 52.79882812 C31.99595955 52.6753916 31.99595955 52.6753916 35.90625 55.53515625 C38.33795427 59.07032296 38.45406065 61.03117453 37.765625 65.23828125 C36.24975586 67.41992188 36.24975586 67.41992188 33.765625 69.23828125 C30.86602791 69.63623204 28.35408733 69.79987699 25.45703125 69.76953125 C24.25142799 69.77527161 24.25142799 69.77527161 23.02146912 69.78112793 C21.32443995 69.78384543 19.62736879 69.77649543 17.93041992 69.75976562 C15.34002678 69.73837951 12.75241565 69.75955596 10.16210938 69.78515625 C8.51041057 69.78251239 6.85871349 69.77738622 5.20703125 69.76953125 C4.43605606 69.77762817 3.66508087 69.7857251 2.8707428 69.79406738 C-0.8078188 69.73031071 -3.02082305 69.37149132 -6.16821289 67.40820312 C-9.00927598 64.42446583 -9.69020868 62.31952866 -10.234375 58.23828125 C-8.38145217 52.23355507 -5.67347697 47.4192292 -2.171875 42.23828125 C-1.19413634 40.76119454 -0.21760501 39.28330805 0.7578125 37.8046875 C1.2537793 37.05590332 1.74974609 36.30711914 2.26074219 35.53564453 C4.71707587 31.78579055 7.08665774 27.98276292 9.453125 24.17578125 C10.10390015 23.13067383 10.10390015 23.13067383 10.76782227 22.06445312 C11.76831101 20.45648834 12.76716783 18.84750832 13.765625 17.23828125 C12.89611206 17.2242627 12.89611206 17.2242627 12.0090332 17.20996094 C9.36455554 17.15604055 6.72180607 17.07243996 4.078125 16.98828125 C3.16611328 16.97410156 2.25410156 16.95992187 1.31445312 16.9453125 C-2.96696955 16.7896244 -5.59169812 16.62681974 -9.31640625 14.375 C-11.80219772 11.60569667 -12.234375 9.94673756 -12.234375 6.23828125 C-9.07937094 -0.21513615 -6.79104539 0.0619048 0 0 Z " fill="#8C818F" transform="translate(310.234375,115.76171875)"/>
<path d="M0 0 C-17.253432 34.90097793 -17.253432 34.90097793 -25 42 C-25.58007812 40.99839844 -26.16015625 39.99679687 -26.7578125 38.96484375 C-30.75459851 32.1407493 -34.66806526 25.87879984 -40 20 C-40 19.34 -40 18.68 -40 18 C-39.26849731 17.60844727 -39.26849731 17.60844727 -38.5222168 17.20898438 C-29.66379879 12.44332033 -21.08021052 7.74105497 -13.1640625 1.49609375 C-8.65187716 -1.62334124 -5.31816302 -0.92045129 0 0 Z " fill="#EEBF69" transform="translate(449,250)"/>
</svg>
