<svg width="132" height="32" viewBox="0 0 132 32" fill="none" xmlns="http://www.w3.org/2000/svg">
<rect width="132" height="32" rx="16" fill="#B36F5A"/>
<path d="M10.4727 18.1289C10.4727 18.0508 10.4531 17.8945 10.4141 17.6602C10.3828 17.418 10.3242 17.0977 10.2383 16.6992C9.74609 16.8477 9.35156 16.9102 9.05469 16.8867C8.76562 16.8555 8.5625 16.7812 8.44531 16.6641C8.32812 16.5469 8.29688 16.4102 8.35156 16.2539C8.40625 16.0977 8.52734 15.9688 8.71484 15.8672C8.91016 15.7578 9.16797 15.6992 9.48828 15.6914C9.81641 15.6758 10.1992 15.7461 10.6367 15.9023C10.668 15.8633 10.6914 15.7812 10.707 15.6562C10.7305 15.5312 10.7539 15.3867 10.7773 15.2227C10.8008 15.0586 10.8242 14.8867 10.8477 14.707C10.8789 14.5273 10.9023 14.3633 10.918 14.2148C10.9414 14.0664 10.9609 13.9414 10.9766 13.8398C10.9922 13.7305 11.0117 13.6758 11.0352 13.6758C11.082 13.6445 11.1562 13.6211 11.2578 13.6055C11.3594 13.5898 11.457 13.5781 11.5508 13.5703C11.6758 13.5547 11.8047 13.5469 11.9375 13.5469L12.0898 15.4688H12.9688C12.9688 15.4531 12.9727 15.3867 12.9805 15.2695C12.9883 15.1523 13 15.0117 13.0156 14.8477C13.0391 14.6758 13.0664 14.4922 13.0977 14.2969C13.1367 14.1016 13.1836 13.9258 13.2383 13.7695C13.293 13.6055 13.3555 13.4688 13.4258 13.3594C13.5039 13.25 13.5977 13.1953 13.707 13.1953C13.7383 13.1953 13.7852 13.1992 13.8477 13.207C13.9102 13.207 13.9688 13.2148 14.0234 13.2305C14.0781 13.2461 14.125 13.2734 14.1641 13.3125C14.2109 13.3438 14.2344 13.3945 14.2344 13.4648V15.2227C14.3203 15.2539 14.4336 15.2852 14.5742 15.3164C14.7227 15.3477 14.8828 15.3789 15.0547 15.4102C15.2344 15.4336 15.4141 15.4609 15.5938 15.4922C15.7734 15.5234 15.9375 15.5586 16.0859 15.5977C16.2344 15.6367 16.3555 15.6836 16.4492 15.7383C16.543 15.7852 16.5898 15.8398 16.5898 15.9023C16.5352 16.0664 16.4219 16.1875 16.25 16.2656C16.0859 16.3359 15.8984 16.3945 15.6875 16.4414C15.4844 16.4805 15.2773 16.5195 15.0664 16.5586C14.8633 16.5898 14.6953 16.6406 14.5625 16.7109C14.4375 16.7812 14.3633 16.8828 14.3398 17.0156C14.3242 17.1484 14.4062 17.3359 14.5859 17.5781C14.6719 17.5781 14.7812 17.5703 14.9141 17.5547C15.0469 17.5391 15.1836 17.5234 15.3242 17.5078C15.4648 17.4922 15.6055 17.4844 15.7461 17.4844C15.8867 17.4844 16.0117 17.5 16.1211 17.5312C16.2305 17.5625 16.3203 17.6172 16.3906 17.6953C16.4609 17.7734 16.4961 17.8828 16.4961 18.0234C16.4961 18.1484 16.418 18.25 16.2617 18.3281C16.1133 18.4062 15.9375 18.4727 15.7344 18.5273C15.5312 18.582 15.332 18.625 15.1367 18.6562C14.9492 18.6875 14.8125 18.7148 14.7266 18.7383C14.75 18.8789 14.7773 19.0508 14.8086 19.2539C14.8398 19.4492 14.8477 19.6406 14.832 19.8281C14.8242 20.0156 14.7773 20.1797 14.6914 20.3203C14.6055 20.4609 14.4531 20.5312 14.2344 20.5312C14.0703 20.4766 13.9492 20.3945 13.8711 20.2852C13.8008 20.168 13.7422 20.043 13.6953 19.9102C13.6562 19.7695 13.6211 19.6367 13.5898 19.5117C13.5586 19.3789 13.5039 19.2695 13.4258 19.1836C13.3477 19.0977 13.2305 19.0508 13.0742 19.043C12.918 19.0273 12.6992 19.0664 12.418 19.1602C12.418 19.3008 12.418 19.4648 12.418 19.6523C12.418 19.832 12.3984 20.0078 12.3594 20.1797C12.3281 20.3438 12.2617 20.4844 12.1602 20.6016C12.0586 20.7109 11.9102 20.7656 11.7148 20.7656C11.6445 20.7656 11.5625 20.707 11.4688 20.5898C11.3828 20.4727 11.2891 20.332 11.1875 20.168C11.0938 19.9961 10.9961 19.8281 10.8945 19.6641C10.793 19.5 10.6953 19.3672 10.6016 19.2656C10.1328 19.2188 9.76953 19.168 9.51172 19.1133C9.26172 19.0508 9.08984 18.9883 8.99609 18.9258C8.90234 18.8633 8.875 18.8008 8.91406 18.7383C8.95312 18.668 9.02344 18.6016 9.125 18.5391C9.38281 18.4062 9.83203 18.2695 10.4727 18.1289ZM11.9609 17.4727C11.9609 17.543 11.9805 17.5977 12.0195 17.6367C12.0586 17.6758 12.1055 17.707 12.1602 17.7305C12.2148 17.7461 12.2695 17.7578 12.3242 17.7656C12.3867 17.7656 12.4375 17.7656 12.4766 17.7656C12.5391 17.7656 12.6133 17.7617 12.6992 17.7539C12.7852 17.7383 12.8672 17.7188 12.9453 17.6953C13.0312 17.6719 13.1016 17.6367 13.1562 17.5898C13.2188 17.5352 13.25 17.4648 13.25 17.3789C13.25 17.207 13.207 17.0508 13.1211 16.9102C13.043 16.7695 12.918 16.6992 12.7461 16.6992C12.6523 16.6992 12.5586 16.7227 12.4648 16.7695C12.3711 16.8086 12.2852 16.8672 12.207 16.9453C12.1367 17.0156 12.0781 17.0977 12.0312 17.1914C11.9844 17.2852 11.9609 17.3789 11.9609 17.4727ZM17 20.4961C16.9688 20.3711 16.9258 20.1914 16.8711 19.957C16.8242 19.7227 16.7695 19.4648 16.707 19.1836C16.6523 18.9023 16.5977 18.6094 16.543 18.3047C16.4883 17.9922 16.4375 17.6914 16.3906 17.4023C16.3438 17.1055 16.3047 16.8359 16.2734 16.5938C16.25 16.3438 16.2383 16.1406 16.2383 15.9844C16.2383 15.9141 16.2461 15.793 16.2617 15.6211C16.2773 15.4492 16.3008 15.2695 16.332 15.082C16.3633 14.8945 16.3906 14.7188 16.4141 14.5547C16.4453 14.3906 16.4727 14.2773 16.4961 14.2148C16.5195 14.207 16.5586 14.2031 16.6133 14.2031C16.6758 14.2031 16.7383 14.1992 16.8008 14.1914C16.8711 14.1836 16.9336 14.1797 16.9883 14.1797C17.0508 14.1719 17.0938 14.168 17.1172 14.168C17.4922 14.168 17.8477 14.2422 18.1836 14.3906C18.5195 14.5391 18.8398 14.7266 19.1445 14.9531C19.4492 15.1797 19.7461 15.4336 20.0352 15.7148C20.3242 15.9961 20.6133 16.2695 20.9023 16.5352C21.1992 16.8008 21.5 17.043 21.8047 17.2617C22.1094 17.4727 22.4336 17.6328 22.7773 17.7422C22.7773 17.7031 22.7773 17.6445 22.7773 17.5664C22.7852 17.4805 22.7891 17.3906 22.7891 17.2969C22.7891 17.2031 22.7891 17.1172 22.7891 17.0391C22.7969 16.9531 22.8008 16.8906 22.8008 16.8516C22.8008 16.3594 22.7695 15.8789 22.707 15.4102C22.6445 14.9414 22.5742 14.4727 22.4961 14.0039C22.418 13.5352 22.3477 13.0664 22.2852 12.5977C22.2227 12.1211 22.1914 11.6328 22.1914 11.1328C22.2461 11.1328 22.3125 11.1367 22.3906 11.1445C22.4766 11.1445 22.5625 11.1562 22.6484 11.1797C22.7344 11.1953 22.8125 11.2266 22.8828 11.2734C22.9531 11.3125 23 11.375 23.0234 11.4609C23.0547 12.0234 23.125 12.5898 23.2344 13.1602C23.3438 13.7227 23.457 14.2891 23.5742 14.8594C23.6914 15.4219 23.793 15.9883 23.8789 16.5586C23.9727 17.1211 24.0195 17.6797 24.0195 18.2344C24.0195 18.3359 24.0156 18.4453 24.0078 18.5625C24.0078 18.6797 23.9922 18.793 23.9609 18.9023C23.9375 19.0039 23.8945 19.0898 23.832 19.1602C23.7695 19.2305 23.6758 19.2656 23.5508 19.2656C23.1445 19.2656 22.7695 19.1758 22.4258 18.9961C22.082 18.8086 21.7461 18.5781 21.418 18.3047C21.0977 18.0312 20.7812 17.7305 20.4688 17.4023C20.1641 17.0742 19.8477 16.7734 19.5195 16.5C19.1992 16.2266 18.8633 15.9961 18.5117 15.8086C18.168 15.6211 17.7969 15.5273 17.3984 15.5273C17.3984 15.9648 17.4297 16.3867 17.4922 16.793C17.5547 17.1914 17.6211 17.5898 17.6914 17.9883C17.7695 18.3867 17.8398 18.7852 17.9023 19.1836C17.9648 19.5742 17.9961 19.9727 17.9961 20.3789C17.9961 20.5273 17.9414 20.6289 17.832 20.6836C17.7305 20.7383 17.6172 20.7656 17.4922 20.7656C17.3906 20.7656 17.293 20.7578 17.1992 20.7422C17.1133 20.7188 17.0469 20.6367 17 20.4961ZM24.5117 18.6211C24.5117 18.1367 24.625 17.6875 24.8516 17.2734C25.0781 16.8516 25.375 16.4922 25.7422 16.1953C26.1172 15.8906 26.5352 15.6523 26.9961 15.4805C27.4648 15.3086 27.9375 15.2227 28.4141 15.2227C28.6797 15.2227 28.9141 15.3086 29.1172 15.4805C29.3281 15.6523 29.5039 15.8633 29.6445 16.1133C29.7852 16.3555 29.8906 16.6133 29.9609 16.8867C30.0391 17.1602 30.0781 17.3984 30.0781 17.6016C30.0781 18.0391 29.9727 18.4648 29.7617 18.8789C29.5508 19.2852 29.2773 19.6484 28.9414 19.9688C28.6055 20.2812 28.2266 20.5352 27.8047 20.7305C27.3828 20.9258 26.9609 21.0234 26.5391 21.0234C26.1641 21.0234 25.8477 20.9609 25.5898 20.8359C25.332 20.7031 25.125 20.5312 24.9688 20.3203C24.8125 20.1016 24.6953 19.8477 24.6172 19.5586C24.5469 19.2617 24.5117 18.9492 24.5117 18.6211ZM25.5078 18.7383C25.5078 18.9414 25.5234 19.1211 25.5547 19.2773C25.5938 19.4258 25.6562 19.5547 25.7422 19.6641C25.8359 19.7734 25.957 19.8594 26.1055 19.9219C26.2539 19.9766 26.4375 20.0039 26.6562 20.0039C26.9453 20.0039 27.2344 19.9258 27.5234 19.7695C27.8125 19.6055 28.0703 19.4023 28.2969 19.1602C28.5312 18.9102 28.7188 18.6367 28.8594 18.3398C29 18.043 29.0703 17.7539 29.0703 17.4727C29.0703 17.3477 29.0586 17.2109 29.0352 17.0625C29.0117 16.9141 28.9727 16.7773 28.918 16.6523C28.8633 16.5273 28.7852 16.4219 28.6836 16.3359C28.582 16.25 28.4531 16.207 28.2969 16.207C28.1562 16.207 27.9883 16.2539 27.793 16.3477C27.6055 16.4414 27.4062 16.5625 27.1953 16.7109C26.9922 16.8594 26.7891 17.0273 26.5859 17.2148C26.3906 17.4023 26.2109 17.5898 26.0469 17.7773C25.8828 17.9648 25.75 18.1445 25.6484 18.3164C25.5547 18.4883 25.5078 18.6289 25.5078 18.7383ZM35.6797 13.7227C35.6797 13.6836 35.6836 13.6172 35.6914 13.5234C35.6914 13.4219 35.6914 13.3203 35.6914 13.2188C35.6914 13.1094 35.6953 13.0078 35.7031 12.9141C35.7031 12.8203 35.7031 12.7578 35.7031 12.7266C35.8984 12.5156 36.0586 12.3906 36.1836 12.3516C36.3164 12.3125 36.4219 12.3359 36.5 12.4219C36.5781 12.5 36.6328 12.6289 36.6641 12.8086C36.7031 12.9883 36.7305 13.1914 36.7461 13.418C36.7617 13.6445 36.7695 13.8828 36.7695 14.1328C36.7695 14.3828 36.7734 14.6172 36.7812 14.8359C36.7891 15.0469 36.8047 15.2344 36.8281 15.3984C36.8516 15.5625 36.8945 15.6719 36.957 15.7266H40.9766C41.1406 15.7266 41.2578 15.6758 41.3281 15.5742C41.3984 15.4727 41.4375 15.3398 41.4453 15.1758C41.4609 15.0117 41.457 14.8242 41.4336 14.6133C41.4102 14.4023 41.3867 14.1875 41.3633 13.9688C41.3477 13.7422 41.3398 13.5234 41.3398 13.3125C41.3477 13.0938 41.3828 12.9023 41.4453 12.7383C41.5156 12.5742 41.6211 12.4414 41.7617 12.3398C41.9023 12.2383 42.1094 12.1875 42.3828 12.1875C42.4844 12.3359 42.5469 12.5 42.5703 12.6797C42.5938 12.8516 42.5977 13.0312 42.582 13.2188C42.5742 13.4062 42.5547 13.5938 42.5234 13.7812C42.5 13.9609 42.4883 14.1367 42.4883 14.3086C42.4883 14.7695 42.5156 15.2305 42.5703 15.6914C42.6328 16.1523 42.6953 16.6133 42.7578 17.0742C42.8281 17.5352 42.8906 17.9961 42.9453 18.457C43.0078 18.9102 43.0391 19.3594 43.0391 19.8047C43.0547 20.2891 43.0234 20.6367 42.9453 20.8477C42.8672 21.0508 42.7695 21.1406 42.6523 21.1172C42.5352 21.1016 42.4023 20.9844 42.2539 20.7656C42.1133 20.5469 41.9805 20.2539 41.8555 19.8867C41.7383 19.5195 41.6406 19.0898 41.5625 18.5977C41.4922 18.0977 41.4648 17.5586 41.4805 16.9805H37.25C37.3047 17.5195 37.375 18.0273 37.4609 18.5039C37.5547 18.9805 37.625 19.4023 37.6719 19.7695C37.7266 20.1289 37.7461 20.418 37.7305 20.6367C37.7227 20.8477 37.6445 20.957 37.4961 20.9648C37.2695 20.9648 37.0781 20.8906 36.9219 20.7422C36.7656 20.5859 36.6289 20.375 36.5117 20.1094C36.4023 19.8438 36.3125 19.5352 36.2422 19.1836C36.1719 18.8242 36.1133 18.4492 36.0664 18.0586C36.0195 17.6602 35.9805 17.2539 35.9492 16.8398C35.9258 16.4258 35.9023 16.0273 35.8789 15.6445C35.8555 15.2617 35.8281 14.9062 35.7969 14.5781C35.7656 14.2422 35.7266 13.957 35.6797 13.7227ZM44.2109 16.6055C44.2109 16.5586 44.2109 16.4844 44.2109 16.3828C44.2188 16.2734 44.2227 16.1602 44.2227 16.043C44.2305 15.9258 44.2344 15.8125 44.2344 15.7031C44.2422 15.5938 44.2461 15.5156 44.2461 15.4688C44.332 15.3438 44.4414 15.2422 44.5742 15.1641C44.7148 15.0859 44.8555 15.0234 44.9961 14.9766C45.0195 15.3984 45.0859 15.8477 45.1953 16.3242C45.3047 16.8008 45.4219 17.2812 45.5469 17.7656C45.6719 18.2422 45.7812 18.7148 45.875 19.1836C45.9766 19.6523 46.0273 20.0898 46.0273 20.4961C46.0273 20.8477 45.8477 21.0234 45.4883 21.0234C45.2695 21.0234 45.0859 20.9336 44.9375 20.7539C44.7891 20.5742 44.668 20.3477 44.5742 20.0742C44.4883 19.793 44.418 19.4844 44.3633 19.1484C44.3086 18.8047 44.2695 18.4688 44.2461 18.1406C44.2305 17.8125 44.2188 17.5117 44.2109 17.2383C44.2109 16.9648 44.2109 16.7539 44.2109 16.6055ZM44.375 12.2109C44.5234 12.2734 44.6484 12.375 44.75 12.5156C44.8516 12.6562 44.8945 12.7852 44.8789 12.9023C44.8711 13.0117 44.7852 13.0898 44.6211 13.1367C44.457 13.1758 44.1836 13.1289 43.8008 12.9961C43.8008 12.7852 43.8398 12.6016 43.918 12.4453C44.0039 12.2891 44.1562 12.2109 44.375 12.2109ZM46.2266 19.6172C46.2266 19.1641 46.3398 18.7617 46.5664 18.4102C46.793 18.0586 47.0742 17.7539 47.4102 17.4961C47.7461 17.2305 48.1094 17.0078 48.5 16.8281C48.8906 16.6406 49.2539 16.4883 49.5898 16.3711C49.9258 16.2461 50.207 16.1484 50.4336 16.0781C50.6602 16 50.7734 15.9375 50.7734 15.8906C50.7734 15.6172 50.7578 15.3516 50.7266 15.0938C50.7031 14.8281 50.6758 14.5625 50.6445 14.2969C50.6133 14.0312 50.582 13.7695 50.5508 13.5117C50.5273 13.2461 50.5156 12.9844 50.5156 12.7266V11.9648C50.8359 11.8477 51.0625 11.8594 51.1953 12C51.3359 12.1406 51.3594 12.3828 51.2656 12.7266C51.2969 12.8984 51.3398 13.168 51.3945 13.5352C51.4492 13.9023 51.5078 14.3164 51.5703 14.7773C51.6406 15.2383 51.7109 15.7227 51.7812 16.2305C51.8594 16.7383 51.9297 17.2266 51.9922 17.6953C52.0625 18.1562 52.1211 18.5703 52.168 18.9375C52.2148 19.2969 52.25 19.5664 52.2734 19.7461C52.2812 19.7852 52.2891 19.8633 52.2969 19.9805C52.3047 20.0898 52.3086 20.2109 52.3086 20.3438C52.3164 20.4688 52.3203 20.5859 52.3203 20.6953C52.3281 20.8047 52.332 20.8828 52.332 20.9297C52.0352 20.9297 51.832 20.918 51.7227 20.8945C51.6211 20.8711 51.5547 20.8242 51.5234 20.7539C51.5 20.6836 51.4883 20.582 51.4883 20.4492C51.4883 20.3164 51.4492 20.1328 51.3711 19.8984C51.082 20.125 50.8086 20.3125 50.5508 20.4609C50.293 20.6094 50.0352 20.7305 49.7773 20.8242C49.5195 20.9102 49.2578 20.9688 48.9922 21C48.7344 21.0391 48.457 21.0586 48.1602 21.0586C47.9102 21.0586 47.668 21.0391 47.4336 21C47.207 20.9531 47.0039 20.875 46.8242 20.7656C46.6445 20.6562 46.5 20.5078 46.3906 20.3203C46.2812 20.1328 46.2266 19.8984 46.2266 19.6172ZM47.2461 19.3711C47.2461 19.4961 47.2734 19.5977 47.3281 19.6758C47.3828 19.7539 47.4531 19.8203 47.5391 19.875C47.625 19.9297 47.7148 19.9688 47.8086 19.9922C47.9102 20.0078 48.0078 20.0156 48.1016 20.0156C48.375 20.0156 48.668 19.9648 48.9805 19.8633C49.3008 19.7539 49.5938 19.6055 49.8594 19.418C50.1328 19.2227 50.3555 18.9922 50.5273 18.7266C50.707 18.4609 50.7969 18.1719 50.7969 17.8594C50.7969 17.6172 50.7539 17.4492 50.668 17.3555C50.582 17.2617 50.418 17.2148 50.1758 17.2148C49.9258 17.2148 49.6328 17.2734 49.2969 17.3906C48.9688 17.5078 48.6484 17.6641 48.3359 17.8594C48.0312 18.0547 47.7734 18.2852 47.5625 18.5508C47.3516 18.8086 47.2461 19.082 47.2461 19.3711ZM52.7656 19.6172C52.7656 19.1641 52.8789 18.7617 53.1055 18.4102C53.332 18.0586 53.6133 17.7539 53.9492 17.4961C54.2852 17.2305 54.6484 17.0078 55.0391 16.8281C55.4297 16.6406 55.793 16.4883 56.1289 16.3711C56.4648 16.2461 56.7461 16.1484 56.9727 16.0781C57.1992 16 57.3125 15.9375 57.3125 15.8906C57.3125 15.6172 57.2969 15.3516 57.2656 15.0938C57.2422 14.8281 57.2148 14.5625 57.1836 14.2969C57.1523 14.0312 57.1211 13.7695 57.0898 13.5117C57.0664 13.2461 57.0547 12.9844 57.0547 12.7266V11.9648C57.375 11.8477 57.6016 11.8594 57.7344 12C57.875 12.1406 57.8984 12.3828 57.8047 12.7266C57.8359 12.8984 57.8789 13.168 57.9336 13.5352C57.9883 13.9023 58.0469 14.3164 58.1094 14.7773C58.1797 15.2383 58.25 15.7227 58.3203 16.2305C58.3984 16.7383 58.4688 17.2266 58.5312 17.6953C58.6016 18.1562 58.6602 18.5703 58.707 18.9375C58.7539 19.2969 58.7891 19.5664 58.8125 19.7461C58.8203 19.7852 58.8281 19.8633 58.8359 19.9805C58.8438 20.0898 58.8477 20.2109 58.8477 20.3438C58.8555 20.4688 58.8594 20.5859 58.8594 20.6953C58.8672 20.8047 58.8711 20.8828 58.8711 20.9297C58.5742 20.9297 58.3711 20.918 58.2617 20.8945C58.1602 20.8711 58.0938 20.8242 58.0625 20.7539C58.0391 20.6836 58.0273 20.582 58.0273 20.4492C58.0273 20.3164 57.9883 20.1328 57.9102 19.8984C57.6211 20.125 57.3477 20.3125 57.0898 20.4609C56.832 20.6094 56.5742 20.7305 56.3164 20.8242C56.0586 20.9102 55.7969 20.9688 55.5312 21C55.2734 21.0391 54.9961 21.0586 54.6992 21.0586C54.4492 21.0586 54.207 21.0391 53.9727 21C53.7461 20.9531 53.543 20.875 53.3633 20.7656C53.1836 20.6562 53.0391 20.5078 52.9297 20.3203C52.8203 20.1328 52.7656 19.8984 52.7656 19.6172ZM53.7852 19.3711C53.7852 19.4961 53.8125 19.5977 53.8672 19.6758C53.9219 19.7539 53.9922 19.8203 54.0781 19.875C54.1641 19.9297 54.2539 19.9688 54.3477 19.9922C54.4492 20.0078 54.5469 20.0156 54.6406 20.0156C54.9141 20.0156 55.207 19.9648 55.5195 19.8633C55.8398 19.7539 56.1328 19.6055 56.3984 19.418C56.6719 19.2227 56.8945 18.9922 57.0664 18.7266C57.2461 18.4609 57.3359 18.1719 57.3359 17.8594C57.3359 17.6172 57.293 17.4492 57.207 17.3555C57.1211 17.2617 56.957 17.2148 56.7148 17.2148C56.4648 17.2148 56.1719 17.2734 55.8359 17.3906C55.5078 17.5078 55.1875 17.6641 54.875 17.8594C54.5703 18.0547 54.3125 18.2852 54.1016 18.5508C53.8906 18.8086 53.7852 19.082 53.7852 19.3711ZM59.5625 17.7422C59.5625 17.3203 59.6133 16.8984 59.7148 16.4766C59.8164 16.0547 59.9766 15.6758 60.1953 15.3398C60.4219 15.0039 60.7109 14.7305 61.0625 14.5195C61.4219 14.3086 61.8555 14.2031 62.3633 14.2031C62.6523 14.2031 62.9062 14.2578 63.125 14.3672C63.3438 14.4688 63.5273 14.6055 63.6758 14.7773C63.8242 14.9492 63.9336 15.1523 64.0039 15.3867C64.082 15.6133 64.1211 15.8516 64.1211 16.1016C64.1211 16.5 64.0273 16.8867 63.8398 17.2617C63.6602 17.6367 63.4141 17.9688 63.1016 18.2578C62.7969 18.5391 62.4453 18.7539 62.0469 18.9023C61.6484 19.043 61.2422 19.0742 60.8281 18.9961C60.8359 19.2227 60.9102 19.4062 61.0508 19.5469C61.1992 19.6797 61.375 19.7812 61.5781 19.8516C61.7812 19.9219 61.9922 19.9688 62.2109 19.9922C62.4297 20.0078 62.625 20.0156 62.7969 20.0156C62.9766 20.0156 63.1445 20 63.3008 19.9688C63.457 19.9375 63.6133 19.9023 63.7695 19.8633C63.9258 19.8242 64.082 19.7891 64.2383 19.7578C64.4023 19.7266 64.5742 19.7109 64.7539 19.7109C64.8242 19.7109 64.8945 19.7148 64.9648 19.7227C65.0352 19.7305 65.1016 19.75 65.1641 19.7812C65.2266 19.8047 65.2773 19.8477 65.3164 19.9102C65.3555 19.9648 65.375 20.0352 65.375 20.1211C65.375 20.2695 65.3203 20.3945 65.2109 20.4961C65.1016 20.5898 64.9609 20.6719 64.7891 20.7422C64.625 20.8125 64.4414 20.8672 64.2383 20.9062C64.0352 20.9375 63.8359 20.9648 63.6406 20.9883C63.4531 21.0039 63.2773 21.0117 63.1133 21.0117C62.957 21.0195 62.8398 21.0234 62.7617 21.0234C62.2617 21.0234 61.8125 20.9453 61.4141 20.7891C61.0156 20.625 60.6797 20.4023 60.4062 20.1211C60.1328 19.832 59.9219 19.4883 59.7734 19.0898C59.6328 18.6836 59.5625 18.2344 59.5625 17.7422ZM60.8047 16.9805C60.8047 17.2539 60.8398 17.4531 60.9102 17.5781C60.9883 17.7031 61.1719 17.7656 61.4609 17.7656C61.6641 17.7656 61.8633 17.7305 62.0586 17.6602C62.2539 17.582 62.4297 17.4766 62.5859 17.3438C62.75 17.2109 62.8789 17.0547 62.9727 16.875C63.0664 16.6953 63.1133 16.5 63.1133 16.2891C63.1133 16.1719 63.1016 16.0508 63.0781 15.9258C63.0625 15.8008 63.0234 15.6875 62.9609 15.5859C62.8984 15.4766 62.8164 15.3906 62.7148 15.3281C62.6211 15.2578 62.4961 15.2227 62.3398 15.2227C62.1055 15.2227 61.8906 15.2773 61.6953 15.3867C61.5078 15.4883 61.3477 15.625 61.2148 15.7969C61.082 15.9609 60.9805 16.1484 60.9102 16.3594C60.8398 16.5625 60.8047 16.7695 60.8047 16.9805ZM66.1016 17.0508C66.1016 16.8477 66.1523 16.7031 66.2539 16.6172C66.3555 16.5234 66.5195 16.4766 66.7461 16.4766H66.8633C66.8867 16.6016 66.9141 16.7461 66.9453 16.9102C66.9766 17.0742 67.0234 17.2422 67.0859 17.4141C67.1484 17.5859 67.2227 17.7461 67.3086 17.8945C67.3945 18.0352 67.5 18.1484 67.625 18.2344C67.6328 17.9609 67.6992 17.6992 67.8242 17.4492C67.957 17.1914 68.1172 16.9648 68.3047 16.7695C68.5 16.5664 68.7109 16.3984 68.9375 16.2656C69.1719 16.125 69.4023 16.0312 69.6289 15.9844H69.8867C70.2617 15.9844 70.582 16.0703 70.8477 16.2422C71.1133 16.4062 71.332 16.625 71.5039 16.8984C71.6836 17.1641 71.8203 17.4688 71.9141 17.8125C72.0078 18.1562 72.0781 18.5078 72.125 18.8672C72.1797 19.2188 72.2109 19.5625 72.2188 19.8984C72.2344 20.2266 72.2422 20.5078 72.2422 20.7422H71.3867C71.3398 20.2734 71.2812 19.8242 71.2109 19.3945C71.1875 19.2227 71.1562 19.043 71.1172 18.8555C71.0781 18.6602 71.0352 18.4805 70.9883 18.3164C70.9414 18.1445 70.8906 17.9883 70.8359 17.8477C70.7812 17.6992 70.7188 17.5742 70.6484 17.4727C70.6172 17.4414 70.5742 17.3984 70.5195 17.3438C70.4727 17.2891 70.4219 17.2344 70.3672 17.1797C70.3125 17.125 70.2617 17.0781 70.2148 17.0391C70.168 17 70.1406 16.9805 70.1328 16.9805C69.8984 16.918 69.6953 16.9648 69.5234 17.1211C69.3516 17.2695 69.1992 17.4727 69.0664 17.7305C68.9336 17.9883 68.8242 18.2812 68.7383 18.6094C68.6602 18.9375 68.5938 19.2539 68.5391 19.5586C68.4844 19.8555 68.4453 20.1172 68.4219 20.3438C68.3984 20.5625 68.3828 20.6953 68.375 20.7422C68.1797 20.8828 67.9961 20.9258 67.8242 20.8711C67.6523 20.8086 67.4883 20.6836 67.332 20.4961C67.1836 20.3086 67.0469 20.0742 66.9219 19.793C66.8047 19.5117 66.6953 19.2148 66.5938 18.9023C66.4922 18.582 66.3984 18.2617 66.3125 17.9414C66.2344 17.6211 66.1641 17.3242 66.1016 17.0508ZM78.2891 16.9805C78.2891 16.7148 78.3242 16.4258 78.3945 16.1133C78.4727 15.8008 78.5781 15.4883 78.7109 15.1758C78.8438 14.8555 79.0039 14.5469 79.1914 14.25C79.3789 13.9453 79.5898 13.6797 79.8242 13.4531C80.0586 13.2188 80.3125 13.0352 80.5859 12.9023C80.8594 12.7617 81.1484 12.6914 81.4531 12.6914C81.7031 12.6914 81.9375 12.7266 82.1562 12.7969C82.375 12.8594 82.5625 12.957 82.7188 13.0898C82.875 13.2227 82.9961 13.3906 83.082 13.5938C83.1758 13.7891 83.2227 14.0234 83.2227 14.2969C83.0508 14.2969 82.9102 14.2539 82.8008 14.168C82.6992 14.0742 82.6016 13.9727 82.5078 13.8633C82.4219 13.7539 82.3242 13.6562 82.2148 13.5703C82.1133 13.4844 81.9805 13.4414 81.8164 13.4414C81.5742 13.4414 81.3398 13.5039 81.1133 13.6289C80.8945 13.7539 80.6875 13.9219 80.4922 14.1328C80.3047 14.3438 80.1367 14.582 79.9883 14.8477C79.8477 15.1133 79.7227 15.3828 79.6133 15.6562C79.5117 15.9219 79.4297 16.1836 79.3672 16.4414C79.3125 16.6992 79.2852 16.9219 79.2852 17.1094C79.2852 17.5156 79.3438 17.8984 79.4609 18.2578C79.5859 18.6094 79.7617 18.918 79.9883 19.1836C80.2148 19.4414 80.4961 19.6445 80.832 19.793C81.168 19.9414 81.5508 20.0156 81.9805 20.0156C82.2539 20.0156 82.5117 19.9766 82.7539 19.8984C83.0039 19.8125 83.2422 19.7227 83.4688 19.6289C83.7031 19.5273 83.9336 19.4336 84.1602 19.3477C84.3867 19.2617 84.6133 19.2188 84.8398 19.2188C84.8711 19.2188 84.9141 19.2227 84.9688 19.2305C85.0312 19.2305 85.0859 19.2383 85.1328 19.2539C85.1875 19.2695 85.2344 19.2969 85.2734 19.3359C85.3125 19.3672 85.332 19.418 85.332 19.4883C85.332 19.7695 85.2227 20.0078 85.0039 20.2031C84.793 20.3984 84.5391 20.5586 84.2422 20.6836C83.9453 20.8008 83.6367 20.8867 83.3164 20.9414C82.9961 20.9961 82.7344 21.0234 82.5312 21.0234C81.9375 21.0234 81.3828 20.9297 80.8672 20.7422C80.3516 20.5469 79.9023 20.2734 79.5195 19.9219C79.1367 19.5703 78.8359 19.1484 78.6172 18.6562C78.3984 18.1562 78.2891 17.5977 78.2891 16.9805ZM86.1641 13.3828C86.1641 13.2969 86.1719 13.1914 86.1875 13.0664C86.2109 12.9336 86.2461 12.8086 86.293 12.6914C86.3477 12.5742 86.4141 12.4766 86.4922 12.3984C86.5703 12.3125 86.6719 12.2695 86.7969 12.2695C86.8047 12.2695 86.8242 12.2734 86.8555 12.2812C86.8867 12.2891 86.9062 12.293 86.9141 12.293C87.0469 12.7773 87.125 13.2578 87.1484 13.7344C87.1719 14.2109 87.1641 14.6758 87.125 15.1289C87.0859 15.5742 87.0273 16.0078 86.9492 16.4297C86.8711 16.8438 86.8047 17.2266 86.75 17.5781C86.7031 17.9297 86.6719 18.2461 86.6562 18.5273C86.6484 18.8086 86.6914 19.0469 86.7852 19.2422C86.7695 19.1172 86.7578 18.9688 86.75 18.7969C86.75 18.6172 86.7656 18.4336 86.7969 18.2461C86.8359 18.0586 86.8945 17.8711 86.9727 17.6836C87.0586 17.4961 87.1797 17.3281 87.3359 17.1797C87.4922 17.0312 87.6914 16.9141 87.9336 16.8281C88.1836 16.7422 88.4922 16.6992 88.8594 16.6992C89.2422 16.6992 89.5703 16.7656 89.8438 16.8984C90.125 17.0312 90.3555 17.2148 90.5352 17.4492C90.7148 17.6758 90.8477 17.9453 90.9336 18.2578C91.0273 18.5625 91.0742 18.8906 91.0742 19.2422C91.0742 19.4062 91.0703 19.5938 91.0625 19.8047C91.0625 20.0078 91.0352 20.1992 90.9805 20.3789C90.9336 20.5508 90.8438 20.6992 90.7109 20.8242C90.5859 20.9414 90.3984 21 90.1484 21C90.1484 20.875 90.1562 20.707 90.1719 20.4961C90.1875 20.2773 90.1953 20.0469 90.1953 19.8047C90.2031 19.5625 90.1953 19.3164 90.1719 19.0664C90.1562 18.8164 90.1055 18.5938 90.0195 18.3984C89.9336 18.1953 89.8125 18.0312 89.6562 17.9062C89.5078 17.7734 89.3008 17.707 89.0352 17.707C88.9414 17.707 88.8242 17.7148 88.6836 17.7305C88.5508 17.7383 88.4141 17.7734 88.2734 17.8359C88.1328 17.8984 87.9961 17.9961 87.8633 18.1289C87.7305 18.2539 87.625 18.4297 87.5469 18.6562C87.4688 18.875 87.4219 19.1562 87.4062 19.5C87.3984 19.8359 87.4414 20.25 87.5352 20.7422C87.4805 20.8828 87.4102 20.9648 87.3242 20.9883C87.2461 21.0117 87.1445 21.0234 87.0195 21.0234C86.7695 21.0234 86.5625 20.9375 86.3984 20.7656C86.2422 20.5859 86.1211 20.3477 86.0352 20.0508C85.9492 19.7539 85.8906 19.4102 85.8594 19.0195C85.8359 18.6289 85.8281 18.2227 85.8359 17.8008C85.8438 17.3711 85.8633 16.9375 85.8945 16.5C85.9336 16.0547 85.9688 15.6367 86 15.2461C86.0391 14.8477 86.0742 14.4883 86.1055 14.168C86.1445 13.8398 86.1641 13.5781 86.1641 13.3828ZM96.582 19.4883C96.2852 19.6914 96.0273 19.875 95.8086 20.0391C95.5977 20.1953 95.3906 20.3281 95.1875 20.4375C94.9844 20.5469 94.7656 20.6289 94.5312 20.6836C94.3047 20.7383 94.0234 20.7656 93.6875 20.7656C92.9609 20.7656 92.4219 20.5742 92.0703 20.1914C91.7188 19.8008 91.543 19.2227 91.543 18.457C91.543 18.1602 91.582 17.8516 91.6602 17.5312C91.7383 17.2109 91.8516 16.8945 92 16.582C92.1562 16.2617 92.3398 15.9609 92.5508 15.6797C92.7617 15.3906 93 15.1367 93.2656 14.918C93.5312 14.6992 93.8125 14.5273 94.1094 14.4023C94.4141 14.2695 94.7344 14.2031 95.0703 14.2031C95.6328 14.2578 96.0742 14.3984 96.3945 14.625C96.7148 14.8438 96.957 15.1289 97.1211 15.4805C97.2852 15.8242 97.3984 16.2109 97.4609 16.6406C97.5234 17.0625 97.5703 17.5 97.6016 17.9531C97.6406 18.4062 97.6875 18.8594 97.7422 19.3125C97.7969 19.7656 97.9102 20.1836 98.082 20.5664C97.9805 20.8242 97.8828 21.0039 97.7891 21.1055C97.7031 21.2148 97.6055 21.2344 97.4961 21.1641C97.3867 21.0938 97.2578 20.9219 97.1094 20.6484C96.9688 20.375 96.793 19.9883 96.582 19.4883ZM92.5391 18.4805C92.5391 18.9258 92.6211 19.2539 92.7852 19.4648C92.957 19.668 93.2578 19.7695 93.6875 19.7695C94.0078 19.7695 94.3125 19.7148 94.6016 19.6055C94.8984 19.4883 95.1562 19.332 95.375 19.1367C95.5938 18.9336 95.7695 18.6914 95.9023 18.4102C96.0352 18.1289 96.1016 17.8164 96.1016 17.4727C96.1016 17.332 96.1055 17.1367 96.1133 16.8867C96.1211 16.6289 96.1055 16.375 96.0664 16.125C96.0273 15.875 95.9531 15.6602 95.8438 15.4805C95.7344 15.293 95.5703 15.1992 95.3516 15.1992C94.9453 15.1992 94.5703 15.3047 94.2266 15.5156C93.8828 15.7188 93.5859 15.9805 93.3359 16.3008C93.0859 16.6211 92.8906 16.9766 92.75 17.3672C92.6094 17.75 92.5391 18.1211 92.5391 18.4805ZM98.8203 16.0781C98.8203 16.0078 98.8242 15.9375 98.832 15.8672C98.8398 15.7891 98.8555 15.7227 98.8789 15.668C98.9023 15.6055 98.9375 15.5547 98.9844 15.5156C99.0391 15.4766 99.1133 15.457 99.207 15.457C99.2852 15.457 99.3711 15.5195 99.4648 15.6445C99.5664 15.7617 99.668 15.9141 99.7695 16.1016C99.8711 16.2812 99.9688 16.4805 100.062 16.6992C100.164 16.918 100.25 17.1211 100.32 17.3086C100.398 17.4883 100.461 17.6445 100.508 17.7773C100.555 17.9102 100.582 17.9805 100.59 17.9883C100.691 17.7148 100.805 17.418 100.93 17.0977C101.055 16.7773 101.207 16.4805 101.387 16.207C101.574 15.9258 101.793 15.6914 102.043 15.5039C102.301 15.3164 102.613 15.2227 102.98 15.2227C103.168 15.2227 103.344 15.2539 103.508 15.3164C103.68 15.3711 103.828 15.457 103.953 15.5742C104.086 15.6836 104.191 15.8164 104.27 15.9727C104.348 16.1289 104.387 16.3086 104.387 16.5117C104.387 16.6836 104.316 16.8047 104.176 16.875C104.043 16.9453 103.891 16.9805 103.719 16.9805H103.602L103.098 16.4766C103.082 16.4766 103.07 16.4727 103.062 16.4648C103.047 16.4648 103.031 16.4648 103.016 16.4648C103.008 16.457 102.996 16.4531 102.98 16.4531C102.707 16.4531 102.492 16.5312 102.336 16.6875C102.188 16.8359 102.074 17.0234 101.996 17.25C101.918 17.4688 101.867 17.7031 101.844 17.9531C101.828 18.1953 101.82 18.418 101.82 18.6211C101.82 18.7773 101.836 18.9375 101.867 19.1016C101.898 19.2578 101.934 19.4141 101.973 19.5703C102.012 19.7188 102.047 19.875 102.078 20.0391C102.109 20.1953 102.125 20.3594 102.125 20.5312C102.125 20.8594 101.949 21.0234 101.598 21.0234C101.402 21.0234 101.199 20.9219 100.988 20.7188C100.777 20.5078 100.566 20.2422 100.355 19.9219C100.152 19.6016 99.957 19.25 99.7695 18.8672C99.582 18.4766 99.418 18.0977 99.2773 17.7305C99.1367 17.3633 99.0234 17.0312 98.9375 16.7344C98.8594 16.4375 98.8203 16.2188 98.8203 16.0781ZM107.832 27.2344C108.27 27.2344 108.66 27.1523 109.004 26.9883C109.348 26.832 109.637 26.6133 109.871 26.332C110.113 26.0586 110.297 25.7422 110.422 25.3828C110.555 25.0312 110.621 24.6641 110.621 24.2812C110.621 24.0859 110.609 23.8281 110.586 23.5078C110.57 23.1875 110.543 22.8398 110.504 22.4648C110.465 22.0898 110.406 21.707 110.328 21.3164C110.258 20.9258 110.168 20.5586 110.059 20.2148C109.949 19.8633 109.812 19.5586 109.648 19.3008C109.492 19.0352 109.309 18.8477 109.098 18.7383C108.895 18.8945 108.695 19.0391 108.5 19.1719C108.305 19.2969 108.102 19.4023 107.891 19.4883C107.68 19.5742 107.461 19.6445 107.234 19.6992C107.008 19.7461 106.766 19.7695 106.508 19.7695C106.172 19.7695 105.883 19.7383 105.641 19.6758C105.406 19.6133 105.207 19.5078 105.043 19.3594C104.887 19.2109 104.77 19.0156 104.691 18.7734C104.613 18.5312 104.574 18.2266 104.574 17.8594C104.574 17.6016 104.637 17.3516 104.762 17.1094C104.887 16.8594 105.051 16.6289 105.254 16.418C105.465 16.1992 105.699 16 105.957 15.8203C106.223 15.6406 106.492 15.4844 106.766 15.3516C107.047 15.2188 107.32 15.1172 107.586 15.0469C107.859 14.9766 108.102 14.9414 108.312 14.9414C108.516 14.9414 108.684 14.9492 108.816 14.9648C108.949 14.9727 109.062 15.0039 109.156 15.0586C109.25 15.1055 109.328 15.1836 109.391 15.293C109.461 15.3945 109.527 15.5352 109.59 15.7148C109.77 16.3242 109.977 16.9805 110.211 17.6836C110.445 18.3867 110.668 19.1094 110.879 19.8516C111.09 20.5938 111.266 21.3398 111.406 22.0898C111.555 22.8477 111.629 23.5781 111.629 24.2812C111.629 24.9062 111.539 25.4336 111.359 25.8633C111.188 26.3008 110.957 26.6562 110.668 26.9297C110.387 27.2109 110.062 27.4258 109.695 27.5742C109.336 27.7227 108.973 27.8164 108.605 27.8555C108.238 27.9023 107.883 27.9141 107.539 27.8906C107.195 27.8672 106.898 27.8203 106.648 27.75C106.398 27.6875 106.207 27.6133 106.074 27.5273C105.949 27.4414 105.918 27.3672 105.98 27.3047C106.051 27.25 106.23 27.2109 106.52 27.1875C106.809 27.1641 107.246 27.1797 107.832 27.2344ZM107.996 15.9258C107.418 16.0508 106.949 16.2266 106.59 16.4531C106.238 16.6719 105.973 16.9102 105.793 17.168C105.621 17.418 105.527 17.6719 105.512 17.9297C105.496 18.1797 105.543 18.3945 105.652 18.5742C105.762 18.7539 105.918 18.8906 106.121 18.9844C106.332 19.0703 106.57 19.0742 106.836 18.9961C107.102 18.9102 107.383 18.7305 107.68 18.457C107.984 18.1836 108.289 17.7773 108.594 17.2383C108.594 17.1055 108.594 16.9609 108.594 16.8047C108.602 16.6484 108.59 16.5078 108.559 16.3828C108.527 16.25 108.469 16.1406 108.383 16.0547C108.297 15.9688 108.168 15.9258 107.996 15.9258ZM111.594 17.7422C111.594 17.3203 111.645 16.8984 111.746 16.4766C111.848 16.0547 112.008 15.6758 112.227 15.3398C112.453 15.0039 112.742 14.7305 113.094 14.5195C113.453 14.3086 113.887 14.2031 114.395 14.2031C114.684 14.2031 114.938 14.2578 115.156 14.3672C115.375 14.4688 115.559 14.6055 115.707 14.7773C115.855 14.9492 115.965 15.1523 116.035 15.3867C116.113 15.6133 116.152 15.8516 116.152 16.1016C116.152 16.5 116.059 16.8867 115.871 17.2617C115.691 17.6367 115.445 17.9688 115.133 18.2578C114.828 18.5391 114.477 18.7539 114.078 18.9023C113.68 19.043 113.273 19.0742 112.859 18.9961C112.867 19.2227 112.941 19.4062 113.082 19.5469C113.23 19.6797 113.406 19.7812 113.609 19.8516C113.812 19.9219 114.023 19.9688 114.242 19.9922C114.461 20.0078 114.656 20.0156 114.828 20.0156C115.008 20.0156 115.176 20 115.332 19.9688C115.488 19.9375 115.645 19.9023 115.801 19.8633C115.957 19.8242 116.113 19.7891 116.27 19.7578C116.434 19.7266 116.605 19.7109 116.785 19.7109C116.855 19.7109 116.926 19.7148 116.996 19.7227C117.066 19.7305 117.133 19.75 117.195 19.7812C117.258 19.8047 117.309 19.8477 117.348 19.9102C117.387 19.9648 117.406 20.0352 117.406 20.1211C117.406 20.2695 117.352 20.3945 117.242 20.4961C117.133 20.5898 116.992 20.6719 116.82 20.7422C116.656 20.8125 116.473 20.8672 116.27 20.9062C116.066 20.9375 115.867 20.9648 115.672 20.9883C115.484 21.0039 115.309 21.0117 115.145 21.0117C114.988 21.0195 114.871 21.0234 114.793 21.0234C114.293 21.0234 113.844 20.9453 113.445 20.7891C113.047 20.625 112.711 20.4023 112.438 20.1211C112.164 19.832 111.953 19.4883 111.805 19.0898C111.664 18.6836 111.594 18.2344 111.594 17.7422ZM112.836 16.9805C112.836 17.2539 112.871 17.4531 112.941 17.5781C113.02 17.7031 113.203 17.7656 113.492 17.7656C113.695 17.7656 113.895 17.7305 114.09 17.6602C114.285 17.582 114.461 17.4766 114.617 17.3438C114.781 17.2109 114.91 17.0547 115.004 16.875C115.098 16.6953 115.145 16.5 115.145 16.2891C115.145 16.1719 115.133 16.0508 115.109 15.9258C115.094 15.8008 115.055 15.6875 114.992 15.5859C114.93 15.4766 114.848 15.3906 114.746 15.3281C114.652 15.2578 114.527 15.2227 114.371 15.2227C114.137 15.2227 113.922 15.2773 113.727 15.3867C113.539 15.4883 113.379 15.625 113.246 15.7969C113.113 15.9609 113.012 16.1484 112.941 16.3594C112.871 16.5625 112.836 16.7695 112.836 16.9805ZM120.383 20.4727C120.508 20.3867 120.656 20.2773 120.828 20.1445C121.008 20.0039 121.188 19.8555 121.367 19.6992C121.547 19.543 121.715 19.3789 121.871 19.207C122.027 19.0352 122.148 18.8711 122.234 18.7148C122.328 18.5508 122.375 18.3984 122.375 18.2578C122.375 18.1172 122.305 18 122.164 17.9062C121.914 17.9062 121.641 17.918 121.344 17.9414C121.047 17.957 120.75 17.9648 120.453 17.9648C120.156 17.957 119.867 17.9297 119.586 17.8828C119.312 17.8359 119.066 17.75 118.848 17.625C118.629 17.5 118.453 17.3242 118.32 17.0977C118.195 16.8633 118.133 16.5664 118.133 16.207C118.133 15.7852 118.211 15.4062 118.367 15.0703C118.531 14.7266 118.746 14.4258 119.012 14.168C119.277 13.9023 119.574 13.6719 119.902 13.4766C120.238 13.2734 120.574 13.1016 120.91 12.9609C121.113 13.0156 121.301 13.1133 121.473 13.2539C121.645 13.3945 121.793 13.5508 121.918 13.7227C121.863 13.8945 121.754 14.0273 121.59 14.1211C121.434 14.2148 121.25 14.2969 121.039 14.3672C120.836 14.4375 120.621 14.5117 120.395 14.5898C120.168 14.668 119.961 14.7734 119.773 14.9062C119.594 15.0312 119.441 15.1992 119.316 15.4102C119.191 15.6133 119.129 15.8828 119.129 16.2188C119.129 16.4688 119.191 16.6523 119.316 16.7695C119.441 16.8867 119.605 16.9688 119.809 17.0156C120.012 17.0547 120.242 17.0703 120.5 17.0625C120.758 17.0469 121.02 17.0273 121.285 17.0039C121.559 16.9805 121.824 16.9688 122.082 16.9688C122.34 16.9609 122.57 16.9922 122.773 17.0625C122.977 17.125 123.137 17.2305 123.254 17.3789C123.379 17.5273 123.441 17.7461 123.441 18.0352C123.441 18.1602 123.398 18.3203 123.312 18.5156C123.234 18.7109 123.125 18.9219 122.984 19.1484C122.852 19.3672 122.691 19.5859 122.504 19.8047C122.324 20.0234 122.133 20.2227 121.93 20.4023C121.734 20.5742 121.535 20.7188 121.332 20.8359C121.137 20.9453 120.953 21 120.781 21C120.617 21 120.508 20.9414 120.453 20.8242C120.406 20.707 120.383 20.5898 120.383 20.4727Z" fill="#FCFCFC"/>
</svg>
