<svg width="75" height="32" viewBox="0 0 75 32" fill="none" xmlns="http://www.w3.org/2000/svg">
<rect width="75" height="32" rx="16" fill="#F4A988"/>
<path d="M10.4727 18.1289C10.4727 18.0508 10.4531 17.8945 10.4141 17.6602C10.3828 17.418 10.3242 17.0977 10.2383 16.6992C9.74609 16.8477 9.35156 16.9102 9.05469 16.8867C8.76562 16.8555 8.5625 16.7812 8.44531 16.6641C8.32812 16.5469 8.29688 16.4102 8.35156 16.2539C8.40625 16.0977 8.52734 15.9688 8.71484 15.8672C8.91016 15.7578 9.16797 15.6992 9.48828 15.6914C9.81641 15.6758 10.1992 15.7461 10.6367 15.9023C10.668 15.8633 10.6914 15.7812 10.707 15.6562C10.7305 15.5312 10.7539 15.3867 10.7773 15.2227C10.8008 15.0586 10.8242 14.8867 10.8477 14.707C10.8789 14.5273 10.9023 14.3633 10.918 14.2148C10.9414 14.0664 10.9609 13.9414 10.9766 13.8398C10.9922 13.7305 11.0117 13.6758 11.0352 13.6758C11.082 13.6445 11.1562 13.6211 11.2578 13.6055C11.3594 13.5898 11.457 13.5781 11.5508 13.5703C11.6758 13.5547 11.8047 13.5469 11.9375 13.5469L12.0898 15.4688H12.9688C12.9688 15.4531 12.9727 15.3867 12.9805 15.2695C12.9883 15.1523 13 15.0117 13.0156 14.8477C13.0391 14.6758 13.0664 14.4922 13.0977 14.2969C13.1367 14.1016 13.1836 13.9258 13.2383 13.7695C13.293 13.6055 13.3555 13.4688 13.4258 13.3594C13.5039 13.25 13.5977 13.1953 13.707 13.1953C13.7383 13.1953 13.7852 13.1992 13.8477 13.207C13.9102 13.207 13.9688 13.2148 14.0234 13.2305C14.0781 13.2461 14.125 13.2734 14.1641 13.3125C14.2109 13.3438 14.2344 13.3945 14.2344 13.4648V15.2227C14.3203 15.2539 14.4336 15.2852 14.5742 15.3164C14.7227 15.3477 14.8828 15.3789 15.0547 15.4102C15.2344 15.4336 15.4141 15.4609 15.5938 15.4922C15.7734 15.5234 15.9375 15.5586 16.0859 15.5977C16.2344 15.6367 16.3555 15.6836 16.4492 15.7383C16.543 15.7852 16.5898 15.8398 16.5898 15.9023C16.5352 16.0664 16.4219 16.1875 16.25 16.2656C16.0859 16.3359 15.8984 16.3945 15.6875 16.4414C15.4844 16.4805 15.2773 16.5195 15.0664 16.5586C14.8633 16.5898 14.6953 16.6406 14.5625 16.7109C14.4375 16.7812 14.3633 16.8828 14.3398 17.0156C14.3242 17.1484 14.4062 17.3359 14.5859 17.5781C14.6719 17.5781 14.7812 17.5703 14.9141 17.5547C15.0469 17.5391 15.1836 17.5234 15.3242 17.5078C15.4648 17.4922 15.6055 17.4844 15.7461 17.4844C15.8867 17.4844 16.0117 17.5 16.1211 17.5312C16.2305 17.5625 16.3203 17.6172 16.3906 17.6953C16.4609 17.7734 16.4961 17.8828 16.4961 18.0234C16.4961 18.1484 16.418 18.25 16.2617 18.3281C16.1133 18.4062 15.9375 18.4727 15.7344 18.5273C15.5312 18.582 15.332 18.625 15.1367 18.6562C14.9492 18.6875 14.8125 18.7148 14.7266 18.7383C14.75 18.8789 14.7773 19.0508 14.8086 19.2539C14.8398 19.4492 14.8477 19.6406 14.832 19.8281C14.8242 20.0156 14.7773 20.1797 14.6914 20.3203C14.6055 20.4609 14.4531 20.5312 14.2344 20.5312C14.0703 20.4766 13.9492 20.3945 13.8711 20.2852C13.8008 20.168 13.7422 20.043 13.6953 19.9102C13.6562 19.7695 13.6211 19.6367 13.5898 19.5117C13.5586 19.3789 13.5039 19.2695 13.4258 19.1836C13.3477 19.0977 13.2305 19.0508 13.0742 19.043C12.918 19.0273 12.6992 19.0664 12.418 19.1602C12.418 19.3008 12.418 19.4648 12.418 19.6523C12.418 19.832 12.3984 20.0078 12.3594 20.1797C12.3281 20.3438 12.2617 20.4844 12.1602 20.6016C12.0586 20.7109 11.9102 20.7656 11.7148 20.7656C11.6445 20.7656 11.5625 20.707 11.4688 20.5898C11.3828 20.4727 11.2891 20.332 11.1875 20.168C11.0938 19.9961 10.9961 19.8281 10.8945 19.6641C10.793 19.5 10.6953 19.3672 10.6016 19.2656C10.1328 19.2188 9.76953 19.168 9.51172 19.1133C9.26172 19.0508 9.08984 18.9883 8.99609 18.9258C8.90234 18.8633 8.875 18.8008 8.91406 18.7383C8.95312 18.668 9.02344 18.6016 9.125 18.5391C9.38281 18.4062 9.83203 18.2695 10.4727 18.1289ZM11.9609 17.4727C11.9609 17.543 11.9805 17.5977 12.0195 17.6367C12.0586 17.6758 12.1055 17.707 12.1602 17.7305C12.2148 17.7461 12.2695 17.7578 12.3242 17.7656C12.3867 17.7656 12.4375 17.7656 12.4766 17.7656C12.5391 17.7656 12.6133 17.7617 12.6992 17.7539C12.7852 17.7383 12.8672 17.7188 12.9453 17.6953C13.0312 17.6719 13.1016 17.6367 13.1562 17.5898C13.2188 17.5352 13.25 17.4648 13.25 17.3789C13.25 17.207 13.207 17.0508 13.1211 16.9102C13.043 16.7695 12.918 16.6992 12.7461 16.6992C12.6523 16.6992 12.5586 16.7227 12.4648 16.7695C12.3711 16.8086 12.2852 16.8672 12.207 16.9453C12.1367 17.0156 12.0781 17.0977 12.0312 17.1914C11.9844 17.2852 11.9609 17.3789 11.9609 17.4727ZM17 20.4961C16.9688 20.3711 16.9258 20.1914 16.8711 19.957C16.8242 19.7227 16.7695 19.4648 16.707 19.1836C16.6523 18.9023 16.5977 18.6094 16.543 18.3047C16.4883 17.9922 16.4375 17.6914 16.3906 17.4023C16.3438 17.1055 16.3047 16.8359 16.2734 16.5938C16.25 16.3438 16.2383 16.1406 16.2383 15.9844C16.2383 15.9141 16.2461 15.793 16.2617 15.6211C16.2773 15.4492 16.3008 15.2695 16.332 15.082C16.3633 14.8945 16.3906 14.7188 16.4141 14.5547C16.4453 14.3906 16.4727 14.2773 16.4961 14.2148C16.5195 14.207 16.5586 14.2031 16.6133 14.2031C16.6758 14.2031 16.7383 14.1992 16.8008 14.1914C16.8711 14.1836 16.9336 14.1797 16.9883 14.1797C17.0508 14.1719 17.0938 14.168 17.1172 14.168C17.4922 14.168 17.8477 14.2422 18.1836 14.3906C18.5195 14.5391 18.8398 14.7266 19.1445 14.9531C19.4492 15.1797 19.7461 15.4336 20.0352 15.7148C20.3242 15.9961 20.6133 16.2695 20.9023 16.5352C21.1992 16.8008 21.5 17.043 21.8047 17.2617C22.1094 17.4727 22.4336 17.6328 22.7773 17.7422C22.7773 17.7031 22.7773 17.6445 22.7773 17.5664C22.7852 17.4805 22.7891 17.3906 22.7891 17.2969C22.7891 17.2031 22.7891 17.1172 22.7891 17.0391C22.7969 16.9531 22.8008 16.8906 22.8008 16.8516C22.8008 16.3594 22.7695 15.8789 22.707 15.4102C22.6445 14.9414 22.5742 14.4727 22.4961 14.0039C22.418 13.5352 22.3477 13.0664 22.2852 12.5977C22.2227 12.1211 22.1914 11.6328 22.1914 11.1328C22.2461 11.1328 22.3125 11.1367 22.3906 11.1445C22.4766 11.1445 22.5625 11.1562 22.6484 11.1797C22.7344 11.1953 22.8125 11.2266 22.8828 11.2734C22.9531 11.3125 23 11.375 23.0234 11.4609C23.0547 12.0234 23.125 12.5898 23.2344 13.1602C23.3438 13.7227 23.457 14.2891 23.5742 14.8594C23.6914 15.4219 23.793 15.9883 23.8789 16.5586C23.9727 17.1211 24.0195 17.6797 24.0195 18.2344C24.0195 18.3359 24.0156 18.4453 24.0078 18.5625C24.0078 18.6797 23.9922 18.793 23.9609 18.9023C23.9375 19.0039 23.8945 19.0898 23.832 19.1602C23.7695 19.2305 23.6758 19.2656 23.5508 19.2656C23.1445 19.2656 22.7695 19.1758 22.4258 18.9961C22.082 18.8086 21.7461 18.5781 21.418 18.3047C21.0977 18.0312 20.7812 17.7305 20.4688 17.4023C20.1641 17.0742 19.8477 16.7734 19.5195 16.5C19.1992 16.2266 18.8633 15.9961 18.5117 15.8086C18.168 15.6211 17.7969 15.5273 17.3984 15.5273C17.3984 15.9648 17.4297 16.3867 17.4922 16.793C17.5547 17.1914 17.6211 17.5898 17.6914 17.9883C17.7695 18.3867 17.8398 18.7852 17.9023 19.1836C17.9648 19.5742 17.9961 19.9727 17.9961 20.3789C17.9961 20.5273 17.9414 20.6289 17.832 20.6836C17.7305 20.7383 17.6172 20.7656 17.4922 20.7656C17.3906 20.7656 17.293 20.7578 17.1992 20.7422C17.1133 20.7188 17.0469 20.6367 17 20.4961ZM24.5117 18.6211C24.5117 18.1367 24.625 17.6875 24.8516 17.2734C25.0781 16.8516 25.375 16.4922 25.7422 16.1953C26.1172 15.8906 26.5352 15.6523 26.9961 15.4805C27.4648 15.3086 27.9375 15.2227 28.4141 15.2227C28.6797 15.2227 28.9141 15.3086 29.1172 15.4805C29.3281 15.6523 29.5039 15.8633 29.6445 16.1133C29.7852 16.3555 29.8906 16.6133 29.9609 16.8867C30.0391 17.1602 30.0781 17.3984 30.0781 17.6016C30.0781 18.0391 29.9727 18.4648 29.7617 18.8789C29.5508 19.2852 29.2773 19.6484 28.9414 19.9688C28.6055 20.2812 28.2266 20.5352 27.8047 20.7305C27.3828 20.9258 26.9609 21.0234 26.5391 21.0234C26.1641 21.0234 25.8477 20.9609 25.5898 20.8359C25.332 20.7031 25.125 20.5312 24.9688 20.3203C24.8125 20.1016 24.6953 19.8477 24.6172 19.5586C24.5469 19.2617 24.5117 18.9492 24.5117 18.6211ZM25.5078 18.7383C25.5078 18.9414 25.5234 19.1211 25.5547 19.2773C25.5938 19.4258 25.6562 19.5547 25.7422 19.6641C25.8359 19.7734 25.957 19.8594 26.1055 19.9219C26.2539 19.9766 26.4375 20.0039 26.6562 20.0039C26.9453 20.0039 27.2344 19.9258 27.5234 19.7695C27.8125 19.6055 28.0703 19.4023 28.2969 19.1602C28.5312 18.9102 28.7188 18.6367 28.8594 18.3398C29 18.043 29.0703 17.7539 29.0703 17.4727C29.0703 17.3477 29.0586 17.2109 29.0352 17.0625C29.0117 16.9141 28.9727 16.7773 28.918 16.6523C28.8633 16.5273 28.7852 16.4219 28.6836 16.3359C28.582 16.25 28.4531 16.207 28.2969 16.207C28.1562 16.207 27.9883 16.2539 27.793 16.3477C27.6055 16.4414 27.4062 16.5625 27.1953 16.7109C26.9922 16.8594 26.7891 17.0273 26.5859 17.2148C26.3906 17.4023 26.2109 17.5898 26.0469 17.7773C25.8828 17.9648 25.75 18.1445 25.6484 18.3164C25.5547 18.4883 25.5078 18.6289 25.5078 18.7383ZM35.7031 13.3125C35.7031 13.1562 35.7539 13.0547 35.8555 13.0078C35.9648 12.9609 36.082 12.9375 36.207 12.9375C36.2305 12.9375 36.2734 12.9414 36.3359 12.9492C36.4062 12.957 36.4492 12.9609 36.4648 12.9609C36.4883 13.2031 36.5117 13.4961 36.5352 13.8398C36.5586 14.1758 36.5859 14.543 36.6172 14.9414C36.6484 15.332 36.6875 15.7383 36.7344 16.1602C36.7812 16.582 36.8477 16.9961 36.9336 17.4023C37.0195 17.8008 37.125 18.1836 37.25 18.5508C37.375 18.9102 37.5273 19.2227 37.707 19.4883C37.7461 19.5586 37.7812 19.6133 37.8125 19.6523C37.8516 19.6836 37.8867 19.7109 37.918 19.7344C37.957 19.75 38 19.7617 38.0469 19.7695C38.0938 19.7695 38.1523 19.7695 38.2227 19.7695C38.543 19.7695 38.8477 19.7148 39.1367 19.6055C39.4336 19.4961 39.7266 19.375 40.0156 19.2422C40.3047 19.1094 40.5977 18.9883 40.8945 18.8789C41.1914 18.7695 41.5039 18.7148 41.832 18.7148C41.9023 18.7148 41.9922 18.7148 42.1016 18.7148C42.2109 18.707 42.3125 18.7109 42.4062 18.7266C42.5 18.7422 42.582 18.7812 42.6523 18.8438C42.7227 18.9062 42.7578 19 42.7578 19.125C42.7578 19.2422 42.6523 19.3711 42.4414 19.5117C42.2305 19.6445 41.9609 19.7812 41.6328 19.9219C41.3047 20.0547 40.9453 20.1875 40.5547 20.3203C40.1719 20.4531 39.8008 20.5703 39.4414 20.6719C39.0898 20.7734 38.7773 20.8555 38.5039 20.918C38.2305 20.9727 38.0508 21 37.9648 21C37.6836 21 37.4336 20.9062 37.2148 20.7188C37.0039 20.5234 36.8164 20.2656 36.6523 19.9453C36.4961 19.6172 36.3633 19.2461 36.2539 18.832C36.1445 18.4102 36.0547 17.9727 35.9844 17.5195C35.9141 17.0664 35.8594 16.6172 35.8203 16.1719C35.7812 15.7266 35.7539 15.3125 35.7383 14.9297C35.7227 14.5469 35.7109 14.2109 35.7031 13.9219C35.7031 13.6328 35.7031 13.4297 35.7031 13.3125ZM43.707 16.6055C43.707 16.5586 43.707 16.4844 43.707 16.3828C43.7148 16.2734 43.7188 16.1602 43.7188 16.043C43.7266 15.9258 43.7305 15.8125 43.7305 15.7031C43.7383 15.5938 43.7422 15.5156 43.7422 15.4688C43.8281 15.3438 43.9375 15.2422 44.0703 15.1641C44.2109 15.0859 44.3516 15.0234 44.4922 14.9766C44.5156 15.3984 44.582 15.8477 44.6914 16.3242C44.8008 16.8008 44.918 17.2812 45.043 17.7656C45.168 18.2422 45.2773 18.7148 45.3711 19.1836C45.4727 19.6523 45.5234 20.0898 45.5234 20.4961C45.5234 20.8477 45.3438 21.0234 44.9844 21.0234C44.7656 21.0234 44.582 20.9336 44.4336 20.7539C44.2852 20.5742 44.1641 20.3477 44.0703 20.0742C43.9844 19.793 43.9141 19.4844 43.8594 19.1484C43.8047 18.8047 43.7656 18.4688 43.7422 18.1406C43.7266 17.8125 43.7148 17.5117 43.707 17.2383C43.707 16.9648 43.707 16.7539 43.707 16.6055ZM43.8711 12.2109C44.0195 12.2734 44.1445 12.375 44.2461 12.5156C44.3477 12.6562 44.3906 12.7852 44.375 12.9023C44.3672 13.0117 44.2812 13.0898 44.1172 13.1367C43.9531 13.1758 43.6797 13.1289 43.2969 12.9961C43.2969 12.7852 43.3359 12.6016 43.4141 12.4453C43.5 12.2891 43.6523 12.2109 43.8711 12.2109ZM45.7227 16.0781C45.7227 15.8828 45.7539 15.7305 45.8164 15.6211C45.8867 15.5117 46.0312 15.457 46.25 15.457C46.2734 15.457 46.3164 15.4609 46.3789 15.4688C46.4492 15.4688 46.4922 15.4688 46.5078 15.4688C46.5625 15.7109 46.6172 15.9766 46.6719 16.2656C46.7344 16.5469 46.8047 16.832 46.8828 17.1211C46.9609 17.4102 47.0469 17.6953 47.1406 17.9766C47.2422 18.2578 47.3633 18.5117 47.5039 18.7383C47.6445 18.5898 47.7461 18.4141 47.8086 18.2109C47.8711 18.0078 47.918 17.8047 47.9492 17.6016C47.9805 17.3906 48.0078 17.1914 48.0312 17.0039C48.0625 16.8086 48.1211 16.6445 48.207 16.5117C48.293 16.3711 48.418 16.2695 48.582 16.207C48.7539 16.1445 48.9883 16.1445 49.2852 16.207C49.6133 16.207 49.875 16.2695 50.0703 16.3945C50.2656 16.5117 50.4336 16.6641 50.5742 16.8516C50.7227 17.0312 50.8633 17.2266 50.9961 17.4375C51.1367 17.6406 51.3125 17.8242 51.5234 17.9883C51.5703 17.8867 51.6289 17.7617 51.6992 17.6133C51.7695 17.457 51.8555 17.2969 51.957 17.1328C52.0664 16.9609 52.1797 16.793 52.2969 16.6289C52.4219 16.457 52.5508 16.3047 52.6836 16.1719C52.8164 16.0312 52.9531 15.918 53.0938 15.832C53.2344 15.7383 53.3711 15.6914 53.5039 15.6914C53.8242 15.6914 54.1016 15.793 54.3359 15.9961C54.5703 16.1914 54.7695 16.4414 54.9336 16.7461C55.1055 17.043 55.2461 17.3789 55.3555 17.7539C55.4648 18.1211 55.5508 18.4766 55.6133 18.8203C55.6758 19.1641 55.7188 19.4805 55.7422 19.7695C55.7734 20.0508 55.7891 20.2539 55.7891 20.3789C55.7891 20.4805 55.7656 20.5586 55.7188 20.6133C55.6719 20.668 55.6133 20.7109 55.543 20.7422C55.4727 20.7656 55.3945 20.7812 55.3086 20.7891C55.2305 20.7969 55.1562 20.8008 55.0859 20.8008C55.0703 20.8008 55.0469 20.8008 55.0156 20.8008C54.9844 20.793 54.9492 20.7852 54.9102 20.7773C54.8789 20.7695 54.8359 20.7578 54.7812 20.7422L54.0195 17.2383C54.0195 17.2148 53.9883 17.1719 53.9258 17.1094C53.8633 17.0391 53.8164 16.9961 53.7852 16.9805C53.7617 16.9805 53.7422 16.9766 53.7266 16.9688C53.7109 16.9688 53.6992 16.9688 53.6914 16.9688C53.6836 16.9609 53.6758 16.957 53.668 16.957C53.5039 16.957 53.3477 17.0234 53.1992 17.1562C53.0586 17.2891 52.9258 17.457 52.8008 17.6602C52.6758 17.8633 52.5586 18.0898 52.4492 18.3398C52.3398 18.5898 52.2422 18.8398 52.1562 19.0898C52.0703 19.332 51.9922 19.5586 51.9219 19.7695C51.8594 19.9727 51.8086 20.1289 51.7695 20.2383C51.7383 20.2539 51.6758 20.2695 51.582 20.2852C51.4883 20.293 51.4258 20.2969 51.3945 20.2969C51.1758 20.2969 51.0078 20.2227 50.8906 20.0742C50.7734 19.918 50.6758 19.7266 50.5977 19.5C50.5273 19.2734 50.4648 19.0273 50.4102 18.7617C50.3633 18.4883 50.3008 18.2383 50.2227 18.0117C50.1523 17.7852 50.0508 17.5977 49.918 17.4492C49.793 17.293 49.6133 17.2148 49.3789 17.2148C49.293 17.2148 49.2109 17.3008 49.1328 17.4727C49.0547 17.6445 48.9844 17.8633 48.9219 18.1289C48.8594 18.3867 48.8008 18.668 48.7461 18.9727C48.6914 19.2695 48.6445 19.5508 48.6055 19.8164C48.5742 20.0742 48.5508 20.293 48.5352 20.4727C48.5195 20.6523 48.5117 20.7422 48.5117 20.7422C48.4961 20.7656 48.4648 20.793 48.418 20.8242C48.3711 20.8477 48.3203 20.875 48.2656 20.9062C48.2188 20.9375 48.168 20.9609 48.1133 20.9766C48.0664 20.9922 48.0312 21 48.0078 21C47.7891 21 47.5781 20.9023 47.375 20.707C47.1719 20.5039 46.9844 20.2461 46.8125 19.9336C46.6484 19.6133 46.4961 19.2617 46.3555 18.8789C46.2227 18.4961 46.1094 18.1211 46.0156 17.7539C45.9219 17.3867 45.8477 17.0547 45.793 16.7578C45.7461 16.4609 45.7227 16.2344 45.7227 16.0781ZM56.7617 16.6055C56.7617 16.5586 56.7617 16.4844 56.7617 16.3828C56.7695 16.2734 56.7734 16.1602 56.7734 16.043C56.7812 15.9258 56.7852 15.8125 56.7852 15.7031C56.793 15.5938 56.7969 15.5156 56.7969 15.4688C56.8828 15.3438 56.9922 15.2422 57.125 15.1641C57.2656 15.0859 57.4062 15.0234 57.5469 14.9766C57.5703 15.3984 57.6367 15.8477 57.7461 16.3242C57.8555 16.8008 57.9727 17.2812 58.0977 17.7656C58.2227 18.2422 58.332 18.7148 58.4258 19.1836C58.5273 19.6523 58.5781 20.0898 58.5781 20.4961C58.5781 20.8477 58.3984 21.0234 58.0391 21.0234C57.8203 21.0234 57.6367 20.9336 57.4883 20.7539C57.3398 20.5742 57.2188 20.3477 57.125 20.0742C57.0391 19.793 56.9688 19.4844 56.9141 19.1484C56.8594 18.8047 56.8203 18.4688 56.7969 18.1406C56.7812 17.8125 56.7695 17.5117 56.7617 17.2383C56.7617 16.9648 56.7617 16.7539 56.7617 16.6055ZM56.9258 12.2109C57.0742 12.2734 57.1992 12.375 57.3008 12.5156C57.4023 12.6562 57.4453 12.7852 57.4297 12.9023C57.4219 13.0117 57.3359 13.0898 57.1719 13.1367C57.0078 13.1758 56.7344 13.1289 56.3516 12.9961C56.3516 12.7852 56.3906 12.6016 56.4688 12.4453C56.5547 12.2891 56.707 12.2109 56.9258 12.2109ZM58.7773 15.0938C58.7773 15.0703 58.7812 15.0508 58.7891 15.0352C58.7891 15.0195 58.793 15 58.8008 14.9766C58.832 14.9375 58.8789 14.8867 58.9414 14.8242C59.0039 14.7617 59.043 14.7305 59.0586 14.7305H61.4141C61.4141 14.6445 61.4023 14.5078 61.3789 14.3203C61.3555 14.1328 61.332 13.9258 61.3086 13.6992C61.293 13.4727 61.2891 13.2383 61.2969 12.9961C61.3047 12.7461 61.3359 12.5234 61.3906 12.3281C61.4531 12.125 61.5469 11.9609 61.6719 11.8359C61.8047 11.7031 61.9883 11.6367 62.2227 11.6367C62.2227 12.4258 62.2773 13.0586 62.3867 13.5352C62.4961 14.0117 62.6406 14.3789 62.8203 14.6367C63.0078 14.8945 63.2188 15.0625 63.4531 15.1406C63.6875 15.2188 63.9258 15.2539 64.168 15.2461C64.418 15.2305 64.6602 15.1914 64.8945 15.1289C65.1289 15.0664 65.3359 15.0234 65.5156 15C65.7031 14.9766 65.8516 14.9961 65.9609 15.0586C66.0703 15.1133 66.125 15.25 66.125 15.4688C66.125 15.6328 66.0859 15.75 66.0078 15.8203C65.9375 15.8906 65.7969 15.9453 65.5859 15.9844C65.5234 15.9922 65.418 16.0078 65.2695 16.0312C65.1289 16.0469 64.9688 16.0625 64.7891 16.0781C64.6094 16.0938 64.418 16.1133 64.2148 16.1367C64.0117 16.1523 63.8203 16.168 63.6406 16.1836C63.4609 16.1992 63.2969 16.2109 63.1484 16.2188C63 16.2188 62.8906 16.2188 62.8203 16.2188C62.8203 16.2578 62.8164 16.3242 62.8086 16.418C62.8008 16.5117 62.7969 16.5742 62.7969 16.6055C62.7969 16.9492 62.8516 17.2852 62.9609 17.6133C63.0703 17.9336 63.1875 18.2539 63.3125 18.5742C63.4453 18.8945 63.5664 19.2148 63.6758 19.5352C63.7852 19.8555 63.8398 20.1875 63.8398 20.5312C63.8398 20.5938 63.832 20.6602 63.8164 20.7305C63.8086 20.793 63.7852 20.8516 63.7461 20.9062C63.7148 20.9531 63.6641 20.9883 63.5938 21.0117C63.5312 21.043 63.4414 21.0391 63.3242 21C63.0273 20.9219 62.8047 20.7539 62.6562 20.4961C62.5156 20.2383 62.4102 19.9336 62.3398 19.582C62.2695 19.2227 62.2227 18.8438 62.1992 18.4453C62.1758 18.0469 62.1367 17.6758 62.082 17.332C62.0352 16.9805 61.957 16.6836 61.8477 16.4414C61.7383 16.1914 61.5625 16.0391 61.3203 15.9844L59.0586 15.4688C59.0273 15.4688 58.9805 15.4375 58.918 15.375C58.8555 15.3047 58.8164 15.2539 58.8008 15.2227C58.793 15.207 58.7891 15.1875 58.7891 15.1641C58.7812 15.1484 58.7773 15.125 58.7773 15.0938Z" fill="#FCFCFC"/>
</svg>
