<svg width="308" height="376" viewBox="0 0 308 376" fill="none" xmlns="http://www.w3.org/2000/svg">
<path d="M107.307 52.9541L83.3025 58.6707L53.792 76.3846L38.2182 97.1226L19.7339 112.962L8.38303 137.867L0.79554 167.445L0 193.306L3.15147 226.481L12.4745 249.256L26.6177 274.289L47.6079 294.764L68.8961 305.04L95.4405 316.786L121.599 327L148.163 325.595L175.531 322.172L103.825 49.5854L107.307 52.9541Z" fill="#F4A988"/>
<path d="M103.303 16.9497C106.09 13.9044 107.377 9.96355 108.395 10.2649M108.595 17.3934C112.034 17.1935 109.957 9.79793 113.055 11.4531M106.075 22.2842C110.906 15.4374 118.283 11.703 119.237 9.96796M108.057 32.732C113.743 21.7982 120.518 22.3393 124.308 4.06045M107.263 36.0943C119.228 29.2073 121.673 18.1651 134.935 3.66063M109.334 36.9867C121.685 29.2079 123.893 22.1136 138.931 6.96592M114.613 47.2056C118.755 32.7061 124.493 31.3475 144.728 10.8158M112.13 46.7632C119.499 38.1574 126.828 32.1436 146.568 7.32307M112.472 50.0523C128.861 34.6443 144.098 23.2657 150.384 7.42455M112.191 55.1168C128.202 45.4661 133.377 35.2562 158.047 9.2781M115.122 64.414C127.375 46.9798 140.019 32.4573 161.657 6.49636M117.236 69.4421C126.605 60.0539 140.134 44.3758 166.35 5.78197M120.167 68.9421C131.532 56.0289 137.404 45.3228 173.517 14.3837M120.902 79.5911C132.978 56.4045 150.472 41.1239 179.523 9.33073M119.306 78.8704C147.225 54.4834 165.716 32.688 185.018 13.6237M123.975 90.2322C139.528 69.6947 149.527 50.5767 182.459 10.0658M128.082 94.3074C147.582 70.7836 168.879 43.599 188.621 17.1128M125.451 93.2673C151.531 63.8664 171.921 41.2525 194.652 16.1578M129.472 98.9273C156.32 66.186 176.104 36.8107 201.569 18.1888M127.396 103.624C151.915 74.864 176.226 48.2741 202.673 21.0806M129.036 108.703C157.446 76.0412 185.784 41.6387 208.048 25.0508M131.34 113.899C153.372 80.819 179.355 55.808 212.019 24.0482M130.823 122.354C159.801 91.9695 186.618 60.5677 210.367 24.0017M134.986 121.505C159.835 94.814 178.943 66.3618 216.553 28.3728M130.122 124.458C158.733 100.664 190.217 63.2793 224.509 30.976M132.357 131.023C164.28 106.027 185.638 76.7286 222.329 26.1857M138.506 135.83C159.909 110.006 181.334 85.1423 229.729 32.234M139.685 146.015C163.713 108.904 200.613 71.4963 229.44 31.6366M137.422 149.85C167.947 112.899 191.774 82.7154 235.539 38.8639M137.833 148.27C164.037 125.788 181.598 103.679 235.178 35.4192M138.584 159.827C163.059 121.991 196.618 91.5931 242.224 38.8736M141.547 163.232C179.496 125.7 209.486 84.4994 242.726 46.658M142.856 164.204C176.57 128.556 210.562 91.3955 250.087 47.0003M146.754 170.018C167.174 146.839 188.168 113.99 249.463 49.0488M146.779 172.917C178.604 141.51 209.161 97.4107 251.925 53.2176M143.882 182.169C181.998 141.79 220.888 96.2836 255.013 50.7476M149.25 185.419C172.397 154.707 196.762 130.981 255.436 60.721M152.457 189.773C176.74 159.362 200.773 129.417 262.84 60.9461M147.353 195.7C181.552 156.807 216.094 113.595 263.237 64.3049M147.939 200.987C179.762 166.496 204.673 134.213 270.401 63.2412M157.043 207.248C190.521 158.121 234.01 121.305 266.931 70.9386M151.994 210.399C185.633 165.109 224.037 120.196 276.573 74.3408M152.761 213.195C184.838 186.591 212.811 152.344 272.501 71.6847M157.022 214.011C191.503 184.762 217.534 147.972 281.528 79.6235M160.675 222.233C189.616 183.387 225.344 144.035 280.899 84.2055M155.378 225.845C184.65 189.454 217.548 163.337 279.215 87.8761M162.033 230.556C209.693 179.184 257.178 125.124 285.118 91.6692M159.375 235.887C207.052 186.337 250.537 134.097 287.751 90.4405M160.818 240.017C189.021 205.054 222.595 166.937 285.073 98.0625M167.434 247.889C209.463 189.896 254.622 137.817 291.961 99.9763M163.268 253.192C193.312 221.441 218.698 188.072 288.243 104.944M164.402 251.413C187.998 227.59 212.625 198.623 294.703 110.865M165.136 260.879C192.371 225.243 225.247 188.957 297.036 115.289M170.83 265.526C211.961 222.07 244.341 175.466 299.448 121.878M169.251 267.389C211.025 222.503 247.257 173.295 295.737 118.498M170.345 274.029C217.176 220.988 267.322 163.622 301.799 130.442M171.156 275.862C215.449 237.515 247.156 186.462 296.083 131.193M176.601 283.362C209.98 240.121 248.108 199.22 304.155 138.434M174.539 287.009C226.665 237.431 276.694 176.897 300.138 144.834M177.873 293.957C199.855 265.286 227.981 235.428 302.788 148.28M175.888 295.032C214.636 257.387 246.32 213.138 305.114 153.849M182.264 299.472C212.297 256.165 247.463 214.69 306.295 154.729M180.432 306.688C222.057 258.106 264.365 206.806 301.341 163.016M181.689 310.954C212.3 275.942 239.978 243.258 306.943 171.275M180.808 312.858C222.64 278.196 256.833 232.836 306.75 179.256M186.457 321.69C217.12 285.255 252.024 242.065 301.713 185.134M192.977 318.546C221.068 291.451 245.424 259.714 300.522 189.978M200.906 315.359C228.984 287.787 251.667 258.555 300.837 198.936M210.497 309.81C237.035 275.718 259.588 245.076 301.645 205.62M217.463 306.986C231.808 288.221 255.78 267.135 299.498 215.46M226.169 299.34C247.245 273.236 275.081 246.664 295.867 220.507M238.339 298.68C257.194 275.908 278.12 251.436 288.149 233.74M189.382 320.659C187.701 318.311 184.126 316.478 183.475 315.656M191.706 320.593C187.975 315.84 184.923 311.637 180.621 309.432M195.585 317.757C189.262 309.996 182.575 302.908 174.69 300.497M202.691 312.536C192.92 306.201 180.567 301.485 180.267 295.88M203.247 312.696C198.423 303.558 184.734 293.334 171.328 288.51M208.869 314.82C191.511 302.249 180.023 288.906 169.248 283.6M216.55 309.672C206.306 302.787 190.274 288.208 168.964 268.792M218.628 310.438C204.737 296.982 197.469 285.68 167.376 269.743M221.427 305.372C196.175 287.458 175.056 266.108 170.878 260.146M222.223 299.136C201.757 285.844 177.98 265.166 167.779 252.478M226.918 303.642C200.171 280.715 175.933 260.763 161.161 248.091M228.695 298.322C222.038 286.055 207.916 271.857 164.806 239.051M234.428 293.843C211.783 270.199 177.621 253.324 161.224 228.839M235.692 292.688C215.958 279.22 195.618 259.007 161.53 226.862M242.957 293.286C210.696 264.967 178.098 236.939 160.794 220.113M240.472 291.061C219.993 266.354 194.638 241.834 155.928 214.554M244.566 288.519C217.047 258.117 190.974 238.165 150.768 205.529M250.77 285.832C218.651 258.49 179.574 222.275 152.889 194.55M254.025 282.109C220.122 254.261 183.405 220.165 148.669 194.019M255.524 278.624C227.89 250.902 200.48 230.855 151.629 187.369M262.362 274.662C231.598 259.148 213.271 231.552 148.594 174.46M265.733 273.011C220.37 238.896 181.064 200.958 143.664 172.665M267.49 273.299C237.454 243.865 212.097 225.251 144.398 161.098M267.203 270.104C236.376 239.2 199.89 205.868 138.923 160.025M272.625 265.12C240.191 243.063 216.344 214.415 136.765 151.095M269.432 259.814C240.216 235.235 208.666 205.697 136.364 139.652M276.062 253.905C246.021 229.255 212.254 206.79 133.909 133.063M273.318 252.294C232.499 223.722 190.141 184.763 131.161 126.025M275.926 249.653C235.46 211.339 195.273 181.652 135.118 125.578M279.776 249.96C223.767 197.648 167.256 145.97 129.503 117.445M284.646 241.245C238.328 201.53 189.001 167.191 129.067 108.601M283.666 238.337C224.952 184.791 160.255 133.525 127.85 105.034M284.249 235.733C233.847 190.096 182.87 141.544 126.492 94.9385M286.607 233.017C249.363 199.238 215.098 171.577 120.748 91.402M289.047 230.159C241.05 184.2 193.783 139.181 119.772 79.9146M291.066 227.002C225.873 166.781 154.881 105.411 118.111 71.1165M292.17 219.864C239.895 171.11 182.896 120.284 120.721 65.9148M296.11 217.484C258.208 182.974 214.032 144.311 115.244 61.604M296.36 213.922C245.963 165.322 191.213 122.389 117.55 54.4119M296.889 209.705C259.851 173.461 218.655 140.172 111.374 49.2386M299.285 207.346C243.043 152.158 182.797 99.5898 109.524 37.6991M301.686 199.616C253.091 163.181 209.97 120.524 110.331 30.4769M300.583 194.448C228.178 129.59 157.319 68.1532 106.354 28.5113M303.693 193.671C241.726 136.94 177.122 85.5581 106.23 21.3119M303.563 185.877C239.152 134.11 172.525 77.9218 105.024 13.4088M301.501 179.24C257.234 144.477 214.502 106.255 103.472 11.0853M301.047 175.374C256.679 132.356 201.324 88.1357 108.079 11.2836M305.08 170.724C228.07 105.143 157.115 43.5982 118.166 9.89912M304.369 167.352C244.042 113.845 188.869 60.6178 117.566 4.25311M307 160.332C268.469 128.676 228.305 91.8234 123.967 7.88507M304.099 158.401C258.021 117.814 213.116 83.5573 130.301 3.23216M304.38 149.658C256.097 98.5825 201.937 59.0411 137.732 4.10985M303.896 141.592C253.8 101.44 209.619 61.8754 145.28 6.37076M299.704 136.145C250.16 94.1986 202.275 46.6472 149.614 3.67592M299.25 134.486C265.739 101.358 235.645 78.3829 154.619 2.1014M301.249 126.56C253.934 88.1324 210.501 45.1913 158.368 3.33307M297.068 118.522C265.949 90.8259 235.677 66.0778 171.584 1M293.858 106.789C271.514 84.9528 248.571 62.5114 173.603 5.46996M291.55 98.6674C262.821 74.5213 229.88 48.7298 186.244 5.26559M287.967 90.3356C263.036 68.7002 238.971 51.4767 194.345 11.0013M285.936 82.0153C253.82 58.1456 231.407 40.4819 211.453 17.8189M270.007 65.2302C253.617 54.2196 236.002 34.8928 224.764 26.1148M103.145 11.2928V11.2928ZM183.41 320.737V320.737Z" stroke="#D72638" stroke-width="0.5" stroke-linecap="round"/>
<path d="M21 44.7071C22.7175 43.6756 29.3022 33.8403 33.0857 27.4998M24.5589 48.7308C30.3779 37.9807 40.1118 36.8731 40.6212 26M22.5686 53.4998C33.1952 49.018 33.5338 40.6489 42.0836 29.59M28.7891 53.9711C39.161 46.6343 41.8295 33.9819 46.9647 33.4646M31.7804 64.2424C37.58 54.7254 44.7674 39.4464 52.9265 37.5225M33.1239 63.1075C38.0046 52.1774 54.276 45.0856 56.5613 34.2009M37.9015 65.2606C43.4848 59.4148 47.6909 53.602 57.2063 42.4199M38.5629 67.1687C48.5115 57.5982 56.6925 48.5438 64.4761 40.9671M39.7276 67.1736C47.4253 64.0817 51.4349 57.1173 64.6861 48.6787M22.5662 53.0752C30.2184 48.2782 28.9707 39.6549 35.7685 33.1685M26.7869 52.5014C34.5862 47.1017 34.9126 38.5795 38.1164 32.4622M26.0867 55.9585C28.4218 53.6007 33.29 41.8607 46.5904 30.1476M24.8992 65.1387C40.6078 52.1373 49.0879 40.7087 52.4333 31.6811M31.5145 61.5692C40.6608 51.5619 47.4301 49.5409 50.3114 34.4426M36.5151 69.0919C41.6474 55.8983 47.4832 52.6432 56.1024 31.795M38.5536 65.1377C43.7756 61.037 53.8807 51.8788 61.6392 42.7599M41.4794 69.5161C51.051 62.3792 56.2445 47.5784 62.4084 41.3211M26.7351 33.5224V33.5224Z" stroke="#D64B4B" stroke-width="0.5" stroke-linecap="round"/>
<path d="M235 350.707C236.718 349.676 243.302 339.84 247.086 333.5M238.559 354.731C244.378 343.981 254.112 342.873 254.621 332M236.569 359.5C247.195 355.018 247.534 346.649 256.084 335.59M242.789 359.971C253.161 352.634 255.83 339.982 260.965 339.465M245.78 370.242C251.58 360.725 258.767 345.446 266.926 343.522M247.124 369.107C252.005 358.177 268.276 351.086 270.561 340.201M251.902 371.261C257.485 365.415 261.691 359.602 271.206 348.42M252.563 373.169C262.512 363.598 270.693 354.544 278.476 346.967M253.728 373.174C261.425 370.082 265.435 363.117 278.686 354.679M236.566 359.075C244.218 354.278 242.971 345.655 249.768 339.169M240.787 358.501C248.586 353.102 248.913 344.579 252.116 338.462M240.087 361.958C242.422 359.601 247.29 347.861 260.59 336.148M238.899 371.139C254.608 358.137 263.088 346.709 266.433 337.681M245.514 367.569C254.661 357.562 261.43 355.541 264.311 340.443M250.515 375.092C255.647 361.898 261.483 358.643 270.102 337.795M252.554 371.138C257.776 367.037 267.881 357.879 275.639 348.76M255.479 375.516C265.051 368.379 270.244 353.578 276.408 347.321M240.735 339.522V339.522Z" stroke="#D9D9D9" stroke-opacity="0.866667" stroke-width="0.5" stroke-linecap="round"/>
</svg>
