<svg width="313" height="312" viewBox="0 0 313 312" fill="none" xmlns="http://www.w3.org/2000/svg">
<path d="M306.341 155.755C310.411 240.094 235.789 305.063 160.082 298.468M306.341 155.755V155.755ZM156.42 302.234C69.5037 305.492 6.1912 232.51 8.92804 151.702M6.5 155.755C7.50655 72.1053 73.9863 9.16905 158.3 6M156.42 9.27667C237.573 11.7656 309.683 71.3484 302.776 155.483" stroke="#A9B0A6" stroke-width="12" stroke-linecap="round"/>
<path d="M224.566 155.755C227.032 236.677 192.894 298.088 160.682 306M224.566 155.755V155.755ZM156.42 302.234C117.408 299.448 88.4772 238.211 92.5308 152.419M88.2747 155.755C90.3583 71.7583 114.588 8.7315 157.192 11.1867M156.42 9.27667C190.247 9.7139 227.625 74.4238 224.169 152.039" stroke="#A9B0A6" stroke-width="12" stroke-linecap="round"/>
<path d="M14.3013 196.353C116.007 195.058 217.835 189.97 301.541 199.243" stroke="#A9B0A6" stroke-width="12" stroke-linecap="round"/>
<path d="M15.1658 118.548C71.5801 118.693 133.28 118.267 296.209 118.681" stroke="#A9B0A6" stroke-width="12" stroke-linecap="round"/>
</svg>
