<svg width="321" height="376" viewBox="0 0 321 376" fill="none" xmlns="http://www.w3.org/2000/svg">
<path d="M238.045 375.674L248.297 349.587L251.008 329.443L256.36 306.535L247.677 283.915L243.628 256.255L232.424 243.655L216.013 220.401L194.282 205.854L173.315 200.19L146.102 191.761L123.671 195.563L103.196 195.399L80.4135 205.011L63.125 219.478L42.0701 234.876L27.1768 256.2L236.904 370.149L238.045 375.674Z" fill="#F4A988"/>
<path d="M92.8619 46.9933C94.9102 43.4175 94.1504 42.6985 102.618 30.8109M78.8526 67.8185C91.0359 52.6024 93.2819 44.3229 101.523 32.9821M69.4367 81.5761C82.1937 72.156 85.9671 61.6848 108.983 40.1556M61.0482 103.237C74.0886 80.7807 96.8873 55.8405 110.814 38.051M47.8072 120.554C66.0898 98.4044 85.2412 77.2691 117.865 45.1243M39.7275 136.976C52.7618 115.457 69.295 96.4332 118.945 42.2112M28.2815 153.897C53.1304 123.872 75.6558 99.9432 121.504 47.7028M17.5541 172.24C52.9982 128.575 96.1639 87.7632 125.638 52.0474M14.5251 183.993C41.3226 160.131 63.6218 130.171 128.191 54.453M3.04944 205.298C32.9715 169.631 59.6094 137.291 128.552 59.2197M5.21699 209.196C39.8008 163.327 75.65 124.758 130.973 64.5682M7.02916 209.996C38.7871 179.004 68.2284 141.856 130.915 67.4409M14.2809 213.198C53.6834 164.241 94.849 113.183 139.866 65.7503M13.2064 211.771C43.7133 175.368 77.2348 146.232 138.167 69.2899M21.725 217.591C57.7905 169.798 94.9102 126.116 143.63 75.9333M22.1197 217.887C64.1675 170.518 99.0853 122.883 142.942 81.3541M30.3816 211.658C58.6013 183.349 83.4442 151.41 146.284 81.434M36.4696 220.11C81.1165 170.404 123.342 117.238 146.257 83.4402M39.0868 215.86C62.2953 188.255 83.6059 154.166 147.163 93.8301M38.6335 222.568C79.3627 171.609 122.636 127.938 147.441 96.9084M48.6559 216.148C75.5894 186.071 104.081 159.835 149.787 102.871M54.1555 220.199C91.103 182.176 122.887 139.879 152.698 106.325M54.4855 216.489C87.5682 188.618 110.447 149.627 153.901 108.364M67.0691 215.743C88.2817 191.043 103.071 165.742 153.089 118.345M66.9831 214.733C91.025 187.433 117.817 167.462 151.603 121.937M75.8346 215.945C97.2928 188.224 118.275 171.613 146.458 133.784M82.4601 214.786C101.95 198.59 117.145 179.303 149.648 142.898M93.5165 210.512C103.42 195.377 121.785 179.291 149.697 142.883M99.5398 210.461C109.289 193.572 126.243 175.521 151.148 148.116M116.303 194.04C122.606 184.607 131.135 174.73 140.837 171.547M10.9907 210.467C10.4684 207.668 10.9605 204.078 5.43605 203.21M16.5199 207.505C17.7732 203.978 5.23608 204.737 6.94244 198.18M27.3675 213.285C21.9452 207.867 10.4578 197.822 7.52953 194.057M36.4708 217.346C29.5434 207.912 20.0634 202.111 10.7665 188.867M46.606 220.683C34.5008 210.314 26.0924 198.779 9.36955 183.334M47.5486 217.409C38.7186 204.889 25.785 196.479 9.7505 182.764M59.6401 213.313C43.4168 207.481 38.6675 199.094 12.1669 180.025M63.9018 217.861C55.3837 206.189 44.3927 198.056 20.7899 177.651M69.4371 218.608C54.0122 201.887 37.5365 194.329 20.44 176.915M74.8689 218.249C57.0503 200.599 41.1915 188.851 20.1822 168.575M75.2464 210.628C63.8507 205.414 53.5762 196.848 21.8859 163.638M84.5649 214.629C64.8699 196.065 52.497 182.487 23.5673 165.726M87.2365 211.212C63.3447 194.332 47.9508 173.462 24.383 156.812M86.6814 205.548C71.3693 190.1 55.0622 173.46 26.733 159.012M93.5671 204.169C74.0945 190.747 54.998 170.608 34.9095 149.839M95.2325 205.265C79.6638 188.323 66.7997 173.851 33.1962 145.452M97.7725 201.761C83.5029 181.266 54.3215 166.746 34.8388 145.663M101.411 202.006C88.7514 187.879 67.7079 174.2 36.9139 140.443M109.101 196.162C92.0004 178.705 77.4717 167.889 38.0736 139.838M111.69 199.309C88.0782 174.849 71.8626 156.687 39.6496 134.913M118.27 196.789C90.7087 176.471 70.8934 157.51 39.3214 132.211M117.633 193.735C97.5911 174.182 87.475 164.301 43.501 130.141M118.482 184.7C103.316 168.697 86.9134 157.729 44.49 121.6M121.408 181.902C105.695 170.278 79.6328 150.418 47.0679 118.533M130.324 178.211C112.421 171.694 88.8385 151.089 49.1682 113.756M129.999 180.048C102.891 155.909 74.7705 137.854 49.4899 113.562M132.749 175.534C116.267 162.093 92.134 142.604 54.4329 106.668M132.786 169.205C108.29 149.936 79.2601 130.029 56.506 106.361M133.549 165.609C109.168 145.898 85.8081 124.254 60.2037 100.153M138.065 167.429C109.776 139.286 84.3634 119.498 62.6743 97.7126M143.456 163.446C112.111 136.349 90.2713 119.523 59.9643 95.1574M144.45 157.828C123.106 132.162 93.0699 113.791 67.9816 89.0311M139.309 152.423C125.898 130.134 97.6392 110.867 69.9193 84.6221M142.232 151.073C123.345 134.528 103.052 115.789 72.0972 83.4463M145.862 148.01C129.308 129.304 107.583 110.041 74.125 79.0397M144.982 143.251C128.165 128.673 110.678 108.763 73.2649 77.376M147.92 135.532C133.757 121.718 114.669 110.876 72.7984 70.3503M147.029 131.367C137.958 120.572 118.836 109.604 78.876 66.7888M149.481 130.972C121.649 100.367 94.1385 83.353 80.7038 68.9687M154.228 122.228C122.87 104.387 102.435 85.1565 81.1515 65.8478M153.508 120.628C132.862 103.158 113.026 85.2646 81.948 58.3479M147.501 112.203C140.826 104.875 125.482 90.1454 87.7094 57.1669M153.635 109.356C132.493 90.2266 106.961 65.8545 86.1515 52.1957M154.55 105.9C131.876 88.8242 117.861 70.5789 90.7059 49.1839M148.148 94.4921C122.048 72.5912 101.762 56.051 89.743 46.0755M144.323 86.276C128.324 74.5932 111.207 52.7457 92.7453 43.9504M143.569 84.6677C122.77 65.3362 109.432 44.8137 97.045 35.4282M138.368 68.691C131.558 62.4691 115.229 49.6303 100.1 35.4397M129.617 62.9986C128.773 50.2783 118.138 49.4015 101.134 30.8004M98.8145 31.1316V31.1316ZM0.689453 204.919V204.919Z" stroke="#F4A988" stroke-width="0.5" stroke-linecap="round"/>
<path d="M182.312 65.0437C188.268 54.1396 203.821 42.4783 218.263 28.3749M167.352 84.6848C187.121 58.0228 206.965 32.4963 218.582 23.6266M168.102 94.0566C175.867 78.2958 193.303 59.6296 229.962 15.4774M160.183 104.195C187.494 71.5434 220.783 39.8974 243.79 5.78615M158.497 113.346C192.952 81.812 218.466 46.2958 253.539 4.72293M159.677 121.237C186.174 90.798 210.604 61.8004 258.001 4.05894M161.366 121.383C195.383 82.9562 239.536 43.5287 268.899 3.55076M154.979 136.2C189.078 99.3728 213.307 69.6372 275.02 0.974218M152.927 145.502C188.437 97.0453 222.091 60.0745 270.806 6.23975M159.131 143.878C200.823 101.914 241.283 49.5864 274.198 10.4247M156.936 151.246C180.278 121.273 213.355 93.7694 277.343 18.3347M154.683 155.142C185.676 122.789 224.37 84.5792 272.338 23.3305M161.405 161.071C179.595 135.304 210.949 105.617 276.106 28.4697M159.699 169.445C187.974 134.46 215.649 100.237 276.927 28.8499M157.358 170.701C192.96 134.423 224.455 104.663 281.198 40.3202M162.986 179.697C187.254 145.114 218.121 115.003 282.519 40.7925M162.395 182.097C194.139 152.211 213.729 124.506 276.082 49.8045M161.024 184.11C203.711 143.989 244.544 95.0151 283.891 55.651M162.881 194.631C204.695 147.385 241.068 108.52 283.676 61.3345M166.347 195.259C215.035 141.319 255.245 87.0309 279.001 64.5688M166.721 196.676C190.512 174.501 213.408 144.315 284.325 71.1178M171.806 203.042C198.55 166.47 228.597 134.758 283.594 74.7422M173.693 209.092C215.866 156.91 251.068 117.052 287.46 79.6205M173.766 209.408C214.236 173.245 252.238 127.699 287.525 84.8999M176.329 217.917C213.381 168.367 251.198 133.823 290.541 85.6767M182.525 214.595C216.035 174.965 260.545 123.817 285.529 92.7906M179.067 221.284C208.488 190.346 235.547 157.627 289.701 95.1469M188.195 220.357C214.768 191.251 238.236 168.03 287.487 100.628M184.483 225.092C224.851 184.351 262.671 141.151 289.386 110.136M192.974 227.203C220.61 195.373 254.386 155.441 292.584 112.746M193.036 234.421C222.318 193.171 256.944 160.947 292.332 116.993M196.244 234.565C214.256 212.728 239.892 183.018 291.879 125.419M195.234 242.164C228.589 200.191 266.111 160.233 293.299 129.112M202.405 244.977C232.822 213.799 260.433 176.583 298.298 130.92M202.742 241.615C232.079 212.082 260.824 183.199 293.033 141.826M209.298 245.17C222.563 223.283 246.558 209.048 294.082 142.509M208.618 247.957C244.766 207.062 273.47 170.966 294.786 145.224M217.231 254.664C229.615 228.262 250.077 204.658 296.968 151.567M216.911 251.909C231.986 233.794 247.023 213.144 297.086 155.65M219.245 254.516C240.864 237.309 257.564 209.433 300.484 165.746M220.059 257.008C246.312 232.865 273.082 197.052 301.158 170.397M230.435 258.353C251.23 228.941 282.007 202.529 298.914 176.389M232.727 263.751C248.2 237.562 274.113 216.466 305.069 178.324M235.64 262.642C253.051 240.958 271.586 219.451 304.128 185.156M239.264 265.257C261.325 244.599 274.449 224.676 305.26 185.854M241.163 269.644C259.342 240.457 284.326 221.669 302.52 192.543M243.624 271.042C261.142 245.181 282.955 229.348 306.177 199.362M248.749 272.769C266.76 248.225 293.868 221.677 303.707 202.451M254.65 271.149C268.141 258.271 282.313 240.185 305.91 213.204M254.482 274.397C275.284 254.889 290.865 231.915 312.589 214.187M261.082 275.455C274.566 266.412 281.9 249.101 310.965 215.84M269.866 274.637C281.559 258.617 299.229 244.558 309.968 228.22M266.907 276.198C281.822 267.217 295.686 247.5 312.014 228.47M276.487 277.462C289.425 257.776 306.788 243.637 311.163 236.982M282.223 280.203C291.995 272.494 296.866 262.6 316.357 241.015M283.939 280.519C294.718 267.431 297.88 263.296 314.351 244.944M292.226 280.205C298.613 271.109 302.678 261.013 316.901 250.96M292.88 284.366C299.04 274.513 305.027 263.406 317.362 256.953M297.323 281.373C304.957 271.729 309.933 271.096 319.285 257.153M303.221 279.923C311.909 274.242 315.199 273.476 319.715 265.665M308.838 279.874C314.231 276.943 316.082 274.153 318.224 269.66M317.106 279.239C316.848 279.358 317.926 277.088 319.167 276.267M170.422 87.2456C178.887 71.64 191.656 56.0272 217.37 21.222M168.293 90.4212C175.405 81.0462 190.231 61.1117 225.278 18.4504M159.444 102.777C181.743 84.6774 191.727 66.9616 231.36 20.5397M162.521 107.94C190.534 82.4361 214.093 46.9699 244.557 5.93087M158.59 118.818C190.787 72.6418 232.436 27.7792 249.221 8.21879M158.704 126.377C182.753 97.2147 200.94 71.518 255.469 6.33503M156.288 136.791C187.968 99.0313 216.017 59.6615 262.021 5.34155M155.731 138.538C182.265 109.337 210.307 72.9684 273.787 0.640015M153.338 150.204C197.004 100.662 239.162 47.4011 276.435 9.83773M156.645 153.348C205.334 101.627 248.095 52.531 270.109 15.1278M156.357 158.406C196.894 107.063 249.223 50.5006 272.334 14.7593M160.764 167.28C187.877 129.731 215.765 88.5267 278.539 20.2901M161.898 167.838C191.508 125.348 228.35 86.1283 274.686 27.4872M164.229 169.44C196.452 131.473 233.291 83.6127 279.22 35.3847M158.239 181.151C204.054 125.222 245.933 71.7015 280.838 41.3876M164.785 181.677C194.605 144.649 225.121 110.196 277.696 41.8569M161.085 187.375C212.882 135.286 250.589 81.2062 283.77 47.0592M167.757 191.768C194.195 163.289 220.088 128.05 282.735 51.9153M171.589 196.478C205.146 147.591 250.895 93.8852 284.01 56.9223M173.519 197.011C201.735 160.072 226.82 126.817 278.829 60.376M168.008 199.09C212.738 155.252 245.867 116.752 285.898 66.2413M170.646 204.379C203.107 169.972 236.771 125.316 282.838 69.1978M174.782 210.44C208.653 176.908 242.854 134.396 283.232 80.3033M173.986 211.28C202.035 186.157 233.158 152.606 289.528 82.9779M177.456 216.837C203.014 183.083 237.62 148.326 289.229 84.6771M181.445 223.666C222.522 174.9 261.762 130.393 287.134 95.264M188.148 226.336C214.922 185.222 244.902 152.466 289.786 102.223M187.681 230.437C229.727 181.962 270.303 131.341 292.47 100.101M186.42 234.243C217.331 201.79 245.834 169.758 287.687 112.212M189.12 232.397C215.77 204.605 239.744 176.822 289.889 112.287M196.853 237.698C218.604 200.079 248.32 167.051 290.363 119.305M201.184 242.384C227.603 200.149 261.885 156.967 293.468 120.408M199.02 246.092C223.694 214.537 254.568 185.387 295.056 131.864M204.538 241.284C229.78 210.953 255.486 177.404 292.296 133.346M207.728 243.945C228.496 215.788 254.255 184.378 298.546 135.537M209.794 249.104C242.82 210.799 281.121 169.584 294.836 144.299M216.117 251.301C233.609 227.299 248.102 204.454 294.387 151.242M216.584 251.449C237.793 231.458 257.693 203.038 297.303 153.719M217.823 261.197C249.01 223.173 275.958 187.36 301.88 159.778M225.959 255.389C253.196 229.487 277.417 191.166 302.859 161.069M225.962 257.104C257.573 225.806 278.884 189.671 304.908 166.272M226.994 261.839C247.933 238.438 267.992 218.588 302.548 171.698M235.537 262.714C252.479 247.108 266.762 224.73 303.156 182.299M234.373 266.559C253.267 245.727 270.352 227.009 305.924 181.093M238.641 266.21C258.237 250.731 268.868 238.738 301.465 191.502M243.81 267.727C264.076 246.531 285.375 219.778 309.116 192.241M247.555 270.443C274.517 245.054 290.317 215.961 302.88 199.303M253.407 274.677C263.83 261.595 276.415 248.08 305.737 202.349M261.214 271.236C277.516 247.483 293.108 221.381 307.133 213.616M259.878 278.176C272.372 260.886 286.269 244.785 312.03 211.253M265.513 277.072C283.546 251.824 298.101 233.9 311.009 216.744M272.065 274.774C285.901 262.091 292.735 249.199 314.201 224.094M277.371 276.861C290.577 264.465 301.215 248.366 308.207 233.94M283.445 280.94C284.16 264.779 292.903 257.789 309.83 236.312M286.101 280.519C295.703 270.061 296.242 261.623 310.476 243.804M287.107 276.627C296.496 270.984 299.547 264.127 316.501 244.988M292.553 278.464C303.015 274.309 307.54 261.875 318.156 250.718M295.993 278.842C303.578 269.768 311.142 262.585 315.483 255.864M302.815 276.396C306.093 277.811 315.92 269.953 319.248 258.454M313.069 278.779C310.788 275.857 313.956 272.852 314.949 263.211M316.227 279.399C316.817 276.068 316.068 276.626 320.467 271.604M198.453 37.5692V37.5692Z" stroke="#F4A988" stroke-width="0.5" stroke-linecap="round"/>
<path d="M18.0786 34.4428C22.2121 33.6846 24.6239 33.447 26.5755 33.6246M27.6714 34.2274C24.877 32.4726 24.9008 29.3955 26.5615 25.4778M26.9408 26.9859C27.8095 25.2773 30.4161 27.1987 33.131 25.3222M33.0026 27.0549C32.0002 22.6798 31.8966 20.5837 33.7322 18.7132M33.5752 18.6344C34.1467 19.8266 36.1801 19.2219 39.3983 19.7558M40.8487 18.7897C40.3885 14.9651 38.2234 13.1928 39.1925 12.4653M22.3899 44.0601C25.2133 41.7029 25.8901 42.611 31.162 43.4441M31.5215 42.4174C30.3334 40.9207 31.813 39.7739 29.6616 34.3227M30.3047 34.5295C32.6779 36.1285 35.8084 36.1142 37.1715 34.998M37.0024 35.6705C35.8298 33.2924 35.5774 30.4633 36.5193 28.7774M36.5394 26.5542C37.0302 27.7461 40.4629 28.734 43.181 26.1734M44.068 27.6776C43.1983 25.9855 44.1208 21.5769 43.3236 19.6558M28.9353 51.2578C30.405 50.9104 33.6585 50.9607 35.815 49.8323M34.0813 49.3595C36.4357 48.9826 34.9486 48.9552 34.944 42.933M34.3432 42.9697C37.6973 43.2117 38.4341 43.3982 42.5865 43.2229M40.9043 42.9405C41.815 40.4862 41.1573 38.5668 41.2355 37.3463M41.9117 35.3653C42.174 36.1452 45.4369 35.6861 48.8257 36.185M49.6457 36.8167C49.2406 33.3402 48.922 30.8758 49.1384 27.3642M47.0478 29.2867C51.7681 27.9462 52.2108 28.4733 56.1465 28.2906M54.5528 27.522C55.0918 25.7247 53.7156 22.8893 54.2249 21.1458M39.1025 52.2711C40.4215 53.3266 42.848 52.0969 46.069 52.8656M44.7145 51.5643C44.8223 50.0287 44.3229 49.9987 43.5705 44.9893M44.1505 44.6399C47.4061 46.3323 50.3365 46.4007 51.6534 45.0993M51.6588 44.2945C52.1481 44.339 50.3991 41.4784 52.7739 36.8166M51.4791 38.091C52.9968 38.9254 53.2356 37.8636 58.1655 38.4789M57.5895 38.3158C57.7869 34.4484 59.7122 34.2049 59.2512 30.0966" stroke="#A8E6A0" stroke-width="0.5" stroke-linecap="round"/>
</svg>
