<svg width="313" height="345" viewBox="0 0 313 345" fill="none" xmlns="http://www.w3.org/2000/svg">
<path d="M196.324 206.379L209.307 202.085L224.79 186.061L241.386 155.219L248.809 134.646L252.404 109.672L243.553 71.9797L230.312 47.4656L217.656 31.7794L198.379 10.3717L175.248 0L159.838 2.342L145.175 5.03248L117.042 8.88796L97.7819 20.0827L82.3636 31.1872L63.634 48.2519L58.1906 61.094L55.7713 82.7751L52.0066 104.263L57.2998 135.829L61.3519 154.267L77.0047 179.216L94.3595 200.948L100.341 184.771L96.5944 173.899L81.1035 148.984L69.5923 124.552L70.0874 95.1556L81.9215 68.0502L93.0148 45.7512L118.682 25.368L137.348 18.9085L144.713 21.4713L176.553 23.4238L198.25 38.6908L213.478 51.7613L225.139 81.1228L229.409 89.9127L224.645 126.99L226.07 147.048L207.512 174.737L184.342 189.67L199.011 214.407L196.324 206.379Z" fill="#599DB0"/>
<path d="M127.028 110.246L147.447 101.888L150.532 109.038L161.778 109.77L257.207 173.497L262.756 187.151L276 195.584L275.547 208.18L275.375 220.312L242.459 318.908L231.502 332.546L213.883 345L89.3975 342.603L74.9508 341.445L67.022 337.792L62.2573 322.68L26.6623 215.759L23 206.618L26.1706 190.822L28.394 181.383L39.2187 174.719L128.238 111.768L127.028 110.246Z" fill="#A9B0A6"/>
<path d="M172.294 209.253L174.462 222.094L166.589 231.325L157.24 233.766L148.178 234.204L140.555 234.377L137.17 229.565L128.115 218.949L129.43 209.587L124.743 199.613L128.921 199.701L139.782 195.08L150.84 187.19L159.648 190.443L166.95 200.905L167.549 202.148L171.987 213.212L172.294 209.253Z" fill="#28443F"/>
<path d="M136.523 238.726L147.58 228.196L154.637 236.266L170.586 271.75L166.273 276.694L132.395 279.275L137.048 234.77L136.523 238.726Z" fill="#28443F"/>
<path d="M202.563 208.253C215.695 215.867 243.04 193.791 216.324 171.657M202.563 208.253V208.253ZM228.132 182.79C242.185 180.11 202.354 143.586 194.619 160.414M202.563 157.331C196.765 158.213 171.501 155.897 170.733 178.392M177.007 182.79C180.606 197.132 171.317 184.372 174.294 190.649M171.539 198.466C172.06 212.458 157.681 216.685 145.09 216.62M149.059 224.828C133.476 235.006 160.375 225.824 144.405 228.858M149.452 233.805C150.024 233.155 150.419 235.598 152.404 236.702M152.628 236.674C147.425 241.521 144.295 230.208 157.444 250M160.898 237.094C160.801 235.018 162.03 233.803 164.853 232.751M164.522 232.531C171.58 252.175 166.241 231.758 178.706 229.752M175.223 231.937C180.366 220.119 188.369 231.764 169.999 231.052M174.765 223.544C175.148 223.247 175.64 222.907 176.047 222.324M175.817 222.462C189.936 237.079 173.565 217.396 174.996 235.685M188.302 222.462C198.787 222.148 198.361 226.109 173.026 210.355M188.302 214.172C194.289 203.575 180.22 198.201 172.955 194.586M186.915 209.048C188.939 208.153 190.037 206.723 190.866 205.563M191.276 205.292C191.541 203.928 186.626 208.881 203.719 215.513M202.571 208.252C202.568 208.252 202.566 208.253 202.562 208.253" stroke="#FCFCFC" stroke-width="1.5" stroke-linecap="round" stroke-linejoin="round"/>
<path d="M211.483 182.794C201.072 176.943 205.344 194.233 200.263 191.634M211.483 182.794V182.794ZM208.863 189.08C213.544 180.844 204.539 177.907 202.81 188.101M202.566 191.674C200.011 194.985 214.097 178.049 205.29 200.644M196.269 189.08C199.159 195.95 198.008 169.843 192.508 192.262M193.65 182.794C179.8 174.023 193.703 185.73 210.499 178.928M194.333 179.389C184.295 193.597 183.84 181.243 192.622 179.861M196.268 176.505C198.501 179.435 210.066 163.422 211.369 162.117M199.159 174.581C193.876 186.289 190.373 186.667 197.332 185.248M202.566 173.91C202.124 186.614 191.312 187.81 204.366 163.571M205.973 174.581C204.506 188.054 195.064 177.391 219.469 186.4M208.864 176.505C203.622 184.29 209.025 177.254 212.771 178.992M210.799 179.389C224.325 192.108 198.269 179.147 204.459 194.387" stroke="#FCFCFC" stroke-width="1.5" stroke-linecap="round"/>
<path d="M1.50446 316.258C7.19787 314.259 7.89324 307.564 19.2498 303.155M1.21599 323.232C9.10006 312.659 12.3846 308.675 22.5292 303.833M2.54633 329.654C13.9058 315.67 21.718 310.323 25.5036 301.766M9.4008 327.322C11.7143 321.206 18.1234 320.381 33.5519 308.208M10.1285 332.619C14.7687 327.576 27.0671 321.829 37.7073 308.804M13.2795 333.592C22.5996 326.25 26.5002 320.643 35.8888 304.037M15.468 338.193C22.1481 327.71 34.2167 319.686 43.0273 315.545M21.3442 341.751C32.5489 331.367 34.1402 317.792 43.9541 319.34M24.9152 339.872C27.187 335.245 40.7081 327.743 40.8681 321.622M16.0577 342.527C11.8683 331.816 10.9058 330.823 0.828857 322.53M25.1034 338.26C20.5673 330.417 7.79209 325.768 2.32571 322.131M29.2318 335.04C17.4632 327.833 10.9032 326.211 3.0242 315.569M34.5934 337.602C23.7953 327.743 15.9795 326.247 2.42113 310.272M37.0271 332.346C26.3884 323.976 21.7024 323.713 5.35485 311.502M39.2112 326.264C34.4154 320.476 25.3975 318.415 6.69461 301.539M42.2085 327.294C34.5669 317.905 27.1487 317.327 15.1399 298.361M43.7294 323.526C33.3246 313.112 31.4741 312.352 19.6775 301.922M44.756 321.039C41.2477 314.691 33.8056 304.928 22.96 296.11M7.73489 306.522V306.522ZM7.73258 333.767V333.767Z" stroke="#A8E6A0" stroke-width="0.5" stroke-linecap="round"/>
<path d="M270.643 32.5816C272.665 26.7345 278.37 26.1661 283.052 15.1371M269.701 37.5843C281.06 24.4717 284.011 16.9412 291.591 17.8962M274.551 42.848C277.188 35.4585 287.103 23.2214 291.705 17.3488M273.907 43.5183C284.944 39.4303 290.437 25.0686 296.528 17.2955M276.562 50.8701C286.027 39.8928 296.04 27.7761 301.402 20.4401M278.357 47.1205C287.101 37.4868 298.639 32.1035 305.398 19.366M283.25 51.6973C293.5 42.9741 298.089 36.0897 303.24 28.4981M284.332 52.8038C294.819 47.6646 301.573 35.9049 305.389 29.1714M291.397 54.8718C298.838 49.747 308.429 41.2292 312.425 30.1473M274.735 19.5224V19.5224Z" stroke="#F4A988" stroke-width="0.5" stroke-linecap="round"/>
</svg>
