<svg width="14" height="14" viewBox="0 0 14 14" fill="none" xmlns="http://www.w3.org/2000/svg">
<path d="M8.29683 13.4198L8.30452 13.4041L8.53266 13.526C8.78103 13.6587 9.05918 13.7442 9.38552 13.7499C9.75178 13.723 10.0418 13.5515 10.31 13.2626C10.5868 12.9646 10.8267 12.5565 11.0888 12.0809C11.8281 10.6525 12.4897 8.55562 12.9696 6.79841C13.2089 5.92213 13.4017 5.13547 13.5352 4.56658C13.6019 4.2822 13.6539 4.05233 13.6894 3.89296C13.7058 3.81913 13.7187 3.76044 13.728 3.71824L13.7302 3.70848L13.7412 3.65867L13.7447 3.64333L13.7457 3.63888C13.7552 3.59128 13.7488 3.54188 13.7278 3.49868L13.9527 3.3895L13.7278 3.49868C13.7063 3.45444 13.6712 3.41993 13.6291 3.39992L13.6118 3.3917L13.6098 3.39035L7.11919 0.269928C7.11904 0.269859 7.1189 0.269791 7.11875 0.269723C7.09037 0.256321 7.05962 0.249648 7.0287 0.250014C6.99762 0.250383 6.96686 0.257858 6.93864 0.272085C6.9104 0.286321 6.88528 0.307042 6.86536 0.333023L6.66716 0.181078L6.86536 0.333024C6.84544 0.359009 6.83129 0.389526 6.82426 0.422384C6.8244 0.421764 6.82446 0.421523 6.82444 0.421597C6.82443 0.421706 6.82425 0.422518 6.82395 0.423811M8.29683 13.4198L5.28444 5.29379L5.52289 5.36888C5.5229 5.36885 5.52291 5.36881 5.52292 5.36878C5.91167 4.13423 6.23653 2.89908 6.46426 1.97277C6.57818 1.50938 6.66792 1.12276 6.72931 0.851498C6.76001 0.715857 6.78362 0.609044 6.79962 0.535885L6.81785 0.452055L6.82216 0.432078M8.29683 13.4198L2.02045 10.3973C1.38003 10.0521 0.965456 9.35726 0.711139 8.7027L0.710901 8.70209C0.374003 7.84165 0.271561 7.02054 0.252286 6.86605C0.251887 6.86285 0.251523 6.85993 0.251194 6.85731L0.251264 6.8573C0.247077 6.81767 0.253349 6.77773 0.269233 6.7417C0.285028 6.70586 0.309611 6.67548 0.339997 6.65327C0.370572 6.63138 0.405897 6.61839 0.442346 6.61518C0.478977 6.61196 0.515945 6.61869 0.549555 6.63494L0.550053 6.63518L7.0569 9.76261L7.05689 9.76262L7.05931 9.76375C7.091 9.77857 7.11887 9.80184 7.13978 9.83172C7.16071 9.86163 7.17383 9.89699 7.17742 9.9343L7.1992 10.1603H7.20957C7.22301 10.2447 7.2415 10.3506 7.26652 10.4736C7.34683 10.8786 7.46103 11.2759 7.60788 11.6612L7.60785 11.6612L7.60926 11.6647C7.78397 12.1029 8.0081 12.5122 8.29547 12.8134C8.57828 13.1098 8.93293 13.3112 9.36076 13.3135C9.43151 13.3265 9.49416 13.312 9.52992 13.301C9.58702 13.2835 9.64113 13.2544 9.68885 13.2235C9.78577 13.1608 9.89357 13.0662 10.0045 12.9476C10.2277 12.7088 10.4864 12.3476 10.7191 11.8718C11.1908 10.9658 11.6463 9.72563 12.0323 8.49611C12.6313 6.59356 13.0784 4.68995 13.2527 3.91417L13.2963 3.72009L13.117 3.634L7.46017 0.917937L7.17797 0.78244L7.10825 1.08762C6.81911 2.35315 6.07084 5.434 5.12363 7.76012L8.29683 13.4198ZM6.82395 0.423811L6.82425 0.422423C6.82412 0.423013 6.82392 0.423932 6.82363 0.425232L6.82251 0.430412L6.82216 0.432078M6.82395 0.423811C6.82314 0.427365 6.82142 0.434557 6.81959 0.440801L6.82216 0.432078M6.82395 0.423811L6.82227 0.4317L6.82216 0.432078" fill="#FCFCFC" stroke="#FCFCFC" stroke-width="0.5"/>
</svg>
