<svg width="16" height="16" viewBox="0 0 16 16" fill="none" xmlns="http://www.w3.org/2000/svg">
<path d="M10.3334 5.66657H10.3412M11.5429 1.65552L14.3445 4.45711C14.5523 4.6649 14.7172 4.9116 14.8296 5.18311C14.9421 5.45462 15 5.74563 15 6.03951C15 6.3334 14.9421 6.62441 14.8296 6.89592C14.7172 7.16743 14.5523 7.41413 14.3445 7.62192L12.2888 9.67761C12.081 9.88543 11.8343 10.0503 11.5628 10.1628C11.2913 10.2752 11.0003 10.3331 10.7064 10.3331C10.4125 10.3331 10.1215 10.2752 9.84998 10.1628C9.57846 10.0503 9.33177 9.88543 9.12398 9.67761L8.88986 9.4435L3.78914 14.5442C3.5307 14.8026 3.18953 14.9618 2.82546 14.9938L2.68935 15H1.77779C1.58728 15 1.40341 14.93 1.26105 14.8034C1.11868 14.6768 1.02773 14.5024 1.00544 14.3132L1 14.2222V13.3106C1.00009 12.9454 1.12867 12.5919 1.36323 12.312L1.45578 12.2109L1.77779 11.8889H3.33336V10.3333H4.88893V8.77771L6.5565 7.11014L6.32239 6.87602C6.11457 6.66823 5.94971 6.42153 5.83723 6.15002C5.72476 5.87851 5.66687 5.5875 5.66687 5.29362C5.66687 4.99973 5.72476 4.70872 5.83723 4.43721C5.94971 4.1657 6.11457 3.91901 6.32239 3.71121L8.37808 1.65552C8.58587 1.4477 8.83257 1.28284 9.10408 1.17037C9.37559 1.05789 9.6666 1 9.96048 1C10.2544 1 10.5454 1.05789 10.8169 1.17037C11.0884 1.28284 11.3351 1.4477 11.5429 1.65552Z" stroke="#FCFCFC" stroke-linecap="round" stroke-linejoin="round"/>
</svg>
