<svg width="100" height="32" viewBox="0 0 100 32" fill="none" xmlns="http://www.w3.org/2000/svg">
<rect width="100" height="32" rx="16" fill="#2E2E2E"/>
<path d="M18.6562 18.9961C18.3438 18.9961 18.0352 19.0508 17.7305 19.1602C17.4336 19.2617 17.1328 19.3789 16.8281 19.5117C16.5234 19.6367 16.2109 19.7539 15.8906 19.8633C15.5781 19.9648 15.25 20.0156 14.9062 20.0156C14.4453 20.0156 14.0469 19.9258 13.7109 19.7461C13.375 19.5664 13.0977 19.3281 12.8789 19.0312C12.6602 18.7266 12.4961 18.375 12.3867 17.9766C12.2852 17.5703 12.2344 17.1445 12.2344 16.6992C12.2344 16.2617 12.2773 15.793 12.3633 15.293C12.4492 14.7852 12.582 14.2812 12.7617 13.7812C12.9414 13.2812 13.1641 12.8008 13.4297 12.3398C13.7031 11.8711 14.0195 11.457 14.3789 11.0977C14.7383 10.7383 15.1406 10.4531 15.5859 10.2422C16.0391 10.0234 16.5352 9.91406 17.0742 9.91406C17.4492 9.91406 17.793 9.98047 18.1055 10.1133C18.4258 10.2461 18.7148 10.4297 18.9727 10.6641C19.2305 10.8906 19.457 11.1562 19.6523 11.4609C19.8477 11.7578 20.0078 12.0781 20.1328 12.4219C20.2656 12.7578 20.3633 13.1016 20.4258 13.4531C20.4961 13.8047 20.5312 14.1406 20.5312 14.4609C20.5312 14.7812 20.4766 15.1016 20.3672 15.4219C20.2656 15.7344 20.1523 16.043 20.0273 16.3477C19.9102 16.6445 19.7969 16.9414 19.6875 17.2383C19.5859 17.5352 19.5352 17.8281 19.5352 18.1172V18.2344C19.6211 18.3359 19.7461 18.4727 19.9102 18.6445C20.082 18.8164 20.2539 19.0078 20.4258 19.2188C20.5977 19.4219 20.7461 19.6406 20.8711 19.875C20.9961 20.1016 21.0586 20.3203 21.0586 20.5312C21.0586 20.6797 21.0312 20.7969 20.9766 20.8828C20.9219 20.9609 20.7734 21 20.5312 21L20.2734 20.7422C20.2188 20.6797 20.1211 20.5664 19.9805 20.4023C19.8398 20.2383 19.6914 20.0625 19.5352 19.875C19.3789 19.6875 19.2266 19.5117 19.0781 19.3477C18.9375 19.1836 18.8398 19.0664 18.7852 18.9961H18.6562ZM13.2305 16.7578C13.2305 17.0859 13.2539 17.3906 13.3008 17.6719C13.3555 17.9453 13.4453 18.1836 13.5703 18.3867C13.7031 18.582 13.8867 18.7383 14.1211 18.8555C14.3555 18.9648 14.6523 19.0195 15.0117 19.0195C15.1055 19.0195 15.2383 19.0117 15.4102 18.9961C15.5898 18.9805 15.7812 18.957 15.9844 18.9258C16.1953 18.8867 16.4062 18.8398 16.6172 18.7852C16.8359 18.7305 17.0312 18.6602 17.2031 18.5742C17.375 18.4805 17.5156 18.3789 17.625 18.2695C17.7422 18.1523 17.8008 18.0156 17.8008 17.8594C17.8008 17.8125 17.7656 17.7383 17.6953 17.6367C17.6328 17.5273 17.5469 17.3984 17.4375 17.25C17.3359 17.1016 17.2227 16.9453 17.0977 16.7812C16.9727 16.6094 16.8516 16.4414 16.7344 16.2773C16.625 16.1055 16.5234 15.9531 16.4297 15.8203C16.3438 15.6797 16.2891 15.5625 16.2656 15.4688C16.3203 15.3281 16.3906 15.25 16.4766 15.2344C16.5703 15.2109 16.6719 15.1992 16.7812 15.1992C16.9297 15.1992 17.0586 15.2461 17.168 15.3398C17.2773 15.4258 17.375 15.5352 17.4609 15.668C17.5547 15.8008 17.6406 15.9453 17.7188 16.1016C17.8047 16.2578 17.8906 16.4023 17.9766 16.5352C18.0703 16.668 18.168 16.7812 18.2695 16.875C18.3789 16.9609 18.5078 17.0039 18.6562 17.0039C18.8047 17.0039 18.9297 16.9492 19.0312 16.8398C19.1406 16.7227 19.2266 16.5781 19.2891 16.4062C19.3594 16.2344 19.4102 16.043 19.4414 15.832C19.4805 15.6211 19.5078 15.418 19.5234 15.2227C19.5391 15.0273 19.5469 14.8516 19.5469 14.6953C19.5547 14.5312 19.5586 14.4141 19.5586 14.3438C19.5586 13.9453 19.5156 13.543 19.4297 13.1367C19.3516 12.7305 19.2109 12.3672 19.0078 12.0469C18.8125 11.7188 18.5508 11.4531 18.2227 11.25C17.9023 11.0391 17.5 10.9336 17.0156 10.9336C16.6484 10.9336 16.2969 11.0312 15.9609 11.2266C15.625 11.4141 15.3164 11.668 15.0352 11.9883C14.7539 12.3008 14.5 12.6602 14.2734 13.0664C14.0547 13.4727 13.8672 13.8945 13.7109 14.332C13.5547 14.7617 13.4336 15.1875 13.3477 15.6094C13.2695 16.0312 13.2305 16.4141 13.2305 16.7578ZM21.5156 12.7266C21.5156 12.6641 21.5195 12.5625 21.5273 12.4219C21.5273 12.2734 21.5273 12.1211 21.5273 11.9648C21.5273 11.8008 21.5312 11.6484 21.5391 11.5078C21.5391 11.3594 21.5391 11.2578 21.5391 11.2031C21.625 11.0391 21.7578 10.9219 21.9375 10.8516C22.125 10.7734 22.3242 10.7227 22.5352 10.6992C22.7539 10.668 22.9648 10.6562 23.168 10.6641C23.3789 10.6719 23.5508 10.6758 23.6836 10.6758C23.8555 10.6758 24.0547 10.6836 24.2812 10.6992C24.5156 10.7148 24.7461 10.7461 24.9727 10.793C25.207 10.832 25.4375 10.8945 25.6641 10.9805C25.8906 11.0586 26.0898 11.1641 26.2617 11.2969C26.4414 11.4219 26.582 11.5781 26.6836 11.7656C26.793 11.9453 26.8477 12.1602 26.8477 12.4102C26.8477 12.707 26.7773 12.9766 26.6367 13.2188C26.4961 13.4531 26.3203 13.6758 26.1094 13.8867C25.9062 14.0898 25.6797 14.2812 25.4297 14.4609C25.1875 14.6406 24.9609 14.8164 24.75 14.9883C24.5469 15.1602 24.375 15.3359 24.2344 15.5156C24.0938 15.6953 24.0234 15.8906 24.0234 16.1016C24.0234 16.1172 24.0273 16.1406 24.0352 16.1719C24.0508 16.1953 24.0586 16.2109 24.0586 16.2188C24.9805 16.4922 25.875 16.8242 26.7422 17.2148C27.6172 17.6055 28.4766 18.0273 29.3203 18.4805C29.3438 18.4961 29.3672 18.5273 29.3906 18.5742C29.4219 18.6133 29.4492 18.6641 29.4727 18.7266C29.4961 18.7812 29.5195 18.832 29.543 18.8789C29.5664 18.9258 29.5781 18.9648 29.5781 18.9961C29.5781 19.0664 29.5586 19.1211 29.5195 19.1602C29.4805 19.1914 29.4336 19.2188 29.3789 19.2422C29.3242 19.2578 29.2695 19.2656 29.2148 19.2656C29.1602 19.2656 29.1133 19.2656 29.0742 19.2656C28.6523 19.2656 28.2305 19.1758 27.8086 18.9961C27.3945 18.8086 26.9766 18.6016 26.5547 18.375C26.1328 18.1484 25.7031 17.9414 25.2656 17.7539C24.8359 17.5664 24.3867 17.4727 23.918 17.4727H23.543C23.668 17.7617 23.7773 18.0195 23.8711 18.2461C23.9727 18.4727 24.0547 18.6914 24.1172 18.9023C24.1875 19.1133 24.2383 19.3281 24.2695 19.5469C24.3086 19.7578 24.3281 19.9883 24.3281 20.2383C24.3281 20.293 24.3281 20.3594 24.3281 20.4375C24.3281 20.5078 24.3242 20.582 24.3164 20.6602C24.3086 20.7383 24.2852 20.8086 24.2461 20.8711C24.207 20.9336 24.1445 20.9766 24.0586 21C23.7383 20.8125 23.4492 20.5234 23.1914 20.1328C22.9414 19.7344 22.7227 19.2812 22.5352 18.7734C22.3477 18.2656 22.1875 17.7266 22.0547 17.1562C21.9297 16.5859 21.8242 16.0273 21.7383 15.4805C21.6602 14.9258 21.6016 14.4102 21.5625 13.9336C21.5312 13.4492 21.5156 13.0469 21.5156 12.7266ZM22.5234 13.4648C22.5234 13.5664 22.5156 13.6992 22.5 13.8633C22.4922 14.0195 22.4922 14.1836 22.5 14.3555C22.5078 14.5195 22.5312 14.6797 22.5703 14.8359C22.6172 14.9844 22.6914 15.1133 22.793 15.2227C22.8086 15.2305 22.8242 15.2344 22.8398 15.2344C22.8477 15.2422 22.8672 15.2461 22.8984 15.2461C23.0391 15.2461 23.207 15.2031 23.4023 15.1172C23.6055 15.0312 23.8164 14.918 24.0352 14.7773C24.2539 14.6367 24.4688 14.4766 24.6797 14.2969C24.8984 14.1094 25.0938 13.918 25.2656 13.7227C25.4375 13.5273 25.5742 13.332 25.6758 13.1367C25.7852 12.9336 25.8398 12.75 25.8398 12.5859C25.8398 12.4297 25.7812 12.2969 25.6641 12.1875C25.5469 12.0703 25.4062 11.9766 25.2422 11.9062C25.0781 11.8359 24.9062 11.7852 24.7266 11.7539C24.5547 11.7227 24.4141 11.707 24.3047 11.707C24.1719 11.707 24.0156 11.707 23.8359 11.707C23.6562 11.6992 23.4766 11.7109 23.2969 11.7422C23.125 11.7656 22.9688 11.8125 22.8281 11.8828C22.6875 11.9531 22.5898 12.0586 22.5352 12.1992C22.5352 12.2461 22.5352 12.3281 22.5352 12.4453C22.5352 12.5625 22.5352 12.6914 22.5352 12.832C22.5352 12.9648 22.5312 13.0898 22.5234 13.207C22.5234 13.3242 22.5234 13.4102 22.5234 13.4648ZM35.4492 16.9805C35.4492 16.7148 35.4844 16.4258 35.5547 16.1133C35.6328 15.8008 35.7383 15.4883 35.8711 15.1758C36.0039 14.8555 36.1641 14.5469 36.3516 14.25C36.5391 13.9453 36.75 13.6797 36.9844 13.4531C37.2188 13.2188 37.4727 13.0352 37.7461 12.9023C38.0195 12.7617 38.3086 12.6914 38.6133 12.6914C38.8633 12.6914 39.0977 12.7266 39.3164 12.7969C39.5352 12.8594 39.7227 12.957 39.8789 13.0898C40.0352 13.2227 40.1562 13.3906 40.2422 13.5938C40.3359 13.7891 40.3828 14.0234 40.3828 14.2969C40.2109 14.2969 40.0703 14.2539 39.9609 14.168C39.8594 14.0742 39.7617 13.9727 39.668 13.8633C39.582 13.7539 39.4844 13.6562 39.375 13.5703C39.2734 13.4844 39.1406 13.4414 38.9766 13.4414C38.7344 13.4414 38.5 13.5039 38.2734 13.6289C38.0547 13.7539 37.8477 13.9219 37.6523 14.1328C37.4648 14.3438 37.2969 14.582 37.1484 14.8477C37.0078 15.1133 36.8828 15.3828 36.7734 15.6562C36.6719 15.9219 36.5898 16.1836 36.5273 16.4414C36.4727 16.6992 36.4453 16.9219 36.4453 17.1094C36.4453 17.5156 36.5039 17.8984 36.6211 18.2578C36.7461 18.6094 36.9219 18.918 37.1484 19.1836C37.375 19.4414 37.6562 19.6445 37.9922 19.793C38.3281 19.9414 38.7109 20.0156 39.1406 20.0156C39.4141 20.0156 39.6719 19.9766 39.9141 19.8984C40.1641 19.8125 40.4023 19.7227 40.6289 19.6289C40.8633 19.5273 41.0938 19.4336 41.3203 19.3477C41.5469 19.2617 41.7734 19.2188 42 19.2188C42.0312 19.2188 42.0742 19.2227 42.1289 19.2305C42.1914 19.2305 42.2461 19.2383 42.293 19.2539C42.3477 19.2695 42.3945 19.2969 42.4336 19.3359C42.4727 19.3672 42.4922 19.418 42.4922 19.4883C42.4922 19.7695 42.3828 20.0078 42.1641 20.2031C41.9531 20.3984 41.6992 20.5586 41.4023 20.6836C41.1055 20.8008 40.7969 20.8867 40.4766 20.9414C40.1562 20.9961 39.8945 21.0234 39.6914 21.0234C39.0977 21.0234 38.543 20.9297 38.0273 20.7422C37.5117 20.5469 37.0625 20.2734 36.6797 19.9219C36.2969 19.5703 35.9961 19.1484 35.7773 18.6562C35.5586 18.1562 35.4492 17.5977 35.4492 16.9805ZM42.9844 18.6211C42.9844 18.1367 43.0977 17.6875 43.3242 17.2734C43.5508 16.8516 43.8477 16.4922 44.2148 16.1953C44.5898 15.8906 45.0078 15.6523 45.4688 15.4805C45.9375 15.3086 46.4102 15.2227 46.8867 15.2227C47.1523 15.2227 47.3867 15.3086 47.5898 15.4805C47.8008 15.6523 47.9766 15.8633 48.1172 16.1133C48.2578 16.3555 48.3633 16.6133 48.4336 16.8867C48.5117 17.1602 48.5508 17.3984 48.5508 17.6016C48.5508 18.0391 48.4453 18.4648 48.2344 18.8789C48.0234 19.2852 47.75 19.6484 47.4141 19.9688C47.0781 20.2812 46.6992 20.5352 46.2773 20.7305C45.8555 20.9258 45.4336 21.0234 45.0117 21.0234C44.6367 21.0234 44.3203 20.9609 44.0625 20.8359C43.8047 20.7031 43.5977 20.5312 43.4414 20.3203C43.2852 20.1016 43.168 19.8477 43.0898 19.5586C43.0195 19.2617 42.9844 18.9492 42.9844 18.6211ZM43.9805 18.7383C43.9805 18.9414 43.9961 19.1211 44.0273 19.2773C44.0664 19.4258 44.1289 19.5547 44.2148 19.6641C44.3086 19.7734 44.4297 19.8594 44.5781 19.9219C44.7266 19.9766 44.9102 20.0039 45.1289 20.0039C45.418 20.0039 45.707 19.9258 45.9961 19.7695C46.2852 19.6055 46.543 19.4023 46.7695 19.1602C47.0039 18.9102 47.1914 18.6367 47.332 18.3398C47.4727 18.043 47.543 17.7539 47.543 17.4727C47.543 17.3477 47.5312 17.2109 47.5078 17.0625C47.4844 16.9141 47.4453 16.7773 47.3906 16.6523C47.3359 16.5273 47.2578 16.4219 47.1562 16.3359C47.0547 16.25 46.9258 16.207 46.7695 16.207C46.6289 16.207 46.4609 16.2539 46.2656 16.3477C46.0781 16.4414 45.8789 16.5625 45.668 16.7109C45.4648 16.8594 45.2617 17.0273 45.0586 17.2148C44.8633 17.4023 44.6836 17.5898 44.5195 17.7773C44.3555 17.9648 44.2227 18.1445 44.1211 18.3164C44.0273 18.4883 43.9805 18.6289 43.9805 18.7383ZM48.75 19.6172C48.75 19.1641 48.8633 18.7617 49.0898 18.4102C49.3164 18.0586 49.5977 17.7539 49.9336 17.4961C50.2695 17.2305 50.6328 17.0078 51.0234 16.8281C51.4141 16.6406 51.7773 16.4883 52.1133 16.3711C52.4492 16.2461 52.7305 16.1484 52.957 16.0781C53.1836 16 53.2969 15.9375 53.2969 15.8906C53.2969 15.6172 53.2812 15.3516 53.25 15.0938C53.2266 14.8281 53.1992 14.5625 53.168 14.2969C53.1367 14.0312 53.1055 13.7695 53.0742 13.5117C53.0508 13.2461 53.0391 12.9844 53.0391 12.7266V11.9648C53.3594 11.8477 53.5859 11.8594 53.7188 12C53.8594 12.1406 53.8828 12.3828 53.7891 12.7266C53.8203 12.8984 53.8633 13.168 53.918 13.5352C53.9727 13.9023 54.0312 14.3164 54.0938 14.7773C54.1641 15.2383 54.2344 15.7227 54.3047 16.2305C54.3828 16.7383 54.4531 17.2266 54.5156 17.6953C54.5859 18.1562 54.6445 18.5703 54.6914 18.9375C54.7383 19.2969 54.7734 19.5664 54.7969 19.7461C54.8047 19.7852 54.8125 19.8633 54.8203 19.9805C54.8281 20.0898 54.832 20.2109 54.832 20.3438C54.8398 20.4688 54.8438 20.5859 54.8438 20.6953C54.8516 20.8047 54.8555 20.8828 54.8555 20.9297C54.5586 20.9297 54.3555 20.918 54.2461 20.8945C54.1445 20.8711 54.0781 20.8242 54.0469 20.7539C54.0234 20.6836 54.0117 20.582 54.0117 20.4492C54.0117 20.3164 53.9727 20.1328 53.8945 19.8984C53.6055 20.125 53.332 20.3125 53.0742 20.4609C52.8164 20.6094 52.5586 20.7305 52.3008 20.8242C52.043 20.9102 51.7812 20.9688 51.5156 21C51.2578 21.0391 50.9805 21.0586 50.6836 21.0586C50.4336 21.0586 50.1914 21.0391 49.957 21C49.7305 20.9531 49.5273 20.875 49.3477 20.7656C49.168 20.6562 49.0234 20.5078 48.9141 20.3203C48.8047 20.1328 48.75 19.8984 48.75 19.6172ZM49.7695 19.3711C49.7695 19.4961 49.7969 19.5977 49.8516 19.6758C49.9062 19.7539 49.9766 19.8203 50.0625 19.875C50.1484 19.9297 50.2383 19.9688 50.332 19.9922C50.4336 20.0078 50.5312 20.0156 50.625 20.0156C50.8984 20.0156 51.1914 19.9648 51.5039 19.8633C51.8242 19.7539 52.1172 19.6055 52.3828 19.418C52.6562 19.2227 52.8789 18.9922 53.0508 18.7266C53.2305 18.4609 53.3203 18.1719 53.3203 17.8594C53.3203 17.6172 53.2773 17.4492 53.1914 17.3555C53.1055 17.2617 52.9414 17.2148 52.6992 17.2148C52.4492 17.2148 52.1562 17.2734 51.8203 17.3906C51.4922 17.5078 51.1719 17.6641 50.8594 17.8594C50.5547 18.0547 50.2969 18.2852 50.0859 18.5508C49.875 18.8086 49.7695 19.082 49.7695 19.3711ZM55.5469 17.7422C55.5469 17.3203 55.5977 16.8984 55.6992 16.4766C55.8008 16.0547 55.9609 15.6758 56.1797 15.3398C56.4062 15.0039 56.6953 14.7305 57.0469 14.5195C57.4062 14.3086 57.8398 14.2031 58.3477 14.2031C58.6367 14.2031 58.8906 14.2578 59.1094 14.3672C59.3281 14.4688 59.5117 14.6055 59.6602 14.7773C59.8086 14.9492 59.918 15.1523 59.9883 15.3867C60.0664 15.6133 60.1055 15.8516 60.1055 16.1016C60.1055 16.5 60.0117 16.8867 59.8242 17.2617C59.6445 17.6367 59.3984 17.9688 59.0859 18.2578C58.7812 18.5391 58.4297 18.7539 58.0312 18.9023C57.6328 19.043 57.2266 19.0742 56.8125 18.9961C56.8203 19.2227 56.8945 19.4062 57.0352 19.5469C57.1836 19.6797 57.3594 19.7812 57.5625 19.8516C57.7656 19.9219 57.9766 19.9688 58.1953 19.9922C58.4141 20.0078 58.6094 20.0156 58.7812 20.0156C58.9609 20.0156 59.1289 20 59.2852 19.9688C59.4414 19.9375 59.5977 19.9023 59.7539 19.8633C59.9102 19.8242 60.0664 19.7891 60.2227 19.7578C60.3867 19.7266 60.5586 19.7109 60.7383 19.7109C60.8086 19.7109 60.8789 19.7148 60.9492 19.7227C61.0195 19.7305 61.0859 19.75 61.1484 19.7812C61.2109 19.8047 61.2617 19.8477 61.3008 19.9102C61.3398 19.9648 61.3594 20.0352 61.3594 20.1211C61.3594 20.2695 61.3047 20.3945 61.1953 20.4961C61.0859 20.5898 60.9453 20.6719 60.7734 20.7422C60.6094 20.8125 60.4258 20.8672 60.2227 20.9062C60.0195 20.9375 59.8203 20.9648 59.625 20.9883C59.4375 21.0039 59.2617 21.0117 59.0977 21.0117C58.9414 21.0195 58.8242 21.0234 58.7461 21.0234C58.2461 21.0234 57.7969 20.9453 57.3984 20.7891C57 20.625 56.6641 20.4023 56.3906 20.1211C56.1172 19.832 55.9062 19.4883 55.7578 19.0898C55.6172 18.6836 55.5469 18.2344 55.5469 17.7422ZM56.7891 16.9805C56.7891 17.2539 56.8242 17.4531 56.8945 17.5781C56.9727 17.7031 57.1562 17.7656 57.4453 17.7656C57.6484 17.7656 57.8477 17.7305 58.043 17.6602C58.2383 17.582 58.4141 17.4766 58.5703 17.3438C58.7344 17.2109 58.8633 17.0547 58.957 16.875C59.0508 16.6953 59.0977 16.5 59.0977 16.2891C59.0977 16.1719 59.0859 16.0508 59.0625 15.9258C59.0469 15.8008 59.0078 15.6875 58.9453 15.5859C58.8828 15.4766 58.8008 15.3906 58.6992 15.3281C58.6055 15.2578 58.4805 15.2227 58.3242 15.2227C58.0898 15.2227 57.875 15.2773 57.6797 15.3867C57.4922 15.4883 57.332 15.625 57.1992 15.7969C57.0664 15.9609 56.9648 16.1484 56.8945 16.3594C56.8242 16.5625 56.7891 16.7695 56.7891 16.9805Z" fill="white"/>
<path d="M74.6667 16H77.3333M82.6667 16V18.6667M80 21.3333H82.6667M80 16.0098L80.0089 16M85.3333 16.0098L85.3422 16M80 18.6764L80.0089 18.6667M85.3333 18.6764L85.3422 18.6667M85.3333 21.3431L85.3422 21.3333M80 13.3431L80.0089 13.3333M80 10.6764L80.0089 10.6667M85.3333 8H88V10.6667M85.3333 24H88V21.3333M74.6667 8H72V10.6667M74.6667 24H72V21.3333M77.3333 11.2V12.8C77.3333 12.9414 77.2771 13.0771 77.1771 13.1771C77.0771 13.2771 76.9414 13.3333 76.8 13.3333H75.2C75.0586 13.3333 74.9229 13.2771 74.8229 13.1771C74.7229 13.0771 74.6667 12.9414 74.6667 12.8V11.2C74.6667 11.0586 74.7229 10.9229 74.8229 10.8229C74.9229 10.7229 75.0586 10.6667 75.2 10.6667H76.8C76.9414 10.6667 77.0771 10.7229 77.1771 10.8229C77.2771 10.9229 77.3333 11.0586 77.3333 11.2ZM77.3333 19.2V20.8C77.3333 20.9414 77.2771 21.0771 77.1771 21.1771C77.0771 21.2771 76.9414 21.3333 76.8 21.3333H75.2C75.0586 21.3333 74.9229 21.2771 74.8229 21.1771C74.7229 21.0771 74.6667 20.9414 74.6667 20.8V19.2C74.6667 19.0586 74.7229 18.9229 74.8229 18.8229C74.9229 18.7229 75.0586 18.6667 75.2 18.6667H76.8C76.9414 18.6667 77.0771 18.7229 77.1771 18.8229C77.2771 18.9229 77.3333 19.0586 77.3333 19.2ZM85.3333 11.2V12.8C85.3333 12.9414 85.2771 13.0771 85.1771 13.1771C85.0771 13.2771 84.9414 13.3333 84.8 13.3333H83.2C83.0586 13.3333 82.9229 13.2771 82.8229 13.1771C82.7229 13.0771 82.6667 12.9414 82.6667 12.8V11.2C82.6667 11.0586 82.7229 10.9229 82.8229 10.8229C82.9229 10.7229 83.0586 10.6667 83.2 10.6667H84.8C84.9414 10.6667 85.0771 10.7229 85.1771 10.8229C85.2771 10.9229 85.3333 11.0586 85.3333 11.2Z" stroke="#FCFCFC" stroke-width="2" stroke-linecap="round" stroke-linejoin="round"/>
</svg>
