<svg width="108" height="42" viewBox="0 0 108 42" fill="none" xmlns="http://www.w3.org/2000/svg">
<rect width="108" height="42" rx="21" fill="#171E1B"/>
<path d="M8 17.4019L8.48889 17.7566C8.97778 18.1114 9.95556 18.8209 10.9333 19.0171C11.9111 19.2132 12.8889 18.8959 13.8667 18.5813C14.8444 18.2667 15.8222 17.9547 16.8 20.3861C17.7778 22.8174 18.7556 27.9921 19.7333 29.9836C20.7111 31.9751 21.6889 30.7834 22.6667 28.6198C23.6444 26.4563 24.6222 23.321 25.6 21.4655C26.5778 19.61 27.5556 19.0343 28.5333 17.827C29.5111 16.6198 30.4889 14.7809 31.4667 16.7066C32.4444 18.6323 33.4222 24.3226 34.4 23.7538C35.3778 23.1849 36.3556 16.3569 37.3333 14.3727C38.3111 12.3886 39.2889 15.2483 40.2667 15.3422C41.2444 15.4361 42.2222 12.7643 43.2 12.0831C44.1778 11.402 45.1556 12.7116 46.1333 13.7488C47.1111 14.7859 48.0889 15.5507 49.0667 15.0471C50.0444 14.5436 51.0222 12.7718 51.5111 11.8859L52 11" stroke="#A8E6A0"/>
<path d="M60.7031 16.7891C60.5625 16.7578 60.4805 16.6875 60.457 16.5781C60.4336 16.4609 60.4219 16.3516 60.4219 16.25C60.3359 16.1406 60.3242 16.0469 60.3867 15.9688C60.4492 15.8906 60.5508 15.832 60.6914 15.793C60.8398 15.7461 61.0156 15.7148 61.2188 15.6992C61.4219 15.6836 61.6172 15.6797 61.8047 15.6875C62 15.6875 62.1719 15.707 62.3203 15.7461C62.4766 15.7773 62.582 15.8125 62.6367 15.8516C62.7148 15.3516 62.75 14.9336 62.7422 14.5977C62.7422 14.2539 62.7109 13.9688 62.6484 13.7422C62.5938 13.5078 62.5117 13.3203 62.4023 13.1797C62.293 13.0312 62.1719 12.9102 62.0391 12.8164C61.9062 12.7148 61.7695 12.625 61.6289 12.5469C61.4883 12.4609 61.3516 12.3672 61.2188 12.2656C61.0938 12.1562 60.9805 12.0234 60.8789 11.8672C60.7773 11.7109 60.6992 11.5078 60.6445 11.2578C60.6445 11.0469 60.6914 10.8633 60.7852 10.707C60.8789 10.543 60.9961 10.4023 61.1367 10.2852C61.2852 10.168 61.4414 10.0664 61.6055 9.98047C61.7773 9.89453 61.9336 9.8125 62.0742 9.73438C62.2227 9.65625 62.3438 9.58203 62.4375 9.51172C62.5312 9.43359 62.5781 9.34766 62.5781 9.25391V7.23828C62.5781 7.17578 62.6133 7.12891 62.6836 7.09766C62.7617 7.05859 62.8477 7.02344 62.9414 6.99219C63.043 6.96094 63.1328 6.94141 63.2109 6.93359C63.2969 6.92578 63.3555 6.92188 63.3867 6.92188C63.3867 7.30469 63.4023 7.69922 63.4336 8.10547C63.4727 8.50391 63.5664 8.88672 63.7148 9.25391C63.7852 9.25391 63.9141 9.26562 64.1016 9.28906C64.2969 9.3125 64.5 9.33984 64.7109 9.37109C64.9297 9.39453 65.1328 9.41797 65.3203 9.44141C65.5156 9.46484 65.6523 9.48047 65.7305 9.48828C65.7461 9.49609 65.7773 9.51172 65.8242 9.53516C65.8789 9.55859 65.9297 9.58594 65.9766 9.61719C66.0312 9.64844 66.082 9.67578 66.1289 9.69922C66.1758 9.72266 66.207 9.74219 66.2227 9.75781C66.2695 9.89844 66.3008 10.0352 66.3164 10.168C66.332 10.293 66.2734 10.3867 66.1406 10.4492C66.0078 10.5117 65.7695 10.5234 65.4258 10.4844C65.0898 10.4453 64.6016 10.3242 63.9609 10.1211C63.875 10.1211 63.8125 10.1719 63.7734 10.2734C63.7344 10.375 63.707 10.4883 63.6914 10.6133C63.6758 10.7383 63.668 10.8555 63.668 10.9648C63.6758 11.0664 63.6797 11.1211 63.6797 11.1289C63.6797 11.1523 63.6797 11.1953 63.6797 11.2578C63.6875 11.3203 63.6914 11.3828 63.6914 11.4453C63.6992 11.5078 63.7031 11.5703 63.7031 11.6328C63.7109 11.6875 63.7148 11.7305 63.7148 11.7617C63.8008 11.7773 63.9453 11.8008 64.1484 11.832C64.3594 11.8555 64.5938 11.8945 64.8516 11.9492C65.1094 12.0039 65.3789 12.0742 65.6602 12.1602C65.9414 12.2461 66.1992 12.3516 66.4336 12.4766C66.6758 12.5938 66.8711 12.7383 67.0195 12.9102C67.168 13.0742 67.2422 13.2656 67.2422 13.4844C67.2422 13.9141 67.1445 14.2969 66.9492 14.6328C66.7539 14.9609 66.5039 15.2539 66.1992 15.5117C65.9023 15.7695 65.5742 16.0039 65.2148 16.2148C64.8633 16.4258 64.5273 16.6172 64.207 16.7891V17.1641C64.207 17.3359 64.2188 17.5039 64.2422 17.668C64.2734 17.8398 64.3086 18.0078 64.3477 18.1719C64.3867 18.3438 64.418 18.5117 64.4414 18.6758C64.4727 18.8477 64.4883 19.0195 64.4883 19.1914C64.4883 19.3945 64.4531 19.5469 64.3828 19.6484C64.3125 19.7578 64.168 19.8125 63.9492 19.8125C63.8555 19.8125 63.7852 19.8047 63.7383 19.7891C63.6914 19.7812 63.6523 19.7578 63.6211 19.7188C63.5898 19.6875 63.5625 19.6367 63.5391 19.5664C63.5234 19.4961 63.4961 19.4023 63.457 19.2852C63.4336 19.207 63.3945 19.0742 63.3398 18.8867C63.293 18.6992 63.2422 18.4961 63.1875 18.2773C63.1328 18.0664 63.082 17.8672 63.0352 17.6797C62.9961 17.4922 62.9727 17.3594 62.9648 17.2812L60.7031 16.7891ZM63.6562 12.957C63.6562 13.4023 63.6797 13.8359 63.7266 14.2578C63.7812 14.6719 63.8594 15.0938 63.9609 15.5234H64.0781C64.2656 15.5234 64.4688 15.4766 64.6875 15.3828C64.9062 15.2812 65.1133 15.1523 65.3086 14.9961C65.5039 14.832 65.6641 14.6562 65.7891 14.4688C65.9219 14.2734 65.9883 14.082 65.9883 13.8945C65.9883 13.6211 65.9023 13.4219 65.7305 13.2969C65.5664 13.1641 65.3633 13.0742 65.1211 13.0273C64.8867 12.9727 64.6328 12.9492 64.3594 12.957C64.0859 12.957 63.8516 12.957 63.6562 12.957ZM61.6758 11.2344C61.6758 11.4688 61.7461 11.6289 61.8867 11.7148C62.0352 11.8008 62.2227 11.8438 62.4492 11.8438V10.707C62.3633 10.707 62.2734 10.7148 62.1797 10.7305C62.0938 10.7461 62.0117 10.7773 61.9336 10.8242C61.8633 10.8633 61.8008 10.918 61.7461 10.9883C61.6992 11.0508 61.6758 11.1328 61.6758 11.2344ZM69.7617 15.8633C69.7617 15.4336 69.8008 15.0117 69.8789 14.5977C69.9648 14.1758 70.0586 13.7539 70.1602 13.332C70.2617 12.9102 70.3516 12.4844 70.4297 12.0547C70.5156 11.6172 70.5586 11.1758 70.5586 10.7305C70.5586 10.668 70.5547 10.5664 70.5469 10.4258C70.5469 10.2773 70.5469 10.125 70.5469 9.96875C70.5469 9.8125 70.543 9.66406 70.5352 9.52344C70.5352 9.375 70.5352 9.27344 70.5352 9.21875C70.5195 9.1875 70.4805 9.14062 70.418 9.07812C70.3555 9.01562 70.3125 8.97656 70.2891 8.96094H70.1602C69.9023 8.96094 69.6875 9.01953 69.5156 9.13672C69.3438 9.24609 69.1953 9.38281 69.0703 9.54688C68.9531 9.71094 68.8438 9.89453 68.7422 10.0977C68.6406 10.293 68.5273 10.4727 68.4023 10.6367C68.2852 10.8008 68.1484 10.9414 67.9922 11.0586C67.8438 11.168 67.6562 11.2227 67.4297 11.2227C67.4297 10.8086 67.5 10.4062 67.6406 10.0156C67.7812 9.61719 67.9805 9.26562 68.2383 8.96094C68.5039 8.64844 68.8164 8.39844 69.1758 8.21094C69.543 8.02344 69.9453 7.92969 70.3828 7.92969C70.5703 7.92969 70.7227 7.9375 70.8398 7.95312C70.957 7.96875 71.0586 8.00391 71.1445 8.05859C71.2305 8.11328 71.3008 8.19531 71.3555 8.30469C71.4102 8.40625 71.4727 8.54688 71.543 8.72656C71.543 8.78906 71.543 8.90234 71.543 9.06641C71.543 9.22266 71.543 9.39453 71.543 9.58203C71.5508 9.76953 71.5547 9.94922 71.5547 10.1211C71.5625 10.2852 71.5664 10.3984 71.5664 10.4609C71.5664 10.875 71.543 11.2812 71.4961 11.6797C71.4492 12.0781 71.3906 12.4727 71.3203 12.8633C71.2578 13.2539 71.2031 13.6484 71.1562 14.0469C71.1094 14.4375 71.0859 14.8359 71.0859 15.2422H71.2969L74.0625 13.9883C74.0703 13.9883 74.0859 13.9883 74.1094 13.9883C74.1406 13.9805 74.1758 13.9766 74.2148 13.9766C74.2539 13.9766 74.2891 13.9766 74.3203 13.9766C74.3594 13.9688 74.3867 13.9648 74.4023 13.9648C74.4727 13.9648 74.5469 13.9688 74.625 13.9766C74.7031 13.9844 74.7734 14 74.8359 14.0234C74.9062 14.0469 74.9648 14.0859 75.0117 14.1406C75.0586 14.1953 75.082 14.2695 75.082 14.3633C75.082 14.5273 75.0312 14.6562 74.9297 14.75C74.8281 14.8438 74.707 14.918 74.5664 14.9727C74.4336 15.0273 74.293 15.0742 74.1445 15.1133C74.0039 15.1523 73.8867 15.1953 73.793 15.2422C73.7227 15.2812 73.6094 15.3398 73.4531 15.418C73.3047 15.4961 73.1289 15.5859 72.9258 15.6875C72.7227 15.7812 72.5117 15.8828 72.293 15.9922C72.0742 16.1016 71.8672 16.207 71.6719 16.3086C71.4766 16.4102 71.3008 16.5 71.1445 16.5781C70.9883 16.6562 70.8711 16.7109 70.793 16.7422C70.7773 16.7422 70.75 16.7461 70.7109 16.7539C70.6797 16.7539 70.6406 16.7539 70.5938 16.7539C70.5547 16.7539 70.5156 16.7578 70.4766 16.7656C70.4453 16.7656 70.4219 16.7656 70.4062 16.7656C70.25 16.7656 70.125 16.75 70.0312 16.7188C69.9453 16.6797 69.8828 16.625 69.8438 16.5547C69.8047 16.4766 69.7812 16.3828 69.7734 16.2734C69.7656 16.1641 69.7617 16.0273 69.7617 15.8633ZM75.293 9.46484C75.293 9.36328 75.293 9.21484 75.293 9.01953C75.293 8.81641 75.3125 8.61719 75.3516 8.42188C75.3906 8.21875 75.4531 8.04297 75.5391 7.89453C75.625 7.74609 75.7578 7.67188 75.9375 7.67188C76.0391 7.67188 76.1211 7.76172 76.1836 7.94141C76.2539 8.11328 76.3086 8.33203 76.3477 8.59766C76.3945 8.85547 76.4258 9.14453 76.4414 9.46484C76.4648 9.77734 76.4805 10.0742 76.4883 10.3555C76.5039 10.6367 76.5156 10.8828 76.5234 11.0938C76.5312 11.2969 76.543 11.4219 76.5586 11.4688C76.582 11.5938 76.625 11.7812 76.6875 12.0312C76.7578 12.2812 76.832 12.5664 76.9102 12.8867C76.9883 13.1992 77.0742 13.5273 77.168 13.8711C77.2617 14.2148 77.3477 14.543 77.4258 14.8555C77.5117 15.168 77.5898 15.4492 77.6602 15.6992C77.7305 15.9492 77.7852 16.1289 77.8242 16.2383C77.8242 16.2539 77.8281 16.2773 77.8359 16.3086C77.8438 16.3398 77.8477 16.3633 77.8477 16.3789C77.8477 16.4648 77.8164 16.5352 77.7539 16.5898C77.6992 16.6367 77.6289 16.6758 77.543 16.707C77.4648 16.7305 77.3828 16.7461 77.2969 16.7539C77.2109 16.7617 77.1328 16.7656 77.0625 16.7656C77.0312 16.7656 76.9844 16.7617 76.9219 16.7539C76.8672 16.7461 76.832 16.7422 76.8164 16.7422C76.6523 16.1953 76.4766 15.6211 76.2891 15.0195C76.1094 14.4102 75.9453 13.793 75.7969 13.168C75.6484 12.543 75.5273 11.918 75.4336 11.293C75.3398 10.6602 75.293 10.0508 75.293 9.46484ZM78.0586 12.582C78.0586 12.2617 78.0859 11.9219 78.1406 11.5625C78.1953 11.2031 78.2812 10.8516 78.3984 10.5078C78.5156 10.1641 78.6641 9.83594 78.8438 9.52344C79.0234 9.21094 79.2344 8.9375 79.4766 8.70312C79.7188 8.46094 79.9922 8.27344 80.2969 8.14062C80.6094 8 80.957 7.92969 81.3398 7.92969C81.8711 7.92969 82.3398 8.01562 82.7461 8.1875C83.1602 8.35938 83.5039 8.60156 83.7773 8.91406C84.0586 9.22656 84.2695 9.60156 84.4102 10.0391C84.5508 10.4688 84.6211 10.9414 84.6211 11.457C84.6211 11.8164 84.5859 12.207 84.5156 12.6289C84.4453 13.0508 84.332 13.4688 84.1758 13.8828C84.0273 14.2891 83.8398 14.6797 83.6133 15.0547C83.3867 15.4297 83.125 15.7617 82.8281 16.0508C82.5312 16.3398 82.1914 16.5703 81.8086 16.7422C81.4336 16.9141 81.0273 17 80.5898 17C80.1992 17 79.8633 16.9297 79.582 16.7891C79.3086 16.6484 79.0781 16.4609 78.8906 16.2266C78.7031 15.9922 78.5547 15.7227 78.4453 15.418C78.3359 15.1055 78.25 14.7891 78.1875 14.4688C78.1328 14.1406 78.0977 13.8125 78.082 13.4844C78.0664 13.1562 78.0586 12.8555 78.0586 12.582ZM79.0547 13.1094C79.0547 13.4219 79.0703 13.75 79.1016 14.0938C79.1328 14.4297 79.2109 14.7422 79.3359 15.0312C79.4609 15.3125 79.6406 15.5469 79.875 15.7344C80.1094 15.9141 80.4297 16.0039 80.8359 16.0039C81.1719 16.0039 81.4727 15.9258 81.7383 15.7695C82.0039 15.6055 82.2383 15.3945 82.4414 15.1367C82.6445 14.8789 82.8203 14.5898 82.9688 14.2695C83.125 13.9414 83.25 13.6094 83.3438 13.2734C83.4375 12.9375 83.5078 12.6133 83.5547 12.3008C83.6016 11.9883 83.625 11.7109 83.625 11.4688C83.625 11.1172 83.5977 10.7852 83.543 10.4727C83.4883 10.1602 83.3906 9.89062 83.25 9.66406C83.1094 9.4375 82.9141 9.26172 82.6641 9.13672C82.4141 9.00391 82.082 8.9375 81.668 8.9375C81.3242 8.9375 81.0195 9.00391 80.7539 9.13672C80.4961 9.26953 80.2695 9.44531 80.0742 9.66406C79.8789 9.88281 79.7148 10.1367 79.582 10.4258C79.457 10.707 79.3555 11.0039 79.2773 11.3164C79.1992 11.6289 79.1406 11.9414 79.1016 12.2539C79.0703 12.5586 79.0547 12.8438 79.0547 13.1094ZM86.4844 16.0508C86.8359 16.0508 87.0117 16.2344 87.0117 16.6016C86.9258 16.8281 86.8164 16.9766 86.6836 17.0469C86.5508 17.125 86.4258 17.1523 86.3086 17.1289C86.1992 17.1133 86.0977 17.0586 86.0039 16.9648C85.918 16.8711 85.8711 16.7656 85.8633 16.6484C85.8555 16.5312 85.8984 16.418 85.9922 16.3086C86.0859 16.1914 86.25 16.1055 86.4844 16.0508ZM91.8164 13.332C91.8164 13.2383 91.8047 13.1406 91.7812 13.0391C91.7578 12.9375 91.7188 12.8438 91.6641 12.7578C91.6094 12.6719 91.5391 12.6016 91.4531 12.5469C91.375 12.4844 91.2734 12.4531 91.1484 12.4531C91.1484 12.4531 91.1406 12.457 91.125 12.4648C91.1172 12.4648 91.1055 12.4648 91.0898 12.4648C91.0664 12.4727 91.0508 12.4766 91.043 12.4766C91.0039 12.5 90.9297 12.5352 90.8203 12.582C90.7188 12.6289 90.5977 12.6875 90.457 12.7578C90.3242 12.8281 90.1797 12.9023 90.0234 12.9805C89.8672 13.0586 89.7188 13.1328 89.5781 13.2031C89.4453 13.2656 89.3281 13.3242 89.2266 13.3789C89.125 13.4336 89.0586 13.4648 89.0273 13.4727C89.0117 13.4805 88.9922 13.4883 88.9688 13.4961C88.9453 13.5039 88.9219 13.5078 88.8984 13.5078C88.7188 13.5078 88.5664 13.4258 88.4414 13.2617C88.3164 13.0898 88.2109 12.875 88.125 12.6172C88.0391 12.3516 87.9727 12.0625 87.9258 11.75C87.8789 11.4297 87.8398 11.1211 87.8086 10.8242C87.7852 10.5273 87.7695 10.2578 87.7617 10.0156C87.7539 9.76562 87.75 9.58203 87.75 9.46484C87.75 9.41016 87.75 9.32422 87.75 9.20703C87.7578 9.08984 87.7617 8.96484 87.7617 8.83203C87.7617 8.69141 87.7617 8.5625 87.7617 8.44531C87.7695 8.32812 87.7734 8.24609 87.7734 8.19922C87.9609 8.19141 88.2344 8.16016 88.5938 8.10547C88.9609 8.05078 89.3477 7.99609 89.7539 7.94141C90.168 7.87891 90.5703 7.82422 90.9609 7.77734C91.3516 7.73047 91.668 7.70703 91.9102 7.70703C92.1055 7.70703 92.2656 7.74609 92.3906 7.82422C92.5234 7.89453 92.5898 8.01953 92.5898 8.19922C92.5898 8.38672 92.5508 8.51172 92.4727 8.57422C92.3945 8.62891 92.25 8.67969 92.0391 8.72656C91.9609 8.73438 91.8359 8.75391 91.6641 8.78516C91.4922 8.81641 91.2969 8.85156 91.0781 8.89062C90.8672 8.92188 90.6445 8.95703 90.4102 8.99609C90.1758 9.02734 89.9492 9.05859 89.7305 9.08984C89.5195 9.12109 89.3281 9.14844 89.1562 9.17188C88.9844 9.19531 88.8555 9.21094 88.7695 9.21875C88.7695 9.24219 88.7656 9.27734 88.7578 9.32422C88.7578 9.36328 88.7578 9.41406 88.7578 9.47656C88.7578 9.53125 88.7539 9.58203 88.7461 9.62891C88.7461 9.66797 88.7461 9.69922 88.7461 9.72266C88.7461 9.78516 88.75 9.88672 88.7578 10.0273C88.7734 10.1602 88.793 10.3125 88.8164 10.4844C88.8398 10.6484 88.8672 10.8203 88.8984 11C88.9375 11.1797 88.9805 11.3438 89.0273 11.4922C89.0742 11.6406 89.125 11.7617 89.1797 11.8555C89.2344 11.9492 89.2969 11.9961 89.3672 11.9961C89.5234 11.9961 89.668 11.9688 89.8008 11.9141C89.9414 11.8594 90.0781 11.7969 90.2109 11.7266C90.3516 11.6562 90.4961 11.5938 90.6445 11.5391C90.793 11.4844 90.957 11.457 91.1367 11.457C91.4648 11.457 91.7383 11.5 91.957 11.5859C92.1758 11.6641 92.3477 11.7891 92.4727 11.9609C92.5977 12.125 92.6875 12.332 92.7422 12.582C92.7969 12.8242 92.8242 13.1094 92.8242 13.4375C92.8242 13.8047 92.7617 14.1953 92.6367 14.6094C92.5117 15.0156 92.332 15.3945 92.0977 15.7461C91.8711 16.0898 91.5898 16.3789 91.2539 16.6133C90.918 16.8398 90.5352 16.9531 90.1055 16.9531C90.1055 16.7031 90.1484 16.4766 90.2344 16.2734C90.3203 16.0703 90.4258 15.8789 90.5508 15.6992C90.6758 15.5195 90.8125 15.3438 90.9609 15.1719C91.1094 15 91.2461 14.8242 91.3711 14.6445C91.5039 14.457 91.6094 14.2578 91.6875 14.0469C91.7734 13.8359 91.8164 13.5977 91.8164 13.332ZM97.5938 13.332C97.5938 13.2383 97.582 13.1406 97.5586 13.0391C97.5352 12.9375 97.4961 12.8438 97.4414 12.7578C97.3867 12.6719 97.3164 12.6016 97.2305 12.5469C97.1523 12.4844 97.0508 12.4531 96.9258 12.4531C96.9258 12.4531 96.918 12.457 96.9023 12.4648C96.8945 12.4648 96.8828 12.4648 96.8672 12.4648C96.8438 12.4727 96.8281 12.4766 96.8203 12.4766C96.7812 12.5 96.707 12.5352 96.5977 12.582C96.4961 12.6289 96.375 12.6875 96.2344 12.7578C96.1016 12.8281 95.957 12.9023 95.8008 12.9805C95.6445 13.0586 95.4961 13.1328 95.3555 13.2031C95.2227 13.2656 95.1055 13.3242 95.0039 13.3789C94.9023 13.4336 94.8359 13.4648 94.8047 13.4727C94.7891 13.4805 94.7695 13.4883 94.7461 13.4961C94.7227 13.5039 94.6992 13.5078 94.6758 13.5078C94.4961 13.5078 94.3438 13.4258 94.2188 13.2617C94.0938 13.0898 93.9883 12.875 93.9023 12.6172C93.8164 12.3516 93.75 12.0625 93.7031 11.75C93.6562 11.4297 93.6172 11.1211 93.5859 10.8242C93.5625 10.5273 93.5469 10.2578 93.5391 10.0156C93.5312 9.76562 93.5273 9.58203 93.5273 9.46484C93.5273 9.41016 93.5273 9.32422 93.5273 9.20703C93.5352 9.08984 93.5391 8.96484 93.5391 8.83203C93.5391 8.69141 93.5391 8.5625 93.5391 8.44531C93.5469 8.32812 93.5508 8.24609 93.5508 8.19922C93.7383 8.19141 94.0117 8.16016 94.3711 8.10547C94.7383 8.05078 95.125 7.99609 95.5312 7.94141C95.9453 7.87891 96.3477 7.82422 96.7383 7.77734C97.1289 7.73047 97.4453 7.70703 97.6875 7.70703C97.8828 7.70703 98.043 7.74609 98.168 7.82422C98.3008 7.89453 98.3672 8.01953 98.3672 8.19922C98.3672 8.38672 98.3281 8.51172 98.25 8.57422C98.1719 8.62891 98.0273 8.67969 97.8164 8.72656C97.7383 8.73438 97.6133 8.75391 97.4414 8.78516C97.2695 8.81641 97.0742 8.85156 96.8555 8.89062C96.6445 8.92188 96.4219 8.95703 96.1875 8.99609C95.9531 9.02734 95.7266 9.05859 95.5078 9.08984C95.2969 9.12109 95.1055 9.14844 94.9336 9.17188C94.7617 9.19531 94.6328 9.21094 94.5469 9.21875C94.5469 9.24219 94.543 9.27734 94.5352 9.32422C94.5352 9.36328 94.5352 9.41406 94.5352 9.47656C94.5352 9.53125 94.5312 9.58203 94.5234 9.62891C94.5234 9.66797 94.5234 9.69922 94.5234 9.72266C94.5234 9.78516 94.5273 9.88672 94.5352 10.0273C94.5508 10.1602 94.5703 10.3125 94.5938 10.4844C94.6172 10.6484 94.6445 10.8203 94.6758 11C94.7148 11.1797 94.7578 11.3438 94.8047 11.4922C94.8516 11.6406 94.9023 11.7617 94.957 11.8555C95.0117 11.9492 95.0742 11.9961 95.1445 11.9961C95.3008 11.9961 95.4453 11.9688 95.5781 11.9141C95.7188 11.8594 95.8555 11.7969 95.9883 11.7266C96.1289 11.6562 96.2734 11.5938 96.4219 11.5391C96.5703 11.4844 96.7344 11.457 96.9141 11.457C97.2422 11.457 97.5156 11.5 97.7344 11.5859C97.9531 11.6641 98.125 11.7891 98.25 11.9609C98.375 12.125 98.4648 12.332 98.5195 12.582C98.5742 12.8242 98.6016 13.1094 98.6016 13.4375C98.6016 13.8047 98.5391 14.1953 98.4141 14.6094C98.2891 15.0156 98.1094 15.3945 97.875 15.7461C97.6484 16.0898 97.3672 16.3789 97.0312 16.6133C96.6953 16.8398 96.3125 16.9531 95.8828 16.9531C95.8828 16.7031 95.9258 16.4766 96.0117 16.2734C96.0977 16.0703 96.2031 15.8789 96.3281 15.6992C96.4531 15.5195 96.5898 15.3438 96.7383 15.1719C96.8867 15 97.0234 14.8242 97.1484 14.6445C97.2812 14.457 97.3867 14.2578 97.4648 14.0469C97.5508 13.8359 97.5938 13.5977 97.5938 13.332Z" fill="#FCFCFC"/>
<path d="M64.9657 34C64.6093 34 64.4309 33.5691 64.6828 33.3172L67.7172 30.2828C67.8734 30.1266 68.1266 30.1266 68.2828 30.2828L71.3172 33.3172C71.5691 33.5691 71.3907 34 71.0343 34H64.9657Z" fill="#A8E6A0"/>
<path d="M77.6 34.144C77.08 34.144 76.628 34.048 76.244 33.856C75.86 33.656 75.544 33.372 75.296 33.004C75.048 32.636 74.864 32.184 74.744 31.648C74.624 31.112 74.564 30.5 74.564 29.812C74.564 29.132 74.624 28.524 74.744 27.988C74.864 27.444 75.048 26.988 75.296 26.62C75.544 26.252 75.86 25.972 76.244 25.78C76.628 25.58 77.08 25.48 77.6 25.48C78.64 25.48 79.404 25.86 79.892 26.62C80.388 27.38 80.636 28.444 80.636 29.812C80.636 31.18 80.388 32.244 79.892 33.004C79.404 33.764 78.64 34.144 77.6 34.144ZM77.6 32.992C77.888 32.992 78.132 32.936 78.332 32.824C78.54 32.704 78.708 32.536 78.836 32.32C78.964 32.104 79.056 31.848 79.112 31.552C79.168 31.248 79.196 30.912 79.196 30.544V29.08C79.196 28.712 79.168 28.38 79.112 28.084C79.056 27.78 78.964 27.52 78.836 27.304C78.708 27.088 78.54 26.924 78.332 26.812C78.132 26.692 77.888 26.632 77.6 26.632C77.312 26.632 77.064 26.692 76.856 26.812C76.656 26.924 76.492 27.088 76.364 27.304C76.236 27.52 76.144 27.78 76.088 28.084C76.032 28.38 76.004 28.712 76.004 29.08V30.544C76.004 30.912 76.032 31.248 76.088 31.552C76.144 31.848 76.236 32.104 76.364 32.32C76.492 32.536 76.656 32.704 76.856 32.824C77.064 32.936 77.312 32.992 77.6 32.992ZM82.9353 34.144C82.6393 34.144 82.4193 34.068 82.2753 33.916C82.1313 33.756 82.0593 33.56 82.0593 33.328V33.148C82.0593 32.916 82.1313 32.724 82.2753 32.572C82.4193 32.412 82.6393 32.332 82.9353 32.332C83.2313 32.332 83.4513 32.412 83.5953 32.572C83.7393 32.724 83.8113 32.916 83.8113 33.148V33.328C83.8113 33.56 83.7393 33.756 83.5953 33.916C83.4513 34.068 83.2313 34.144 82.9353 34.144ZM88.2758 34.144C87.7558 34.144 87.3038 34.048 86.9198 33.856C86.5358 33.656 86.2198 33.372 85.9718 33.004C85.7238 32.636 85.5398 32.184 85.4198 31.648C85.2998 31.112 85.2398 30.5 85.2398 29.812C85.2398 29.132 85.2998 28.524 85.4198 27.988C85.5398 27.444 85.7238 26.988 85.9718 26.62C86.2198 26.252 86.5358 25.972 86.9198 25.78C87.3038 25.58 87.7558 25.48 88.2758 25.48C89.3158 25.48 90.0798 25.86 90.5678 26.62C91.0638 27.38 91.3118 28.444 91.3118 29.812C91.3118 31.18 91.0638 32.244 90.5678 33.004C90.0798 33.764 89.3158 34.144 88.2758 34.144ZM88.2758 32.992C88.5638 32.992 88.8078 32.936 89.0078 32.824C89.2158 32.704 89.3838 32.536 89.5118 32.32C89.6398 32.104 89.7318 31.848 89.7878 31.552C89.8438 31.248 89.8718 30.912 89.8718 30.544V29.08C89.8718 28.712 89.8438 28.38 89.7878 28.084C89.7318 27.78 89.6398 27.52 89.5118 27.304C89.3838 27.088 89.2158 26.924 89.0078 26.812C88.8078 26.692 88.5638 26.632 88.2758 26.632C87.9878 26.632 87.7398 26.692 87.5318 26.812C87.3318 26.924 87.1678 27.088 87.0398 27.304C86.9118 27.52 86.8198 27.78 86.7638 28.084C86.7078 28.38 86.6798 28.712 86.6798 29.08V30.544C86.6798 30.912 86.7078 31.248 86.7638 31.552C86.8198 31.848 86.9118 32.104 87.0398 32.32C87.1678 32.536 87.3318 32.704 87.5318 32.824C87.7398 32.936 87.9878 32.992 88.2758 32.992ZM92.9271 34V32.872H95.2791V26.608H95.1831L93.2391 28.684L92.4111 27.94L94.5471 25.624H96.6111V32.872H98.6511V34H92.9271Z" fill="#A8E6A0"/>
</svg>
