<svg width="13" height="16" viewBox="0 0 13 16" fill="none" xmlns="http://www.w3.org/2000/svg">
<path d="M7.84344 14.7714L7.26657 15.3857L7.84344 16L8.42031 15.3857L7.84344 14.7714ZM1.31594 0C1.09954 0 0.892 0.0915442 0.738982 0.254496C0.585964 0.417447 0.5 0.638456 0.5 0.868904C0.5 1.09935 0.585964 1.32036 0.738982 1.48331C0.892 1.64626 1.09954 1.73781 1.31594 1.73781V0ZM3.18688 11.0412L7.26657 15.3857L8.42031 14.1571L4.34062 9.81253L3.18688 11.0412ZM8.42031 15.3857L12.5 11.0412L11.3463 9.81253L7.26657 14.1571L8.42031 15.3857ZM8.65938 14.7714L8.65938 6.08233H7.0275L7.0275 14.7714H8.65938ZM2.94781 0H1.31594V1.73781H2.94781V0ZM8.65938 6.08233C8.65938 4.4692 8.05763 2.92213 6.9865 1.78147C5.91537 0.640816 4.46262 0 2.94781 0V1.73781C4.02981 1.73781 5.0675 2.19553 5.83259 3.01029C6.59768 3.82504 7.0275 4.93009 7.0275 6.08233H8.65938Z" fill="#FCFCFC"/>
<path d="M7.84344 14.7714L7.26657 15.3857L7.84344 16L8.42031 15.3857L7.84344 14.7714ZM1.31594 0C1.09954 0 0.892 0.0915442 0.738982 0.254496C0.585964 0.417447 0.5 0.638456 0.5 0.868904C0.5 1.09935 0.585964 1.32036 0.738982 1.48331C0.892 1.64626 1.09954 1.73781 1.31594 1.73781V0ZM3.18688 11.0412L7.26657 15.3857L8.42031 14.1571L4.34062 9.81253L3.18688 11.0412ZM8.42031 15.3857L12.5 11.0412L11.3463 9.81253L7.26657 14.1571L8.42031 15.3857ZM8.65938 14.7714L8.65938 6.08233H7.0275L7.0275 14.7714H8.65938ZM2.94781 0H1.31594V1.73781H2.94781V0ZM8.65938 6.08233C8.65938 4.4692 8.05763 2.92213 6.9865 1.78147C5.91537 0.640816 4.46262 0 2.94781 0V1.73781C4.02981 1.73781 5.0675 2.19553 5.83259 3.01029C6.59768 3.82504 7.0275 4.93009 7.0275 6.08233H8.65938Z" fill="#FCFCFC"/>
</svg>
