<svg width="18" height="18" viewBox="0 0 18 18" fill="none" xmlns="http://www.w3.org/2000/svg">
<path d="M4.20003 11V16.2C4.20003 16.4122 4.11575 16.6157 3.96572 16.7657C3.81569 16.9157 3.6122 17 3.40003 17H1.80001C1.58783 17 1.38435 16.9157 1.23432 16.7657C1.08429 16.6157 1 16.4122 1 16.2V11C1 10.7878 1.08429 10.5843 1.23432 10.4343C1.38435 10.2843 1.58783 10.2 1.80001 10.2H3.40003C3.6122 10.2 3.81569 10.2843 3.96572 10.4343C4.11575 10.5843 4.20003 10.7878 4.20003 11ZM4.20003 11H8.80008C9.0653 11 9.31966 11.1054 9.5072 11.2929C9.69474 11.4804 9.8001 11.7348 9.8001 12C9.8001 12.2652 9.69474 12.5196 9.5072 12.7071C9.31966 12.8946 9.0653 13 8.80008 13H7.00007" stroke="#FCFCFC" stroke-width="1.4" stroke-linecap="round" stroke-linejoin="round"/>
<path d="M8.20024 13H11.1539C11.8337 12.9999 12.4958 12.7833 13.0443 12.3816L15.1475 10.8416C15.3686 10.6705 15.6445 10.5856 15.9235 10.6028C16.2026 10.62 16.4659 10.7382 16.6643 10.9352C16.7765 11.0471 16.8642 11.1812 16.9218 11.3288C16.9794 11.4764 17.0058 11.6343 16.9992 11.7927C16.9925 11.951 16.9531 12.1062 16.8833 12.2485C16.8136 12.3908 16.715 12.517 16.5939 12.6192L13.0763 15.4816C12.5056 15.9462 11.7922 16.1999 11.0563 16.2H4.2002M14.6003 5C14.6003 6.06087 14.1789 7.07828 13.4287 7.82843C12.6786 8.57857 11.6611 9 10.6003 9C9.53939 9 8.52196 8.57857 7.77181 7.82843C7.02165 7.07828 6.60022 6.06087 6.60022 5C6.60022 3.93913 7.02165 2.92172 7.77181 2.17157C8.52196 1.42143 9.53939 1 10.6003 1C11.6611 1 12.6786 1.42143 13.4287 2.17157C14.1789 2.92172 14.6003 3.93913 14.6003 5Z" stroke="#FCFCFC" stroke-width="1.4" stroke-linecap="round" stroke-linejoin="round"/>
</svg>
