<svg width="20" height="20" viewBox="0 0 20 20" fill="none" xmlns="http://www.w3.org/2000/svg">
<path d="M11.8605 1.39535C13.6344 1.39535 14.8949 1.39721 15.8512 1.52558C16.786 1.65116 17.3256 1.88744 17.7191 2.28093C18.1126 2.67442 18.3488 3.21395 18.4744 4.14977C18.6028 5.10605 18.6047 6.36558 18.6047 8.13953C18.6047 8.32457 18.6782 8.50203 18.809 8.63286C18.9398 8.7637 19.1173 8.83721 19.3023 8.83721C19.4874 8.83721 19.6648 8.7637 19.7957 8.63286C19.9265 8.50203 20 8.32457 20 8.13953V8.08744C20 6.37767 20 5.02326 19.8577 3.96372C19.7107 2.87349 19.4019 1.9907 18.706 1.29395C18.0093 0.59814 17.1265 0.289302 16.0363 0.142326C14.9758 0 13.6223 0 11.9126 0H11.8605C11.6754 0 11.498 0.0735048 11.3671 0.204344C11.2363 0.335183 11.1628 0.51264 11.1628 0.697674C11.1628 0.882709 11.2363 1.06017 11.3671 1.191C11.498 1.32184 11.6754 1.39535 11.8605 1.39535ZM8.08744 0H8.13953C8.32457 0 8.50203 0.0735048 8.63286 0.204344C8.7637 0.335183 8.83721 0.51264 8.83721 0.697674C8.83721 0.882709 8.7637 1.06017 8.63286 1.191C8.50203 1.32184 8.32457 1.39535 8.13953 1.39535C6.36558 1.39535 5.10605 1.39721 4.14884 1.52558C3.21395 1.65116 2.67442 1.88744 2.28093 2.28093C1.88744 2.67442 1.65116 3.21395 1.52558 4.14884C1.39721 5.10605 1.39535 6.36558 1.39535 8.13953C1.39535 8.32457 1.32184 8.50203 1.191 8.63286C1.06017 8.7637 0.882709 8.83721 0.697674 8.83721C0.51264 8.83721 0.335183 8.7637 0.204344 8.63286C0.0735048 8.50203 0 8.32457 0 8.13953V8.08744C0 6.37767 0 5.02326 0.142326 3.96372C0.289302 2.87349 0.59814 1.9907 1.29395 1.29395C1.9907 0.59814 2.87349 0.289302 3.96372 0.142326C5.02419 0 6.37767 0 8.08744 0Z" fill="#FCFCFC"/>
<path d="M3.97754 3.97859C3.4873 4.46882 3.4873 5.25859 3.4873 6.83719C3.4873 7.88929 3.4873 8.4158 3.81382 8.74324C4.14126 9.06975 4.6687 9.06975 5.71986 9.06975H6.83614C7.88824 9.06975 8.41475 9.06975 8.74219 8.74324C9.0687 8.4158 9.0687 7.88836 9.0687 6.83719V5.72092C9.0687 4.66882 9.0687 4.14231 8.74219 3.81487C8.41475 3.48836 7.8873 3.48836 6.83614 3.48836C5.25754 3.48836 4.46777 3.48836 3.97754 3.97859ZM3.97754 16.0214C3.4873 15.5311 3.4873 14.7414 3.4873 13.1628C3.4873 12.1107 3.4873 11.5842 3.81382 11.2567C4.14126 10.9302 4.6687 10.9302 5.71986 10.9302H6.83614C7.88824 10.9302 8.41475 10.9302 8.74219 11.2567C9.0687 11.5842 9.0687 12.1107 9.0687 13.1628V14.2791C9.0687 15.3311 9.0687 15.8577 8.74219 16.1842C8.41475 16.5116 7.8873 16.5116 6.83614 16.5116C5.25754 16.5116 4.46777 16.5116 3.97754 16.0214ZM10.9292 5.72092C10.9292 4.66882 10.9292 4.14231 11.2557 3.81487C11.584 3.48836 12.1106 3.48836 13.1617 3.48836C14.7403 3.48836 15.5301 3.48836 16.0203 3.97859C16.5106 4.46882 16.5106 5.25859 16.5106 6.83719C16.5106 7.88929 16.5106 8.4158 16.1831 8.74324C15.8575 9.06975 15.3301 9.06975 14.278 9.06975H13.1617C12.1096 9.06975 11.5831 9.06975 11.2557 8.74324C10.9292 8.4158 10.9292 7.88836 10.9292 6.83719V5.72092ZM11.2566 16.1851C10.9292 15.8577 10.9292 15.3302 10.9292 14.2791V13.1628C10.9292 12.1107 10.9292 11.5842 11.2557 11.2567C11.584 10.9302 12.1106 10.9302 13.1617 10.9302H14.278C15.3301 10.9302 15.8566 10.9302 16.1831 11.2567C16.5106 11.5842 16.5106 12.1107 16.5106 13.1628C16.5106 14.7414 16.5106 15.5311 16.0203 16.0214C15.5301 16.5116 14.7403 16.5116 13.1617 16.5116C12.1096 16.5116 11.5831 16.5116 11.2557 16.1842" fill="#FCFCFC"/>
<path d="M19.3023 11.1628C19.4874 11.1628 19.6648 11.2363 19.7957 11.3671C19.9265 11.498 20 11.6754 20 11.8605V11.9125C20 13.6223 20 14.9767 19.8577 16.0363C19.7107 17.1265 19.4019 18.0093 18.706 18.706C18.0093 19.4018 17.1265 19.7107 16.0363 19.8577C14.9758 20 13.6223 20 11.9126 20H11.8605C11.6754 20 11.498 19.9265 11.3671 19.7956C11.2363 19.6648 11.1628 19.4874 11.1628 19.3023C11.1628 19.1173 11.2363 18.9398 11.3671 18.809C11.498 18.6781 11.6754 18.6046 11.8605 18.6046C13.6344 18.6046 14.8949 18.6028 15.8512 18.4744C16.786 18.3488 17.3256 18.1125 17.7191 17.7191C18.1126 17.3256 18.3488 16.786 18.4744 15.8502C18.6028 14.8949 18.6047 13.6344 18.6047 11.8605C18.6047 11.6754 18.6782 11.498 18.809 11.3671C18.9398 11.2363 19.1173 11.1628 19.3023 11.1628ZM1.39535 11.8605C1.39535 11.6754 1.32184 11.498 1.191 11.3671C1.06017 11.2363 0.882709 11.1628 0.697674 11.1628C0.51264 11.1628 0.335183 11.2363 0.204344 11.3671C0.0735048 11.498 0 11.6754 0 11.8605V11.9125C0 13.6223 0 14.9767 0.142326 16.0363C0.289302 17.1265 0.59814 18.0093 1.29395 18.706C1.9907 19.4018 2.87349 19.7107 3.96372 19.8577C5.02419 20 6.37767 20 8.08744 20H8.13953C8.32457 20 8.50203 19.9265 8.63286 19.7956C8.7637 19.6648 8.83721 19.4874 8.83721 19.3023C8.83721 19.1173 8.7637 18.9398 8.63286 18.809C8.50203 18.6781 8.32457 18.6046 8.13953 18.6046C6.36558 18.6046 5.10605 18.6028 4.14884 18.4744C3.21395 18.3488 2.67442 18.1125 2.28093 17.7191C1.88744 17.3256 1.65116 16.786 1.52558 15.8502C1.39721 14.8949 1.39535 13.6344 1.39535 11.8605Z" fill="#FCFCFC"/>
</svg>
