<svg width="13" height="12" viewBox="0 0 13 12" fill="none" xmlns="http://www.w3.org/2000/svg">
<rect x="0.5" width="12" height="12" rx="6" fill="#A8E6A0"/>
<path d="M8.375 4.8V4C8.375 2.88 7.55 2 6.5 2C5.45 2 4.625 2.88 4.625 4V4.8C3.9875 4.8 3.5 5.32 3.5 6V8.8C3.5 9.48 3.9875 10 4.625 10H8.375C9.0125 10 9.5 9.48 9.5 8.8V6C9.5 5.32 9.0125 4.8 8.375 4.8ZM5.375 4C5.375 3.32 5.8625 2.8 6.5 2.8C7.1375 2.8 7.625 3.32 7.625 4V4.8H5.375V4ZM6.9125 7.4L6.875 7.44V8C6.875 8.24 6.725 8.4 6.5 8.4C6.275 8.4 6.125 8.24 6.125 8V7.44C5.9 7.2 5.8625 6.84 6.0875 6.6C6.3125 6.36 6.65 6.32 6.875 6.56C7.1 6.76 7.1375 7.16 6.9125 7.4Z" fill="#28443F"/>
</svg>
