<svg width="40" height="56" viewBox="0 0 40 56" fill="none" xmlns="http://www.w3.org/2000/svg">
<path d="M27.4034 33.4993L29.4561 32.8023L31.904 30.2011L34.5279 25.1949L35.7014 21.8555L36.2698 17.8018L34.8704 11.6837L32.777 7.70457L30.7761 5.15839L27.7282 1.68353L24.0712 0L21.6348 0.38015L19.3167 0.816866L14.8686 1.44268L11.8236 3.2598L9.38595 5.06227L6.42475 7.8322L5.56413 9.9167L5.18164 13.436L4.58643 16.9239L5.4233 22.0476L6.06395 25.0405L8.53869 29.0901L11.2825 32.6177L12.2282 29.9919L11.6359 28.2271L9.18672 24.1829L7.36678 20.2172L7.44506 15.4455L9.31605 11.0458L11.0699 7.42628L15.1281 4.1177L18.0792 3.0692L19.2436 3.48519L24.2775 3.80212L27.7078 6.28024L30.1155 8.40184L31.9591 13.1678L32.6343 14.5945L31.881 20.6128L32.1064 23.8687L29.1723 28.3631L25.509 30.787L27.8282 34.8023L27.4034 33.4993Z" fill="#599DB0"/>
<path d="M16.4471 17.895L19.6754 16.5383L20.1632 17.6989L21.9412 17.8177L37.0287 28.1618L37.9061 30.3781L40 31.747L39.9284 33.7916L39.9011 35.7607L34.6971 51.7647L32.9647 53.9785L30.1792 56L10.4976 55.611L8.21357 55.423L6.96 54.8301L6.20669 52.377L0.579015 35.0217L0 33.538L0.501278 30.974L0.852802 29.4419L2.56422 28.3602L16.6384 18.1421L16.4471 17.895Z" fill="#A9B0A6"/>
<path d="M23.6049 33.9658L23.9477 36.0501L22.7029 37.5483L21.2248 37.9446L19.7921 38.0157L18.5868 38.0438L18.0518 37.2627L16.62 35.5395L16.8279 34.0199L16.0869 32.401L16.7475 32.4152L18.4647 31.6652L20.213 30.3844L21.6056 30.9124L22.7601 32.6106L22.8547 32.8125L23.5563 34.6084L23.6049 33.9658Z" fill="#28443F"/>
<path d="M17.9492 38.7497L19.6973 37.0405L20.8129 38.3504L23.3345 44.1101L22.6526 44.9127L17.2964 45.3316L18.032 38.1076L17.9492 38.7497Z" fill="#28443F"/>
<path d="M28.4866 34.2237C30.5627 35.4596 34.8861 31.8762 30.6621 28.2835M28.4866 34.2237V34.2237ZM32.529 30.0905C34.7509 29.6556 28.4534 23.727 27.2305 26.4584M28.4866 25.958C27.5698 26.1012 23.5756 25.7252 23.4541 29.3767M24.446 30.0905C25.0151 32.4185 23.5464 30.3473 24.0171 31.3662M23.5815 32.6351C23.6639 34.9062 21.3906 35.5923 19.3998 35.5818M20.0274 36.9142C17.5637 38.5662 21.8165 37.0758 19.2915 37.5682M20.0896 38.3713C20.18 38.2658 20.2424 38.6623 20.5563 38.8415M20.5916 38.837C19.7691 39.6237 19.2742 37.7874 21.3531 41M21.8991 38.9052C21.8837 38.5682 22.0782 38.371 22.5244 38.2001M22.4721 38.1645C23.588 41.3531 22.7439 38.0391 24.7146 37.7133M24.1639 38.068C24.9772 36.1498 26.2425 38.0399 23.338 37.9244M24.0915 36.7056C24.1521 36.6575 24.2299 36.6023 24.2943 36.5077M24.258 36.53C26.4902 38.9026 23.9018 35.7078 24.1282 38.6764M26.2319 36.53C27.8896 36.4792 27.8221 37.122 23.8166 34.5648M26.2319 35.1845C27.1784 33.4643 24.9541 32.5921 23.8055 32.0053M26.0125 34.3528C26.3326 34.2075 26.5061 33.9753 26.6372 33.787M26.702 33.743C26.7438 33.5216 25.9669 34.3256 28.6693 35.402M28.4878 34.2236C28.4873 34.2235 28.487 34.2238 28.4863 34.2237" stroke="#FCFCFC" stroke-width="1.5" stroke-linecap="round" stroke-linejoin="round"/>
<path d="M29.8954 30.0912C28.2495 29.1415 28.9249 31.948 28.1215 31.5261M29.8954 30.0912V30.0912ZM29.4812 31.1116C30.2214 29.7747 28.7975 29.298 28.5242 30.9526M28.4857 31.5326C28.0816 32.0701 30.3087 29.321 28.9164 32.9887M27.4901 31.1116C27.9471 32.2267 27.7651 27.9889 26.8955 31.6281M27.0759 30.0912C24.8863 28.6675 27.0844 30.5678 29.7398 29.4636M27.184 29.5385C25.5969 31.8448 25.525 29.8395 26.9135 29.6152M27.4899 29.0704C27.8429 29.546 29.6714 26.9468 29.8774 26.735M27.947 28.7581C27.1117 30.6585 26.5579 30.7198 27.6582 30.4895M28.4857 28.6491C28.4157 30.7112 26.7063 30.9054 28.7703 26.9709M29.0244 28.7581C28.7924 30.9451 27.2996 29.2141 31.158 30.6766M29.4815 29.0704C28.6527 30.3341 29.5069 29.192 30.0991 29.4741M29.7873 29.5385C31.9258 31.6031 27.8063 29.4992 28.7849 31.973" stroke="#FCFCFC" stroke-width="1.5" stroke-linecap="round"/>
</svg>
