<svg width="71" height="32" viewBox="0 0 71 32" fill="none" xmlns="http://www.w3.org/2000/svg">
<rect width="71" height="32" rx="16" fill="#F4A988"/>
<path d="M10.4727 18.1289C10.4727 18.0508 10.4531 17.8945 10.4141 17.6602C10.3828 17.418 10.3242 17.0977 10.2383 16.6992C9.74609 16.8477 9.35156 16.9102 9.05469 16.8867C8.76562 16.8555 8.5625 16.7812 8.44531 16.6641C8.32812 16.5469 8.29688 16.4102 8.35156 16.2539C8.40625 16.0977 8.52734 15.9688 8.71484 15.8672C8.91016 15.7578 9.16797 15.6992 9.48828 15.6914C9.81641 15.6758 10.1992 15.7461 10.6367 15.9023C10.668 15.8633 10.6914 15.7812 10.707 15.6562C10.7305 15.5312 10.7539 15.3867 10.7773 15.2227C10.8008 15.0586 10.8242 14.8867 10.8477 14.707C10.8789 14.5273 10.9023 14.3633 10.918 14.2148C10.9414 14.0664 10.9609 13.9414 10.9766 13.8398C10.9922 13.7305 11.0117 13.6758 11.0352 13.6758C11.082 13.6445 11.1562 13.6211 11.2578 13.6055C11.3594 13.5898 11.457 13.5781 11.5508 13.5703C11.6758 13.5547 11.8047 13.5469 11.9375 13.5469L12.0898 15.4688H12.9688C12.9688 15.4531 12.9727 15.3867 12.9805 15.2695C12.9883 15.1523 13 15.0117 13.0156 14.8477C13.0391 14.6758 13.0664 14.4922 13.0977 14.2969C13.1367 14.1016 13.1836 13.9258 13.2383 13.7695C13.293 13.6055 13.3555 13.4688 13.4258 13.3594C13.5039 13.25 13.5977 13.1953 13.707 13.1953C13.7383 13.1953 13.7852 13.1992 13.8477 13.207C13.9102 13.207 13.9688 13.2148 14.0234 13.2305C14.0781 13.2461 14.125 13.2734 14.1641 13.3125C14.2109 13.3438 14.2344 13.3945 14.2344 13.4648V15.2227C14.3203 15.2539 14.4336 15.2852 14.5742 15.3164C14.7227 15.3477 14.8828 15.3789 15.0547 15.4102C15.2344 15.4336 15.4141 15.4609 15.5938 15.4922C15.7734 15.5234 15.9375 15.5586 16.0859 15.5977C16.2344 15.6367 16.3555 15.6836 16.4492 15.7383C16.543 15.7852 16.5898 15.8398 16.5898 15.9023C16.5352 16.0664 16.4219 16.1875 16.25 16.2656C16.0859 16.3359 15.8984 16.3945 15.6875 16.4414C15.4844 16.4805 15.2773 16.5195 15.0664 16.5586C14.8633 16.5898 14.6953 16.6406 14.5625 16.7109C14.4375 16.7812 14.3633 16.8828 14.3398 17.0156C14.3242 17.1484 14.4062 17.3359 14.5859 17.5781C14.6719 17.5781 14.7812 17.5703 14.9141 17.5547C15.0469 17.5391 15.1836 17.5234 15.3242 17.5078C15.4648 17.4922 15.6055 17.4844 15.7461 17.4844C15.8867 17.4844 16.0117 17.5 16.1211 17.5312C16.2305 17.5625 16.3203 17.6172 16.3906 17.6953C16.4609 17.7734 16.4961 17.8828 16.4961 18.0234C16.4961 18.1484 16.418 18.25 16.2617 18.3281C16.1133 18.4062 15.9375 18.4727 15.7344 18.5273C15.5312 18.582 15.332 18.625 15.1367 18.6562C14.9492 18.6875 14.8125 18.7148 14.7266 18.7383C14.75 18.8789 14.7773 19.0508 14.8086 19.2539C14.8398 19.4492 14.8477 19.6406 14.832 19.8281C14.8242 20.0156 14.7773 20.1797 14.6914 20.3203C14.6055 20.4609 14.4531 20.5312 14.2344 20.5312C14.0703 20.4766 13.9492 20.3945 13.8711 20.2852C13.8008 20.168 13.7422 20.043 13.6953 19.9102C13.6562 19.7695 13.6211 19.6367 13.5898 19.5117C13.5586 19.3789 13.5039 19.2695 13.4258 19.1836C13.3477 19.0977 13.2305 19.0508 13.0742 19.043C12.918 19.0273 12.6992 19.0664 12.418 19.1602C12.418 19.3008 12.418 19.4648 12.418 19.6523C12.418 19.832 12.3984 20.0078 12.3594 20.1797C12.3281 20.3438 12.2617 20.4844 12.1602 20.6016C12.0586 20.7109 11.9102 20.7656 11.7148 20.7656C11.6445 20.7656 11.5625 20.707 11.4688 20.5898C11.3828 20.4727 11.2891 20.332 11.1875 20.168C11.0938 19.9961 10.9961 19.8281 10.8945 19.6641C10.793 19.5 10.6953 19.3672 10.6016 19.2656C10.1328 19.2188 9.76953 19.168 9.51172 19.1133C9.26172 19.0508 9.08984 18.9883 8.99609 18.9258C8.90234 18.8633 8.875 18.8008 8.91406 18.7383C8.95312 18.668 9.02344 18.6016 9.125 18.5391C9.38281 18.4062 9.83203 18.2695 10.4727 18.1289ZM11.9609 17.4727C11.9609 17.543 11.9805 17.5977 12.0195 17.6367C12.0586 17.6758 12.1055 17.707 12.1602 17.7305C12.2148 17.7461 12.2695 17.7578 12.3242 17.7656C12.3867 17.7656 12.4375 17.7656 12.4766 17.7656C12.5391 17.7656 12.6133 17.7617 12.6992 17.7539C12.7852 17.7383 12.8672 17.7188 12.9453 17.6953C13.0312 17.6719 13.1016 17.6367 13.1562 17.5898C13.2188 17.5352 13.25 17.4648 13.25 17.3789C13.25 17.207 13.207 17.0508 13.1211 16.9102C13.043 16.7695 12.918 16.6992 12.7461 16.6992C12.6523 16.6992 12.5586 16.7227 12.4648 16.7695C12.3711 16.8086 12.2852 16.8672 12.207 16.9453C12.1367 17.0156 12.0781 17.0977 12.0312 17.1914C11.9844 17.2852 11.9609 17.3789 11.9609 17.4727ZM18.2422 20.4961C18.2812 20.3086 18.3789 20.1562 18.5352 20.0391C18.6992 19.9141 18.8828 19.8008 19.0859 19.6992C19.2969 19.5977 19.5156 19.5039 19.7422 19.418C19.9688 19.3242 20.1758 19.2266 20.3633 19.125C20.5586 19.0234 20.7188 18.9062 20.8438 18.7734C20.9688 18.6328 21.0312 18.4648 21.0312 18.2695C21.0312 18.0195 20.9648 17.8125 20.832 17.6484C20.707 17.4844 20.5352 17.3438 20.3164 17.2266C20.1055 17.1094 19.8633 17.0117 19.5898 16.9336C19.3164 16.8555 19.0352 16.7773 18.7461 16.6992C18.4648 16.6133 18.1875 16.5234 17.9141 16.4297C17.6406 16.3281 17.3945 16.2031 17.1758 16.0547C16.9648 15.9062 16.793 15.7266 16.6602 15.5156C16.5352 15.3047 16.4727 15.043 16.4727 14.7305C16.4727 14.4727 16.5234 14.2305 16.625 14.0039C16.7344 13.7695 16.875 13.5508 17.0469 13.3477C17.2266 13.1367 17.4297 12.9453 17.6562 12.7734C17.8906 12.6016 18.1328 12.457 18.3828 12.3398C18.6406 12.2227 18.8984 12.1328 19.1562 12.0703C19.4141 12 19.6523 11.9648 19.8711 11.9648H20C20.0703 11.9883 20.1641 12.0273 20.2812 12.082C20.3984 12.1367 20.5117 12.1914 20.6211 12.2461C20.7305 12.293 20.8242 12.3398 20.9023 12.3867C20.9805 12.4258 21.0195 12.4492 21.0195 12.457V12.7266C20.8711 12.7422 20.6797 12.7734 20.4453 12.8203C20.2109 12.8594 19.9648 12.9141 19.707 12.9844C19.4492 13.0547 19.1875 13.1445 18.9219 13.2539C18.6562 13.3555 18.418 13.4766 18.207 13.6172C17.9961 13.7578 17.8242 13.9219 17.6914 14.1094C17.5586 14.2891 17.4922 14.4961 17.4922 14.7305C17.4922 15.0664 17.6094 15.332 17.8438 15.5273C18.0781 15.7148 18.3711 15.8711 18.7227 15.9961C19.0742 16.1211 19.457 16.2344 19.8711 16.3359C20.293 16.4297 20.6797 16.5469 21.0312 16.6875C21.3828 16.8203 21.6758 17 21.9102 17.2266C22.1445 17.4453 22.2617 17.7422 22.2617 18.1172C22.2617 18.3203 22.1992 18.5352 22.0742 18.7617C21.957 18.9805 21.7969 19.1992 21.5938 19.418C21.3984 19.6289 21.1758 19.832 20.9258 20.0273C20.6758 20.2227 20.418 20.3945 20.1523 20.543C19.8945 20.6836 19.6406 20.8008 19.3906 20.8945C19.1406 20.9805 18.918 21.0234 18.7227 21.0234C18.6602 21.0234 18.5938 21.0156 18.5234 21C18.4531 20.9844 18.3906 20.9609 18.3359 20.9297C18.2891 20.8906 18.25 20.8359 18.2188 20.7656C18.1953 20.6953 18.2031 20.6055 18.2422 20.4961ZM22.7422 17.7422C22.7422 17.3203 22.793 16.8984 22.8945 16.4766C22.9961 16.0547 23.1562 15.6758 23.375 15.3398C23.6016 15.0039 23.8906 14.7305 24.2422 14.5195C24.6016 14.3086 25.0352 14.2031 25.543 14.2031C25.832 14.2031 26.0859 14.2578 26.3047 14.3672C26.5234 14.4688 26.707 14.6055 26.8555 14.7773C27.0039 14.9492 27.1133 15.1523 27.1836 15.3867C27.2617 15.6133 27.3008 15.8516 27.3008 16.1016C27.3008 16.5 27.207 16.8867 27.0195 17.2617C26.8398 17.6367 26.5938 17.9688 26.2812 18.2578C25.9766 18.5391 25.625 18.7539 25.2266 18.9023C24.8281 19.043 24.4219 19.0742 24.0078 18.9961C24.0156 19.2227 24.0898 19.4062 24.2305 19.5469C24.3789 19.6797 24.5547 19.7812 24.7578 19.8516C24.9609 19.9219 25.1719 19.9688 25.3906 19.9922C25.6094 20.0078 25.8047 20.0156 25.9766 20.0156C26.1562 20.0156 26.3242 20 26.4805 19.9688C26.6367 19.9375 26.793 19.9023 26.9492 19.8633C27.1055 19.8242 27.2617 19.7891 27.418 19.7578C27.582 19.7266 27.7539 19.7109 27.9336 19.7109C28.0039 19.7109 28.0742 19.7148 28.1445 19.7227C28.2148 19.7305 28.2812 19.75 28.3438 19.7812C28.4062 19.8047 28.457 19.8477 28.4961 19.9102C28.5352 19.9648 28.5547 20.0352 28.5547 20.1211C28.5547 20.2695 28.5 20.3945 28.3906 20.4961C28.2812 20.5898 28.1406 20.6719 27.9688 20.7422C27.8047 20.8125 27.6211 20.8672 27.418 20.9062C27.2148 20.9375 27.0156 20.9648 26.8203 20.9883C26.6328 21.0039 26.457 21.0117 26.293 21.0117C26.1367 21.0195 26.0195 21.0234 25.9414 21.0234C25.4414 21.0234 24.9922 20.9453 24.5938 20.7891C24.1953 20.625 23.8594 20.4023 23.5859 20.1211C23.3125 19.832 23.1016 19.4883 22.9531 19.0898C22.8125 18.6836 22.7422 18.2344 22.7422 17.7422ZM23.9844 16.9805C23.9844 17.2539 24.0195 17.4531 24.0898 17.5781C24.168 17.7031 24.3516 17.7656 24.6406 17.7656C24.8438 17.7656 25.043 17.7305 25.2383 17.6602C25.4336 17.582 25.6094 17.4766 25.7656 17.3438C25.9297 17.2109 26.0586 17.0547 26.1523 16.875C26.2461 16.6953 26.293 16.5 26.293 16.2891C26.293 16.1719 26.2812 16.0508 26.2578 15.9258C26.2422 15.8008 26.2031 15.6875 26.1406 15.5859C26.0781 15.4766 25.9961 15.3906 25.8945 15.3281C25.8008 15.2578 25.6758 15.2227 25.5195 15.2227C25.2852 15.2227 25.0703 15.2773 24.875 15.3867C24.6875 15.4883 24.5273 15.625 24.3945 15.7969C24.2617 15.9609 24.1602 16.1484 24.0898 16.3594C24.0195 16.5625 23.9844 16.7695 23.9844 16.9805ZM29.0469 17.4727C29.0469 17.1445 29.1172 16.8008 29.2578 16.4414C29.4062 16.082 29.6016 15.7578 29.8438 15.4688C30.0859 15.1719 30.3633 14.9258 30.6758 14.7305C30.9961 14.5352 31.332 14.4375 31.6836 14.4375C31.8633 14.4375 32.043 14.4688 32.2227 14.5312C32.4023 14.5938 32.5625 14.6836 32.7031 14.8008C32.8516 14.918 32.9688 15.0586 33.0547 15.2227C33.1484 15.3867 33.1953 15.5703 33.1953 15.7734C33.0547 15.7734 32.9258 15.7578 32.8086 15.7266C32.6992 15.6953 32.5898 15.6602 32.4805 15.6211C32.3711 15.5742 32.2617 15.5352 32.1523 15.5039C32.0508 15.4727 31.9375 15.457 31.8125 15.457C31.4922 15.457 31.2305 15.5391 31.0273 15.7031C30.832 15.8594 30.6758 16.0586 30.5586 16.3008C30.4414 16.543 30.3594 16.8047 30.3125 17.0859C30.2734 17.3594 30.2539 17.6172 30.2539 17.8594C30.2539 17.8984 30.2539 17.9727 30.2539 18.082C30.2617 18.1914 30.2656 18.3086 30.2656 18.4336C30.2734 18.5508 30.2773 18.6641 30.2773 18.7734C30.2852 18.8828 30.293 18.957 30.3008 18.9961C30.3867 19.1836 30.4688 19.3281 30.5469 19.4297C30.6328 19.5312 30.7227 19.6094 30.8164 19.6641C30.9102 19.7109 31.0117 19.7422 31.1211 19.7578C31.2305 19.7656 31.3594 19.7695 31.5078 19.7695C31.7109 19.7695 31.8867 19.7383 32.0352 19.6758C32.1914 19.6133 32.3359 19.5391 32.4688 19.4531C32.6016 19.3672 32.7266 19.2734 32.8438 19.1719C32.9609 19.0625 33.082 18.9648 33.207 18.8789C33.3398 18.7852 33.4805 18.7109 33.6289 18.6562C33.7852 18.5938 33.9609 18.5625 34.1562 18.5625C34.1562 18.9453 34.0859 19.2852 33.9453 19.582C33.8125 19.8789 33.6211 20.1328 33.3711 20.3438C33.1289 20.5547 32.8398 20.7188 32.5039 20.8359C32.1758 20.9453 31.8164 21 31.4258 21C31.0586 21 30.7266 20.875 30.4297 20.625C30.1406 20.375 29.8906 20.0703 29.6797 19.7109C29.4766 19.3438 29.3203 18.957 29.2109 18.5508C29.1016 18.1445 29.0469 17.7852 29.0469 17.4727ZM34.8125 16.2188C34.8125 16.1719 34.8125 16.0898 34.8125 15.9727C34.8203 15.8477 34.8242 15.7188 34.8242 15.5859C34.8242 15.4531 34.8242 15.332 34.8242 15.2227C34.832 15.1055 34.8359 15.0234 34.8359 14.9766C34.8906 14.8828 34.9531 14.793 35.0234 14.707C35.1016 14.6133 35.1797 14.5508 35.2578 14.5195C35.3438 14.4805 35.4336 14.4727 35.5273 14.4961C35.6289 14.5195 35.7305 14.5977 35.832 14.7305V14.8242V14.9766C35.8242 15.0156 35.8086 15.1094 35.7852 15.2578C35.7617 15.3984 35.7344 15.5547 35.7031 15.7266C35.6719 15.8984 35.6406 16.0586 35.6094 16.207C35.5859 16.3477 35.5742 16.4375 35.5742 16.4766C35.5742 16.625 35.5898 16.8125 35.6211 17.0391C35.6523 17.2578 35.6953 17.4883 35.75 17.7305C35.8125 17.9727 35.8867 18.2148 35.9727 18.457C36.0664 18.6992 36.1758 18.918 36.3008 19.1133C36.4258 19.3008 36.5625 19.457 36.7109 19.582C36.8672 19.707 37.0469 19.7695 37.25 19.7695C37.5 19.7695 37.7188 19.7031 37.9062 19.5703C38.1016 19.4375 38.2695 19.2656 38.4102 19.0547C38.5508 18.8438 38.6641 18.6055 38.75 18.3398C38.8438 18.0742 38.918 17.8086 38.9727 17.543C39.0273 17.2695 39.0664 17.0078 39.0898 16.7578C39.1133 16.5078 39.125 16.2891 39.125 16.1016C39.125 15.9141 39.1094 15.7383 39.0781 15.5742C39.0547 15.4023 39.0234 15.2344 38.9844 15.0703C38.9453 14.9062 38.9102 14.7461 38.8789 14.5898C38.8555 14.4258 38.8438 14.2617 38.8438 14.0977C38.8438 13.9492 38.8945 13.8438 38.9961 13.7812C39.1055 13.7188 39.2266 13.6875 39.3594 13.6875C39.5234 13.6875 39.6562 13.7383 39.7578 13.8398C39.8594 13.9336 39.9375 14.0547 39.9922 14.2031C40.0547 14.3516 40.0938 14.5234 40.1094 14.7188C40.1328 14.9062 40.1445 15.0938 40.1445 15.2812C40.1445 15.4688 40.1406 15.6484 40.1328 15.8203C40.125 15.9844 40.1211 16.1172 40.1211 16.2188C40.1211 16.4844 40.1016 16.7852 40.0625 17.1211C40.0234 17.457 39.9531 17.8047 39.8516 18.1641C39.7578 18.5156 39.6367 18.8633 39.4883 19.207C39.3477 19.5508 39.1719 19.8594 38.9609 20.1328C38.7578 20.3984 38.5195 20.6133 38.2461 20.7773C37.9805 20.9414 37.6797 21.0234 37.3438 21.0234C36.9922 21.0234 36.6836 20.9414 36.418 20.7773C36.1523 20.6055 35.9258 20.3828 35.7383 20.1094C35.5586 19.8281 35.4062 19.5117 35.2812 19.1602C35.1562 18.8086 35.0586 18.457 34.9883 18.1055C34.9258 17.7539 34.8789 17.4141 34.8477 17.0859C34.8242 16.75 34.8125 16.4609 34.8125 16.2188ZM40.8359 16.0781C40.8359 16.0078 40.8398 15.9375 40.8477 15.8672C40.8555 15.7891 40.8711 15.7227 40.8945 15.668C40.918 15.6055 40.9531 15.5547 41 15.5156C41.0547 15.4766 41.1289 15.457 41.2227 15.457C41.3008 15.457 41.3867 15.5195 41.4805 15.6445C41.582 15.7617 41.6836 15.9141 41.7852 16.1016C41.8867 16.2812 41.9844 16.4805 42.0781 16.6992C42.1797 16.918 42.2656 17.1211 42.3359 17.3086C42.4141 17.4883 42.4766 17.6445 42.5234 17.7773C42.5703 17.9102 42.5977 17.9805 42.6055 17.9883C42.707 17.7148 42.8203 17.418 42.9453 17.0977C43.0703 16.7773 43.2227 16.4805 43.4023 16.207C43.5898 15.9258 43.8086 15.6914 44.0586 15.5039C44.3164 15.3164 44.6289 15.2227 44.9961 15.2227C45.1836 15.2227 45.3594 15.2539 45.5234 15.3164C45.6953 15.3711 45.8438 15.457 45.9688 15.5742C46.1016 15.6836 46.207 15.8164 46.2852 15.9727C46.3633 16.1289 46.4023 16.3086 46.4023 16.5117C46.4023 16.6836 46.332 16.8047 46.1914 16.875C46.0586 16.9453 45.9062 16.9805 45.7344 16.9805H45.6172L45.1133 16.4766C45.0977 16.4766 45.0859 16.4727 45.0781 16.4648C45.0625 16.4648 45.0469 16.4648 45.0312 16.4648C45.0234 16.457 45.0117 16.4531 44.9961 16.4531C44.7227 16.4531 44.5078 16.5312 44.3516 16.6875C44.2031 16.8359 44.0898 17.0234 44.0117 17.25C43.9336 17.4688 43.8828 17.7031 43.8594 17.9531C43.8438 18.1953 43.8359 18.418 43.8359 18.6211C43.8359 18.7773 43.8516 18.9375 43.8828 19.1016C43.9141 19.2578 43.9492 19.4141 43.9883 19.5703C44.0273 19.7188 44.0625 19.875 44.0938 20.0391C44.125 20.1953 44.1406 20.3594 44.1406 20.5312C44.1406 20.8594 43.9648 21.0234 43.6133 21.0234C43.418 21.0234 43.2148 20.9219 43.0039 20.7188C42.793 20.5078 42.582 20.2422 42.3711 19.9219C42.168 19.6016 41.9727 19.25 41.7852 18.8672C41.5977 18.4766 41.4336 18.0977 41.293 17.7305C41.1523 17.3633 41.0391 17.0312 40.9531 16.7344C40.875 16.4375 40.8359 16.2188 40.8359 16.0781ZM47.3164 16.6055C47.3164 16.5586 47.3164 16.4844 47.3164 16.3828C47.3242 16.2734 47.3281 16.1602 47.3281 16.043C47.3359 15.9258 47.3398 15.8125 47.3398 15.7031C47.3477 15.5938 47.3516 15.5156 47.3516 15.4688C47.4375 15.3438 47.5469 15.2422 47.6797 15.1641C47.8203 15.0859 47.9609 15.0234 48.1016 14.9766C48.125 15.3984 48.1914 15.8477 48.3008 16.3242C48.4102 16.8008 48.5273 17.2812 48.6523 17.7656C48.7773 18.2422 48.8867 18.7148 48.9805 19.1836C49.082 19.6523 49.1328 20.0898 49.1328 20.4961C49.1328 20.8477 48.9531 21.0234 48.5938 21.0234C48.375 21.0234 48.1914 20.9336 48.043 20.7539C47.8945 20.5742 47.7734 20.3477 47.6797 20.0742C47.5938 19.793 47.5234 19.4844 47.4688 19.1484C47.4141 18.8047 47.375 18.4688 47.3516 18.1406C47.3359 17.8125 47.3242 17.5117 47.3164 17.2383C47.3164 16.9648 47.3164 16.7539 47.3164 16.6055ZM47.4805 12.2109C47.6289 12.2734 47.7539 12.375 47.8555 12.5156C47.957 12.6562 48 12.7852 47.9844 12.9023C47.9766 13.0117 47.8906 13.0898 47.7266 13.1367C47.5625 13.1758 47.2891 13.1289 46.9062 12.9961C46.9062 12.7852 46.9453 12.6016 47.0234 12.4453C47.1094 12.2891 47.2617 12.2109 47.4805 12.2109ZM49.332 15.0938C49.332 15.0703 49.3359 15.0508 49.3438 15.0352C49.3438 15.0195 49.3477 15 49.3555 14.9766C49.3867 14.9375 49.4336 14.8867 49.4961 14.8242C49.5586 14.7617 49.5977 14.7305 49.6133 14.7305H51.9688C51.9688 14.6445 51.957 14.5078 51.9336 14.3203C51.9102 14.1328 51.8867 13.9258 51.8633 13.6992C51.8477 13.4727 51.8438 13.2383 51.8516 12.9961C51.8594 12.7461 51.8906 12.5234 51.9453 12.3281C52.0078 12.125 52.1016 11.9609 52.2266 11.8359C52.3594 11.7031 52.543 11.6367 52.7773 11.6367C52.7773 12.4258 52.832 13.0586 52.9414 13.5352C53.0508 14.0117 53.1953 14.3789 53.375 14.6367C53.5625 14.8945 53.7734 15.0625 54.0078 15.1406C54.2422 15.2188 54.4805 15.2539 54.7227 15.2461C54.9727 15.2305 55.2148 15.1914 55.4492 15.1289C55.6836 15.0664 55.8906 15.0234 56.0703 15C56.2578 14.9766 56.4062 14.9961 56.5156 15.0586C56.625 15.1133 56.6797 15.25 56.6797 15.4688C56.6797 15.6328 56.6406 15.75 56.5625 15.8203C56.4922 15.8906 56.3516 15.9453 56.1406 15.9844C56.0781 15.9922 55.9727 16.0078 55.8242 16.0312C55.6836 16.0469 55.5234 16.0625 55.3438 16.0781C55.1641 16.0938 54.9727 16.1133 54.7695 16.1367C54.5664 16.1523 54.375 16.168 54.1953 16.1836C54.0156 16.1992 53.8516 16.2109 53.7031 16.2188C53.5547 16.2188 53.4453 16.2188 53.375 16.2188C53.375 16.2578 53.3711 16.3242 53.3633 16.418C53.3555 16.5117 53.3516 16.5742 53.3516 16.6055C53.3516 16.9492 53.4062 17.2852 53.5156 17.6133C53.625 17.9336 53.7422 18.2539 53.8672 18.5742C54 18.8945 54.1211 19.2148 54.2305 19.5352C54.3398 19.8555 54.3945 20.1875 54.3945 20.5312C54.3945 20.5938 54.3867 20.6602 54.3711 20.7305C54.3633 20.793 54.3398 20.8516 54.3008 20.9062C54.2695 20.9531 54.2188 20.9883 54.1484 21.0117C54.0859 21.043 53.9961 21.0391 53.8789 21C53.582 20.9219 53.3594 20.7539 53.2109 20.4961C53.0703 20.2383 52.9648 19.9336 52.8945 19.582C52.8242 19.2227 52.7773 18.8438 52.7539 18.4453C52.7305 18.0469 52.6914 17.6758 52.6367 17.332C52.5898 16.9805 52.5117 16.6836 52.4023 16.4414C52.293 16.1914 52.1172 16.0391 51.875 15.9844L49.6133 15.4688C49.582 15.4688 49.5352 15.4375 49.4727 15.375C49.4102 15.3047 49.3711 15.2539 49.3555 15.2227C49.3477 15.207 49.3438 15.1875 49.3438 15.1641C49.3359 15.1484 49.332 15.125 49.332 15.0938ZM56.9258 14.9414C56.9258 14.8711 56.9258 14.8008 56.9258 14.7305C56.9336 14.6523 56.9492 14.582 56.9727 14.5195C57.0039 14.4492 57.043 14.3984 57.0898 14.3672C57.1445 14.3281 57.2227 14.3086 57.3242 14.3086C57.332 14.3086 57.3398 14.3086 57.3477 14.3086C57.3633 14.3086 57.3789 14.3086 57.3945 14.3086C57.418 14.3164 57.4375 14.3203 57.4531 14.3203C57.6016 14.5234 57.7305 14.7852 57.8398 15.1055C57.9492 15.418 58.0547 15.7539 58.1562 16.1133C58.2578 16.4648 58.3672 16.8242 58.4844 17.1914C58.6016 17.5508 58.7539 17.875 58.9414 18.1641C59.1289 18.4531 59.3594 18.6836 59.6328 18.8555C59.9062 19.0273 60.2461 19.1016 60.6523 19.0781C60.832 19.0781 60.9492 18.9805 61.0039 18.7852C61.0586 18.5898 61.0859 18.3398 61.0859 18.0352C61.0938 17.7305 61.0859 17.3945 61.0625 17.0273C61.0469 16.6602 61.0469 16.3125 61.0625 15.9844C61.0859 15.6484 61.1445 15.3555 61.2383 15.1055C61.3398 14.8555 61.5117 14.6875 61.7539 14.6016C61.8555 14.8047 61.9375 15.125 62 15.5625C62.0703 15.9922 62.1211 16.4922 62.1523 17.0625C62.1836 17.625 62.1992 18.2383 62.1992 18.9023C62.1992 19.5586 62.1836 20.2148 62.1523 20.8711C62.1211 21.5195 62.0742 22.1445 62.0117 22.7461C61.9492 23.3477 61.8789 23.875 61.8008 24.3281C61.7227 24.7812 61.6289 25.1367 61.5195 25.3945C61.418 25.6602 61.3086 25.7734 61.1914 25.7344C61.0273 25.5781 60.8984 25.375 60.8047 25.125C60.7188 24.875 60.6562 24.5977 60.6172 24.293C60.5859 23.9883 60.5742 23.6641 60.582 23.3203C60.5898 22.9844 60.6016 22.6445 60.6172 22.3008C60.6406 21.957 60.6641 21.6211 60.6875 21.293C60.7188 20.9648 60.7344 20.6641 60.7344 20.3906C60.4531 20.4141 60.1641 20.3711 59.8672 20.2617C59.5781 20.1523 59.293 19.9844 59.0117 19.7578C58.7305 19.5234 58.4609 19.2422 58.2031 18.9141C57.9531 18.5859 57.7305 18.2148 57.5352 17.8008C57.3477 17.3867 57.1992 16.9414 57.0898 16.4648C56.9805 15.9805 56.9258 15.4727 56.9258 14.9414Z" fill="white"/>
</svg>
