<svg width="23" height="22" viewBox="0 0 23 22" fill="none" xmlns="http://www.w3.org/2000/svg">
<path d="M19.8529 7.89926L19.4868 7.69368L19.3738 7.62919C19.101 7.46431 18.8713 7.23631 18.7035 6.9641C18.6855 6.93689 18.6695 6.90767 18.6375 6.85124C18.4218 6.5025 18.3171 6.09569 18.3374 5.68532L18.3434 5.25704C18.3554 4.5718 18.3614 4.22716 18.2653 3.9188C18.1804 3.64444 18.0381 3.39156 17.8482 3.17713C17.6341 2.93528 17.337 2.76195 16.7418 2.41731L16.2476 2.13012C15.6554 1.78649 15.3583 1.61417 15.0432 1.54867C14.7647 1.49064 14.4773 1.49304 14.1998 1.55572C13.8867 1.62626 13.5936 1.80362 13.0084 2.15632L13.0054 2.15833L12.6513 2.37096C12.5953 2.40522 12.5662 2.42134 12.5382 2.43747C12.2601 2.59366 11.95 2.67932 11.6309 2.6894C11.5989 2.69141 11.5659 2.69141 11.5009 2.69141L11.3708 2.6904C11.0516 2.68016 10.7394 2.59309 10.4605 2.43646C10.4325 2.42134 10.4055 2.40421 10.3494 2.36995L9.9923 2.1543C9.40308 1.79757 9.10797 1.62022 8.79286 1.54867C8.51441 1.48588 8.22585 1.48382 7.94655 1.54262C7.63043 1.60913 7.33432 1.78246 6.7411 2.12911L6.7381 2.13012L6.24992 2.4153L6.24492 2.41933C5.6567 2.76195 5.36159 2.93528 5.14952 3.17612C4.96052 3.39015 4.81899 3.64231 4.73436 3.91578C4.63933 4.22515 4.64433 4.56978 4.65634 5.25906L4.66334 5.68632C4.66334 5.75183 4.66634 5.78407 4.66534 5.81531C4.66016 6.18143 4.55606 6.53922 4.36423 6.85023C4.33122 6.90666 4.31621 6.93488 4.2992 6.96108C4.13053 7.23535 3.89896 7.46482 3.62396 7.6302L3.51191 7.69368L3.15078 7.89522C2.54856 8.23079 2.24745 8.39908 2.02937 8.63891C1.83548 8.85037 1.6888 9.1012 1.59921 9.37454C1.49917 9.68391 1.49917 10.0296 1.50017 10.7229L1.50217 11.2902C1.50317 11.9785 1.50518 12.3221 1.60621 12.6294C1.69543 12.9011 1.84104 13.1505 2.03337 13.361C2.25145 13.5989 2.54956 13.7661 3.14678 14.1007L3.50491 14.3012C3.56593 14.3355 3.59695 14.3516 3.62596 14.3698C3.93945 14.5591 4.19547 14.8313 4.36623 15.1568L4.43325 15.2777C4.60223 15.5991 4.68173 15.9605 4.66334 16.3237L4.65634 16.7339C4.64433 17.4251 4.63933 17.7718 4.73536 18.0812C4.8204 18.3553 4.96245 18.6082 5.15252 18.8228C5.3666 19.0647 5.66471 19.237 6.25892 19.5826L6.75311 19.8698C7.34632 20.2135 7.64243 20.3858 7.95755 20.4513C8.23596 20.5093 8.52345 20.5069 8.80086 20.4442C9.11498 20.3737 9.40808 20.1963 9.9953 19.8416L10.3494 19.628L10.4625 19.5615C10.7406 19.4063 11.0507 19.3196 11.3698 19.3096L11.4999 19.3085H11.6299C11.948 19.3186 12.2601 19.4063 12.5402 19.5625L12.6323 19.6179L13.0084 19.8457C13.5986 20.2024 13.8927 20.3797 14.2078 20.4503C14.4862 20.5137 14.7747 20.5165 15.0542 20.4583C15.3693 20.3918 15.6674 20.2175 16.2606 19.8709L16.7558 19.5816C17.344 19.237 17.6391 19.0647 17.8512 18.8238C18.0413 18.6092 18.1813 18.3573 18.2663 18.0842C18.3614 17.7768 18.3564 17.4352 18.3444 16.756L18.3364 16.3126V16.1846C18.3411 15.8183 18.4448 15.4601 18.6365 15.1487L18.7015 15.0379C18.8702 14.7636 19.1017 14.5341 19.3768 14.3688L19.4868 14.3073L19.4888 14.3063L19.8499 14.1047C20.4521 13.7682 20.7533 13.6009 20.9723 13.361C21.1664 13.1494 21.3125 12.8975 21.4015 12.6254C21.5015 12.3181 21.5015 11.9734 21.4995 11.2882L21.4975 10.7098C21.4965 10.0215 21.4955 9.67686 21.3945 9.3695C21.3049 9.09813 21.1589 8.84908 20.9663 8.63891C20.7493 8.4011 20.4511 8.23382 19.8549 7.90026L19.8529 7.89926Z" stroke="#FCFCFC" stroke-width="2" stroke-linecap="round" stroke-linejoin="round"/>
<path d="M7.49805 11.0001C7.49805 12.0691 7.91963 13.0944 8.67005 13.8503C9.42047 14.6062 10.4383 15.0309 11.4995 15.0309C12.5608 15.0309 13.5786 14.6062 14.329 13.8503C15.0794 13.0944 15.501 12.0691 15.501 11.0001C15.501 9.93103 15.0794 8.90577 14.329 8.14984C13.5786 7.39391 12.5608 6.96924 11.4995 6.96924C10.4383 6.96924 9.42047 7.39391 8.67005 8.14984C7.91963 8.90577 7.49805 9.93103 7.49805 11.0001Z" stroke="#FCFCFC" stroke-width="2" stroke-linecap="round" stroke-linejoin="round"/>
</svg>
