<svg width="101" height="32" viewBox="0 0 101 32" fill="none" xmlns="http://www.w3.org/2000/svg">
<rect width="101" height="32" rx="16" fill="#171E1B"/>
<path d="M14.0039 20.4961C14.043 20.3086 14.1406 20.1562 14.2969 20.0391C14.4609 19.9141 14.6445 19.8008 14.8477 19.6992C15.0586 19.5977 15.2773 19.5039 15.5039 19.418C15.7305 19.3242 15.9375 19.2266 16.125 19.125C16.3203 19.0234 16.4805 18.9062 16.6055 18.7734C16.7305 18.6328 16.793 18.4648 16.793 18.2695C16.793 18.0195 16.7266 17.8125 16.5938 17.6484C16.4688 17.4844 16.2969 17.3438 16.0781 17.2266C15.8672 17.1094 15.625 17.0117 15.3516 16.9336C15.0781 16.8555 14.7969 16.7773 14.5078 16.6992C14.2266 16.6133 13.9492 16.5234 13.6758 16.4297C13.4023 16.3281 13.1562 16.2031 12.9375 16.0547C12.7266 15.9062 12.5547 15.7266 12.4219 15.5156C12.2969 15.3047 12.2344 15.043 12.2344 14.7305C12.2344 14.4727 12.2852 14.2305 12.3867 14.0039C12.4961 13.7695 12.6367 13.5508 12.8086 13.3477C12.9883 13.1367 13.1914 12.9453 13.418 12.7734C13.6523 12.6016 13.8945 12.457 14.1445 12.3398C14.4023 12.2227 14.6602 12.1328 14.918 12.0703C15.1758 12 15.4141 11.9648 15.6328 11.9648H15.7617C15.832 11.9883 15.9258 12.0273 16.043 12.082C16.1602 12.1367 16.2734 12.1914 16.3828 12.2461C16.4922 12.293 16.5859 12.3398 16.6641 12.3867C16.7422 12.4258 16.7812 12.4492 16.7812 12.457V12.7266C16.6328 12.7422 16.4414 12.7734 16.207 12.8203C15.9727 12.8594 15.7266 12.9141 15.4688 12.9844C15.2109 13.0547 14.9492 13.1445 14.6836 13.2539C14.418 13.3555 14.1797 13.4766 13.9688 13.6172C13.7578 13.7578 13.5859 13.9219 13.4531 14.1094C13.3203 14.2891 13.2539 14.4961 13.2539 14.7305C13.2539 15.0664 13.3711 15.332 13.6055 15.5273C13.8398 15.7148 14.1328 15.8711 14.4844 15.9961C14.8359 16.1211 15.2188 16.2344 15.6328 16.3359C16.0547 16.4297 16.4414 16.5469 16.793 16.6875C17.1445 16.8203 17.4375 17 17.6719 17.2266C17.9062 17.4453 18.0234 17.7422 18.0234 18.1172C18.0234 18.3203 17.9609 18.5352 17.8359 18.7617C17.7188 18.9805 17.5586 19.1992 17.3555 19.418C17.1602 19.6289 16.9375 19.832 16.6875 20.0273C16.4375 20.2227 16.1797 20.3945 15.9141 20.543C15.6562 20.6836 15.4023 20.8008 15.1523 20.8945C14.9023 20.9805 14.6797 21.0234 14.4844 21.0234C14.4219 21.0234 14.3555 21.0156 14.2852 21C14.2148 20.9844 14.1523 20.9609 14.0977 20.9297C14.0508 20.8906 14.0117 20.8359 13.9805 20.7656C13.957 20.6953 13.9648 20.6055 14.0039 20.4961ZM18.5039 18.6211C18.5039 18.1367 18.6172 17.6875 18.8438 17.2734C19.0703 16.8516 19.3672 16.4922 19.7344 16.1953C20.1094 15.8906 20.5273 15.6523 20.9883 15.4805C21.457 15.3086 21.9297 15.2227 22.4062 15.2227C22.6719 15.2227 22.9062 15.3086 23.1094 15.4805C23.3203 15.6523 23.4961 15.8633 23.6367 16.1133C23.7773 16.3555 23.8828 16.6133 23.9531 16.8867C24.0312 17.1602 24.0703 17.3984 24.0703 17.6016C24.0703 18.0391 23.9648 18.4648 23.7539 18.8789C23.543 19.2852 23.2695 19.6484 22.9336 19.9688C22.5977 20.2812 22.2188 20.5352 21.7969 20.7305C21.375 20.9258 20.9531 21.0234 20.5312 21.0234C20.1562 21.0234 19.8398 20.9609 19.582 20.8359C19.3242 20.7031 19.1172 20.5312 18.9609 20.3203C18.8047 20.1016 18.6875 19.8477 18.6094 19.5586C18.5391 19.2617 18.5039 18.9492 18.5039 18.6211ZM19.5 18.7383C19.5 18.9414 19.5156 19.1211 19.5469 19.2773C19.5859 19.4258 19.6484 19.5547 19.7344 19.6641C19.8281 19.7734 19.9492 19.8594 20.0977 19.9219C20.2461 19.9766 20.4297 20.0039 20.6484 20.0039C20.9375 20.0039 21.2266 19.9258 21.5156 19.7695C21.8047 19.6055 22.0625 19.4023 22.2891 19.1602C22.5234 18.9102 22.7109 18.6367 22.8516 18.3398C22.9922 18.043 23.0625 17.7539 23.0625 17.4727C23.0625 17.3477 23.0508 17.2109 23.0273 17.0625C23.0039 16.9141 22.9648 16.7773 22.9102 16.6523C22.8555 16.5273 22.7773 16.4219 22.6758 16.3359C22.5742 16.25 22.4453 16.207 22.2891 16.207C22.1484 16.207 21.9805 16.2539 21.7852 16.3477C21.5977 16.4414 21.3984 16.5625 21.1875 16.7109C20.9844 16.8594 20.7812 17.0273 20.5781 17.2148C20.3828 17.4023 20.2031 17.5898 20.0391 17.7773C19.875 17.9648 19.7422 18.1445 19.6406 18.3164C19.5469 18.4883 19.5 18.6289 19.5 18.7383ZM24.8086 14.3672C24.8086 14.1406 24.793 13.9219 24.7617 13.7109C24.7305 13.4922 24.7227 13.3008 24.7383 13.1367C24.7539 12.9648 24.8125 12.8281 24.9141 12.7266C25.0234 12.625 25.2188 12.5742 25.5 12.5742C25.5859 12.7539 25.668 13.0273 25.7461 13.3945C25.832 13.7617 25.9141 14.1836 25.9922 14.6602C26.0703 15.1367 26.1445 15.6562 26.2148 16.2188C26.2852 16.7734 26.3477 17.332 26.4023 17.8945C26.4648 18.457 26.5156 19.0117 26.5547 19.5586C26.6016 20.0977 26.6367 20.5898 26.6602 21.0352C26.4023 21.207 26.1953 21.2188 26.0391 21.0703C25.8828 20.9219 25.7539 20.6719 25.6523 20.3203C25.5508 19.9609 25.4727 19.5273 25.418 19.0195C25.3633 18.5039 25.3086 17.9727 25.2539 17.4258C25.207 16.8711 25.1484 16.3281 25.0781 15.7969C25.0078 15.2578 24.918 14.7812 24.8086 14.3672ZM32.3086 19.4883C32.0117 19.6914 31.7539 19.875 31.5352 20.0391C31.3242 20.1953 31.1172 20.3281 30.9141 20.4375C30.7109 20.5469 30.4922 20.6289 30.2578 20.6836C30.0312 20.7383 29.75 20.7656 29.4141 20.7656C28.6875 20.7656 28.1484 20.5742 27.7969 20.1914C27.4453 19.8008 27.2695 19.2227 27.2695 18.457C27.2695 18.1602 27.3086 17.8516 27.3867 17.5312C27.4648 17.2109 27.5781 16.8945 27.7266 16.582C27.8828 16.2617 28.0664 15.9609 28.2773 15.6797C28.4883 15.3906 28.7266 15.1367 28.9922 14.918C29.2578 14.6992 29.5391 14.5273 29.8359 14.4023C30.1406 14.2695 30.4609 14.2031 30.7969 14.2031C31.3594 14.2578 31.8008 14.3984 32.1211 14.625C32.4414 14.8438 32.6836 15.1289 32.8477 15.4805C33.0117 15.8242 33.125 16.2109 33.1875 16.6406C33.25 17.0625 33.2969 17.5 33.3281 17.9531C33.3672 18.4062 33.4141 18.8594 33.4688 19.3125C33.5234 19.7656 33.6367 20.1836 33.8086 20.5664C33.707 20.8242 33.6094 21.0039 33.5156 21.1055C33.4297 21.2148 33.332 21.2344 33.2227 21.1641C33.1133 21.0938 32.9844 20.9219 32.8359 20.6484C32.6953 20.375 32.5195 19.9883 32.3086 19.4883ZM28.2656 18.4805C28.2656 18.9258 28.3477 19.2539 28.5117 19.4648C28.6836 19.668 28.9844 19.7695 29.4141 19.7695C29.7344 19.7695 30.0391 19.7148 30.3281 19.6055C30.625 19.4883 30.8828 19.332 31.1016 19.1367C31.3203 18.9336 31.4961 18.6914 31.6289 18.4102C31.7617 18.1289 31.8281 17.8164 31.8281 17.4727C31.8281 17.332 31.832 17.1367 31.8398 16.8867C31.8477 16.6289 31.832 16.375 31.793 16.125C31.7539 15.875 31.6797 15.6602 31.5703 15.4805C31.4609 15.293 31.2969 15.1992 31.0781 15.1992C30.6719 15.1992 30.2969 15.3047 29.9531 15.5156C29.6094 15.7188 29.3125 15.9805 29.0625 16.3008C28.8125 16.6211 28.6172 16.9766 28.4766 17.3672C28.3359 17.75 28.2656 18.1211 28.2656 18.4805ZM34.5469 17.0508C34.5469 16.8477 34.5977 16.7031 34.6992 16.6172C34.8008 16.5234 34.9648 16.4766 35.1914 16.4766H35.3086C35.332 16.6016 35.3594 16.7461 35.3906 16.9102C35.4219 17.0742 35.4688 17.2422 35.5312 17.4141C35.5938 17.5859 35.668 17.7461 35.7539 17.8945C35.8398 18.0352 35.9453 18.1484 36.0703 18.2344C36.0781 17.9609 36.1445 17.6992 36.2695 17.4492C36.4023 17.1914 36.5625 16.9648 36.75 16.7695C36.9453 16.5664 37.1562 16.3984 37.3828 16.2656C37.6172 16.125 37.8477 16.0312 38.0742 15.9844H38.332C38.707 15.9844 39.0273 16.0703 39.293 16.2422C39.5586 16.4062 39.7773 16.625 39.9492 16.8984C40.1289 17.1641 40.2656 17.4688 40.3594 17.8125C40.4531 18.1562 40.5234 18.5078 40.5703 18.8672C40.625 19.2188 40.6562 19.5625 40.6641 19.8984C40.6797 20.2266 40.6875 20.5078 40.6875 20.7422H39.832C39.7852 20.2734 39.7266 19.8242 39.6562 19.3945C39.6328 19.2227 39.6016 19.043 39.5625 18.8555C39.5234 18.6602 39.4805 18.4805 39.4336 18.3164C39.3867 18.1445 39.3359 17.9883 39.2812 17.8477C39.2266 17.6992 39.1641 17.5742 39.0938 17.4727C39.0625 17.4414 39.0195 17.3984 38.9648 17.3438C38.918 17.2891 38.8672 17.2344 38.8125 17.1797C38.7578 17.125 38.707 17.0781 38.6602 17.0391C38.6133 17 38.5859 16.9805 38.5781 16.9805C38.3438 16.918 38.1406 16.9648 37.9688 17.1211C37.7969 17.2695 37.6445 17.4727 37.5117 17.7305C37.3789 17.9883 37.2695 18.2812 37.1836 18.6094C37.1055 18.9375 37.0391 19.2539 36.9844 19.5586C36.9297 19.8555 36.8906 20.1172 36.8672 20.3438C36.8438 20.5625 36.8281 20.6953 36.8203 20.7422C36.625 20.8828 36.4414 20.9258 36.2695 20.8711C36.0977 20.8086 35.9336 20.6836 35.7773 20.4961C35.6289 20.3086 35.4922 20.0742 35.3672 19.793C35.25 19.5117 35.1406 19.2148 35.0391 18.9023C34.9375 18.582 34.8438 18.2617 34.7578 17.9414C34.6797 17.6211 34.6094 17.3242 34.5469 17.0508ZM46.3711 19.4883C46.0742 19.6914 45.8164 19.875 45.5977 20.0391C45.3867 20.1953 45.1797 20.3281 44.9766 20.4375C44.7734 20.5469 44.5547 20.6289 44.3203 20.6836C44.0938 20.7383 43.8125 20.7656 43.4766 20.7656C42.75 20.7656 42.2109 20.5742 41.8594 20.1914C41.5078 19.8008 41.332 19.2227 41.332 18.457C41.332 18.1602 41.3711 17.8516 41.4492 17.5312C41.5273 17.2109 41.6406 16.8945 41.7891 16.582C41.9453 16.2617 42.1289 15.9609 42.3398 15.6797C42.5508 15.3906 42.7891 15.1367 43.0547 14.918C43.3203 14.6992 43.6016 14.5273 43.8984 14.4023C44.2031 14.2695 44.5234 14.2031 44.8594 14.2031C45.4219 14.2578 45.8633 14.3984 46.1836 14.625C46.5039 14.8438 46.7461 15.1289 46.9102 15.4805C47.0742 15.8242 47.1875 16.2109 47.25 16.6406C47.3125 17.0625 47.3594 17.5 47.3906 17.9531C47.4297 18.4062 47.4766 18.8594 47.5312 19.3125C47.5859 19.7656 47.6992 20.1836 47.8711 20.5664C47.7695 20.8242 47.6719 21.0039 47.5781 21.1055C47.4922 21.2148 47.3945 21.2344 47.2852 21.1641C47.1758 21.0938 47.0469 20.9219 46.8984 20.6484C46.7578 20.375 46.582 19.9883 46.3711 19.4883ZM42.3281 18.4805C42.3281 18.9258 42.4102 19.2539 42.5742 19.4648C42.7461 19.668 43.0469 19.7695 43.4766 19.7695C43.7969 19.7695 44.1016 19.7148 44.3906 19.6055C44.6875 19.4883 44.9453 19.332 45.1641 19.1367C45.3828 18.9336 45.5586 18.6914 45.6914 18.4102C45.8242 18.1289 45.8906 17.8164 45.8906 17.4727C45.8906 17.332 45.8945 17.1367 45.9023 16.8867C45.9102 16.6289 45.8945 16.375 45.8555 16.125C45.8164 15.875 45.7422 15.6602 45.6328 15.4805C45.5234 15.293 45.3594 15.1992 45.1406 15.1992C44.7344 15.1992 44.3594 15.3047 44.0156 15.5156C43.6719 15.7188 43.375 15.9805 43.125 16.3008C42.875 16.6211 42.6797 16.9766 42.5391 17.3672C42.3984 17.75 42.3281 18.1211 42.3281 18.4805Z" fill="#FCFCFC"/>
<path d="M53.9657 20.5C53.6093 20.5 53.4309 20.0691 53.6828 19.8172L56.7172 16.7828C56.8734 16.6266 57.1266 16.6266 57.2828 16.7828L60.3172 19.8172C60.5691 20.0691 60.3907 20.5 60.0343 20.5H53.9657Z" fill="#A8E6A0"/>
<path d="M66.6 20.644C66.08 20.644 65.628 20.548 65.244 20.356C64.86 20.156 64.544 19.872 64.296 19.504C64.048 19.136 63.864 18.684 63.744 18.148C63.624 17.612 63.564 17 63.564 16.312C63.564 15.632 63.624 15.024 63.744 14.488C63.864 13.944 64.048 13.488 64.296 13.12C64.544 12.752 64.86 12.472 65.244 12.28C65.628 12.08 66.08 11.98 66.6 11.98C67.64 11.98 68.404 12.36 68.892 13.12C69.388 13.88 69.636 14.944 69.636 16.312C69.636 17.68 69.388 18.744 68.892 19.504C68.404 20.264 67.64 20.644 66.6 20.644ZM66.6 19.492C66.888 19.492 67.132 19.436 67.332 19.324C67.54 19.204 67.708 19.036 67.836 18.82C67.964 18.604 68.056 18.348 68.112 18.052C68.168 17.748 68.196 17.412 68.196 17.044V15.58C68.196 15.212 68.168 14.88 68.112 14.584C68.056 14.28 67.964 14.02 67.836 13.804C67.708 13.588 67.54 13.424 67.332 13.312C67.132 13.192 66.888 13.132 66.6 13.132C66.312 13.132 66.064 13.192 65.856 13.312C65.656 13.424 65.492 13.588 65.364 13.804C65.236 14.02 65.144 14.28 65.088 14.584C65.032 14.88 65.004 15.212 65.004 15.58V17.044C65.004 17.412 65.032 17.748 65.088 18.052C65.144 18.348 65.236 18.604 65.364 18.82C65.492 19.036 65.656 19.204 65.856 19.324C66.064 19.436 66.312 19.492 66.6 19.492ZM71.9353 20.644C71.6393 20.644 71.4193 20.568 71.2753 20.416C71.1313 20.256 71.0593 20.06 71.0593 19.828V19.648C71.0593 19.416 71.1313 19.224 71.2753 19.072C71.4193 18.912 71.6393 18.832 71.9353 18.832C72.2313 18.832 72.4513 18.912 72.5953 19.072C72.7393 19.224 72.8113 19.416 72.8113 19.648V19.828C72.8113 20.06 72.7393 20.256 72.5953 20.416C72.4513 20.568 72.2313 20.644 71.9353 20.644ZM77.2758 20.644C76.7558 20.644 76.3038 20.548 75.9198 20.356C75.5358 20.156 75.2198 19.872 74.9718 19.504C74.7238 19.136 74.5398 18.684 74.4198 18.148C74.2998 17.612 74.2398 17 74.2398 16.312C74.2398 15.632 74.2998 15.024 74.4198 14.488C74.5398 13.944 74.7238 13.488 74.9718 13.12C75.2198 12.752 75.5358 12.472 75.9198 12.28C76.3038 12.08 76.7558 11.98 77.2758 11.98C78.3158 11.98 79.0798 12.36 79.5678 13.12C80.0638 13.88 80.3118 14.944 80.3118 16.312C80.3118 17.68 80.0638 18.744 79.5678 19.504C79.0798 20.264 78.3158 20.644 77.2758 20.644ZM77.2758 19.492C77.5638 19.492 77.8078 19.436 78.0078 19.324C78.2158 19.204 78.3838 19.036 78.5118 18.82C78.6398 18.604 78.7318 18.348 78.7878 18.052C78.8438 17.748 78.8718 17.412 78.8718 17.044V15.58C78.8718 15.212 78.8438 14.88 78.7878 14.584C78.7318 14.28 78.6398 14.02 78.5118 13.804C78.3838 13.588 78.2158 13.424 78.0078 13.312C77.8078 13.192 77.5638 13.132 77.2758 13.132C76.9878 13.132 76.7398 13.192 76.5318 13.312C76.3318 13.424 76.1678 13.588 76.0398 13.804C75.9118 14.02 75.8198 14.28 75.7638 14.584C75.7078 14.88 75.6798 15.212 75.6798 15.58V17.044C75.6798 17.412 75.7078 17.748 75.7638 18.052C75.8198 18.348 75.9118 18.604 76.0398 18.82C76.1678 19.036 76.3318 19.204 76.5318 19.324C76.7398 19.436 76.9878 19.492 77.2758 19.492ZM81.9271 20.5V19.372H84.2791V13.108H84.1831L82.2391 15.184L81.4111 14.44L83.5471 12.124H85.6111V19.372H87.6511V20.5H81.9271Z" fill="#A8E6A0"/>
</svg>
