<svg width="14" height="18" viewBox="0 0 14 18" fill="none" xmlns="http://www.w3.org/2000/svg">
<path d="M6.25 8.2H4M8.5 5H4M1 14.3168V5.8432C1 3.56 1 2.4192 1.65925 1.7096C2.31775 1 3.379 1 5.5 1H8.5C10.621 1 11.6823 1 12.3408 1.7096C13 2.4184 13 3.56 13 5.8432V14.3168C13 15.5256 13 16.1304 12.6535 16.3688C12.0873 16.7576 11.212 15.9416 10.7717 15.6456C10.408 15.4008 10.2265 15.2792 10.024 15.272C9.8065 15.264 9.62125 15.3816 9.22825 15.6456L7.795 16.6096C7.408 16.8696 7.21525 17 7 17C6.78475 17 6.592 16.8696 6.205 16.6096L4.7725 15.6456C4.408 15.4008 4.2265 15.2792 4.02475 15.272C3.8065 15.264 3.62125 15.3816 3.22825 15.6456C2.788 15.9416 1.91275 16.7576 1.34575 16.3688C1 16.1304 1 15.5264 1 14.3168Z" stroke="#FCFCFC" stroke-width="1.5" stroke-linecap="round" stroke-linejoin="round"/>
</svg>
