<svg width="20" height="20" viewBox="0 0 20 20" fill="none" xmlns="http://www.w3.org/2000/svg">
<mask id="path-1-inside-1_233_976" fill="white">
<path d="M4.89273 3.60727L7.49273 6.20727C8.23687 5.71658 9.10864 5.45503 10 5.45503C10.8914 5.45503 11.7631 5.71658 12.5073 6.20727L15.1073 3.60727C13.6569 2.44924 11.856 1.81849 10 1.81849C8.14401 1.81849 6.34312 2.44924 4.89273 3.60727ZM16.3927 4.89273L13.7927 7.49273C14.2834 8.23687 14.545 9.10864 14.545 10C14.545 10.8914 14.2834 11.7631 13.7927 12.5073L16.3927 15.1073C17.5508 13.6569 18.1815 11.856 18.1815 10C18.1815 8.14401 17.5508 6.34312 16.3927 4.89273ZM15.1073 16.3927L12.5073 13.7927C11.7631 14.2834 10.8914 14.545 10 14.545C9.10864 14.545 8.23687 14.2834 7.49273 13.7927L4.89273 16.3927C6.34312 17.5508 8.14401 18.1815 10 18.1815C11.856 18.1815 13.6569 17.5508 15.1073 16.3927ZM3.60727 15.1073L6.20727 12.5073C5.71658 11.7631 5.45503 10.8914 5.45503 10C5.45503 9.10864 5.71658 8.23687 6.20727 7.49273L3.60727 4.89273C2.44924 6.34312 1.81849 8.14401 1.81849 10C1.81849 11.856 2.44924 13.6569 3.60727 15.1073ZM2.92909 2.92909C6.83455 -0.976364 13.1655 -0.976364 17.0709 2.92909C20.9764 6.83455 20.9764 13.1655 17.0709 17.0709C13.1655 20.9764 6.83455 20.9764 2.92909 17.0709C-0.976364 13.1655 -0.976364 6.83455 2.92909 2.92909ZM11.9291 8.07182C11.6766 7.81515 11.3759 7.61101 11.0441 7.47117C10.7123 7.33133 10.3562 7.25855 9.99618 7.25705C9.63616 7.25554 9.27941 7.32533 8.9465 7.46238C8.61359 7.59944 8.31111 7.80105 8.05651 8.0556C7.80191 8.31014 7.60022 8.61257 7.46309 8.94545C7.32595 9.27833 7.25608 9.63506 7.2575 9.99508C7.25892 10.3551 7.33161 10.7113 7.47138 11.043C7.61114 11.3748 7.81521 11.6757 8.07182 11.9282C8.58776 12.4162 9.27373 12.6837 9.98384 12.6738C10.694 12.664 11.3722 12.3775 11.8744 11.8753C12.3766 11.3731 12.6631 10.6949 12.6729 9.98475C12.6828 9.27464 12.4153 8.58867 11.9273 8.07273"/>
</mask>
<path d="M4.89273 3.60727L7.49273 6.20727C8.23687 5.71658 9.10864 5.45503 10 5.45503C10.8914 5.45503 11.7631 5.71658 12.5073 6.20727L15.1073 3.60727C13.6569 2.44924 11.856 1.81849 10 1.81849C8.14401 1.81849 6.34312 2.44924 4.89273 3.60727ZM16.3927 4.89273L13.7927 7.49273C14.2834 8.23687 14.545 9.10864 14.545 10C14.545 10.8914 14.2834 11.7631 13.7927 12.5073L16.3927 15.1073C17.5508 13.6569 18.1815 11.856 18.1815 10C18.1815 8.14401 17.5508 6.34312 16.3927 4.89273ZM15.1073 16.3927L12.5073 13.7927C11.7631 14.2834 10.8914 14.545 10 14.545C9.10864 14.545 8.23687 14.2834 7.49273 13.7927L4.89273 16.3927C6.34312 17.5508 8.14401 18.1815 10 18.1815C11.856 18.1815 13.6569 17.5508 15.1073 16.3927ZM3.60727 15.1073L6.20727 12.5073C5.71658 11.7631 5.45503 10.8914 5.45503 10C5.45503 9.10864 5.71658 8.23687 6.20727 7.49273L3.60727 4.89273C2.44924 6.34312 1.81849 8.14401 1.81849 10C1.81849 11.856 2.44924 13.6569 3.60727 15.1073ZM2.92909 2.92909C6.83455 -0.976364 13.1655 -0.976364 17.0709 2.92909C20.9764 6.83455 20.9764 13.1655 17.0709 17.0709C13.1655 20.9764 6.83455 20.9764 2.92909 17.0709C-0.976364 13.1655 -0.976364 6.83455 2.92909 2.92909ZM11.9291 8.07182C11.6766 7.81515 11.3759 7.61101 11.0441 7.47117C10.7123 7.33133 10.3562 7.25855 9.99618 7.25705C9.63616 7.25554 9.27941 7.32533 8.9465 7.46238C8.61359 7.59944 8.31111 7.80105 8.05651 8.0556C7.80191 8.31014 7.60022 8.61257 7.46309 8.94545C7.32595 9.27833 7.25608 9.63506 7.2575 9.99508C7.25892 10.3551 7.33161 10.7113 7.47138 11.043C7.61114 11.3748 7.81521 11.6757 8.07182 11.9282C8.58776 12.4162 9.27373 12.6837 9.98384 12.6738C10.694 12.664 11.3722 12.3775 11.8744 11.8753C12.3766 11.3731 12.6631 10.6949 12.6729 9.98475C12.6828 9.27464 12.4153 8.58867 11.9273 8.07273" fill="black"/>
<path d="M4.89273 3.60727L4.26878 2.8258L3.39483 3.52359L4.18562 4.31438L4.89273 3.60727ZM7.49273 6.20727L6.78562 6.91438L7.36234 7.4911L8.04323 7.04211L7.49273 6.20727ZM10 5.45503V4.45503V5.45503ZM12.5073 6.20727L11.9568 7.04211L12.6377 7.4911L13.2144 6.91438L12.5073 6.20727ZM15.1073 3.60727L15.8144 4.31438L16.6052 3.52359L15.7312 2.8258L15.1073 3.60727ZM16.3927 4.89273L17.1742 4.26878L16.4764 3.39483L15.6856 4.18562L16.3927 4.89273ZM13.7927 7.49273L13.0856 6.78562L12.5089 7.36234L12.9579 8.04323L13.7927 7.49273ZM13.7927 12.5073L12.9579 11.9568L12.5089 12.6377L13.0856 13.2144L13.7927 12.5073ZM16.3927 15.1073L15.6856 15.8144L16.4764 16.6052L17.1742 15.7312L16.3927 15.1073ZM18.1815 10H19.1815H18.1815ZM15.1073 16.3927L15.7312 17.1742L16.6052 16.4764L15.8144 15.6856L15.1073 16.3927ZM12.5073 13.7927L13.2144 13.0856L12.6377 12.5089L11.9568 12.9579L12.5073 13.7927ZM7.49273 13.7927L8.04323 12.9579L7.36234 12.5089L6.78562 13.0856L7.49273 13.7927ZM4.89273 16.3927L4.18562 15.6856L3.39483 16.4764L4.26878 17.1742L4.89273 16.3927ZM3.60727 15.1073L2.8258 15.7312L3.52359 16.6052L4.31438 15.8144L3.60727 15.1073ZM6.20727 12.5073L6.91438 13.2144L7.4911 12.6377L7.04211 11.9568L6.20727 12.5073ZM6.20727 7.49273L7.04211 8.04323L7.4911 7.36234L6.91438 6.78562L6.20727 7.49273ZM3.60727 4.89273L4.31438 4.18562L3.52359 3.39483L2.8258 4.26878L3.60727 4.89273ZM1.81849 10H2.81849H1.81849ZM8.07182 11.9282L7.37041 12.6409L7.37746 12.6479L7.38465 12.6547L8.07182 11.9282ZM4.18562 4.31438L6.78562 6.91438L8.19983 5.50017L5.59983 2.90017L4.18562 4.31438ZM8.04323 7.04211C8.62398 6.65915 9.30435 6.45503 10 6.45503V4.45503C8.91293 4.45503 7.84975 4.77401 6.94223 5.37244L8.04323 7.04211ZM10 6.45503C10.6957 6.45503 11.376 6.65915 11.9568 7.04211L13.0578 5.37244C12.1502 4.77401 11.0871 4.45503 10 4.45503V6.45503ZM13.2144 6.91438L15.8144 4.31438L14.4002 2.90017L11.8002 5.50017L13.2144 6.91438ZM15.7312 2.8258C14.1036 1.5263 12.0827 0.818491 10 0.818491V2.81849C11.6292 2.81849 13.2101 3.37218 14.4833 4.38874L15.7312 2.8258ZM10 0.818491C7.91727 0.818491 5.89637 1.5263 4.26878 2.8258L5.51667 4.38874C6.78988 3.37218 8.37076 2.81849 10 2.81849V0.818491ZM15.6856 4.18562L13.0856 6.78562L14.4998 8.19983L17.0998 5.59983L15.6856 4.18562ZM12.9579 8.04323C13.3408 8.62398 13.545 9.30435 13.545 10H15.545C15.545 8.91293 15.226 7.84975 14.6276 6.94223L12.9579 8.04323ZM13.545 10C13.545 10.6957 13.3408 11.376 12.9579 11.9568L14.6276 13.0578C15.226 12.1502 15.545 11.0871 15.545 10H13.545ZM13.0856 13.2144L15.6856 15.8144L17.0998 14.4002L14.4998 11.8002L13.0856 13.2144ZM17.1742 15.7312C18.4737 14.1036 19.1815 12.0827 19.1815 10H17.1815C17.1815 11.6292 16.6278 13.2101 15.6113 14.4833L17.1742 15.7312ZM19.1815 10C19.1815 7.91727 18.4737 5.89637 17.1742 4.26878L15.6113 5.51667C16.6278 6.78988 17.1815 8.37076 17.1815 10H19.1815ZM15.8144 15.6856L13.2144 13.0856L11.8002 14.4998L14.4002 17.0998L15.8144 15.6856ZM11.9568 12.9579C11.376 13.3408 10.6957 13.545 10 13.545V15.545C11.0871 15.545 12.1502 15.226 13.0578 14.6276L11.9568 12.9579ZM10 13.545C9.30435 13.545 8.62398 13.3408 8.04323 12.9579L6.94223 14.6276C7.84975 15.226 8.91293 15.545 10 15.545V13.545ZM6.78562 13.0856L4.18562 15.6856L5.59983 17.0998L8.19983 14.4998L6.78562 13.0856ZM4.26878 17.1742C5.89637 18.4737 7.91727 19.1815 10 19.1815V17.1815C8.37076 17.1815 6.78988 16.6278 5.51667 15.6113L4.26878 17.1742ZM10 19.1815C12.0827 19.1815 14.1036 18.4737 15.7312 17.1742L14.4833 15.6113C13.2101 16.6278 11.6292 17.1815 10 17.1815V19.1815ZM4.31438 15.8144L6.91438 13.2144L5.50017 11.8002L2.90017 14.4002L4.31438 15.8144ZM7.04211 11.9568C6.65915 11.376 6.45503 10.6957 6.45503 10H4.45503C4.45503 11.0871 4.77401 12.1502 5.37244 13.0578L7.04211 11.9568ZM6.45503 10C6.45503 9.30435 6.65915 8.62398 7.04211 8.04323L5.37244 6.94223C4.77401 7.84975 4.45503 8.91293 4.45503 10H6.45503ZM6.91438 6.78562L4.31438 4.18562L2.90017 5.59983L5.50017 8.19983L6.91438 6.78562ZM2.8258 4.26878C1.5263 5.89637 0.818491 7.91727 0.818491 10H2.81849C2.81849 8.37076 3.37218 6.78988 4.38874 5.51667L2.8258 4.26878ZM0.818491 10C0.818491 12.0827 1.5263 14.1036 2.8258 15.7312L4.38874 14.4833C3.37218 13.2101 2.81849 11.6292 2.81849 10H0.818491ZM3.6362 3.6362C7.15113 0.121268 12.8489 0.121268 16.3638 3.6362L17.778 2.22198C13.482 -2.07399 6.51796 -2.07399 2.22198 2.22198L3.6362 3.6362ZM16.3638 3.6362C19.8787 7.15113 19.8787 12.8489 16.3638 16.3638L17.778 17.778C22.074 13.482 22.074 6.51796 17.778 2.22198L16.3638 3.6362ZM16.3638 16.3638C12.8489 19.8787 7.15113 19.8787 3.6362 16.3638L2.22198 17.778C6.51796 22.074 13.482 22.074 17.778 17.778L16.3638 16.3638ZM3.6362 16.3638C0.121268 12.8489 0.121268 7.15113 3.6362 3.6362L2.22198 2.22198C-2.07399 6.51796 -2.07399 13.482 2.22198 17.778L3.6362 16.3638ZM12.642 7.37058C12.297 7.0198 11.8859 6.74081 11.4325 6.54969L10.6557 8.39265C10.8658 8.48122 11.0563 8.61051 11.2162 8.77306L12.642 7.37058ZM11.4325 6.54969C10.9791 6.35857 10.4924 6.25912 10.0004 6.25706L9.99199 8.25704C10.22 8.25799 10.4456 8.30408 10.6557 8.39265L11.4325 6.54969ZM10.0004 6.25706C9.50835 6.25499 9.02078 6.35037 8.56581 6.53768L9.32719 8.38708C9.53804 8.30028 9.76398 8.25608 9.99199 8.25704L10.0004 6.25706ZM8.56581 6.53768C8.11083 6.72499 7.69744 7.00053 7.34948 7.34841L8.76353 8.76278C8.92478 8.60158 9.11635 8.47389 9.32719 8.38708L8.56581 6.53768ZM7.34948 7.34841C7.00153 7.69628 6.72589 8.1096 6.53847 8.56454L8.3877 9.32636C8.47455 9.11553 8.60228 8.924 8.76353 8.76278L7.34948 7.34841ZM6.53847 8.56454C6.35106 9.01947 6.25556 9.50701 6.25751 9.99903L8.25749 9.99112C8.25659 9.76311 8.30084 9.53718 8.3877 9.32636L6.53847 8.56454ZM6.25751 9.99903C6.25945 10.4911 6.3588 10.9778 6.54981 11.4313L8.39295 10.6548C8.30443 10.4447 8.2584 10.2191 8.25749 9.99112L6.25751 9.99903ZM6.54981 11.4313C6.74082 11.8847 7.01971 12.2958 7.37041 12.6409L8.77323 11.2154C8.61071 11.0555 8.48147 10.865 8.39295 10.6548L6.54981 11.4313ZM7.38465 12.6547C8.08978 13.3216 9.02726 13.6872 9.99775 13.6737L9.96994 11.6739C9.5202 11.6802 9.08575 11.5108 8.75899 11.2017L7.38465 12.6547ZM9.99775 13.6737C10.9682 13.6602 11.8952 13.2687 12.5815 12.5824L11.1673 11.1682C10.8492 11.4862 10.4197 11.6677 9.96994 11.6739L9.99775 13.6737ZM12.5815 12.5824C13.2678 11.8961 13.6593 10.9692 13.6728 9.99866L11.673 9.97085C11.6668 10.4206 11.4853 10.8501 11.1673 11.1682L12.5815 12.5824ZM13.6728 9.99866C13.6863 9.02816 13.3207 8.09068 12.6538 7.38556L11.2008 8.7599C11.5099 9.08666 11.6793 9.52111 11.673 9.97085L13.6728 9.99866Z" fill="#FCFCFC" mask="url(#path-1-inside-1_233_976)"/>
</svg>
