<svg width="108" height="66" viewBox="0 0 108 66" fill="none" xmlns="http://www.w3.org/2000/svg">
<rect x="0.865723" y="26.7887" width="99.9964" height="40" rx="20" transform="rotate(-15 0.865723 26.7887)" fill="#1E1E1E"/>
<rect x="5.76465" y="29.6171" width="32" height="32" rx="16" transform="rotate(-15 5.76465 29.6171)" fill="#F9AA4B" fill-opacity="0.85"/>
<path d="M30.4496 34.2837C30.322 34.2381 30.1875 34.2282 30.0587 34.2549C29.93 34.2817 29.8113 34.3441 29.7138 34.4365C27.5039 36.529 25.4623 36.3676 23.301 36.1962C21.037 36.0175 18.4713 35.8147 15.7993 38.3438C15.6917 38.4457 15.614 38.58 15.5751 38.7315C15.5363 38.883 15.5377 39.0455 15.5794 39.2006L17.7997 47.4868C17.8373 47.6274 17.9065 47.757 18.001 47.8635C18.0954 47.97 18.212 48.0498 18.3396 48.0954C18.4672 48.141 18.6017 48.151 18.7304 48.1243C18.8592 48.0976 18.9779 48.0352 19.0754 47.9429C21.2852 45.8504 23.3269 46.0117 25.4881 46.1832C26.7725 46.2828 28.1548 46.3938 29.5981 46.007C30.6986 45.7122 31.8341 45.1291 32.9898 44.0356C33.0975 43.9337 33.1752 43.7994 33.214 43.6479C33.2529 43.4964 33.2514 43.3339 33.2098 43.1788L30.9895 34.8926C30.952 34.7519 30.8827 34.6222 30.7883 34.5157C30.6938 34.4092 30.5773 34.3293 30.4496 34.2837ZM31.5714 43.0469C29.5021 44.7964 27.5636 44.6436 25.5213 44.4824C24.237 44.3829 22.8545 44.2711 21.4112 44.6579C20.5323 44.8953 19.7042 45.296 18.9622 45.8428L17.2178 39.3325C19.2871 37.583 21.2254 37.7351 23.2679 37.897C25.2645 38.0549 27.4952 38.2314 29.827 36.5366L31.5714 43.0469ZM23.803 38.9819C23.4086 39.0876 23.0577 39.3204 22.7948 39.6508C22.5319 39.9813 22.3687 40.3946 22.3258 40.8385C22.283 41.2823 22.3624 41.7368 22.5541 42.1445C22.7458 42.5521 23.0412 42.8947 23.4028 43.1287C23.7644 43.3627 24.1761 43.4778 24.5858 43.4593C24.9954 43.4409 25.3847 43.2897 25.7043 43.025C26.0239 42.7602 26.2595 42.3938 26.3813 41.972C26.5032 41.5502 26.5058 41.092 26.3888 40.6554C26.231 40.0704 25.8702 39.5659 25.3856 39.2522C24.901 38.9385 24.3319 38.8413 23.803 38.9819ZM24.5425 41.7417C24.4439 41.7681 24.3388 41.7615 24.2406 41.7228C24.1423 41.6842 24.0553 41.6151 23.9906 41.5243C23.9258 41.4336 23.8862 41.3253 23.8768 41.213C23.8673 41.1008 23.8884 40.9897 23.9375 40.8939C23.9865 40.798 24.0613 40.7216 24.1523 40.6744C24.2433 40.6272 24.3464 40.6113 24.4487 40.6286C24.551 40.646 24.6478 40.6959 24.7269 40.772C24.806 40.8481 24.8639 40.9469 24.8931 41.0561C24.9324 41.2025 24.9174 41.357 24.8517 41.4855C24.7859 41.6141 24.6747 41.7062 24.5425 41.7417ZM19.8886 40.3265L20.6281 43.0863C20.6869 43.3059 20.6646 43.5376 20.5659 43.7304C20.4673 43.9233 20.3005 44.0615 20.1021 44.1146C19.9038 44.1678 19.6902 44.1315 19.5084 44.0138C19.3265 43.8961 19.1913 43.7066 19.1325 43.4871L18.393 40.7273C18.3342 40.5077 18.3565 40.276 18.4551 40.0832C18.5538 39.8903 18.7206 39.7521 18.919 39.699C19.1173 39.6458 19.3309 39.6821 19.5127 39.7998C19.6946 39.9175 19.8298 40.1069 19.8886 40.3265ZM28.9006 42.0529L28.1611 39.2931C28.1022 39.0735 28.1246 38.8418 28.2232 38.649C28.3219 38.4561 28.4887 38.3179 28.6871 38.2648C28.8854 38.2116 29.099 38.2479 29.2808 38.3656C29.4627 38.4833 29.5979 38.6728 29.6567 38.8923L30.3962 41.6521C30.455 41.8717 30.4327 42.1034 30.334 42.2962C30.2354 42.4891 30.0686 42.6273 29.8702 42.6804C29.6719 42.7336 29.4583 42.6973 29.2765 42.5796C29.0946 42.4619 28.9594 42.2724 28.9006 42.0529Z" fill="#FCFCFC"/>
<path d="M59.6147 29.6825C59.5461 29.4265 59.3786 29.2082 59.1489 29.0757C58.9193 28.9432 58.6464 28.9074 58.3902 28.976L47.1951 31.9757L48.8244 29.17C48.9576 28.9396 48.9938 28.6657 48.9249 28.4086C48.856 28.1516 48.6878 27.9324 48.4572 27.7994C48.2266 27.6664 47.9525 27.6304 47.6953 27.6993C47.4381 27.7682 47.2187 27.9364 47.0856 28.1669L44.2564 33.0632C44.1587 33.2348 44.1141 33.4315 44.1282 33.6284C44.1423 33.8254 44.2144 34.0137 44.3355 34.1696C44.4552 34.3265 44.6187 34.4444 44.8053 34.5085C44.992 34.5727 45.1935 34.5801 45.3845 34.53L58.9074 30.9065C59.1636 30.8379 59.3821 30.6703 59.5147 30.4408C59.6473 30.2112 59.6833 29.9385 59.6147 29.6825ZM64.3374 32.1621C64.2177 32.0052 64.0542 31.8873 63.8676 31.8232C63.6809 31.759 63.4794 31.7516 63.2884 31.8017L49.7655 35.4252C49.5093 35.4938 49.2908 35.6614 49.1582 35.8909C49.0256 36.1205 48.9896 36.3933 49.0582 36.6493C49.1268 36.9053 49.2943 37.1235 49.524 37.256C49.7536 37.3885 50.0266 37.4243 50.2827 37.3557L61.4778 34.356L59.8485 37.1617C59.782 37.2757 59.7387 37.4017 59.7212 37.5324C59.7037 37.6632 59.7122 37.7961 59.7464 37.9235C59.7805 38.051 59.8396 38.1704 59.9201 38.2749C60.0007 38.3793 60.1011 38.4668 60.2157 38.5323C60.3298 38.5987 60.4558 38.6419 60.5867 38.6594C60.7175 38.6768 60.8505 38.6682 60.978 38.6341C61.1055 38.5999 61.225 38.5408 61.3296 38.4603C61.4342 38.3798 61.5218 38.2793 61.5873 38.1648L64.4165 33.2685C64.5142 33.0969 64.5588 32.9002 64.5447 32.7033C64.5306 32.5063 64.4585 32.318 64.3374 32.1621Z" fill="#FCFCFC"/>
<rect x="63.7168" y="14.0889" width="32" height="32" rx="16" transform="rotate(-15 63.7168 14.0889)" fill="#5A5AA0" fill-opacity="0.8"/>
<path d="M87.1156 20.3247C87.0561 20.4414 86.9608 20.5239 86.8474 20.557L76.0121 23.4603C75.6274 23.5634 75.2885 23.0748 75.4702 22.6873L76.6842 20.0994C76.7405 19.979 76.8355 19.8936 76.9499 19.8606L87.8278 16.9459C88.2159 16.8419 88.5521 17.3366 88.3675 17.7266L87.1156 20.3247Z" fill="url(#paint0_linear_887_1937)"/>
<path d="M89.903 30.7277C89.8425 30.843 89.7469 30.924 89.6337 30.9559L78.7984 33.8592C78.4136 33.9623 78.0758 33.4778 78.2573 33.0895L79.47 30.4966C79.5271 30.3775 79.6228 30.2941 79.7373 30.2636L90.6152 27.3489C91.0033 27.2449 91.3381 27.7346 91.153 28.123L89.903 30.7277Z" fill="url(#paint1_linear_887_1937)"/>
<path d="M87.7522 22.7003C87.6422 22.6306 87.5189 22.6083 87.4048 22.6373L76.5695 25.5407C76.1848 25.6437 76.1345 26.2322 76.4856 26.4769L78.8325 28.1169C78.9422 28.1881 79.0656 28.212 79.1802 28.1842L90.0581 25.2695C90.4462 25.1655 90.4914 24.5739 90.1369 24.3302L87.7522 22.7003Z" fill="url(#paint2_linear_887_1937)"/>
<defs>
<linearGradient id="paint0_linear_887_1937" x1="87.2104" y1="66.992" x2="101.05" y2="63.1729" gradientUnits="userSpaceOnUse">
<stop stop-color="#599DB0"/>
<stop offset="1" stop-color="#47F8C3"/>
</linearGradient>
<linearGradient id="paint1_linear_887_1937" x1="75.8505" y1="24.5966" x2="89.6064" y2="20.8188" gradientUnits="userSpaceOnUse">
<stop stop-color="#C44FE2"/>
<stop offset="1" stop-color="#73B0D0"/>
</linearGradient>
<linearGradient id="paint2_linear_887_1937" x1="77.3309" y1="27.0082" x2="89.551" y2="23.7338" gradientUnits="userSpaceOnUse">
<stop stop-color="#778CBF"/>
<stop offset="1" stop-color="#5DCDC9"/>
</linearGradient>
</defs>
</svg>
