<svg width="18" height="18" viewBox="0 0 18 18" fill="none" xmlns="http://www.w3.org/2000/svg">
<path d="M13.9097 13.9097L11.4902 16.3301C11.2783 16.5424 11.0266 16.7109 10.7494 16.8259C10.4723 16.9408 10.1752 17 9.8752 17C9.57517 17 9.27809 16.9408 9.00096 16.8259C8.72383 16.7109 8.47209 16.5424 8.26016 16.3301L2.0044 10.0743C1.68629 9.75675 1.43386 9.37963 1.26152 8.96449C1.08918 8.54935 1.00032 8.10433 1 7.65485V3.28258C1.00047 2.67734 1.24111 2.09704 1.66907 1.66907C2.09704 1.24111 2.67734 1.00047 3.28258 1H7.65485C8.56237 1 9.43255 1.36176 10.0743 2.0044L16.3301 8.26016C16.5424 8.47209 16.7109 8.72383 16.8259 9.00096C16.9408 9.27809 17 9.57517 17 9.8752C17 10.1752 16.9408 10.4723 16.8259 10.7494C16.7109 11.0266 16.5424 11.2783 16.3301 11.4902L13.9097 13.9097Z" stroke="#FCFCFC" stroke-width="1.5" stroke-linecap="round" stroke-linejoin="round"/>
<path d="M6.44513 8.72769C6.74494 8.72769 7.04181 8.66864 7.3188 8.55391C7.59579 8.43918 7.84747 8.27101 8.05947 8.05901C8.27147 7.84701 8.43963 7.59533 8.55437 7.31835C8.6691 7.04136 8.72815 6.74448 8.72815 6.44467C8.72815 6.14486 8.6691 5.84799 8.55437 5.571C8.43963 5.29401 8.27147 5.04233 8.05947 4.83033C7.84747 4.61833 7.59579 4.45017 7.3188 4.33544C7.04181 4.2207 6.74494 4.16165 6.44513 4.16165C5.83964 4.16165 5.25894 4.40218 4.83079 4.83033C4.40264 5.25848 4.16211 5.83918 4.16211 6.44467C4.16211 7.05017 4.40264 7.63086 4.83079 8.05901C5.25894 8.48716 5.83964 8.72769 6.44513 8.72769Z" stroke="#FCFCFC" stroke-width="1.5" stroke-linecap="round" stroke-linejoin="round"/>
</svg>
