<svg width="16" height="20" viewBox="0 0 16 20" fill="none" xmlns="http://www.w3.org/2000/svg">
<mask id="path-1-inside-1_233_978" fill="white">
<path fill-rule="evenodd" clip-rule="evenodd" d="M8.54253 19.4902L8.53157 19.492L8.46671 19.5241L8.44844 19.5278L8.43565 19.5241L8.37079 19.4911C8.36105 19.4886 8.35374 19.4905 8.34887 19.4966L8.34522 19.5058L8.32969 19.8982L8.33425 19.9165L8.34339 19.9284L8.43839 19.9963L8.4521 19.9999L8.46306 19.9963L8.55806 19.9284L8.56903 19.9137L8.57268 19.8982L8.55715 19.5067C8.55471 19.4969 8.54984 19.4914 8.54253 19.4902ZM8.7837 19.3866L8.77091 19.3884L8.60283 19.4737L8.59369 19.4828L8.59095 19.4929L8.60739 19.8872L8.61196 19.8982L8.61927 19.9055L8.80288 19.9898C8.81445 19.9929 8.82329 19.9905 8.82938 19.9825L8.83303 19.9697L8.80197 19.4067C8.79893 19.3951 8.79284 19.3884 8.7837 19.3866ZM8.13054 19.3884C8.12651 19.3859 8.1217 19.3852 8.11711 19.3862C8.11251 19.3872 8.10849 19.39 8.10588 19.3939L8.10039 19.4067L8.06934 19.9697C8.06994 19.9807 8.07512 19.988 8.08487 19.9917L8.09857 19.9898L8.28218 19.9046L8.29132 19.8972L8.29406 19.8872L8.3105 19.4929L8.30776 19.4819L8.29863 19.4727L8.13054 19.3884Z"/>
</mask>
<path d="M8.54253 19.4902L8.70752 18.5039L8.5425 18.4763L8.37749 18.5039L8.54253 19.4902ZM8.53157 19.492L8.36653 18.5057L8.22067 18.5301L8.08812 18.5957L8.53157 19.492ZM8.46671 19.5241L8.66351 20.5045L8.79236 20.4787L8.91016 20.4204L8.46671 19.5241ZM8.44844 19.5278L8.17281 20.489L8.40669 20.5561L8.64524 20.5082L8.44844 19.5278ZM8.43565 19.5241L7.98212 20.4153L8.06771 20.4589L8.16002 20.4854L8.43565 19.5241ZM8.37079 19.4911L8.82433 18.5998L8.72369 18.5486L8.61416 18.5212L8.37079 19.4911ZM8.34887 19.4966L7.56689 18.8733L7.47468 18.989L7.41992 19.1264L8.34887 19.4966ZM8.34522 19.5058L7.41626 19.1356L7.35278 19.2949L7.346 19.4662L8.34522 19.5058ZM8.32969 19.8982L7.33047 19.8586L7.32482 20.0013L7.35934 20.1399L8.32969 19.8982ZM8.33425 19.9165L7.3639 20.1582L7.41414 20.3599L7.54055 20.5248L8.33425 19.9165ZM8.34339 19.9284L7.54969 20.5367L7.64061 20.6554L7.76223 20.7422L8.34339 19.9284ZM8.43839 19.9963L7.85724 20.8101L8.00476 20.9154L8.17988 20.9623L8.43839 19.9963ZM8.4521 19.9999L8.19358 20.9659L8.48412 21.0437L8.76934 20.9483L8.4521 19.9999ZM8.46306 19.9963L8.7803 20.9446L8.92233 20.8971L9.04421 20.8101L8.46306 19.9963ZM8.55806 19.9284L9.13922 20.7422L9.26592 20.6517L9.35912 20.527L8.55806 19.9284ZM8.56903 19.9137L9.37008 20.5123L9.495 20.3452L9.54263 20.142L8.56903 19.9137ZM8.57268 19.8982L9.54629 20.1264L9.57728 19.9942L9.57189 19.8585L8.57268 19.8982ZM8.55715 19.5067L9.55636 19.467L9.5523 19.3645L9.5275 19.265L8.55715 19.5067ZM8.7837 19.3866L8.9805 18.4061L8.81199 18.3723L8.64185 18.3967L8.7837 19.3866ZM8.77091 19.3884L8.62906 18.3985L8.46569 18.4219L8.31851 18.4966L8.77091 19.3884ZM8.60283 19.4737L8.15042 18.5818L8.00753 18.6543L7.89443 18.7678L8.60283 19.4737ZM8.59369 19.4828L7.8853 18.777L7.69818 18.9648L7.62867 19.2207L8.59369 19.4828ZM8.59095 19.4929L7.62593 19.2307L7.58537 19.38L7.59182 19.5346L8.59095 19.4929ZM8.60739 19.8872L7.60826 19.9288L7.61567 20.1064L7.68383 20.2706L8.60739 19.8872ZM8.61196 19.8982L7.6884 20.2816L7.76413 20.464L7.90353 20.6039L8.61196 19.8982ZM8.61927 19.9055L7.91083 20.6113L8.03804 20.739L8.20183 20.8142L8.61927 19.9055ZM8.80288 19.9898L8.38544 20.8986L8.46397 20.9346L8.54752 20.9567L8.80288 19.9898ZM8.82938 19.9825L9.62307 20.5908L9.73899 20.4396L9.79117 20.2563L8.82938 19.9825ZM8.83303 19.9697L9.79482 20.2435L9.84075 20.0821L9.83151 19.9146L8.83303 19.9697ZM8.80197 19.4067L9.80045 19.3516L9.79489 19.2508L9.76927 19.1531L8.80197 19.4067ZM8.13054 19.3884L7.61087 20.2428L7.64564 20.2639L7.68202 20.2822L8.13054 19.3884ZM8.10588 19.3939L7.27323 18.8401L7.22233 18.9166L7.18623 19.0012L8.10588 19.3939ZM8.10039 19.4067L7.18074 19.014L7.11161 19.1759L7.10191 19.3516L8.10039 19.4067ZM8.06934 19.9697L7.07085 19.9146L7.06781 19.9698L7.07086 20.0249L8.06934 19.9697ZM8.08487 19.9917L7.73262 20.9276L7.96814 21.0162L8.21756 20.9828L8.08487 19.9917ZM8.09857 19.9898L8.23126 20.981L8.3819 20.9608L8.51975 20.8968L8.09857 19.9898ZM8.28218 19.9046L8.70336 20.8116L8.81352 20.7604L8.90823 20.6844L8.28218 19.9046ZM8.29132 19.8972L8.91736 20.677L9.17105 20.4734L9.25634 20.1594L8.29132 19.8972ZM8.29406 19.8872L9.25908 20.1493L9.28851 20.041L9.29319 19.9288L8.29406 19.8872ZM8.3105 19.4929L9.30963 19.5346L9.31563 19.3908L9.28084 19.2512L8.3105 19.4929ZM8.30776 19.4819L9.2781 19.2402L9.21127 18.9719L9.01615 18.7761L8.30776 19.4819ZM8.29863 19.4727L9.00702 18.7669L8.89235 18.6518L8.74715 18.579L8.29863 19.4727ZM8.37749 18.5039L8.36653 18.5057L8.69662 20.4783L8.70758 20.4765L8.37749 18.5039ZM8.08812 18.5957L8.02326 18.6278L8.91016 20.4204L8.97502 20.3883L8.08812 18.5957ZM8.26992 18.5436L8.25165 18.5473L8.64524 20.5082L8.66351 20.5045L8.26992 18.5436ZM8.72407 18.5665L8.71128 18.5628L8.16002 20.4854L8.17281 20.489L8.72407 18.5665ZM8.88919 18.6329L8.82433 18.5998L7.91726 20.3823L7.98212 20.4153L8.88919 18.6329ZM8.61416 18.5212C8.50074 18.4927 8.32248 18.4686 8.11472 18.5207C7.88998 18.577 7.70054 18.7056 7.56689 18.8733L9.13085 20.1199C9.00207 20.2815 8.81873 20.406 8.60129 20.4606C8.40083 20.5109 8.2311 20.487 8.12743 20.461L8.61416 18.5212ZM7.41992 19.1264L7.41626 19.1356L9.27417 19.8759L9.27782 19.8668L7.41992 19.1264ZM7.346 19.4662L7.33047 19.8586L9.3289 19.9377L9.34443 19.5453L7.346 19.4662ZM7.35934 20.1399L7.3639 20.1582L9.3046 19.6748L9.30004 19.6565L7.35934 20.1399ZM7.54055 20.5248L7.54969 20.5367L9.13709 19.3201L9.12795 19.3082L7.54055 20.5248ZM7.76223 20.7422L7.85724 20.8101L9.01955 19.1825L8.92455 19.1146L7.76223 20.7422ZM8.17988 20.9623L8.19358 20.9659L8.71061 19.0339L8.69691 19.0303L8.17988 20.9623ZM8.76934 20.9483L8.7803 20.9446L8.14582 19.0479L8.13485 19.0516L8.76934 20.9483ZM9.04421 20.8101L9.13922 20.7422L7.97691 19.1146L7.88191 19.1825L9.04421 20.8101ZM9.35912 20.527L9.37008 20.5123L7.76797 19.3152L7.757 19.3298L9.35912 20.527ZM9.54263 20.142L9.54629 20.1264L7.59907 19.6699L7.59542 19.6855L9.54263 20.142ZM9.57189 19.8585L9.55636 19.467L7.55794 19.5463L7.57347 19.9378L9.57189 19.8585ZM9.5275 19.265C9.47011 19.0346 9.25228 18.595 8.70752 18.5039L8.37755 20.4765C8.15746 20.4396 7.95381 20.3284 7.80306 20.1582C7.66655 20.0041 7.61077 19.8446 7.5868 19.7484L9.5275 19.265ZM8.64185 18.3967L8.62906 18.3985L8.91276 20.3783L8.92555 20.3765L8.64185 18.3967ZM8.31851 18.4966L8.15042 18.5818L9.05523 20.3655L9.22331 20.2802L8.31851 18.4966ZM7.89443 18.7678L7.8853 18.777L9.30208 20.1886L9.31122 20.1795L7.89443 18.7678ZM7.62867 19.2207L7.62593 19.2307L9.55597 19.7551L9.55871 19.745L7.62867 19.2207ZM7.59182 19.5346L7.60826 19.9288L9.60652 19.8455L9.59008 19.4512L7.59182 19.5346ZM7.68383 20.2706L7.6884 20.2816L9.53552 19.5147L9.53095 19.5037L7.68383 20.2706ZM7.90353 20.6039L7.91083 20.6113L9.3277 19.1997L9.3204 19.1924L7.90353 20.6039ZM8.20183 20.8142L8.38544 20.8986L9.22032 19.0811L9.03671 18.9968L8.20183 20.8142ZM8.54752 20.9567C8.67346 20.99 8.86526 21.0149 9.08498 20.9541C9.31865 20.8894 9.50068 20.7505 9.62307 20.5908L8.03568 19.3742C8.15198 19.2225 8.32655 19.0888 8.55139 19.0266C8.76228 18.9682 8.94388 18.9928 9.05825 19.023L8.54752 20.9567ZM9.79117 20.2563L9.79482 20.2435L7.87124 19.6959L7.86758 19.7087L9.79117 20.2563ZM9.83151 19.9146L9.80045 19.3516L7.80349 19.4618L7.83455 20.0248L9.83151 19.9146ZM9.76927 19.1531C9.70257 18.8987 9.47751 18.5059 8.9805 18.4061L8.5869 20.367C8.38774 20.327 8.19877 20.2242 8.05399 20.0643C7.92002 19.9165 7.86122 19.7616 7.83467 19.6604L9.76927 19.1531ZM8.65021 18.534C8.42544 18.3973 8.15638 18.3529 7.89942 18.4102L8.33479 20.3622C8.08703 20.4175 7.82759 20.3746 7.61087 20.2428L8.65021 18.534ZM7.89942 18.4102C7.64247 18.4675 7.41837 18.6219 7.27323 18.8401L8.93852 19.9477C8.79861 20.1581 8.58256 20.3069 8.33479 20.3622L7.89942 18.4102ZM7.18623 19.0012L7.18074 19.014L9.02004 19.7995L9.02553 19.7866L7.18623 19.0012ZM7.10191 19.3516L7.07085 19.9146L9.06782 20.0248L9.09888 19.4618L7.10191 19.3516ZM7.07086 20.0249C7.07918 20.1752 7.12363 20.3715 7.25666 20.56C7.3923 20.7522 7.5711 20.8668 7.73262 20.9276L8.43711 19.0558C8.58889 19.1129 8.76022 19.222 8.89069 19.4068C9.01855 19.588 9.0601 19.7752 9.06781 19.9144L7.07086 20.0249ZM8.21756 20.9828L8.23126 20.981L7.96587 18.9987L7.95217 19.0005L8.21756 20.9828ZM8.51975 20.8968L8.70336 20.8116L7.861 18.9976L7.67739 19.0829L8.51975 20.8968ZM8.90823 20.6844L8.91736 20.677L7.66527 19.1175L7.65614 19.1248L8.90823 20.6844ZM9.25634 20.1594L9.25908 20.1493L7.32904 19.625L7.3263 19.6351L9.25634 20.1594ZM9.29319 19.9288L9.30963 19.5346L7.31137 19.4512L7.29493 19.8455L9.29319 19.9288ZM9.28084 19.2512L9.2781 19.2402L7.33742 19.7237L7.34016 19.7347L9.28084 19.2512ZM9.01615 18.7761L9.00702 18.7669L7.59023 20.1786L7.59937 20.1877L9.01615 18.7761ZM8.74715 18.579L8.57906 18.4946L7.68202 20.2822L7.85011 20.3665L8.74715 18.579Z" fill="#FCFCFC" mask="url(#path-1-inside-1_233_978)"/>
<path d="M1.76976 16.6503L1.8784 17.0032H2.24763H12.2259H12.8671L12.7108 16.3813C12.3151 14.8069 11.9578 11.8893 13.5768 8.96502L13.5769 8.96491C15.2364 5.96566 14.6211 2.9562 14.2302 1.68658L14.1216 1.33368H13.7524H3.7741H3.13289L3.28919 1.95556C3.68486 3.52993 4.04216 6.44752 2.42316 9.37183L2.4231 9.37194C0.763554 12.3712 1.37892 15.3807 1.76976 16.6503ZM1.70122 8.96501L1.70125 8.96495C3.35314 5.98012 2.75123 2.98588 2.35853 1.7021L2.35851 1.70202C2.18333 1.12968 2.59898 0.5 3.22234 0.5H13.8008C14.3238 0.5 14.821 0.813074 14.9904 1.34758L14.9908 1.34877C15.4083 2.65457 16.1614 6.00748 14.2988 9.37183L14.2987 9.3719C12.6469 12.3566 13.2478 15.3508 13.6406 16.6348L13.6406 16.6348C13.8159 17.2076 13.4005 17.8368 12.7777 17.8368H2.19921C1.67625 17.8368 1.17905 17.5238 1.0096 16.9893L1.00922 16.9881C0.591649 15.6823 -0.161365 12.3294 1.70122 8.96501ZM4.96772 10.3807L4.61352 10.7336L4.96772 10.3807C4.88997 10.3026 4.84596 10.1964 4.84596 10.0853C4.84596 9.97413 4.88997 9.86791 4.96772 9.78987L4.61352 9.43696L4.96772 9.78987C5.04541 9.7119 5.15039 9.66842 5.25947 9.66842H8C8.10908 9.66842 8.21406 9.7119 8.29175 9.78987C8.3695 9.86791 8.41351 9.97413 8.41351 10.0853C8.41351 10.1964 8.3695 10.3026 8.29175 10.3807C8.21406 10.4586 8.10908 10.5021 8 10.5021H5.25947C5.15039 10.5021 5.04541 10.4586 4.96772 10.3807ZM5.75947 6.4179C5.75947 6.30676 5.80348 6.20054 5.88123 6.1225C5.95892 6.04453 6.0639 6.00105 6.17298 6.00105H11.654C11.7631 6.00105 11.8681 6.04453 11.9458 6.1225L12.3 5.76959L11.9458 6.1225C12.0235 6.20053 12.0675 6.30676 12.0675 6.4179C12.0675 6.52904 12.0235 6.63526 11.9458 6.71329L12.3 7.0662L11.9458 6.71329C11.8681 6.79127 11.7631 6.83474 11.654 6.83474H6.17298C6.0639 6.83474 5.95892 6.79127 5.88123 6.71329C5.80348 6.63526 5.75947 6.52904 5.75947 6.4179Z" fill="black" stroke="#FCFCFC"/>
</svg>
