<svg width="12" height="16" viewBox="0 0 12 16" fill="none" xmlns="http://www.w3.org/2000/svg">
<path d="M4.65656 1.22863L5.23343 0.614315L4.65656 0L4.07969 0.614315L4.65656 1.22863ZM11.1841 16C11.4005 16 11.608 15.9085 11.761 15.7455C11.914 15.5826 12 15.3615 12 15.1311C12 14.9006 11.914 14.6796 11.761 14.5167C11.608 14.3537 11.4005 14.2622 11.1841 14.2622V16ZM9.31312 4.95884L5.23343 0.614315L4.07969 1.84295L8.15938 6.18747L9.31312 4.95884ZM4.07969 0.614315L0 4.95884L1.15374 6.18747L5.23343 1.84295L4.07969 0.614315ZM3.84062 1.22863V9.91767H5.4725V1.22863H3.84062ZM9.55219 16H11.1841V14.2622H9.55219V16ZM3.84062 9.91767C3.84062 11.5308 4.44237 13.0779 5.5135 14.2185C6.58463 15.3592 8.03738 16 9.55219 16V14.2622C8.47019 14.2622 7.4325 13.8045 6.66741 12.9897C5.90232 12.175 5.4725 11.0699 5.4725 9.91767H3.84062Z" fill="#FCFCFC"/>
<path d="M4.65656 1.22863L5.23343 0.614315L4.65656 0L4.07969 0.614315L4.65656 1.22863ZM11.1841 16C11.4005 16 11.608 15.9085 11.761 15.7455C11.914 15.5826 12 15.3615 12 15.1311C12 14.9006 11.914 14.6796 11.761 14.5167C11.608 14.3537 11.4005 14.2622 11.1841 14.2622V16ZM9.31312 4.95884L5.23343 0.614315L4.07969 1.84295L8.15938 6.18747L9.31312 4.95884ZM4.07969 0.614315L0 4.95884L1.15374 6.18747L5.23343 1.84295L4.07969 0.614315ZM3.84062 1.22863V9.91767H5.4725V1.22863H3.84062ZM9.55219 16H11.1841V14.2622H9.55219V16ZM3.84062 9.91767C3.84062 11.5308 4.44237 13.0779 5.5135 14.2185C6.58463 15.3592 8.03738 16 9.55219 16V14.2622C8.47019 14.2622 7.4325 13.8045 6.66741 12.9897C5.90232 12.175 5.4725 11.0699 5.4725 9.91767H3.84062Z" fill="#FCFCFC"/>
</svg>
