<svg width="47" height="50" viewBox="0 0 47 50" fill="none" xmlns="http://www.w3.org/2000/svg">
<path d="M3.83204 3.13969L2.96025 0.5L47 0.502995L46.9305 42.4275L0.905849 49.5L0 4.11093L3.83204 3.13969Z" fill="#A8E6A0"/>
<rect x="7" y="15" width="32" height="20" rx="2" fill="#2E8B57"/>
<path d="M15.914 30.331H13.538C12.856 30.331 12.2437 30.221 11.701 30.001C11.1657 29.781 10.711 29.473 10.337 29.077C9.963 28.681 9.677 28.208 9.479 27.658C9.281 27.1007 9.182 26.4847 9.182 25.81C9.182 25.1353 9.28467 24.5157 9.49 23.951C9.69533 23.3863 9.985 22.9023 10.359 22.499C10.7403 22.0883 11.1987 21.7693 11.734 21.542C12.2767 21.3147 12.8853 21.201 13.56 21.201C14.1613 21.201 14.715 21.2927 15.221 21.476C15.7343 21.6593 16.178 21.927 16.552 22.279C16.926 22.631 17.2157 23.0673 17.421 23.588C17.6337 24.1013 17.74 24.6917 17.74 25.359C17.74 25.777 17.696 26.1583 17.608 26.503C17.52 26.8403 17.388 27.1337 17.212 27.383C17.0433 27.625 16.8343 27.812 16.585 27.944C16.3357 28.076 16.0497 28.142 15.727 28.142C15.3457 28.142 15.0413 28.0503 14.814 27.867C14.5867 27.6837 14.4583 27.438 14.429 27.13H14.374C14.2787 27.438 14.1283 27.68 13.923 27.856C13.7177 28.032 13.439 28.12 13.087 28.12C12.8377 28.12 12.6067 28.0723 12.394 27.977C12.1813 27.8743 11.9943 27.7277 11.833 27.537C11.679 27.3463 11.5543 27.108 11.459 26.822C11.371 26.5287 11.327 26.1913 11.327 25.81C11.327 25.4287 11.371 25.0913 11.459 24.798C11.5543 24.5047 11.679 24.2627 11.833 24.072C11.9943 23.8813 12.1813 23.7383 12.394 23.643C12.6067 23.5403 12.8377 23.489 13.087 23.489C13.395 23.489 13.6443 23.5733 13.835 23.742C14.033 23.9033 14.1723 24.1013 14.253 24.336H14.308V23.588H15.386V26.657C15.386 26.8697 15.43 27.0237 15.518 27.119C15.606 27.2143 15.7343 27.262 15.903 27.262C16.1817 27.262 16.4017 27.1153 16.563 26.822C16.7243 26.5287 16.805 26.0923 16.805 25.513V25.15C16.805 24.6733 16.7243 24.2443 16.563 23.863C16.4017 23.4817 16.1743 23.159 15.881 22.895C15.595 22.631 15.254 22.4293 14.858 22.29C14.462 22.1433 14.0293 22.07 13.56 22.07C13.0393 22.07 12.5663 22.158 12.141 22.334C11.723 22.51 11.3637 22.752 11.063 23.06C10.7623 23.368 10.5313 23.7347 10.37 24.16C10.2087 24.5853 10.128 25.051 10.128 25.557V26.041C10.128 26.547 10.2087 27.009 10.37 27.427C10.5313 27.845 10.7587 28.2043 11.052 28.505C11.3527 28.8057 11.712 29.0367 12.13 29.198C12.548 29.3667 13.0173 29.451 13.538 29.451H15.914V30.331ZM13.45 27.207C13.692 27.207 13.8937 27.13 14.055 26.976C14.2237 26.8147 14.308 26.6277 14.308 26.415V25.117C14.308 24.9117 14.2273 24.743 14.066 24.611C13.9047 24.4717 13.6993 24.402 13.45 24.402C13.142 24.402 12.9037 24.4973 12.735 24.688C12.5737 24.8713 12.493 25.1133 12.493 25.414V26.195C12.493 26.503 12.5737 26.7487 12.735 26.932C12.9037 27.1153 13.142 27.207 13.45 27.207ZM22.6201 23.258H23.9401L21.6301 30.023C21.5568 30.2283 21.4725 30.4043 21.3771 30.551C21.2891 30.705 21.1828 30.8297 21.0581 30.925C20.9335 31.0203 20.7831 31.09 20.6071 31.134C20.4311 31.178 20.2258 31.2 19.9911 31.2H19.1441V30.078H20.1781L20.4421 29.275L18.3851 23.258H19.7821L20.7831 26.294L21.1571 27.746H21.2231L21.6191 26.294L22.6201 23.258ZM27.0705 29.132C26.6598 29.132 26.2895 29.0623 25.9595 28.923C25.6368 28.7837 25.3582 28.582 25.1235 28.318C24.8962 28.054 24.7202 27.7387 24.5955 27.372C24.4708 26.998 24.4085 26.58 24.4085 26.118C24.4085 25.656 24.4708 25.2417 24.5955 24.875C24.7202 24.5083 24.8962 24.1967 25.1235 23.94C25.3582 23.676 25.6368 23.4743 25.9595 23.335C26.2895 23.1957 26.6598 23.126 27.0705 23.126C27.4812 23.126 27.8515 23.1957 28.1815 23.335C28.5115 23.4743 28.7902 23.676 29.0175 23.94C29.2522 24.1967 29.4318 24.5083 29.5565 24.875C29.6812 25.2417 29.7435 25.656 29.7435 26.118C29.7435 26.58 29.6812 26.998 29.5565 27.372C29.4318 27.7387 29.2522 28.054 29.0175 28.318C28.7902 28.582 28.5115 28.7837 28.1815 28.923C27.8515 29.0623 27.4812 29.132 27.0705 29.132ZM27.0705 27.999C27.4445 27.999 27.7378 27.8853 27.9505 27.658C28.1632 27.4307 28.2695 27.097 28.2695 26.657V25.59C28.2695 25.1573 28.1632 24.8273 27.9505 24.6C27.7378 24.3727 27.4445 24.259 27.0705 24.259C26.7038 24.259 26.4142 24.3727 26.2015 24.6C25.9888 24.8273 25.8825 25.1573 25.8825 25.59V26.657C25.8825 27.097 25.9888 27.4307 26.2015 27.658C26.4142 27.8853 26.7038 27.999 27.0705 27.999ZM34.4237 28.043H34.3687C34.3174 28.1897 34.2477 28.329 34.1597 28.461C34.0791 28.5857 33.9727 28.6993 33.8407 28.802C33.7161 28.9047 33.5621 28.9853 33.3787 29.044C33.2027 29.1027 32.9974 29.132 32.7627 29.132C32.1687 29.132 31.7141 28.9377 31.3987 28.549C31.0834 28.1603 30.9257 27.6067 30.9257 26.888V23.258H32.3337V26.745C32.3337 27.141 32.4107 27.4453 32.5647 27.658C32.7187 27.8633 32.9644 27.966 33.3017 27.966C33.4411 27.966 33.5767 27.9477 33.7087 27.911C33.8481 27.8743 33.9691 27.8193 34.0717 27.746C34.1744 27.6653 34.2587 27.57 34.3247 27.46C34.3907 27.3427 34.4237 27.207 34.4237 27.053V23.258H35.8317V29H34.4237V28.043Z" fill="white"/>
</svg>
