<svg width="18" height="18" viewBox="0 0 18 18" fill="none" xmlns="http://www.w3.org/2000/svg">
<path d="M11.0491 1.43525C11.0696 1.41137 11.0952 1.39159 11.1242 1.37713C11.1532 1.36267 11.1852 1.35382 11.218 1.35113C11.2509 1.34844 11.284 1.35195 11.3153 1.36146C11.3467 1.37097 11.3756 1.38628 11.4003 1.40645L12.2974 2.13726L9.47578 5.39981H11.3439L13.393 3.03097L15.0003 4.34229C15.0479 4.38114 15.0771 4.43563 15.0818 4.49414C15.0865 4.55265 15.0664 4.61055 15.0256 4.6555L14.3543 5.39981H16.2457C16.48 5.08254 16.5809 4.69698 16.5292 4.31573C16.4776 3.93447 16.2771 3.58382 15.9655 3.32978L12.3655 0.393035C12.1918 0.251555 11.9888 0.144308 11.7688 0.0778432C11.5489 0.0113782 11.3165 -0.0129096 11.0861 0.00646334C10.8556 0.0258363 10.6318 0.0884632 10.4284 0.190519C10.225 0.292575 10.0462 0.431918 9.90292 0.600038L5.81449 5.39981H7.67286L11.0491 1.43525ZM12.8919 11.6999C12.6984 11.6999 12.5127 11.771 12.3759 11.8976C12.239 12.0242 12.1622 12.1959 12.1622 12.3749C12.1622 12.5539 12.239 12.7256 12.3759 12.8522C12.5127 12.9788 12.6984 13.0499 12.8919 13.0499H14.8378C15.0314 13.0499 15.217 12.9788 15.3538 12.8522C15.4907 12.7256 15.5676 12.5539 15.5676 12.3749C15.5676 12.1959 15.4907 12.0242 15.3538 11.8976C15.217 11.771 15.0314 11.6999 14.8378 11.6999H12.8919ZM1.45946 5.62481C1.45946 5.44579 1.53634 5.2741 1.67319 5.14751C1.81004 5.02092 1.99565 4.9498 2.18919 4.9498H5.23265L6.39243 3.59978H2.18919C1.60858 3.59978 1.05175 3.81313 0.641199 4.1929C0.230646 4.57267 0 5.08774 0 5.62481V15.075C0 15.8507 0.333155 16.5947 0.926176 17.1433C1.5192 17.6918 2.3235 18 3.16216 18H14.8378C15.6765 18 16.4808 17.6918 17.0738 17.1433C17.6668 16.5947 18 15.8507 18 15.075V9.22487C18 8.4491 17.6668 7.7051 17.0738 7.15655C16.4808 6.608 15.6765 6.29982 14.8378 6.29982H2.18919C1.99565 6.29982 1.81004 6.22871 1.67319 6.10212C1.53634 5.97553 1.45946 5.80384 1.45946 5.62481ZM1.45946 15.075V7.53464C1.68908 7.61024 1.93232 7.64864 2.18919 7.64984H14.8378C15.7777 7.64984 16.5405 8.35545 16.5405 9.22487V15.075C16.5405 15.4927 16.3611 15.8933 16.0418 16.1887C15.7225 16.484 15.2894 16.65 14.8378 16.65H3.16216C2.71058 16.65 2.27749 16.484 1.95817 16.1887C1.63885 15.8933 1.45946 15.4927 1.45946 15.075Z" fill="#FCFCFC"/>
</svg>
