<svg width="153" height="32" viewBox="0 0 153 32" fill="none" xmlns="http://www.w3.org/2000/svg">
<rect width="153" height="32" rx="16" fill="#898989"/>
<path d="M12 13.9453C12 13.8203 12.0234 13.707 12.0703 13.6055C12.125 13.4961 12.2266 13.4414 12.375 13.4414C12.5 13.4414 12.6211 13.5703 12.7383 13.8281C12.8633 14.0859 12.9883 14.418 13.1133 14.8242C13.2461 15.2227 13.3828 15.6641 13.5234 16.1484C13.6641 16.625 13.8125 17.0898 13.9688 17.543C14.125 17.9883 14.2891 18.3906 14.4609 18.75C14.6328 19.1016 14.8164 19.3477 15.0117 19.4883C15.1992 19.4102 15.3477 19.2734 15.457 19.0781C15.5742 18.875 15.668 18.6367 15.7383 18.3633C15.8086 18.082 15.8594 17.7812 15.8906 17.4609C15.9297 17.1328 15.9648 16.8086 15.9961 16.4883C16.0352 16.1602 16.0742 15.8438 16.1133 15.5391C16.1523 15.2266 16.207 14.9531 16.2773 14.7188C16.3555 14.4844 16.4531 14.2969 16.5703 14.1562C16.6875 14.0156 16.8359 13.9453 17.0156 13.9453C17.125 13.9453 17.2227 13.957 17.3086 13.9805C17.3945 13.9961 17.4688 14.0742 17.5312 14.2148C17.5625 14.3164 17.6133 14.4648 17.6836 14.6602C17.7539 14.8555 17.832 15.082 17.918 15.3398C18.0117 15.5977 18.1133 15.875 18.2227 16.1719C18.3398 16.4609 18.457 16.7461 18.5742 17.0273C18.6992 17.3086 18.8203 17.5781 18.9375 17.8359C19.0547 18.0859 19.168 18.3008 19.2773 18.4805C19.293 18.5117 19.332 18.5625 19.3945 18.6328C19.4648 18.6953 19.5117 18.7305 19.5352 18.7383L20.0391 18.2344C20.1719 18.1016 20.2734 17.9062 20.3438 17.6484C20.4141 17.3828 20.4648 17.0781 20.4961 16.7344C20.5352 16.3906 20.5586 16.0234 20.5664 15.6328C20.582 15.2344 20.5938 14.8398 20.6016 14.4492C20.6094 14.0586 20.625 13.6797 20.6484 13.3125C20.6719 12.9453 20.7109 12.625 20.7656 12.3516C20.8203 12.0703 20.8984 11.8477 21 11.6836C21.1016 11.5195 21.2422 11.4375 21.4219 11.4375C21.4297 11.4375 21.4375 11.4414 21.4453 11.4492C21.4609 11.4492 21.4766 11.4492 21.4922 11.4492C21.5156 11.457 21.5312 11.4609 21.5391 11.4609C21.5469 11.4609 21.5664 11.4766 21.5977 11.5078C21.6289 11.5312 21.6562 11.5547 21.6797 11.5781C21.7109 11.6016 21.7344 11.625 21.75 11.6484C21.7734 11.6719 21.7891 11.6914 21.7969 11.707C21.7969 11.7617 21.7969 11.8594 21.7969 12C21.8047 12.1406 21.8086 12.293 21.8086 12.457C21.8086 12.6211 21.8086 12.7773 21.8086 12.9258C21.8164 13.0664 21.8203 13.1641 21.8203 13.2188C21.8203 13.375 21.8164 13.5898 21.8086 13.8633C21.8086 14.1367 21.7969 14.4492 21.7734 14.8008C21.7578 15.1445 21.7305 15.5156 21.6914 15.9141C21.6602 16.3047 21.6094 16.6953 21.5391 17.0859C21.4688 17.4688 21.3789 17.8398 21.2695 18.1992C21.168 18.5508 21.0391 18.8633 20.8828 19.1367C20.7344 19.4023 20.5586 19.6172 20.3555 19.7812C20.1602 19.9375 19.9258 20.0156 19.6523 20.0156C19.3867 20.0156 19.1602 19.9297 18.9727 19.7578C18.793 19.5781 18.6367 19.3594 18.5039 19.1016C18.3711 18.8359 18.2578 18.5508 18.1641 18.2461C18.0703 17.9336 17.9727 17.6445 17.8711 17.3789C17.7773 17.1133 17.6719 16.8945 17.5547 16.7227C17.4453 16.543 17.3086 16.4531 17.1445 16.4531C17.1289 16.4531 17.1055 16.457 17.0742 16.4648C17.0508 16.4727 17.0312 16.4766 17.0156 16.4766C17.0078 16.5078 16.9844 16.6445 16.9453 16.8867C16.9062 17.1289 16.8516 17.418 16.7812 17.7539C16.7109 18.082 16.625 18.4375 16.5234 18.8203C16.4219 19.2031 16.3047 19.5547 16.1719 19.875C16.0469 20.1953 15.9062 20.4648 15.75 20.6836C15.6016 20.8945 15.4375 21 15.2578 21C14.8906 21 14.5547 20.8633 14.25 20.5898C13.9453 20.3086 13.6719 19.9492 13.4297 19.5117C13.1953 19.0664 12.9883 18.5742 12.8086 18.0352C12.6289 17.4961 12.4766 16.9688 12.3516 16.4531C12.2344 15.9297 12.1445 15.4453 12.082 15C12.0273 14.5469 12 14.1953 12 13.9453ZM27.5625 19.4883C27.2656 19.6914 27.0078 19.875 26.7891 20.0391C26.5781 20.1953 26.3711 20.3281 26.168 20.4375C25.9648 20.5469 25.7461 20.6289 25.5117 20.6836C25.2852 20.7383 25.0039 20.7656 24.668 20.7656C23.9414 20.7656 23.4023 20.5742 23.0508 20.1914C22.6992 19.8008 22.5234 19.2227 22.5234 18.457C22.5234 18.1602 22.5625 17.8516 22.6406 17.5312C22.7188 17.2109 22.832 16.8945 22.9805 16.582C23.1367 16.2617 23.3203 15.9609 23.5312 15.6797C23.7422 15.3906 23.9805 15.1367 24.2461 14.918C24.5117 14.6992 24.793 14.5273 25.0898 14.4023C25.3945 14.2695 25.7148 14.2031 26.0508 14.2031C26.6133 14.2578 27.0547 14.3984 27.375 14.625C27.6953 14.8438 27.9375 15.1289 28.1016 15.4805C28.2656 15.8242 28.3789 16.2109 28.4414 16.6406C28.5039 17.0625 28.5508 17.5 28.582 17.9531C28.6211 18.4062 28.668 18.8594 28.7227 19.3125C28.7773 19.7656 28.8906 20.1836 29.0625 20.5664C28.9609 20.8242 28.8633 21.0039 28.7695 21.1055C28.6836 21.2148 28.5859 21.2344 28.4766 21.1641C28.3672 21.0938 28.2383 20.9219 28.0898 20.6484C27.9492 20.375 27.7734 19.9883 27.5625 19.4883ZM23.5195 18.4805C23.5195 18.9258 23.6016 19.2539 23.7656 19.4648C23.9375 19.668 24.2383 19.7695 24.668 19.7695C24.9883 19.7695 25.293 19.7148 25.582 19.6055C25.8789 19.4883 26.1367 19.332 26.3555 19.1367C26.5742 18.9336 26.75 18.6914 26.8828 18.4102C27.0156 18.1289 27.082 17.8164 27.082 17.4727C27.082 17.332 27.0859 17.1367 27.0938 16.8867C27.1016 16.6289 27.0859 16.375 27.0469 16.125C27.0078 15.875 26.9336 15.6602 26.8242 15.4805C26.7148 15.293 26.5508 15.1992 26.332 15.1992C25.9258 15.1992 25.5508 15.3047 25.207 15.5156C24.8633 15.7188 24.5664 15.9805 24.3164 16.3008C24.0664 16.6211 23.8711 16.9766 23.7305 17.3672C23.5898 17.75 23.5195 18.1211 23.5195 18.4805ZM30.082 14.3672C30.082 14.1406 30.0664 13.9219 30.0352 13.7109C30.0039 13.4922 29.9961 13.3008 30.0117 13.1367C30.0273 12.9648 30.0859 12.8281 30.1875 12.7266C30.2969 12.625 30.4922 12.5742 30.7734 12.5742C30.8594 12.7539 30.9414 13.0273 31.0195 13.3945C31.1055 13.7617 31.1875 14.1836 31.2656 14.6602C31.3438 15.1367 31.418 15.6562 31.4883 16.2188C31.5586 16.7734 31.6211 17.332 31.6758 17.8945C31.7383 18.457 31.7891 19.0117 31.8281 19.5586C31.875 20.0977 31.9102 20.5898 31.9336 21.0352C31.6758 21.207 31.4688 21.2188 31.3125 21.0703C31.1562 20.9219 31.0273 20.6719 30.9258 20.3203C30.8242 19.9609 30.7461 19.5273 30.6914 19.0195C30.6367 18.5039 30.582 17.9727 30.5273 17.4258C30.4805 16.8711 30.4219 16.3281 30.3516 15.7969C30.2812 15.2578 30.1914 14.7812 30.082 14.3672ZM32.8242 14.3672C32.8242 14.1406 32.8086 13.9219 32.7773 13.7109C32.7461 13.4922 32.7383 13.3008 32.7539 13.1367C32.7695 12.9648 32.8281 12.8281 32.9297 12.7266C33.0391 12.625 33.2344 12.5742 33.5156 12.5742C33.6016 12.7539 33.6836 13.0273 33.7617 13.3945C33.8477 13.7617 33.9297 14.1836 34.0078 14.6602C34.0859 15.1367 34.1602 15.6562 34.2305 16.2188C34.3008 16.7734 34.3633 17.332 34.418 17.8945C34.4805 18.457 34.5312 19.0117 34.5703 19.5586C34.6172 20.0977 34.6523 20.5898 34.6758 21.0352C34.418 21.207 34.2109 21.2188 34.0547 21.0703C33.8984 20.9219 33.7695 20.6719 33.668 20.3203C33.5664 19.9609 33.4883 19.5273 33.4336 19.0195C33.3789 18.5039 33.3242 17.9727 33.2695 17.4258C33.2227 16.8711 33.1641 16.3281 33.0938 15.7969C33.0234 15.2578 32.9336 14.7812 32.8242 14.3672ZM35.2852 17.7422C35.2852 17.3203 35.3359 16.8984 35.4375 16.4766C35.5391 16.0547 35.6992 15.6758 35.918 15.3398C36.1445 15.0039 36.4336 14.7305 36.7852 14.5195C37.1445 14.3086 37.5781 14.2031 38.0859 14.2031C38.375 14.2031 38.6289 14.2578 38.8477 14.3672C39.0664 14.4688 39.25 14.6055 39.3984 14.7773C39.5469 14.9492 39.6562 15.1523 39.7266 15.3867C39.8047 15.6133 39.8438 15.8516 39.8438 16.1016C39.8438 16.5 39.75 16.8867 39.5625 17.2617C39.3828 17.6367 39.1367 17.9688 38.8242 18.2578C38.5195 18.5391 38.168 18.7539 37.7695 18.9023C37.3711 19.043 36.9648 19.0742 36.5508 18.9961C36.5586 19.2227 36.6328 19.4062 36.7734 19.5469C36.9219 19.6797 37.0977 19.7812 37.3008 19.8516C37.5039 19.9219 37.7148 19.9688 37.9336 19.9922C38.1523 20.0078 38.3477 20.0156 38.5195 20.0156C38.6992 20.0156 38.8672 20 39.0234 19.9688C39.1797 19.9375 39.3359 19.9023 39.4922 19.8633C39.6484 19.8242 39.8047 19.7891 39.9609 19.7578C40.125 19.7266 40.2969 19.7109 40.4766 19.7109C40.5469 19.7109 40.6172 19.7148 40.6875 19.7227C40.7578 19.7305 40.8242 19.75 40.8867 19.7812C40.9492 19.8047 41 19.8477 41.0391 19.9102C41.0781 19.9648 41.0977 20.0352 41.0977 20.1211C41.0977 20.2695 41.043 20.3945 40.9336 20.4961C40.8242 20.5898 40.6836 20.6719 40.5117 20.7422C40.3477 20.8125 40.1641 20.8672 39.9609 20.9062C39.7578 20.9375 39.5586 20.9648 39.3633 20.9883C39.1758 21.0039 39 21.0117 38.8359 21.0117C38.6797 21.0195 38.5625 21.0234 38.4844 21.0234C37.9844 21.0234 37.5352 20.9453 37.1367 20.7891C36.7383 20.625 36.4023 20.4023 36.1289 20.1211C35.8555 19.832 35.6445 19.4883 35.4961 19.0898C35.3555 18.6836 35.2852 18.2344 35.2852 17.7422ZM36.5273 16.9805C36.5273 17.2539 36.5625 17.4531 36.6328 17.5781C36.7109 17.7031 36.8945 17.7656 37.1836 17.7656C37.3867 17.7656 37.5859 17.7305 37.7812 17.6602C37.9766 17.582 38.1523 17.4766 38.3086 17.3438C38.4727 17.2109 38.6016 17.0547 38.6953 16.875C38.7891 16.6953 38.8359 16.5 38.8359 16.2891C38.8359 16.1719 38.8242 16.0508 38.8008 15.9258C38.7852 15.8008 38.7461 15.6875 38.6836 15.5859C38.6211 15.4766 38.5391 15.3906 38.4375 15.3281C38.3438 15.2578 38.2188 15.2227 38.0625 15.2227C37.8281 15.2227 37.6133 15.2773 37.418 15.3867C37.2305 15.4883 37.0703 15.625 36.9375 15.7969C36.8047 15.9609 36.7031 16.1484 36.6328 16.3594C36.5625 16.5625 36.5273 16.7695 36.5273 16.9805ZM41.5664 15.0938C41.5664 15.0703 41.5703 15.0508 41.5781 15.0352C41.5781 15.0195 41.582 15 41.5898 14.9766C41.6211 14.9375 41.668 14.8867 41.7305 14.8242C41.793 14.7617 41.832 14.7305 41.8477 14.7305H44.2031C44.2031 14.6445 44.1914 14.5078 44.168 14.3203C44.1445 14.1328 44.1211 13.9258 44.0977 13.6992C44.082 13.4727 44.0781 13.2383 44.0859 12.9961C44.0938 12.7461 44.125 12.5234 44.1797 12.3281C44.2422 12.125 44.3359 11.9609 44.4609 11.8359C44.5938 11.7031 44.7773 11.6367 45.0117 11.6367C45.0117 12.4258 45.0664 13.0586 45.1758 13.5352C45.2852 14.0117 45.4297 14.3789 45.6094 14.6367C45.7969 14.8945 46.0078 15.0625 46.2422 15.1406C46.4766 15.2188 46.7148 15.2539 46.957 15.2461C47.207 15.2305 47.4492 15.1914 47.6836 15.1289C47.918 15.0664 48.125 15.0234 48.3047 15C48.4922 14.9766 48.6406 14.9961 48.75 15.0586C48.8594 15.1133 48.9141 15.25 48.9141 15.4688C48.9141 15.6328 48.875 15.75 48.7969 15.8203C48.7266 15.8906 48.5859 15.9453 48.375 15.9844C48.3125 15.9922 48.207 16.0078 48.0586 16.0312C47.918 16.0469 47.7578 16.0625 47.5781 16.0781C47.3984 16.0938 47.207 16.1133 47.0039 16.1367C46.8008 16.1523 46.6094 16.168 46.4297 16.1836C46.25 16.1992 46.0859 16.2109 45.9375 16.2188C45.7891 16.2188 45.6797 16.2188 45.6094 16.2188C45.6094 16.2578 45.6055 16.3242 45.5977 16.418C45.5898 16.5117 45.5859 16.5742 45.5859 16.6055C45.5859 16.9492 45.6406 17.2852 45.75 17.6133C45.8594 17.9336 45.9766 18.2539 46.1016 18.5742C46.2344 18.8945 46.3555 19.2148 46.4648 19.5352C46.5742 19.8555 46.6289 20.1875 46.6289 20.5312C46.6289 20.5938 46.6211 20.6602 46.6055 20.7305C46.5977 20.793 46.5742 20.8516 46.5352 20.9062C46.5039 20.9531 46.4531 20.9883 46.3828 21.0117C46.3203 21.043 46.2305 21.0391 46.1133 21C45.8164 20.9219 45.5938 20.7539 45.4453 20.4961C45.3047 20.2383 45.1992 19.9336 45.1289 19.582C45.0586 19.2227 45.0117 18.8438 44.9883 18.4453C44.9648 18.0469 44.9258 17.6758 44.8711 17.332C44.8242 16.9805 44.7461 16.6836 44.6367 16.4414C44.5273 16.1914 44.3516 16.0391 44.1094 15.9844L41.8477 15.4688C41.8164 15.4688 41.7695 15.4375 41.707 15.375C41.6445 15.3047 41.6055 15.2539 41.5898 15.2227C41.582 15.207 41.5781 15.1875 41.5781 15.1641C41.5703 15.1484 41.5664 15.125 41.5664 15.0938ZM59.3086 13.9688C59.2773 13.8594 59.2148 13.7852 59.1211 13.7461C59.0352 13.707 58.9375 13.6875 58.8281 13.6875C58.7266 13.6797 58.625 13.6836 58.5234 13.6992C58.4219 13.7148 58.3438 13.7227 58.2891 13.7227C58.1562 13.7148 57.9258 13.6992 57.5977 13.6758C57.2695 13.6523 56.9141 13.6289 56.5312 13.6055C56.1562 13.5742 55.8047 13.5469 55.4766 13.5234C55.1484 13.4922 54.918 13.4727 54.7852 13.4648C54.7852 13.4492 54.7812 13.4102 54.7734 13.3477C54.7656 13.2852 54.7617 13.2422 54.7617 13.2188C54.7617 13.1094 54.7695 13.0117 54.7852 12.9258C54.8086 12.8398 54.8867 12.7734 55.0195 12.7266C55.7539 12.7422 56.4766 12.7383 57.1875 12.7148C57.9062 12.6914 58.6211 12.6602 59.332 12.6211C60.0508 12.5742 60.7656 12.5312 61.4766 12.4922C62.1953 12.4531 62.918 12.4336 63.6445 12.4336C63.6445 12.7305 63.5742 12.9492 63.4336 13.0898C63.293 13.2227 63.1172 13.3125 62.9062 13.3594C62.7031 13.4062 62.4766 13.4258 62.2266 13.418C61.9766 13.4102 61.7344 13.4141 61.5 13.4297C61.2734 13.4453 61.0703 13.4922 60.8906 13.5703C60.7188 13.6406 60.6055 13.7734 60.5508 13.9688C60.543 14.0156 60.5352 14.1055 60.5273 14.2383C60.5195 14.3711 60.5117 14.5117 60.5039 14.6602C60.5039 14.8086 60.5 14.9492 60.4922 15.082C60.4922 15.207 60.4922 15.2969 60.4922 15.3516C60.4922 15.7969 60.5469 16.2383 60.6562 16.6758C60.7734 17.1055 60.8984 17.5352 61.0312 17.9648C61.1719 18.3867 61.2969 18.8125 61.4062 19.2422C61.5234 19.6641 61.582 20.0938 61.582 20.5312C61.582 20.8594 61.3945 21.0234 61.0195 21.0234C60.793 21.0234 60.5898 20.8672 60.4102 20.5547C60.2383 20.2422 60.0859 19.8438 59.9531 19.3594C59.8281 18.875 59.7227 18.3477 59.6367 17.7773C59.5586 17.207 59.4922 16.6602 59.4375 16.1367C59.3906 15.6133 59.3555 15.1523 59.332 14.7539C59.3164 14.3555 59.3086 14.0938 59.3086 13.9688ZM64.3008 18.6211C64.3008 18.1367 64.4141 17.6875 64.6406 17.2734C64.8672 16.8516 65.1641 16.4922 65.5312 16.1953C65.9062 15.8906 66.3242 15.6523 66.7852 15.4805C67.2539 15.3086 67.7266 15.2227 68.2031 15.2227C68.4688 15.2227 68.7031 15.3086 68.9062 15.4805C69.1172 15.6523 69.293 15.8633 69.4336 16.1133C69.5742 16.3555 69.6797 16.6133 69.75 16.8867C69.8281 17.1602 69.8672 17.3984 69.8672 17.6016C69.8672 18.0391 69.7617 18.4648 69.5508 18.8789C69.3398 19.2852 69.0664 19.6484 68.7305 19.9688C68.3945 20.2812 68.0156 20.5352 67.5938 20.7305C67.1719 20.9258 66.75 21.0234 66.3281 21.0234C65.9531 21.0234 65.6367 20.9609 65.3789 20.8359C65.1211 20.7031 64.9141 20.5312 64.7578 20.3203C64.6016 20.1016 64.4844 19.8477 64.4062 19.5586C64.3359 19.2617 64.3008 18.9492 64.3008 18.6211ZM65.2969 18.7383C65.2969 18.9414 65.3125 19.1211 65.3438 19.2773C65.3828 19.4258 65.4453 19.5547 65.5312 19.6641C65.625 19.7734 65.7461 19.8594 65.8945 19.9219C66.043 19.9766 66.2266 20.0039 66.4453 20.0039C66.7344 20.0039 67.0234 19.9258 67.3125 19.7695C67.6016 19.6055 67.8594 19.4023 68.0859 19.1602C68.3203 18.9102 68.5078 18.6367 68.6484 18.3398C68.7891 18.043 68.8594 17.7539 68.8594 17.4727C68.8594 17.3477 68.8477 17.2109 68.8242 17.0625C68.8008 16.9141 68.7617 16.7773 68.707 16.6523C68.6523 16.5273 68.5742 16.4219 68.4727 16.3359C68.3711 16.25 68.2422 16.207 68.0859 16.207C67.9453 16.207 67.7773 16.2539 67.582 16.3477C67.3945 16.4414 67.1953 16.5625 66.9844 16.7109C66.7812 16.8594 66.5781 17.0273 66.375 17.2148C66.1797 17.4023 66 17.5898 65.8359 17.7773C65.6719 17.9648 65.5391 18.1445 65.4375 18.3164C65.3438 18.4883 65.2969 18.6289 65.2969 18.7383ZM75.4922 13.9453C75.4922 13.8203 75.5156 13.707 75.5625 13.6055C75.6172 13.4961 75.7188 13.4414 75.8672 13.4414C75.9922 13.4414 76.1133 13.5703 76.2305 13.8281C76.3555 14.0859 76.4805 14.418 76.6055 14.8242C76.7383 15.2227 76.875 15.6641 77.0156 16.1484C77.1562 16.625 77.3047 17.0898 77.4609 17.543C77.6172 17.9883 77.7812 18.3906 77.9531 18.75C78.125 19.1016 78.3086 19.3477 78.5039 19.4883C78.6914 19.4102 78.8398 19.2734 78.9492 19.0781C79.0664 18.875 79.1602 18.6367 79.2305 18.3633C79.3008 18.082 79.3516 17.7812 79.3828 17.4609C79.4219 17.1328 79.457 16.8086 79.4883 16.4883C79.5273 16.1602 79.5664 15.8438 79.6055 15.5391C79.6445 15.2266 79.6992 14.9531 79.7695 14.7188C79.8477 14.4844 79.9453 14.2969 80.0625 14.1562C80.1797 14.0156 80.3281 13.9453 80.5078 13.9453C80.6172 13.9453 80.7148 13.957 80.8008 13.9805C80.8867 13.9961 80.9609 14.0742 81.0234 14.2148C81.0547 14.3164 81.1055 14.4648 81.1758 14.6602C81.2461 14.8555 81.3242 15.082 81.4102 15.3398C81.5039 15.5977 81.6055 15.875 81.7148 16.1719C81.832 16.4609 81.9492 16.7461 82.0664 17.0273C82.1914 17.3086 82.3125 17.5781 82.4297 17.8359C82.5469 18.0859 82.6602 18.3008 82.7695 18.4805C82.7852 18.5117 82.8242 18.5625 82.8867 18.6328C82.957 18.6953 83.0039 18.7305 83.0273 18.7383L83.5312 18.2344C83.6641 18.1016 83.7656 17.9062 83.8359 17.6484C83.9062 17.3828 83.957 17.0781 83.9883 16.7344C84.0273 16.3906 84.0508 16.0234 84.0586 15.6328C84.0742 15.2344 84.0859 14.8398 84.0938 14.4492C84.1016 14.0586 84.1172 13.6797 84.1406 13.3125C84.1641 12.9453 84.2031 12.625 84.2578 12.3516C84.3125 12.0703 84.3906 11.8477 84.4922 11.6836C84.5938 11.5195 84.7344 11.4375 84.9141 11.4375C84.9219 11.4375 84.9297 11.4414 84.9375 11.4492C84.9531 11.4492 84.9688 11.4492 84.9844 11.4492C85.0078 11.457 85.0234 11.4609 85.0312 11.4609C85.0391 11.4609 85.0586 11.4766 85.0898 11.5078C85.1211 11.5312 85.1484 11.5547 85.1719 11.5781C85.2031 11.6016 85.2266 11.625 85.2422 11.6484C85.2656 11.6719 85.2812 11.6914 85.2891 11.707C85.2891 11.7617 85.2891 11.8594 85.2891 12C85.2969 12.1406 85.3008 12.293 85.3008 12.457C85.3008 12.6211 85.3008 12.7773 85.3008 12.9258C85.3086 13.0664 85.3125 13.1641 85.3125 13.2188C85.3125 13.375 85.3086 13.5898 85.3008 13.8633C85.3008 14.1367 85.2891 14.4492 85.2656 14.8008C85.25 15.1445 85.2227 15.5156 85.1836 15.9141C85.1523 16.3047 85.1016 16.6953 85.0312 17.0859C84.9609 17.4688 84.8711 17.8398 84.7617 18.1992C84.6602 18.5508 84.5312 18.8633 84.375 19.1367C84.2266 19.4023 84.0508 19.6172 83.8477 19.7812C83.6523 19.9375 83.418 20.0156 83.1445 20.0156C82.8789 20.0156 82.6523 19.9297 82.4648 19.7578C82.2852 19.5781 82.1289 19.3594 81.9961 19.1016C81.8633 18.8359 81.75 18.5508 81.6562 18.2461C81.5625 17.9336 81.4648 17.6445 81.3633 17.3789C81.2695 17.1133 81.1641 16.8945 81.0469 16.7227C80.9375 16.543 80.8008 16.4531 80.6367 16.4531C80.6211 16.4531 80.5977 16.457 80.5664 16.4648C80.543 16.4727 80.5234 16.4766 80.5078 16.4766C80.5 16.5078 80.4766 16.6445 80.4375 16.8867C80.3984 17.1289 80.3438 17.418 80.2734 17.7539C80.2031 18.082 80.1172 18.4375 80.0156 18.8203C79.9141 19.2031 79.7969 19.5547 79.6641 19.875C79.5391 20.1953 79.3984 20.4648 79.2422 20.6836C79.0938 20.8945 78.9297 21 78.75 21C78.3828 21 78.0469 20.8633 77.7422 20.5898C77.4375 20.3086 77.1641 19.9492 76.9219 19.5117C76.6875 19.0664 76.4805 18.5742 76.3008 18.0352C76.1211 17.4961 75.9688 16.9688 75.8438 16.4531C75.7266 15.9297 75.6367 15.4453 75.5742 15C75.5195 14.5469 75.4922 14.1953 75.4922 13.9453ZM91.0547 19.4883C90.7578 19.6914 90.5 19.875 90.2812 20.0391C90.0703 20.1953 89.8633 20.3281 89.6602 20.4375C89.457 20.5469 89.2383 20.6289 89.0039 20.6836C88.7773 20.7383 88.4961 20.7656 88.1602 20.7656C87.4336 20.7656 86.8945 20.5742 86.543 20.1914C86.1914 19.8008 86.0156 19.2227 86.0156 18.457C86.0156 18.1602 86.0547 17.8516 86.1328 17.5312C86.2109 17.2109 86.3242 16.8945 86.4727 16.582C86.6289 16.2617 86.8125 15.9609 87.0234 15.6797C87.2344 15.3906 87.4727 15.1367 87.7383 14.918C88.0039 14.6992 88.2852 14.5273 88.582 14.4023C88.8867 14.2695 89.207 14.2031 89.543 14.2031C90.1055 14.2578 90.5469 14.3984 90.8672 14.625C91.1875 14.8438 91.4297 15.1289 91.5938 15.4805C91.7578 15.8242 91.8711 16.2109 91.9336 16.6406C91.9961 17.0625 92.043 17.5 92.0742 17.9531C92.1133 18.4062 92.1602 18.8594 92.2148 19.3125C92.2695 19.7656 92.3828 20.1836 92.5547 20.5664C92.4531 20.8242 92.3555 21.0039 92.2617 21.1055C92.1758 21.2148 92.0781 21.2344 91.9688 21.1641C91.8594 21.0938 91.7305 20.9219 91.582 20.6484C91.4414 20.375 91.2656 19.9883 91.0547 19.4883ZM87.0117 18.4805C87.0117 18.9258 87.0938 19.2539 87.2578 19.4648C87.4297 19.668 87.7305 19.7695 88.1602 19.7695C88.4805 19.7695 88.7852 19.7148 89.0742 19.6055C89.3711 19.4883 89.6289 19.332 89.8477 19.1367C90.0664 18.9336 90.2422 18.6914 90.375 18.4102C90.5078 18.1289 90.5742 17.8164 90.5742 17.4727C90.5742 17.332 90.5781 17.1367 90.5859 16.8867C90.5938 16.6289 90.5781 16.375 90.5391 16.125C90.5 15.875 90.4258 15.6602 90.3164 15.4805C90.207 15.293 90.043 15.1992 89.8242 15.1992C89.418 15.1992 89.043 15.3047 88.6992 15.5156C88.3555 15.7188 88.0586 15.9805 87.8086 16.3008C87.5586 16.6211 87.3633 16.9766 87.2227 17.3672C87.082 17.75 87.0117 18.1211 87.0117 18.4805ZM93.5742 14.3672C93.5742 14.1406 93.5586 13.9219 93.5273 13.7109C93.4961 13.4922 93.4883 13.3008 93.5039 13.1367C93.5195 12.9648 93.5781 12.8281 93.6797 12.7266C93.7891 12.625 93.9844 12.5742 94.2656 12.5742C94.3516 12.7539 94.4336 13.0273 94.5117 13.3945C94.5977 13.7617 94.6797 14.1836 94.7578 14.6602C94.8359 15.1367 94.9102 15.6562 94.9805 16.2188C95.0508 16.7734 95.1133 17.332 95.168 17.8945C95.2305 18.457 95.2812 19.0117 95.3203 19.5586C95.3672 20.0977 95.4023 20.5898 95.4258 21.0352C95.168 21.207 94.9609 21.2188 94.8047 21.0703C94.6484 20.9219 94.5195 20.6719 94.418 20.3203C94.3164 19.9609 94.2383 19.5273 94.1836 19.0195C94.1289 18.5039 94.0742 17.9727 94.0195 17.4258C93.9727 16.8711 93.9141 16.3281 93.8438 15.7969C93.7734 15.2578 93.6836 14.7812 93.5742 14.3672ZM96.3164 14.3672C96.3164 14.1406 96.3008 13.9219 96.2695 13.7109C96.2383 13.4922 96.2305 13.3008 96.2461 13.1367C96.2617 12.9648 96.3203 12.8281 96.4219 12.7266C96.5312 12.625 96.7266 12.5742 97.0078 12.5742C97.0938 12.7539 97.1758 13.0273 97.2539 13.3945C97.3398 13.7617 97.4219 14.1836 97.5 14.6602C97.5781 15.1367 97.6523 15.6562 97.7227 16.2188C97.793 16.7734 97.8555 17.332 97.9102 17.8945C97.9727 18.457 98.0234 19.0117 98.0625 19.5586C98.1094 20.0977 98.1445 20.5898 98.168 21.0352C97.9102 21.207 97.7031 21.2188 97.5469 21.0703C97.3906 20.9219 97.2617 20.6719 97.1602 20.3203C97.0586 19.9609 96.9805 19.5273 96.9258 19.0195C96.8711 18.5039 96.8164 17.9727 96.7617 17.4258C96.7148 16.8711 96.6562 16.3281 96.5859 15.7969C96.5156 15.2578 96.4258 14.7812 96.3164 14.3672ZM98.7773 17.7422C98.7773 17.3203 98.8281 16.8984 98.9297 16.4766C99.0312 16.0547 99.1914 15.6758 99.4102 15.3398C99.6367 15.0039 99.9258 14.7305 100.277 14.5195C100.637 14.3086 101.07 14.2031 101.578 14.2031C101.867 14.2031 102.121 14.2578 102.34 14.3672C102.559 14.4688 102.742 14.6055 102.891 14.7773C103.039 14.9492 103.148 15.1523 103.219 15.3867C103.297 15.6133 103.336 15.8516 103.336 16.1016C103.336 16.5 103.242 16.8867 103.055 17.2617C102.875 17.6367 102.629 17.9688 102.316 18.2578C102.012 18.5391 101.66 18.7539 101.262 18.9023C100.863 19.043 100.457 19.0742 100.043 18.9961C100.051 19.2227 100.125 19.4062 100.266 19.5469C100.414 19.6797 100.59 19.7812 100.793 19.8516C100.996 19.9219 101.207 19.9688 101.426 19.9922C101.645 20.0078 101.84 20.0156 102.012 20.0156C102.191 20.0156 102.359 20 102.516 19.9688C102.672 19.9375 102.828 19.9023 102.984 19.8633C103.141 19.8242 103.297 19.7891 103.453 19.7578C103.617 19.7266 103.789 19.7109 103.969 19.7109C104.039 19.7109 104.109 19.7148 104.18 19.7227C104.25 19.7305 104.316 19.75 104.379 19.7812C104.441 19.8047 104.492 19.8477 104.531 19.9102C104.57 19.9648 104.59 20.0352 104.59 20.1211C104.59 20.2695 104.535 20.3945 104.426 20.4961C104.316 20.5898 104.176 20.6719 104.004 20.7422C103.84 20.8125 103.656 20.8672 103.453 20.9062C103.25 20.9375 103.051 20.9648 102.855 20.9883C102.668 21.0039 102.492 21.0117 102.328 21.0117C102.172 21.0195 102.055 21.0234 101.977 21.0234C101.477 21.0234 101.027 20.9453 100.629 20.7891C100.23 20.625 99.8945 20.4023 99.6211 20.1211C99.3477 19.832 99.1367 19.4883 98.9883 19.0898C98.8477 18.6836 98.7773 18.2344 98.7773 17.7422ZM100.02 16.9805C100.02 17.2539 100.055 17.4531 100.125 17.5781C100.203 17.7031 100.387 17.7656 100.676 17.7656C100.879 17.7656 101.078 17.7305 101.273 17.6602C101.469 17.582 101.645 17.4766 101.801 17.3438C101.965 17.2109 102.094 17.0547 102.188 16.875C102.281 16.6953 102.328 16.5 102.328 16.2891C102.328 16.1719 102.316 16.0508 102.293 15.9258C102.277 15.8008 102.238 15.6875 102.176 15.5859C102.113 15.4766 102.031 15.3906 101.93 15.3281C101.836 15.2578 101.711 15.2227 101.555 15.2227C101.32 15.2227 101.105 15.2773 100.91 15.3867C100.723 15.4883 100.562 15.625 100.43 15.7969C100.297 15.9609 100.195 16.1484 100.125 16.3594C100.055 16.5625 100.02 16.7695 100.02 16.9805ZM105.059 15.0938C105.059 15.0703 105.062 15.0508 105.07 15.0352C105.07 15.0195 105.074 15 105.082 14.9766C105.113 14.9375 105.16 14.8867 105.223 14.8242C105.285 14.7617 105.324 14.7305 105.34 14.7305H107.695C107.695 14.6445 107.684 14.5078 107.66 14.3203C107.637 14.1328 107.613 13.9258 107.59 13.6992C107.574 13.4727 107.57 13.2383 107.578 12.9961C107.586 12.7461 107.617 12.5234 107.672 12.3281C107.734 12.125 107.828 11.9609 107.953 11.8359C108.086 11.7031 108.27 11.6367 108.504 11.6367C108.504 12.4258 108.559 13.0586 108.668 13.5352C108.777 14.0117 108.922 14.3789 109.102 14.6367C109.289 14.8945 109.5 15.0625 109.734 15.1406C109.969 15.2188 110.207 15.2539 110.449 15.2461C110.699 15.2305 110.941 15.1914 111.176 15.1289C111.41 15.0664 111.617 15.0234 111.797 15C111.984 14.9766 112.133 14.9961 112.242 15.0586C112.352 15.1133 112.406 15.25 112.406 15.4688C112.406 15.6328 112.367 15.75 112.289 15.8203C112.219 15.8906 112.078 15.9453 111.867 15.9844C111.805 15.9922 111.699 16.0078 111.551 16.0312C111.41 16.0469 111.25 16.0625 111.07 16.0781C110.891 16.0938 110.699 16.1133 110.496 16.1367C110.293 16.1523 110.102 16.168 109.922 16.1836C109.742 16.1992 109.578 16.2109 109.43 16.2188C109.281 16.2188 109.172 16.2188 109.102 16.2188C109.102 16.2578 109.098 16.3242 109.09 16.418C109.082 16.5117 109.078 16.5742 109.078 16.6055C109.078 16.9492 109.133 17.2852 109.242 17.6133C109.352 17.9336 109.469 18.2539 109.594 18.5742C109.727 18.8945 109.848 19.2148 109.957 19.5352C110.066 19.8555 110.121 20.1875 110.121 20.5312C110.121 20.5938 110.113 20.6602 110.098 20.7305C110.09 20.793 110.066 20.8516 110.027 20.9062C109.996 20.9531 109.945 20.9883 109.875 21.0117C109.812 21.043 109.723 21.0391 109.605 21C109.309 20.9219 109.086 20.7539 108.938 20.4961C108.797 20.2383 108.691 19.9336 108.621 19.582C108.551 19.2227 108.504 18.8438 108.48 18.4453C108.457 18.0469 108.418 17.6758 108.363 17.332C108.316 16.9805 108.238 16.6836 108.129 16.4414C108.02 16.1914 107.844 16.0391 107.602 15.9844L105.34 15.4688C105.309 15.4688 105.262 15.4375 105.199 15.375C105.137 15.3047 105.098 15.2539 105.082 15.2227C105.074 15.207 105.07 15.1875 105.07 15.1641C105.062 15.1484 105.059 15.125 105.059 15.0938Z" fill="#FCFCFC"/>
<path d="M135.6 17.7778C135.6 18.1314 135.742 18.4706 135.996 18.7206C136.249 18.9706 136.592 19.1111 136.95 19.1111C137.308 19.1111 137.652 18.9706 137.905 18.7206C138.158 18.4706 138.3 18.1314 138.3 17.7778C138.3 17.4242 138.158 17.085 137.905 16.835C137.652 16.5849 137.308 16.4445 136.95 16.4445C136.592 16.4445 136.249 16.5849 135.996 16.835C135.742 17.085 135.6 17.4242 135.6 17.7778Z" stroke="#FCFCFC" stroke-width="2" stroke-linecap="round" stroke-linejoin="round"/>
<path d="M130.2 11.5556H135.6C138.145 11.5556 139.419 11.5556 140.209 12.3369C141 13.1173 141 14.3751 141 16.8889V18.6667C141 21.1804 141 22.4382 140.209 23.2187C139.419 24 138.145 24 135.6 24H130.2C126.806 24 125.109 24 124.055 22.9582C123.001 21.9164 123 20.2409 123 16.8889V15.1111C123 11.7591 123 10.0827 124.055 9.04178C125.11 8.00089 126.806 8 130.2 8H133.8C134.637 8 135.056 8 135.399 8.09067C135.857 8.21205 136.274 8.45026 136.609 8.78135C136.944 9.11245 137.185 9.52477 137.307 9.97689C137.4 10.3156 137.4 10.7289 137.4 11.5556" stroke="#FCFCFC" stroke-width="2" stroke-linecap="round" stroke-linejoin="round"/>
</svg>
