<svg width="50" height="48" viewBox="0 0 50 48" fill="none" xmlns="http://www.w3.org/2000/svg">
<path d="M2.67979 5.13841L1.812 2.39072L5.67151 1.66215L45.4398 0.5L47.549 3.77755L49.9725 7.07887L49.4716 41.1713L47.0605 43.2668L45.9772 45.1251L5.45542 46.7438L2.44106 44.156L2.75629 43.1594L0 4.905L2.67979 5.13841Z" fill="#171E1B"/>
<rect x="7.02588" y="5.50029" width="36.8576" height="22.1609" rx="4" fill="#599DB0"/>
<rect x="7.02588" y="12.8873" width="36.8576" height="22.1609" rx="4" fill="#A8E6A0"/>
<rect x="8.86865" y="14.7341" width="33.1718" height="3" rx="1.5" fill="#A8E6A0"/>
<circle cx="10.3687" cy="16.2341" r="1.5" fill="white" fill-opacity="0.4"/>
<rect x="14.0405" y="14.7341" width="28" height="3" rx="1.5" fill="white" fill-opacity="0.4"/>
<rect x="7.02588" y="20.2743" width="36.8576" height="22.1609" rx="4" fill="#A9B0A6"/>
<path d="M3.31676 31.3143L1.17637 29.6618L2.95499 28.7759L12.5838 27.413C12.5838 27.413 16.5605 27.7575 18.8752 28.7302C21.8346 29.9738 21.3083 33.6631 25.4548 33.6631C29.6013 33.6631 30.4356 29.8035 34.2085 28.7302C38.8842 27.4 46.6527 28.9415 46.6527 28.9415L47.1785 29.6652L49.5797 30.9893L48.4952 43.5595L45.8068 47.5L4.88221 47.2131L0.297852 44.1936L0.986893 31.045L3.31676 31.3143Z" fill="#171E1B"/>
<circle cx="10.3721" cy="24.1797" r="1.5" fill="white" fill-opacity="0.4"/>
<rect x="14.0439" y="22.6797" width="28" height="3" rx="1.5" fill="white" fill-opacity="0.4"/>
<circle cx="10.3721" cy="8.21031" r="1.5" fill="white" fill-opacity="0.4"/>
<rect x="14.0439" y="6.71031" width="28" height="3" rx="1.5" fill="white" fill-opacity="0.4"/>
<path d="M40.1978 2.26853H42.0252C46.1049 2.26853 49.4122 5.5758 49.4122 9.65551L45.0929 6.26981L40.1978 2.26853Z" fill="#28443F"/>
<path d="M48.9517 8.68501L47.1626 9.06452C43.172 9.911 39.2535 7.36164 38.4105 3.37036L43.3357 5.78633L48.9517 8.68501Z" fill="#171E1B"/>
</svg>
