<svg width="81" height="32" viewBox="0 0 81 32" fill="none" xmlns="http://www.w3.org/2000/svg">
<rect width="81" height="32" rx="16" fill="#B36F5A"/>
<path d="M10.4727 18.1289C10.4727 18.0508 10.4531 17.8945 10.4141 17.6602C10.3828 17.418 10.3242 17.0977 10.2383 16.6992C9.74609 16.8477 9.35156 16.9102 9.05469 16.8867C8.76562 16.8555 8.5625 16.7812 8.44531 16.6641C8.32812 16.5469 8.29688 16.4102 8.35156 16.2539C8.40625 16.0977 8.52734 15.9688 8.71484 15.8672C8.91016 15.7578 9.16797 15.6992 9.48828 15.6914C9.81641 15.6758 10.1992 15.7461 10.6367 15.9023C10.668 15.8633 10.6914 15.7812 10.707 15.6562C10.7305 15.5312 10.7539 15.3867 10.7773 15.2227C10.8008 15.0586 10.8242 14.8867 10.8477 14.707C10.8789 14.5273 10.9023 14.3633 10.918 14.2148C10.9414 14.0664 10.9609 13.9414 10.9766 13.8398C10.9922 13.7305 11.0117 13.6758 11.0352 13.6758C11.082 13.6445 11.1562 13.6211 11.2578 13.6055C11.3594 13.5898 11.457 13.5781 11.5508 13.5703C11.6758 13.5547 11.8047 13.5469 11.9375 13.5469L12.0898 15.4688H12.9688C12.9688 15.4531 12.9727 15.3867 12.9805 15.2695C12.9883 15.1523 13 15.0117 13.0156 14.8477C13.0391 14.6758 13.0664 14.4922 13.0977 14.2969C13.1367 14.1016 13.1836 13.9258 13.2383 13.7695C13.293 13.6055 13.3555 13.4688 13.4258 13.3594C13.5039 13.25 13.5977 13.1953 13.707 13.1953C13.7383 13.1953 13.7852 13.1992 13.8477 13.207C13.9102 13.207 13.9688 13.2148 14.0234 13.2305C14.0781 13.2461 14.125 13.2734 14.1641 13.3125C14.2109 13.3438 14.2344 13.3945 14.2344 13.4648V15.2227C14.3203 15.2539 14.4336 15.2852 14.5742 15.3164C14.7227 15.3477 14.8828 15.3789 15.0547 15.4102C15.2344 15.4336 15.4141 15.4609 15.5938 15.4922C15.7734 15.5234 15.9375 15.5586 16.0859 15.5977C16.2344 15.6367 16.3555 15.6836 16.4492 15.7383C16.543 15.7852 16.5898 15.8398 16.5898 15.9023C16.5352 16.0664 16.4219 16.1875 16.25 16.2656C16.0859 16.3359 15.8984 16.3945 15.6875 16.4414C15.4844 16.4805 15.2773 16.5195 15.0664 16.5586C14.8633 16.5898 14.6953 16.6406 14.5625 16.7109C14.4375 16.7812 14.3633 16.8828 14.3398 17.0156C14.3242 17.1484 14.4062 17.3359 14.5859 17.5781C14.6719 17.5781 14.7812 17.5703 14.9141 17.5547C15.0469 17.5391 15.1836 17.5234 15.3242 17.5078C15.4648 17.4922 15.6055 17.4844 15.7461 17.4844C15.8867 17.4844 16.0117 17.5 16.1211 17.5312C16.2305 17.5625 16.3203 17.6172 16.3906 17.6953C16.4609 17.7734 16.4961 17.8828 16.4961 18.0234C16.4961 18.1484 16.418 18.25 16.2617 18.3281C16.1133 18.4062 15.9375 18.4727 15.7344 18.5273C15.5312 18.582 15.332 18.625 15.1367 18.6562C14.9492 18.6875 14.8125 18.7148 14.7266 18.7383C14.75 18.8789 14.7773 19.0508 14.8086 19.2539C14.8398 19.4492 14.8477 19.6406 14.832 19.8281C14.8242 20.0156 14.7773 20.1797 14.6914 20.3203C14.6055 20.4609 14.4531 20.5312 14.2344 20.5312C14.0703 20.4766 13.9492 20.3945 13.8711 20.2852C13.8008 20.168 13.7422 20.043 13.6953 19.9102C13.6562 19.7695 13.6211 19.6367 13.5898 19.5117C13.5586 19.3789 13.5039 19.2695 13.4258 19.1836C13.3477 19.0977 13.2305 19.0508 13.0742 19.043C12.918 19.0273 12.6992 19.0664 12.418 19.1602C12.418 19.3008 12.418 19.4648 12.418 19.6523C12.418 19.832 12.3984 20.0078 12.3594 20.1797C12.3281 20.3438 12.2617 20.4844 12.1602 20.6016C12.0586 20.7109 11.9102 20.7656 11.7148 20.7656C11.6445 20.7656 11.5625 20.707 11.4688 20.5898C11.3828 20.4727 11.2891 20.332 11.1875 20.168C11.0938 19.9961 10.9961 19.8281 10.8945 19.6641C10.793 19.5 10.6953 19.3672 10.6016 19.2656C10.1328 19.2188 9.76953 19.168 9.51172 19.1133C9.26172 19.0508 9.08984 18.9883 8.99609 18.9258C8.90234 18.8633 8.875 18.8008 8.91406 18.7383C8.95312 18.668 9.02344 18.6016 9.125 18.5391C9.38281 18.4062 9.83203 18.2695 10.4727 18.1289ZM11.9609 17.4727C11.9609 17.543 11.9805 17.5977 12.0195 17.6367C12.0586 17.6758 12.1055 17.707 12.1602 17.7305C12.2148 17.7461 12.2695 17.7578 12.3242 17.7656C12.3867 17.7656 12.4375 17.7656 12.4766 17.7656C12.5391 17.7656 12.6133 17.7617 12.6992 17.7539C12.7852 17.7383 12.8672 17.7188 12.9453 17.6953C13.0312 17.6719 13.1016 17.6367 13.1562 17.5898C13.2188 17.5352 13.25 17.4648 13.25 17.3789C13.25 17.207 13.207 17.0508 13.1211 16.9102C13.043 16.7695 12.918 16.6992 12.7461 16.6992C12.6523 16.6992 12.5586 16.7227 12.4648 16.7695C12.3711 16.8086 12.2852 16.8672 12.207 16.9453C12.1367 17.0156 12.0781 17.0977 12.0312 17.1914C11.9844 17.2852 11.9609 17.3789 11.9609 17.4727ZM16.2383 13.9453C16.2383 13.8203 16.2617 13.707 16.3086 13.6055C16.3633 13.4961 16.4648 13.4414 16.6133 13.4414C16.7383 13.4414 16.8594 13.5703 16.9766 13.8281C17.1016 14.0859 17.2266 14.418 17.3516 14.8242C17.4844 15.2227 17.6211 15.6641 17.7617 16.1484C17.9023 16.625 18.0508 17.0898 18.207 17.543C18.3633 17.9883 18.5273 18.3906 18.6992 18.75C18.8711 19.1016 19.0547 19.3477 19.25 19.4883C19.4375 19.4102 19.5859 19.2734 19.6953 19.0781C19.8125 18.875 19.9062 18.6367 19.9766 18.3633C20.0469 18.082 20.0977 17.7812 20.1289 17.4609C20.168 17.1328 20.2031 16.8086 20.2344 16.4883C20.2734 16.1602 20.3125 15.8438 20.3516 15.5391C20.3906 15.2266 20.4453 14.9531 20.5156 14.7188C20.5938 14.4844 20.6914 14.2969 20.8086 14.1562C20.9258 14.0156 21.0742 13.9453 21.2539 13.9453C21.3633 13.9453 21.4609 13.957 21.5469 13.9805C21.6328 13.9961 21.707 14.0742 21.7695 14.2148C21.8008 14.3164 21.8516 14.4648 21.9219 14.6602C21.9922 14.8555 22.0703 15.082 22.1562 15.3398C22.25 15.5977 22.3516 15.875 22.4609 16.1719C22.5781 16.4609 22.6953 16.7461 22.8125 17.0273C22.9375 17.3086 23.0586 17.5781 23.1758 17.8359C23.293 18.0859 23.4062 18.3008 23.5156 18.4805C23.5312 18.5117 23.5703 18.5625 23.6328 18.6328C23.7031 18.6953 23.75 18.7305 23.7734 18.7383L24.2773 18.2344C24.4102 18.1016 24.5117 17.9062 24.582 17.6484C24.6523 17.3828 24.7031 17.0781 24.7344 16.7344C24.7734 16.3906 24.7969 16.0234 24.8047 15.6328C24.8203 15.2344 24.832 14.8398 24.8398 14.4492C24.8477 14.0586 24.8633 13.6797 24.8867 13.3125C24.9102 12.9453 24.9492 12.625 25.0039 12.3516C25.0586 12.0703 25.1367 11.8477 25.2383 11.6836C25.3398 11.5195 25.4805 11.4375 25.6602 11.4375C25.668 11.4375 25.6758 11.4414 25.6836 11.4492C25.6992 11.4492 25.7148 11.4492 25.7305 11.4492C25.7539 11.457 25.7695 11.4609 25.7773 11.4609C25.7852 11.4609 25.8047 11.4766 25.8359 11.5078C25.8672 11.5312 25.8945 11.5547 25.918 11.5781C25.9492 11.6016 25.9727 11.625 25.9883 11.6484C26.0117 11.6719 26.0273 11.6914 26.0352 11.707C26.0352 11.7617 26.0352 11.8594 26.0352 12C26.043 12.1406 26.0469 12.293 26.0469 12.457C26.0469 12.6211 26.0469 12.7773 26.0469 12.9258C26.0547 13.0664 26.0586 13.1641 26.0586 13.2188C26.0586 13.375 26.0547 13.5898 26.0469 13.8633C26.0469 14.1367 26.0352 14.4492 26.0117 14.8008C25.9961 15.1445 25.9688 15.5156 25.9297 15.9141C25.8984 16.3047 25.8477 16.6953 25.7773 17.0859C25.707 17.4688 25.6172 17.8398 25.5078 18.1992C25.4062 18.5508 25.2773 18.8633 25.1211 19.1367C24.9727 19.4023 24.7969 19.6172 24.5938 19.7812C24.3984 19.9375 24.1641 20.0156 23.8906 20.0156C23.625 20.0156 23.3984 19.9297 23.2109 19.7578C23.0312 19.5781 22.875 19.3594 22.7422 19.1016C22.6094 18.8359 22.4961 18.5508 22.4023 18.2461C22.3086 17.9336 22.2109 17.6445 22.1094 17.3789C22.0156 17.1133 21.9102 16.8945 21.793 16.7227C21.6836 16.543 21.5469 16.4531 21.3828 16.4531C21.3672 16.4531 21.3438 16.457 21.3125 16.4648C21.2891 16.4727 21.2695 16.4766 21.2539 16.4766C21.2461 16.5078 21.2227 16.6445 21.1836 16.8867C21.1445 17.1289 21.0898 17.418 21.0195 17.7539C20.9492 18.082 20.8633 18.4375 20.7617 18.8203C20.6602 19.2031 20.543 19.5547 20.4102 19.875C20.2852 20.1953 20.1445 20.4648 19.9883 20.6836C19.8398 20.8945 19.6758 21 19.4961 21C19.1289 21 18.793 20.8633 18.4883 20.5898C18.1836 20.3086 17.9102 19.9492 17.668 19.5117C17.4336 19.0664 17.2266 18.5742 17.0469 18.0352C16.8672 17.4961 16.7148 16.9688 16.5898 16.4531C16.4727 15.9297 16.3828 15.4453 16.3203 15C16.2656 14.5469 16.2383 14.1953 16.2383 13.9453ZM26.7617 18.6211C26.7617 18.1367 26.875 17.6875 27.1016 17.2734C27.3281 16.8516 27.625 16.4922 27.9922 16.1953C28.3672 15.8906 28.7852 15.6523 29.2461 15.4805C29.7148 15.3086 30.1875 15.2227 30.6641 15.2227C30.9297 15.2227 31.1641 15.3086 31.3672 15.4805C31.5781 15.6523 31.7539 15.8633 31.8945 16.1133C32.0352 16.3555 32.1406 16.6133 32.2109 16.8867C32.2891 17.1602 32.3281 17.3984 32.3281 17.6016C32.3281 18.0391 32.2227 18.4648 32.0117 18.8789C31.8008 19.2852 31.5273 19.6484 31.1914 19.9688C30.8555 20.2812 30.4766 20.5352 30.0547 20.7305C29.6328 20.9258 29.2109 21.0234 28.7891 21.0234C28.4141 21.0234 28.0977 20.9609 27.8398 20.8359C27.582 20.7031 27.375 20.5312 27.2188 20.3203C27.0625 20.1016 26.9453 19.8477 26.8672 19.5586C26.7969 19.2617 26.7617 18.9492 26.7617 18.6211ZM27.7578 18.7383C27.7578 18.9414 27.7734 19.1211 27.8047 19.2773C27.8438 19.4258 27.9062 19.5547 27.9922 19.6641C28.0859 19.7734 28.207 19.8594 28.3555 19.9219C28.5039 19.9766 28.6875 20.0039 28.9062 20.0039C29.1953 20.0039 29.4844 19.9258 29.7734 19.7695C30.0625 19.6055 30.3203 19.4023 30.5469 19.1602C30.7812 18.9102 30.9688 18.6367 31.1094 18.3398C31.25 18.043 31.3203 17.7539 31.3203 17.4727C31.3203 17.3477 31.3086 17.2109 31.2852 17.0625C31.2617 16.9141 31.2227 16.7773 31.168 16.6523C31.1133 16.5273 31.0352 16.4219 30.9336 16.3359C30.832 16.25 30.7031 16.207 30.5469 16.207C30.4062 16.207 30.2383 16.2539 30.043 16.3477C29.8555 16.4414 29.6562 16.5625 29.4453 16.7109C29.2422 16.8594 29.0391 17.0273 28.8359 17.2148C28.6406 17.4023 28.4609 17.5898 28.2969 17.7773C28.1328 17.9648 28 18.1445 27.8984 18.3164C27.8047 18.4883 27.7578 18.6289 27.7578 18.7383ZM32.7852 16.0781C32.7852 16.0078 32.7891 15.9375 32.7969 15.8672C32.8047 15.7891 32.8203 15.7227 32.8438 15.668C32.8672 15.6055 32.9023 15.5547 32.9492 15.5156C33.0039 15.4766 33.0781 15.457 33.1719 15.457C33.25 15.457 33.3359 15.5195 33.4297 15.6445C33.5312 15.7617 33.6328 15.9141 33.7344 16.1016C33.8359 16.2812 33.9336 16.4805 34.0273 16.6992C34.1289 16.918 34.2148 17.1211 34.2852 17.3086C34.3633 17.4883 34.4258 17.6445 34.4727 17.7773C34.5195 17.9102 34.5469 17.9805 34.5547 17.9883C34.6562 17.7148 34.7695 17.418 34.8945 17.0977C35.0195 16.7773 35.1719 16.4805 35.3516 16.207C35.5391 15.9258 35.7578 15.6914 36.0078 15.5039C36.2656 15.3164 36.5781 15.2227 36.9453 15.2227C37.1328 15.2227 37.3086 15.2539 37.4727 15.3164C37.6445 15.3711 37.793 15.457 37.918 15.5742C38.0508 15.6836 38.1562 15.8164 38.2344 15.9727C38.3125 16.1289 38.3516 16.3086 38.3516 16.5117C38.3516 16.6836 38.2812 16.8047 38.1406 16.875C38.0078 16.9453 37.8555 16.9805 37.6836 16.9805H37.5664L37.0625 16.4766C37.0469 16.4766 37.0352 16.4727 37.0273 16.4648C37.0117 16.4648 36.9961 16.4648 36.9805 16.4648C36.9727 16.457 36.9609 16.4531 36.9453 16.4531C36.6719 16.4531 36.457 16.5312 36.3008 16.6875C36.1523 16.8359 36.0391 17.0234 35.9609 17.25C35.8828 17.4688 35.832 17.7031 35.8086 17.9531C35.793 18.1953 35.7852 18.418 35.7852 18.6211C35.7852 18.7773 35.8008 18.9375 35.832 19.1016C35.8633 19.2578 35.8984 19.4141 35.9375 19.5703C35.9766 19.7188 36.0117 19.875 36.043 20.0391C36.0742 20.1953 36.0898 20.3594 36.0898 20.5312C36.0898 20.8594 35.9141 21.0234 35.5625 21.0234C35.3672 21.0234 35.1641 20.9219 34.9531 20.7188C34.7422 20.5078 34.5312 20.2422 34.3203 19.9219C34.1172 19.6016 33.9219 19.25 33.7344 18.8672C33.5469 18.4766 33.3828 18.0977 33.2422 17.7305C33.1016 17.3633 32.9883 17.0312 32.9023 16.7344C32.8242 16.4375 32.7852 16.2188 32.7852 16.0781ZM39.0547 14.3672C39.0547 14.1406 39.0391 13.9219 39.0078 13.7109C38.9766 13.4922 38.9688 13.3008 38.9844 13.1367C39 12.9648 39.0586 12.8281 39.1602 12.7266C39.2695 12.625 39.4648 12.5742 39.7461 12.5742C39.832 12.7539 39.9141 13.0273 39.9922 13.3945C40.0781 13.7617 40.1602 14.1836 40.2383 14.6602C40.3164 15.1367 40.3906 15.6562 40.4609 16.2188C40.5312 16.7734 40.5938 17.332 40.6484 17.8945C40.7109 18.457 40.7617 19.0117 40.8008 19.5586C40.8477 20.0977 40.8828 20.5898 40.9062 21.0352C40.6484 21.207 40.4414 21.2188 40.2852 21.0703C40.1289 20.9219 40 20.6719 39.8984 20.3203C39.7969 19.9609 39.7188 19.5273 39.6641 19.0195C39.6094 18.5039 39.5547 17.9727 39.5 17.4258C39.4531 16.8711 39.3945 16.3281 39.3242 15.7969C39.2539 15.2578 39.1641 14.7812 39.0547 14.3672ZM41.2578 19.6172C41.2578 19.1641 41.3711 18.7617 41.5977 18.4102C41.8242 18.0586 42.1055 17.7539 42.4414 17.4961C42.7773 17.2305 43.1406 17.0078 43.5312 16.8281C43.9219 16.6406 44.2852 16.4883 44.6211 16.3711C44.957 16.2461 45.2383 16.1484 45.4648 16.0781C45.6914 16 45.8047 15.9375 45.8047 15.8906C45.8047 15.6172 45.7891 15.3516 45.7578 15.0938C45.7344 14.8281 45.707 14.5625 45.6758 14.2969C45.6445 14.0312 45.6133 13.7695 45.582 13.5117C45.5586 13.2461 45.5469 12.9844 45.5469 12.7266V11.9648C45.8672 11.8477 46.0938 11.8594 46.2266 12C46.3672 12.1406 46.3906 12.3828 46.2969 12.7266C46.3281 12.8984 46.3711 13.168 46.4258 13.5352C46.4805 13.9023 46.5391 14.3164 46.6016 14.7773C46.6719 15.2383 46.7422 15.7227 46.8125 16.2305C46.8906 16.7383 46.9609 17.2266 47.0234 17.6953C47.0938 18.1562 47.1523 18.5703 47.1992 18.9375C47.2461 19.2969 47.2812 19.5664 47.3047 19.7461C47.3125 19.7852 47.3203 19.8633 47.3281 19.9805C47.3359 20.0898 47.3398 20.2109 47.3398 20.3438C47.3477 20.4688 47.3516 20.5859 47.3516 20.6953C47.3594 20.8047 47.3633 20.8828 47.3633 20.9297C47.0664 20.9297 46.8633 20.918 46.7539 20.8945C46.6523 20.8711 46.5859 20.8242 46.5547 20.7539C46.5312 20.6836 46.5195 20.582 46.5195 20.4492C46.5195 20.3164 46.4805 20.1328 46.4023 19.8984C46.1133 20.125 45.8398 20.3125 45.582 20.4609C45.3242 20.6094 45.0664 20.7305 44.8086 20.8242C44.5508 20.9102 44.2891 20.9688 44.0234 21C43.7656 21.0391 43.4883 21.0586 43.1914 21.0586C42.9414 21.0586 42.6992 21.0391 42.4648 21C42.2383 20.9531 42.0352 20.875 41.8555 20.7656C41.6758 20.6562 41.5312 20.5078 41.4219 20.3203C41.3125 20.1328 41.2578 19.8984 41.2578 19.6172ZM42.2773 19.3711C42.2773 19.4961 42.3047 19.5977 42.3594 19.6758C42.4141 19.7539 42.4844 19.8203 42.5703 19.875C42.6562 19.9297 42.7461 19.9688 42.8398 19.9922C42.9414 20.0078 43.0391 20.0156 43.1328 20.0156C43.4062 20.0156 43.6992 19.9648 44.0117 19.8633C44.332 19.7539 44.625 19.6055 44.8906 19.418C45.1641 19.2227 45.3867 18.9922 45.5586 18.7266C45.7383 18.4609 45.8281 18.1719 45.8281 17.8594C45.8281 17.6172 45.7852 17.4492 45.6992 17.3555C45.6133 17.2617 45.4492 17.2148 45.207 17.2148C44.957 17.2148 44.6641 17.2734 44.3281 17.3906C44 17.5078 43.6797 17.6641 43.3672 17.8594C43.0625 18.0547 42.8047 18.2852 42.5938 18.5508C42.3828 18.8086 42.2773 19.082 42.2773 19.3711ZM47.7969 15.9844C47.7969 15.8516 47.8242 15.7305 47.8789 15.6211C47.9414 15.5117 48.0469 15.457 48.1953 15.457C48.2031 15.457 48.2148 15.4609 48.2305 15.4688C48.2461 15.4688 48.2617 15.4688 48.2773 15.4688C48.293 15.4688 48.3086 15.4688 48.3242 15.4688C48.3477 15.4844 48.3906 15.5234 48.4531 15.5859C48.5234 15.6484 48.5664 15.6953 48.582 15.7266C48.6055 15.7734 48.6523 15.875 48.7227 16.0312C48.8008 16.1875 48.8906 16.3711 48.9922 16.582C49.1016 16.7852 49.2109 17.0039 49.3203 17.2383C49.4375 17.4648 49.5469 17.6836 49.6484 17.8945C49.7578 18.1055 49.8477 18.2891 49.918 18.4453C49.9961 18.5938 50.0508 18.6914 50.082 18.7383C50.0898 18.7617 50.125 18.8086 50.1875 18.8789C50.2578 18.9414 50.3086 18.9805 50.3398 18.9961C50.4023 18.8867 50.4648 18.7227 50.5273 18.5039C50.5898 18.2852 50.6523 18.0469 50.7148 17.7891C50.7852 17.5234 50.8555 17.2539 50.9258 16.9805C50.9961 16.6992 51.0742 16.4492 51.1602 16.2305C51.2539 16.0039 51.3555 15.8203 51.4648 15.6797C51.5742 15.5312 51.6992 15.457 51.8398 15.457C52.043 15.457 52.2344 15.5352 52.4141 15.6914C52.6016 15.8477 52.7773 16.0508 52.9414 16.3008C53.1133 16.5508 53.2734 16.832 53.4219 17.1445C53.5781 17.4492 53.7227 17.7539 53.8555 18.0586C53.9961 18.3555 54.125 18.6328 54.2422 18.8906C54.3672 19.1406 54.4883 19.3398 54.6055 19.4883C54.6992 19.457 54.7773 19.3789 54.8398 19.2539C54.9023 19.1289 54.9492 19 54.9805 18.8672C55.0195 18.7266 55.0469 18.5977 55.0625 18.4805C55.0781 18.3555 55.0898 18.2734 55.0977 18.2344C55.1055 18.1484 55.1172 18.0156 55.1328 17.8359C55.1484 17.6484 55.1641 17.4375 55.1797 17.2031C55.2031 16.9688 55.2227 16.7266 55.2383 16.4766C55.2539 16.2266 55.2695 15.9844 55.2852 15.75C55.3086 15.5156 55.3242 15.3086 55.332 15.1289C55.3477 14.9414 55.3555 14.8086 55.3555 14.7305C55.3711 14.7305 55.4102 14.7266 55.4727 14.7188C55.5352 14.7031 55.5781 14.6953 55.6016 14.6953C55.7109 14.6953 55.8086 14.707 55.8945 14.7305C55.9805 14.7539 56.0469 14.8359 56.0938 14.9766C56.0938 15.0312 56.0938 15.1289 56.0938 15.2695C56.1016 15.4102 56.1055 15.5625 56.1055 15.7266C56.1133 15.8828 56.1172 16.0352 56.1172 16.1836C56.125 16.3242 56.1289 16.4219 56.1289 16.4766C56.1289 16.6016 56.1289 16.7969 56.1289 17.0625C56.1367 17.3203 56.1328 17.6094 56.1172 17.9297C56.1094 18.25 56.0859 18.5781 56.0469 18.9141C56.0078 19.2422 55.9453 19.5469 55.8594 19.8281C55.7812 20.1016 55.6719 20.3281 55.5312 20.5078C55.3906 20.6797 55.2148 20.7656 55.0039 20.7656C54.7617 20.7656 54.5352 20.707 54.3242 20.5898C54.1133 20.4727 53.9141 20.3164 53.7266 20.1211C53.5469 19.9258 53.375 19.7109 53.2109 19.4766C53.0469 19.2344 52.8945 18.9922 52.7539 18.75C52.6211 18.5 52.4961 18.2656 52.3789 18.0469C52.2695 17.8203 52.1719 17.6289 52.0859 17.4727C52.0234 17.6133 51.9648 17.7891 51.9102 18C51.8633 18.2109 51.8086 18.4414 51.7461 18.6914C51.6836 18.9336 51.6133 19.1797 51.5352 19.4297C51.457 19.6719 51.3672 19.8945 51.2656 20.0977C51.1719 20.293 51.0586 20.4531 50.9258 20.5781C50.8008 20.7031 50.6562 20.7656 50.4922 20.7656C50.4141 20.7656 50.3438 20.7695 50.2812 20.7773C50.2188 20.7773 50.1602 20.7734 50.1055 20.7656C50.0508 20.75 50 20.7227 49.9531 20.6836C49.9062 20.6445 49.8633 20.582 49.8242 20.4961L47.8203 16.2188C47.8203 16.2109 47.8164 16.1797 47.8086 16.125C47.8008 16.0625 47.7969 16.0156 47.7969 15.9844ZM57.3477 16.6055C57.3477 16.5586 57.3477 16.4844 57.3477 16.3828C57.3555 16.2734 57.3594 16.1602 57.3594 16.043C57.3672 15.9258 57.3711 15.8125 57.3711 15.7031C57.3789 15.5938 57.3828 15.5156 57.3828 15.4688C57.4688 15.3438 57.5781 15.2422 57.7109 15.1641C57.8516 15.0859 57.9922 15.0234 58.1328 14.9766C58.1562 15.3984 58.2227 15.8477 58.332 16.3242C58.4414 16.8008 58.5586 17.2812 58.6836 17.7656C58.8086 18.2422 58.918 18.7148 59.0117 19.1836C59.1133 19.6523 59.1641 20.0898 59.1641 20.4961C59.1641 20.8477 58.9844 21.0234 58.625 21.0234C58.4062 21.0234 58.2227 20.9336 58.0742 20.7539C57.9258 20.5742 57.8047 20.3477 57.7109 20.0742C57.625 19.793 57.5547 19.4844 57.5 19.1484C57.4453 18.8047 57.4062 18.4688 57.3828 18.1406C57.3672 17.8125 57.3555 17.5117 57.3477 17.2383C57.3477 16.9648 57.3477 16.7539 57.3477 16.6055ZM57.5117 12.2109C57.6602 12.2734 57.7852 12.375 57.8867 12.5156C57.9883 12.6562 58.0312 12.7852 58.0156 12.9023C58.0078 13.0117 57.9219 13.0898 57.7578 13.1367C57.5938 13.1758 57.3203 13.1289 56.9375 12.9961C56.9375 12.7852 56.9766 12.6016 57.0547 12.4453C57.1406 12.2891 57.293 12.2109 57.5117 12.2109ZM59.3633 19.6172C59.3633 19.1641 59.4766 18.7617 59.7031 18.4102C59.9297 18.0586 60.2109 17.7539 60.5469 17.4961C60.8828 17.2305 61.2461 17.0078 61.6367 16.8281C62.0273 16.6406 62.3906 16.4883 62.7266 16.3711C63.0625 16.2461 63.3438 16.1484 63.5703 16.0781C63.7969 16 63.9102 15.9375 63.9102 15.8906C63.9102 15.6172 63.8945 15.3516 63.8633 15.0938C63.8398 14.8281 63.8125 14.5625 63.7812 14.2969C63.75 14.0312 63.7188 13.7695 63.6875 13.5117C63.6641 13.2461 63.6523 12.9844 63.6523 12.7266V11.9648C63.9727 11.8477 64.1992 11.8594 64.332 12C64.4727 12.1406 64.4961 12.3828 64.4023 12.7266C64.4336 12.8984 64.4766 13.168 64.5312 13.5352C64.5859 13.9023 64.6445 14.3164 64.707 14.7773C64.7773 15.2383 64.8477 15.7227 64.918 16.2305C64.9961 16.7383 65.0664 17.2266 65.1289 17.6953C65.1992 18.1562 65.2578 18.5703 65.3047 18.9375C65.3516 19.2969 65.3867 19.5664 65.4102 19.7461C65.418 19.7852 65.4258 19.8633 65.4336 19.9805C65.4414 20.0898 65.4453 20.2109 65.4453 20.3438C65.4531 20.4688 65.457 20.5859 65.457 20.6953C65.4648 20.8047 65.4688 20.8828 65.4688 20.9297C65.1719 20.9297 64.9688 20.918 64.8594 20.8945C64.7578 20.8711 64.6914 20.8242 64.6602 20.7539C64.6367 20.6836 64.625 20.582 64.625 20.4492C64.625 20.3164 64.5859 20.1328 64.5078 19.8984C64.2188 20.125 63.9453 20.3125 63.6875 20.4609C63.4297 20.6094 63.1719 20.7305 62.9141 20.8242C62.6562 20.9102 62.3945 20.9688 62.1289 21C61.8711 21.0391 61.5938 21.0586 61.2969 21.0586C61.0469 21.0586 60.8047 21.0391 60.5703 21C60.3438 20.9531 60.1406 20.875 59.9609 20.7656C59.7812 20.6562 59.6367 20.5078 59.5273 20.3203C59.418 20.1328 59.3633 19.8984 59.3633 19.6172ZM60.3828 19.3711C60.3828 19.4961 60.4102 19.5977 60.4648 19.6758C60.5195 19.7539 60.5898 19.8203 60.6758 19.875C60.7617 19.9297 60.8516 19.9688 60.9453 19.9922C61.0469 20.0078 61.1445 20.0156 61.2383 20.0156C61.5117 20.0156 61.8047 19.9648 62.1172 19.8633C62.4375 19.7539 62.7305 19.6055 62.9961 19.418C63.2695 19.2227 63.4922 18.9922 63.6641 18.7266C63.8438 18.4609 63.9336 18.1719 63.9336 17.8594C63.9336 17.6172 63.8906 17.4492 63.8047 17.3555C63.7188 17.2617 63.5547 17.2148 63.3125 17.2148C63.0625 17.2148 62.7695 17.2734 62.4336 17.3906C62.1055 17.5078 61.7852 17.6641 61.4727 17.8594C61.168 18.0547 60.9102 18.2852 60.6992 18.5508C60.4883 18.8086 60.3828 19.082 60.3828 19.3711ZM66.1602 17.7422C66.1602 17.3203 66.2109 16.8984 66.3125 16.4766C66.4141 16.0547 66.5742 15.6758 66.793 15.3398C67.0195 15.0039 67.3086 14.7305 67.6602 14.5195C68.0195 14.3086 68.4531 14.2031 68.9609 14.2031C69.25 14.2031 69.5039 14.2578 69.7227 14.3672C69.9414 14.4688 70.125 14.6055 70.2734 14.7773C70.4219 14.9492 70.5312 15.1523 70.6016 15.3867C70.6797 15.6133 70.7188 15.8516 70.7188 16.1016C70.7188 16.5 70.625 16.8867 70.4375 17.2617C70.2578 17.6367 70.0117 17.9688 69.6992 18.2578C69.3945 18.5391 69.043 18.7539 68.6445 18.9023C68.2461 19.043 67.8398 19.0742 67.4258 18.9961C67.4336 19.2227 67.5078 19.4062 67.6484 19.5469C67.7969 19.6797 67.9727 19.7812 68.1758 19.8516C68.3789 19.9219 68.5898 19.9688 68.8086 19.9922C69.0273 20.0078 69.2227 20.0156 69.3945 20.0156C69.5742 20.0156 69.7422 20 69.8984 19.9688C70.0547 19.9375 70.2109 19.9023 70.3672 19.8633C70.5234 19.8242 70.6797 19.7891 70.8359 19.7578C71 19.7266 71.1719 19.7109 71.3516 19.7109C71.4219 19.7109 71.4922 19.7148 71.5625 19.7227C71.6328 19.7305 71.6992 19.75 71.7617 19.7812C71.8242 19.8047 71.875 19.8477 71.9141 19.9102C71.9531 19.9648 71.9727 20.0352 71.9727 20.1211C71.9727 20.2695 71.918 20.3945 71.8086 20.4961C71.6992 20.5898 71.5586 20.6719 71.3867 20.7422C71.2227 20.8125 71.0391 20.8672 70.8359 20.9062C70.6328 20.9375 70.4336 20.9648 70.2383 20.9883C70.0508 21.0039 69.875 21.0117 69.7109 21.0117C69.5547 21.0195 69.4375 21.0234 69.3594 21.0234C68.8594 21.0234 68.4102 20.9453 68.0117 20.7891C67.6133 20.625 67.2773 20.4023 67.0039 20.1211C66.7305 19.832 66.5195 19.4883 66.3711 19.0898C66.2305 18.6836 66.1602 18.2344 66.1602 17.7422ZM67.4023 16.9805C67.4023 17.2539 67.4375 17.4531 67.5078 17.5781C67.5859 17.7031 67.7695 17.7656 68.0586 17.7656C68.2617 17.7656 68.4609 17.7305 68.6562 17.6602C68.8516 17.582 69.0273 17.4766 69.1836 17.3438C69.3477 17.2109 69.4766 17.0547 69.5703 16.875C69.6641 16.6953 69.7109 16.5 69.7109 16.2891C69.7109 16.1719 69.6992 16.0508 69.6758 15.9258C69.6602 15.8008 69.6211 15.6875 69.5586 15.5859C69.4961 15.4766 69.4141 15.3906 69.3125 15.3281C69.2188 15.2578 69.0938 15.2227 68.9375 15.2227C68.7031 15.2227 68.4883 15.2773 68.293 15.3867C68.1055 15.4883 67.9453 15.625 67.8125 15.7969C67.6797 15.9609 67.5781 16.1484 67.5078 16.3594C67.4375 16.5625 67.4023 16.7695 67.4023 16.9805Z" fill="#FCFCFC"/>
</svg>
