<svg width="98" height="32" viewBox="0 0 98 32" fill="none" xmlns="http://www.w3.org/2000/svg">
<rect width="98" height="32" rx="16" fill="#B36F5A"/>
<path d="M10.4727 18.1289C10.4727 18.0508 10.4531 17.8945 10.4141 17.6602C10.3828 17.418 10.3242 17.0977 10.2383 16.6992C9.74609 16.8477 9.35156 16.9102 9.05469 16.8867C8.76562 16.8555 8.5625 16.7812 8.44531 16.6641C8.32812 16.5469 8.29688 16.4102 8.35156 16.2539C8.40625 16.0977 8.52734 15.9688 8.71484 15.8672C8.91016 15.7578 9.16797 15.6992 9.48828 15.6914C9.81641 15.6758 10.1992 15.7461 10.6367 15.9023C10.668 15.8633 10.6914 15.7812 10.707 15.6562C10.7305 15.5312 10.7539 15.3867 10.7773 15.2227C10.8008 15.0586 10.8242 14.8867 10.8477 14.707C10.8789 14.5273 10.9023 14.3633 10.918 14.2148C10.9414 14.0664 10.9609 13.9414 10.9766 13.8398C10.9922 13.7305 11.0117 13.6758 11.0352 13.6758C11.082 13.6445 11.1562 13.6211 11.2578 13.6055C11.3594 13.5898 11.457 13.5781 11.5508 13.5703C11.6758 13.5547 11.8047 13.5469 11.9375 13.5469L12.0898 15.4688H12.9688C12.9688 15.4531 12.9727 15.3867 12.9805 15.2695C12.9883 15.1523 13 15.0117 13.0156 14.8477C13.0391 14.6758 13.0664 14.4922 13.0977 14.2969C13.1367 14.1016 13.1836 13.9258 13.2383 13.7695C13.293 13.6055 13.3555 13.4688 13.4258 13.3594C13.5039 13.25 13.5977 13.1953 13.707 13.1953C13.7383 13.1953 13.7852 13.1992 13.8477 13.207C13.9102 13.207 13.9688 13.2148 14.0234 13.2305C14.0781 13.2461 14.125 13.2734 14.1641 13.3125C14.2109 13.3438 14.2344 13.3945 14.2344 13.4648V15.2227C14.3203 15.2539 14.4336 15.2852 14.5742 15.3164C14.7227 15.3477 14.8828 15.3789 15.0547 15.4102C15.2344 15.4336 15.4141 15.4609 15.5938 15.4922C15.7734 15.5234 15.9375 15.5586 16.0859 15.5977C16.2344 15.6367 16.3555 15.6836 16.4492 15.7383C16.543 15.7852 16.5898 15.8398 16.5898 15.9023C16.5352 16.0664 16.4219 16.1875 16.25 16.2656C16.0859 16.3359 15.8984 16.3945 15.6875 16.4414C15.4844 16.4805 15.2773 16.5195 15.0664 16.5586C14.8633 16.5898 14.6953 16.6406 14.5625 16.7109C14.4375 16.7812 14.3633 16.8828 14.3398 17.0156C14.3242 17.1484 14.4062 17.3359 14.5859 17.5781C14.6719 17.5781 14.7812 17.5703 14.9141 17.5547C15.0469 17.5391 15.1836 17.5234 15.3242 17.5078C15.4648 17.4922 15.6055 17.4844 15.7461 17.4844C15.8867 17.4844 16.0117 17.5 16.1211 17.5312C16.2305 17.5625 16.3203 17.6172 16.3906 17.6953C16.4609 17.7734 16.4961 17.8828 16.4961 18.0234C16.4961 18.1484 16.418 18.25 16.2617 18.3281C16.1133 18.4062 15.9375 18.4727 15.7344 18.5273C15.5312 18.582 15.332 18.625 15.1367 18.6562C14.9492 18.6875 14.8125 18.7148 14.7266 18.7383C14.75 18.8789 14.7773 19.0508 14.8086 19.2539C14.8398 19.4492 14.8477 19.6406 14.832 19.8281C14.8242 20.0156 14.7773 20.1797 14.6914 20.3203C14.6055 20.4609 14.4531 20.5312 14.2344 20.5312C14.0703 20.4766 13.9492 20.3945 13.8711 20.2852C13.8008 20.168 13.7422 20.043 13.6953 19.9102C13.6562 19.7695 13.6211 19.6367 13.5898 19.5117C13.5586 19.3789 13.5039 19.2695 13.4258 19.1836C13.3477 19.0977 13.2305 19.0508 13.0742 19.043C12.918 19.0273 12.6992 19.0664 12.418 19.1602C12.418 19.3008 12.418 19.4648 12.418 19.6523C12.418 19.832 12.3984 20.0078 12.3594 20.1797C12.3281 20.3438 12.2617 20.4844 12.1602 20.6016C12.0586 20.7109 11.9102 20.7656 11.7148 20.7656C11.6445 20.7656 11.5625 20.707 11.4688 20.5898C11.3828 20.4727 11.2891 20.332 11.1875 20.168C11.0938 19.9961 10.9961 19.8281 10.8945 19.6641C10.793 19.5 10.6953 19.3672 10.6016 19.2656C10.1328 19.2188 9.76953 19.168 9.51172 19.1133C9.26172 19.0508 9.08984 18.9883 8.99609 18.9258C8.90234 18.8633 8.875 18.8008 8.91406 18.7383C8.95312 18.668 9.02344 18.6016 9.125 18.5391C9.38281 18.4062 9.83203 18.2695 10.4727 18.1289ZM11.9609 17.4727C11.9609 17.543 11.9805 17.5977 12.0195 17.6367C12.0586 17.6758 12.1055 17.707 12.1602 17.7305C12.2148 17.7461 12.2695 17.7578 12.3242 17.7656C12.3867 17.7656 12.4375 17.7656 12.4766 17.7656C12.5391 17.7656 12.6133 17.7617 12.6992 17.7539C12.7852 17.7383 12.8672 17.7188 12.9453 17.6953C13.0312 17.6719 13.1016 17.6367 13.1562 17.5898C13.2188 17.5352 13.25 17.4648 13.25 17.3789C13.25 17.207 13.207 17.0508 13.1211 16.9102C13.043 16.7695 12.918 16.6992 12.7461 16.6992C12.6523 16.6992 12.5586 16.7227 12.4648 16.7695C12.3711 16.8086 12.2852 16.8672 12.207 16.9453C12.1367 17.0156 12.0781 17.0977 12.0312 17.1914C11.9844 17.2852 11.9609 17.3789 11.9609 17.4727ZM20.2578 14.4609C19.9531 14.3984 19.6484 14.2578 19.3438 14.0391C19.0391 13.8203 18.7461 13.5547 18.4648 13.2422C18.1914 12.9297 17.9297 12.582 17.6797 12.1992C17.4375 11.8164 17.2266 11.4297 17.0469 11.0391C16.8672 10.6484 16.7266 10.2695 16.625 9.90234C16.5234 9.53516 16.4727 9.20703 16.4727 8.91797C16.4727 8.87891 16.4727 8.83203 16.4727 8.77734C16.4805 8.72266 16.4883 8.67188 16.4961 8.625C16.5117 8.57031 16.5391 8.52734 16.5781 8.49609C16.6172 8.45703 16.668 8.4375 16.7305 8.4375C16.9258 8.4375 17.0938 8.50781 17.2344 8.64844C17.375 8.78125 17.5039 8.96094 17.6211 9.1875C17.7383 9.41406 17.8477 9.67188 17.9492 9.96094C18.0508 10.25 18.1523 10.543 18.2539 10.8398C18.3633 11.1367 18.4766 11.4297 18.5938 11.7188C18.7109 12.0078 18.8398 12.2656 18.9805 12.4922C19.1289 12.7188 19.2969 12.9023 19.4844 13.043C19.6719 13.1758 19.8867 13.2422 20.1289 13.2422C20.1445 13.2422 20.1641 13.2383 20.1875 13.2305C20.2188 13.2227 20.2422 13.2188 20.2578 13.2188C20.4766 13.0234 20.6719 12.7656 20.8438 12.4453C21.0234 12.1172 21.1875 11.7656 21.3359 11.3906C21.4844 11.0156 21.6289 10.6289 21.7695 10.2305C21.9102 9.83203 22.0547 9.46094 22.2031 9.11719C22.3594 8.77344 22.5195 8.47266 22.6836 8.21484C22.8555 7.95703 23.0508 7.77734 23.2695 7.67578L23.7734 8.19141C23.8359 8.25391 23.8438 8.38281 23.7969 8.57812C23.7578 8.76562 23.6836 9.00391 23.5742 9.29297C23.4727 9.57422 23.3438 9.89062 23.1875 10.2422C23.0312 10.5859 22.8672 10.9453 22.6953 11.3203C22.5234 11.6953 22.3516 12.0703 22.1797 12.4453C22.0078 12.8125 21.8516 13.1602 21.7109 13.4883C21.5781 13.8164 21.4688 14.1094 21.3828 14.3672C21.2969 14.625 21.2539 14.8281 21.2539 14.9766C21.2539 15.4453 21.3203 15.8984 21.4531 16.3359C21.5938 16.7734 21.7422 17.2109 21.8984 17.6484C22.0547 18.0781 22.1992 18.5117 22.332 18.9492C22.4648 19.3789 22.5312 19.8203 22.5312 20.2734C22.5312 20.3359 22.5312 20.418 22.5312 20.5195C22.5312 20.6133 22.5156 20.7031 22.4844 20.7891C22.4609 20.875 22.4102 20.9414 22.332 20.9883C22.2617 21.0352 22.1562 21.0391 22.0156 21C21.7266 20.5781 21.4727 20.1016 21.2539 19.5703C21.0352 19.0312 20.8477 18.4727 20.6914 17.8945C20.5352 17.3164 20.418 16.7344 20.3398 16.1484C20.2695 15.5547 20.2422 14.9922 20.2578 14.4609ZM24.0078 18.6211C24.0078 18.1367 24.1211 17.6875 24.3477 17.2734C24.5742 16.8516 24.8711 16.4922 25.2383 16.1953C25.6133 15.8906 26.0312 15.6523 26.4922 15.4805C26.9609 15.3086 27.4336 15.2227 27.9102 15.2227C28.1758 15.2227 28.4102 15.3086 28.6133 15.4805C28.8242 15.6523 29 15.8633 29.1406 16.1133C29.2812 16.3555 29.3867 16.6133 29.457 16.8867C29.5352 17.1602 29.5742 17.3984 29.5742 17.6016C29.5742 18.0391 29.4688 18.4648 29.2578 18.8789C29.0469 19.2852 28.7734 19.6484 28.4375 19.9688C28.1016 20.2812 27.7227 20.5352 27.3008 20.7305C26.8789 20.9258 26.457 21.0234 26.0352 21.0234C25.6602 21.0234 25.3438 20.9609 25.0859 20.8359C24.8281 20.7031 24.6211 20.5312 24.4648 20.3203C24.3086 20.1016 24.1914 19.8477 24.1133 19.5586C24.043 19.2617 24.0078 18.9492 24.0078 18.6211ZM25.0039 18.7383C25.0039 18.9414 25.0195 19.1211 25.0508 19.2773C25.0898 19.4258 25.1523 19.5547 25.2383 19.6641C25.332 19.7734 25.4531 19.8594 25.6016 19.9219C25.75 19.9766 25.9336 20.0039 26.1523 20.0039C26.4414 20.0039 26.7305 19.9258 27.0195 19.7695C27.3086 19.6055 27.5664 19.4023 27.793 19.1602C28.0273 18.9102 28.2148 18.6367 28.3555 18.3398C28.4961 18.043 28.5664 17.7539 28.5664 17.4727C28.5664 17.3477 28.5547 17.2109 28.5312 17.0625C28.5078 16.9141 28.4688 16.7773 28.4141 16.6523C28.3594 16.5273 28.2812 16.4219 28.1797 16.3359C28.0781 16.25 27.9492 16.207 27.793 16.207C27.6523 16.207 27.4844 16.2539 27.2891 16.3477C27.1016 16.4414 26.9023 16.5625 26.6914 16.7109C26.4883 16.8594 26.2852 17.0273 26.082 17.2148C25.8867 17.4023 25.707 17.5898 25.543 17.7773C25.3789 17.9648 25.2461 18.1445 25.1445 18.3164C25.0508 18.4883 25.0039 18.6289 25.0039 18.7383ZM30.0312 16.2188C30.0312 16.1719 30.0312 16.0898 30.0312 15.9727C30.0391 15.8477 30.043 15.7188 30.043 15.5859C30.043 15.4531 30.043 15.332 30.043 15.2227C30.0508 15.1055 30.0547 15.0234 30.0547 14.9766C30.1094 14.8828 30.1719 14.793 30.2422 14.707C30.3203 14.6133 30.3984 14.5508 30.4766 14.5195C30.5625 14.4805 30.6523 14.4727 30.7461 14.4961C30.8477 14.5195 30.9492 14.5977 31.0508 14.7305V14.8242V14.9766C31.043 15.0156 31.0273 15.1094 31.0039 15.2578C30.9805 15.3984 30.9531 15.5547 30.9219 15.7266C30.8906 15.8984 30.8594 16.0586 30.8281 16.207C30.8047 16.3477 30.793 16.4375 30.793 16.4766C30.793 16.625 30.8086 16.8125 30.8398 17.0391C30.8711 17.2578 30.9141 17.4883 30.9688 17.7305C31.0312 17.9727 31.1055 18.2148 31.1914 18.457C31.2852 18.6992 31.3945 18.918 31.5195 19.1133C31.6445 19.3008 31.7812 19.457 31.9297 19.582C32.0859 19.707 32.2656 19.7695 32.4688 19.7695C32.7188 19.7695 32.9375 19.7031 33.125 19.5703C33.3203 19.4375 33.4883 19.2656 33.6289 19.0547C33.7695 18.8438 33.8828 18.6055 33.9688 18.3398C34.0625 18.0742 34.1367 17.8086 34.1914 17.543C34.2461 17.2695 34.2852 17.0078 34.3086 16.7578C34.332 16.5078 34.3438 16.2891 34.3438 16.1016C34.3438 15.9141 34.3281 15.7383 34.2969 15.5742C34.2734 15.4023 34.2422 15.2344 34.2031 15.0703C34.1641 14.9062 34.1289 14.7461 34.0977 14.5898C34.0742 14.4258 34.0625 14.2617 34.0625 14.0977C34.0625 13.9492 34.1133 13.8438 34.2148 13.7812C34.3242 13.7188 34.4453 13.6875 34.5781 13.6875C34.7422 13.6875 34.875 13.7383 34.9766 13.8398C35.0781 13.9336 35.1562 14.0547 35.2109 14.2031C35.2734 14.3516 35.3125 14.5234 35.3281 14.7188C35.3516 14.9062 35.3633 15.0938 35.3633 15.2812C35.3633 15.4688 35.3594 15.6484 35.3516 15.8203C35.3438 15.9844 35.3398 16.1172 35.3398 16.2188C35.3398 16.4844 35.3203 16.7852 35.2812 17.1211C35.2422 17.457 35.1719 17.8047 35.0703 18.1641C34.9766 18.5156 34.8555 18.8633 34.707 19.207C34.5664 19.5508 34.3906 19.8594 34.1797 20.1328C33.9766 20.3984 33.7383 20.6133 33.4648 20.7773C33.1992 20.9414 32.8984 21.0234 32.5625 21.0234C32.2109 21.0234 31.9023 20.9414 31.6367 20.7773C31.3711 20.6055 31.1445 20.3828 30.957 20.1094C30.7773 19.8281 30.625 19.5117 30.5 19.1602C30.375 18.8086 30.2773 18.457 30.207 18.1055C30.1445 17.7539 30.0977 17.4141 30.0664 17.0859C30.043 16.75 30.0312 16.4609 30.0312 16.2188ZM36.0547 16.0781C36.0547 16.0078 36.0586 15.9375 36.0664 15.8672C36.0742 15.7891 36.0898 15.7227 36.1133 15.668C36.1367 15.6055 36.1719 15.5547 36.2188 15.5156C36.2734 15.4766 36.3477 15.457 36.4414 15.457C36.5195 15.457 36.6055 15.5195 36.6992 15.6445C36.8008 15.7617 36.9023 15.9141 37.0039 16.1016C37.1055 16.2812 37.2031 16.4805 37.2969 16.6992C37.3984 16.918 37.4844 17.1211 37.5547 17.3086C37.6328 17.4883 37.6953 17.6445 37.7422 17.7773C37.7891 17.9102 37.8164 17.9805 37.8242 17.9883C37.9258 17.7148 38.0391 17.418 38.1641 17.0977C38.2891 16.7773 38.4414 16.4805 38.6211 16.207C38.8086 15.9258 39.0273 15.6914 39.2773 15.5039C39.5352 15.3164 39.8477 15.2227 40.2148 15.2227C40.4023 15.2227 40.5781 15.2539 40.7422 15.3164C40.9141 15.3711 41.0625 15.457 41.1875 15.5742C41.3203 15.6836 41.4258 15.8164 41.5039 15.9727C41.582 16.1289 41.6211 16.3086 41.6211 16.5117C41.6211 16.6836 41.5508 16.8047 41.4102 16.875C41.2773 16.9453 41.125 16.9805 40.9531 16.9805H40.8359L40.332 16.4766C40.3164 16.4766 40.3047 16.4727 40.2969 16.4648C40.2812 16.4648 40.2656 16.4648 40.25 16.4648C40.2422 16.457 40.2305 16.4531 40.2148 16.4531C39.9414 16.4531 39.7266 16.5312 39.5703 16.6875C39.4219 16.8359 39.3086 17.0234 39.2305 17.25C39.1523 17.4688 39.1016 17.7031 39.0781 17.9531C39.0625 18.1953 39.0547 18.418 39.0547 18.6211C39.0547 18.7773 39.0703 18.9375 39.1016 19.1016C39.1328 19.2578 39.168 19.4141 39.207 19.5703C39.2461 19.7188 39.2812 19.875 39.3125 20.0391C39.3438 20.1953 39.3594 20.3594 39.3594 20.5312C39.3594 20.8594 39.1836 21.0234 38.832 21.0234C38.6367 21.0234 38.4336 20.9219 38.2227 20.7188C38.0117 20.5078 37.8008 20.2422 37.5898 19.9219C37.3867 19.6016 37.1914 19.25 37.0039 18.8672C36.8164 18.4766 36.6523 18.0977 36.5117 17.7305C36.3711 17.3633 36.2578 17.0312 36.1719 16.7344C36.0938 16.4375 36.0547 16.2188 36.0547 16.0781ZM47.4453 16.9805C47.4453 16.7148 47.4805 16.4258 47.5508 16.1133C47.6289 15.8008 47.7344 15.4883 47.8672 15.1758C48 14.8555 48.1602 14.5469 48.3477 14.25C48.5352 13.9453 48.7461 13.6797 48.9805 13.4531C49.2148 13.2188 49.4688 13.0352 49.7422 12.9023C50.0156 12.7617 50.3047 12.6914 50.6094 12.6914C50.8594 12.6914 51.0938 12.7266 51.3125 12.7969C51.5312 12.8594 51.7188 12.957 51.875 13.0898C52.0312 13.2227 52.1523 13.3906 52.2383 13.5938C52.332 13.7891 52.3789 14.0234 52.3789 14.2969C52.207 14.2969 52.0664 14.2539 51.957 14.168C51.8555 14.0742 51.7578 13.9727 51.6641 13.8633C51.5781 13.7539 51.4805 13.6562 51.3711 13.5703C51.2695 13.4844 51.1367 13.4414 50.9727 13.4414C50.7305 13.4414 50.4961 13.5039 50.2695 13.6289C50.0508 13.7539 49.8438 13.9219 49.6484 14.1328C49.4609 14.3438 49.293 14.582 49.1445 14.8477C49.0039 15.1133 48.8789 15.3828 48.7695 15.6562C48.668 15.9219 48.5859 16.1836 48.5234 16.4414C48.4688 16.6992 48.4414 16.9219 48.4414 17.1094C48.4414 17.5156 48.5 17.8984 48.6172 18.2578C48.7422 18.6094 48.918 18.918 49.1445 19.1836C49.3711 19.4414 49.6523 19.6445 49.9883 19.793C50.3242 19.9414 50.707 20.0156 51.1367 20.0156C51.4102 20.0156 51.668 19.9766 51.9102 19.8984C52.1602 19.8125 52.3984 19.7227 52.625 19.6289C52.8594 19.5273 53.0898 19.4336 53.3164 19.3477C53.543 19.2617 53.7695 19.2188 53.9961 19.2188C54.0273 19.2188 54.0703 19.2227 54.125 19.2305C54.1875 19.2305 54.2422 19.2383 54.2891 19.2539C54.3438 19.2695 54.3906 19.2969 54.4297 19.3359C54.4688 19.3672 54.4883 19.418 54.4883 19.4883C54.4883 19.7695 54.3789 20.0078 54.1602 20.2031C53.9492 20.3984 53.6953 20.5586 53.3984 20.6836C53.1016 20.8008 52.793 20.8867 52.4727 20.9414C52.1523 20.9961 51.8906 21.0234 51.6875 21.0234C51.0938 21.0234 50.5391 20.9297 50.0234 20.7422C49.5078 20.5469 49.0586 20.2734 48.6758 19.9219C48.293 19.5703 47.9922 19.1484 47.7734 18.6562C47.5547 18.1562 47.4453 17.5977 47.4453 16.9805ZM54.9805 18.6211C54.9805 18.1367 55.0938 17.6875 55.3203 17.2734C55.5469 16.8516 55.8438 16.4922 56.2109 16.1953C56.5859 15.8906 57.0039 15.6523 57.4648 15.4805C57.9336 15.3086 58.4062 15.2227 58.8828 15.2227C59.1484 15.2227 59.3828 15.3086 59.5859 15.4805C59.7969 15.6523 59.9727 15.8633 60.1133 16.1133C60.2539 16.3555 60.3594 16.6133 60.4297 16.8867C60.5078 17.1602 60.5469 17.3984 60.5469 17.6016C60.5469 18.0391 60.4414 18.4648 60.2305 18.8789C60.0195 19.2852 59.7461 19.6484 59.4102 19.9688C59.0742 20.2812 58.6953 20.5352 58.2734 20.7305C57.8516 20.9258 57.4297 21.0234 57.0078 21.0234C56.6328 21.0234 56.3164 20.9609 56.0586 20.8359C55.8008 20.7031 55.5938 20.5312 55.4375 20.3203C55.2812 20.1016 55.1641 19.8477 55.0859 19.5586C55.0156 19.2617 54.9805 18.9492 54.9805 18.6211ZM55.9766 18.7383C55.9766 18.9414 55.9922 19.1211 56.0234 19.2773C56.0625 19.4258 56.125 19.5547 56.2109 19.6641C56.3047 19.7734 56.4258 19.8594 56.5742 19.9219C56.7227 19.9766 56.9062 20.0039 57.125 20.0039C57.4141 20.0039 57.7031 19.9258 57.9922 19.7695C58.2812 19.6055 58.5391 19.4023 58.7656 19.1602C59 18.9102 59.1875 18.6367 59.3281 18.3398C59.4688 18.043 59.5391 17.7539 59.5391 17.4727C59.5391 17.3477 59.5273 17.2109 59.5039 17.0625C59.4805 16.9141 59.4414 16.7773 59.3867 16.6523C59.332 16.5273 59.2539 16.4219 59.1523 16.3359C59.0508 16.25 58.9219 16.207 58.7656 16.207C58.625 16.207 58.457 16.2539 58.2617 16.3477C58.0742 16.4414 57.875 16.5625 57.6641 16.7109C57.4609 16.8594 57.2578 17.0273 57.0547 17.2148C56.8594 17.4023 56.6797 17.5898 56.5156 17.7773C56.3516 17.9648 56.2188 18.1445 56.1172 18.3164C56.0234 18.4883 55.9766 18.6289 55.9766 18.7383ZM61.0039 17.0508C61.0039 16.8477 61.0547 16.7031 61.1562 16.6172C61.2578 16.5234 61.4219 16.4766 61.6484 16.4766H61.7656C61.7891 16.6016 61.8164 16.7461 61.8477 16.9102C61.8789 17.0742 61.9258 17.2422 61.9883 17.4141C62.0508 17.5859 62.125 17.7461 62.2109 17.8945C62.2969 18.0352 62.4023 18.1484 62.5273 18.2344C62.5352 17.9609 62.6016 17.6992 62.7266 17.4492C62.8594 17.1914 63.0195 16.9648 63.207 16.7695C63.4023 16.5664 63.6133 16.3984 63.8398 16.2656C64.0742 16.125 64.3047 16.0312 64.5312 15.9844H64.7891C65.1641 15.9844 65.4844 16.0703 65.75 16.2422C66.0156 16.4062 66.2344 16.625 66.4062 16.8984C66.5859 17.1641 66.7227 17.4688 66.8164 17.8125C66.9102 18.1562 66.9805 18.5078 67.0273 18.8672C67.082 19.2188 67.1133 19.5625 67.1211 19.8984C67.1367 20.2266 67.1445 20.5078 67.1445 20.7422H66.2891C66.2422 20.2734 66.1836 19.8242 66.1133 19.3945C66.0898 19.2227 66.0586 19.043 66.0195 18.8555C65.9805 18.6602 65.9375 18.4805 65.8906 18.3164C65.8438 18.1445 65.793 17.9883 65.7383 17.8477C65.6836 17.6992 65.6211 17.5742 65.5508 17.4727C65.5195 17.4414 65.4766 17.3984 65.4219 17.3438C65.375 17.2891 65.3242 17.2344 65.2695 17.1797C65.2148 17.125 65.1641 17.0781 65.1172 17.0391C65.0703 17 65.043 16.9805 65.0352 16.9805C64.8008 16.918 64.5977 16.9648 64.4258 17.1211C64.2539 17.2695 64.1016 17.4727 63.9688 17.7305C63.8359 17.9883 63.7266 18.2812 63.6406 18.6094C63.5625 18.9375 63.4961 19.2539 63.4414 19.5586C63.3867 19.8555 63.3477 20.1172 63.3242 20.3438C63.3008 20.5625 63.2852 20.6953 63.2773 20.7422C63.082 20.8828 62.8984 20.9258 62.7266 20.8711C62.5547 20.8086 62.3906 20.6836 62.2344 20.4961C62.0859 20.3086 61.9492 20.0742 61.8242 19.793C61.707 19.5117 61.5977 19.2148 61.4961 18.9023C61.3945 18.582 61.3008 18.2617 61.2148 17.9414C61.1367 17.6211 61.0664 17.3242 61.0039 17.0508ZM67.5312 15.0938C67.5312 15.0703 67.5352 15.0508 67.543 15.0352C67.543 15.0195 67.5469 15 67.5547 14.9766C67.5859 14.9375 67.6328 14.8867 67.6953 14.8242C67.7578 14.7617 67.7969 14.7305 67.8125 14.7305H70.168C70.168 14.6445 70.1562 14.5078 70.1328 14.3203C70.1094 14.1328 70.0859 13.9258 70.0625 13.6992C70.0469 13.4727 70.043 13.2383 70.0508 12.9961C70.0586 12.7461 70.0898 12.5234 70.1445 12.3281C70.207 12.125 70.3008 11.9609 70.4258 11.8359C70.5586 11.7031 70.7422 11.6367 70.9766 11.6367C70.9766 12.4258 71.0312 13.0586 71.1406 13.5352C71.25 14.0117 71.3945 14.3789 71.5742 14.6367C71.7617 14.8945 71.9727 15.0625 72.207 15.1406C72.4414 15.2188 72.6797 15.2539 72.9219 15.2461C73.1719 15.2305 73.4141 15.1914 73.6484 15.1289C73.8828 15.0664 74.0898 15.0234 74.2695 15C74.457 14.9766 74.6055 14.9961 74.7148 15.0586C74.8242 15.1133 74.8789 15.25 74.8789 15.4688C74.8789 15.6328 74.8398 15.75 74.7617 15.8203C74.6914 15.8906 74.5508 15.9453 74.3398 15.9844C74.2773 15.9922 74.1719 16.0078 74.0234 16.0312C73.8828 16.0469 73.7227 16.0625 73.543 16.0781C73.3633 16.0938 73.1719 16.1133 72.9688 16.1367C72.7656 16.1523 72.5742 16.168 72.3945 16.1836C72.2148 16.1992 72.0508 16.2109 71.9023 16.2188C71.7539 16.2188 71.6445 16.2188 71.5742 16.2188C71.5742 16.2578 71.5703 16.3242 71.5625 16.418C71.5547 16.5117 71.5508 16.5742 71.5508 16.6055C71.5508 16.9492 71.6055 17.2852 71.7148 17.6133C71.8242 17.9336 71.9414 18.2539 72.0664 18.5742C72.1992 18.8945 72.3203 19.2148 72.4297 19.5352C72.5391 19.8555 72.5938 20.1875 72.5938 20.5312C72.5938 20.5938 72.5859 20.6602 72.5703 20.7305C72.5625 20.793 72.5391 20.8516 72.5 20.9062C72.4688 20.9531 72.418 20.9883 72.3477 21.0117C72.2852 21.043 72.1953 21.0391 72.0781 21C71.7812 20.9219 71.5586 20.7539 71.4102 20.4961C71.2695 20.2383 71.1641 19.9336 71.0938 19.582C71.0234 19.2227 70.9766 18.8438 70.9531 18.4453C70.9297 18.0469 70.8906 17.6758 70.8359 17.332C70.7891 16.9805 70.7109 16.6836 70.6016 16.4414C70.4922 16.1914 70.3164 16.0391 70.0742 15.9844L67.8125 15.4688C67.7812 15.4688 67.7344 15.4375 67.6719 15.375C67.6094 15.3047 67.5703 15.2539 67.5547 15.2227C67.5469 15.207 67.543 15.1875 67.543 15.1641C67.5352 15.1484 67.5312 15.125 67.5312 15.0938ZM75.3242 16.0781C75.3242 16.0078 75.3281 15.9375 75.3359 15.8672C75.3438 15.7891 75.3594 15.7227 75.3828 15.668C75.4062 15.6055 75.4414 15.5547 75.4883 15.5156C75.543 15.4766 75.6172 15.457 75.7109 15.457C75.7891 15.457 75.875 15.5195 75.9688 15.6445C76.0703 15.7617 76.1719 15.9141 76.2734 16.1016C76.375 16.2812 76.4727 16.4805 76.5664 16.6992C76.668 16.918 76.7539 17.1211 76.8242 17.3086C76.9023 17.4883 76.9648 17.6445 77.0117 17.7773C77.0586 17.9102 77.0859 17.9805 77.0938 17.9883C77.1953 17.7148 77.3086 17.418 77.4336 17.0977C77.5586 16.7773 77.7109 16.4805 77.8906 16.207C78.0781 15.9258 78.2969 15.6914 78.5469 15.5039C78.8047 15.3164 79.1172 15.2227 79.4844 15.2227C79.6719 15.2227 79.8477 15.2539 80.0117 15.3164C80.1836 15.3711 80.332 15.457 80.457 15.5742C80.5898 15.6836 80.6953 15.8164 80.7734 15.9727C80.8516 16.1289 80.8906 16.3086 80.8906 16.5117C80.8906 16.6836 80.8203 16.8047 80.6797 16.875C80.5469 16.9453 80.3945 16.9805 80.2227 16.9805H80.1055L79.6016 16.4766C79.5859 16.4766 79.5742 16.4727 79.5664 16.4648C79.5508 16.4648 79.5352 16.4648 79.5195 16.4648C79.5117 16.457 79.5 16.4531 79.4844 16.4531C79.2109 16.4531 78.9961 16.5312 78.8398 16.6875C78.6914 16.8359 78.5781 17.0234 78.5 17.25C78.4219 17.4688 78.3711 17.7031 78.3477 17.9531C78.332 18.1953 78.3242 18.418 78.3242 18.6211C78.3242 18.7773 78.3398 18.9375 78.3711 19.1016C78.4023 19.2578 78.4375 19.4141 78.4766 19.5703C78.5156 19.7188 78.5508 19.875 78.582 20.0391C78.6133 20.1953 78.6289 20.3594 78.6289 20.5312C78.6289 20.8594 78.4531 21.0234 78.1016 21.0234C77.9062 21.0234 77.7031 20.9219 77.4922 20.7188C77.2812 20.5078 77.0703 20.2422 76.8594 19.9219C76.6562 19.6016 76.4609 19.25 76.2734 18.8672C76.0859 18.4766 75.9219 18.0977 75.7812 17.7305C75.6406 17.3633 75.5273 17.0312 75.4414 16.7344C75.3633 16.4375 75.3242 16.2188 75.3242 16.0781ZM81.3125 18.6211C81.3125 18.1367 81.4258 17.6875 81.6523 17.2734C81.8789 16.8516 82.1758 16.4922 82.543 16.1953C82.918 15.8906 83.3359 15.6523 83.7969 15.4805C84.2656 15.3086 84.7383 15.2227 85.2148 15.2227C85.4805 15.2227 85.7148 15.3086 85.918 15.4805C86.1289 15.6523 86.3047 15.8633 86.4453 16.1133C86.5859 16.3555 86.6914 16.6133 86.7617 16.8867C86.8398 17.1602 86.8789 17.3984 86.8789 17.6016C86.8789 18.0391 86.7734 18.4648 86.5625 18.8789C86.3516 19.2852 86.0781 19.6484 85.7422 19.9688C85.4062 20.2812 85.0273 20.5352 84.6055 20.7305C84.1836 20.9258 83.7617 21.0234 83.3398 21.0234C82.9648 21.0234 82.6484 20.9609 82.3906 20.8359C82.1328 20.7031 81.9258 20.5312 81.7695 20.3203C81.6133 20.1016 81.4961 19.8477 81.418 19.5586C81.3477 19.2617 81.3125 18.9492 81.3125 18.6211ZM82.3086 18.7383C82.3086 18.9414 82.3242 19.1211 82.3555 19.2773C82.3945 19.4258 82.457 19.5547 82.543 19.6641C82.6367 19.7734 82.7578 19.8594 82.9062 19.9219C83.0547 19.9766 83.2383 20.0039 83.457 20.0039C83.7461 20.0039 84.0352 19.9258 84.3242 19.7695C84.6133 19.6055 84.8711 19.4023 85.0977 19.1602C85.332 18.9102 85.5195 18.6367 85.6602 18.3398C85.8008 18.043 85.8711 17.7539 85.8711 17.4727C85.8711 17.3477 85.8594 17.2109 85.8359 17.0625C85.8125 16.9141 85.7734 16.7773 85.7188 16.6523C85.6641 16.5273 85.5859 16.4219 85.4844 16.3359C85.3828 16.25 85.2539 16.207 85.0977 16.207C84.957 16.207 84.7891 16.2539 84.5938 16.3477C84.4062 16.4414 84.207 16.5625 83.9961 16.7109C83.793 16.8594 83.5898 17.0273 83.3867 17.2148C83.1914 17.4023 83.0117 17.5898 82.8477 17.7773C82.6836 17.9648 82.5508 18.1445 82.4492 18.3164C82.3555 18.4883 82.3086 18.6289 82.3086 18.7383ZM87.6172 14.3672C87.6172 14.1406 87.6016 13.9219 87.5703 13.7109C87.5391 13.4922 87.5312 13.3008 87.5469 13.1367C87.5625 12.9648 87.6211 12.8281 87.7227 12.7266C87.832 12.625 88.0273 12.5742 88.3086 12.5742C88.3945 12.7539 88.4766 13.0273 88.5547 13.3945C88.6406 13.7617 88.7227 14.1836 88.8008 14.6602C88.8789 15.1367 88.9531 15.6562 89.0234 16.2188C89.0938 16.7734 89.1562 17.332 89.2109 17.8945C89.2734 18.457 89.3242 19.0117 89.3633 19.5586C89.4102 20.0977 89.4453 20.5898 89.4688 21.0352C89.2109 21.207 89.0039 21.2188 88.8477 21.0703C88.6914 20.9219 88.5625 20.6719 88.4609 20.3203C88.3594 19.9609 88.2812 19.5273 88.2266 19.0195C88.1719 18.5039 88.1172 17.9727 88.0625 17.4258C88.0156 16.8711 87.957 16.3281 87.8867 15.7969C87.8164 15.2578 87.7266 14.7812 87.6172 14.3672Z" fill="white"/>
</svg>
